<?xml version="1.0" encoding="utf-8"?>
<!-- Generator: Adobe Illustrator 24.2.1, SVG Export Plug-In . SVG Version: 6.00 Build 0)  -->
<svg version="1.1" id="Calque_1" xmlns="http://www.w3.org/2000/svg" xmlns:xlink="http://www.w3.org/1999/xlink" x="0px" y="0px"
	 viewBox="0 0 512 512" style="enable-background:new 0 0 512 512;" xml:space="preserve">
<g>
	<ellipse transform="matrix(0.8263 -0.5632 0.5632 0.8263 -107.9801 110.5191)" cx="125.2" cy="230.3" rx="11.6" ry="17.3"/>
	<path d="M469.6,74.3l-192-68.6c-14-5-29.2-5-43.1,0l-192,68.6C17,83.4,0,107.6,0,134.6v242.8c0,27.1,17,51.2,42.4,60.3l192,68.6
		c14,5,29.2,5,43.1,0l192-68.6c25.5-9.1,42.5-33.3,42.5-60.3V134.6C512,107.5,495,83.4,469.6,74.3z M237.4,453.6
		c-3.7,4.1-9.5,5.1-15.8,2.8L43.8,392.3c-6.3-2.3-12.4-7.6-16.5-14.4c-4.1-6.9-5.7-14.4-4.5-20.6l25.6-123.2
		c1.9-9.1,9.9-13.2,19.3-9.8l19.4,7c-1.7-5.2-2.7-10.5-2.9-15.8c-1-24.7,16.7-38.1,39.3-30c22.6,8.2,41.8,34.9,42.7,59.6
		c0.2,5.2-0.5,10-1.8,14.1l19.4,7c9.4,3.4,17.9,13.4,20.5,24.1l35.9,145.4C242.1,443,241.1,449.6,237.4,453.6z M256,190L82.3,128
		L256,66l173.7,62L256,190z M448,377.5l-160,57.1v-188l160-57.1V377.5z"/>
</g>
</svg>
