<svg xmlns="http://www.w3.org/2000/svg" xmlns:xlink="http://www.w3.org/1999/xlink" viewBox="0 0 218.18 218.17"><defs><style>.cls-1{fill:none;}.cls-2{isolation:isolate;}.cls-3{clip-path:url(#clip-path);}.cls-4{fill:#9e9e9e;}.cls-5{fill:#999;}.cls-6{fill:#949494;}.cls-7{fill:#8f8f8f;}.cls-8{fill:#8a8a8a;}.cls-9{fill:#858585;}.cls-10{fill:#a3a3a3;}.cls-11{fill:#a8a8a8;}.cls-12{fill:#adadad;}.cls-13{fill:#b3b3b3;}.cls-14{fill:#b8b8b8;}.cls-15{fill:#bdbdbd;}.cls-16{fill:#c2c2c2;}.cls-17{fill:#c7c7c7;}.cls-18{fill:#ccc;}.cls-19{fill:#d1d1d1;}.cls-20{fill:#d6d6d6;}.cls-21{fill:#dbdbdb;}.cls-22{fill:#e0e0e0;}.cls-23{fill:#e6e6e6;}.cls-24{fill:#ebebeb;}.cls-25{fill:#f0f0f0;}.cls-26{fill:#f5f5f5;}.cls-27{fill:#fafafa;}.cls-28{fill:#fff;}.cls-29{fill:#231f20;}.cls-30{clip-path:url(#clip-path-2);}.cls-31{clip-path:url(#clip-path-4);}.cls-32{clip-path:url(#clip-path-5);}.cls-33{clip-path:url(#clip-path-7);}.cls-34{clip-path:url(#clip-path-8);}</style><clipPath id="clip-path" transform="translate(-0.03)"><path class="cls-1" d="M109.11,218.17h0A109,109,0,1,1,197.16,44.66,110.8,110.8,0,0,1,206,59a108.74,108.74,0,0,1,10.75,32.43,111,111,0,0,1,0,35.39A108.68,108.68,0,0,1,206,159.22a109.22,109.22,0,0,1-19.78,27,109.52,109.52,0,0,1-27,19.77c-4.62,2.17-10.89,4.82-15.66,6.62a108.52,108.52,0,0,1-16.78,4.13C121.52,217.39,114.44,218,109.11,218.17Z"/></clipPath><clipPath id="clip-path-2" transform="translate(-0.03)"><polygon class="cls-1" points="109.11 0 109.11 218.17 109.11 218.17 109.11 0"/></clipPath><clipPath id="clip-path-4" transform="translate(-0.03)"><path class="cls-1" d="M109.11,0V218.17h0Z"/></clipPath><clipPath id="clip-path-5" transform="translate(-0.03)"><path class="cls-1" d="M109.11,218.17h0v0Z"/></clipPath><clipPath id="clip-path-7" transform="translate(-0.03)"><path class="cls-1" d="M0,109.09a124.71,124.71,0,0,0,1.42,17.69,159.41,159.41,0,0,0,4.14,16.79,108.12,108.12,0,0,0,6.61,15.65c.18,1.31,8.55,14.87,14.09,20.86a163,163,0,0,0,11.83,11.83,122.61,122.61,0,0,0,13.53,9.92,121,121,0,0,0,15,7.77A159.44,159.44,0,0,0,82.9,215c5,1.43,12.06,2.18,17.27,2.81,2.66.32,6.26.25,8.94.36A109.09,109.09,0,0,1,109.11,0c-5.32.22-12.47.37-17.69,1.43-2.56.51-6,1-8.52,1.74a170.87,170.87,0,0,0-16.25,5.4,94.27,94.27,0,0,0-15,7.77c-2.09,1.41-5,3.14-7,4.71A161.15,161.15,0,0,0,32,32,165.28,165.28,0,0,0,21.07,44.66c-1.56,2-3.29,4.88-4.7,7a94.27,94.27,0,0,0-7.77,15A108.76,108.76,0,0,0,0,109.09Z"/></clipPath><clipPath id="clip-path-8" transform="translate(-0.03)"><path class="cls-1" d="M109.11,218.17c-2.68-.11-6.28,0-8.94-.36C95,217.18,88,216.43,82.9,215a159.44,159.44,0,0,1-16.25-5.4c-2.34-1-5.41-2.44-7.67-3.61s-5.17-2.85-7.33-4.16a115.12,115.12,0,0,1-13.53-9.92,163,163,0,0,1-11.83-11.83c-3.42-3.69-7.1-9.36-9.92-13.53-1.42-2.1-2.92-5.13-4.17-7.33a108.12,108.12,0,0,1-6.61-15.65h0c-1.44-5-3.1-11.71-4.14-16.79A82.72,82.72,0,0,1,.39,118a81.17,81.17,0,0,1-.36-9,171.84,171.84,0,0,1,1.42-17.7A108.16,108.16,0,0,1,8.6,66.63a109.62,109.62,0,0,1,12.47-22,75.07,75.07,0,0,1,5.22-6.56A161.16,161.16,0,0,1,38.12,26.26a164.75,164.75,0,0,1,13.53-9.92A76.72,76.72,0,0,1,59,12.18a108.66,108.66,0,0,1,23.92-9A164.78,164.78,0,0,1,100.17.36c2.66-.32,6.26-.25,8.94-.36a109.81,109.81,0,0,1,17.7,1.43,108.6,108.6,0,0,1,46.73,19.62A109.31,109.31,0,0,1,206,59a108.74,108.74,0,0,1,10.75,32.43,111,111,0,0,1,0,35.39A108.68,108.68,0,0,1,206,159.22a109.22,109.22,0,0,1-19.78,27,109.52,109.52,0,0,1-27,19.77h0c-4.62,2.17-10.89,4.82-15.66,6.62a108.52,108.52,0,0,1-16.78,4.13h0c-5.31.43-12.37,1.21-17.7,1.43Z"/></clipPath></defs><g id="Calque_2" data-name="Calque 2"><g id="Globe_Grid" data-name="Globe Grid"><g class="cls-2"><g class="cls-2"><g class="cls-3"><g class="cls-2"><path class="cls-4" d="M109.11,218.17c5.33-.22,12.41-.78,17.7-1.43a108.52,108.52,0,0,0,16.78-4.13c4.77-1.8,11-4.45,15.66-6.62a109.52,109.52,0,0,0,27-19.77,109.22,109.22,0,0,0,19.78-27,108.68,108.68,0,0,0,10.75-32.44,111,111,0,0,0,0-35.39A108.74,108.74,0,0,0,206,59a109.59,109.59,0,0,0-32.49-37.91A108.39,108.39,0,0,0,126.81,1.43a109.09,109.09,0,1,0-17.7,216.74h0" transform="translate(-0.03)"/><path class="cls-4" d="M0,109.09a109.06,109.06,0,0,0,5.19,33.35h0C-17,68.65,47.79,13.76,117.13,47.72c74.5,36.48,79.75,141.41,8.26,165.1-15,5-39.33,7.52-69.79-8.66a108.57,108.57,0,0,0,53.51,14h0c5.33-.22,12.41-.78,17.7-1.43a108.52,108.52,0,0,0,16.78-4.13h0c4.77-1.8,11-4.45,15.66-6.62a109.52,109.52,0,0,0,27-19.77,109.22,109.22,0,0,0,19.78-27,108.68,108.68,0,0,0,10.75-32.44,111,111,0,0,0,0-35.39A108.74,108.74,0,0,0,206,59a109.59,109.59,0,0,0-32.49-37.91A108.39,108.39,0,0,0,126.81,1.43,109.16,109.16,0,0,0,0,109.09" transform="translate(-0.03)"/><path class="cls-5" d="M0,109.09A110,110,0,0,0,1,123.24H1C-7.74,41,75.78,3.65,142.81,59.84c61.44,51.52,42.94,149.71-29.56,156.81-19.28,1.89-30.59-1.6-39.68-4.4a109.14,109.14,0,0,0,35.54,5.92h0c5.33-.22,12.41-.78,17.7-1.43a108.52,108.52,0,0,0,16.78-4.13h0c4.77-1.8,11-4.45,15.66-6.62a109.52,109.52,0,0,0,27-19.77,109.22,109.22,0,0,0,19.78-27,108.68,108.68,0,0,0,10.75-32.44,111,111,0,0,0,0-35.39A108.74,108.74,0,0,0,206,59a109.59,109.59,0,0,0-32.49-37.91A108.39,108.39,0,0,0,126.81,1.43,109.16,109.16,0,0,0,0,109.09" transform="translate(-0.03)"/><path class="cls-6" d="M.07,106.42c6.38-89,104.69-100.48,157.72-38.08,55.84,65.7,19.92,154.86-60,149.07-3.95-.28-6.69-.74-8.15-1a110.12,110.12,0,0,0,19.52,1.74h0c5.33-.22,12.41-.78,17.7-1.43a108.52,108.52,0,0,0,16.78-4.13h0c4.77-1.8,11-4.45,15.66-6.62a109.52,109.52,0,0,0,27-19.77,109.22,109.22,0,0,0,19.78-27,108.68,108.68,0,0,0,10.75-32.44,111,111,0,0,0,0-35.39A108.74,108.74,0,0,0,206,59a109.59,109.59,0,0,0-32.49-37.91A108.39,108.39,0,0,0,126.81,1.43,109.16,109.16,0,0,0,.07,106.42" transform="translate(-0.03)"/><path class="cls-7" d="M1.6,90.6c15.49-81,117.73-90,168.31-14.76C212,138.46,182.48,222.4,99.12,217.71l.78.07q4.56.39,9.21.39h0c5.33-.22,12.41-.78,17.7-1.43a108.52,108.52,0,0,0,16.78-4.13h0c4.77-1.8,11-4.45,15.66-6.62a109.52,109.52,0,0,0,27-19.77,109.22,109.22,0,0,0,19.78-27,108.68,108.68,0,0,0,10.75-32.44,111,111,0,0,0,0-35.39A108.74,108.74,0,0,0,206,59a109.59,109.59,0,0,0-32.49-37.91A108.39,108.39,0,0,0,126.81,1.43,109.19,109.19,0,0,0,1.6,90.6" transform="translate(-0.03)"/><path class="cls-8" d="M5.59,74.65C36.92-7.77,147.27,5.5,187.25,96.51c15,34.11,11.91,120.34-84.3,121.49q3.06.17,6.16.17h0c5.33-.22,12.41-.78,17.7-1.43a108.52,108.52,0,0,0,16.78-4.13h0c4.77-1.8,11-4.45,15.66-6.62a109.52,109.52,0,0,0,27-19.77,109.22,109.22,0,0,0,19.78-27,108.68,108.68,0,0,0,10.75-32.44,111,111,0,0,0,0-35.39A108.74,108.74,0,0,0,206,59a109.59,109.59,0,0,0-32.49-37.91A108.39,108.39,0,0,0,126.81,1.43,109.22,109.22,0,0,0,5.59,74.65" transform="translate(-0.03)"/><path class="cls-9" d="M13.29,56.94c48.61-80.23,166-33.52,184.79,52.15,8.65,39.35-7.53,87.63-55.19,103.75l.7-.23c4.77-1.8,11-4.45,15.66-6.62a109.52,109.52,0,0,0,27-19.77,109.22,109.22,0,0,0,19.78-27,108.68,108.68,0,0,0,10.75-32.44,111,111,0,0,0,0-35.39A108.74,108.74,0,0,0,206,59a109.59,109.59,0,0,0-32.49-37.91A108.39,108.39,0,0,0,126.81,1.43,109.23,109.23,0,0,0,13.29,56.94" transform="translate(-0.03)"/><path class="cls-10" d="M28.59,182.66c56.47,59.8,142.06,35.11,143.1-41.28,1-77.1-95.45-130.44-147.49-81.54-35.37,33.24-26.28,90.34,4.39,122.82" transform="translate(-0.03)"/><path class="cls-11" d="M28.84,182.66c54.28,57.17,137.37,32.45,138.92-41.33,1.5-71.64-90.92-124-141.27-80.12C-10.46,93.46-2.13,150,28.84,182.66" transform="translate(-0.03)"/><path class="cls-12" d="M23,175.09c47.49,60.25,131.5,45.65,140.46-24.4C171.9,84.55,86.78,18.05,27.79,63.91-3.28,88.06-5.48,139,23,175.09" transform="translate(-0.03)"/><path class="cls-13" d="M23.7,175.09C70.06,233.57,151.27,219,159.48,150.67c7.84-65.21-73.3-128.59-131.35-83.39C-2,90.74-4,140.11,23.7,175.09" transform="translate(-0.03)"/><path class="cls-14" d="M24.63,175.09c49.16,61.45,127,35.94,131.18-25.86C160.72,76.86,74.7,32.6,30.65,68.94c-37.79,31.18-26.27,80.84-6,106.15" transform="translate(-0.03)"/><path class="cls-15" d="M20.08,167c37.76,58.55,118.38,53.22,130.71-8.64C164.32,90.46,83.65,32.77,30.91,72.6,3.88,93-.88,134.47,20.08,167" transform="translate(-0.03)"/><path class="cls-16" d="M21.39,167c36.76,56.55,113,51.31,125.54-8.64C161.08,90.59,82.58,43,34.77,74.18,2.79,95,2.93,138.57,21.39,167" transform="translate(-0.03)"/><path class="cls-17" d="M22.91,167c35.41,53.94,107.32,48.77,120.22-8.64C158.56,89.64,84.29,51.49,39.65,74.94,9.09,91,1.27,134,22.91,167" transform="translate(-0.03)"/><path class="cls-18" d="M24.63,167c33,50.1,100.71,45,115-8.64,17.63-66-59.57-104.75-100.95-78.77C7,99.47,6.64,139.64,24.63,167" transform="translate(-0.03)"/><path class="cls-19" d="M26.65,167c34.75,50.9,102.59,40.13,111.67-17.74C146.74,95.6,83.85,55,37.89,84.32,15.14,98.86,5.2,135.53,26.65,167" transform="translate(-0.03)"/><path class="cls-20" d="M23.94,158.33c23.91,47.27,89.56,55,108.62,0,18.27-52.71-38.19-94.35-83.25-76-31.68,12.87-38.69,49.71-25.37,76" transform="translate(-0.03)"/><path class="cls-21" d="M26.34,158.33c24.24,47.71,84.92,47.71,103.06,0,18.52-48.71-32-93.8-80.62-72C22.71,98,12.44,131,26.34,158.33" transform="translate(-0.03)"/><path class="cls-22" d="M29.22,158.33c27.08,50.95,89,37.65,100.42-9.1,11.73-48.1-44.69-80.84-81.29-59C17.53,108.64,20,141,29.22,158.33" transform="translate(-0.03)"/><path class="cls-23" d="M32.43,158.33c26.27,48.17,83.57,29.12,94.9-9.1,11.89-40.09-35.9-81.5-79.32-55.15-18.29,11.1-29.44,38.82-15.58,64.25" transform="translate(-0.03)"/><path class="cls-24" d="M36,158.33c24.86,41.83,77.13,24.8,89-9.1,13.19-37.74-30.85-70.74-64.27-58.62C36,99.57,19.84,131.11,36,158.33" transform="translate(-0.03)"/><path class="cls-25" d="M40.2,158.33c24.62,38,80.3,19,84.91-18.62,4.23-34.56-40.74-65.82-74-41.13-16.12,12-24.89,38.23-10.95,59.75" transform="translate(-0.03)"/><path class="cls-26" d="M39.7,149.23c15.54,38.45,66.84,32.89,80.59,0,5.38-12.89,3.22-19.19-.36-29.64-2.53-7.39-4.42-9.07-16.68-20-.17-.15-17.49-14.69-42.86-3.87-21.61,9.21-28.14,35.13-20.69,53.55" transform="translate(-0.03)"/><path class="cls-27" d="M43.27,149.23c14.85,31.6,59.51,31.6,74.67,0,9.69-20.2-2.64-37.15-14.7-47.81-.2-.18-14.77-7-15-7-16.87-1.25-16.87-1.25-28,3.8-.13.06-14.61,9.43-18.59,21.35-3.2,9.62-1.7,22.62,1.6,29.64" transform="translate(-0.03)"/><path class="cls-28" d="M46.65,149.23c17.88,31.68,66.6,25.28,72.41-9.52C124.2,108.83,86.78,84,60.17,100.57c-18.72,11.69-21.59,34.36-13.52,48.66" transform="translate(-0.03)"/><path class="cls-28" d="M50.16,149.23c18.15,30.07,61.9,19.16,67.18-9.52,5.12-27.75-28.8-54.82-57.24-36.83-11.46,7.25-20.78,28.39-9.94,46.35" transform="translate(-0.03)"/><path class="cls-28" d="M50.55,143.42C60.83,166.37,79,165.34,91,164.66c.2,0,20.77-5.91,24.77-24.95,4.21-20-12.37-32.52-12.54-32.62C93.31,101,79.74,92.54,60.05,105.2c-.2.13-19.66,15.55-9.5,38.22" transform="translate(-0.03)"/><path class="cls-9" d="M109.11,218.17q3.23,0,6.4-.19h0c-3,.16-8,.18-9.75.14H106c1,0,2.06,0,3.09,0" transform="translate(-0.03)"/><path class="cls-28" d="M51.1,139.71c6.1,19.59,27,23.49,27.19,23.52,15,2.43,27.21-7,31.73-14,9.68-14.89,1.66-29.51,1.56-29.64-8.26-11.06-8.26-11.06-23.45-18.68-3.87-1.94-10.19-1.24-14.4-.3A36,36,0,0,0,60,107.53c-1.09.93-3.37,2.86-8.7,12.06,0,.08-3.1,10.89-.23,20.12" transform="translate(-0.03)"/><path class="cls-28" d="M53,139.71c6.39,18.13,24.66,21.41,24.83,21.41,14.45,0,14.45,0,26-7.07,4.48-2.76,8.84-14.23,8.87-14.34,4.93-18.83-11.83-30.52-12-30.62-9.86-5.84-22.13-13.12-39.67,0-9.3,7-11.36,21-8,30.62" transform="translate(-0.03)"/><path class="cls-28" d="M54.87,139.71A33.77,33.77,0,0,0,64,152.18c.91.77,12.94,6.89,13.56,6.89,3.85,0,9.13,1,12.84,0,.17-.05,12.22-6.52,13.3-7.15,2.58-1.49,7.3-12.09,7.33-12.19,2.3-8,1.88-19.8-13.14-30.62-2.71-2-6.46-5.15-9.8-5.31-13.47-.64-13.47-.64-21.64,3.82-7.71,4.2-17.68,16.64-11.58,32.11" transform="translate(-0.03)"/><path class="cls-28" d="M56.79,139.71a29.18,29.18,0,0,0,6.66,9.52c3.6,3.08,9.47,5.7,13.66,7.91,3.48,1.84,9.19.24,13.13.24,4.63,0,10-4.51,13.41-7.65.69-.63,5.77-9.95,5.79-10,4.32-13.91-6.1-24.43-6.21-24.53-2.32-2.24-11.64-8.78-15.15-10-4.11-1.38-10.24-1-14.44.07-8.57,2.18-24.64,16.53-16.85,34.41" transform="translate(-0.03)"/><path class="cls-28" d="M58.74,139.71c3.7,8.31,9.8,11.45,18.24,15.8,3.5,1.8,9.18.34,13.12.34s8.41-4,11.32-6.62a25.13,25.13,0,0,0,6.44-9.52c4.08-12.79-4.53-22.4-4.62-22.49s-10.85-9-15.17-10.54c-4.09-1.44-10.25-.9-14.44.19-.27.07-24.51,11.24-14.89,32.84" transform="translate(-0.03)"/><path class="cls-28" d="M60.71,139.71c1.33,2.93,5.17,8.66,16,14.06,3.56,1.78,9.26.53,13.24.53.11,0,13.69-6.38,16.32-14.59,4-12.43-3-20.38-3-20.45S90,108.84,88.07,108.13c-4.07-1.49-10.26-.78-14.45.32-1.78.47-12.5,11.06-12.54,11.14-2,4.88-4.51,10.95-.37,20.12" transform="translate(-0.03)"/><path class="cls-28" d="M61.43,135.14c.35,1.38.3,3.51,1.25,4.57,7.42,8.34,10.5,11.79,13.79,12.31,4,.64,9.6,2.12,13.35.71,6.4-2.4,13.61-10.78,13.67-10.86,4.59-5.83,2-18-2.06-22.28-3.43-3.63-8.63-8.34-13.36-10a23.86,23.86,0,0,0-14.45.52c-4,1.57-8.71,5.61-10.58,9.43-3.66,7.52-2.8,10.89-1.61,15.55" transform="translate(-0.03)"/><path class="cls-28" d="M64.61,139.71c0,.07,8.2,9,11.62,10.55,3.69,1.68,9.42.9,13.46.9,1.35,0,12-9.2,13.31-11.45,3.37-6,.71-15.91-3.74-20.12-3-2.87-7.18-7.13-11.19-8.33a24.79,24.79,0,0,0-14.44.7c-3.2,1.3-7.54,4.35-8.6,7.63-3.63,11.17-4.39,13.5-.42,20.12" transform="translate(-0.03)"/><path class="cls-28" d="M66.56,139.71c2,3.25,5.9,7.16,9.43,8.67.26.11,12.57,1.19,13.58,1.19.25,0,10.92-9.4,11.18-9.86,1.53-2.62,2.59-6.91,2-9.89a21.48,21.48,0,0,0-5.7-10.23c-2.43-2.33-5.74-5.9-9-6.71a26.15,26.15,0,0,0-14.43.87c-6.47,2.67-14,15-7.09,26" transform="translate(-0.03)"/><path class="cls-28" d="M68.53,139.71c1.6,2.48,4.47,5.59,7.22,6.65,3.85,1.49,9.76,2.72,13.68,1.45,3.48-1.13,7.15-5,9.09-8.1,1.62-2.57,2.37-6.85,2.25-9.89-.11-2.72-7.25-13.75-12.67-15.34-4.17-1.21-10.23-.07-14.42,1-1.78.48-3.49,2.6-4.62,4.06-.08.1-7.29,9.63-.53,20.12" transform="translate(-0.03)"/><path class="cls-28" d="M70.53,139.71c1.12,1.7,3,4,5,4.61,3.95,1.32,9.82,2.92,13.79,1.66,7.41-2.35,9.54-13.75,9.45-16.16-.15-3.54-3.76-7.42-5.93-10.23a10.68,10.68,0,0,0-4.71-3.51c-4.16-1.19-10.15.35-14.39,1.22-1,.21-2,1.46-2.62,2.29-2,2.64-3.83,6.94-3.92,10.23-.09,3.13,1.62,7.28,3.35,9.89" transform="translate(-0.03)"/><path class="cls-28" d="M72.54,139.71c.63.94,1.66,2.26,2.75,2.55,4.06,1.09,9.87,3.13,13.89,1.88a9.86,9.86,0,0,0,4.92-4.43c1.43-2.72,3.05-6.85,2.63-9.89-.47-3.53-4-7.32-6-10.23a6.62,6.62,0,0,0-2.57-1.91c-.1-.05-14,.63-15,1.91-1.93,2.69-4.09,6.91-4.19,10.23-.1,3.15,1.81,7.27,3.57,9.89" transform="translate(-0.03)"/><path class="cls-28" d="M74.57,139.71c.79,1.16,14.39,2.61,14.49,2.58a5.31,5.31,0,0,0,2.84-2.58c1.28-2.81,3.23-6.83,2.84-9.89,0-.09-5.83-10.28-6.58-10.55-.92-.33-13.47,2.4-14.28,3.1a10.74,10.74,0,0,0-3.11,7.45c.13,3.17,2,7.27,3.8,9.89" transform="translate(-0.03)"/><path class="cls-28" d="M74.64,135.21c1.85,2,12.71,5.7,14.31,5.21s3.81-10.51,3.8-10.6c-.32-2.6-2.09-6.48-4.52-7.45-4.09-1.64-10.87,1-14.17,3.92-2,1.78-1.24,7,.58,8.92" transform="translate(-0.03)"/><path class="cls-28" d="M88.73,136.34c1.88-.82,2.29-4.49,2-6.52-.17-1.41-1.13-3.52-2.45-4-3.84-1.46-9.17,2.8-13.09,4,4,2,9.38,8.32,13.5,6.52" transform="translate(-0.03)"/><path class="cls-28" d="M88.49,130.83c.29-.12.36-.7.32-1a.85.85,0,0,0-.38-.62c-.61-.23-1.44.43-2.06.62.63.3,1.47,1.29,2.12,1" transform="translate(-0.03)"/></g><path class="cls-28" d="M141.49,4.88h0A109.41,109.41,0,0,0,109.11,0a109.2,109.2,0,0,1,32.38,4.88" transform="translate(-0.03)"/><path class="cls-29" d="M141.49,4.88A109.2,109.2,0,0,0,109.11,0a109.2,109.2,0,0,1,32.38,4.88" transform="translate(-0.03)"/><path class="cls-28" d="M181.38,27.37h0q-3.78-3.35-7.84-6.32A108.81,108.81,0,0,0,143.59,5.56l-.6-.2h0a109,109,0,0,1,38.39,22" transform="translate(-0.03)"/><path class="cls-29" d="M181.38,27.37A109,109,0,0,0,143,5.36a109,109,0,0,1,38.39,22" transform="translate(-0.03)"/><path class="cls-29" d="M143,5.36h0l-1.5-.48h0l1.5.48" transform="translate(-0.03)"/><path class="cls-28" d="M208.47,64h0c-.77-1.7-1.59-3.37-2.44-5a109,109,0,0,0-19.78-27q-1.83-1.82-3.73-3.56h0A109.48,109.48,0,0,1,208.47,64" transform="translate(-0.03)"/><path class="cls-29" d="M208.47,64a109.48,109.48,0,0,0-25.95-35.59A109.48,109.48,0,0,1,208.47,64" transform="translate(-0.03)"/><path class="cls-29" d="M182.52,28.39h0l-1.14-1h0l1.14,1" transform="translate(-0.03)"/><path class="cls-28" d="M218.19,107.67h0a110.45,110.45,0,0,0-1.41-16.28,108,108,0,0,0-4.14-16.78c-1-3.14-2.23-6.21-3.54-9.22h0a108.58,108.58,0,0,1,9.09,42.28" transform="translate(-0.03)"/><path class="cls-29" d="M218.19,107.67a108.58,108.58,0,0,0-9.09-42.28,108.58,108.58,0,0,1,9.09,42.28" transform="translate(-0.03)"/><path class="cls-29" d="M209.1,65.39h0L208.47,64h0l.63,1.41" transform="translate(-0.03)"/><path class="cls-28" d="M207.63,156h0a108.19,108.19,0,0,0,10.45-41.74h0A108.37,108.37,0,0,1,207.63,156" transform="translate(-0.03)"/><path class="cls-28" d="M179.9,192.09h0q3.28-2.81,6.35-5.87a109.22,109.22,0,0,0,19.78-27c.31-.6.62-1.21.92-1.82h0a109.49,109.49,0,0,1-27,34.69" transform="translate(-0.03)"/><path class="cls-29" d="M179.9,192.09a109.49,109.49,0,0,0,27-34.69,109.49,109.49,0,0,1-27,34.69" transform="translate(-0.03)"/><path class="cls-29" d="M207,157.4h0c.23-.47.46-.93.68-1.41h0c-.22.48-.45.94-.68,1.41" transform="translate(-0.03)"/><path class="cls-28" d="M139.56,213.86h0c1.36-.39,2.7-.81,4-1.25,4.77-1.8,11-4.45,15.66-6.62a108.53,108.53,0,0,0,14.29-8.87c1.77-1.29,3.49-2.64,5.17-4h0a108.67,108.67,0,0,1-39.15,20.77" transform="translate(-0.03)"/><path class="cls-29" d="M139.56,213.86a108.67,108.67,0,0,0,39.15-20.77,108.67,108.67,0,0,1-39.15,20.77" transform="translate(-0.03)"/><path class="cls-29" d="M178.71,193.09h0l1.19-1h0l-1.19,1" transform="translate(-0.03)"/><path class="cls-28" d="M109.11,218.17h0c5.33-.22,12.41-.78,17.7-1.43a106.89,106.89,0,0,0,11.24-2.45h0a109.2,109.2,0,0,1-28.94,3.88" transform="translate(-0.03)"/><path class="cls-29" d="M109.11,218.17h0" transform="translate(-0.03)"/><path class="cls-29" d="M138.05,214.29a109.2,109.2,0,0,1-28.94,3.88,109.2,109.2,0,0,0,28.94-3.88h0l1.51-.43h0l-1.51.43" transform="translate(-0.03)"/><path class="cls-28" d="M138.46,4.88h3A109.09,109.09,0,0,0,109.11,0a90.49,90.49,0,0,1,29.35,4.88" transform="translate(-0.03)"/><path class="cls-29" d="M141.49,4.88l1.5.48-1.5-.48" transform="translate(-0.03)"/><path class="cls-29" d="M141.48,4.88h0A109.2,109.2,0,0,0,109.11,0a109.09,109.09,0,0,1,32.37,4.88" transform="translate(-0.03)"/><path class="cls-29" d="M138.46,4.88A90.49,90.49,0,0,0,109.11,0a90.49,90.49,0,0,1,29.35,4.88" transform="translate(-0.03)"/><path class="cls-28" d="M130.38,4.88h7.89A89.35,89.35,0,0,0,109.11,0a49.54,49.54,0,0,1,21.27,4.88" transform="translate(-0.03)"/><path class="cls-29" d="M138.27,4.88h.19A90.49,90.49,0,0,0,109.11,0a89.35,89.35,0,0,1,29.16,4.88" transform="translate(-0.03)"/><path class="cls-29" d="M130.38,4.88A49.54,49.54,0,0,0,109.11,0a49.54,49.54,0,0,1,21.27,4.88" transform="translate(-0.03)"/><path class="cls-28" d="M118.55,4.88H130A48.1,48.1,0,0,0,109.11,0c3.29,0,6.46,1.71,9.44,4.88" transform="translate(-0.03)"/><path class="cls-29" d="M130,4.88h.34A49.54,49.54,0,0,0,109.11,0,48.1,48.1,0,0,1,130,4.88" transform="translate(-0.03)"/><path class="cls-29" d="M118.55,4.88c-3-3.17-6.15-4.88-9.44-4.88,3.29,0,6.46,1.71,9.44,4.88" transform="translate(-0.03)"/><path class="cls-28" d="M104.47,4.88H118.1c-2.84-3.17-5.86-4.88-9-4.88-1.61,0-3.17,1.71-4.64,4.88" transform="translate(-0.03)"/><path class="cls-29" d="M118.1,4.88h.45c-3-3.17-6.15-4.88-9.44-4.88h0c3.13,0,6.15,1.71,9,4.88" transform="translate(-0.03)"/><path class="cls-29" d="M104.47,4.88c1.47-3.17,3-4.88,4.64-4.88-1.61,0-3.17,1.71-4.64,4.88" transform="translate(-0.03)"/><path class="cls-28" d="M91.68,4.88H104c1.61-3.17,3.33-4.88,5.1-4.88A34.68,34.68,0,0,0,91.68,4.88" transform="translate(-0.03)"/><path class="cls-29" d="M104,4.88h.46c1.47-3.17,3-4.88,4.64-4.88-1.77,0-3.49,1.71-5.1,4.88" transform="translate(-0.03)"/><path class="cls-29" d="M91.68,4.88A34.68,34.68,0,0,1,109.11,0,34.68,34.68,0,0,0,91.68,4.88" transform="translate(-0.03)"/><path class="cls-28" d="M82.11,4.88H91.3A36,36,0,0,1,109.11,0a77.25,77.25,0,0,0-27,4.88" transform="translate(-0.03)"/><path class="cls-29" d="M91.3,4.88h.38A34.68,34.68,0,0,1,109.11,0,36,36,0,0,0,91.3,4.88" transform="translate(-0.03)"/><path class="cls-29" d="M82.11,4.88a77.25,77.25,0,0,1,27-4.88,77.25,77.25,0,0,0-27,4.88" transform="translate(-0.03)"/><path class="cls-28" d="M77.14,4.88h4.73A78.54,78.54,0,0,1,109.11,0a106.6,106.6,0,0,0-32,4.88" transform="translate(-0.03)"/><path class="cls-29" d="M81.87,4.88h.24a77.25,77.25,0,0,1,27-4.88A78.54,78.54,0,0,0,81.87,4.88" transform="translate(-0.03)"/><path class="cls-29" d="M77.14,4.88c12.65-3.42,17-4.42,32-4.88a106.6,106.6,0,0,0-32,4.88" transform="translate(-0.03)"/><path class="cls-28" d="M76.74,4.88h.33a107.1,107.1,0,0,1,32-4.88A109.19,109.19,0,0,0,76.74,4.88" transform="translate(-0.03)"/><path class="cls-29" d="M77.07,4.88h.07c12.65-3.42,17-4.42,32-4.88a107.1,107.1,0,0,0-32,4.88" transform="translate(-0.03)"/><path class="cls-28" d="M174.62,27.37h6.74A108.85,108.85,0,0,0,143,5.36h-3.16a96.89,96.89,0,0,1,34.8,22" transform="translate(-0.03)"/><path class="cls-29" d="M181.38,27.37l1.14,1-1.14-1" transform="translate(-0.03)"/><path class="cls-29" d="M174.62,27.37a96.89,96.89,0,0,0-34.8-22h0a96.89,96.89,0,0,1,34.8,22" transform="translate(-0.03)"/><path class="cls-29" d="M139.82,5.36H143a108.85,108.85,0,0,1,38.38,22h0A109,109,0,0,0,143,5.36l-1.5-.48h-3l1.36.48" transform="translate(-0.03)"/><path class="cls-28" d="M156.57,27.37h17.61a96.09,96.09,0,0,0-34.57-22h-8.25c9.41,4.68,18,12.24,25.21,22" transform="translate(-0.03)"/><path class="cls-29" d="M156.57,27.37c-7.24-9.77-15.8-17.33-25.21-22,9.41,4.68,18,12.24,25.21,22" transform="translate(-0.03)"/><path class="cls-29" d="M131.36,5.36h8.25a96.09,96.09,0,0,1,34.57,22h.44A96.76,96.76,0,0,0,138.46,4.88h-8.08l1,.48" transform="translate(-0.03)"/><path class="cls-28" d="M130.17,27.37h25.64C148.68,17.6,140.26,10,131,5.36H119c4.18,4.68,8,12.24,11.19,22" transform="translate(-0.03)"/><path class="cls-29" d="M130.17,27.37C127,17.6,123.16,10,119,5.36c4.18,4.68,8,12.24,11.19,22" transform="translate(-0.03)"/><path class="cls-29" d="M119,5.36h12c9.26,4.68,17.68,12.24,24.81,22h.76c-7.49-10.11-16.39-17.85-26.19-22.49H118.55l.43.48" transform="translate(-0.03)"/><path class="cls-28" d="M98.76,27.37h30.4c-3.06-9.77-6.67-17.33-10.65-22H104.26c-2.06,4.68-3.92,12.24-5.5,22" transform="translate(-0.03)"/><path class="cls-29" d="M98.76,27.37c1.58-9.77,3.44-17.33,5.5-22-2.06,4.68-3.92,12.24-5.5,22" transform="translate(-0.03)"/><path class="cls-29" d="M104.26,5.36h14.25c4,4.68,7.59,12.24,10.65,22h1c-3.33-10.11-7.27-17.85-11.62-22.49H104.47l-.21.48" transform="translate(-0.03)"/><path class="cls-28" d="M70.19,27.37H97.71c1.74-9.77,3.8-17.33,6.06-22H90.87C83.15,10,76.14,17.6,70.19,27.37" transform="translate(-0.03)"/><path class="cls-29" d="M70.19,27.37c6-9.77,13-17.33,20.68-22C83.15,10,76.14,17.6,70.19,27.37" transform="translate(-0.03)"/><path class="cls-29" d="M90.87,5.36h12.9c-2.26,4.68-4.32,12.24-6.06,22h1.05c1.63-10.11,3.57-17.85,5.71-22.49H91.68l-.81.48" transform="translate(-0.03)"/><path class="cls-28" d="M48.85,27.37H69.34C75.42,17.6,82.59,10,90.47,5.36h-9.6a88.55,88.55,0,0,0-32,22" transform="translate(-0.03)"/><path class="cls-29" d="M48.85,27.37c7.33-7.2,15.64-15.36,32-22h0a88.55,88.55,0,0,0-32,22" transform="translate(-0.03)"/><path class="cls-29" d="M80.87,5.36h9.6c-7.88,4.68-15,12.24-21.13,22h.85C76.34,17.26,83.64,9.52,91.68,4.88H82.11l-1.24.48" transform="translate(-0.03)"/><path class="cls-28" d="M37.76,27.37H48.3a89.34,89.34,0,0,1,32.31-22H75.67a107.2,107.2,0,0,0-37.91,22" transform="translate(-0.03)"/><path class="cls-29" d="M37.76,27.37a107.2,107.2,0,0,1,37.91-22,107.2,107.2,0,0,0-37.91,22" transform="translate(-0.03)"/><path class="cls-29" d="M75.67,5.36h4.94a89.34,89.34,0,0,0-32.31,22h.55A88.28,88.28,0,0,1,82.11,4.88h-5l-1.47.48" transform="translate(-0.03)"/><path class="cls-28" d="M36.86,27.37h.74a107.54,107.54,0,0,1,38-22h-.34a109,109,0,0,0-38.39,22" transform="translate(-0.03)"/><path class="cls-29" d="M75.25,5.36h.34a107.54,107.54,0,0,0-38,22h.16A107.23,107.23,0,0,1,77.14,4.88h-.4l-1.49.48" transform="translate(-0.03)"/><path class="cls-28" d="M199.18,64h9.27A109.33,109.33,0,0,0,182.5,28.39h-6.85A109.5,109.5,0,0,1,199.18,64" transform="translate(-0.03)"/><path class="cls-29" d="M208.47,64l.63,1.41L208.47,64" transform="translate(-0.03)"/><path class="cls-29" d="M199.18,64a109.5,109.5,0,0,0-23.53-35.59A109.5,109.5,0,0,1,199.18,64" transform="translate(-0.03)"/><path class="cls-29" d="M175.65,28.39h6.85A109.33,109.33,0,0,1,208.45,64h0a109.48,109.48,0,0,0-25.95-35.59l-1.14-1h-6.76c.35.33.69.67,1,1" transform="translate(-0.03)"/><path class="cls-28" d="M174.37,64h24.21a109.57,109.57,0,0,0-23.37-35.59H157.32A119.14,119.14,0,0,1,174.37,64" transform="translate(-0.03)"/><path class="cls-29" d="M174.37,64a119.14,119.14,0,0,0-17.05-35.59A119.14,119.14,0,0,1,174.37,64" transform="translate(-0.03)"/><path class="cls-29" d="M157.32,28.39h17.89A109.57,109.57,0,0,1,198.58,64h.6a109.2,109.2,0,0,0-24.56-36.61H156.57q.39.49.75,1" transform="translate(-0.03)"/><path class="cls-28" d="M138.06,64h35.26a120.23,120.23,0,0,0-16.77-35.59H130.5A208.32,208.32,0,0,1,138.06,64" transform="translate(-0.03)"/><path class="cls-29" d="M138.06,64a208.32,208.32,0,0,0-7.56-35.59A208.32,208.32,0,0,1,138.06,64" transform="translate(-0.03)"/><path class="cls-29" d="M130.5,28.39h26.05A120.23,120.23,0,0,1,173.32,64h1.05a118.25,118.25,0,0,0-17.8-36.61h-26.4q.17.49.33,1" transform="translate(-0.03)"/><path class="cls-28" d="M94.87,64h41.81a217.81,217.81,0,0,0-7.2-35.59H98.59C97,38.3,95.76,50.4,94.87,64" transform="translate(-0.03)"/><path class="cls-29" d="M94.87,64C95.76,50.4,97,38.3,98.59,28.39,97,38.3,95.76,50.4,94.87,64" transform="translate(-0.03)"/><path class="cls-29" d="M98.59,28.39h30.89A217.81,217.81,0,0,1,136.68,64h1.38a205.22,205.22,0,0,0-7.89-36.61H98.76c-.06.33-.11.67-.17,1" transform="translate(-0.03)"/><path class="cls-28" d="M55.6,64H93.44c1-13.58,2.37-25.68,4.09-35.59H69.58A131.89,131.89,0,0,0,55.6,64" transform="translate(-0.03)"/><path class="cls-29" d="M55.6,64a131.89,131.89,0,0,1,14-35.59A131.89,131.89,0,0,0,55.6,64" transform="translate(-0.03)"/><path class="cls-29" d="M69.58,28.39h28c-1.72,9.91-3.12,22-4.09,35.59h1.43c.92-14.06,2.25-26.51,3.89-36.61H70.19c-.2.33-.41.67-.61,1" transform="translate(-0.03)"/><path class="cls-28" d="M26.26,64H54.43A130.11,130.11,0,0,1,68.72,28.39H47.9A110.62,110.62,0,0,0,26.26,64" transform="translate(-0.03)"/><path class="cls-29" d="M26.26,64A110.62,110.62,0,0,1,47.9,28.39,110.62,110.62,0,0,0,26.26,64" transform="translate(-0.03)"/><path class="cls-29" d="M47.9,28.39H68.72A130.11,130.11,0,0,0,54.43,64H55.6C59,49.92,64,37.47,70.19,27.37H48.85c-.32.33-.64.67-1,1" transform="translate(-0.03)"/><path class="cls-28" d="M11,64H25.49A110.58,110.58,0,0,1,47.34,28.39H36.63A109.3,109.3,0,0,0,11,64" transform="translate(-0.03)"/><path class="cls-29" d="M11,64A109.3,109.3,0,0,1,36.63,28.39,109.3,109.3,0,0,0,11,64" transform="translate(-0.03)"/><path class="cls-29" d="M36.63,28.39H47.34A110.58,110.58,0,0,0,25.49,64h.77A110.29,110.29,0,0,1,48.85,27.37H37.76c-.38.33-.76.67-1.13,1" transform="translate(-0.03)"/><path class="cls-28" d="M9.78,64h1A109.47,109.47,0,0,1,36.47,28.39h-.75A109.3,109.3,0,0,0,9.78,64" transform="translate(-0.03)"/><path class="cls-29" d="M35.72,28.39h.75A109.47,109.47,0,0,0,10.78,64H11A109.15,109.15,0,0,1,37.76,27.37h-.9q-.57.49-1.14,1" transform="translate(-0.03)"/><path class="cls-28" d="M208,107.67h10.18a108.77,108.77,0,0,0-9.1-42.28h-9.33A118.31,118.31,0,0,1,208,107.67" transform="translate(-0.03)"/><path class="cls-29" d="M208,107.67a118.31,118.31,0,0,0-8.25-42.28A118.31,118.31,0,0,1,208,107.67" transform="translate(-0.03)"/><path class="cls-29" d="M199.75,65.39h9.33a108.77,108.77,0,0,1,9.1,42.28h0a108.58,108.58,0,0,0-9.09-42.28L208.47,64h-9.29c.19.47.39.94.57,1.41" transform="translate(-0.03)"/><path class="cls-28" d="M180.76,107.67h26.58a119.15,119.15,0,0,0-8.19-42.28H174.78a158.41,158.41,0,0,1,6,42.28" transform="translate(-0.03)"/><path class="cls-29" d="M180.76,107.67a158.41,158.41,0,0,0-6-42.28,158.41,158.41,0,0,1,6,42.28" transform="translate(-0.03)"/><path class="cls-29" d="M174.78,65.39h24.37a119.15,119.15,0,0,1,8.19,42.28H208A118.1,118.1,0,0,0,199.18,64H174.37c.14.47.28.94.41,1.41" transform="translate(-0.03)"/><path class="cls-28" d="M140.9,107.67h38.7a160.5,160.5,0,0,0-5.88-42.28H138.25a348.69,348.69,0,0,1,2.65,42.28" transform="translate(-0.03)"/><path class="cls-29" d="M140.9,107.67a348.69,348.69,0,0,0-2.65-42.28,348.69,348.69,0,0,1,2.65,42.28" transform="translate(-0.03)"/><path class="cls-29" d="M138.25,65.39h35.47a160.5,160.5,0,0,1,5.88,42.28h1.16A157.93,157.93,0,0,0,174.37,64H138.06c.07.47.13.94.19,1.41" transform="translate(-0.03)"/><path class="cls-28" d="M93.48,107.67h45.9a364.66,364.66,0,0,0-2.52-42.28H94.78c-.81,13-1.28,27.26-1.3,42.28" transform="translate(-0.03)"/><path class="cls-29" d="M93.48,107.67c0-15,.49-29.31,1.3-42.28-.81,13-1.28,27.26-1.3,42.28" transform="translate(-0.03)"/><path class="cls-29" d="M94.78,65.39h42.08a364.66,364.66,0,0,1,2.52,42.28h1.52A345.08,345.08,0,0,0,138.06,64H94.87l-.09,1.41" transform="translate(-0.03)"/><path class="cls-28" d="M50.36,107.67H91.9c0-15,.54-29.31,1.44-42.28H55.26a190.54,190.54,0,0,0-4.9,42.28" transform="translate(-0.03)"/><path class="cls-29" d="M50.36,107.67a190.54,190.54,0,0,1,4.9-42.28,190.54,190.54,0,0,0-4.9,42.28" transform="translate(-0.03)"/><path class="cls-29" d="M55.26,65.39H93.34c-.9,13-1.41,27.26-1.44,42.28h1.58c0-15.57.52-30.35,1.39-43.69H55.6c-.12.47-.23.94-.34,1.41" transform="translate(-0.03)"/><path class="cls-28" d="M18.14,107.67H49.08a186.93,186.93,0,0,1,5-42.28H25.73a127.15,127.15,0,0,0-7.59,42.28" transform="translate(-0.03)"/><path class="cls-29" d="M18.14,107.67a127.15,127.15,0,0,1,7.59-42.28,127.15,127.15,0,0,0-7.59,42.28" transform="translate(-0.03)"/><path class="cls-29" d="M25.73,65.39H54.08a186.93,186.93,0,0,0-5,42.28h1.28A190.11,190.11,0,0,1,55.6,64H26.26c-.18.47-.36.94-.53,1.41" transform="translate(-0.03)"/><path class="cls-28" d="M1.4,107.67H17.31A126.17,126.17,0,0,1,25,65.39H10.38a109.78,109.78,0,0,0-9,42.28" transform="translate(-0.03)"/><path class="cls-29" d="M1.4,107.67a109.78,109.78,0,0,1,9-42.28,109.78,109.78,0,0,0-9,42.28" transform="translate(-0.03)"/><path class="cls-29" d="M10.38,65.39H25a126.17,126.17,0,0,0-7.65,42.28h.83A126.9,126.9,0,0,1,26.26,64H11c-.21.47-.42.94-.62,1.41" transform="translate(-0.03)"/><path class="cls-28" d="M.05,107.67H1.16a109.61,109.61,0,0,1,9-42.28h-1A108.76,108.76,0,0,0,.05,107.67" transform="translate(-0.03)"/><path class="cls-29" d="M9.14,65.39h1a109.61,109.61,0,0,0-9,42.28H1.4A109.7,109.7,0,0,1,11,64H9.78c-.22.47-.43.94-.64,1.41" transform="translate(-0.03)"/><path class="cls-28" d="M198.42,156h9.19a108.37,108.37,0,0,0,10.45-41.74H207.9A117.6,117.6,0,0,1,198.42,156" transform="translate(-0.03)"/><path class="cls-29" d="M207,157.4c.23-.47.46-.93.68-1.41-.22.48-.45.94-.68,1.41" transform="translate(-0.03)"/><path class="cls-29" d="M207.61,156h0a108.37,108.37,0,0,0,10.45-41.74h0A108.37,108.37,0,0,1,207.61,156" transform="translate(-0.03)"/><path class="cls-28" d="M173.82,156h24a118.21,118.21,0,0,0,9.42-41.74H180.68A155.85,155.85,0,0,1,173.82,156" transform="translate(-0.03)"/><path class="cls-29" d="M197.82,156h.6a117.6,117.6,0,0,0,9.48-41.74h-.66A118.21,118.21,0,0,1,197.82,156" transform="translate(-0.03)"/><path class="cls-28" d="M137.82,156h35a158.3,158.3,0,0,0,6.76-41.74H140.87A340.79,340.79,0,0,1,137.82,156" transform="translate(-0.03)"/><path class="cls-29" d="M172.77,156h1a155.85,155.85,0,0,0,6.86-41.74h-1.15A158.3,158.3,0,0,1,172.77,156" transform="translate(-0.03)"/><path class="cls-28" d="M95,156h41.46a354.49,354.49,0,0,0,2.9-41.74H93.49c.1,14.89.63,29,1.5,41.74" transform="translate(-0.03)"/><path class="cls-29" d="M136.45,156h1.37a340.79,340.79,0,0,0,3.05-41.74h-1.52a354.49,354.49,0,0,1-2.9,41.74" transform="translate(-0.03)"/><path class="cls-28" d="M56.05,156H93.57c-1-12.74-1.54-26.85-1.65-41.74H50.42A187.46,187.46,0,0,0,56.05,156" transform="translate(-0.03)"/><path class="cls-29" d="M93.57,156H95c-.87-12.74-1.4-26.85-1.5-41.74H91.92c.11,14.89.69,29,1.65,41.74" transform="translate(-0.03)"/><path class="cls-28" d="M27,156H54.89a183.88,183.88,0,0,1-5.75-41.74H18.24A126,126,0,0,0,27,156" transform="translate(-0.03)"/><path class="cls-29" d="M54.89,156h1.16a187.46,187.46,0,0,1-5.63-41.74H49.14A183.88,183.88,0,0,0,54.89,156" transform="translate(-0.03)"/><path class="cls-28" d="M11.83,156H26.2a125,125,0,0,1-8.8-41.74H1.51A109.34,109.34,0,0,0,11.83,156" transform="translate(-0.03)"/><path class="cls-29" d="M26.2,156H27a126,126,0,0,1-8.71-41.74H17.4A125,125,0,0,0,26.2,156" transform="translate(-0.03)"/><path class="cls-28" d="M10.61,156h1A109.18,109.18,0,0,1,1.27,114.25H.16A108.55,108.55,0,0,0,10.61,156" transform="translate(-0.03)"/><path class="cls-29" d="M11.61,156h.22A109.34,109.34,0,0,1,1.51,114.25H1.27A109.18,109.18,0,0,0,11.61,156" transform="translate(-0.03)"/><path class="cls-28" d="M173.28,192.09h6.6a109.35,109.35,0,0,0,27.05-34.69H197.8a108.54,108.54,0,0,1-24.52,34.69" transform="translate(-0.03)"/><path class="cls-29" d="M179.9,192.09l-1.19,1,1.19-1" transform="translate(-0.03)"/><path class="cls-29" d="M173.28,192.09A108.54,108.54,0,0,0,197.8,157.4a108.54,108.54,0,0,1-24.52,34.69" transform="translate(-0.03)"/><path class="cls-29" d="M197.8,157.4h9.13a109.35,109.35,0,0,1-27.05,34.69h0a109.49,109.49,0,0,0,27-34.69c.23-.47.46-.93.68-1.41h-9.21c-.2.48-.41.94-.62,1.41" transform="translate(-0.03)"/><path class="cls-28" d="M155.6,192.09h17.25a108.58,108.58,0,0,0,24.36-34.69H173.37a115.23,115.23,0,0,1-17.77,34.69" transform="translate(-0.03)"/><path class="cls-29" d="M155.6,192.09a115.23,115.23,0,0,0,17.77-34.69,115.23,115.23,0,0,1-17.77,34.69" transform="translate(-0.03)"/><path class="cls-29" d="M173.37,157.4h23.84a108.58,108.58,0,0,1-24.36,34.69h.43A108.8,108.8,0,0,0,198.42,156h-24.6l-.45,1.41" transform="translate(-0.03)"/><path class="cls-28" d="M129.74,192.09h25.11a116,116,0,0,0,17.48-34.69H137.62a196.15,196.15,0,0,1-7.88,34.69" transform="translate(-0.03)"/><path class="cls-29" d="M129.74,192.09a196.15,196.15,0,0,0,7.88-34.69,196.15,196.15,0,0,1-7.88,34.69" transform="translate(-0.03)"/><path class="cls-29" d="M137.62,157.4h34.71a116,116,0,0,1-17.48,34.69h.75A116.15,116.15,0,0,0,173.82,156h-36c-.07.48-.13.94-.2,1.41" transform="translate(-0.03)"/><path class="cls-28" d="M99,192.09h29.78a204.08,204.08,0,0,0,7.51-34.69H95.09c1,13.34,2.27,25.13,3.88,34.69" transform="translate(-0.03)"/><path class="cls-29" d="M99,192.09c-1.61-9.56-2.93-21.35-3.88-34.69,1,13.34,2.27,25.13,3.88,34.69" transform="translate(-0.03)"/><path class="cls-29" d="M95.09,157.4h41.17a204.08,204.08,0,0,1-7.51,34.69h1a198.31,198.31,0,0,0,8.08-36.1H95c0,.48.07.94.1,1.41" transform="translate(-0.03)"/><path class="cls-28" d="M71,192.09H98a341.36,341.36,0,0,1-4.27-34.69H56.42C60,170.74,65,182.53,71,192.09" transform="translate(-0.03)"/><path class="cls-29" d="M71,192.09c-6-9.56-11-21.35-14.57-34.69C60,170.74,65,182.53,71,192.09" transform="translate(-0.03)"/><path class="cls-29" d="M56.42,157.4H93.68A341.36,341.36,0,0,0,98,192.09h1c-1.67-9.9-3-22.18-4-36.1H56.05c.12.48.24.94.37,1.41" transform="translate(-0.03)"/><path class="cls-28" d="M50.08,192.09H70.16C64,182.53,58.9,170.74,55.27,157.4H27.52a109.22,109.22,0,0,0,22.56,34.69" transform="translate(-0.03)"/><path class="cls-29" d="M50.08,192.09c-6.92-7.65-14.78-16.33-22.56-34.69h0a109.22,109.22,0,0,0,22.56,34.69" transform="translate(-0.03)"/><path class="cls-29" d="M27.52,157.4H55.27c3.63,13.34,8.72,25.13,14.89,34.69H71c-6.25-9.9-11.36-22.18-14.94-36.1H27l.57,1.41" transform="translate(-0.03)"/><path class="cls-28" d="M39.22,192.09H49.54A109.06,109.06,0,0,1,26.77,157.4H12.5a109.23,109.23,0,0,0,26.72,34.69" transform="translate(-0.03)"/><path class="cls-29" d="M39.22,192.09A109.23,109.23,0,0,1,12.5,157.4a109.23,109.23,0,0,0,26.72,34.69" transform="translate(-0.03)"/><path class="cls-29" d="M12.5,157.4H26.77a109.06,109.06,0,0,0,22.77,34.69h.54A109.54,109.54,0,0,1,27,156H11.83c.22.48.44.94.67,1.41" transform="translate(-0.03)"/><path class="cls-28" d="M38.34,192.09h.72A109.23,109.23,0,0,1,12.29,157.4h-1a109.32,109.32,0,0,0,27,34.69" transform="translate(-0.03)"/><path class="cls-29" d="M11.3,157.4h1a109.23,109.23,0,0,0,26.77,34.69h.16A109.12,109.12,0,0,1,11.83,156H10.61l.69,1.41" transform="translate(-0.03)"/><path class="cls-28" d="M136.72,213.86h2.84a108.71,108.71,0,0,0,39.14-20.77h-6.49a95.88,95.88,0,0,1-35.49,20.77" transform="translate(-0.03)"/><path class="cls-29" d="M139.56,213.86l-1.51.43,1.51-.43" transform="translate(-0.03)"/><path class="cls-29" d="M136.72,213.86a95.88,95.88,0,0,0,35.49-20.77,95.88,95.88,0,0,1-35.49,20.77" transform="translate(-0.03)"/><path class="cls-29" d="M172.21,193.09h6.49a108.71,108.71,0,0,1-39.14,20.77h0a108.67,108.67,0,0,0,39.15-20.77l1.19-1h-6.62l-1.07,1" transform="translate(-0.03)"/><path class="cls-28" d="M129.11,213.86h7.42a95.13,95.13,0,0,0,35.26-20.77h-17c-7.45,9.41-16.17,16.56-25.72,20.77" transform="translate(-0.03)"/><path class="cls-29" d="M129.11,213.86c9.55-4.21,18.27-11.36,25.72-20.77-7.45,9.41-16.17,16.56-25.72,20.77" transform="translate(-0.03)"/><path class="cls-29" d="M154.83,193.09h17a95.13,95.13,0,0,1-35.26,20.77h.19a96.14,96.14,0,0,0,36.56-21.77H155.6c-.25.34-.51.67-.77,1" transform="translate(-0.03)"/><path class="cls-28" d="M118,213.86h10.8c9.39-4.21,18-11.36,25.3-20.77h-24.7c-3.3,9.41-7.17,16.56-11.4,20.77" transform="translate(-0.03)"/><path class="cls-29" d="M118,213.86c4.23-4.21,8.1-11.36,11.4-20.77-3.3,9.41-7.17,16.56-11.4,20.77" transform="translate(-0.03)"/><path class="cls-29" d="M129.39,193.09h24.7c-7.33,9.41-15.91,16.56-25.3,20.77h.32C139,209.5,148,202,155.6,192.09H129.74c-.12.34-.23.67-.35,1" transform="translate(-0.03)"/><path class="cls-28" d="M104.75,213.86h12.81c4-4.21,7.72-11.36,10.87-20.77H99.14c1.62,9.41,3.53,16.56,5.61,20.77" transform="translate(-0.03)"/><path class="cls-29" d="M104.75,213.86c-2.08-4.21-4-11.36-5.61-20.77,1.62,9.41,3.53,16.56,5.61,20.77" transform="translate(-0.03)"/><path class="cls-29" d="M99.14,193.09h29.29c-3.15,9.41-6.84,16.56-10.87,20.77H118c4.38-4.36,8.37-11.87,11.75-21.77H99c0,.34.11.67.17,1" transform="translate(-0.03)"/><path class="cls-28" d="M92.71,213.86h11.6c-2.29-4.21-4.39-11.36-6.18-20.77H71.63c6.11,9.41,13.26,16.56,21.08,20.77" transform="translate(-0.03)"/><path class="cls-29" d="M92.71,213.86c-7.82-4.21-15-11.36-21.08-20.77h0c6.11,9.41,13.26,16.56,21.08,20.77" transform="translate(-0.03)"/><path class="cls-29" d="M71.63,193.09h26.5c1.79,9.41,3.89,16.56,6.18,20.77h.44c-2.16-4.36-4.12-11.87-5.78-21.77H71c.21.34.42.67.64,1" transform="translate(-0.03)"/><path class="cls-28" d="M83.72,213.86h8.64c-8-4.21-15.31-11.36-21.55-20.77H51.07a86.91,86.91,0,0,0,32.65,20.77" transform="translate(-0.03)"/><path class="cls-29" d="M83.72,213.86c-9-3.59-19.19-7.67-32.65-20.77a86.91,86.91,0,0,0,32.65,20.77" transform="translate(-0.03)"/><path class="cls-29" d="M51.07,193.09H70.81c6.24,9.41,13.55,16.56,21.55,20.77h.35C84.61,209.5,77.24,202,71,192.09H50.08l1,1" transform="translate(-0.03)"/><path class="cls-28" d="M79.05,213.86h4.44a87.78,87.78,0,0,1-32.95-20.77H40.38a107,107,0,0,0,38.67,20.77" transform="translate(-0.03)"/><path class="cls-29" d="M79.05,213.86a107,107,0,0,1-38.67-20.77h0a107,107,0,0,0,38.67,20.77" transform="translate(-0.03)"/><path class="cls-29" d="M40.38,193.09H50.54a87.78,87.78,0,0,0,32.95,20.77h.23a87.41,87.41,0,0,1-33.64-21.77H39.22c.38.34.77.67,1.16,1" transform="translate(-0.03)"/><path class="cls-28" d="M78.67,213.86H79a107.26,107.26,0,0,1-38.75-20.77h-.7a108.62,108.62,0,0,0,39.14,20.77" transform="translate(-0.03)"/><path class="cls-29" d="M39.53,193.09h.7A107.26,107.26,0,0,0,79,213.86h.07a107,107,0,0,1-39.83-21.77h-.88l1.19,1" transform="translate(-0.03)"/><path class="cls-28" d="M109.11,218.17h0A109.07,109.07,0,0,0,138,214.29h-2.7a90.24,90.24,0,0,1-26.23,3.88" transform="translate(-0.03)"/><path class="cls-29" d="M109.11,218.17h0" transform="translate(-0.03)"/><path class="cls-29" d="M92.87,216.74c25.33,1.43,34.12.08,42.47-2.45H138a109.07,109.07,0,0,1-28.93,3.88h0a109.2,109.2,0,0,0,28.94-3.88l1.51-.43h-2.84a90.2,90.2,0,0,1-27.61,4.31" transform="translate(-0.03)"/><path class="cls-28" d="M109.11,218.17h0a89.19,89.19,0,0,0,26.06-3.88h-7a49,49,0,0,1-19,3.88" transform="translate(-0.03)"/><path class="cls-29" d="M109.11,218.17h0" transform="translate(-0.03)"/><path class="cls-29" d="M97.35,216.74c18.34,1.43,24.72.08,30.77-2.45h7a89.19,89.19,0,0,1-26.06,3.88h0a90.2,90.2,0,0,0,27.61-4.31h-7.61a49.06,49.06,0,0,1-20,4.31" transform="translate(-0.03)"/><path class="cls-28" d="M109.11,218.17h0a47.52,47.52,0,0,0,18.7-3.88H117.54c-2.68,2.53-5.51,3.88-8.43,3.88" transform="translate(-0.03)"/><path class="cls-29" d="M109.11,218.17h0" transform="translate(-0.03)"/><path class="cls-29" d="M103.89,216.74c8.14,1.43,11,.08,13.65-2.45h10.27a47.52,47.52,0,0,1-18.7,3.88h0a49.06,49.06,0,0,0,20-4.31H118c-2.82,2.81-5.8,4.31-8.88,4.31" transform="translate(-0.03)"/><path class="cls-28" d="M109.11,218.17h0c2.78,0,5.48-1.35,8-3.88H105c1.32,2.53,2.71,3.88,4.14,3.88" transform="translate(-0.03)"/><path class="cls-29" d="M109.11,218.17h0" transform="translate(-0.03)"/><path class="cls-29" d="M111.68,216.74c-4,1.43-5.39.08-6.71-2.45h12.17c-2.55,2.53-5.25,3.88-8,3.88h0c3.08,0,6.06-1.5,8.88-4.31H104.75c1.38,2.81,2.85,4.31,4.36,4.31" transform="translate(-0.03)"/><path class="cls-28" d="M109.11,218.17h0c-1.58,0-3.11-1.35-4.56-3.88h-11a34.06,34.06,0,0,0,15.58,3.88" transform="translate(-0.03)"/><path class="cls-29" d="M109.11,218.17h0" transform="translate(-0.03)"/><path class="cls-29" d="M118.76,216.74c-15,1.43-20.27.08-25.23-2.45h11c1.45,2.53,3,3.88,4.56,3.88h0c-1.51,0-3-1.5-4.36-4.31h-12a34.28,34.28,0,0,0,16.4,4.31" transform="translate(-0.03)"/><path class="cls-28" d="M109.11,218.17h0a35.41,35.41,0,0,1-15.92-3.88H85a77,77,0,0,0,24.13,3.88" transform="translate(-0.03)"/><path class="cls-29" d="M109.11,218.17h0" transform="translate(-0.03)"/><path class="cls-29" d="M124.06,216.74c-23.3,1.43-31.39.08-39.08-2.45h8.21a35.41,35.41,0,0,0,15.92,3.88h0a34.28,34.28,0,0,1-16.4-4.31h-9a76.88,76.88,0,0,0,25.39,4.31" transform="translate(-0.03)"/><path class="cls-28" d="M109.11,218.17h0a78.31,78.31,0,0,1-24.35-3.88H80.54c10.52,2.47,15.8,3.71,28.57,3.88" transform="translate(-0.03)"/><path class="cls-29" d="M109.11,218.17h0c5.32-.22,12.41-.79,17.7-1.43-5.29.63-12.37,1.32-17.7,1.43" transform="translate(-0.03)"/><path class="cls-29" d="M126.81,216.74c-27.59,1.43-37.17.08-46.27-2.45h4.22a78.31,78.31,0,0,0,24.35,3.88h0a76.88,76.88,0,0,1-25.39-4.31H79.05a106.24,106.24,0,0,0,30.06,4.31" transform="translate(-0.03)"/><path class="cls-28" d="M109.11,218.17h0c-11-.45-16.45-.67-28.63-3.88h-.29a109.05,109.05,0,0,0,28.92,3.88" transform="translate(-0.03)"/><path class="cls-29" d="M80.19,214.29h.29c10.54,2.47,15.83,3.71,28.63,3.88h0c-11.83-.49-16.73-.69-30.06-4.31h-.38l1.52.43" transform="translate(-0.03)"/><path class="cls-29" d="M0,109.09q0,2.59.12,5.16H218.08q.12-2.56.12-5.16c0-.48,0-1,0-1.42H.05c0,.47,0,.94,0,1.42" transform="translate(-0.03)"/></g></g><g class="cls-2"><g class="cls-30"><g class="cls-2"><polyline class="cls-9" points="109.09 0 109.09 218.17 109.09 218.17 109.09 0"/></g></g></g><g class="cls-2"><g class="cls-30"><g class="cls-2"><polyline class="cls-9" points="109.09 0 109.09 218.17 109.09 218.17 109.09 0"/></g></g></g><g class="cls-2"><g class="cls-31"><g class="cls-2"><polyline class="cls-9" points="109.09 0 109.09 218.17 109.09 218.17 109.09 0"/></g></g></g><g class="cls-2"><g class="cls-32"><g class="cls-2"><polyline class="cls-9" points="109.09 0 109.09 218.17 109.09 218.17 109.09 0"/></g></g></g><g class="cls-2"><g class="cls-31"><g class="cls-2"><polyline class="cls-9" points="109.09 0 109.09 218.17 109.09 218.17 109.09 0"/></g></g></g><g class="cls-2"><g class="cls-33"><g class="cls-2"><path class="cls-4" d="M0,109.09c0,15.25,2.7,24.59,5.56,34.48a108.12,108.12,0,0,0,6.61,15.65c3.71,6.52,8.32,14.64,14.09,20.86,6.27,6.78,13.39,14.46,25.36,21.75,13.23,8,21.58,10.42,31.25,13.17,8.65,2.46,18,2.84,26.21,3.17A109.09,109.09,0,0,1,109.11,0c-5.32.22-12.47.37-17.69,1.43-10.07,2-14.67,3-24.77,7.14A109.61,109.61,0,0,0,32,32,108.36,108.36,0,0,0,0,109.09" transform="translate(-0.03)"/><path class="cls-4" d="M59,206c13.15,6.81,22.52,8.72,32.44,10.75l8.75,1.07,8.94.36a108.57,108.57,0,0,1-53.51-14h0L51.87,202c2.13,1.21,4.93,2.91,7.11,4" transform="translate(-0.03)"/><path class="cls-4" d="M91.42,1.43c-5.08,1-11.8,2.69-16.79,4.13l-8,3L59,12.18l-7.33,4.16-7,4.71-6.57,5.21L32,32,26.29,38.1l-5.22,6.56-4.7,7L12.2,59,8.6,66.63l-3,8L3.2,82.87,1.45,91.39.39,100.14l-.36,9,.36,9c1.37,11.25,1.83,13.9,5.2,25.53.64,1.93,1.34,3.85,2.09,5.73h0l-2.45-6.86A109.18,109.18,0,0,1,109.11,0l-8.94.36L91.42,1.43" transform="translate(-0.03)"/><path class="cls-5" d="M74.63,212.61c5,1.58,11.71,3.09,16.79,4.13l8.75,1.07,8.94.36a109.14,109.14,0,0,1-35.54-5.92h0l-2-.72c.92.32,2.14.78,3.07,1.08" transform="translate(-0.03)"/><path class="cls-5" d="M91.42,1.43c-5.08,1-11.8,2.69-16.79,4.13l-8,3L59,12.18l-7.33,4.16-7,4.71-6.57,5.21L32,32,26.29,38.1l-5.22,6.56-4.7,7L12.2,59,8.6,66.63l-3,8L3.2,82.87,1.45,91.39.39,100.14l-.36,9,.36,9,1.06,8.74c.08.5.17,1,.26,1.5h0l-.76-5A109.17,109.17,0,0,1,109.11,0l-8.94.36L91.42,1.43" transform="translate(-0.03)"/><path class="cls-6" d="M91.42,216.74c5.29.65,12.37,1.21,17.69,1.43a110.12,110.12,0,0,1-19.52-1.74h0l-.89-.17c.9.17,1.81.33,2.72.48" transform="translate(-0.03)"/><path class="cls-6" d="M91.42,1.43c-5.08,1-11.8,2.69-16.79,4.13l-8,3L59,12.18l-7.33,4.16-7,4.71-6.57,5.21L32,32,26.29,38.1l-5.22,6.56-4.7,7L12.2,59,8.6,66.63l-3,8L3.2,82.87,1.45,91.39.39,100.14l-.36,9c0,.52,0,1,0,1.55H0c0-1.26,0-3,0-4.22A109.09,109.09,0,0,1,109.11,0l-8.94.36L91.42,1.43" transform="translate(-0.03)"/><path class="cls-7" d="M109.11,218.17q-4.65,0-9.21-.39h0l-.28,0,8.93.41h.56" transform="translate(-0.03)"/><path class="cls-7" d="M91.42,1.43c-5.08,1-11.8,2.69-16.79,4.13l-8,3L59,12.18l-7.33,4.16-7,4.71-6.57,5.21L32,32,26.29,38.1l-5.22,6.56-4.7,7L12.2,59,8.6,66.63l-3,8L3.2,82.87,1.45,91.39Q1.24,92.71,1.06,94h0L1.6,90.6A109.12,109.12,0,0,1,109.11,0l-8.94.36L91.42,1.43" transform="translate(-0.03)"/><path class="cls-8" d="M109.11,218.17q-3.1,0-6.16-.17h-.21l6.37.18" transform="translate(-0.03)"/><path class="cls-8" d="M91.42,1.43c-5.08,1-11.8,2.69-16.79,4.13l-8,3L59,12.18l-7.33,4.16-7,4.71-6.57,5.21L32,32,26.29,38.1l-5.22,6.56-4.7,7L12.2,59,8.6,66.63l-3,8-.86,2.68.86-2.64A109.12,109.12,0,0,1,109.11,0l-8.94.36L91.42,1.43" transform="translate(-0.03)"/><path class="cls-9" d="M91.42,1.43c-5.08,1-11.8,2.69-16.79,4.13l-8,3L59,12.18l-7.33,4.16-7,4.71-6.57,5.21L32,32,26.29,38.1l-5.22,6.56-4.7,7-4.11,7.21,1-1.9A109.05,109.05,0,0,1,109.11,0l-8.94.36L91.42,1.43" transform="translate(-0.03)"/><path class="cls-9" d="M109.11,218.17c-1,0-2.06,0-3.09,0h-.11l3.2,0" transform="translate(-0.03)"/></g><path class="cls-28" d="M91.42,1.43C87,2.33,81.1,3.67,76.74,4.88h0A109.19,109.19,0,0,1,109.11,0,163.47,163.47,0,0,0,91.42,1.43" transform="translate(-0.03)"/><path class="cls-28" d="M74.63,5.56C69.87,7.36,63.6,10,59,12.18c-4.38,2.49-10.11,6-14.29,8.87-2.37,1.88-5.56,4.33-7.84,6.32h0a109,109,0,0,1,38.39-22h0l-.61.2" transform="translate(-0.03)"/><path class="cls-29" d="M75.24,5.36h0l1.49-.48h0l-1.5.48" transform="translate(-0.03)"/><path class="cls-28" d="M32,32c-3.42,3.69-7.78,8.78-10.91,12.71C18.25,48.85,14.7,54.57,12.2,59c-.85,1.65-1.67,3.32-2.44,5h0A109.3,109.3,0,0,1,35.72,28.39h0L32,32" transform="translate(-0.03)"/><path class="cls-29" d="M35.71,28.39h0q.57-.53,1.14-1h0q-.57.49-1.14,1" transform="translate(-0.03)"/><path class="cls-28" d="M5.59,74.61c-1.44,5-3.1,11.7-4.14,16.78C.86,96.26.26,102.77,0,107.67h0A108.76,108.76,0,0,1,9.14,65.39h0q-2,4.52-3.54,9.22" transform="translate(-0.03)"/><path class="cls-29" d="M9.13,65.39h0c.21-.47.42-.94.64-1.41h0l-.63,1.41" transform="translate(-0.03)"/><path class="cls-28" d="M1.45,126.78c1,5.08,2.7,11.81,4.14,16.79a107.4,107.4,0,0,0,5,12.42h0A108.55,108.55,0,0,1,.16,114.25h0c.32,3.76.65,8.81,1.3,12.53" transform="translate(-0.03)"/><path class="cls-28" d="M12.2,159.22c2.5,4.39,6.05,10.11,8.87,14.29,3.13,3.94,7.49,9,10.91,12.71,1.9,1.77,4.38,4.19,6.35,5.87h0a109.32,109.32,0,0,1-27-34.69h0c.3.61.61,1.22.92,1.82" transform="translate(-0.03)"/><path class="cls-29" d="M11.28,157.4h0L10.61,156h0c.22.48.45.94.68,1.41" transform="translate(-0.03)"/><path class="cls-28" d="M44.69,197.12C48.87,200,54.6,203.5,59,206c10.37,4.88,11,5.17,19.69,7.87h0a108.62,108.62,0,0,1-39.14-20.77h0l5.17,4" transform="translate(-0.03)"/><path class="cls-29" d="M39.52,193.09h0l-1.19-1h0l1.19,1" transform="translate(-0.03)"/><path class="cls-28" d="M91.42,216.74c5.29.65,12.37,1.21,17.69,1.43a109.05,109.05,0,0,1-28.92-3.88h0c3.36.78,7.83,1.94,11.24,2.45" transform="translate(-0.03)"/><path class="cls-29" d="M80.18,214.29h0l-1.52-.43h0l1.51.43" transform="translate(-0.03)"/><path class="cls-29" d="M0,109.09l.12,5.16h0Q0,111.69,0,109.09c0-.48,0-1,0-1.42H0v1.42" transform="translate(-0.03)"/></g></g><g class="cls-2"><g class="cls-34"><g class="cls-2"><path class="cls-7" d="M109.11,218.17c-8.23-.33-17.56-.71-26.21-3.17-9.67-2.75-18-5.13-31.25-13.17-12-7.29-19.09-15-25.36-21.75-5.77-6.22-10.38-14.34-14.09-20.86a108.12,108.12,0,0,1-6.61-15.65C2.77,133.82,1.21,128.44.39,118A117.57,117.57,0,0,1,1.45,91.39,108.17,108.17,0,0,1,21.07,44.66,109.12,109.12,0,0,1,82.9,3.17C93.33.64,98.27.44,109.11,0a109.81,109.81,0,0,1,17.7,1.43,108.6,108.6,0,0,1,46.73,19.62A109.31,109.31,0,0,1,206,59a108.74,108.74,0,0,1,10.75,32.43,111,111,0,0,1,0,35.39A108.68,108.68,0,0,1,206,159.22a109.22,109.22,0,0,1-19.78,27,109.52,109.52,0,0,1-27,19.77c-4.62,2.17-10.89,4.82-15.66,6.62a108.52,108.52,0,0,1-16.78,4.13c-5.29.65-12.37,1.21-17.7,1.43h0" transform="translate(-0.03)"/><path class="cls-7" d="M216.78,126.78A108.68,108.68,0,0,1,206,159.22a109.22,109.22,0,0,1-19.78,27,109.52,109.52,0,0,1-27,19.77h0c-4.62,2.17-10.89,4.82-15.66,6.62a108.52,108.52,0,0,1-16.78,4.13h0c-5.29.65-12.37,1.21-17.7,1.43h0c-5.32-.22-12.4-.78-17.69-1.43L82.9,215l-8.27-2.39-8-3C64.35,208.52,61.53,206,59,206l-7.33-4.16-7-4.71-6.57-5.21L32,186.22l-5.69-6.14-5.22-6.57-4.7-7-4.17-7.33a108.12,108.12,0,0,1-6.61-15.65h0c-1.44-5-3.1-11.71-4.14-16.79L.39,118c-.11-2.69-.31-6.27-.36-9l.36-9,1.06-8.75L3.2,82.87l2.39-8.26,3-8L12.2,59l4.17-7.33,4.7-7,5.22-6.56L32,32l6.14-5.69,6.57-5.21,7-4.71L59,12.18l7.67-3.61,8-3L82.9,3.17l8.52-1.74L100.17.36,109.11,0h0C23.44,1.54,5.64,104.69,62.66,159.82,121.8,217,204,198.77,217,125.6l-.18,1.18" transform="translate(-0.03)"/><path class="cls-7" d="M111.66,0c-.4,0-1.33,0-2.55,0q1.27,0,2.55,0" transform="translate(-0.03)"/><path class="cls-8" d="M212.64,143.57A108.12,108.12,0,0,1,206,159.22a109.22,109.22,0,0,1-19.78,27,109.52,109.52,0,0,1-27,19.77h0c-4.62,2.17-10.89,4.82-15.66,6.62a108.52,108.52,0,0,1-16.78,4.13h0c-5.29.65-12.37,1.21-17.7,1.43h0c-5.32-.22-12.4-.78-17.69-1.43L82.9,215l-8.27-2.39-8-3C64.35,208.52,61.53,206,59,206l-7.33-4.16-7-4.71-6.57-5.21L32,186.22l-5.69-6.14-5.22-6.57-4.7-7-4.17-7.33a108.12,108.12,0,0,1-6.61-15.65h0c-1.44-5-3.1-11.71-4.14-16.79L.39,118c-.11-2.69-.31-6.27-.36-9l.36-9,1.06-8.75L3.2,82.87l2.39-8.26,3-8L12.2,59l4.17-7.33,4.7-7,5.22-6.56L32,32l6.14-5.69,6.57-5.21,7-4.71L59,12.18l7.67-3.61,8-3L82.9,3.17l8.52-1.74,4.13-.6L93,1.19C11.72,14.64-1.36,120.28,71.43,175.09,125.69,216,193.16,200.42,213,142.49c-.11.36-.23.72-.35,1.08" transform="translate(-0.03)"/><path class="cls-9" d="M197.16,173.51a109.87,109.87,0,0,1-23.62,23.61A108.53,108.53,0,0,1,159.25,206h0c-4.62,2.17-10.89,4.82-15.66,6.62a108.52,108.52,0,0,1-16.78,4.13h0c-5.29.65-12.37,1.21-17.7,1.43h0c-5.32-.22-12.4-.78-17.69-1.43L82.9,215l-8.27-2.39-8-3C64.35,208.52,61.53,206,59,206l-7.33-4.16-7-4.71-6.57-5.21L32,186.22l-5.69-6.14-5.22-6.57-4.7-7-4.17-7.33a108.12,108.12,0,0,1-6.61-15.65h0c-1.44-5-3.1-11.71-4.14-16.79L.39,118c-.11-2.69-.31-6.27-.36-9l.36-9,1.06-8.75L3.2,82.87l2.39-8.26,3-8L12.2,59l4.17-7.33,4.7-7,5.22-6.56L32,32l6.14-5.69,6.57-5.21,7-4.71L59,12.18l7.67-3.61,8-3L76,5.11,71.39,6.73C-9.1,39.11,5.24,159,94,195.37c43.79,18,89.44,3.91,111-34.15a109.49,109.49,0,0,1-7.8,12.29" transform="translate(-0.03)"/><path class="cls-6" d="M143.59,5.56a108.81,108.81,0,0,1,29.95,15.49A109.31,109.31,0,0,1,206,59a108.74,108.74,0,0,1,10.75,32.43,109.82,109.82,0,0,1,1.42,17.7v0c-2,84.45-94.66,103.21-149.93,49.2C6.51,98,33.4.45,111.86.21a98,98,0,0,1,17.73,1.71,108.49,108.49,0,0,1,14,3.64" transform="translate(-0.03)"/><path class="cls-5" d="M159.25,12.18a108.53,108.53,0,0,1,14.29,8.87A109.31,109.31,0,0,1,206,59a108.59,108.59,0,0,1,10.71,32.21h0C229,180.44,140.82,206.62,86.51,167,10.43,111.43,30.52,14,101.08,2c14.75-2.53,29.69-1,45.69,4.7a107.88,107.88,0,0,1,12.48,5.51" transform="translate(-0.03)"/><path class="cls-4" d="M173.54,21.05A109.31,109.31,0,0,1,206,59a106.39,106.39,0,0,1,5,11.15h0c28.6,84-43.21,133-109.93,100.34C26.59,134,21.35,29.05,92.85,5.35,106,1,133.08-3.41,166.36,16.21q3.69,2.28,7.18,4.84" transform="translate(-0.03)"/><path class="cls-10" d="M201.57,51.21c40.39,67-4.15,139.76-75.66,123.61C47.82,157.18,18.65,52.88,80.69,13.08c36.94-23.7,94.56-5.53,120.88,38.13" transform="translate(-0.03)"/><path class="cls-11" d="M201.33,51.21c41.94,69.94-11,135.36-74.86,119.62C51,152.22,23.14,51.19,83.25,14.16c41.26-25.42,95.34-.87,118.08,37.05" transform="translate(-0.03)"/><path class="cls-12" d="M205.62,59.84c31.95,68.08-23.56,130.44-91.37,102.67-73.08-29.93-77-125.79-21.83-150.79,44.7-20.24,94.62,8.54,113.2,48.12" transform="translate(-0.03)"/><path class="cls-13" d="M204.9,59.84c31.55,67.79-23,127.62-89.81,98.49C49.3,129.65,38.39,37.91,97.67,11.82c37.53-16.51,87.63,5.93,107.23,48" transform="translate(-0.03)"/><path class="cls-14" d="M204,59.84c27.52,59.52-15.89,115.88-76.14,98.87C60.13,139.59,38.7,50.61,93.63,16.61,129.09-5.34,183.76,16.07,204,59.84" transform="translate(-0.03)"/><path class="cls-15" d="M206.65,68.94c20.51,62.61-32.84,109.34-92.06,80.64C50.54,118.55,53,34.29,104.32,14.25c42.15-16.46,89.61,15.89,102.33,54.69" transform="translate(-0.03)"/><path class="cls-16" d="M205.31,68.94c19.23,59.87-33.29,104.4-90.65,76.85C56,117.59,54.24,31.54,112,14.26c40.71-12.18,81.84,19,93.28,54.68" transform="translate(-0.03)"/><path class="cls-17" d="M203.8,68.94c18.46,58.46-33.15,100.78-89.07,73C60.07,114.87,58.53,36.55,112.27,16.9c34.6-12.65,79.08,12.64,91.53,52" transform="translate(-0.03)"/><path class="cls-18" d="M202.1,68.94c17.15,55.13-34.26,96.08-87.31,69.57C60.57,111.41,66.68,37.63,112.22,20c37.54-14.5,79.14,14.39,89.88,48.91" transform="translate(-0.03)"/><path class="cls-19" d="M200.16,68.94c17.36,57-38,90.36-85.33,66.61-54.19-27.18-41.9-102.88,6.48-115.37,31.61-8.15,68.45,14.63,78.85,48.76" transform="translate(-0.03)"/><path class="cls-20" d="M200.2,78.47c8.19,58.77-59.08,73.3-89.42,51.35C54.36,89,90,26.06,130.3,21.55c31.93-3.57,65.25,23.56,69.9,56.92" transform="translate(-0.03)"/><path class="cls-21" d="M197.74,78.47c3.8,26.77-12,46.44-28.29,53.39-24.35,10.39-47.25,6.27-68.09-12.27-32.52-28.93-13.33-89.31,30.2-95,30.08-3.93,61.63,21.75,66.18,53.89" transform="translate(-0.03)"/><path class="cls-22" d="M194.84,78.47c5.32,49.07-52.15,75.21-90.45,41.12C66.7,86,96,32.81,132.8,27.83c28.64-3.88,58.79,20.73,62,50.64" transform="translate(-0.03)"/><path class="cls-23" d="M191.67,78.47c4.9,48.71-52.5,69.34-84.22,41.12C66.62,83.28,99.89,36.16,134,31.34c26.83-3.79,54.85,19.11,57.66,47.13" transform="translate(-0.03)"/><path class="cls-24" d="M188.31,78.47C192.7,123,139,144.59,110.5,119.59,65.91,80.53,105.64,39.09,135.18,35c25.23-3.46,50.56,17.24,53.13,43.43" transform="translate(-0.03)"/><path class="cls-25" d="M184.79,78.47c1.44,13.29-1.61,31.89-24.39,45-16.12,9.31-37.95,3.59-46.87-3.92-44.34-37.3-7.36-78.26,22.66-81,23.74-2.2,46,16.08,48.59,39.92" transform="translate(-0.03)"/><path class="cls-26" d="M181.1,88.36C175.19,133,125.44,135,104.44,109.09c-26.57-32.84,8.18-74,43.63-66,23.73,5.34,35.43,27.21,33,45.28" transform="translate(-0.03)"/><path class="cls-27" d="M178.52,88.36c-.9,12.49-6.94,19.46-8.14,20.73C160,120,160,120,144.25,124.57c-7.11,2.05-26.83-2.27-37.71-15.48-25-30.31,2-64.14,31.33-64,21.12.12,42.49,17.52,40.65,43.25" transform="translate(-0.03)"/><path class="cls-28" d="M175.92,88.36c-2.76,35.91-47.06,44.5-67.28,20.73C83.5,79.52,110.16,46.41,138.5,47.9c19.06,1,39.12,18.52,37.42,40.46" transform="translate(-0.03)"/><path class="cls-28" d="M173.27,88.36c-1.94,23.59-18.14,29-28.87,32.52-5.37,1.78-24.13-.91-33.66-11.79-25.67-29.31-.16-60.15,28.37-58.34,22.28,1.42,35.31,23.58,34.16,37.61" transform="translate(-0.03)"/><path class="cls-28" d="M170.54,88.36C169,110.3,156,115,144.46,119.11c-4.06,1.46-10.27.89-14.38-.41-.12,0-13.51-5.44-17.26-9.61-14.77-16.43-11.91-29-6.61-40.15,2-4.23,14.94-18.45,33.34-16,21.36,2.81,31.89,22.75,31,35.46" transform="translate(-0.03)"/><path class="cls-28" d="M166.89,98.58c0,.07-4.53,8.54-8.69,12.07-3.51,3-9.09,6.91-13.7,6.91-4.32,0-10.54,1.64-14.4-.29-4.59-2.3-11.08-4.88-15.09-8.08a36.75,36.75,0,0,1-8.36-10.61c-4.9-9.31-4.23-22.06,1.56-29.64,11.83-15.52,26.13-15,31.73-14,9.09,1.56,19.84,9.45,22.66,14,9.49,15.37,4.85,28.23,4.29,29.64" transform="translate(-0.03)"/><path class="cls-28" d="M165,98.58C159.38,111.69,144.67,116,144.54,116c-4.33,0-10.52,1.7-14.42-.18-12-5.77-17-8.16-21.85-17.25-4-7.39-5.82-19.58,1.92-29.64,3-3.86,5.33-6.91,17.44-11.71,3.54-1.4,8.94-.9,12.68-.22C159.1,60.41,172,82.17,165,98.58" transform="translate(-0.03)"/><path class="cls-28" d="M163.06,98.58c-4.75,10.68-18.38,15.87-18.49,15.87-4.33,0-10.5,1.75-14.44-.06-12.94-5.92-17.34-10.44-20.24-15.81-3.18-5.89-7.12-17.58,2.28-29.64,4.14-5.3,15.55-9.78,15.66-9.81,3.64-1.26,9.06-.74,12.84,0,1.52.28,13.49,6.83,13.56,6.89,3.46,3,4,3.41,9.13,12.47,1.44,2.53,2.85,13-.3,20.11" transform="translate(-0.03)"/><path class="cls-28" d="M161.1,98.58c-1.15,2.53-5.08,9-16.51,14.3-3.93,1.82-10.11.07-14.44.07-.11,0-14.59-7-18.65-14.37-8.47-15.45-.4-25.76,2.64-29.64,1-1.21,13.75-8.12,13.85-8.15,3.73-1.11,9.23-.86,13,.16,4.56,1.24,10.05,4.83,13.65,7.91,2.68,2.3,5.14,6.49,6.81,9.61,4.57,8.54-.29,20-.34,20.11" transform="translate(-0.03)"/><path class="cls-28" d="M159.12,98.58c0,.08-6.05,9-14.52,12.73-4,1.76-10.11.19-14.45.19-.09,0-14.81-8.91-17-12.92-3.81-6.85-6.64-17.2,1.53-27.61,2.51-3.21,13.4-8.61,13.49-8.64,3.76-1.17,9.33-.72,13.11.34,6.78,1.9,27.64,15.16,17.88,35.91" transform="translate(-0.03)"/><path class="cls-28" d="M157.87,96.18c-.21.72-.2,1.86-.72,2.4-.11.11-11.35,11.08-12.54,11.15-4.33.24-10.39,1.83-14.45.32-2.09-.78-14.91-10.52-15.45-11.47-7.4-13.12-2.48-21.82,0-25,4.35-5.55,13.5-9.71,13.58-9.74,3.76-1.29,9.42-.58,13.23.52,9.06,2.62,16,13.95,16,14.07,3.42,6.64,2.95,8.33.35,17.71" transform="translate(-0.03)"/><path class="cls-28" d="M157.51,90.63c-.65,2.4-.85,6-2.33,8-2.53,3.42-6.4,8.62-10.57,9.44s-10.34,1.91-14.45.52c-4.73-1.61-10.07-6.2-13.36-10-4-4.5-6.5-16.52-2.07-22.27.07-.08,7.7-8.62,13.68-10.87,3.75-1.41,9.5-.43,13.34.71,8.37,2.49,18.1,15.81,15.76,24.48" transform="translate(-0.03)"/><path class="cls-28" d="M153.2,98.58c-1.88,2.9-5.36,6.47-8.6,7.64a27.67,27.67,0,0,1-14.44.7c-1.89-.49-15.26-9.57-16.34-18.56-.35-3-.12-7.31,1.41-9.89,2.12-3.59,6.59-7.26,10.08-9.53,1-.61,2.1-1.92,3.23-1.92,12.66,0,14.46,1.35,15.23,1.92,3.29,2.47,8.6,5.61,9.85,9.53.93,2.93,2.76,6.81,2.69,9.89a21.93,21.93,0,0,1-3.11,10.22" transform="translate(-0.03)"/><path class="cls-28" d="M151.2,98.58c-1.48,2.2-4.1,5-6.62,5.85-4.13,1.32-10.26,2.06-14.43.87-8.43-2.41-14.61-16.23-14.72-16.94a16.07,16.07,0,0,1,2-9.89c2.33-3.59,7.1-7.09,10.62-9.53,1.18-.81,14,.81,14.14.85,3.51,1.56,8.29,5,9.43,8.68.92,3,3,6.8,2.9,9.89a21.61,21.61,0,0,1-3.37,10.22" transform="translate(-0.03)"/><path class="cls-28" d="M149.17,98.58c-1,1.52-2.84,3.59-4.62,4.07-4.19,1.12-10.29,2.38-14.42,1-7.68-2.48-12.65-15.22-12.67-15.34a16.6,16.6,0,0,1,2.25-9.89c1.94-3.09,5.62-7,9.09-8.1,3.92-1.29,9.83-.05,13.68,1.45,2.75,1.06,5.49,4.26,7.22,6.65a18.39,18.39,0,0,1,3.12,9.89,21.54,21.54,0,0,1-3.65,10.22" transform="translate(-0.03)"/><path class="cls-28" d="M147.13,98.58c-.6.86-1.6,2.08-2.62,2.29-4.24.88-10.33,2.73-14.39,1.22a11.85,11.85,0,0,1-4.71-3.51c-2.17-2.8-5.42-6.71-5.93-10.22-.43-3,.91-7.25,2.45-9.89,1.42-2.44,4.31-5.41,7-6.28,4-1.27,9.83.35,13.79,1.67,1.93.64,3.83,2.93,5,4.61,1.78,2.57,3.44,6.76,3.35,9.89-.1,3.28-2,7.54-3.92,10.22" transform="translate(-0.03)"/><path class="cls-28" d="M145.07,98.58c-.93,1.28-14.87,2-15,1.92a6.55,6.55,0,0,1-2.57-1.92c-2.06-2.9-5.54-6.69-6-10.22-.17-1.23,1.58-12.48,7.56-14.33,4-1.24,9.83.8,13.89,1.88,1.09.29,2.13,1.61,2.75,2.56,1.72,2.64,3.67,6.74,3.57,9.89-.1,3.31-2.24,7.54-4.19,10.22" transform="translate(-0.03)"/><path class="cls-28" d="M144.35,95.81c-.88.76-13.29,3.45-14.28,3.1-.83-.3-6.56-10.46-6.58-10.55-.41-3.06,1.56-7.08,2.83-9.89a5.36,5.36,0,0,1,2.85-2.58c.1,0,13.62,1.44,14.49,2.58a20,20,0,0,1,3.8,9.89,10.78,10.78,0,0,1-3.11,7.45" transform="translate(-0.03)"/><path class="cls-28" d="M144.17,91.89c-3.3,2.92-10.07,5.57-14.16,3.94-2.43-1-4.2-4.86-4.52-7.46,0-.09,2.34-10.17,3.79-10.61s3.34.22,4.67.71c3,1.09,7.32,2.3,9.64,4.49,1.94,1.85,2.59,7.15.58,8.93" transform="translate(-0.03)"/><path class="cls-28" d="M129.91,92.38c-1.32-.5-2.28-2.62-2.45-4-.25-2,.16-5.7,2-6.52,4.12-1.8,9.46,4.54,13.5,6.52-3.92,1.22-9.25,5.49-13.09,4" transform="translate(-0.03)"/><path class="cls-28" d="M129.8,89a.85.85,0,0,1-.38-.62c0-.32,0-.89.32-1,.65-.29,1.48.71,2.12,1-.62.19-1.46.85-2.06.62" transform="translate(-0.03)"/></g><path class="cls-28" d="M77.18,4.88h-.44C81.11,3.72,87,2.29,91.42,1.43,96.71.78,103.79.22,109.11,0h0A106.38,106.38,0,0,0,77.18,4.88" transform="translate(-0.03)"/><path class="cls-29" d="M77.18,4.88A106.38,106.38,0,0,1,109.11,0,106.38,106.38,0,0,0,77.18,4.88" transform="translate(-0.03)"/><path class="cls-28" d="M82.22,4.88h-5C89.86,1.46,94.16.46,109.11,0h0A76.68,76.68,0,0,0,82.22,4.88" transform="translate(-0.03)"/><path class="cls-29" d="M77.26,4.88h-.08A106.38,106.38,0,0,1,109.11,0c-8.38.34-17,.7-25.79,3.17a49.14,49.14,0,0,1-6.06,1.71" transform="translate(-0.03)"/><path class="cls-29" d="M82.22,4.88A76.68,76.68,0,0,1,109.11,0,76.68,76.68,0,0,0,82.22,4.88" transform="translate(-0.03)"/><path class="cls-28" d="M91.84,4.88H82.48A75.26,75.26,0,0,1,109.11,0,34.14,34.14,0,0,0,91.84,4.88" transform="translate(-0.03)"/><path class="cls-29" d="M82.48,4.88h-.26A76.68,76.68,0,0,1,109.11,0,75.26,75.26,0,0,0,82.48,4.88" transform="translate(-0.03)"/><path class="cls-29" d="M91.84,4.88A34.14,34.14,0,0,1,109.11,0,34.14,34.14,0,0,0,91.84,4.88" transform="translate(-0.03)"/><path class="cls-28" d="M104.73,4.88H92.23A32.77,32.77,0,0,1,109.11,0c-1.52,0-3,1.71-4.38,4.88" transform="translate(-0.03)"/><path class="cls-29" d="M92.23,4.88h-.39A34.14,34.14,0,0,1,109.11,0h0A32.77,32.77,0,0,0,92.23,4.88" transform="translate(-0.03)"/><path class="cls-29" d="M104.73,4.88A18.93,18.93,0,0,1,107,1.09,4.3,4.3,0,0,1,109.11,0h0c-1.52,0-3,1.71-4.38,4.88" transform="translate(-0.03)"/><path class="cls-28" d="M118.76,4.88H105.2C106.44,1.71,107.75,0,109.11,0c3.36,0,6.6,1.71,9.65,4.88" transform="translate(-0.03)"/><path class="cls-29" d="M105.2,4.88h-.47A18.93,18.93,0,0,1,107,1.09,4.3,4.3,0,0,1,109.11,0h0c-1.36,0-2.67,1.71-3.91,4.88" transform="translate(-0.03)"/><path class="cls-29" d="M118.76,4.88C115.71,1.71,112.47,0,109.11,0c3.36,0,6.6,1.71,9.65,4.88" transform="translate(-0.03)"/><path class="cls-28" d="M130.52,4.88H119.2C116,1.71,112.63,0,109.11,0a50.12,50.12,0,0,1,21.41,4.88" transform="translate(-0.03)"/><path class="cls-29" d="M119.2,4.88h-.44C115.71,1.71,112.47,0,109.11,0c3.52,0,6.91,1.71,10.09,4.88" transform="translate(-0.03)"/><path class="cls-29" d="M130.52,4.88A50.12,50.12,0,0,0,109.11,0a50.12,50.12,0,0,1,21.41,4.88" transform="translate(-0.03)"/><path class="cls-28" d="M138.55,4.88h-7.69A51.59,51.59,0,0,0,109.11,0a91,91,0,0,1,29.44,4.88" transform="translate(-0.03)"/><path class="cls-29" d="M130.86,4.88h-.34A50.12,50.12,0,0,0,109.11,0a51.59,51.59,0,0,1,21.75,4.88" transform="translate(-0.03)"/><path class="cls-29" d="M138.55,4.88A91,91,0,0,0,109.11,0a91,91,0,0,1,29.44,4.88" transform="translate(-0.03)"/><path class="cls-28" d="M126.81,1.43a109.63,109.63,0,0,1,14.68,3.45h-2.75A92.14,92.14,0,0,0,109.11,0a109.81,109.81,0,0,1,17.7,1.43" transform="translate(-0.03)"/><path class="cls-29" d="M138.74,4.88h-.19A91,91,0,0,0,109.11,0a92.14,92.14,0,0,1,29.63,4.88" transform="translate(-0.03)"/><path class="cls-28" d="M37.84,27.37h-1c2.34-1.92,5.42-4.52,7.84-6.32,4.18-2.83,9.91-6.38,14.29-8.87C63.6,10,69.87,7.36,74.63,5.56l.61-.2h.47a107.12,107.12,0,0,0-37.87,22" transform="translate(-0.03)"/><path class="cls-29" d="M37.84,27.37c8.67-7.2,18.5-15.36,37.87-22a107.12,107.12,0,0,0-37.87,22" transform="translate(-0.03)"/><path class="cls-29" d="M75.71,5.36h-.47l1.5-.48h.44l-1.47.48" transform="translate(-0.03)"/><path class="cls-28" d="M49.09,27.37H38a106.78,106.78,0,0,1,37.77-22H81a88.26,88.26,0,0,0-31.89,22" transform="translate(-0.03)"/><path class="cls-29" d="M49.09,27.37A88.26,88.26,0,0,1,81,5.36a88.26,88.26,0,0,0-31.89,22" transform="translate(-0.03)"/><path class="cls-29" d="M81,5.36H75.79A106.78,106.78,0,0,0,38,27.37h-.18A107.15,107.15,0,0,1,77.18,4.88h5L81,5.36" transform="translate(-0.03)"/><path class="cls-28" d="M70.56,27.37H49.66a87.36,87.36,0,0,1,31.59-22H91C83.4,10,76.45,17.6,70.56,27.37" transform="translate(-0.03)"/><path class="cls-29" d="M70.56,27.37C76.45,17.6,83.4,10,91,5.36,83.4,10,76.45,17.6,70.56,27.37" transform="translate(-0.03)"/><path class="cls-29" d="M91,5.36H81.25a87.36,87.36,0,0,0-31.59,22h-.57A88,88,0,0,1,82.22,4.88h9.62l-.8.48" transform="translate(-0.03)"/><path class="cls-28" d="M99.32,27.37H71.42C77.18,17.6,84,10,91.45,5.36h13.07c-1.94,4.68-3.7,12.24-5.2,22" transform="translate(-0.03)"/><path class="cls-29" d="M99.32,27.37c1.5-9.77,3.26-17.33,5.2-22-1.94,4.68-3.7,12.24-5.2,22" transform="translate(-0.03)"/><path class="cls-29" d="M104.52,5.36H91.45C84,10,77.18,17.6,71.42,27.37h-.86C76.65,17.26,83.88,9.52,91.84,4.88h12.89l-.21.48" transform="translate(-0.03)"/><path class="cls-28" d="M130.65,27.37H100.38c1.33-9.77,2.91-17.33,4.64-22h14.19c4.27,4.68,8.15,12.24,11.44,22" transform="translate(-0.03)"/><path class="cls-29" d="M130.65,27.37c-3.29-9.77-7.17-17.33-11.44-22,4.27,4.68,8.15,12.24,11.44,22" transform="translate(-0.03)"/><path class="cls-29" d="M119.21,5.36H105c-1.73,4.68-3.31,12.24-4.64,22H99.32c1.55-10.11,3.38-17.85,5.41-22.49h14l.45.48" transform="translate(-0.03)"/><path class="cls-28" d="M156.9,27.37H131.63c-3.44-9.77-7.5-17.33-12-22h11.84c9.48,4.68,18.1,12.24,25.39,22" transform="translate(-0.03)"/><path class="cls-29" d="M156.9,27.37C149.61,17.6,141,10,131.51,5.36c9.48,4.68,18.1,12.24,25.39,22" transform="translate(-0.03)"/><path class="cls-29" d="M131.51,5.36H119.67c4.46,4.68,8.52,12.24,12,22h-1c-3.4-10.11-7.44-17.85-11.89-22.49h11.76l1,.48" transform="translate(-0.03)"/><path class="cls-28" d="M174.82,27.37H157.65c-7.41-9.77-16.16-17.33-25.78-22h8a97.24,97.24,0,0,1,34.91,22" transform="translate(-0.03)"/><path class="cls-29" d="M174.82,27.37a97.24,97.24,0,0,0-34.91-22,97.24,97.24,0,0,1,34.91,22" transform="translate(-0.03)"/><path class="cls-29" d="M139.91,5.36h-8c9.62,4.68,18.37,12.24,25.78,22h-.75c-7.55-10.11-16.51-17.85-26.38-22.49h8l1.36.48" transform="translate(-0.03)"/><path class="cls-28" d="M143.59,5.56a108.81,108.81,0,0,1,29.95,15.49q4.07,3,7.84,6.32h-6.14a98,98,0,0,0-35.13-22H143l.6.2" transform="translate(-0.03)"/><path class="cls-29" d="M143,5.36h-2.88a98,98,0,0,1,35.13,22h-.42A97.1,97.1,0,0,0,138.55,4.88h2.94l1.5.48" transform="translate(-0.03)"/><path class="cls-28" d="M11.12,64H9.76c.77-1.7,1.59-3.37,2.44-5,2.5-4.39,6.05-10.11,8.87-14.3C24.2,40.73,28.56,35.64,32,32l3.73-3.56h1A109.22,109.22,0,0,0,11.12,64" transform="translate(-0.03)"/><path class="cls-29" d="M11.12,64a109.22,109.22,0,0,1,25.6-35.59A109.22,109.22,0,0,0,11.12,64" transform="translate(-0.03)"/><path class="cls-29" d="M36.72,28.39h-1q.57-.53,1.14-1h1c-.37.33-.75.67-1.12,1" transform="translate(-0.03)"/><path class="cls-28" d="M26.59,64H11.37A109.32,109.32,0,0,1,36.9,28.39H48.15A110.79,110.79,0,0,0,26.59,64" transform="translate(-0.03)"/><path class="cls-29" d="M26.59,64A110.79,110.79,0,0,1,48.15,28.39,110.79,110.79,0,0,0,26.59,64" transform="translate(-0.03)"/><path class="cls-29" d="M48.15,28.39H36.9A109.32,109.32,0,0,0,11.37,64h-.25A109.31,109.31,0,0,1,37.84,27.37H49.09c-.31.33-.63.67-.94,1" transform="translate(-0.03)"/><path class="cls-28" d="M56.11,64H27.38A110.85,110.85,0,0,1,48.73,28.39H70A132.5,132.5,0,0,0,56.11,64" transform="translate(-0.03)"/><path class="cls-29" d="M56.11,64A132.5,132.5,0,0,1,70,28.39,132.5,132.5,0,0,0,56.11,64" transform="translate(-0.03)"/><path class="cls-29" d="M70,28.39H48.73A110.85,110.85,0,0,0,27.38,64h-.79a110.41,110.41,0,0,1,22.5-36.61H70.56c-.2.33-.41.67-.61,1" transform="translate(-0.03)"/><path class="cls-28" d="M95.65,64H57.29A134.44,134.44,0,0,1,70.83,28.39H99.17c-1.48,9.91-2.68,22-3.52,35.59" transform="translate(-0.03)"/><path class="cls-29" d="M95.65,64c.62-9.08,1.46-21.52,3.52-35.59h0c-1.48,9.91-2.68,22-3.52,35.59" transform="translate(-0.03)"/><path class="cls-29" d="M99.17,28.39H70.83A134.44,134.44,0,0,0,57.29,64H56.11c3.41-14.06,8.36-26.51,14.45-36.61H99.32l-.15,1" transform="translate(-0.03)"/><path class="cls-28" d="M138.72,64H97.1c.75-13.58,1.82-25.68,3.14-35.59H131A205.39,205.39,0,0,1,138.72,64" transform="translate(-0.03)"/><path class="cls-29" d="M138.72,64A205.39,205.39,0,0,0,131,28.39,205.39,205.39,0,0,1,138.72,64" transform="translate(-0.03)"/><path class="cls-29" d="M131,28.39H100.24C98.92,38.3,97.85,50.4,97.1,64H95.65c.86-14.06,2.12-26.51,3.67-36.61h31.33c.11.33.22.67.34,1" transform="translate(-0.03)"/><path class="cls-28" d="M174.82,64H140.07A197.21,197.21,0,0,0,132,28.39h25.67A119.06,119.06,0,0,1,174.82,64" transform="translate(-0.03)"/><path class="cls-29" d="M174.82,64a119.06,119.06,0,0,0-17.16-35.59A119.06,119.06,0,0,1,174.82,64" transform="translate(-0.03)"/><path class="cls-29" d="M157.66,28.39H132A197.21,197.21,0,0,1,140.07,64h-1.35a201.59,201.59,0,0,0-8.07-36.61H156.9c.26.33.51.67.76,1" transform="translate(-0.03)"/><path class="cls-28" d="M199.45,64h-23.6a118,118,0,0,0-17.43-35.59h17.44A109.49,109.49,0,0,1,199.45,64" transform="translate(-0.03)"/><path class="cls-29" d="M199.45,64a109.49,109.49,0,0,0-23.59-35.59A109.49,109.49,0,0,1,199.45,64" transform="translate(-0.03)"/><path class="cls-29" d="M175.86,28.39H158.42A118,118,0,0,1,175.85,64h-1A118,118,0,0,0,156.9,27.37h17.92c.35.33.69.67,1,1" transform="translate(-0.03)"/><path class="cls-28" d="M186.25,32A109,109,0,0,1,206,59c.85,1.65,1.67,3.32,2.44,5H200a109.42,109.42,0,0,0-23.75-35.59h6.24q1.9,1.74,3.73,3.56" transform="translate(-0.03)"/><path class="cls-29" d="M182.52,28.39h-6.24A109.42,109.42,0,0,1,200,64h-.58a109.23,109.23,0,0,0-24.63-36.61h6.56l1.14,1" transform="translate(-0.03)"/><path class="cls-28" d="M1.53,107.67H0c.26-4.9.8-11.42,1.42-16.28,1-5.08,2.7-11.8,4.14-16.78q1.56-4.71,3.54-9.22H10.5a110,110,0,0,0-9,42.28" transform="translate(-0.03)"/><path class="cls-29" d="M1.53,107.67a110,110,0,0,1,9-42.28,110,110,0,0,0-9,42.28" transform="translate(-0.03)"/><path class="cls-29" d="M10.5,65.39H9.13L9.76,64h1.36c-.21.47-.42.94-.62,1.41" transform="translate(-0.03)"/><path class="cls-28" d="M18.51,107.67H1.8a110.31,110.31,0,0,1,9-42.28H26.07a127.65,127.65,0,0,0-7.56,42.28" transform="translate(-0.03)"/><path class="cls-29" d="M18.51,107.67a127.65,127.65,0,0,1,7.56-42.28,127.65,127.65,0,0,0-7.56,42.28" transform="translate(-0.03)"/><path class="cls-29" d="M26.07,65.39H10.75A110.31,110.31,0,0,0,1.8,107.67H1.53A109.86,109.86,0,0,1,11.12,64H26.59c-.18.47-.35.94-.52,1.41" transform="translate(-0.03)"/><path class="cls-28" d="M50.92,107.67H19.37a128.92,128.92,0,0,1,7.49-42.28H55.77a192.4,192.4,0,0,0-4.85,42.28" transform="translate(-0.03)"/><path class="cls-29" d="M50.92,107.67a192.4,192.4,0,0,1,4.85-42.28,192.4,192.4,0,0,0-4.85,42.28" transform="translate(-0.03)"/><path class="cls-29" d="M55.77,65.39H26.86a128.92,128.92,0,0,0-7.49,42.28h-.86A127.6,127.6,0,0,1,26.59,64H56.11c-.12.47-.23.94-.34,1.41" transform="translate(-0.03)"/><path class="cls-28" d="M94.33,107.67H52.22A196.89,196.89,0,0,1,57,65.39h38.6c-.77,13-1.2,27.26-1.23,42.28" transform="translate(-0.03)"/><path class="cls-29" d="M94.33,107.67c0-15,.46-29.31,1.23-42.28-.77,13-1.2,27.26-1.23,42.28" transform="translate(-0.03)"/><path class="cls-29" d="M95.56,65.39H57a196.89,196.89,0,0,0-4.74,42.28h-1.3A191.29,191.29,0,0,1,56.11,64H95.65l-.09,1.41" transform="translate(-0.03)"/><path class="cls-28" d="M141.62,107.67H95.92c0-15,.42-29.31,1.1-42.28h41.89a340.31,340.31,0,0,1,2.71,42.28" transform="translate(-0.03)"/><path class="cls-29" d="M141.62,107.67a340.31,340.31,0,0,0-2.71-42.28,340.31,340.31,0,0,1,2.71,42.28" transform="translate(-0.03)"/><path class="cls-29" d="M138.91,65.39H97c-.68,13-1.07,27.26-1.1,42.28H94.33c0-15.57.5-30.35,1.32-43.69h43.07c.06.47.13.94.19,1.41" transform="translate(-0.03)"/><path class="cls-28" d="M181.25,107.67H143.1a324.71,324.71,0,0,0-2.83-42.28h35a157.6,157.6,0,0,1,6,42.28" transform="translate(-0.03)"/><path class="cls-29" d="M181.25,107.67a157.6,157.6,0,0,0-6-42.28,157.6,157.6,0,0,1,6,42.28" transform="translate(-0.03)"/><path class="cls-29" d="M175.24,65.39h-35a324.71,324.71,0,0,1,2.83,42.28h-1.48A337.36,337.36,0,0,0,138.72,64h36.1l.42,1.41" transform="translate(-0.03)"/><path class="cls-28" d="M208.3,107.67H182.39a155.21,155.21,0,0,0-6.11-42.28H200a118.1,118.1,0,0,1,8.27,42.28" transform="translate(-0.03)"/><path class="cls-29" d="M208.3,107.67A118.1,118.1,0,0,0,200,65.39a118.1,118.1,0,0,1,8.27,42.28" transform="translate(-0.03)"/><path class="cls-29" d="M200,65.39H176.28a155.21,155.21,0,0,1,6.11,42.28h-1.14A156.8,156.8,0,0,0,174.82,64h24.63c.2.47.39.94.58,1.41" transform="translate(-0.03)"/><path class="cls-28" d="M212.64,74.61a108,108,0,0,1,4.14,16.78,110.45,110.45,0,0,1,1.41,16.28h-9.26a117.06,117.06,0,0,0-8.32-42.28h8.49c1.31,3,2.5,6.08,3.54,9.22" transform="translate(-0.03)"/><path class="cls-29" d="M209.1,65.39h-8.49a117.06,117.06,0,0,1,8.32,42.28h-.63A117.71,117.71,0,0,0,199.45,64h9l.63,1.41" transform="translate(-0.03)"/><path class="cls-28" d="M12,156H10.6a107.4,107.4,0,0,1-5-12.42c-1.44-5-3.1-11.71-4.14-16.79C1,123,.39,118,.15,114.25H1.64A109.52,109.52,0,0,0,12,156" transform="translate(-0.03)"/><path class="cls-28" d="M27.29,156H12.2A109.68,109.68,0,0,1,1.91,114.25H18.6A126.82,126.82,0,0,0,27.29,156" transform="translate(-0.03)"/><path class="cls-29" d="M12.2,156H12A109.52,109.52,0,0,1,1.64,114.25h.27A109.68,109.68,0,0,0,12.2,156" transform="translate(-0.03)"/><path class="cls-28" d="M56.55,156H28.06a127.8,127.8,0,0,1-8.6-41.75H51A189.47,189.47,0,0,0,56.55,156" transform="translate(-0.03)"/><path class="cls-29" d="M28.06,156h-.77a126.82,126.82,0,0,1-8.69-41.75h.86A127.8,127.8,0,0,0,28.06,156" transform="translate(-0.03)"/><path class="cls-28" d="M95.76,156h-38a193.29,193.29,0,0,1-5.45-41.75H94.35c.09,14.89.59,29,1.41,41.75" transform="translate(-0.03)"/><path class="cls-29" d="M57.73,156H56.55A189.47,189.47,0,0,1,51,114.25h1.3A193.29,193.29,0,0,0,57.73,156" transform="translate(-0.03)"/><path class="cls-28" d="M138.47,156H97.2c-.73-12.75-1.18-26.86-1.26-41.75h45.65A332.81,332.81,0,0,1,138.47,156" transform="translate(-0.03)"/><path class="cls-29" d="M97.2,156H95.76c-.82-12.75-1.32-26.86-1.41-41.75h1.59c.08,14.89.53,29,1.26,41.75" transform="translate(-0.03)"/><path class="cls-28" d="M174.27,156H139.81a317.38,317.38,0,0,0,3.26-41.75h38.11A155.19,155.19,0,0,1,174.27,156" transform="translate(-0.03)"/><path class="cls-29" d="M139.81,156h-1.34a332.81,332.81,0,0,0,3.12-41.75h1.48A317.38,317.38,0,0,1,139.81,156" transform="translate(-0.03)"/><path class="cls-28" d="M198.69,156h-23.4a152.48,152.48,0,0,0,7-41.75H208.2A117.3,117.3,0,0,1,198.69,156" transform="translate(-0.03)"/><path class="cls-29" d="M175.29,156h-1a155.19,155.19,0,0,0,6.91-41.75h1.13a152.48,152.48,0,0,1-7,41.75" transform="translate(-0.03)"/><path class="cls-28" d="M216.78,126.78A108.4,108.4,0,0,1,207.63,156h-8.36a116.7,116.7,0,0,0,9.56-41.75h9.25a107.63,107.63,0,0,1-1.3,12.53" transform="translate(-0.03)"/><path class="cls-29" d="M199.27,156h-.58a117.3,117.3,0,0,0,9.51-41.75h.63A116.7,116.7,0,0,1,199.27,156" transform="translate(-0.03)"/><path class="cls-28" d="M39.3,192.09h-1c-1.91-1.76-4.51-4-6.35-5.87-3.42-3.68-7.78-8.77-10.91-12.71-2.82-4.18-6.37-9.9-8.87-14.29-.31-.6-.62-1.21-.92-1.82h1.34A109.25,109.25,0,0,0,39.3,192.09" transform="translate(-0.03)"/><path class="cls-29" d="M39.3,192.09A109.25,109.25,0,0,1,12.62,157.4,109.25,109.25,0,0,0,39.3,192.09" transform="translate(-0.03)"/><path class="cls-29" d="M12.62,157.4H11.28c-.23-.47-.46-.93-.68-1.41H12c.22.48.44.94.67,1.41" transform="translate(-0.03)"/><path class="cls-28" d="M50.32,192.09H39.48A109.19,109.19,0,0,1,12.87,157.4h15a109,109,0,0,0,22.47,34.69" transform="translate(-0.03)"/><path class="cls-29" d="M50.32,192.09A109,109,0,0,1,27.85,157.4a109,109,0,0,0,22.47,34.69" transform="translate(-0.03)"/><path class="cls-29" d="M27.85,157.4h-15a109.19,109.19,0,0,0,26.61,34.69H39.3A109.15,109.15,0,0,1,12,156H27.29c.18.47.37.93.56,1.4" transform="translate(-0.03)"/><path class="cls-28" d="M71.35,192.09H50.88A109.17,109.17,0,0,1,28.63,157.4H56.92c3.52,13.34,8.45,25.13,14.43,34.69" transform="translate(-0.03)"/><path class="cls-29" d="M71.35,192.09c-6-9.56-10.91-21.35-14.43-34.69,3.52,13.34,8.45,25.13,14.43,34.69" transform="translate(-0.03)"/><path class="cls-29" d="M56.92,157.4H28.63a109.17,109.17,0,0,0,22.25,34.69h-.56a109.53,109.53,0,0,1-23-36.09H56.55c.12.47.24.93.37,1.4" transform="translate(-0.03)"/><path class="cls-28" d="M99.52,192.09H72.19c-5.84-9.56-10.66-21.35-14.1-34.69H95.85c.9,13.34,2.15,25.13,3.67,34.69" transform="translate(-0.03)"/><path class="cls-29" d="M99.52,192.09c-1.52-9.56-2.77-21.35-3.67-34.69.9,13.34,2.15,25.13,3.67,34.69" transform="translate(-0.03)"/><path class="cls-29" d="M95.85,157.4H58.09c3.44,13.34,8.26,25.13,14.1,34.69h-.84c-6.19-9.9-11.26-22.18-14.8-36.09H95.76l.09,1.4" transform="translate(-0.03)"/><path class="cls-28" d="M130.21,192.09H100.56c-1.36-9.56-2.48-21.35-3.28-34.69h41a192.5,192.5,0,0,1-8.06,34.69" transform="translate(-0.03)"/><path class="cls-29" d="M130.21,192.09a192.5,192.5,0,0,0,8.06-34.69,192.5,192.5,0,0,1-8.06,34.69" transform="translate(-0.03)"/><path class="cls-29" d="M138.27,157.4h-41c.8,13.34,1.92,25.13,3.28,34.69h-1c-1.57-9.9-2.86-22.18-3.76-36.09h42.71c-.07.47-.13.93-.2,1.4" transform="translate(-0.03)"/><path class="cls-28" d="M155.92,192.09H131.17a185.67,185.67,0,0,0,8.43-34.69h34.21a115,115,0,0,1-17.89,34.69" transform="translate(-0.03)"/><path class="cls-29" d="M155.92,192.09a115,115,0,0,0,17.89-34.69,115,115,0,0,1-17.89,34.69" transform="translate(-0.03)"/><path class="cls-29" d="M173.81,157.4H139.6a185.67,185.67,0,0,1-8.43,34.69h-1A195.71,195.71,0,0,0,138.47,156h35.8c-.15.47-.3.93-.46,1.4" transform="translate(-0.03)"/><path class="cls-28" d="M173.48,192.09H156.66a114.29,114.29,0,0,0,18.17-34.69h23.24a108.58,108.58,0,0,1-24.59,34.69" transform="translate(-0.03)"/><path class="cls-29" d="M173.48,192.09a108.58,108.58,0,0,0,24.59-34.69,108.58,108.58,0,0,1-24.59,34.69" transform="translate(-0.03)"/><path class="cls-29" d="M198.07,157.4H174.83a114.29,114.29,0,0,1-18.17,34.69h-.74A116,116,0,0,0,174.27,156h24.42c-.2.47-.41.93-.62,1.4" transform="translate(-0.03)"/><path class="cls-28" d="M206,159.22a109.22,109.22,0,0,1-19.78,27q-3.06,3.06-6.35,5.87h-6a108.7,108.7,0,0,0,24.75-34.69H207c-.3.61-.61,1.22-.92,1.82" transform="translate(-0.03)"/><path class="cls-29" d="M207,157.4h-8.31a108.7,108.7,0,0,1-24.75,34.69h-.41A108.89,108.89,0,0,0,198.69,156h8.94c-.22.48-.45.94-.68,1.41" transform="translate(-0.03)"/><path class="cls-28" d="M79.08,213.86h-.41l-4-1.25c-2.39-.9-5.62-2-8-3S61.53,206,59,206c-4.38-2.49-10.11-6-14.29-8.87l-5.17-4h.95a106.74,106.74,0,0,0,38.61,20.77" transform="translate(-0.03)"/><path class="cls-29" d="M79.08,213.86a106.74,106.74,0,0,1-38.61-20.77,106.74,106.74,0,0,0,38.61,20.77" transform="translate(-0.03)"/><path class="cls-29" d="M40.47,193.09h-.95l-1.19-1h1l1.17,1" transform="translate(-0.03)"/><path class="cls-28" d="M83.82,213.86H79.16a106.44,106.44,0,0,1-38.52-20.77H51.31a86.56,86.56,0,0,0,32.51,20.77" transform="translate(-0.03)"/><path class="cls-29" d="M83.82,213.86a86.56,86.56,0,0,1-32.51-20.77,86.56,86.56,0,0,0,32.51,20.77" transform="translate(-0.03)"/><path class="cls-29" d="M51.31,193.09H40.64a106.44,106.44,0,0,0,38.52,20.77h-.08A106.88,106.88,0,0,1,39.3,192.09h11l1,1" transform="translate(-0.03)"/><path class="cls-28" d="M92.87,213.86H84.06a85.71,85.71,0,0,1-32.21-20.77H72c6,9.41,13.14,16.56,20.89,20.77" transform="translate(-0.03)"/><path class="cls-29" d="M92.87,213.86C85.12,209.65,78,202.5,72,193.09h0c6,9.41,13.14,16.56,20.89,20.77" transform="translate(-0.03)"/><path class="cls-29" d="M72,193.09H51.85a85.71,85.71,0,0,0,32.21,20.77h-.24a87,87,0,0,1-33.5-21.77h21l.63,1" transform="translate(-0.03)"/><path class="cls-28" d="M105,213.86H93.23c-7.58-4.21-14.5-11.36-20.42-20.77H99.68c1.54,9.41,3.34,16.56,5.31,20.77" transform="translate(-0.03)"/><path class="cls-29" d="M105,213.86c-2-4.21-3.77-11.36-5.31-20.77,1.54,9.41,3.34,16.56,5.31,20.77" transform="translate(-0.03)"/><path class="cls-29" d="M99.68,193.09H72.81c5.92,9.41,12.84,16.56,20.42,20.77h-.36c-8-4.36-15.33-11.87-21.52-21.77H99.52c0,.34.11.67.16,1" transform="translate(-0.03)"/><path class="cls-28" d="M118.19,213.86H105.43c-1.75-4.21-3.36-11.36-4.73-20.77h29.15c-3.38,9.41-7.33,16.56-11.66,20.77" transform="translate(-0.03)"/><path class="cls-29" d="M118.19,213.86c4.33-4.21,8.28-11.36,11.66-20.77-3.38,9.41-7.33,16.56-11.66,20.77" transform="translate(-0.03)"/><path class="cls-29" d="M129.85,193.09H100.7c1.37,9.41,3,16.56,4.73,20.77H105c-2-4.36-3.9-11.87-5.47-21.77h30.69l-.36,1" transform="translate(-0.03)"/><path class="cls-28" d="M129.25,213.86H118.6c4.53-4.21,8.67-11.36,12.2-20.77h24.34c-7.5,9.41-16.28,16.56-25.89,20.77" transform="translate(-0.03)"/><path class="cls-29" d="M129.25,213.86c9.61-4.21,18.39-11.36,25.89-20.77h0c-7.5,9.41-16.28,16.56-25.89,20.77" transform="translate(-0.03)"/><path class="cls-29" d="M155.14,193.09H130.8c-3.53,9.41-7.67,16.56-12.2,20.77h-.41c4.48-4.36,8.56-11.87,12-21.77h25.71l-.78,1" transform="translate(-0.03)"/><path class="cls-28" d="M136.8,213.86h-7.23c9.76-4.21,18.68-11.36,26.3-20.77H172.4a96.24,96.24,0,0,1-35.6,20.77" transform="translate(-0.03)"/><path class="cls-29" d="M136.8,213.86a96.24,96.24,0,0,0,35.6-20.77h0a96.24,96.24,0,0,1-35.6,20.77" transform="translate(-0.03)"/><path class="cls-29" d="M172.4,193.09H155.87c-7.62,9.41-16.54,16.56-26.3,20.77h-.32c9.95-4.36,19-11.87,26.67-21.77h17.56l-1.08,1" transform="translate(-0.03)"/><path class="cls-28" d="M173.54,197.12A108.53,108.53,0,0,1,159.25,206c-4.62,2.17-10.89,4.82-15.66,6.62-1.33.44-2.67.86-4,1.25H137a97,97,0,0,0,35.82-20.77h5.91c-1.68,1.39-3.4,2.74-5.17,4" transform="translate(-0.03)"/><path class="cls-29" d="M178.71,193.09H172.8A97,97,0,0,1,137,213.86h-.18a96.6,96.6,0,0,0,36.68-21.77h6.42l-1.19,1" transform="translate(-0.03)"/><path class="cls-28" d="M109.11,218.17h0c-5.32-.22-12.4-.78-17.69-1.43-3.38-.69-7.9-1.58-11.24-2.45h.4a106.22,106.22,0,0,0,28.53,3.88" transform="translate(-0.03)"/><path class="cls-29" d="M109.11,218.17h0" transform="translate(-0.03)"/><path class="cls-29" d="M126.78,216.74c-27.55,1.43-37.11.08-46.2-2.45h-.4l-1.51-.43h.41a106,106,0,0,0,30,4.31" transform="translate(-0.03)"/><path class="cls-28" d="M109.11,218.17h0a105.76,105.76,0,0,1-28.46-3.88h4.43a76.36,76.36,0,0,0,24,3.88" transform="translate(-0.03)"/><path class="cls-29" d="M109.11,218.17h0" transform="translate(-0.03)"/><path class="cls-29" d="M124,216.74c-23.2,1.43-31.25.08-38.91-2.45H80.65a105.76,105.76,0,0,0,28.46,3.88h0a106,106,0,0,1-30-4.31h4.74a76.34,76.34,0,0,0,25.29,4.31" transform="translate(-0.03)"/><path class="cls-28" d="M109.11,218.17h0a74.94,74.94,0,0,1-23.8-3.88h8.37a33.46,33.46,0,0,0,15.43,3.88" transform="translate(-0.03)"/><path class="cls-29" d="M109.11,218.17h0" transform="translate(-0.03)"/><path class="cls-29" d="M118.67,216.74c-14.9,1.43-20.08.08-25-2.45H85.31a74.94,74.94,0,0,0,23.8,3.88h0a76.34,76.34,0,0,1-25.29-4.31h9.05a33.7,33.7,0,0,0,16.24,4.31" transform="translate(-0.03)"/><path class="cls-28" d="M109.11,218.17h0A32.18,32.18,0,0,1,94,214.29h11.17c1.25,2.53,2.57,3.88,3.92,3.88" transform="translate(-0.03)"/><path class="cls-29" d="M109.11,218.17h0" transform="translate(-0.03)"/><path class="cls-29" d="M111.54,216.74c-3.78,1.43-5.1.08-6.35-2.45H94a32.18,32.18,0,0,0,15.09,3.88h0a33.7,33.7,0,0,1-16.24-4.31H105c1.31,2.81,2.69,4.31,4.12,4.31" transform="translate(-0.03)"/><path class="cls-28" d="M109.11,218.17h0c-1.21,0-2.38-1.35-3.49-3.88h12.12c-2.75,2.53-5.64,3.88-8.63,3.88" transform="translate(-0.03)"/><path class="cls-29" d="M109.11,218.17h0" transform="translate(-0.03)"/><path class="cls-29" d="M103.78,216.74c8.32,1.43,11.21.08,14-2.45H105.62c1.11,2.53,2.28,3.88,3.49,3.88h0c-1.43,0-2.81-1.5-4.12-4.31h13.2c-2.88,2.81-5.93,4.31-9.08,4.31" transform="translate(-0.03)"/><path class="cls-28" d="M109.11,218.17h0c3.13,0,6.15-1.35,9-3.88h10.12a49.67,49.67,0,0,1-19.14,3.88" transform="translate(-0.03)"/><path class="cls-29" d="M109.11,218.17h0" transform="translate(-0.03)"/><path class="cls-29" d="M97.27,216.74c18.47,1.43,24.88.08,31-2.45H118.13c-2.87,2.53-5.89,3.88-9,3.88h0c3.15,0,6.2-1.5,9.08-4.31h11.06a49.75,49.75,0,0,1-20.14,4.31" transform="translate(-0.03)"/><path class="cls-28" d="M109.11,218.17h0a51.12,51.12,0,0,0,19.44-3.88h6.87a90.83,90.83,0,0,1-26.31,3.88" transform="translate(-0.03)"/><path class="cls-29" d="M109.11,218.17h0" transform="translate(-0.03)"/><path class="cls-29" d="M92.82,216.74c25.4,1.43,34.22.08,42.6-2.45h-6.87a51.12,51.12,0,0,1-19.44,3.88h0a49.75,49.75,0,0,0,20.14-4.31h7.55a90.72,90.72,0,0,1-27.69,4.31" transform="translate(-0.03)"/><path class="cls-28" d="M126.81,216.74c-5.29.65-12.37,1.21-17.7,1.43h0a91.94,91.94,0,0,0,26.48-3.88h2.46a106.89,106.89,0,0,1-11.24,2.45" transform="translate(-0.03)"/><path class="cls-29" d="M138.05,214.29h-2.46a91.94,91.94,0,0,1-26.48,3.88h0a90.72,90.72,0,0,0,27.69-4.31h2.76l-1.51.43" transform="translate(-0.03)"/><path class="cls-29" d="M218.2,109.09q0,2.59-.12,5.16H.15L0,109.09v-1.42H218.19c0,.47,0,.94,0,1.42" transform="translate(-0.03)"/></g></g></g></g></g></svg>