<svg  viewBox="0 0 163 207" fill="none" xmlns="http://www.w3.org/2000/svg">
<line x1="81.5" y1="2.18557e-08" x2="81.5" y2="206.049" stroke="#91AEC7"/>
<line x1="80.5" y1="2.18557e-08" x2="80.5" y2="206.049" stroke="#91AEC7"/>
<path d="M78.8778 19.1708L78.8778 19.4696C78.8778 19.9372 78.1045 20.3134 77.1434 20.3134L67.8934 20.3134C67.1924 20.3134 66.5565 20.1095 66.2891 19.7931C66.0217 19.4767 66.1663 19.1146 66.6649 18.872L69.6711 17.4095C63.4202 14.3298 63.4418 9.36924 69.7434 6.30713C76.0666 3.23096 86.3139 3.23096 92.6372 6.30713C98.9604 9.38331 98.9604 14.3685 92.6372 17.4446C91.7338 17.8841 90.2668 17.8841 89.3635 17.4446C88.4602 17.0052 88.4602 16.2915 89.3635 15.8521C93.8801 13.6548 93.8801 10.0935 89.3635 7.8962C84.8469 5.69893 77.5264 5.69893 73.0098 7.8962C68.5149 10.0829 68.4932 13.6161 72.9375 15.8169L75.9149 14.372C76.4135 14.1294 77.1579 14.0591 77.8082 14.1892C78.4586 14.3192 78.8778 14.6286 78.8778 14.9696L78.8778 19.1708Z" fill="#91AEC7"/>
<g clip-path="url(#clip0_101_542)">
<mask id="mask0_101_542" style="mask-type:luminance" maskUnits="userSpaceOnUse" x="0" y="22" width="163" height="162">
<path d="M81.2678 183.887C67.4433 183.863 53.8554 180.298 41.7997 173.531C29.744 166.765 19.6222 157.024 12.3996 145.236C5.17689 133.447 1.09407 120.006 0.540357 106.192C-0.0133533 92.3775 2.98051 78.6519 9.2365 66.3234C15.4925 53.9949 24.8021 43.4744 36.2776 35.7651C47.7531 28.0558 61.012 23.4145 74.7902 22.284C88.5684 21.1534 102.406 23.5712 114.985 29.3068C127.564 35.0424 138.464 43.9046 146.645 55.0484C149.1 58.426 151.295 61.9857 153.209 65.6964C157.122 73.2525 159.816 81.3797 161.191 89.777C162.596 98.4801 162.596 107.352 161.191 116.056C159.814 124.445 157.12 132.565 153.209 140.114C149.373 147.512 144.419 154.274 138.522 160.162C132.631 166.054 125.87 171.005 118.475 174.842C115.044 176.454 110.389 178.421 106.847 179.758C102.782 181.11 98.6158 182.135 94.3878 182.825C90.4823 183.307 85.2253 183.76 81.2678 183.887Z" fill="white"/>
</mask>
<g mask="url(#mask0_101_542)">
<path d="M81.2678 183.887C85.2253 183.723 90.4823 183.307 94.4101 182.825C98.6381 182.135 102.804 181.11 106.869 179.758C110.411 178.421 115.037 176.454 118.497 174.842C125.892 171.005 132.654 166.054 138.545 160.162C144.441 154.274 149.395 147.512 153.231 140.114C157.146 132.556 159.84 124.426 161.213 116.026C162.619 107.323 162.619 98.4504 161.213 89.7473C159.828 81.3589 157.127 73.242 153.209 65.6964C147.441 54.5819 139.185 44.9487 129.085 37.5467C118.842 30.0093 106.959 25.0065 94.4101 22.9484C83.3672 21.136 72.0686 21.6317 61.2268 24.404C50.385 27.1763 40.2353 32.1652 31.4176 39.0561C22.6 45.9469 15.3058 54.5902 9.99509 64.4408C4.68435 74.2914 1.47227 85.1357 0.561427 96.2896C-0.349419 107.444 1.06073 118.665 4.70295 129.247C8.34516 139.829 14.1404 149.541 21.7232 157.771C29.3061 166.002 38.5119 172.571 48.7603 177.066C59.0087 181.561 70.0772 183.883 81.2678 183.887Z" fill="#9E9E9E"/>
<path d="M0.252907 102.89C0.244686 111.295 1.54479 119.649 4.10651 127.654C-12.3697 72.8619 35.7373 32.1039 87.2227 57.3206C142.539 84.4084 146.438 162.323 93.3558 179.914C82.2182 183.627 64.153 185.498 41.5363 173.484C53.6606 180.321 67.3486 183.902 81.2678 183.879C85.2253 183.716 90.4823 183.3 94.4101 182.817C98.6381 182.128 102.804 181.102 106.869 179.751C110.411 178.414 115.037 176.446 118.497 174.835C125.892 170.998 132.654 166.046 138.545 160.155C144.441 154.266 149.395 147.504 153.231 140.106C157.146 132.548 159.84 124.418 161.213 116.018C162.619 107.315 162.619 98.443 161.213 89.7399C159.827 81.354 157.126 73.2396 153.209 65.6964C147.441 54.5819 139.185 44.9487 129.085 37.5467C118.842 30.0093 106.959 25.0065 94.4101 22.9484C82.8161 21.0487 70.9477 21.6923 59.6271 24.8347C48.3064 27.977 37.8043 33.5431 28.848 41.1471C19.8918 48.7512 12.6957 58.2115 7.75818 68.8727C2.82065 79.5339 0.259757 91.1411 0.252907 102.89Z" fill="#9E9E9E"/>
<path d="M0.25293 102.89C0.274125 106.405 0.522142 109.915 0.995436 113.397C-5.49407 52.3307 56.52 24.5968 106.29 66.3202C151.91 104.576 138.173 177.486 84.3418 182.758C70.0262 184.161 61.6285 181.57 54.8791 179.491C63.3711 182.408 72.2888 183.893 81.2678 183.887C85.2253 183.723 90.4823 183.307 94.4101 182.825C98.6381 182.135 102.804 181.11 106.869 179.758C110.411 178.421 115.037 176.454 118.497 174.842C125.892 171.005 132.654 166.054 138.545 160.162C144.441 154.274 149.395 147.512 153.231 140.114C157.146 132.556 159.84 124.426 161.213 116.026C162.619 107.323 162.619 98.4504 161.213 89.7473C159.828 81.3589 157.127 73.242 153.209 65.6964C147.441 54.5819 139.185 44.9487 129.085 37.5467C118.842 30.0093 106.959 25.0065 94.4101 22.9484C82.8161 21.0487 70.9477 21.6923 59.6271 24.8347C48.3065 27.977 37.8043 33.5431 28.8481 41.1471C19.8919 48.7512 12.6957 58.2115 7.7582 68.8727C2.82067 79.5339 0.259779 91.1411 0.25293 102.89Z" fill="#999999"/>
<path d="M0.304871 100.908C5.04206 34.8216 78.0378 26.2972 117.413 72.6317C158.874 121.417 132.204 187.622 72.8626 183.322C69.9297 183.114 67.8952 182.773 66.8112 182.58C71.5944 183.44 76.4448 183.873 81.3049 183.872C85.2624 183.708 90.5194 183.293 94.4472 182.81C98.6752 182.12 102.842 181.095 106.906 179.743C110.448 178.407 115.074 176.439 118.534 174.828C125.929 170.99 132.691 166.039 138.582 160.148C144.478 154.259 149.432 147.497 153.269 140.099C157.183 132.541 159.877 124.411 161.251 116.011C162.656 107.308 162.656 98.4356 161.251 89.7325C159.852 81.3471 157.138 73.2351 153.209 65.6964C147.441 54.5819 139.185 44.9487 129.085 37.5467C118.842 30.0093 106.959 25.0065 94.4101 22.9484C82.983 21.0799 71.2882 21.6816 60.1132 24.7129C48.9381 27.7442 38.5422 33.1347 29.6255 40.5216C20.7087 47.9085 13.4781 57.1202 8.42041 67.5365C3.36274 77.9528 0.595453 89.332 0.304871 100.908Z" fill="#949494"/>
<path d="M1.44092 89.1607C12.9423 29.0149 88.8562 22.3321 126.412 78.2008C157.664 124.699 135.745 187.028 73.8501 183.545L74.4293 183.597C76.6865 183.79 78.966 183.887 81.2678 183.887C85.2253 183.723 90.4823 183.307 94.4101 182.825C98.6381 182.135 102.804 181.11 106.869 179.758C110.411 178.421 115.037 176.454 118.497 174.842C125.892 171.005 132.654 166.054 138.545 160.162C144.441 154.274 149.395 147.512 153.231 140.114C157.146 132.556 159.84 124.426 161.213 116.026C162.619 107.323 162.619 98.4504 161.213 89.7473C159.828 81.3589 157.127 73.242 153.209 65.6964C147.441 54.5819 139.185 44.9487 129.085 37.5467C118.842 30.0093 106.959 25.0065 94.4101 22.9484C73.3151 19.5001 51.7119 24.5223 34.3009 36.9224C16.8899 49.3224 5.08007 68.0968 1.44092 89.1607Z" fill="#8F8F8F"/>
<path d="M4.4035 77.3172C27.6662 16.117 109.602 25.9705 139.287 93.5491C150.425 118.877 148.13 182.906 76.6939 183.76C78.2086 183.844 79.7332 183.887 81.2677 183.887C85.2253 183.723 90.4822 183.307 94.4101 182.825C98.6381 182.135 102.804 181.11 106.869 179.758C110.411 178.421 115.037 176.454 118.497 174.842C125.892 171.005 132.654 166.054 138.545 160.162C144.441 154.274 149.395 147.512 153.231 140.114C157.146 132.556 159.84 124.426 161.213 116.026C162.619 107.323 162.619 98.4504 161.213 89.7473C159.828 81.3589 157.127 73.242 153.209 65.6964C147.441 54.5819 139.185 44.9487 129.085 37.5467C118.842 30.0093 106.959 25.0065 94.4101 22.9484C75.3947 19.8407 55.894 23.6052 39.4015 33.5676C22.9089 43.53 10.5021 59.0393 4.4035 77.3172Z" fill="#8A8A8A"/>
<path d="M10.1208 64.1668C46.214 4.59279 133.377 39.2768 147.329 102.89C153.751 132.109 141.737 167.959 106.35 179.929L106.869 179.758C110.411 178.421 115.037 176.454 118.497 174.842C125.892 171.005 132.654 166.054 138.545 160.162C144.441 154.274 149.395 147.512 153.231 140.114C157.146 132.556 159.84 124.426 161.213 116.026C162.619 107.323 162.619 98.4504 161.213 89.7473C159.828 81.3589 157.127 73.242 153.209 65.6964C147.441 54.5819 139.185 44.9487 129.085 37.5467C118.842 30.0093 106.959 25.0065 94.4101 22.9484C77.8215 20.237 60.8003 22.7469 45.7003 30.131C30.6002 37.5151 18.1673 49.4086 10.1208 64.1668Z" fill="#858585"/>
<path d="M21.4812 157.519C63.4105 201.923 126.962 183.59 127.734 126.867C128.476 69.617 56.8616 30.0099 18.2216 66.3202C-8.04088 91.0022 -1.2915 133.401 21.4812 157.519Z" fill="#A3A3A3"/>
<path d="M21.6668 157.519C61.97 199.97 123.665 181.614 124.816 126.83C125.929 73.6342 57.3071 34.7548 19.9219 67.3374C-7.51373 91.2844 -1.32865 133.268 21.6668 157.519Z" fill="#A8A8A8"/>
<path d="M17.3306 151.898C52.5922 196.636 114.97 185.795 121.623 133.78C127.89 84.6683 64.6876 35.2894 20.8872 69.3423C-2.18249 87.2747 -3.816 125.1 17.3306 151.898Z" fill="#ADADAD"/>
<path d="M17.8503 151.898C52.2729 195.322 112.572 184.503 118.668 133.765C124.489 85.344 64.2421 38.2818 21.1396 71.8447C-1.23213 89.2647 -2.71714 125.924 17.8503 151.898Z" fill="#B3B3B3"/>
<path d="M18.5409 151.898C55.0425 197.527 112.839 178.585 115.943 132.696C119.589 78.9582 55.7181 46.0934 23.0107 73.0773C-5.04857 96.2297 3.50511 133.104 18.5557 151.898" fill="#B8B8B8"/>
<path d="M15.1624 145.891C43.1995 189.366 103.06 185.409 112.215 139.475C122.262 89.0567 62.3636 46.2196 23.2038 75.795C3.13384 90.9428 -0.400485 121.736 15.1624 145.891Z" fill="#BDBDBD"/>
<path d="M16.1351 145.891C43.4297 187.881 100.038 183.991 109.349 139.475C119.856 89.1533 61.5691 53.8158 26.0699 76.9682C2.32453 92.4279 2.42848 124.78 16.1351 145.891Z" fill="#C2C2C2"/>
<path d="M17.2637 145.891C43.5559 185.943 96.9495 182.104 106.528 139.475C117.985 88.4479 62.8388 60.12 29.6933 77.5325C7.0023 89.4577 1.1959 121.387 17.2637 145.891Z" fill="#C7C7C7"/>
<path d="M18.5408 145.891C43.0435 183.092 93.3186 179.305 103.929 139.475C117.019 90.4676 59.6979 61.6941 28.973 80.9853C5.45043 95.747 5.18312 125.575 18.5408 145.891Z" fill="#CCCCCC"/>
<path d="M20.0407 145.891C45.8428 183.686 96.2144 175.689 102.956 132.718C109.208 92.8734 62.5121 62.7263 28.3865 84.4975C11.4945 95.2941 4.11396 122.523 20.0407 145.891Z" fill="#D1D1D1"/>
<path d="M18.0285 139.453C35.7819 174.553 84.5274 180.293 98.6795 139.453C112.245 100.314 70.3232 69.3943 36.8659 83.0199C13.3433 92.5764 8.13835 119.932 18.0285 139.453Z" fill="#D6D6D6"/>
<path d="M19.8105 139.453C37.8089 174.88 82.8642 174.88 96.3332 139.453C110.084 103.284 72.573 69.8027 36.4724 85.9901C17.1152 94.6555 9.4897 119.159 19.8105 139.453Z" fill="#DBDBDB"/>
<path d="M21.9489 139.453C42.056 177.285 88.032 167.41 96.5114 132.696C105.221 96.9796 63.3288 72.6689 36.1531 88.886C13.269 102.556 15.103 126.585 21.9489 139.453Z" fill="#E0E0E0"/>
<path d="M24.3324 139.453C43.838 175.221 86.3836 161.076 94.7962 132.696C103.625 102.927 68.1403 72.1788 35.9006 91.7447C22.3202 99.9869 14.0413 120.57 24.3324 139.453Z" fill="#E6E6E6"/>
<path d="M26.9831 139.453C45.4418 170.513 84.2526 157.868 93.0662 132.696C102.86 104.672 70.1598 80.1685 45.3453 89.1681C26.9831 95.8213 14.9842 119.241 26.9831 139.453Z" fill="#EBEBEB"/>
<path d="M30.1017 139.453C48.3822 167.669 89.7249 153.561 93.1478 125.627C96.2886 99.9647 62.8981 76.7528 38.2024 95.0862C26.2332 103.997 19.7214 123.473 30.072 139.453" fill="#F0F0F0"/>
<path d="M29.7304 132.696C41.269 161.246 79.3595 157.118 89.569 132.696C93.5637 123.124 91.9598 118.446 89.3017 110.687C87.4231 105.2 86.0198 103.952 76.9167 95.8361C76.7904 95.7247 63.9302 84.9282 45.0929 92.9625C29.0473 99.8013 24.1987 119.048 29.7304 132.726" fill="#F5F5F5"/>
<path d="M32.3812 132.696C43.4074 156.16 76.5677 156.16 87.8241 132.696C95.019 117.697 85.8639 105.11 76.9093 97.195C76.7608 97.0613 65.9424 91.9972 65.7717 91.9972C53.2456 91.069 53.2456 91.069 44.9815 94.8188C44.885 94.8634 34.1335 101.821 31.1783 110.672C28.8023 117.815 29.916 127.468 32.3663 132.681" fill="#FAFAFA"/>
<path d="M34.8908 132.696C48.1668 156.219 84.3417 151.467 88.6557 125.627C92.4722 102.697 64.6876 84.2599 44.9295 96.5638C31.0298 105.244 28.8988 122.077 34.8908 132.696Z" fill="#91AEC7"/>
<path d="M37.497 132.696C50.9735 155.024 83.4582 146.923 87.3786 125.627C91.1802 105.021 65.9944 84.9208 44.8775 98.2791C36.3684 103.663 29.4483 119.36 37.497 132.696Z" fill="#91AEC7"/>
<path d="M37.7866 128.382C45.4195 145.423 58.9109 144.658 67.8209 144.153C67.9695 144.153 83.2428 139.765 86.2128 125.627C89.3388 110.776 77.028 101.479 76.9018 101.405C69.5361 96.8831 59.4603 90.6012 44.8404 100.002C44.6919 100.098 30.2427 111.548 37.7866 128.382Z" fill="#91AEC7"/>
<path d="M81.2678 183.887C82.8667 183.887 84.4507 183.84 86.0198 183.745C83.7923 183.864 80.0798 183.879 78.7804 183.849H78.9586C79.7011 183.849 80.4882 183.849 81.2529 183.849" fill="#858585"/>
<path d="M38.195 125.627C42.7243 140.173 58.2427 143.069 58.3837 143.091C69.5213 144.896 78.5873 137.894 81.9435 132.696C89.1309 121.639 83.176 110.783 83.1018 110.687C76.9687 102.474 76.9687 102.474 65.69 96.8163C62.8165 95.3758 58.1239 95.8955 54.9979 96.5935C51.2693 97.5522 47.7918 99.3049 44.8033 101.732C43.994 102.422 42.3011 103.856 38.3435 110.687C38.3435 110.746 36.0417 118.773 38.1727 125.627" fill="#91AEC7"/>
<path d="M39.6057 125.627C44.3503 139.089 57.9159 141.525 58.0421 141.525C68.7714 141.525 68.7714 141.525 77.3473 136.275C80.6737 134.225 83.9111 125.709 83.9333 125.627C87.5939 111.645 75.1495 102.965 75.0233 102.89C67.7022 98.5538 58.5916 93.1481 45.568 102.89C38.6627 108.088 37.1332 118.484 39.628 125.627" fill="#91AEC7"/>
<path d="M40.9942 125.627C42.5078 129.196 44.8282 132.365 47.7733 134.886C48.449 135.458 57.3813 140.002 57.8417 140.002C60.7003 140.002 64.6207 140.745 67.3754 140.002C67.5017 139.965 76.4489 135.161 77.2508 134.693C79.1664 133.587 82.6711 125.716 82.6933 125.642C84.4011 119.701 84.0893 110.939 72.9368 102.905C70.9246 101.42 68.1402 99.081 65.6603 98.9622C55.6587 98.487 55.6587 98.487 49.5924 101.799C43.8677 104.917 36.4649 114.155 40.9942 125.642" fill="#91AEC7"/>
<path d="M42.4198 125.627C43.5777 128.291 45.2594 130.695 47.3649 132.696C50.0379 134.983 54.3964 136.928 57.5075 138.569C60.0915 139.936 64.3312 138.748 67.2566 138.748C70.6944 138.748 74.6817 135.399 77.2137 133.067C77.726 132.599 81.4979 125.679 81.5128 125.642C84.7204 115.313 76.9835 107.501 76.9018 107.427C75.1792 105.764 68.259 100.908 65.6528 100.002C62.6011 98.9771 58.0496 99.2592 54.931 100.054C48.5678 101.672 36.6357 112.328 42.4198 125.605" fill="#91AEC7"/>
<path d="M43.8677 125.627C46.615 131.797 51.1443 134.129 57.411 137.359C60.0098 138.696 64.2272 137.611 67.1527 137.611C70.0782 137.611 73.3972 134.641 75.5579 132.696C77.6765 130.741 79.3132 128.321 80.3396 125.627C83.3691 116.13 76.9761 108.994 76.9093 108.927C76.8424 108.86 68.8531 102.244 65.6454 101.101C62.6086 100.031 58.0347 100.432 54.9236 101.242C54.7232 101.294 36.7248 109.588 43.8677 125.627Z" fill="#91AEC7"/>
<path d="M45.3304 125.627C46.318 127.803 49.1692 132.057 57.2105 136.067C59.8539 137.389 64.0861 136.461 67.0413 136.461C67.123 136.461 77.2062 131.723 79.159 125.627C82.129 116.397 76.9315 110.494 76.9315 110.442C76.9315 110.39 67.0784 102.705 65.6454 102.177C62.6234 101.071 58.0273 101.598 54.9162 102.415C53.5945 102.764 45.6349 110.628 45.6052 110.687C44.1202 114.311 42.2565 118.818 45.3304 125.627Z" fill="#91AEC7"/>
<path d="M45.865 122.233C46.1249 123.258 46.0878 124.84 46.7932 125.627C52.3026 131.82 54.5895 134.381 57.0323 134.768C60.0024 135.243 64.1604 136.342 66.9448 135.295C71.6968 133.513 77.0503 127.29 77.0949 127.231C80.503 122.902 78.5799 113.865 75.5653 110.687C73.0185 107.992 69.1575 104.494 65.6454 103.262C62.1152 102.277 58.3666 102.412 54.9162 103.648C51.9462 104.813 48.449 107.813 47.0605 110.65C44.3429 116.234 44.9815 118.736 45.865 122.196" fill="#91AEC7"/>
<path d="M48.2262 125.627C48.2262 125.679 54.3148 132.31 56.8542 133.461C59.594 134.708 63.8486 134.129 66.8483 134.129C67.8507 134.129 75.7584 127.298 76.7311 125.627C79.2333 121.172 77.2582 113.813 73.9541 110.687C71.7266 108.556 68.6229 105.393 65.6454 104.502C62.0993 103.606 58.3666 103.787 54.9237 105.021C52.5476 105.987 49.3252 108.251 48.5381 110.687C45.8428 118.981 45.2785 120.711 48.2262 125.627Z" fill="#91AEC7"/>
<path d="M49.6741 125.627C51.1591 128.04 54.0549 130.943 56.676 132.065C56.869 132.146 66.0093 132.948 66.7592 132.948C66.9448 132.948 74.8674 125.968 75.0604 125.627C76.1964 123.681 76.9835 120.496 76.5454 118.283C75.8654 115.408 74.4002 112.778 72.3131 110.687C70.5088 108.957 68.0512 106.306 65.6306 105.704C62.0694 104.909 58.356 105.133 54.9162 106.351C50.1122 108.333 44.5211 117.489 49.6518 125.657" fill="#91AEC7"/>
<path d="M51.1368 125.627C52.3248 127.468 54.4558 129.778 56.4977 130.565C59.3564 131.671 63.7446 132.584 66.6552 131.641C69.2391 130.802 71.9641 127.929 73.4046 125.627C74.6075 123.719 75.1643 120.54 75.0752 118.283C74.9936 116.263 69.6921 108.073 65.6677 106.893C62.5714 105.994 58.0718 106.841 54.9607 107.635C53.6391 107.992 52.3694 109.566 51.5304 110.65C51.471 110.724 46.1175 117.8 51.1368 125.59" fill="#91AEC7"/>
<path d="M52.6219 125.627C53.4535 126.889 54.8494 128.597 56.3344 129.05C59.2673 130.03 63.6258 131.218 66.5736 130.283C72.0755 128.538 73.6571 120.073 73.5902 118.283C73.4789 115.655 70.7984 112.773 69.1872 110.687C68.288 109.508 67.0764 108.605 65.69 108.081C62.6011 107.197 58.1535 108.341 55.0053 108.987C54.2628 109.142 53.5203 110.071 53.0599 110.687C51.5749 112.647 50.2161 115.84 50.1493 118.283C50.0825 120.607 51.3522 123.689 52.6367 125.627" fill="#91AEC7"/>
<path d="M54.1143 125.627C54.5821 126.325 55.3469 127.305 56.1562 127.52C59.1708 128.33 63.4847 129.844 66.4696 128.916C68.03 128.274 69.3205 127.112 70.1227 125.627C71.1845 123.607 72.3874 120.54 72.0755 118.283C71.7265 115.662 69.1055 112.848 67.6205 110.687C67.11 110.065 66.4548 109.578 65.7122 109.269C65.638 109.232 55.3172 109.736 54.5747 110.687C53.1416 112.684 51.5378 115.818 51.4636 118.283C51.3893 120.622 52.8075 123.681 54.1143 125.627Z" fill="#91AEC7"/>
<path d="M55.6216 125.627C56.2082 126.488 66.3062 127.565 66.3805 127.543C67.2976 127.189 68.0496 126.506 68.4892 125.627C69.4396 123.54 70.8875 120.555 70.5979 118.283C70.5979 118.216 66.2691 110.65 65.7122 110.449C65.0291 110.204 55.7107 112.231 55.1092 112.751C53.6494 114.225 52.8211 116.209 52.8 118.283C52.8966 120.637 54.2851 123.681 55.6216 125.627Z" fill="#91AEC7"/>
<path d="M55.6736 122.285C57.0472 123.77 65.1108 126.518 66.2988 126.154C67.4868 125.79 69.1278 118.35 69.1203 118.283C68.8827 116.353 67.5685 113.471 65.7642 112.751C62.7274 111.533 57.6932 113.494 55.2429 115.662C53.7579 116.984 54.3222 120.86 55.6736 122.285Z" fill="#91AEC7"/>
<path d="M66.1355 123.124C67.5314 122.516 67.8358 119.79 67.6205 118.283C67.4943 117.236 66.7815 115.669 65.8014 115.313C62.9501 114.229 58.9926 117.392 56.082 118.283C59.052 119.768 63.0467 124.461 66.1058 123.124" fill="#91AEC7"/>
<path d="M65.9573 119.033C66.1726 118.944 66.2246 118.513 66.1949 118.291C66.1848 118.198 66.1543 118.108 66.1055 118.029C66.0567 117.949 65.9909 117.881 65.9127 117.83C65.4598 117.659 64.8435 118.149 64.3832 118.291C64.851 118.513 65.4747 119.248 65.9573 119.033Z" fill="#91AEC7"/>
<path d="M105.31 25.5102C97.5231 23.103 89.4183 21.8814 81.2678 21.8866C89.4184 21.8791 97.5237 23.1007 105.31 25.5102Z" fill="#91AEC7"/>
<path d="M134.929 42.2099C133.058 40.5515 131.117 38.9873 129.107 37.517C122.337 32.5508 114.835 28.6702 106.869 26.0151L106.424 25.8666C116.942 29.3057 126.644 34.8655 134.929 42.2025" fill="#91AEC7"/>
<path d="M134.929 42.2099C126.647 34.8712 116.948 29.3088 106.431 25.8666C116.95 29.3057 126.651 34.8655 134.936 42.2025" fill="white"/>
<path d="M155.043 69.4091C154.471 68.1468 153.863 66.9068 153.231 65.6964C149.397 58.2973 144.443 51.5347 138.545 45.6478C137.639 44.7469 136.716 43.8657 135.775 43.0044C143.919 50.4105 150.474 59.3937 155.043 69.4091Z" fill="#91AEC7"/>
<path d="M162.26 101.836C162.21 97.786 161.86 93.7454 161.213 89.7473C160.523 85.5186 159.495 81.352 158.139 77.2875C157.397 74.9559 156.484 72.6763 155.511 70.4413C159.843 80.3477 162.138 91.0243 162.26 101.836Z" fill="#91AEC7"/>
<path d="M155.511 70.4412L155.043 69.4091L155.511 70.4561" fill="white"/>
<path d="M154.419 137.723C159.055 128.015 161.693 117.476 162.179 106.729C161.69 117.475 159.051 128.014 154.419 137.723Z" fill="#91AEC7"/>
<path d="M133.83 164.521C135.453 163.13 137.025 161.677 138.545 160.162C144.441 154.274 149.395 147.512 153.231 140.114C153.462 139.668 153.692 139.215 153.915 138.762C149.042 148.616 142.222 157.378 133.867 164.521" fill="#91AEC7"/>
<path d="M103.877 180.686C104.887 180.397 105.882 180.085 106.847 179.758C110.389 178.421 115.015 176.454 118.475 174.842C122.177 172.925 125.724 170.723 129.085 168.256C130.399 167.298 131.677 166.296 132.924 165.286C124.396 172.369 114.501 177.619 103.855 180.708" fill="#91AEC7"/>
<path d="M81.2678 183.887C85.2253 183.723 90.4823 183.307 94.4101 182.825C97.2227 182.369 100.009 181.761 102.756 181.005C95.7544 182.923 88.5271 183.893 81.2678 183.887Z" fill="#91AEC7"/>
<path d="M103.06 25.5101H105.288C97.5088 23.1017 89.4111 21.8801 81.2678 21.8866C88.6821 21.8837 96.0458 23.1081 103.06 25.5101Z" fill="#91AEC7"/>
<path d="M105.303 25.5101C97.5186 23.1014 89.416 21.8798 81.2678 21.8866C89.4161 21.8786 97.5189 23.1002 105.303 25.5101Z" fill="white"/>
<path d="M97.0609 25.5101H102.919C95.9534 23.1083 88.6361 21.8836 81.2678 21.8865C86.736 21.9054 92.1313 23.1433 97.0609 25.5101Z" fill="#91AEC7"/>
<path d="M102.919 25.5101H103.06C96.0458 23.1081 88.6821 21.8837 81.2678 21.8865C88.6361 21.8836 95.9534 23.1083 102.919 25.5101Z" fill="white"/>
<path d="M88.277 25.5101H96.7787C91.9471 23.15 86.6449 21.9113 81.2678 21.8866C83.7106 21.8866 86.0644 23.1563 88.277 25.5101Z" fill="#91AEC7"/>
<path d="M96.7787 25.5101H97.0312C92.1106 23.1476 86.726 21.9099 81.2678 21.8866C86.6449 21.9113 91.9471 23.15 96.7787 25.5101Z" fill="white"/>
<path d="M88.277 25.5101C86.0495 23.1563 83.7106 21.8866 81.2678 21.8866C83.7106 21.8866 86.0644 23.1563 88.277 25.5101Z" fill="white"/>
<path d="M77.8226 25.5101H87.9429C85.8342 23.1563 83.5918 21.8866 81.2604 21.8866C80.0649 21.8866 78.9066 23.1563 77.8151 25.5101" fill="#91AEC7"/>
<path d="M87.9429 25.5101H88.277C86.0495 23.1563 83.7106 21.8866 81.2678 21.8866C83.5918 21.8866 85.8342 23.1563 87.9503 25.5101" fill="white"/>
<path d="M77.8225 25.5101C78.914 23.1563 80.05 21.8866 81.2677 21.8866C80.0723 21.8866 78.914 23.1563 77.8225 25.5101Z" fill="white"/>
<path d="M68.3259 25.5101H77.4735C78.669 23.1563 79.9461 21.8866 81.2603 21.8866C76.7042 21.9288 72.2409 23.1792 68.3259 25.5101Z" fill="#91AEC7"/>
<path d="M77.4736 25.5101H77.8151C78.9066 23.1563 80.0426 21.8866 81.2604 21.8866C79.9461 21.8866 78.669 23.1563 77.4736 25.5101Z" fill="white"/>
<path d="M61.2201 25.5101H68.0437C72.0617 23.173 76.6197 21.924 81.2678 21.8866C74.4225 21.8884 67.6329 23.1156 61.2201 25.5101Z" fill="#91AEC7"/>
<path d="M68.0437 25.5101H68.3259C72.243 23.1779 76.7091 21.9274 81.2677 21.8866C76.6197 21.924 72.0617 23.173 68.0437 25.5101Z" fill="white"/>
<path d="M57.5298 25.5101H61.0419C67.5163 23.1146 74.3645 21.8877 81.2678 21.8866C73.2094 21.8778 65.197 23.0998 57.5076 25.5101" fill="#91AEC7"/>
<path d="M61.0419 25.5101H61.2201C67.6329 23.1156 74.4225 21.8884 81.2677 21.8866C74.3645 21.8877 67.5162 23.1146 61.0419 25.5101Z" fill="white"/>
<path d="M57.5298 25.5101C66.9225 22.9707 70.1525 22.2281 81.29 21.8866C73.2317 21.8778 65.2193 23.0998 57.5298 25.5101Z" fill="white"/>
<path d="M57.2328 25.5101H57.4779C65.1686 23.1054 73.1802 21.8836 81.2381 21.8866C73.0998 21.8827 65.0074 23.1042 57.2328 25.5101Z" fill="#91AEC7"/>
<path d="M57.4778 25.5101H57.5298C66.9225 22.9707 70.1524 22.2281 81.29 21.8865C73.2321 21.8836 65.2206 23.1054 57.5298 25.5101" fill="white"/>
<path d="M129.909 42.2099H134.914C126.638 34.8703 116.944 29.3078 106.431 25.8666H104.085C113.769 29.3978 122.581 34.9689 129.924 42.2025" fill="#91AEC7"/>
<path d="M104.07 25.8666H106.431C116.948 29.3037 126.648 34.8638 134.929 42.2025C126.646 34.8664 116.947 29.3066 106.431 25.8666L105.318 25.5101H103.09L104.1 25.8666" fill="white"/>
<path d="M116.507 42.2099H129.583C122.3 34.9823 113.545 29.4103 103.914 25.874H97.7885C104.775 29.3491 111.154 34.9627 116.507 42.2099Z" fill="#91AEC7"/>
<path d="M116.507 42.2099C111.131 34.9553 104.775 29.3417 97.7885 25.874C104.775 29.3491 111.154 34.9627 116.507 42.2099Z" fill="white"/>
<path d="M97.7885 25.8666H103.914C113.545 29.4029 122.3 34.9748 129.583 42.2025H129.909C122.31 34.7138 113.138 29.0116 103.06 25.5101H97.0609L97.8034 25.8666" fill="white"/>
<path d="M96.9049 42.2099H115.943C110.649 34.9553 104.397 29.312 97.5212 25.8666H88.6111C91.7148 29.3417 94.5512 34.9553 96.9198 42.2025" fill="#91AEC7"/>
<path d="M96.9049 42.2099C94.5512 34.9553 91.7 29.312 88.6111 25.8666C91.7148 29.3417 94.5512 34.9553 96.9198 42.2025" fill="white"/>
<path d="M88.6112 25.8666H97.5212C104.397 29.3417 110.649 34.9553 115.943 42.2025H116.507C110.946 34.6954 104.337 28.9481 97.0609 25.5027H88.277L88.5963 25.8591" fill="white"/>
<path d="M73.5828 42.2099H96.155C93.8829 34.9553 91.2025 29.3417 88.2473 25.874H77.6666C76.137 29.3491 74.756 34.9627 73.5828 42.2099Z" fill="#91AEC7"/>
<path d="M73.5828 42.2099C74.756 34.9553 76.137 29.3417 77.6666 25.874C76.137 29.3491 74.756 34.9627 73.5828 42.2099Z" fill="white"/>
<path d="M77.6666 25.8666H88.2473C91.2174 29.3417 93.883 34.9553 96.155 42.2025H96.8975C94.425 34.6954 91.4995 28.9481 88.2696 25.5027H77.8226L77.6666 25.8591" fill="white"/>
<path d="M52.3694 42.2099H72.8032C74.0952 34.9553 75.6247 29.3417 77.3028 25.874H67.7245C61.9923 29.312 56.7874 34.9553 52.3694 42.2099Z" fill="#91AEC7"/>
<path d="M52.3694 42.2099C56.8245 34.9553 62.022 29.3417 67.7245 25.874C61.9923 29.312 56.7874 34.9553 52.3694 42.2099Z" fill="white"/>
<path d="M67.7244 25.8666H77.3028C75.6247 29.3417 74.0951 34.9553 72.8032 42.2025H73.5828C74.7931 34.6954 76.2335 28.9481 77.8225 25.5027H68.3259L67.7244 25.8591" fill="white"/>
<path d="M36.5244 42.2099H51.7383C56.2527 34.9553 61.5765 29.312 67.4275 25.8666H60.2994C51.2682 29.4867 43.1531 35.0661 36.5392 42.2025" fill="#91AEC7"/>
<path d="M36.5244 42.2099C41.9669 36.8636 48.1371 30.8045 60.2846 25.874C51.2534 29.4941 43.1382 35.0735 36.5244 42.2099Z" fill="white"/>
<path d="M60.2994 25.8666H67.4274C61.5765 29.3417 56.2898 34.9553 51.7383 42.2025H52.3694C56.9358 34.7028 62.3561 28.9555 68.3259 25.5101H61.2201L60.2994 25.8666Z" fill="white"/>
<path d="M28.2899 42.2099H36.1159C42.8089 35.0604 51.0018 29.4816 60.1063 25.874H56.4383C46.0306 29.3224 36.4475 34.884 28.2899 42.2099Z" fill="#91AEC7"/>
<path d="M56.4384 25.8666H60.1063C51.0018 29.4742 42.8089 35.053 36.116 42.2025H36.5243C43.3652 34.8156 51.8156 29.1038 61.2201 25.5101H57.5076L56.4161 25.8666" fill="white"/>
<path d="M27.6217 42.2099H28.1712C36.3527 34.8819 45.958 29.3207 56.3864 25.874H56.1339C45.6155 29.3131 35.914 34.873 27.6291 42.2099" fill="#91AEC7"/>
<path d="M56.1265 25.8666H56.3789C45.9505 29.3133 36.3452 34.8745 28.1637 42.2025H28.2825C36.73 34.6166 46.7021 28.9252 57.5298 25.5101H57.2328L56.1265 25.8666Z" fill="white"/>
<path d="M148.145 69.4091H155.028C150.467 59.3788 143.911 50.3822 135.76 42.9673H130.674C138.176 50.5498 144.112 59.5345 148.145 69.4091Z" fill="#91AEC7"/>
<path d="M130.674 42.9673H135.76C143.911 50.3822 150.467 59.3788 155.028 69.4091C150.462 59.3857 143.907 50.3948 135.76 42.9821L134.914 42.2396H129.895C130.154 42.4846 130.407 42.7371 130.637 42.9821" fill="white"/>
<path d="M129.724 69.4091H147.7C143.699 59.5502 137.804 50.5717 130.347 42.9821H117.064C122.724 51.0261 127.002 59.9576 129.724 69.4091Z" fill="#91AEC7"/>
<path d="M117.064 42.9673H130.347C137.805 50.5612 143.701 59.5449 147.7 69.4091H148.145C143.978 59.2021 137.773 49.9521 129.909 42.2247H116.507C116.7 42.4673 116.886 42.7148 117.064 42.9673Z" fill="white"/>
<path d="M102.763 69.4091H128.944C126.273 59.9761 122.066 51.0476 116.492 42.9821H97.15C99.7882 51.6105 101.666 60.4533 102.763 69.4091Z" fill="#91AEC7"/>
<path d="M97.15 42.9673H116.492C122.067 51.0373 126.274 59.971 128.944 69.4091H129.724C126.923 59.6517 122.451 50.454 116.507 42.2247H96.905C96.9891 42.4673 97.0708 42.7148 97.15 42.9673Z" fill="white"/>
<path d="M70.6945 69.4091H101.739C100.695 60.4667 98.907 51.627 96.3926 42.9821H73.4566C72.276 50.3258 71.3553 59.3106 70.6945 69.4091Z" fill="#91AEC7"/>
<path d="M73.4566 42.9673H96.3926C98.9079 51.617 100.696 60.4617 101.739 69.4091H102.763C101.643 60.188 99.6822 51.0887 96.905 42.2247H73.5828C73.5383 42.4698 73.5012 42.7222 73.4566 42.9673Z" fill="white"/>
<path d="M41.5363 69.4091H69.6327C70.3752 59.3254 71.3924 50.3407 72.6695 42.9821H51.9165C47.1911 51.2401 43.6943 60.1426 41.5363 69.4091Z" fill="#91AEC7"/>
<path d="M51.9165 42.9673H72.7067C71.4296 50.3258 70.3901 59.3032 69.6698 69.3943H70.7316C71.4147 58.9542 72.4022 49.7095 73.62 42.2099H52.3694C52.2209 42.4549 52.065 42.7074 51.9165 42.9524" fill="white"/>
<path d="M19.7511 69.4091H40.6675C42.8781 60.1192 46.4538 51.2084 51.2779 42.9673H35.8189C28.8364 50.6837 23.3837 59.6568 19.7511 69.4091Z" fill="#91AEC7"/>
<path d="M35.819 42.9673H51.278C46.4539 51.2084 42.8782 60.1192 40.6676 69.4091H41.5363C44.0608 58.9542 47.7733 49.7095 52.3695 42.2099H36.5244C36.2868 42.4549 36.0492 42.7074 35.7819 42.9524" fill="white"/>
<path d="M8.42047 69.4091H19.1794C22.8581 59.6443 28.3643 50.6702 35.4031 42.9673H27.4509C19.3855 50.4043 12.9116 59.3994 8.42047 69.4091Z" fill="#91AEC7"/>
<path d="M27.4509 42.9673H35.4031C28.3643 50.6702 22.8581 59.6443 19.1794 69.4091H19.7511C23.502 59.3292 29.2015 50.0869 36.5243 42.2099H28.2899C28.0078 42.4549 27.7256 42.7074 27.4509 42.9524" fill="white"/>
<path d="M7.51465 69.4091H8.25715C12.7645 59.3973 19.2533 50.4024 27.3321 42.9673H26.7753C18.6269 50.3825 12.0736 59.3792 7.51465 69.4091Z" fill="#91AEC7"/>
<path d="M26.7752 42.9673H27.3321C19.2533 50.4024 12.7645 59.3973 8.25714 69.4091H8.42049C13.0658 59.0512 19.8352 49.7847 28.29 42.2099H27.6217C27.3396 42.4524 27.0574 42.7 26.7752 42.9524" fill="white"/>
<path d="M154.694 101.836H162.253C162.125 91.0242 159.827 80.3483 155.496 70.4413H148.569C152.514 80.4431 154.591 91.0843 154.694 101.836Z" fill="#91AEC7"/>
<path d="M148.568 70.4412H155.496C159.827 80.3483 162.125 91.0242 162.253 101.836C162.131 91.0243 159.836 80.3477 155.504 70.4412L155.043 69.4091H148.145C148.286 69.7581 148.435 70.1071 148.568 70.4561" fill="white"/>
<path d="M134.468 101.836H154.204C154.101 91.0885 152.04 80.4499 148.123 70.4413H130.028C132.923 80.6571 134.422 91.2179 134.483 101.836" fill="#91AEC7"/>
<path d="M130.028 70.4412H148.123C152.04 80.4499 154.101 91.0885 154.204 101.836H154.694C154.588 90.7093 152.366 79.7046 148.145 69.4091H129.724C129.828 69.7581 129.932 70.1071 130.028 70.4561" fill="white"/>
<path d="M104.872 101.836H133.607C133.556 91.2233 132.088 80.665 129.241 70.4413H102.904C104.196 80.8566 104.853 91.3408 104.872 101.836Z" fill="#91AEC7"/>
<path d="M102.904 70.4412H129.241C132.088 80.665 133.556 91.2233 133.607 101.836H134.468C134.412 90.8581 132.815 79.9427 129.724 69.4091H102.763C102.815 69.7581 102.86 70.1071 102.904 70.4561" fill="white"/>
<path d="M69.6624 101.836H103.743C103.729 91.3436 103.104 80.861 101.872 70.4413H70.6277C70.0262 80.0943 69.6773 90.6829 69.6624 101.836Z" fill="#91AEC7"/>
<path d="M69.6624 101.836C69.6624 90.6978 70.0262 80.072 70.6277 70.4413C70.0262 80.0943 69.6773 90.6829 69.6624 101.836Z" fill="white"/>
<path d="M70.6276 70.4412H101.872C103.104 80.861 103.728 91.3436 103.743 101.836H104.872C104.856 90.9932 104.152 80.1625 102.763 69.4091H70.6945L70.6276 70.4561" fill="white"/>
<path d="M37.6455 101.836H68.4892C68.4892 90.6978 68.8902 80.072 69.5584 70.4413H41.2838C38.9024 80.7374 37.682 91.2679 37.6455 101.836Z" fill="#91AEC7"/>
<path d="M41.2838 70.4413H69.5584C68.8902 80.0943 68.5115 90.6829 68.4892 101.836H69.6624C69.6624 90.2745 70.0485 79.2998 70.6945 69.3943H41.5363C41.4472 69.7433 41.3655 70.0923 41.2838 70.4413Z" fill="white"/>
<path d="M13.722 101.836H36.6951C36.733 91.2637 37.9786 80.7306 40.4077 70.4413H19.3576C15.7122 80.5108 13.8065 91.1271 13.722 101.836Z" fill="#91AEC7"/>
<path d="M19.3576 70.4412H40.4077C37.9786 80.7306 36.733 91.2637 36.6951 101.836H37.6455C37.6836 90.9128 38.9892 80.0311 41.5363 69.4091H19.7511C19.6175 69.7581 19.4838 70.1071 19.3576 70.4561" fill="white"/>
<path d="M1.29244 101.836H13.1057C13.1998 91.1215 15.1311 80.5026 18.8156 70.4413H7.96014C3.67403 80.3598 1.40249 91.0315 1.27759 101.836" fill="#91AEC7"/>
<path d="M7.96014 70.4412H18.8156C15.1412 80.5044 13.22 91.1232 13.1354 101.836H13.7517C13.8299 90.7583 15.8609 79.7813 19.7511 69.4091H8.4205C8.26457 69.7581 8.10865 70.1071 7.96014 70.4561" fill="white"/>
<path d="M0.290039 101.836H1.11422C1.23576 91.0311 3.50745 80.3588 7.79678 70.4413H7.05427C2.72061 80.3477 0.420391 91.0237 0.290039 101.836Z" fill="#91AEC7"/>
<path d="M7.03941 70.4412H7.78192C3.49259 80.3588 1.2209 91.0311 1.09937 101.836H1.29242C1.41717 90.6522 3.84359 79.614 8.42048 69.4091H7.51462C7.35127 69.7581 7.19534 70.1071 7.03941 70.4561" fill="white"/>
<path d="M147.581 137.723H154.405C159.037 128.014 161.675 117.475 162.164 106.729H154.62C154.189 117.404 151.803 127.909 147.581 137.723Z" fill="#91AEC7"/>
<path d="M129.315 137.723H147.136C151.333 127.903 153.703 117.4 154.13 106.729H134.409C134.127 117.244 132.414 127.671 129.315 137.723Z" fill="#91AEC7"/>
<path d="M147.135 137.723H147.581C151.803 127.909 154.189 117.404 154.62 106.729H154.13C153.703 117.4 151.333 127.903 147.135 137.723Z" fill="white"/>
<path d="M102.585 137.723H128.573C131.624 127.663 133.313 117.238 133.592 106.729H104.85C104.731 117.097 103.974 127.448 102.585 137.723Z" fill="#91AEC7"/>
<path d="M128.536 137.723H129.278C132.377 127.671 134.09 117.244 134.372 106.729H133.518C133.25 117.237 131.575 127.661 128.536 137.723Z" fill="white"/>
<path d="M70.791 137.723H101.575C102.903 127.443 103.622 117.094 103.729 106.729H69.6698C69.7441 117.786 70.1376 128.263 70.7836 137.723" fill="#91AEC7"/>
<path d="M101.568 137.723H102.585C103.974 127.448 104.731 117.097 104.85 106.729H103.721C103.614 117.094 102.895 127.443 101.568 137.723Z" fill="white"/>
<path d="M41.8704 137.723H69.7292C68.9867 128.263 68.5857 117.786 68.5041 106.729H37.6901C37.9149 117.185 39.3171 127.581 41.8704 137.723Z" fill="#91AEC7"/>
<path d="M69.7292 137.723H70.791C70.145 128.263 69.7515 117.786 69.6773 106.729H68.5041C68.5858 117.786 69.0164 128.263 69.7292 137.723Z" fill="white"/>
<path d="M20.3006 137.723H41.0091C38.4031 127.589 36.9706 117.19 36.7396 106.729H13.7962C14.1875 117.355 16.3871 127.836 20.3006 137.723Z" fill="#91AEC7"/>
<path d="M41.0091 137.723H41.8704C39.3172 127.581 37.9149 117.185 37.6901 106.729H36.7397C36.9706 117.19 38.4032 127.589 41.0091 137.723Z" fill="white"/>
<path d="M9.03675 137.723H19.7066C15.7689 127.842 13.5587 117.358 13.1725 106.729H1.37408C1.85188 117.466 4.45645 128.001 9.03675 137.723Z" fill="#91AEC7"/>
<path d="M19.7065 137.723H20.3005C16.3998 127.834 14.2127 117.353 13.8333 106.729H13.1725C13.5587 117.358 15.7689 127.842 19.7065 137.723Z" fill="white"/>
<path d="M8.13089 137.723H8.8734C4.28403 128 1.67423 117.462 1.19589 106.722H0.371704C0.863189 117.47 3.50143 128.011 8.13089 137.723Z" fill="#91AEC7"/>
<path d="M8.87338 137.723H9.03673C4.45548 127.998 1.85088 117.461 1.37406 106.722H1.19586C1.6742 117.462 4.28401 128 8.87338 137.723Z" fill="white"/>
<path d="M128.914 164.521H133.815C142.186 157.384 149.019 148.621 153.9 138.762H147.121C142.808 148.464 136.62 157.218 128.914 164.521Z" fill="#91AEC7"/>
<path d="M147.121 138.762H153.9C149.019 148.621 142.186 157.384 133.815 164.521C142.17 157.378 148.99 148.616 153.863 138.762C154.033 138.413 154.204 138.072 154.368 137.715H147.529C147.381 138.072 147.225 138.413 147.069 138.762" fill="white"/>
<path d="M115.787 164.521H128.595C136.258 157.207 142.404 148.454 146.683 138.762H128.981C126.078 148.036 121.616 156.746 115.787 164.521Z" fill="#91AEC7"/>
<path d="M128.981 138.762H146.683C142.404 148.454 136.258 157.207 128.595 164.521H128.914C136.896 156.952 143.248 147.833 147.581 137.723H129.315L128.981 138.77" fill="white"/>
<path d="M96.5857 164.521H115.23C120.973 156.725 125.361 148.017 128.209 138.762H102.437C101.271 147.508 99.3122 156.13 96.5857 164.521Z" fill="#91AEC7"/>
<path d="M102.437 138.762H128.209C125.361 148.017 120.973 156.725 115.23 164.521H115.787C121.828 156.448 126.407 147.378 129.315 137.723H102.585C102.533 138.079 102.489 138.421 102.437 138.77" fill="white"/>
<path d="M73.761 164.521H95.8728C98.4761 156.113 100.342 147.494 101.449 138.762H70.8578C71.6003 148.668 72.5433 157.422 73.7387 164.521" fill="#91AEC7"/>
<path d="M73.761 164.521C72.5656 157.422 71.5855 148.668 70.8801 138.762C71.6226 148.668 72.5656 157.422 73.761 164.521Z" fill="white"/>
<path d="M70.8578 138.762H101.427C100.32 147.494 98.4539 156.113 95.8506 164.521H96.5931C99.4237 155.792 101.432 146.818 102.593 137.715H70.791C70.791 138.072 70.843 138.413 70.8653 138.762" fill="white"/>
<path d="M52.9708 164.521H73.0185C71.5225 155.995 70.4643 147.397 69.848 138.762H42.1451C44.8033 148.668 48.5158 157.422 52.9708 164.521Z" fill="#91AEC7"/>
<path d="M42.1451 138.762H69.8109C70.4395 147.398 71.5101 155.995 73.0185 164.521H73.761C72.521 157.17 71.5335 148.052 70.791 137.715H41.8704C41.9595 138.072 42.0486 138.413 42.1451 138.762Z" fill="white"/>
<path d="M37.4376 164.521H52.3472C47.7733 157.422 43.9866 148.668 41.2913 138.762H20.6867C24.578 148.338 30.2637 157.081 37.4376 164.521Z" fill="#91AEC7"/>
<path d="M37.4376 164.521C32.2995 158.841 26.4634 152.395 20.6867 138.762C24.578 148.338 30.2637 157.081 37.4376 164.521Z" fill="white"/>
<path d="M20.6867 138.762H41.2912C43.9865 148.668 47.7659 157.422 52.3472 164.521H52.9709C48.3302 157.17 44.536 148.052 41.8778 137.715H20.3006L20.7238 138.762" fill="white"/>
<path d="M29.374 164.521H37.0367C29.8045 157.096 24.0651 148.352 20.1298 138.762H9.53424C14.3411 148.6 21.09 157.362 29.374 164.521Z" fill="#91AEC7"/>
<path d="M9.53422 138.762H20.1298C24.065 148.352 29.8045 157.096 37.0367 164.521H37.4376C30.0173 156.803 24.1936 147.696 20.3006 137.723H9.03674C9.20009 138.079 9.36345 138.421 9.53422 138.77" fill="white"/>
<path d="M28.7206 164.521H29.2552C20.9578 157.366 14.1961 148.603 9.37831 138.762H8.6358C13.5054 148.618 20.3258 157.381 28.6835 164.521" fill="#91AEC7"/>
<path d="M8.64325 138.762H9.38576C14.2036 148.603 20.9652 157.366 29.2626 164.521H29.3814C20.7996 157.11 13.8686 147.981 9.03678 137.723H8.13092L8.64325 138.77" fill="white"/>
<path d="M101.768 180.686H103.877C114.52 177.595 124.413 172.345 132.939 165.264H128.12C120.555 172.25 111.564 177.512 101.768 180.686Z" fill="#91AEC7"/>
<path d="M128.12 165.264H132.939C124.413 172.345 114.52 177.595 103.877 180.686C114.523 177.597 124.419 172.347 132.946 165.264L133.83 164.521H128.914L128.12 165.264Z" fill="white"/>
<path d="M96.1179 180.686H101.627C111.37 177.506 120.303 172.243 127.808 165.264H115.185C109.654 172.251 103.179 177.56 96.0882 180.686" fill="#91AEC7"/>
<path d="M115.215 165.264H127.838C120.333 172.243 111.399 177.506 101.657 180.686H101.798C111.94 177.393 121.216 171.869 128.944 164.521H115.787C115.601 164.774 115.408 165.019 115.215 165.264Z" fill="white"/>
<path d="M87.8687 180.686H95.8877C102.86 177.56 109.253 172.251 114.673 165.264H96.3332C93.8829 172.251 91.0095 177.56 87.8687 180.686Z" fill="#91AEC7"/>
<path d="M96.3258 165.264H114.666C109.223 172.251 102.852 177.56 95.8803 180.686H96.1179C103.461 177.449 110.144 171.88 115.787 164.521H96.5857C96.4966 164.774 96.4149 165.019 96.3258 165.264Z" fill="white"/>
<path d="M78.0305 180.686H87.542C90.512 177.56 93.2741 172.251 95.613 165.264H73.865C75.0679 172.251 76.486 177.56 78.0305 180.686Z" fill="#91AEC7"/>
<path d="M78.0305 180.686C76.486 177.56 75.0604 172.251 73.865 165.264C75.0679 172.251 76.486 177.56 78.0305 180.686Z" fill="white"/>
<path d="M73.865 165.264H95.613C93.2741 172.251 90.5343 177.56 87.542 180.686H87.8687C91.1208 177.449 94.0834 171.872 96.5931 164.521H73.761C73.761 164.774 73.8427 165.019 73.8873 165.264" fill="white"/>
<path d="M69.0906 180.686H77.7037C76.0034 177.56 74.4441 172.251 73.115 165.264H53.4386C57.9753 172.251 63.2842 177.56 69.0906 180.686Z" fill="#91AEC7"/>
<path d="M69.0906 180.686C63.2842 177.56 57.953 172.251 53.4386 165.264C57.9753 172.251 63.2842 177.56 69.0906 180.686Z" fill="white"/>
<path d="M53.4386 165.264H73.115C74.4441 172.251 76.0034 177.56 77.7037 180.686H78.0304C76.4266 177.449 74.9713 171.872 73.7387 164.521H52.9708C53.1268 164.774 53.2827 165.019 53.446 165.264" fill="white"/>
<path d="M62.4156 180.686H68.8308C62.8908 177.56 57.463 172.251 52.8298 165.264H38.1727C44.992 172.161 53.2783 177.433 62.4156 180.686Z" fill="#91AEC7"/>
<path d="M62.4156 180.686C55.733 178.02 48.1669 174.991 38.1727 165.264C44.992 172.161 53.2783 177.433 62.4156 180.686Z" fill="white"/>
<path d="M38.1727 165.264H52.8298C57.463 172.251 62.8907 177.56 68.8308 180.686H69.0907C63.0764 177.449 57.6041 171.88 52.9709 164.521H37.4376L38.1801 165.264" fill="white"/>
<path d="M58.948 180.686H62.2447C53.0375 177.442 44.6766 172.172 37.7792 165.264H30.2353C38.6376 172.334 48.4142 177.585 58.948 180.686Z" fill="#91AEC7"/>
<path d="M30.2353 165.264H37.7792C44.6766 172.172 53.0376 177.442 62.2448 180.686H62.4155C52.9503 177.305 44.3996 171.771 37.4376 164.521H29.374C29.6562 164.774 29.9458 165.019 30.2353 165.264Z" fill="white"/>
<path d="M58.6659 180.686H58.9109C48.3582 177.587 38.5617 172.336 30.1388 165.264H29.619C38.1437 172.347 48.0367 177.597 58.6807 180.686" fill="#91AEC7"/>
<path d="M29.6042 165.264H30.124C38.5513 172.338 48.353 177.589 58.9109 180.686H58.9629C48.0623 177.475 37.9774 171.963 29.3889 164.521H28.7355L29.6191 165.264" fill="white"/>
<path d="M81.2677 183.887C88.5148 183.89 95.7295 182.921 102.719 181.005H100.714C94.3993 182.92 87.8365 183.89 81.238 183.887" fill="#91AEC7"/>
<path d="M69.2095 182.825C88.0172 183.887 94.5438 182.884 100.744 181.005H102.719C95.72 182.924 88.495 183.893 81.2381 183.887C88.4975 183.892 95.7248 182.923 102.726 181.005L103.847 180.686H101.739C95.1129 182.811 88.1964 183.891 81.2381 183.887" fill="white"/>
<path d="M81.2678 183.887C87.8247 183.889 94.3458 182.919 100.617 181.005H95.4199C90.9563 182.896 86.1598 183.876 81.3123 183.887" fill="#91AEC7"/>
<path d="M72.5359 182.825C86.1535 183.887 90.8906 182.884 95.3828 181.005H100.58C94.3086 182.918 87.7876 183.889 81.2306 183.887C88.1889 183.891 95.1054 182.811 101.731 180.686H96.0808C91.4106 182.785 86.3506 183.875 81.2306 183.887" fill="white"/>
<path d="M81.2678 183.887C86.0433 183.876 90.767 182.896 95.1526 181.005H87.5271C85.5372 182.884 83.4359 183.887 81.2678 183.887Z" fill="#91AEC7"/>
<path d="M77.3918 182.825C83.4358 183.887 85.5594 182.884 87.5271 181.005H95.1526C90.767 182.896 86.0433 183.876 81.2677 183.887C86.3877 183.875 91.4477 182.785 96.1179 180.686H87.8686C85.7747 182.773 83.5621 183.887 81.2752 183.887" fill="white"/>
<path d="M81.2678 183.887C83.3319 183.887 85.3367 182.884 87.2078 181.005H78.2161C79.1962 182.884 80.2283 183.887 81.29 183.887" fill="#91AEC7"/>
<path d="M83.176 182.825C80.206 183.887 79.1739 182.884 78.1938 181.005H87.2301C85.3367 182.884 83.332 183.887 81.2901 183.887C83.577 183.887 85.7896 182.773 87.8835 180.686H78.0305C79.0551 182.773 80.1466 183.887 81.2678 183.887" fill="white"/>
<path d="M81.2678 183.887C80.0946 183.887 78.9586 182.884 77.8819 181.005H69.7144C73.2858 182.874 77.252 183.862 81.2826 183.887" fill="#91AEC7"/>
<path d="M88.433 182.825C77.2954 183.887 73.3824 182.884 69.6995 181.005H77.8671C78.9437 182.884 80.0946 183.887 81.2529 183.887C80.1317 183.887 79.0254 182.773 78.0156 180.686H69.1055C72.8325 182.756 77.0196 183.856 81.2826 183.887" fill="white"/>
<path d="M81.2678 183.887C77.1565 183.864 73.1079 182.877 69.4471 181.005H63.366C69.1467 182.914 75.1951 183.886 81.2826 183.887" fill="#91AEC7"/>
<path d="M92.3682 182.825C75.0678 183.887 69.0609 182.884 63.3511 181.005H69.447C73.1078 182.877 77.1565 183.864 81.2677 183.887C77.0048 183.856 72.8176 182.756 69.0906 180.686H62.4081C68.4675 182.805 74.841 183.887 81.2603 183.887" fill="white"/>
<path d="M81.2678 183.887C75.1268 183.887 69.0245 182.915 63.1878 181.005H60.0544C67.8655 182.84 71.786 183.76 81.2678 183.887Z" fill="#91AEC7"/>
<path d="M81.2678 183.887C85.2179 183.723 90.4823 183.3 94.4101 182.825C90.4823 183.293 85.2253 183.805 81.2678 183.887Z" fill="white"/>
<path d="M94.4101 182.825C73.9243 183.887 66.8111 182.884 60.0543 181.005H63.1877C69.0244 182.915 75.1267 183.887 81.2677 183.887C74.8484 183.887 68.4749 182.805 62.4155 180.686H58.948C66.1963 182.816 73.713 183.894 81.2677 183.887" fill="white"/>
<path d="M81.2678 183.887C73.1002 183.552 69.0535 183.389 60.0098 181.005H59.7945C66.7909 182.923 74.0133 183.893 81.2678 183.887Z" fill="#91AEC7"/>
<path d="M59.7945 181.005H60.0098C67.8358 182.84 71.7637 183.76 81.2678 183.887C72.4839 183.523 68.8457 183.374 58.948 180.686H58.6659L59.7945 181.005Z" fill="white"/>
<path d="M0.25293 102.89C0.25293 104.172 0.28263 105.45 0.34203 106.722L162.179 106.722C162.238 105.454 162.268 104.177 162.268 102.89C162.268 102.534 162.268 102.148 162.268 101.836L0.290055 101.836C0.290055 102.185 0.290055 102.534 0.290055 102.89" fill="white"/>
</g>
<mask id="mask1_101_542" style="mask-type:luminance" maskUnits="userSpaceOnUse" x="0" y="21" width="82" height="163">
<path d="M0.252936 102.89C0.292019 107.288 0.644364 111.678 1.30729 116.026C2.10563 120.234 3.1318 124.396 4.38127 128.493C5.70995 132.489 7.351 136.375 9.28924 140.114C9.42289 141.087 15.6377 151.155 19.7512 155.603C22.5268 158.68 25.4586 161.612 28.535 164.387C31.7116 167.069 35.0682 169.53 38.5811 171.753C42.1547 173.934 45.8763 175.862 49.7187 177.523C53.6732 179.076 57.7083 180.414 61.8067 181.533C65.5192 182.595 70.7613 183.151 74.6298 183.619C76.6049 183.857 79.2779 183.805 81.2678 183.887C59.9206 183.682 39.5171 175.058 24.4941 159.89C9.4711 144.722 1.0433 124.236 1.0433 102.887C1.0433 81.5374 9.4711 61.0514 24.4941 45.8831C39.5171 30.7149 59.9206 22.091 81.2678 21.8866C77.3177 22.0499 72.0087 22.1613 68.1329 22.9484C66.232 23.3271 63.6778 23.6909 61.8067 24.2404C57.7203 25.3745 53.6933 26.7127 49.741 28.2501C45.8633 29.8361 42.1358 31.767 38.6034 34.0197C37.0515 35.0666 34.8909 36.3512 33.4058 37.517C30.1363 40.0628 27.0011 42.7768 24.0131 45.6478C21.151 48.6424 18.4424 51.7799 15.8975 55.0484C14.7392 56.5335 13.4547 58.672 12.4078 60.2462C10.1552 63.7787 8.2244 67.5064 6.63849 71.3843C2.42025 81.3522 0.248722 92.0665 0.252936 102.89Z" fill="white"/>
</mask>
<g mask="url(#mask1_101_542)">
<path d="M0.253076 102.89C0.253076 114.214 2.25784 121.149 4.38141 128.493C5.71009 132.489 7.35114 136.375 9.28938 140.114C12.0441 144.955 15.467 150.985 19.7513 155.603C24.4068 160.638 29.6934 166.34 38.5812 171.753C48.4046 177.694 54.6045 179.491 61.7846 181.533C68.2072 183.359 75.1497 183.642 81.2457 183.887C59.8984 183.679 39.4962 175.053 24.4752 159.882C9.45428 144.712 1.02928 124.225 1.03222 102.876C1.03515 81.5263 9.46578 61.0415 24.4909 45.8753C39.516 30.7091 59.9207 22.088 81.2679 21.8866C77.3178 22.0499 72.0089 22.1613 68.133 22.9484C60.656 24.4335 57.2404 25.176 49.7411 28.2501C40.128 32.344 31.393 38.2508 24.0133 45.6478C16.4654 53.1446 10.4791 62.0638 6.40072 71.8894C2.32232 81.715 0.232802 92.2518 0.253076 102.89Z" fill="#9E9E9E"/>
<path d="M44.0608 174.85C53.8248 179.907 60.782 181.325 68.1477 182.832L74.6446 183.627L81.2826 183.894C67.3635 183.917 53.6754 180.336 41.5511 173.498L38.7667 171.88C40.3483 172.778 42.4273 174.04 44.0459 174.85" fill="#9E9E9E"/>
<path d="M68.1328 22.9484C64.3609 23.6909 59.3713 24.9458 55.6662 26.0151L49.7261 28.2427L44.0608 30.9307L38.6182 34.0197L33.4207 37.517L28.5424 41.3857L24.0131 45.6478L19.7734 50.1773L15.8975 55.0484L12.4078 60.2462L9.31151 65.6964L6.63849 71.362L4.41097 77.3023L2.62895 83.4209L1.32957 89.7473L0.542512 96.2445L0.27521 102.927L0.542512 109.61C1.55975 117.964 1.9013 119.932 4.40354 128.567C4.87875 130 5.3985 131.426 5.95538 132.822L4.13624 127.728C0.236404 115.575 -0.738808 102.672 1.28998 90.0706C3.31876 77.4689 8.29422 65.5244 15.8114 55.2092C23.3286 44.894 33.175 36.4995 44.5493 30.709C55.9237 24.9186 68.5045 21.8957 81.2678 21.8866L74.6298 22.1539L68.1328 22.9484Z" fill="#9E9E9E"/>
<path d="M55.6662 179.758C59.3787 180.931 64.3609 182.052 68.1329 182.825L74.6298 183.619L81.2678 183.887C72.2888 183.893 63.3711 182.408 54.8791 179.491L53.3941 178.956C54.0772 179.194 54.9831 179.535 55.6736 179.758" fill="#999999"/>
<path d="M68.1328 22.9484C64.3609 23.6909 59.3713 24.9458 55.6662 26.0151L49.7261 28.2427L44.0608 30.9307L38.6182 34.0197L33.4207 37.517L28.5424 41.3857L24.0131 45.6478L19.7734 50.1773L15.8975 55.0484L12.4077 60.2462L9.31149 65.6964L6.63847 71.362L4.41095 77.3023L2.62894 83.4209L1.32955 89.7473L0.542497 96.2445L0.275195 102.927L0.542497 109.61L1.32955 116.1C1.38895 116.471 1.45578 116.843 1.52261 117.214L0.9583 113.501C-0.542602 102.068 0.412947 90.446 3.76114 79.4115C7.10933 68.3769 12.7731 58.1838 20.3743 49.5126C27.9754 40.8414 37.339 33.8918 47.8398 29.1278C58.3406 24.3638 69.7369 21.8951 81.2678 21.8866L74.6298 22.1539L68.1328 22.9484Z" fill="#999999"/>
<path d="M68.1328 182.825C72.0607 183.307 77.3176 183.723 81.2678 183.887C76.4077 183.887 71.5573 183.455 66.7741 182.595L66.1132 182.468C66.7815 182.595 67.4572 182.713 68.1328 182.825Z" fill="#949494"/>
<path d="M68.1328 22.9484C64.3609 23.6909 59.3713 24.9458 55.6662 26.0151L49.7261 28.2427L44.0608 30.9307L38.6182 34.0197L33.4207 37.517L28.5424 41.3857L24.0131 45.6479L19.7734 50.1773L15.8975 55.0484L12.4078 60.2462L9.31151 65.6964L6.63848 71.362L4.41096 77.3023L2.62895 83.4209L1.32956 89.7473L0.542507 96.2445L0.275205 102.927C0.275205 103.314 0.275205 103.67 0.275205 104.078H0.25293C0.25293 103.143 0.25293 101.851 0.25293 100.945C0.760938 79.7977 9.52062 59.6882 24.6596 44.9149C39.7985 30.1416 60.1155 21.8766 81.2678 21.8866L74.6298 22.1539L68.1328 22.9484Z" fill="#949494"/>
<path d="M81.2678 183.887C78.966 183.887 76.6865 183.79 74.4293 183.597H74.2214L80.852 183.901H81.2678" fill="#8F8F8F"/>
<path d="M68.1328 22.9484C64.3609 23.6909 59.3713 24.9458 55.6662 26.0151L49.7261 28.2427L44.0608 30.9307L38.6182 34.0197L33.4207 37.517L28.5424 41.3857L24.0131 45.6478L19.7734 50.1773L15.8975 55.0484L12.4077 60.2462L9.3115 65.6964L6.63848 71.362L4.41096 77.3023L2.62894 83.4209L1.32956 89.7473C1.2256 90.4007 1.12908 91.0468 1.03998 91.6853L1.44093 89.1607C4.68272 70.3363 14.4705 53.2625 29.0764 40.9534C43.6823 28.6443 62.1672 21.8913 81.2678 21.8866L74.6298 22.1539L68.1328 22.9484Z" fill="#8F8F8F"/>
<path d="M81.2678 183.887C79.7333 183.887 78.2087 183.844 76.694 183.76H76.538L81.2678 183.894" fill="#8A8A8A"/>
<path d="M68.1328 22.9484C64.3609 23.6909 59.3713 24.9458 55.6662 26.0151L49.7261 28.2427L44.0608 30.9307L38.6182 34.0197L33.4207 37.517L28.5424 41.3857L24.0131 45.6478L19.7734 50.1773L15.8975 55.0484L12.4077 60.2462L9.3115 65.6964L6.63847 71.362L4.41096 77.3023L3.7724 79.2923L4.41096 77.332C9.78084 61.1922 20.0937 47.1516 33.8881 37.2002C47.6825 27.2487 64.2587 21.8911 81.2678 21.8866L74.6298 22.1539L68.1328 22.9484Z" fill="#8A8A8A"/>
<path d="M68.1329 22.9484C64.3609 23.6909 59.3713 24.9458 55.6662 26.0151L49.7261 28.2427L44.0608 30.9307L38.6182 34.0197L33.4207 37.517L28.5424 41.3857L24.0132 45.6478L19.7734 50.1773L15.8976 55.0484L12.4078 60.2462L9.35608 65.5999L10.0986 64.1891C17.0575 51.3863 27.3422 40.6988 39.868 33.2535C52.3938 25.8083 66.6965 21.8812 81.2678 21.8866L74.6298 22.1539L68.1329 22.9484Z" fill="#858585"/>
<path d="M68.1328 22.9484C64.851 23.6167 60.4702 24.6117 57.2328 25.5101C65.0169 23.1013 73.1196 21.8797 81.2678 21.8865C76.8735 22.0024 72.4887 22.3568 68.1328 22.9484Z" fill="#91AEC7"/>
<path d="M55.6662 26.0151C52.1319 27.3517 47.4763 29.312 44.0608 30.9307C40.8086 32.7796 36.5541 35.3859 33.4504 37.517C31.6907 38.913 29.3221 40.7322 27.6292 42.2099C35.914 34.873 45.6155 29.3131 56.134 25.874L55.681 26.0225" fill="#91AEC7"/>
<path d="M56.1191 25.8666L57.2255 25.5102L56.1117 25.8666" fill="white"/>
<path d="M24.0132 45.6478C21.4738 48.3878 18.2365 52.1673 15.9124 55.0855C13.8037 58.1596 11.1678 62.407 9.31153 65.6964C8.6804 66.9216 8.07155 68.1617 7.49982 69.4091C12.0632 59.3778 18.6216 50.3811 26.7753 42.9673L24.0132 45.6478Z" fill="#91AEC7"/>
<path d="M26.7678 42.9673C27.05 42.7049 27.3321 42.4574 27.6143 42.2247C27.3321 42.4673 27.05 42.7148 26.7678 42.9673Z" fill="white"/>
<path d="M4.40354 77.2875C3.33433 81.0002 2.10177 85.9752 1.32956 89.7473C0.891485 93.3635 0.445981 98.1974 0.25293 101.836C0.390311 91.0221 2.69812 80.3462 7.03944 70.4413C6.04943 72.6788 5.17327 74.9609 4.41096 77.2875" fill="#91AEC7"/>
<path d="M7.03198 70.4413C7.18791 70.0923 7.34384 69.7433 7.50719 69.3943L7.03941 70.4413" fill="white"/>
<path d="M1.32954 116.026C2.07204 119.798 3.3343 124.795 4.40351 128.493C5.44803 131.641 6.68795 134.721 8.11604 137.715C3.49267 128.004 0.859516 117.466 0.371704 106.722C0.609306 109.514 0.854333 113.264 1.33696 116.026" fill="#91AEC7"/>
<path d="M9.31151 140.114C11.1678 143.374 13.8037 147.621 15.8975 150.725C18.2216 153.65 21.4589 157.408 23.9983 160.162C25.409 161.477 27.2505 163.274 28.7132 164.521C20.3555 157.381 13.5351 148.618 8.66553 138.762C8.88828 139.215 9.11846 139.668 9.34863 140.114" fill="#91AEC7"/>
<path d="M8.6284 138.762L8.13092 137.723C8.29427 138.079 8.46505 138.421 8.63582 138.77" fill="white"/>
<path d="M33.4355 168.256C36.5392 170.395 40.7937 172.994 44.0608 174.85C51.7606 178.473 52.2283 178.689 58.6807 180.694C48.0367 177.604 38.1437 172.354 29.619 165.271L33.4578 168.241" fill="#91AEC7"/>
<path d="M68.1328 182.825C72.0607 183.307 77.3176 183.723 81.2678 183.887C74.0133 183.893 66.7909 182.923 59.7945 181.005C62.2893 181.585 65.6083 182.446 68.1403 182.825" fill="#91AEC7"/>
<path d="M59.7871 181.006L58.6584 180.686L59.7796 181.006" fill="white"/>
<path d="M0.25293 102.89L0.34203 106.722C0.28263 105.455 0.25293 104.177 0.25293 102.89C0.25293 102.534 0.25293 102.148 0.25293 101.836L0.25293 102.89Z" fill="white"/>
</g>
<mask id="mask2_101_542" style="mask-type:luminance" maskUnits="userSpaceOnUse" x="0" y="21" width="163" height="163">
<path d="M81.2678 183.887C79.2779 183.805 76.6048 183.887 74.6298 183.619C70.791 183.151 65.5935 182.595 61.8067 181.533C57.7159 180.413 53.6882 179.075 49.741 177.523C48.0035 176.78 45.724 175.711 44.046 174.842C42.3679 173.974 40.2072 172.726 38.6034 171.753C35.08 169.546 31.7224 167.084 28.5573 164.387C25.4809 161.612 22.5491 158.68 19.7734 155.603C17.2341 152.863 14.5016 148.653 12.4078 145.557C11.3534 143.997 10.2396 141.747 9.31152 140.114C7.37328 136.375 5.73223 132.489 4.40355 128.493C3.33434 124.78 2.10178 119.798 1.32957 116.026C0.951163 113.868 0.688435 111.692 0.542517 109.506C0.3298 107.285 0.240561 105.054 0.275215 102.823C0.399941 98.4272 0.751863 94.0404 1.32957 89.6805C2.36536 83.3851 4.14757 77.2356 6.63849 71.362C9.08435 65.5777 12.1914 60.096 15.8975 55.0261C17.0978 53.3315 18.3917 51.7053 19.7734 50.1551C22.5477 47.0819 25.4796 44.1549 28.5573 41.3857C31.7787 38.7613 35.1318 36.3028 38.6034 34.0197C40.3644 32.8906 42.1863 31.8594 44.0608 30.9307C49.6976 28.0121 55.659 25.769 61.8216 24.2478C66.0509 23.3237 70.3263 22.6248 74.6298 22.1539C76.6048 21.9163 79.2779 21.9682 81.2678 21.8866C85.6701 21.8851 90.0652 22.2402 94.4101 22.9484C106.963 25 118.853 29.9921 129.107 37.517C139.208 44.9245 147.457 54.5693 153.209 65.6964C157.122 73.2525 159.816 81.3797 161.191 89.777C162.596 98.4801 162.596 107.352 161.191 116.056C159.814 124.445 157.121 132.565 153.209 140.114C149.373 147.512 144.419 154.274 138.522 160.162C132.631 166.054 125.87 171.005 118.475 174.842C115.044 176.454 110.389 178.421 106.847 179.758C102.782 181.11 98.6159 182.135 94.3879 182.825C90.4452 183.144 85.2031 183.723 81.2455 183.887H81.2678Z" fill="white"/>
</mask>
<g mask="url(#mask2_101_542)">
<path d="M81.2678 183.887C75.1569 183.642 68.2294 183.359 61.8067 181.533C54.6266 179.491 48.4416 177.723 38.6034 171.753C29.6933 166.34 24.4289 160.615 19.7734 155.603C15.4891 150.985 12.0662 144.955 9.31149 140.114C7.37325 136.375 5.7322 132.489 4.40352 128.493C2.30966 121.253 1.15135 117.258 0.542492 109.506C0.0556796 102.911 0.319725 96.2826 1.32955 89.7473C3.36929 77.1905 8.36232 65.2978 15.8975 55.0484C27.1153 39.7138 43.365 28.8092 61.8067 24.2404C69.551 22.3618 73.219 22.2133 81.2678 21.8866C85.67 21.8851 90.0652 22.2402 94.4101 22.9484C106.963 25 118.853 29.9921 129.107 37.517C139.208 44.9245 147.457 54.5693 153.209 65.6964C157.122 73.2525 159.816 81.3797 161.191 89.777C162.596 98.4801 162.596 107.352 161.191 116.056C159.814 124.445 157.121 132.565 153.209 140.114C149.373 147.512 144.419 154.274 138.522 160.162C132.631 166.054 125.87 171.005 118.475 174.842C115.044 176.454 110.389 178.421 106.847 179.758C102.782 181.11 98.6159 182.135 94.3879 182.825C90.46 183.307 85.2031 183.723 81.2455 183.887" fill="#8F8F8F"/>
<path d="M161.213 116.026C159.833 124.427 157.131 132.557 153.209 140.114C149.373 147.512 144.419 154.274 138.522 160.162C132.631 166.054 125.87 171.005 118.475 174.842C115.044 176.454 110.389 178.421 106.847 179.758C102.782 181.11 98.6159 182.135 94.3879 182.825C90.46 183.307 85.2031 183.723 81.2455 183.887C77.2954 183.723 72.0384 183.307 68.1106 182.825L61.8067 181.533L55.6662 179.758L49.7261 177.53C48.0332 176.721 45.9393 174.85 44.0608 174.85L38.6182 171.761L33.4207 168.264L28.5424 164.395L24.0131 160.162L19.7883 155.603L15.9124 150.725L12.4226 145.527L9.32636 140.084C7.38812 136.345 5.74707 132.46 4.41839 128.463C3.34918 124.751 2.11662 119.768 1.34442 115.996L0.54251 109.506C0.460834 107.509 0.312333 104.851 0.275208 102.823L0.54251 96.1406L1.32957 89.6434L2.62895 83.4209L4.40354 77.2875L6.63106 71.3472L9.31151 65.6964L12.4078 60.2536L15.8975 55.0558L19.7734 50.1848L24.0131 45.6478L28.5721 41.4228L33.4504 37.5542L38.6479 34.0568L44.0608 30.9307L49.7558 28.2501L55.6959 26.0225L61.8067 24.2404L68.1328 22.9484L74.6298 22.1539L81.2678 21.8866C17.6573 23.0301 4.44067 99.6231 46.7784 140.559C90.6902 183.018 151.724 169.481 161.377 115.15L161.243 116.026" fill="#8F8F8F"/>
<path d="M158.139 128.493C156.804 132.49 155.155 136.376 153.209 140.114C149.373 147.512 144.419 154.274 138.522 160.162C132.631 166.054 125.87 171.005 118.475 174.842C115.044 176.454 110.389 178.421 106.847 179.758C102.782 181.11 98.6159 182.135 94.3879 182.825C90.46 183.307 85.2031 183.723 81.2455 183.887C77.2954 183.723 72.0384 183.307 68.1106 182.825L61.8067 181.533L55.6662 179.758L49.7261 177.53C48.0332 176.721 45.9393 174.85 44.0608 174.85L38.6182 171.761L33.4207 168.264L28.5424 164.395L24.0131 160.162L19.7883 155.603L15.9124 150.725L12.4226 145.527L9.32636 140.084C7.38812 136.345 5.74707 132.46 4.41839 128.463C3.34918 124.751 2.11662 119.768 1.34442 115.996L0.54251 109.506C0.460834 107.509 0.312333 104.851 0.275208 102.823L0.54251 96.1406L1.32957 89.6434L2.62895 83.4209L4.40354 77.2875L6.63106 71.3472L9.31151 65.6964L12.4078 60.2536L15.8975 55.0558L19.7734 50.1848L24.0131 45.6478L28.5721 41.4228L33.4504 37.5542L38.6479 34.0568L44.0608 30.9307L49.7558 28.2501L55.6959 26.0225L61.8067 24.2404L68.1328 22.9484L71.1994 22.5029L69.306 22.7702C8.95511 32.7573 -0.756876 111.199 53.2902 151.898C93.5785 182.275 143.675 170.706 158.407 127.691C158.325 127.958 158.236 128.226 158.147 128.493" fill="#8A8A8A"/>
<path d="M146.645 150.725C141.727 157.428 135.813 163.34 129.107 168.256C125.747 170.725 122.199 172.93 118.497 174.85C115.067 176.461 110.411 178.429 106.869 179.765C102.804 181.117 98.6381 182.143 94.4101 182.832C90.4823 183.315 85.2253 183.731 81.2678 183.894C77.3177 183.731 72.0607 183.315 68.1328 182.832L61.8067 181.533L55.6662 179.758L49.7261 177.53C48.0332 176.721 45.9393 174.85 44.0608 174.85L38.6182 171.761L33.4207 168.264L28.5424 164.395L24.0131 160.162L19.7883 155.603L15.9124 150.725L12.4226 145.527L9.32636 140.084C7.38812 136.345 5.74707 132.46 4.41839 128.463C3.34918 124.751 2.11662 119.768 1.34442 115.996L0.54251 109.506C0.460834 107.509 0.312333 104.851 0.275208 102.823L0.54251 96.1406L1.32957 89.6434L2.62895 83.4209L4.40354 77.2875L6.63106 71.3472L9.31151 65.6964L12.4078 60.2536L15.8975 55.0558L19.7734 50.1848L24.0131 45.6478L28.5721 41.4228L33.4504 37.5542L38.6479 34.0568L44.0608 30.9307L49.7558 28.2501L55.6959 26.0225L56.6834 25.6809L53.2605 26.8839C-6.50387 50.9273 4.14366 139.95 70.0485 166.957C102.563 180.322 136.458 169.86 152.467 141.599C150.741 144.766 148.806 147.815 146.675 150.725" fill="#858585"/>
<path d="M106.869 26.0151C114.835 28.6702 122.337 32.5508 129.107 37.517C139.208 44.9245 147.457 54.5693 153.209 65.6964C157.122 73.2525 159.816 81.3797 161.191 89.777C161.897 94.1224 162.249 98.5177 162.245 102.92C160.76 165.627 91.9598 179.558 50.9215 139.453C5.08662 94.6555 25.0526 22.2207 83.3096 22.0425C87.7273 22.0652 92.1337 22.4902 96.4743 23.3122C99.9956 23.9809 103.468 24.8839 106.869 26.0151Z" fill="#949494"/>
<path d="M118.497 30.9307C122.199 32.8484 125.746 35.0504 129.107 37.517C139.208 44.9245 147.457 54.5693 153.209 65.6964C157.097 73.2027 159.781 81.2737 161.161 89.6136C170.287 155.871 104.813 175.31 64.4871 145.891C7.99728 104.628 22.9142 32.2821 75.3055 23.3716C86.2574 21.493 97.3505 22.6291 109.231 26.8616C112.403 28.0285 115.498 29.395 118.497 30.953" fill="#999999"/>
<path d="M129.107 37.517C139.208 44.9245 147.457 54.5693 153.209 65.6964C154.604 68.3828 155.844 71.1471 156.922 73.9758C178.157 136.349 124.838 172.734 75.298 148.482C19.9962 121.387 16.1054 43.4573 69.1946 25.8591C78.9586 22.6291 99.0657 19.3545 123.776 33.9231C125.603 35.0518 127.38 36.2498 129.107 37.517Z" fill="#9E9E9E"/>
<path d="M149.92 59.912C179.91 109.662 146.839 163.689 93.7419 151.697C35.7596 138.599 14.1007 61.1521 60.1658 31.599C87.5939 14.0008 130.377 27.4927 149.92 59.912Z" fill="#A3A3A3"/>
<path d="M149.742 59.912C180.882 111.845 141.574 160.422 94.1577 148.735C38.1207 134.916 17.4345 59.8972 62.0666 32.4009C92.7024 13.5256 132.857 31.7549 149.742 59.912Z" fill="#A8A8A8"/>
<path d="M152.927 66.3202C176.65 116.872 135.434 163.177 85.0843 142.557C30.8219 120.333 27.9113 49.1526 68.8754 30.5891C102.065 15.5601 139.131 36.9304 152.927 66.3202Z" fill="#ADADAD"/>
<path d="M152.392 66.3202C175.819 116.657 135.315 161.083 85.708 139.453C36.8585 118.157 28.7577 50.0363 72.7735 30.6634C100.64 18.404 137.839 35.0666 152.392 66.3053" fill="#B3B3B3"/>
<path d="M151.724 66.3202C172.158 110.516 139.926 152.366 95.1898 139.735C44.8998 125.538 28.9879 59.4665 69.7738 34.2202C96.1031 17.9214 136.696 33.8192 151.724 66.3202Z" fill="#B8B8B8"/>
<path d="M153.692 73.0773C168.921 119.568 129.308 154.267 85.3367 132.956C37.7792 109.915 39.6057 47.3483 77.7112 32.4678C109.008 20.2455 144.247 44.2667 153.692 73.0773Z" fill="#BDBDBD"/>
<path d="M152.697 73.0773C166.975 117.533 127.979 150.598 85.3887 130.142C41.8333 109.202 40.5265 45.3063 83.4136 32.4752C113.641 23.431 144.18 46.5835 152.675 73.0773" fill="#C2C2C2"/>
<path d="M151.576 73.0773C165.282 116.486 126.962 147.91 85.4407 127.283C44.8553 107.182 43.7118 49.0264 83.6141 34.4355C109.305 25.0423 142.331 43.8212 151.576 73.0476" fill="#C7C7C7"/>
<path d="M150.313 73.0773C163.047 114.014 124.875 144.421 85.4853 124.736C45.2266 104.613 49.7633 49.8284 83.577 36.7374C111.451 25.9705 142.339 47.4225 150.313 73.055" fill="#CCCCCC"/>
<path d="M148.873 73.0773C161.763 115.402 120.658 140.173 85.5149 122.538C45.2785 102.356 54.4039 46.1453 90.3264 36.871C113.797 30.8193 141.151 47.7344 148.873 73.0773Z" fill="#D1D1D1"/>
<path d="M148.903 80.1537C154.984 123.793 105.035 134.582 82.5077 118.283C40.6155 87.9726 67.0785 41.2372 97.0015 37.8883C120.71 35.2374 145.45 55.3825 148.903 80.1537Z" fill="#D6D6D6"/>
<path d="M147.076 80.1537C149.898 100.031 138.166 114.637 126.071 119.798C107.991 127.513 90.9872 124.454 75.5134 110.687C51.3671 89.2052 65.6158 44.3707 97.9371 40.1456C120.272 37.2274 143.698 56.2959 147.076 80.1611" fill="#DBDBDB"/>
<path d="M144.923 80.1537C148.873 116.59 106.201 136 77.7632 110.687C49.7781 85.745 71.5335 46.2493 98.8578 42.5514C120.123 39.6704 142.51 57.9443 144.893 80.1537" fill="#E0E0E0"/>
<path d="M142.569 80.1537C146.207 116.323 103.588 131.641 80.0352 110.687C49.7187 83.7253 74.4219 48.7368 99.7488 45.1578C119.67 42.3435 140.475 59.3477 142.562 80.1537" fill="#E6E6E6"/>
<path d="M140.074 80.1537C143.334 113.219 103.461 129.25 82.2999 110.687C49.1915 81.6833 78.6913 50.9124 100.625 47.8755C119.358 45.3063 138.166 60.6769 140.074 80.124" fill="#EBEBEB"/>
<path d="M137.461 80.1537C138.53 90.022 136.265 103.833 119.351 113.568C107.382 120.481 91.1728 116.234 84.5497 110.657C51.6269 82.9605 79.0848 52.546 101.375 50.5115C119.002 48.8779 135.53 62.4515 137.453 80.1537" fill="#F0F0F0"/>
<path d="M134.721 87.4974C130.333 120.644 93.3929 122.129 77.8003 102.89C58.0719 78.5052 83.874 47.9423 110.196 53.8826C127.815 57.8478 136.503 74.0871 134.699 87.5048" fill="#F5F5F5"/>
<path d="M132.805 87.4974C132.137 96.7717 127.652 101.947 126.761 102.89C119.054 110.991 119.054 110.991 107.359 114.385C102.08 115.907 87.438 112.699 79.3595 102.89C60.7969 80.3839 80.8446 55.2637 102.622 55.3677C118.304 55.4568 134.171 68.377 132.805 87.4826" fill="#FAFAFA"/>
<path d="M130.875 87.4974C128.825 114.162 95.9323 120.54 80.9188 102.89C62.2522 80.9334 82.0474 56.3478 103.09 57.4542C117.242 58.1968 132.137 71.2061 130.875 87.4974Z" fill="#91AEC7"/>
<path d="M128.907 87.4974C127.467 105.014 115.438 109.031 107.471 111.645C103.484 112.967 89.5542 110.969 82.4781 102.89C63.4179 81.1264 82.3593 58.2265 103.543 59.5705C120.086 60.6249 129.761 77.0796 128.907 87.4974Z" fill="#91AEC7"/>
<path d="M126.88 87.4974C125.736 103.789 116.084 107.279 107.515 110.331C104.501 111.415 99.8899 110.991 96.8382 110.026C96.7491 110.026 86.8069 105.987 84.0225 102.89C73.0557 90.6903 75.1792 81.3566 79.1145 73.0773C80.5995 69.9363 90.2076 59.3774 103.87 61.1966C119.73 63.2832 127.548 78.0894 126.887 87.5271" fill="#91AEC7"/>
<path d="M124.17 95.0862C124.17 95.1382 120.806 101.427 117.717 104.049C115.111 106.276 110.968 109.18 107.545 109.18C104.337 109.18 99.7191 110.397 96.853 108.964C93.4449 107.256 88.626 105.341 85.6486 102.965C83.1105 100.745 81.0058 98.0733 79.4412 95.0862C75.803 88.1731 76.3004 78.7057 80.5995 73.0773C89.3834 61.5531 100.001 61.9392 104.159 62.6817C110.909 63.8401 118.891 69.6987 120.984 73.0773C128.031 84.4901 124.586 94.0392 124.17 95.0862Z" fill="#91AEC7"/>
<path d="M122.766 95.0862C118.594 104.821 107.671 108.021 107.575 108.021C104.36 108.021 99.7636 109.284 96.8678 107.888C87.9578 103.603 84.2452 101.828 80.6441 95.0787C77.6741 89.5914 76.3227 80.5398 82.0697 73.0699C84.2972 70.2037 86.0273 67.9389 95.019 64.3747C97.6475 63.3352 101.657 63.7064 104.434 64.2114C118.386 66.7434 127.964 82.9011 122.766 95.0862Z" fill="#91AEC7"/>
<path d="M121.326 95.0862C117.799 103.017 107.679 106.87 107.597 106.87C104.382 106.87 99.8007 108.17 96.8753 106.826C87.2672 102.43 84.0002 99.0736 81.8469 95.0862C79.4858 90.7126 76.5603 82.0323 83.5398 73.0773C86.6138 69.1418 95.0858 65.8152 95.1675 65.793C97.8702 64.8574 101.895 65.2435 104.701 65.793C105.83 66.0009 114.718 70.8645 114.77 70.9091C117.339 73.1367 117.74 73.4411 121.549 80.1685C122.618 82.0472 123.665 89.8216 121.326 95.101" fill="#91AEC7"/>
<path d="M119.871 95.0862C119.017 96.9648 116.099 101.769 107.612 105.705C104.694 107.056 100.105 105.756 96.8901 105.756C96.8084 105.756 86.0569 100.559 83.0424 95.0862C76.7533 83.6139 82.7454 75.9583 85.0026 73.0773C85.7451 72.1788 95.212 67.0479 95.2863 67.0256C98.0558 66.2014 102.14 66.387 104.939 67.1444C108.325 68.0651 112.401 70.7309 115.074 73.0179C117.064 74.7257 118.891 77.837 120.131 80.1537C123.524 86.495 119.915 95.0045 119.878 95.0862" fill="#91AEC7"/>
<path d="M118.4 95.0862C118.4 95.1456 113.908 101.769 107.619 104.539C104.649 105.846 100.113 104.68 96.8901 104.68C96.8233 104.68 85.8936 98.0638 84.2675 95.0862C81.4385 89.9998 79.3372 82.3145 85.4035 74.5846C87.2672 72.2011 95.3531 68.1914 95.4199 68.1691C98.2117 67.3003 102.348 67.6345 105.154 68.4215C110.188 69.8324 125.677 79.6785 118.43 95.0862" fill="#91AEC7"/>
<path d="M117.472 93.3041C117.316 93.8387 117.324 94.6852 116.938 95.0862C116.856 95.1678 108.51 103.314 107.627 103.365C104.412 103.544 99.9121 104.724 96.8975 103.603C95.3457 103.024 85.8268 95.7916 85.4258 95.0862C79.9313 85.344 83.5844 78.8839 85.4258 76.5227C88.6557 72.4016 95.4496 69.3126 95.509 69.2903C98.3009 68.3324 102.503 68.8596 105.332 69.6764C112.059 71.6219 117.212 80.0349 117.212 80.124C119.752 85.0544 119.403 86.3093 117.472 93.2744" fill="#91AEC7"/>
<path d="M117.205 89.183C116.722 90.9651 116.574 93.6382 115.475 95.1233C113.596 97.6628 110.723 101.524 107.627 102.133C104.53 102.742 99.9492 103.551 96.8975 102.519C93.3855 101.324 89.4205 97.9153 86.9776 95.0936C84.0076 91.7522 82.1514 82.8268 85.4407 78.5572C85.4926 78.4978 91.158 72.1565 95.5981 70.4858C98.3825 69.4388 102.652 70.1665 105.503 71.013C111.718 72.862 118.943 82.7526 117.205 89.1904" fill="#91AEC7"/>
<path d="M114.005 95.0862C112.609 97.2396 110.025 99.8904 107.619 100.759C104.155 101.88 100.454 102.059 96.8975 101.279C95.4942 100.915 85.5669 94.1729 84.765 87.4974C84.5051 85.2698 84.6759 82.0695 85.8119 80.1537C87.386 77.488 90.705 74.7629 93.2964 73.0773C94.0389 72.6243 94.8556 71.6516 95.6947 71.6516C105.095 71.6516 106.431 72.654 107.003 73.0773C109.446 74.9114 113.389 77.2429 114.317 80.1537C115.007 82.3293 116.366 85.2104 116.314 87.4974C116.182 90.1787 115.388 92.7856 114.005 95.0862Z" fill="#91AEC7"/>
<path d="M112.52 95.0862C111.421 96.7198 109.476 98.7989 107.604 99.43C104.538 100.41 99.9864 100.96 96.8901 100.076C90.6308 98.2865 86.0421 88.0246 85.9604 87.4974C85.6542 84.9536 86.1749 82.3787 87.4454 80.1537C89.1755 77.488 92.7172 74.8891 95.3309 73.0773C96.207 72.4758 105.726 73.6787 105.83 73.7084C108.436 74.8668 111.985 77.4211 112.832 80.1537C113.515 82.3813 115.059 85.203 114.985 87.4974C114.804 90.1975 113.943 92.8081 112.483 95.0862" fill="#91AEC7"/>
<path d="M111.013 95.0862C110.27 96.2148 108.904 97.7519 107.582 98.1083C104.471 98.94 99.9418 99.8756 96.8753 98.8509C91.1728 97.0094 87.4826 87.5494 87.4677 87.4603C87.2448 84.898 87.829 82.3302 89.1383 80.1166C90.5788 77.8221 93.3112 74.9188 95.8877 74.102C98.7984 73.1441 103.187 74.0649 106.045 75.1787C108.087 75.9658 110.122 78.3419 111.406 80.1166C112.867 82.2915 113.671 84.8408 113.723 87.4603C113.482 90.1797 112.549 92.7922 111.013 95.049" fill="#91AEC7"/>
<path d="M109.498 95.0862C109.052 95.7248 108.31 96.6307 107.552 96.7866C104.404 97.44 99.8824 98.8137 96.8678 97.6925C95.5018 97.131 94.2992 96.2347 93.3706 95.0862C91.7594 93.0071 89.3462 90.1037 88.9676 87.4974C88.6483 85.2698 89.6432 82.114 90.7867 80.1537C91.8411 78.3419 93.9869 76.1366 95.9842 75.4905C98.9543 74.5475 103.283 75.7504 106.223 76.7306C107.656 77.2058 109.067 78.9062 109.936 80.1537C111.258 82.062 112.49 85.1733 112.423 87.4974C112.349 89.9329 110.938 93.0962 109.513 95.0862" fill="#91AEC7"/>
<path d="M107.968 95.0862C107.278 96.0366 96.9273 96.5713 96.8308 96.5119C96.0863 96.2022 95.4306 95.7122 94.9225 95.0862C93.3929 92.9328 90.809 90.1186 90.4675 87.4974C90.3412 86.5841 91.6406 78.2305 96.0808 76.8568C99.0508 75.9361 103.38 77.4508 106.394 78.2528C107.204 78.4681 107.976 79.4483 108.436 80.1537C109.713 82.114 111.161 85.1584 111.087 87.4974C111.013 89.9552 109.424 93.0962 107.976 95.0862" fill="#91AEC7"/>
<path d="M107.434 93.0293C106.78 93.5937 97.5658 95.5911 96.8307 95.3312C96.2145 95.1084 91.9599 87.5642 91.945 87.4974C91.6406 85.2252 93.1034 82.2402 94.0463 80.1537C94.4906 79.2754 95.2445 78.5929 96.1625 78.2379C96.2367 78.2379 106.275 79.3072 106.921 80.1537C108.505 82.3034 109.48 84.8404 109.743 87.4974C109.719 89.5709 108.891 91.5541 107.434 93.0293Z" fill="#91AEC7"/>
<path d="M107.3 90.1186C104.85 92.2868 99.823 94.2545 96.7862 93.0442C94.9819 92.3016 93.6677 89.4354 93.4301 87.5048C93.4301 87.438 95.1675 79.9532 96.2442 79.6265C97.3208 79.2998 98.7241 79.7898 99.7117 80.1537C101.939 80.9631 105.147 81.8615 106.869 83.4877C108.31 84.8614 108.793 88.7968 107.3 90.1186Z" fill="#91AEC7"/>
<path d="M96.7119 90.4824C95.7318 90.1112 95.019 88.537 94.8928 87.5123C94.7071 86.0272 95.0116 83.2798 96.3778 82.6709C99.4369 81.3343 103.402 86.042 106.402 87.5123C103.491 88.4182 99.5334 91.5888 96.6822 90.4824" fill="#91AEC7"/>
<path d="M96.6302 87.9726C96.5521 87.9216 96.4862 87.8538 96.4374 87.7742C96.3887 87.6945 96.3581 87.6051 96.3481 87.5123C96.3481 87.2747 96.3481 86.8514 96.5857 86.7697C97.0683 86.5544 97.6846 87.2969 98.1598 87.5123C97.6994 87.6533 97.0757 88.1434 96.6302 87.9726Z" fill="#91AEC7"/>
<path d="M57.5596 25.5101H57.2328C60.4776 24.6488 64.851 23.587 68.1328 22.9484C72.0607 22.4657 77.3176 22.0499 81.2678 21.8866C73.2267 21.8805 65.2318 23.1025 57.5596 25.5101Z" fill="#91AEC7"/>
<path d="M61.3018 25.5102H57.5892C66.9745 22.9707 70.1673 22.2281 81.2678 21.8866C74.4491 21.8891 67.6864 23.1164 61.3018 25.5102Z" fill="#91AEC7"/>
<path d="M57.619 25.5101H57.5596C65.2318 23.1025 73.2267 21.8805 81.2678 21.8866C75.0456 22.139 68.6452 22.4063 62.1186 24.2404C60.6474 24.7594 59.1444 25.1835 57.619 25.5101Z" fill="white"/>
<path d="M68.4447 25.5102H61.4949C67.8126 23.1169 74.512 21.8892 81.2678 21.8866C76.7468 21.9292 72.3195 23.1803 68.4447 25.5102Z" fill="#91AEC7"/>
<path d="M61.4949 25.5102H61.3018C67.6865 23.1164 74.4492 21.8891 81.2678 21.8866C74.512 21.8892 67.8126 23.1169 61.4949 25.5102Z" fill="white"/>
<path d="M78.0156 25.5102H68.7343C72.5043 23.1838 76.838 21.9309 81.2678 21.8866C80.1391 21.8866 79.0402 23.1563 78.0156 25.5102Z" fill="#91AEC7"/>
<path d="M68.7343 25.5102H68.4447C72.3194 23.1803 76.7468 21.9292 81.2678 21.8866C76.838 21.9309 72.5044 23.1838 68.7343 25.5102Z" fill="white"/>
<path d="M78.0156 25.5102C78.4657 24.5095 79.0314 23.565 79.7011 22.6959C80.137 22.2844 80.6799 22.0039 81.2678 21.8866C80.1392 21.8866 79.0403 23.1563 78.0156 25.5102Z" fill="white"/>
<path d="M88.433 25.5102H78.3646C79.2853 23.1563 80.258 21.8866 81.2678 21.8866C83.7626 21.8866 86.1683 23.1563 88.433 25.5102Z" fill="#91AEC7"/>
<path d="M78.3646 25.5102H78.0156C78.4657 24.5095 79.0314 23.565 79.7011 22.6959C80.137 22.2844 80.6799 22.0039 81.2678 21.8866C80.258 21.8866 79.2853 23.1563 78.3646 25.5102Z" fill="white"/>
<path d="M97.1648 25.5102H88.7596C86.3836 23.1563 83.8814 21.8866 81.2678 21.8866C86.7695 21.9044 92.1988 23.142 97.1648 25.5102Z" fill="#91AEC7"/>
<path d="M88.7596 25.5102H88.4329C86.1683 23.1563 83.7626 21.8866 81.2678 21.8866C83.8814 21.8866 86.3985 23.1563 88.7596 25.5102Z" fill="white"/>
<path d="M103.127 25.5102H97.4173C92.3625 23.1398 86.8507 21.9031 81.2678 21.8866C88.704 21.8833 96.0897 23.1076 103.127 25.5102Z" fill="#91AEC7"/>
<path d="M97.4173 25.5102H97.1648C92.1988 23.142 86.7695 21.9044 81.2678 21.8866C86.8507 21.9031 92.3625 23.1398 97.4173 25.5102Z" fill="white"/>
<path d="M94.4101 22.9484C98.0979 23.5511 101.74 24.407 105.31 25.5102H103.268C96.1822 23.1073 88.75 21.8832 81.2678 21.8866C85.67 21.8851 90.0652 22.2402 94.4101 22.9484Z" fill="#91AEC7"/>
<path d="M103.268 25.5102H103.127C96.0897 23.1076 88.704 21.8833 81.2678 21.8866C88.75 21.8832 96.1822 23.1073 103.268 25.5102Z" fill="white"/>
<path d="M28.3494 42.2099H27.6069C29.3443 40.7842 31.6313 38.8536 33.4281 37.517C36.5318 35.4156 40.7864 32.7796 44.0385 30.9307C47.4763 29.312 52.1319 27.3517 55.6662 26.0151L56.1191 25.8666H56.4681C46.0702 29.3171 36.4973 34.8787 28.3494 42.2025" fill="#91AEC7"/>
<path d="M28.3494 42.2099C34.7869 36.8636 42.0857 30.8045 56.4681 25.874C46.0702 29.3246 36.4972 34.8861 28.3494 42.2099Z" fill="white"/>
<path d="M56.4681 25.8666H56.1191L57.2328 25.5102H57.5595L56.4681 25.8666Z" fill="white"/>
<path d="M36.7025 42.2099H28.4681C36.5899 34.889 46.1381 29.3272 56.5126 25.874H60.3959C51.3907 29.4983 43.303 35.078 36.7174 42.2099" fill="#91AEC7"/>
<path d="M36.7026 42.2099C43.2917 35.0735 51.3847 29.4911 60.3959 25.8666C51.3907 29.4909 43.303 35.0706 36.7174 42.2025" fill="white"/>
<path d="M60.396 25.8666H56.5275C46.1471 29.3201 36.5936 34.8845 28.4682 42.2099H28.3345C36.7738 34.6226 46.7384 28.9286 57.5596 25.5102L61.2721 25.5102L60.396 25.8666Z" fill="white"/>
<path d="M52.6442 42.2099H37.1258C43.6325 35.0882 51.6456 29.5074 60.5816 25.874H67.821C62.178 29.312 57.0175 34.9553 52.6442 42.2099Z" fill="#91AEC7"/>
<path d="M67.821 25.8666H60.5816C51.6456 29.5 43.6325 35.0807 37.1258 42.2025H36.7026C43.5109 34.8221 51.9285 29.1102 61.3018 25.5102H68.4447L67.8507 25.8666" fill="white"/>
<path d="M73.9986 42.2099H53.2827C57.5596 34.9553 62.6234 29.312 68.1551 25.8666H77.8597C76.4192 29.3417 75.1124 34.9553 73.9986 42.2025" fill="#91AEC7"/>
<path d="M73.9987 42.2099C75.1124 34.9553 76.4192 29.3417 77.8597 25.874C76.4192 29.3491 75.1124 34.9627 73.9987 42.2099Z" fill="white"/>
<path d="M77.8597 25.8666H68.1551C62.6234 29.312 57.5596 34.9553 53.2827 42.2099H52.6442C57.166 34.7028 62.5343 28.9555 68.4447 25.5102H78.0156L77.8597 25.8666Z" fill="white"/>
<path d="M97.2614 42.2099H74.7857C75.7732 34.9553 76.9464 29.3417 78.2309 25.874H88.7671C91.9376 29.3491 94.8185 34.9627 97.2614 42.2099Z" fill="#91AEC7"/>
<path d="M97.2614 42.2099C94.8185 34.9553 91.9376 29.3417 88.7671 25.874C91.9376 29.3491 94.8185 34.9627 97.2614 42.2099Z" fill="white"/>
<path d="M88.7671 25.8666H78.2161C76.9316 29.3417 75.7584 34.9553 74.7709 42.2025H73.9987C75.1495 34.6954 76.5083 28.9481 78.0156 25.5027H88.4107L88.7448 25.8592" fill="white"/>
<path d="M116.752 42.2099H97.9891C95.4348 34.9553 92.4203 29.3417 89.079 25.874H97.8703C104.909 29.3491 111.31 34.9627 116.722 42.2099" fill="#91AEC7"/>
<path d="M116.752 42.2099C111.339 34.9553 104.946 29.312 97.8999 25.8666C104.939 29.3417 111.339 34.9553 116.752 42.2025" fill="white"/>
<path d="M97.8999 25.8666H89.1086C92.4202 29.3417 95.4348 34.9553 98.0187 42.2025H97.2762C94.7517 34.6954 91.752 28.9481 88.4478 25.5027H97.1797L97.9222 25.8592" fill="white"/>
<path d="M130.058 42.2099H117.309C111.807 34.9553 105.31 29.3417 98.1672 25.874H104.107C113.817 29.4021 122.656 34.9728 130.028 42.2099" fill="#91AEC7"/>
<path d="M104.137 25.8666H98.1969C105.34 29.3417 111.837 34.9553 117.339 42.2025H116.782C111.176 34.6954 104.523 28.9481 97.1945 25.5027H103.135L104.144 25.8592" fill="white"/>
<path d="M106.869 26.0151C114.835 28.6702 122.337 32.5508 129.107 37.517C131.122 39.0021 133.063 40.5664 134.929 42.2099H130.37C122.939 34.967 114.045 29.3971 104.285 25.874H106.431L106.877 26.0225" fill="#91AEC7"/>
<path d="M106.431 25.8666H104.293C114.053 29.3897 122.947 34.9596 130.377 42.2025H130.065C122.435 34.7093 113.233 29.0074 103.127 25.5102H105.31L106.424 25.8666" fill="white"/>
<path d="M8.50963 69.4091H7.49982C8.07155 68.1468 8.6804 66.9068 9.31153 65.6964C11.1678 62.4367 13.8037 58.1893 15.8976 55.0781C18.2216 52.1302 21.4589 48.3507 24.0132 45.6478L26.7827 43.0044H27.5252C19.468 50.4309 12.9993 59.4132 8.50963 69.4091Z" fill="#91AEC7"/>
<path d="M27.5178 42.9673H26.7753C27.0574 42.7049 27.3396 42.4574 27.6217 42.2247H28.3642C28.0895 42.4698 27.8074 42.7222 27.5326 42.9673" fill="white"/>
<path d="M19.9962 69.4091H8.69525C13.1649 59.4062 19.6131 50.4116 27.6514 42.9673H36.0046C29.0457 50.6905 23.6137 59.6628 19.9962 69.4091Z" fill="#91AEC7"/>
<path d="M36.0046 42.9673H27.6514C19.6131 50.4116 13.1648 59.4062 8.69521 69.4091H8.50958C13.1493 59.0557 19.9079 49.79 28.3493 42.2099H36.7025C36.4724 42.4549 36.2348 42.7074 36.0046 42.9524" fill="white"/>
<path d="M41.915 69.4091H20.5828C24.1544 59.6754 29.5329 50.7041 36.4353 42.9673H52.2284C47.5307 51.2364 44.0568 60.143 41.915 69.4091Z" fill="#91AEC7"/>
<path d="M52.2283 42.9673H36.4352C29.5329 50.7041 24.1544 59.6754 20.5827 69.4091H19.9962C23.7309 59.3409 29.4072 50.1046 36.7025 42.2247H52.6442C52.4956 42.4698 52.3397 42.7222 52.1912 42.9673" fill="white"/>
<path d="M71.2737 69.4091H42.7911C44.8702 60.1626 48.2554 51.2593 52.8447 42.9673H73.8873C72.7884 50.3258 71.8974 59.3032 71.2737 69.3943" fill="#91AEC7"/>
<path d="M71.2737 69.4091C71.734 62.6669 72.3577 53.4297 73.8873 42.9821C72.7884 50.3407 71.8974 59.318 71.2737 69.4091Z" fill="white"/>
<path d="M73.8873 42.9673H52.8447C48.2554 51.2593 44.8702 60.1626 42.7911 69.4091H41.915C44.4469 58.969 48.1223 49.7244 52.6442 42.2247H73.9987L73.8873 42.9673Z" fill="white"/>
<path d="M103.253 69.4091H72.3503C72.9072 59.3254 73.7016 50.3407 74.6817 42.9821H97.5212C100.211 51.604 102.129 60.4478 103.253 69.4091Z" fill="#91AEC7"/>
<path d="M97.5213 42.9673H74.6818C73.7017 50.3258 72.9072 59.3106 72.3503 69.4091H71.2737C71.9122 58.969 72.8478 49.7244 73.9987 42.2247H97.2614C97.3431 42.4698 97.4248 42.7222 97.5139 42.9673" fill="white"/>
<path d="M130.058 69.4091H104.256C103.08 60.4288 101.074 51.5769 98.2637 42.9673H117.324C123.012 51.0102 127.316 59.9472 130.058 69.4091Z" fill="#91AEC7"/>
<path d="M117.316 42.9673H98.2637C101.074 51.577 103.08 60.4288 104.256 69.4091H103.253C102.105 60.1812 100.099 51.0804 97.2614 42.2247H116.752C116.945 42.4698 117.131 42.7222 117.316 42.9673Z" fill="white"/>
<path d="M148.346 69.4091H130.823C128.029 59.9335 123.654 50.9985 117.881 42.9821H130.83C138.346 50.5562 144.298 59.536 148.346 69.4091Z" fill="#91AEC7"/>
<path d="M130.83 42.9673H117.881C123.655 50.9882 128.031 59.9283 130.823 69.4091H130.08C127.25 59.6377 122.74 50.4338 116.752 42.2099H130.058C130.318 42.4549 130.57 42.7074 130.8 42.9524" fill="white"/>
<path d="M138.545 45.6479C144.435 51.5363 149.382 58.2988 153.209 65.6964C153.84 66.9216 154.449 68.1617 155.021 69.4091H148.754C144.672 59.5254 138.68 50.5448 131.12 42.9821H135.753C136.693 43.8435 137.617 44.7246 138.522 45.6256" fill="#91AEC7"/>
<path d="M135.775 42.9673H131.142C138.695 50.5363 144.681 59.522 148.754 69.4091H148.324C144.14 59.1979 137.917 49.9477 130.036 42.2247H134.906L135.753 42.9673" fill="white"/>
<path d="M1.38896 101.836H0.25293C0.445981 98.1974 0.846935 93.3561 1.30729 89.7473C2.04979 85.9752 3.31206 80.9853 4.38126 77.2875C5.15347 74.9559 6.02963 72.6738 7.00974 70.4413H8.04924C3.76729 80.3611 1.49592 91.032 1.36669 101.836" fill="#91AEC7"/>
<path d="M8.04922 70.4413H7.03198L7.49976 69.4091H8.50957C8.35364 69.7581 8.19772 70.1071 8.04922 70.4561" fill="white"/>
<path d="M13.9967 101.836H1.58942C1.72473 91.0327 3.99584 80.363 8.27197 70.4413H19.61C15.9792 80.514 14.0813 91.1291 13.9967 101.836Z" fill="#91AEC7"/>
<path d="M19.6101 70.4413H8.23488C3.97151 80.3656 1.71303 91.0352 1.58945 101.836H1.38898C1.51478 90.6531 3.93852 79.6157 8.50961 69.4091H19.9962C19.8625 69.7581 19.7363 70.1071 19.6101 70.4561" fill="white"/>
<path d="M38.0613 101.836H14.6353C14.7211 91.1337 16.601 80.5217 20.1966 70.4413H41.6625C39.3049 80.7408 38.0971 91.27 38.0613 101.836Z" fill="#91AEC7"/>
<path d="M41.6625 70.4413H20.1966C16.601 80.5217 14.7211 91.1337 14.6353 101.836H13.9967C14.0857 90.7593 16.1163 79.7842 19.9962 69.4091H41.9149C41.8258 69.7581 41.7442 70.1071 41.6625 70.4561" fill="white"/>
<path d="M70.2936 101.836H39.0266C39.0722 91.2735 40.2622 80.7472 42.5758 70.4413H71.2365C70.6648 80.0943 70.3455 90.6829 70.3233 101.836" fill="#91AEC7"/>
<path d="M70.2935 101.836C70.2935 90.6978 70.6351 80.072 71.2068 70.4413C70.6351 80.0943 70.3158 90.6829 70.2935 101.836Z" fill="white"/>
<path d="M71.2068 70.4413H42.5758C40.2722 80.7483 39.0921 91.2746 39.0563 101.836H38.0911C38.115 90.9159 39.3982 80.0351 41.915 69.4091H71.2737L71.2068 70.4561" fill="white"/>
<path d="M105.407 101.836H71.4741C71.4741 90.6978 71.786 80.072 72.2909 70.4413H103.394C104.717 80.8542 105.389 91.3394 105.407 101.836Z" fill="#91AEC7"/>
<path d="M103.394 70.4413H72.276C71.7711 80.0943 71.4815 90.6829 71.4593 101.836H70.2935C70.2935 90.2745 70.6648 79.2998 71.2736 69.3943H103.253C103.298 69.7433 103.35 70.0923 103.394 70.4413Z" fill="white"/>
<path d="M134.832 101.836H106.506C106.489 91.3364 105.788 80.8492 104.404 70.4413H130.392C133.294 80.6555 134.793 91.2173 134.847 101.836" fill="#91AEC7"/>
<path d="M130.37 70.4413H104.382C105.765 80.8492 106.467 91.3364 106.483 101.836H105.384C105.377 90.9922 104.665 80.1605 103.253 69.4091H130.058L130.37 70.4561" fill="white"/>
<path d="M154.917 101.836H135.679C135.621 91.2119 134.094 80.647 131.142 70.4413H148.754C152.708 80.4411 154.79 91.083 154.895 101.836" fill="#91AEC7"/>
<path d="M154.917 101.836C154.805 91.0816 152.716 80.4397 148.754 70.4413C152.708 80.4411 154.79 91.083 154.895 101.836" fill="white"/>
<path d="M148.754 70.4413H131.142C134.094 80.647 135.621 91.2119 135.679 101.836H134.832C134.778 90.8559 133.17 79.9388 130.058 69.4091H148.346C148.494 69.7581 148.635 70.1071 148.776 70.4561" fill="white"/>
<path d="M158.139 77.2875C159.495 81.352 160.523 85.5186 161.213 89.7473C161.86 93.7455 162.21 97.786 162.26 101.836H155.385C155.286 91.0789 153.191 80.4337 149.207 70.4413H155.511C156.484 72.6689 157.367 74.9559 158.139 77.2875Z" fill="#91AEC7"/>
<path d="M155.511 70.4413H149.207C153.191 80.4337 155.286 91.0789 155.385 101.836H154.917C154.811 90.7072 152.581 79.7011 148.346 69.4091H155.028L155.496 70.4561" fill="white"/>
<path d="M9.16302 137.723H8.12351C6.69541 134.729 5.45549 131.649 4.41098 128.5C3.34177 124.788 2.10921 119.805 1.337 116.033C0.995449 113.219 0.54252 109.506 0.364319 106.722H1.47065C1.96032 117.462 4.57487 127.999 9.16302 137.723Z" fill="#91AEC7"/>
<path d="M20.516 137.723H9.31153C4.7443 127.995 2.14762 117.458 1.67114 106.722H14.0636C14.4492 117.346 16.6308 127.827 20.516 137.723Z" fill="#91AEC7"/>
<path d="M9.31151 137.723H9.16301C4.57486 127.999 1.96031 117.462 1.47064 106.722H1.67112C2.14759 117.458 4.74428 127.995 9.31151 137.723Z" fill="white"/>
<path d="M42.2416 137.723H21.0876C17.2387 127.82 15.0802 117.34 14.7021 106.722H38.1207C38.338 117.176 39.7202 127.574 42.2416 137.723Z" fill="#91AEC7"/>
<path d="M21.0876 137.723H20.5159C16.6308 127.827 14.4491 117.346 14.0635 106.722H14.7021C15.0802 117.34 17.2387 127.82 21.0876 137.723Z" fill="white"/>
<path d="M71.3553 137.723H43.1401C40.6664 127.567 39.3095 117.172 39.0934 106.722H70.3084C70.3752 117.778 70.7465 128.255 71.3553 137.723Z" fill="#91AEC7"/>
<path d="M43.1178 137.723H42.2416C39.7202 127.574 38.338 117.176 38.1207 106.722H39.086C39.2972 117.171 40.6491 127.567 43.1178 137.723Z" fill="white"/>
<path d="M103.068 137.723H72.4245C71.8825 128.255 71.5484 117.778 71.489 106.722H105.384C105.264 117.094 104.49 127.448 103.068 137.723Z" fill="#91AEC7"/>
<path d="M72.4246 137.723H71.3553C70.7465 128.255 70.3752 117.778 70.3084 106.722H71.489C71.5484 117.778 71.8825 128.255 72.4246 137.723Z" fill="white"/>
<path d="M129.65 137.723H104.063C105.551 127.454 106.36 117.097 106.483 106.722H134.78C134.493 117.241 132.767 127.672 129.65 137.723Z" fill="#91AEC7"/>
<path d="M104.063 137.723H103.068C104.49 127.448 105.264 117.094 105.384 106.722H106.483C106.36 117.097 105.551 127.454 104.063 137.723Z" fill="white"/>
<path d="M147.782 137.723H130.407C133.572 127.681 135.322 117.247 135.604 106.722H154.843C154.411 117.401 152.017 127.91 147.782 137.723Z" fill="#91AEC7"/>
<path d="M130.407 137.723H129.664C132.782 127.672 134.508 117.241 134.795 106.722H135.634C135.351 117.247 133.602 127.681 130.437 137.723" fill="white"/>
<path d="M161.213 116.026C159.987 123.543 157.699 130.848 154.42 137.723H148.212C152.47 127.916 154.877 117.405 155.311 106.722H162.179C162.039 109.839 161.717 112.946 161.213 116.026Z" fill="#91AEC7"/>
<path d="M148.212 137.723H147.781C152.017 127.91 154.411 117.401 154.843 106.722H155.311C154.877 117.405 152.47 127.916 148.212 137.723Z" fill="white"/>
<path d="M29.4334 164.521H28.6909C27.2727 163.214 25.3422 161.551 23.976 160.162C21.4366 157.43 18.1993 153.65 15.8753 150.725C13.7814 147.621 11.1455 143.374 9.28925 140.114C9.05907 139.668 8.82889 139.215 8.60614 138.762H9.6011C14.4062 148.599 21.1524 157.361 29.4334 164.521Z" fill="#91AEC7"/>
<path d="M9.62334 138.762H8.62838C8.4576 138.413 8.28683 138.072 8.12347 137.715H9.16298C9.32633 138.072 9.48969 138.413 9.66046 138.762" fill="white"/>
<path d="M37.6158 164.521H29.5671C21.3119 157.355 14.5911 148.593 9.80896 138.762H20.9466C24.8143 148.334 30.4775 157.078 37.6307 164.521" fill="#91AEC7"/>
<path d="M20.9317 138.762H9.79416C14.5763 148.593 21.2971 157.355 29.5522 164.521H29.4334C20.8789 157.103 13.9737 147.974 9.16302 137.723H20.5159C20.6496 138.072 20.7907 138.413 20.9317 138.762Z" fill="white"/>
<path d="M53.2307 164.521H38.0316C30.9393 157.062 25.3325 148.32 21.5109 138.762H42.5164C45.13 148.668 48.7905 157.422 53.2307 164.521Z" fill="#91AEC7"/>
<path d="M53.2307 164.521C48.7757 157.422 45.13 148.668 42.5164 138.762C45.13 148.668 48.7905 157.422 53.2307 164.521Z" fill="white"/>
<path d="M42.5164 138.762H21.5109C25.3326 148.32 30.9394 157.062 38.0317 164.521H37.6159C30.2167 156.798 24.4134 147.692 20.5382 137.723H42.2417C42.3308 138.072 42.4199 138.413 42.5164 138.762Z" fill="white"/>
<path d="M74.1472 164.521H53.8545C49.5182 157.422 45.9394 148.668 43.3851 138.762H71.4222C72.0904 148.668 73.0186 157.422 74.1472 164.521Z" fill="#91AEC7"/>
<path d="M71.4221 138.762H43.3851C45.9393 148.668 49.5182 157.422 53.8544 164.521H53.2307C48.6346 157.17 44.8701 148.052 42.2416 137.723H71.3553L71.4221 138.762Z" fill="white"/>
<path d="M96.9347 164.521H74.9194C73.9096 157.422 73.078 148.668 72.4839 138.762H102.927C101.732 147.515 99.7286 156.138 96.9421 164.521" fill="#91AEC7"/>
<path d="M102.919 138.762H72.4765C73.0705 148.668 73.9021 157.422 74.912 164.521H74.1694C73.0037 157.17 72.0459 148.052 71.3776 137.723H103.09C103.038 138.072 102.994 138.413 102.942 138.762" fill="white"/>
<path d="M116.024 164.521H97.6475C100.556 156.156 102.653 147.53 103.907 138.762H129.308C126.38 148.043 121.888 156.755 116.024 164.521Z" fill="#91AEC7"/>
<path d="M129.308 138.762H103.907C102.653 147.53 100.556 156.156 97.6475 164.521H96.905C99.8016 155.803 101.865 146.83 103.068 137.723H129.649C129.538 138.072 129.427 138.413 129.308 138.762Z" fill="white"/>
<path d="M129.063 164.521H116.574C122.519 156.775 127.084 148.061 130.065 138.762H147.321C142.992 148.468 136.787 157.222 129.063 164.521Z" fill="#91AEC7"/>
<path d="M147.321 138.762H130.065C127.084 148.061 122.519 156.775 116.574 164.521H116.024C122.102 156.456 126.714 147.385 129.649 137.723H147.781C147.633 138.072 147.477 138.413 147.321 138.762Z" fill="white"/>
<path d="M153.209 140.114C149.373 147.512 144.419 154.274 138.522 160.162C137.008 161.677 135.436 163.13 133.808 164.521H129.352C137.118 157.232 143.363 148.477 147.73 138.762H153.952C153.729 139.215 153.499 139.668 153.269 140.114" fill="#91AEC7"/>
<path d="M153.952 138.762H147.781C143.415 148.477 137.17 157.232 129.404 164.521H129.1C137.086 156.953 143.442 147.834 147.781 137.723H154.42C154.256 138.079 154.085 138.421 153.915 138.77" fill="white"/>
<path d="M58.9703 180.686H58.6659L55.6959 179.758C53.9213 179.09 51.523 178.273 49.7558 177.53C47.9887 176.788 45.9393 174.85 44.0608 174.85C40.8086 173.001 36.5541 170.395 33.4504 168.264L29.6116 165.293H30.317C38.703 172.363 48.465 177.614 58.9852 180.716" fill="#91AEC7"/>
<path d="M30.3022 165.264H29.5968L28.7132 164.521H29.4557L30.3244 165.264" fill="white"/>
<path d="M62.4898 180.686H59.0297C48.5307 177.582 38.7911 172.33 30.4284 165.264H38.3509C45.1347 172.155 53.3859 177.427 62.4898 180.686Z" fill="#91AEC7"/>
<path d="M38.3509 165.264H30.4284C38.791 172.33 48.5307 177.582 59.0297 180.686H58.9703C48.0818 177.473 38.0095 171.96 29.4334 164.521H37.601L38.3435 165.264" fill="white"/>
<path d="M69.2095 180.686H62.668C53.6341 177.417 45.4577 172.144 38.7519 165.264H53.7134C58.1684 172.251 63.4699 177.56 69.2243 180.686" fill="#91AEC7"/>
<path d="M69.2095 180.686C63.4551 177.56 58.1684 172.251 53.7134 165.264C58.1684 172.251 63.4699 177.56 69.2243 180.686" fill="white"/>
<path d="M53.7134 165.264H38.7519C45.4577 172.144 53.6341 177.417 62.668 180.686H62.4898C53.0568 177.3 44.541 171.766 37.6158 164.521H53.2085L53.6763 165.264" fill="white"/>
<path d="M78.2161 180.686H69.4768C63.8486 177.56 58.7105 172.251 54.3148 165.264H74.266C75.4094 172.251 76.7459 177.56 78.2087 180.686" fill="#91AEC7"/>
<path d="M78.2161 180.686C76.7311 177.56 75.4168 172.251 74.2734 165.264C75.4168 172.251 76.7533 177.56 78.2161 180.686Z" fill="white"/>
<path d="M74.266 165.264H54.3148C58.7105 172.251 63.8486 177.56 69.4768 180.686H69.2095C63.2695 177.449 57.8269 171.872 53.2308 164.521H74.1472C74.1472 164.774 74.2289 165.019 74.266 165.264Z" fill="white"/>
<path d="M88.0098 180.686H78.5354C77.236 177.56 76.0405 172.251 75.0233 165.264H96.6674C94.1577 172.251 91.2248 177.56 88.0098 180.686Z" fill="#91AEC7"/>
<path d="M96.6673 165.264H75.0233C76.0405 172.251 77.2508 177.56 78.5353 180.686H78.2161C76.731 177.449 75.3203 171.872 74.1545 164.521H96.9421L96.6748 165.264" fill="white"/>
<path d="M96.2218 180.686H88.3141C91.6777 177.56 94.7517 172.251 97.3727 165.264H115.445C109.877 172.251 103.357 177.56 96.2218 180.686Z" fill="#91AEC7"/>
<path d="M115.445 165.264H97.3728C94.7517 172.251 91.6777 177.56 88.3142 180.686H88.0098C91.3362 177.449 94.3656 171.872 96.9198 164.521H116.01L115.431 165.264" fill="white"/>
<path d="M101.828 180.686H96.4595C103.706 177.56 110.329 172.251 115.987 165.264H128.261C120.667 172.253 111.649 177.515 101.828 180.686Z" fill="#91AEC7"/>
<path d="M128.261 165.264H115.987C110.329 172.251 103.706 177.56 96.4595 180.686H96.2219C103.61 177.449 110.329 171.872 116.025 164.521H129.063L128.261 165.264Z" fill="white"/>
<path d="M129.107 168.256C125.747 170.725 122.199 172.93 118.497 174.85C115.067 176.461 110.411 178.429 106.869 179.765C105.882 180.092 104.887 180.404 103.899 180.694H101.976C111.848 177.527 120.921 172.266 128.573 165.271H132.961C131.714 166.303 130.437 167.306 129.122 168.241" fill="#91AEC7"/>
<path d="M132.946 165.264H128.558C120.91 172.257 111.843 177.518 101.976 180.686H101.843C112.012 177.395 121.317 171.872 129.078 164.521H133.845L132.961 165.264" fill="white"/>
<path d="M81.2678 183.887C77.3177 183.723 72.0607 183.307 68.1329 182.825C65.6232 182.312 62.2671 181.652 59.7871 181.005H60.0841C66.9819 182.923 74.1086 183.892 81.2678 183.887Z" fill="#91AEC7"/>
<path d="M94.3879 182.825C73.9318 183.887 66.8335 182.884 60.0841 181.006H59.7871L58.6659 180.686H58.9703C66.2038 182.815 73.7055 183.892 81.2455 183.887" fill="white"/>
<path d="M81.2678 183.887C74.1256 183.892 67.0162 182.922 60.136 181.005H63.4254C69.1734 182.911 75.1897 183.884 81.2455 183.887" fill="#91AEC7"/>
<path d="M92.3237 182.825C75.0976 183.887 69.1204 182.884 63.4328 181.006H60.1361C67.0162 182.922 74.1257 183.892 81.2678 183.887C73.7278 183.892 66.2261 182.815 58.9926 180.686H62.5121C68.5461 182.805 74.895 183.887 81.2901 183.887" fill="white"/>
<path d="M81.2678 183.887C75.2603 183.886 69.2925 182.914 63.5961 181.005H69.8109C73.3427 182.873 77.2727 183.861 81.2678 183.887Z" fill="#91AEC7"/>
<path d="M88.3661 182.825C77.3028 183.887 73.4566 182.884 69.8035 181.006H63.5961C69.2926 182.914 75.2603 183.886 81.2678 183.887C74.8728 183.887 68.5238 182.805 62.4898 180.686H69.2095C72.8943 182.754 77.0426 183.855 81.2678 183.887" fill="white"/>
<path d="M81.2678 183.887C77.3484 183.861 73.4954 182.872 70.0485 181.005H78.3423C79.2704 182.884 80.2506 183.887 81.2529 183.887" fill="#91AEC7"/>
<path d="M83.0721 182.825C80.2654 183.887 79.2853 182.884 78.3572 181.006H70.0485C73.491 182.869 77.3385 183.859 81.2529 183.887C77.0278 183.855 72.8794 182.754 69.1946 180.686H78.2161C79.1888 182.773 80.2134 183.887 81.2752 183.887" fill="white"/>
<path d="M81.2678 183.887C80.3694 183.887 79.5006 182.884 78.6765 181.005H87.6756C85.6337 182.884 83.4879 183.887 81.2678 183.887Z" fill="#91AEC7"/>
<path d="M77.3102 182.825C83.4879 183.887 85.6337 182.884 87.7053 181.006H78.6765C79.5006 182.884 80.3694 183.887 81.2678 183.887C80.206 183.887 79.1814 182.773 78.2087 180.686H88.0098C85.8713 182.773 83.6067 183.887 81.2678 183.887" fill="white"/>
<path d="M81.2678 183.887C83.5918 183.887 85.8342 182.884 87.9503 181.005H95.4645C90.9646 182.897 86.1341 183.876 81.2529 183.887" fill="#91AEC7"/>
<path d="M72.4765 182.825C86.1906 183.887 90.9501 182.884 95.4942 181.006H87.9652C85.8342 182.884 83.5918 183.887 81.2826 183.887C83.6215 183.887 85.8862 182.773 88.0246 180.686H96.2367C91.5298 182.784 86.436 183.875 81.2826 183.887" fill="white"/>
<path d="M81.2678 183.887C86.2211 183.877 91.1247 182.899 95.7021 181.005H100.803C94.4679 182.919 87.8856 183.89 81.2678 183.887Z" fill="#91AEC7"/>
<path d="M69.1724 182.825C88.032 183.887 94.5809 182.884 100.803 181.006H95.7021C91.1247 182.899 86.2211 183.877 81.2678 183.887C86.4211 183.875 91.515 182.784 96.2219 180.686H101.828C95.1816 182.811 88.2455 183.891 81.2678 183.887" fill="white"/>
<path d="M94.4101 182.825C90.4823 183.307 85.2253 183.723 81.2678 183.887C87.9271 183.89 94.5511 182.92 100.929 181.005H102.756C100.009 181.761 97.2227 182.369 94.4101 182.825Z" fill="#91AEC7"/>
<path d="M102.756 181.006H100.929C94.5511 182.92 87.9271 183.89 81.2678 183.887C88.2455 183.891 95.1815 182.811 101.828 180.686H103.877L102.756 181.006Z" fill="white"/>
<path d="M162.268 102.89C162.268 104.172 162.238 105.45 162.179 106.722L0.364306 106.722L0.25293 102.89L0.25293 101.836L162.26 101.836C162.26 102.185 162.26 102.534 162.26 102.89" fill="white"/>
</g>
</g>
<defs>
<clipPath id="clip0_101_542">
<rect width="162" height="162" fill="white" transform="translate(0.275208 21.8866)"/>
</clipPath>
</defs>
</svg>
