<svg width="163" height="215" viewBox="0 0 163 215" fill="none" xmlns="http://www.w3.org/2000/svg">
<line x1="83.5" y1="8" x2="83.5" y2="214.049" stroke="#91AEC7" stroke-width="3"/>
<g clip-path="url(#clip0_38_540)">
<path d="M85.8125 1.14258L85.8125 0.843749C85.8125 0.376171 86.5857 -5.72817e-07 87.5469 -5.30805e-07L96.7969 -1.26475e-07C97.4979 -9.58339e-08 98.1338 0.203906 98.4012 0.520313C98.6686 0.836719 98.524 1.19883 98.0254 1.44141L95.0191 2.90391C101.27 5.98359 101.248 10.9441 94.9469 14.0063C88.6236 17.0824 78.3764 17.0824 72.0531 14.0063C65.7299 10.9301 65.7299 5.94492 72.0531 2.86875C72.9564 2.4293 74.4234 2.4293 75.3268 2.86875C76.2301 3.3082 76.2301 4.02187 75.3268 4.46133C70.8102 6.65859 70.8102 10.2199 75.3268 12.4172C79.8434 14.6145 87.1639 14.6145 91.6805 12.4172C96.1754 10.2305 96.1971 6.69727 91.7527 4.49648L88.7754 5.94141C88.2768 6.18398 87.5324 6.2543 86.882 6.12422C86.2316 5.99414 85.8125 5.68477 85.8125 5.34375L85.8125 1.14258Z" fill="#91AEC7"/>
</g>
<g clip-path="url(#clip1_38_540)">
<mask id="mask0_38_540" style="mask-type:luminance" maskUnits="userSpaceOnUse" x="0" y="28" width="163" height="163">
<path d="M81.6458 190.653C67.8213 190.629 54.2335 187.064 42.1777 180.298C30.122 173.532 20.0002 163.791 12.7776 152.002C5.5549 140.214 1.47207 126.772 0.918363 112.958C0.364653 99.1442 3.35852 85.4186 9.61451 73.0901C15.8705 60.7615 25.1801 50.2411 36.6556 42.5317C48.1311 34.8224 61.39 30.1812 75.1682 29.0506C88.9464 27.9201 102.784 30.3378 115.363 36.0734C127.942 41.809 138.842 50.6712 147.023 61.815C149.478 65.1927 151.673 68.7523 153.587 72.4631C157.5 80.0192 160.194 88.1463 161.569 96.5436C162.974 105.247 162.974 114.119 161.569 122.822C160.192 131.212 157.499 139.332 153.587 146.88C149.751 154.278 144.797 161.04 138.9 166.929C133.009 172.821 126.248 177.772 118.853 181.609C115.422 183.22 110.767 185.188 107.225 186.525C103.16 187.876 98.9938 188.902 94.7659 189.591C90.8603 190.074 85.6033 190.527 81.6458 190.653Z" fill="white"/>
</mask>
<g mask="url(#mask0_38_540)">
<path d="M81.6458 190.653C85.6033 190.49 90.8603 190.074 94.7881 189.591C99.0161 188.902 103.182 187.876 107.247 186.525C110.789 185.188 115.415 183.22 118.875 181.609C126.27 177.772 133.032 172.82 138.923 166.929C144.819 161.04 149.773 154.278 153.609 146.88C157.524 139.322 160.218 131.192 161.591 122.792C162.997 114.089 162.997 105.217 161.591 96.5139C160.206 88.1255 157.505 80.0086 153.587 72.4631C147.819 61.3486 139.563 51.7154 129.463 44.3134C119.22 36.7759 107.337 31.7731 94.7881 29.715C83.7452 27.9027 72.4466 28.3983 61.6048 31.1707C50.763 33.943 40.6133 38.9319 31.7956 45.8227C22.978 52.7136 15.6838 61.3568 10.3731 71.2074C5.06233 81.0581 1.85025 91.9023 0.939402 103.056C0.0285568 114.21 1.43871 125.432 5.08092 136.014C8.72314 146.596 14.5184 156.308 22.1012 164.538C29.684 172.768 38.8899 179.338 49.1383 183.833C59.3866 188.327 70.4551 190.65 81.6458 190.653Z" fill="#9E9E9E"/>
<path d="M0.630913 109.657C0.622692 118.061 1.92279 126.416 4.48452 134.421C-11.9917 79.6286 36.1153 38.8705 87.6007 64.0872C142.917 91.1751 146.816 169.09 93.7338 186.681C82.5962 190.393 64.531 192.265 41.9143 180.25C54.0386 187.088 67.7266 190.669 81.6458 190.646C85.6033 190.482 90.8603 190.067 94.7881 189.584C99.0161 188.895 103.182 187.869 107.247 186.517C110.789 185.181 115.415 183.213 118.875 181.602C126.27 177.764 133.032 172.813 138.923 166.922C144.819 161.033 149.773 154.271 153.609 146.873C157.524 139.315 160.218 131.185 161.591 122.785C162.997 114.082 162.997 105.21 161.591 96.5065C160.205 88.1207 157.504 80.0063 153.587 72.4631C147.819 61.3486 139.563 51.7154 129.463 44.3134C119.22 36.7759 107.337 31.7731 94.7881 29.715C83.1941 27.8153 71.3257 28.4589 60.0051 31.6013C48.6844 34.7437 38.1823 40.3097 29.2261 47.9138C20.2698 55.5178 13.0737 64.9781 8.13618 75.6393C3.19865 86.3005 0.637763 97.9077 0.630913 109.657Z" fill="#9E9E9E"/>
<path d="M0.63092 109.657C0.652116 113.172 0.900133 116.681 1.37343 120.164C-5.11608 59.0973 56.898 31.3635 106.668 73.0868C152.288 111.342 138.551 184.252 84.7197 189.525C70.4042 190.928 62.0065 188.336 55.2571 186.257C63.7491 189.175 72.6668 190.66 81.6458 190.653C85.6033 190.49 90.8603 190.074 94.7881 189.591C99.0161 188.902 103.182 187.876 107.247 186.525C110.789 185.188 115.415 183.22 118.875 181.609C126.27 177.772 133.032 172.82 138.923 166.929C144.819 161.04 149.773 154.278 153.609 146.88C157.524 139.322 160.218 131.192 161.591 122.792C162.997 114.089 162.997 105.217 161.591 96.5139C160.206 88.1256 157.505 80.0086 153.587 72.4631C147.819 61.3486 139.563 51.7154 129.463 44.3134C119.22 36.7759 107.337 31.7731 94.7881 29.715C83.1941 27.8153 71.3257 28.4589 60.0051 31.6013C48.6845 34.7437 38.1823 40.3097 29.2261 47.9138C20.2698 55.5178 13.0737 64.9781 8.13619 75.6393C3.19866 86.3005 0.63777 97.9077 0.63092 109.657Z" fill="#999999"/>
<path d="M0.682892 107.674C5.42008 41.5882 78.4159 33.0639 117.791 79.3984C159.253 128.183 132.582 194.388 73.2406 190.089C70.3077 189.881 68.2732 189.539 67.1892 189.346C71.9724 190.207 76.8229 190.639 81.6829 190.638C85.6405 190.475 90.8974 190.059 94.8253 189.577C99.0533 188.887 103.22 187.862 107.285 186.51C110.826 185.173 115.452 183.206 118.912 181.594C126.307 177.757 133.069 172.806 138.96 166.914C144.856 161.026 149.81 154.263 153.647 146.866C157.561 139.307 160.255 131.178 161.629 122.778C163.034 114.074 163.034 105.202 161.629 96.4991C160.23 88.1137 157.516 80.0018 153.587 72.4631C147.819 61.3486 139.563 51.7154 129.463 44.3134C119.22 36.7759 107.337 31.7731 94.7881 29.715C83.361 27.8465 71.6662 28.4482 60.4912 31.4795C49.3161 34.5108 38.9203 39.9014 30.0035 47.2883C21.0867 54.6751 13.8561 63.8869 8.79843 74.3032C3.74076 84.7195 0.973474 96.0986 0.682892 107.674Z" fill="#949494"/>
<path d="M1.81892 95.9273C13.3203 35.7816 89.2342 29.0987 126.79 84.9674C158.042 131.465 136.123 193.794 74.2281 190.312L74.8073 190.364C77.0645 190.557 79.344 190.653 81.6458 190.653C85.6033 190.49 90.8603 190.074 94.7881 189.591C99.0161 188.902 103.182 187.876 107.247 186.525C110.789 185.188 115.415 183.22 118.875 181.609C126.27 177.772 133.032 172.82 138.923 166.929C144.819 161.04 149.773 154.278 153.609 146.88C157.524 139.322 160.218 131.192 161.591 122.792C162.997 114.089 162.997 105.217 161.591 96.5139C160.206 88.1256 157.505 80.0086 153.587 72.4631C147.819 61.3486 139.563 51.7154 129.463 44.3134C119.22 36.7759 107.337 31.7731 94.7881 29.715C73.6931 26.2667 52.0899 31.289 34.6789 43.689C17.2679 56.0891 5.45807 74.8635 1.81892 95.9273Z" fill="#8F8F8F"/>
<path d="M4.78152 84.0838C28.0442 22.8837 109.98 32.7372 139.665 100.316C150.803 125.644 148.508 189.673 77.0719 190.527C78.5866 190.611 80.1113 190.653 81.6458 190.653C85.6033 190.49 90.8603 190.074 94.7881 189.591C99.0161 188.902 103.182 187.876 107.247 186.525C110.789 185.188 115.415 183.22 118.875 181.609C126.27 177.772 133.032 172.821 138.923 166.929C144.819 161.04 149.773 154.278 153.609 146.88C157.524 139.322 160.218 131.192 161.591 122.792C162.997 114.089 162.997 105.217 161.591 96.5139C160.206 88.1256 157.505 80.0086 153.587 72.4631C147.819 61.3486 139.563 51.7154 129.463 44.3134C119.22 36.7759 107.337 31.7731 94.7881 29.715C75.7727 26.6073 56.272 30.3718 39.7795 40.3342C23.2869 50.2966 10.8801 65.8059 4.78152 84.0838Z" fill="#8A8A8A"/>
<path d="M10.4988 70.9334C46.5921 11.3594 133.755 46.0435 147.707 109.657C154.129 138.876 142.115 174.726 106.728 186.695L107.247 186.525C110.789 185.188 115.415 183.22 118.875 181.609C126.27 177.772 133.032 172.821 138.923 166.929C144.819 161.04 149.773 154.278 153.609 146.88C157.524 139.322 160.218 131.192 161.591 122.792C162.997 114.089 162.997 105.217 161.591 96.5139C160.206 88.1256 157.505 80.0086 153.587 72.4631C147.819 61.3486 139.563 51.7154 129.463 44.3134C119.22 36.7759 107.337 31.7731 94.7881 29.715C78.1995 27.0036 61.1784 29.5135 46.0783 36.8976C30.9782 44.2817 18.5453 56.1752 10.4988 70.9334Z" fill="#858585"/>
<path d="M21.8592 164.286C63.7885 208.689 127.34 190.356 128.112 133.634C128.854 76.3837 57.2396 36.7766 18.5996 73.0868C-7.66287 97.7688 -0.913494 140.168 21.8592 164.286Z" fill="#A3A3A3"/>
<path d="M22.0448 164.286C62.348 206.737 124.043 188.381 125.194 133.596C126.308 80.4008 57.6851 41.5214 20.2999 74.1041C-7.1357 98.051 -0.950618 140.034 22.0448 164.286Z" fill="#A8A8A8"/>
<path d="M17.7086 158.665C52.9702 203.403 115.348 192.562 122.001 140.547C128.268 91.435 65.0656 42.056 21.2652 76.1089C-1.8045 94.0413 -3.43801 131.866 17.7086 158.665Z" fill="#ADADAD"/>
<path d="M18.2283 158.665C52.6509 202.088 112.95 191.27 119.046 140.532C124.867 92.1107 64.6201 45.0485 21.5176 78.6113C-0.854105 96.0313 -2.33912 132.691 18.2283 158.665Z" fill="#B3B3B3"/>
<path d="M18.9188 158.665C55.4205 204.294 113.217 185.351 116.321 139.462C119.967 85.7248 56.0961 52.86 23.3887 79.8439C-4.67058 102.996 3.8831 139.871 18.9337 158.665" fill="#B8B8B8"/>
<path d="M15.5404 152.657C43.5775 196.133 103.438 192.175 112.593 146.242C122.64 95.8234 62.7416 52.9862 23.5818 82.5616C3.51183 97.7094 -0.0224947 128.503 15.5404 152.657Z" fill="#BDBDBD"/>
<path d="M16.5131 152.657C43.8076 194.648 100.416 190.757 109.727 146.242C120.234 95.9199 61.9471 60.5824 26.4479 83.7348C2.70251 99.1945 2.80646 131.547 16.5131 152.657Z" fill="#C2C2C2"/>
<path d="M17.6417 152.657C43.9339 192.71 97.3275 188.871 106.906 146.242C118.363 95.2145 63.2168 66.8866 30.0713 84.2992C7.38029 96.2243 1.57389 128.154 17.6417 152.657Z" fill="#C7C7C7"/>
<path d="M18.9188 152.657C43.4216 189.859 93.6966 186.072 104.307 146.242C117.397 97.2342 60.076 68.4608 29.3511 87.752C5.82846 102.514 5.56116 132.342 18.9188 152.657Z" fill="#CCCCCC"/>
<path d="M20.4187 152.657C46.2208 190.453 96.5924 182.456 103.334 139.485C109.586 99.64 62.8901 69.4929 28.7645 91.2642C11.8725 102.061 4.49195 129.29 20.4187 152.657Z" fill="#D1D1D1"/>
<path d="M18.4065 146.22C36.1598 181.319 84.9054 187.059 99.0575 146.22C112.623 107.08 70.7012 76.1609 37.2439 89.7865C13.7213 99.343 8.51634 126.698 18.4065 146.22Z" fill="#D6D6D6"/>
<path d="M20.1885 146.22C38.1869 181.646 83.2421 181.646 96.7112 146.22C110.462 110.05 72.951 76.5693 36.8504 92.7567C17.4932 101.422 9.86769 125.926 20.1885 146.22Z" fill="#DBDBDB"/>
<path d="M22.3269 146.22C42.434 184.052 88.41 174.176 96.8894 139.462C105.599 103.746 63.7068 79.4355 36.5311 95.6526C13.6471 109.323 15.481 133.351 22.3269 146.22Z" fill="#E0E0E0"/>
<path d="M24.7104 146.22C44.216 181.988 86.7616 167.842 95.1742 139.462C104.003 109.694 68.5183 78.9454 36.2786 98.5114C22.6982 106.754 14.4193 127.337 24.7104 146.22Z" fill="#E6E6E6"/>
<path d="M27.3611 146.22C45.8198 177.28 84.6306 164.635 93.4442 139.462C103.238 111.439 70.5379 86.9352 45.7233 95.9348C27.3611 102.588 15.3622 126.008 27.3611 146.22Z" fill="#EBEBEB"/>
<path d="M30.4797 146.22C48.7602 174.436 90.1029 160.328 93.5259 132.393C96.6667 106.731 63.2762 83.5195 38.5804 101.853C26.6112 110.763 20.0994 130.24 30.45 146.22" fill="#F0F0F0"/>
<path d="M30.1084 139.462C41.647 168.013 79.7375 163.885 89.947 139.462C93.9417 129.891 92.3379 125.213 89.6797 117.454C87.8011 111.966 86.3978 110.719 77.2947 102.603C77.1685 102.491 64.3082 91.6949 45.4709 99.7291C29.4253 106.568 24.5767 125.815 30.1084 139.492" fill="#F5F5F5"/>
<path d="M32.7592 139.462C43.7854 162.927 76.9457 162.927 88.2021 139.462C95.397 124.463 86.2419 111.877 77.2873 103.962C77.1388 103.828 66.3204 98.7638 66.1497 98.7638C53.6236 97.8357 53.6236 97.8357 45.3595 101.585C45.263 101.63 34.5115 108.588 31.5563 117.439C29.1803 124.582 30.294 134.235 32.7443 139.448" fill="#FAFAFA"/>
<path d="M35.2688 139.462C48.5448 162.986 84.7197 158.234 89.0337 132.393C92.8502 109.464 65.0656 91.0266 45.3075 103.33C31.4078 112.011 29.2768 128.844 35.2688 139.462Z" fill="#91AEC7"/>
<path d="M37.875 139.462C51.3515 161.791 83.8362 153.69 87.7566 132.393C91.5582 111.788 66.3724 91.6874 45.2555 105.046C36.7464 110.429 29.8263 126.126 37.875 139.462Z" fill="#91AEC7"/>
<path d="M38.1646 135.148C45.7976 152.19 59.2889 151.425 68.199 150.92C68.3475 150.92 83.6208 146.531 86.5908 132.393C89.7168 117.543 77.4061 108.246 77.2798 108.172C69.9142 103.65 59.8384 97.3679 45.2184 106.768C45.0699 106.865 30.6207 118.315 38.1646 135.148Z" fill="#91AEC7"/>
<path d="M81.6458 190.653C83.2446 190.653 84.8287 190.606 86.3978 190.512C84.1703 190.631 80.4578 190.646 79.1584 190.616H79.3366C80.0791 190.616 80.8661 190.616 81.6309 190.616" fill="#858585"/>
<path d="M38.573 132.393C43.1023 146.94 58.6207 149.836 58.7617 149.858C69.8993 151.662 78.9653 144.66 82.3214 139.462C89.5089 128.406 83.554 117.55 83.4798 117.454C77.3467 109.241 77.3467 109.241 66.068 103.583C63.1945 102.142 58.5019 102.662 55.3759 103.36C51.6473 104.319 48.1698 106.072 45.1813 108.499C44.372 109.189 42.679 110.622 38.7215 117.454C38.7215 117.513 36.4197 125.54 38.5507 132.393" fill="#91AEC7"/>
<path d="M39.9837 132.393C44.7284 145.856 58.2939 148.291 58.4202 148.291C69.1494 148.291 69.1494 148.291 77.7253 143.042C81.0518 140.992 84.2891 132.475 84.3114 132.393C87.9719 118.411 75.5275 109.731 75.4013 109.657C68.0802 105.32 58.9696 99.9148 45.9461 109.657C39.0408 114.855 37.5112 125.25 40.006 132.393" fill="#91AEC7"/>
<path d="M41.3722 132.393C42.8858 135.963 45.2063 139.132 48.1513 141.653C48.827 142.225 57.7593 146.769 58.2197 146.769C61.0783 146.769 64.9988 147.512 67.7535 146.769C67.8797 146.732 76.8269 141.928 77.6288 141.46C79.5445 140.354 83.0491 132.483 83.0714 132.408C84.7791 126.468 84.4673 117.706 73.3148 109.672C71.3026 108.187 68.5182 105.848 66.0383 105.729C56.0367 105.254 56.0367 105.254 49.9704 108.565C44.2457 111.684 36.8429 120.921 41.3722 132.408" fill="#91AEC7"/>
<path d="M42.7978 132.393C43.9557 135.057 45.6374 137.461 47.7429 139.462C50.4159 141.749 54.7745 143.695 57.8856 145.336C60.4695 146.702 64.7092 145.514 67.6347 145.514C71.0725 145.514 75.0597 142.165 77.5917 139.834C78.104 139.366 81.8759 132.445 81.8908 132.408C85.0984 122.08 77.3615 114.268 77.2798 114.194C75.5572 112.531 68.6371 107.674 66.0309 106.768C62.9792 105.744 58.4276 106.026 55.3091 106.82C48.9458 108.439 37.0137 119.095 42.7978 132.371" fill="#91AEC7"/>
<path d="M44.2457 132.393C46.993 138.564 51.5223 140.896 57.789 144.126C60.3878 145.462 64.6052 144.378 67.5307 144.378C70.4562 144.378 73.7752 141.408 75.9359 139.462C78.0545 137.507 79.6912 135.088 80.7176 132.393C83.747 122.896 77.3541 115.761 77.2872 115.694C77.2204 115.627 69.2311 109.011 66.0234 107.867C62.9866 106.798 58.4127 107.199 55.3016 108.008C55.1012 108.06 37.1028 116.355 44.2457 132.393Z" fill="#91AEC7"/>
<path d="M45.7085 132.393C46.696 134.569 49.5472 138.824 57.5886 142.834C60.2319 144.155 64.4642 143.227 67.4193 143.227C67.501 143.227 77.5842 138.49 79.537 132.393C82.5071 123.164 77.3095 117.261 77.3095 117.209C77.3095 117.157 67.4565 109.471 66.0234 108.944C63.0014 107.838 58.4053 108.365 55.2942 109.182C53.9726 109.531 46.0129 117.394 45.9832 117.454C44.4982 121.077 42.6345 125.584 45.7085 132.393Z" fill="#91AEC7"/>
<path d="M46.2431 129C46.5029 130.025 46.4658 131.606 47.1712 132.393C52.6806 138.586 54.9675 141.148 57.4104 141.534C60.3804 142.009 64.5384 143.108 67.3228 142.061C72.0749 140.279 77.4283 134.057 77.4729 133.997C80.881 129.668 78.9579 120.632 75.9433 117.454C73.3965 114.758 69.5355 111.261 66.0234 110.028C62.4932 109.044 58.7446 109.179 55.2942 110.414C52.3242 111.58 48.827 114.58 47.4385 117.416C44.7209 123 45.3595 125.503 46.2431 128.963" fill="#91AEC7"/>
<path d="M48.6042 132.393C48.6042 132.445 54.6928 139.076 57.2322 140.227C59.972 141.475 64.2266 140.896 67.2263 140.896C68.2287 140.896 76.1364 134.064 77.1091 132.393C79.6113 127.938 77.6362 120.58 74.3321 117.454C72.1046 115.322 69.0009 112.159 66.0234 111.268C62.4772 110.372 58.7446 110.553 55.3016 111.788C52.9256 112.753 49.7031 115.018 48.9161 117.454C46.2208 125.748 45.6565 127.478 48.6042 132.393Z" fill="#91AEC7"/>
<path d="M50.0521 132.394C51.5371 134.807 54.4329 137.71 57.0539 138.831C57.247 138.913 66.3873 139.715 67.1372 139.715C67.3228 139.715 75.2453 132.735 75.4384 132.394C76.5744 130.448 77.3615 127.263 76.9234 125.05C76.2434 122.175 74.7782 119.545 72.6911 117.454C70.8868 115.723 68.4291 113.073 66.0086 112.471C62.4474 111.675 58.734 111.899 55.2942 113.117C50.4902 115.1 44.8991 124.255 50.0298 132.423" fill="#91AEC7"/>
<path d="M51.5149 132.393C52.7029 134.235 54.8339 136.544 56.8758 137.331C59.7344 138.438 64.1226 139.351 67.0332 138.408C69.6172 137.569 72.3422 134.695 73.7826 132.393C74.9855 130.485 75.5424 127.307 75.4533 125.05C75.3716 123.03 70.0701 114.84 66.0457 113.659C62.9495 112.761 58.4499 113.607 55.3388 114.402C54.0171 114.758 52.7474 116.332 51.9084 117.416C51.849 117.491 46.4955 124.567 51.5149 132.356" fill="#91AEC7"/>
<path d="M52.9999 132.393C53.8315 133.656 55.2274 135.364 56.7124 135.817C59.6453 136.797 64.0038 137.985 66.9516 137.049C72.4535 135.304 74.0351 126.839 73.9683 125.05C73.8569 122.421 71.1764 119.54 69.5652 117.454C68.666 116.275 67.4544 115.372 66.068 114.847C62.9792 113.964 58.5316 115.107 55.3833 115.753C54.6408 115.909 53.8983 116.837 53.438 117.454C51.953 119.414 50.5942 122.607 50.5273 125.05C50.4605 127.374 51.7302 130.455 53.0147 132.393" fill="#91AEC7"/>
<path d="M54.4923 132.393C54.9601 133.091 55.7249 134.072 56.5342 134.287C59.5488 135.096 63.8627 136.611 66.8476 135.683C68.408 135.04 69.6985 133.878 70.5008 132.393C71.5625 130.374 72.7654 127.307 72.4535 125.05C72.1046 122.429 69.4835 119.614 67.9985 117.454C67.4881 116.832 66.8328 116.345 66.0903 116.035C66.016 115.998 55.6952 116.503 54.9527 117.454C53.5196 119.451 51.9158 122.585 51.8416 125.05C51.7673 127.389 53.1855 130.448 54.4923 132.393Z" fill="#91AEC7"/>
<path d="M55.9996 132.393C56.5862 133.255 66.6843 134.332 66.7585 134.309C67.6756 133.956 68.4277 133.273 68.8672 132.393C69.8176 130.307 71.2655 127.322 70.9759 125.05C70.9759 124.983 66.6471 117.416 66.0903 117.216C65.4072 116.971 56.0887 118.998 55.4873 119.518C54.0274 120.991 53.1991 122.976 53.1781 125.05C53.2746 127.404 54.6631 130.448 55.9996 132.393Z" fill="#91AEC7"/>
<path d="M56.0516 129.052C57.4252 130.537 65.4888 133.285 66.6768 132.921C67.8648 132.557 69.5058 125.117 69.4984 125.05C69.2608 123.119 67.9465 120.238 66.1422 119.518C63.1054 118.3 58.0712 120.26 55.6209 122.429C54.1359 123.75 54.7002 127.626 56.0516 129.052Z" fill="#91AEC7"/>
<path d="M66.5135 129.891C67.9094 129.282 68.2138 126.557 67.9985 125.05C67.8723 124.003 67.1595 122.436 66.1794 122.08C63.3281 120.995 59.3706 124.159 56.46 125.05C59.43 126.535 63.4247 131.228 66.4838 129.891" fill="#91AEC7"/>
<path d="M66.3353 125.8C66.5506 125.711 66.6026 125.28 66.5729 125.057C66.5628 124.964 66.5323 124.875 66.4835 124.795C66.4347 124.716 66.3689 124.648 66.2907 124.597C65.8378 124.426 65.2215 124.916 64.7612 125.057C65.2289 125.28 65.8526 126.015 66.3353 125.8Z" fill="#91AEC7"/>
<path d="M105.688 32.2768C97.9011 29.8696 89.7963 28.6481 81.6458 28.6532C89.7964 28.6457 97.9017 29.8673 105.688 32.2768Z" fill="#91AEC7"/>
<path d="M135.307 48.9765C133.436 47.3182 131.495 45.7539 129.485 44.2837C122.715 39.3174 115.213 35.4368 107.247 32.7817L106.802 32.6332C117.32 36.0723 127.022 41.6322 135.307 48.9691" fill="#91AEC7"/>
<path d="M135.307 48.9765C127.025 41.6378 117.326 36.0755 106.809 32.6332C117.328 36.0723 127.029 41.6322 135.314 48.9691" fill="#231F20"/>
<path d="M155.421 76.1758C154.849 74.9134 154.241 73.6734 153.609 72.4631C149.775 65.0639 144.821 58.3013 138.923 52.4145C138.017 51.5135 137.094 50.6324 136.153 49.771C144.297 57.1772 150.852 66.1603 155.421 76.1758Z" fill="#91AEC7"/>
<path d="M162.638 108.602C162.588 104.553 162.238 100.512 161.591 96.5139C160.901 92.2852 159.873 88.1186 158.517 84.0541C157.775 81.7225 156.862 79.4429 155.889 77.2079C160.221 87.1143 162.516 97.7909 162.638 108.602Z" fill="#91AEC7"/>
<path d="M155.889 77.2079L155.421 76.1758L155.889 77.2228" fill="#231F20"/>
<path d="M154.797 144.489C159.433 134.782 162.071 124.242 162.557 113.496C162.068 124.242 159.429 134.781 154.797 144.489Z" fill="#91AEC7"/>
<path d="M134.208 171.288C135.831 169.897 137.403 168.444 138.923 166.929C144.819 161.04 149.773 154.278 153.609 146.88C153.84 146.435 154.07 145.982 154.293 145.529C149.42 155.382 142.6 164.145 134.245 171.288" fill="#91AEC7"/>
<path d="M104.255 187.453C105.265 187.163 106.26 186.851 107.225 186.525C110.767 185.188 115.393 183.22 118.853 181.609C122.555 179.691 126.102 177.489 129.463 175.023C130.777 174.065 132.055 173.062 133.302 172.053C124.774 179.136 114.879 184.386 104.233 187.475" fill="#91AEC7"/>
<path d="M81.6458 190.653C85.6033 190.49 90.8603 190.074 94.7881 189.591C97.6007 189.135 100.387 188.528 103.134 187.772C96.1324 189.69 88.9051 190.659 81.6458 190.653Z" fill="#91AEC7"/>
<path d="M103.438 32.2768H105.666C97.8868 29.8683 89.7891 28.6467 81.6458 28.6532C89.0601 28.6503 96.4238 29.8747 103.438 32.2768Z" fill="#91AEC7"/>
<path d="M105.681 32.2768C97.8966 29.868 89.7939 28.6465 81.6458 28.6532C89.794 28.6452 97.8969 29.8668 105.681 32.2768Z" fill="#231F20"/>
<path d="M97.4389 32.2768H103.297C96.3314 29.8749 89.0141 28.6503 81.6458 28.6532C87.114 28.6721 92.5093 29.91 97.4389 32.2768Z" fill="#91AEC7"/>
<path d="M103.297 32.2768H103.438C96.4238 29.8747 89.0601 28.6503 81.6458 28.6532C89.0141 28.6503 96.3314 29.8749 103.297 32.2768Z" fill="#231F20"/>
<path d="M88.655 32.2768H97.1567C92.3251 29.9166 87.0229 28.6779 81.6458 28.6532C84.0886 28.6532 86.4423 29.9229 88.655 32.2768Z" fill="#91AEC7"/>
<path d="M97.1567 32.2768H97.4092C92.4886 29.9143 87.104 28.6765 81.6458 28.6532C87.0229 28.6779 92.3251 29.9166 97.1567 32.2768Z" fill="#231F20"/>
<path d="M88.655 32.2768C86.4275 29.9229 84.0886 28.6532 81.6458 28.6532C84.0886 28.6532 86.4423 29.9229 88.655 32.2768Z" fill="#231F20"/>
<path d="M78.2005 32.2768H88.3209C86.2122 29.9229 83.9698 28.6532 81.6383 28.6532C80.4429 28.6532 79.2846 29.9229 78.1931 32.2768" fill="#91AEC7"/>
<path d="M88.3209 32.2768H88.655C86.4275 29.9229 84.0886 28.6532 81.6458 28.6532C83.9698 28.6532 86.2122 29.9229 88.3283 32.2768" fill="#231F20"/>
<path d="M78.2005 32.2768C79.292 29.9229 80.428 28.6532 81.6458 28.6532C80.4503 28.6532 79.292 29.9229 78.2005 32.2768Z" fill="#231F20"/>
<path d="M68.7039 32.2768H77.8516C79.047 29.9229 80.3241 28.6532 81.6383 28.6532C77.0822 28.6954 72.6189 29.9458 68.7039 32.2768Z" fill="#91AEC7"/>
<path d="M77.8516 32.2768H78.1931C79.2846 29.9229 80.4206 28.6532 81.6383 28.6532C80.3241 28.6532 79.047 29.9229 77.8516 32.2768Z" fill="#231F20"/>
<path d="M61.5981 32.2768H68.4217C72.4397 29.9396 76.9977 28.6907 81.6458 28.6532C74.8005 28.6551 68.0109 29.8823 61.5981 32.2768Z" fill="#91AEC7"/>
<path d="M68.4217 32.2768H68.7039C72.621 29.9445 77.0871 28.6941 81.6458 28.6532C76.9977 28.6907 72.4397 29.9396 68.4217 32.2768Z" fill="#231F20"/>
<path d="M57.9078 32.2768H61.4199C67.8942 29.8813 74.7425 28.6544 81.6458 28.6532C73.5874 28.6445 65.575 29.8664 57.8856 32.2768" fill="#91AEC7"/>
<path d="M61.4199 32.2768H61.5981C68.0109 29.8823 74.8005 28.6551 81.6458 28.6532C74.7425 28.6543 67.8942 29.8813 61.4199 32.2768Z" fill="#231F20"/>
<path d="M57.9078 32.2768C67.3005 29.7373 70.5304 28.9948 81.668 28.6532C73.6097 28.6445 65.5973 29.8664 57.9078 32.2768Z" fill="#231F20"/>
<path d="M57.6108 32.2768H57.8559C65.5466 29.872 73.5582 28.6502 81.6161 28.6532C73.4778 28.6493 65.3854 29.8709 57.6108 32.2768Z" fill="#91AEC7"/>
<path d="M57.8559 32.2768H57.9078C67.3005 29.7373 70.5304 28.9948 81.668 28.6532C73.6101 28.6502 65.5986 29.872 57.9078 32.2768" fill="#231F20"/>
<path d="M130.287 48.9765H135.292C127.016 41.637 117.322 36.0744 106.809 32.6332H104.463C114.147 36.1645 122.959 41.7355 130.302 48.9691" fill="#91AEC7"/>
<path d="M104.448 32.6332H106.809C117.326 36.0704 127.026 41.6305 135.307 48.9691C127.024 41.633 117.325 36.0733 106.809 32.6332L105.696 32.2768H103.468L104.478 32.6332" fill="#231F20"/>
<path d="M116.885 48.9765H129.961C122.679 41.7489 113.923 36.1769 104.292 32.6406H98.1665C105.154 36.1157 111.532 41.7293 116.885 48.9765Z" fill="#91AEC7"/>
<path d="M116.885 48.9765C111.509 41.7219 105.154 36.1083 98.1665 32.6406C105.154 36.1157 111.532 41.7293 116.885 48.9765Z" fill="#231F20"/>
<path d="M98.1665 32.6332H104.292C113.923 36.1695 122.679 41.7415 129.961 48.9691H130.287C122.688 41.4804 113.516 35.7783 103.438 32.2768H97.4389L98.1814 32.6332" fill="#231F20"/>
<path d="M97.2829 48.9765H116.321C111.027 41.7219 104.775 36.0786 97.8992 32.6332H88.9891C92.0928 36.1083 94.9292 41.7219 97.2978 48.9691" fill="#91AEC7"/>
<path d="M97.2829 48.9765C94.9292 41.7219 92.078 36.0786 88.9891 32.6332C92.0928 36.1083 94.9292 41.7219 97.2978 48.9691" fill="#231F20"/>
<path d="M88.9892 32.6332H97.8992C104.775 36.1083 111.027 41.7219 116.321 48.9691H116.885C111.324 41.462 104.715 35.7148 97.4389 32.2694H88.655L88.9743 32.6258" fill="#231F20"/>
<path d="M73.9608 48.9765H96.533C94.2609 41.7219 91.5805 36.1083 88.6253 32.6406H78.0446C76.515 36.1157 75.134 41.7293 73.9608 48.9765Z" fill="#91AEC7"/>
<path d="M73.9608 48.9765C75.134 41.7219 76.515 36.1083 78.0446 32.6406C76.515 36.1157 75.134 41.7293 73.9608 48.9765Z" fill="#231F20"/>
<path d="M78.0446 32.6332H88.6253C91.5954 36.1083 94.261 41.7219 96.533 48.9691H97.2755C94.803 41.462 91.8775 35.7148 88.6476 32.2694H78.2005L78.0446 32.6258" fill="#231F20"/>
<path d="M52.7474 48.9765H73.1812C74.4732 41.7219 76.0027 36.1083 77.6808 32.6406H68.1025C62.3703 36.0786 57.1653 41.7219 52.7474 48.9765Z" fill="#91AEC7"/>
<path d="M52.7474 48.9765C57.2025 41.7219 62.4 36.1083 68.1025 32.6406C62.3703 36.0786 57.1653 41.7219 52.7474 48.9765Z" fill="#231F20"/>
<path d="M68.1024 32.6332H77.6808C76.0027 36.1083 74.4731 41.7219 73.1812 48.9691H73.9608C75.1711 41.462 76.6116 35.7148 78.2005 32.2694H68.7039L68.1024 32.6258" fill="#231F20"/>
<path d="M36.9023 48.9765H52.1163C56.6307 41.7219 61.9545 36.0786 67.8055 32.6332H60.6774C51.6462 36.2533 43.5311 41.8328 36.9172 48.9691" fill="#91AEC7"/>
<path d="M36.9023 48.9765C42.3449 43.6302 48.5151 37.5711 60.6625 32.6406C51.6314 36.2607 43.5162 41.8402 36.9023 48.9765Z" fill="#231F20"/>
<path d="M60.6774 32.6332H67.8055C61.9545 36.1083 56.6679 41.7219 52.1163 48.9691H52.7474C57.3139 41.4694 62.7341 35.7222 68.7039 32.2768H61.5981L60.6774 32.6332Z" fill="#231F20"/>
<path d="M28.668 48.9765H36.494C43.1869 41.827 51.3798 36.2482 60.4843 32.6406H56.8164C46.4087 36.0891 36.8256 41.6506 28.668 48.9765Z" fill="#91AEC7"/>
<path d="M56.8164 32.6332H60.4843C51.3798 36.2408 43.1869 41.8196 36.494 48.9691H36.9023C43.7432 41.5822 52.1936 35.8704 61.5981 32.2768H57.8856L56.7941 32.6332" fill="#231F20"/>
<path d="M27.9997 48.9765H28.5491C36.7307 41.6486 46.336 36.0874 56.7644 32.6406H56.5119C45.9935 36.0798 36.292 41.6396 28.0071 48.9765" fill="#91AEC7"/>
<path d="M56.5045 32.6332H56.757C46.3285 36.08 36.7233 41.6412 28.5417 48.9691H28.6605C37.108 41.3832 47.0802 35.6919 57.9078 32.2768H57.6108L56.5045 32.6332Z" fill="#231F20"/>
<path d="M148.523 76.1758H155.406C150.845 66.1454 144.289 57.1488 136.138 49.7339H131.052C138.554 57.3165 144.49 66.3011 148.523 76.1758Z" fill="#91AEC7"/>
<path d="M131.052 49.7339H136.138C144.289 57.1488 150.845 66.1454 155.406 76.1758C150.84 66.1523 144.285 57.1614 136.138 49.7488L135.292 49.0062H130.273C130.532 49.2513 130.785 49.5037 131.015 49.7488" fill="#231F20"/>
<path d="M130.102 76.1758H148.078C144.077 66.3168 138.182 57.3383 130.725 49.7488H117.442C123.102 57.7927 127.38 66.7242 130.102 76.1758Z" fill="#91AEC7"/>
<path d="M117.442 49.7339H130.725C138.183 57.3279 144.079 66.3115 148.078 76.1758H148.523C144.356 65.9687 138.151 56.7188 130.287 48.9914H116.885C117.078 49.2339 117.264 49.4814 117.442 49.7339Z" fill="#231F20"/>
<path d="M103.141 76.1758H129.322C126.651 66.7428 122.444 57.8143 116.87 49.7488H97.528C100.166 58.3772 102.044 67.2199 103.141 76.1758Z" fill="#91AEC7"/>
<path d="M97.528 49.7339H116.87C122.445 57.8039 126.652 66.7376 129.322 76.1758H130.102C127.301 66.4184 122.829 57.2207 116.885 48.9914H97.283C97.3671 49.2339 97.4488 49.4814 97.528 49.7339Z" fill="#231F20"/>
<path d="M71.0725 76.1758H102.117C101.073 67.2333 99.285 58.3936 96.7706 49.7488H73.8346C72.654 57.0925 71.7333 66.0772 71.0725 76.1758Z" fill="#91AEC7"/>
<path d="M73.8346 49.7339H96.7706C99.2858 58.3836 101.074 67.2283 102.117 76.1758H103.141C102.021 66.9547 100.06 57.8553 97.2829 48.9914H73.9608C73.9163 49.2364 73.8791 49.4889 73.8346 49.7339Z" fill="#231F20"/>
<path d="M41.9142 76.1758H70.0107C70.7532 66.0921 71.7704 57.1073 73.0475 49.7488H52.2945C47.5691 58.0067 44.0723 66.9093 41.9142 76.1758Z" fill="#91AEC7"/>
<path d="M52.2945 49.7339H73.0847C71.8076 57.0925 70.768 66.0698 70.0478 76.1609H71.1096C71.7927 65.7208 72.7802 56.4762 73.9979 48.9765H52.7474C52.5989 49.2216 52.443 49.474 52.2945 49.7191" fill="#231F20"/>
<path d="M20.1291 76.1758H41.0455C43.2562 66.8858 46.8318 57.975 51.6559 49.7339H36.197C29.2144 57.4504 23.7617 66.4235 20.1291 76.1758Z" fill="#91AEC7"/>
<path d="M36.197 49.7339H51.6559C46.8318 57.975 43.2562 66.8858 41.0455 76.1758H41.9143C44.4388 65.7208 48.1513 56.4762 52.7474 48.9765H36.9023C36.6647 49.2216 36.4271 49.474 36.1598 49.7191" fill="#231F20"/>
<path d="M8.79848 76.1758H19.5574C23.2361 66.411 28.7423 57.4369 35.7812 49.7339H27.8289C19.7635 57.1709 13.2896 66.1661 8.79848 76.1758Z" fill="#91AEC7"/>
<path d="M27.8289 49.7339H35.7812C28.7423 57.4369 23.2361 66.4109 19.5574 76.1758H20.1291C23.88 66.0958 29.5796 56.8535 36.9023 48.9765H28.668C28.3858 49.2216 28.1037 49.474 27.8289 49.7191" fill="#231F20"/>
<path d="M7.89262 76.1758H8.63513C13.1425 66.1639 19.6313 57.1691 27.7101 49.7339H27.1532C19.0049 57.1491 12.4516 66.1458 7.89262 76.1758Z" fill="#91AEC7"/>
<path d="M27.1532 49.7339H27.7101C19.6313 57.1691 13.1425 66.1639 8.63513 76.1758H8.79848C13.4438 65.8178 20.2131 56.5513 28.6679 48.9765H27.9997C27.7175 49.2191 27.4354 49.4666 27.1532 49.7191" fill="#231F20"/>
<path d="M155.072 108.602H162.631C162.503 97.7908 160.205 87.115 155.874 77.2079H148.947C152.892 87.2097 154.969 97.8509 155.072 108.602Z" fill="#91AEC7"/>
<path d="M148.947 77.2079H155.874C160.205 87.115 162.503 97.7908 162.631 108.602C162.509 97.7909 160.214 87.1143 155.882 77.2079L155.421 76.1758H148.523C148.664 76.5248 148.813 76.8738 148.947 77.2228" fill="#231F20"/>
<path d="M134.846 108.602H154.582C154.479 97.8551 152.418 87.2165 148.501 77.2079H130.406C133.301 87.4237 134.8 97.9845 134.861 108.602" fill="#91AEC7"/>
<path d="M130.406 77.2079H148.501C152.418 87.2165 154.479 97.8551 154.582 108.602H155.072C154.966 97.476 152.744 86.4713 148.523 76.1758H130.102C130.206 76.5248 130.31 76.8738 130.406 77.2228" fill="#231F20"/>
<path d="M105.25 108.602H133.985C133.934 97.9899 132.466 87.4317 129.619 77.2079H103.282C104.574 87.6232 105.231 98.1074 105.25 108.602Z" fill="#91AEC7"/>
<path d="M103.282 77.2079H129.619C132.466 87.4317 133.934 97.9899 133.985 108.602H134.846C134.79 97.6248 133.193 86.7093 130.102 76.1758H103.141C103.193 76.5248 103.238 76.8738 103.282 77.2228" fill="#231F20"/>
<path d="M70.0404 108.602H104.121C104.106 98.1102 103.482 87.6277 102.25 77.2079H71.0057C70.4042 86.8609 70.0553 97.4495 70.0404 108.602Z" fill="#91AEC7"/>
<path d="M70.0404 108.602C70.0404 97.4644 70.4042 86.8386 71.0057 77.2079C70.4042 86.8609 70.0553 97.4495 70.0404 108.602Z" fill="#231F20"/>
<path d="M71.0056 77.2079H102.25C103.482 87.6277 104.106 98.1102 104.121 108.602H105.25C105.234 97.7599 104.53 86.9292 103.141 76.1758H71.0725L71.0056 77.2228" fill="#231F20"/>
<path d="M38.0235 108.602H68.8672C68.8672 97.4644 69.2682 86.8386 69.9364 77.2079H41.6618C39.2804 87.504 38.06 98.0346 38.0235 108.602Z" fill="#91AEC7"/>
<path d="M41.6618 77.2079H69.9364C69.2682 86.8609 68.8895 97.4495 68.8672 108.603H70.0404C70.0404 97.0411 70.4265 86.0664 71.0725 76.1609H41.9143C41.8252 76.5099 41.7435 76.8589 41.6618 77.2079Z" fill="#231F20"/>
<path d="M14.1 108.602H37.0731C37.111 98.0304 38.3566 87.4972 40.7857 77.2079H19.7356C16.0902 87.2774 14.1845 97.8937 14.1 108.602Z" fill="#91AEC7"/>
<path d="M19.7356 77.2079H40.7856C38.3566 87.4972 37.111 98.0304 37.0731 108.602H38.0235C38.0616 97.6795 39.3672 86.7977 41.9143 76.1758H20.1291C19.9955 76.5248 19.8618 76.8738 19.7356 77.2228" fill="#231F20"/>
<path d="M1.67043 108.602H13.4837C13.5778 97.8881 15.5091 87.2692 19.1936 77.2079H8.33814C4.05203 87.1264 1.78048 97.7981 1.65558 108.602" fill="#91AEC7"/>
<path d="M8.33813 77.2079H19.1936C15.5192 87.271 13.598 97.8898 13.5134 108.602H14.1297C14.2079 97.5249 16.2388 86.548 20.1291 76.1758H8.79849C8.64256 76.5248 8.48664 76.8738 8.33813 77.2228" fill="#231F20"/>
<path d="M0.668045 108.602H1.49223C1.61376 97.7978 3.88545 87.1254 8.17478 77.2079H7.43228C3.09861 87.1144 0.798397 97.7903 0.668045 108.602Z" fill="#91AEC7"/>
<path d="M7.41742 77.2079H8.15993C3.8706 87.1254 1.59891 97.7978 1.47737 108.602H1.67042C1.79518 97.4188 4.22159 86.3807 8.79848 76.1758H7.89262C7.72927 76.5248 7.57335 76.8738 7.41742 77.2228" fill="#231F20"/>
<path d="M147.959 144.489H154.783C159.415 134.781 162.053 124.242 162.542 113.496H154.998C154.567 124.171 152.181 134.676 147.959 144.489Z" fill="#91AEC7"/>
<path d="M129.693 144.489H147.514C151.711 134.67 154.081 124.167 154.508 113.496H134.787C134.505 124.011 132.792 134.438 129.693 144.489Z" fill="#91AEC7"/>
<path d="M147.513 144.489H147.959C152.181 134.676 154.567 124.171 154.998 113.496H154.508C154.081 124.167 151.711 134.67 147.513 144.489Z" fill="#231F20"/>
<path d="M102.963 144.489H128.951C132.002 134.429 133.691 124.005 133.97 113.496H105.228C105.109 123.864 104.352 134.214 102.963 144.489Z" fill="#91AEC7"/>
<path d="M128.914 144.489H129.656C132.755 134.438 134.468 124.011 134.75 113.496H133.896C133.628 124.003 131.953 134.427 128.914 144.489Z" fill="#231F20"/>
<path d="M71.169 144.489H101.953C103.281 134.21 104 123.86 104.107 113.496H70.0478C70.1221 124.552 70.5156 135.029 71.1616 144.489" fill="#91AEC7"/>
<path d="M101.946 144.489H102.963C104.352 134.214 105.109 123.864 105.228 113.496H104.099C103.992 123.86 103.273 134.21 101.946 144.489Z" fill="#231F20"/>
<path d="M42.2484 144.489H70.1072C69.3647 135.029 68.9638 124.552 68.8821 113.496H38.0681C38.2929 123.951 39.6952 134.348 42.2484 144.489Z" fill="#91AEC7"/>
<path d="M70.1072 144.489H71.169C70.523 135.029 70.1295 124.552 70.0552 113.496H68.8821C68.9638 124.552 69.3944 135.029 70.1072 144.489Z" fill="#231F20"/>
<path d="M20.6786 144.489H41.3871C38.7811 134.356 37.3486 123.957 37.1177 113.496H14.1742C14.5655 124.122 16.7651 134.603 20.6786 144.489Z" fill="#91AEC7"/>
<path d="M41.3871 144.489H42.2484C39.6952 134.348 38.2929 123.951 38.0681 113.496H37.1177C37.3486 123.957 38.7812 134.356 41.3871 144.489Z" fill="#231F20"/>
<path d="M9.41475 144.489H20.0846C16.1469 134.609 13.9367 124.125 13.5505 113.496H1.75209C2.22989 124.232 4.83446 134.767 9.41475 144.489Z" fill="#91AEC7"/>
<path d="M20.0846 144.489H20.6786C16.7778 134.601 14.5908 124.119 14.2114 113.496H13.5505C13.9367 124.125 16.1469 134.609 20.0846 144.489Z" fill="#231F20"/>
<path d="M8.5089 144.489H9.25141C4.66204 134.767 2.05223 124.229 1.57389 113.488H0.74971C1.24119 124.236 3.87944 134.777 8.5089 144.489Z" fill="#91AEC7"/>
<path d="M9.25141 144.489H9.41476C4.83352 134.765 2.22892 124.227 1.7521 113.488H1.5739C2.05224 124.229 4.66204 134.767 9.25141 144.489Z" fill="#231F20"/>
<path d="M129.292 171.288H134.193C142.564 164.151 149.397 155.387 154.278 145.529H147.499C143.186 155.231 136.998 163.985 129.292 171.288Z" fill="#91AEC7"/>
<path d="M147.499 145.529H154.278C149.397 155.387 142.564 164.151 134.193 171.288C142.548 164.145 149.368 155.382 154.241 145.529C154.411 145.18 154.582 144.838 154.745 144.482H147.907C147.759 144.838 147.603 145.18 147.447 145.529" fill="#231F20"/>
<path d="M116.165 171.288H128.973C136.636 163.973 142.782 155.22 147.061 145.529H129.359C126.456 154.802 121.994 163.513 116.165 171.288Z" fill="#91AEC7"/>
<path d="M129.359 145.529H147.061C142.782 155.22 136.636 163.973 128.973 171.288H129.292C137.274 163.719 143.626 154.6 147.959 144.489H129.693L129.359 145.536" fill="#231F20"/>
<path d="M96.9637 171.288H115.608C121.351 163.492 125.739 154.784 128.587 145.529H102.815C101.649 154.275 99.6901 162.896 96.9637 171.288Z" fill="#91AEC7"/>
<path d="M102.815 145.529H128.587C125.739 154.784 121.351 163.492 115.608 171.288H116.165C122.206 163.215 126.785 154.144 129.693 144.489H102.963C102.911 144.846 102.867 145.187 102.815 145.536" fill="#231F20"/>
<path d="M74.139 171.288H96.2509C98.8541 162.88 100.72 154.261 101.827 145.529H71.2358C71.9783 155.435 72.9213 164.189 74.1168 171.288" fill="#91AEC7"/>
<path d="M74.139 171.288C72.9436 164.189 71.9635 155.435 71.2581 145.529C72.0006 155.435 72.9436 164.189 74.139 171.288Z" fill="#231F20"/>
<path d="M71.2358 145.529H101.805C100.698 154.261 98.8318 162.88 96.2286 171.288H96.9711C99.8017 162.559 101.81 153.585 102.971 144.482H71.169C71.169 144.838 71.221 145.18 71.2433 145.529" fill="#231F20"/>
<path d="M53.3488 171.288H73.3965C71.9005 162.761 70.8423 154.164 70.226 145.529H42.5231C45.1813 155.435 48.8938 164.189 53.3488 171.288Z" fill="#91AEC7"/>
<path d="M42.5231 145.529H70.1889C70.8175 154.164 71.8881 162.762 73.3965 171.288H74.139C72.899 163.937 71.9115 154.818 71.169 144.482H42.2484C42.3375 144.838 42.4266 145.18 42.5231 145.529Z" fill="#231F20"/>
<path d="M37.8156 171.288H52.7251C48.1513 164.189 44.3645 155.435 41.6692 145.529H21.0647C24.956 155.104 30.6417 163.847 37.8156 171.288Z" fill="#91AEC7"/>
<path d="M37.8156 171.288C32.6775 165.607 26.8414 159.162 21.0647 145.529C24.956 155.104 30.6417 163.847 37.8156 171.288Z" fill="#231F20"/>
<path d="M21.0647 145.529H41.6692C44.3645 155.434 48.1439 164.189 52.7252 171.288H53.3489C48.7082 163.937 44.914 154.818 42.2558 144.482H20.6786L21.1018 145.529" fill="#231F20"/>
<path d="M29.752 171.288H37.4147C30.1826 163.863 24.4431 155.118 20.5078 145.529H9.91225C14.7191 155.366 21.468 164.129 29.752 171.288Z" fill="#91AEC7"/>
<path d="M9.91224 145.529H20.5078C24.4431 155.118 30.1826 163.863 37.4147 171.288H37.8156C30.3953 163.57 24.5716 154.463 20.6786 144.489H9.41476C9.57812 144.846 9.74147 145.187 9.91224 145.536" fill="#231F20"/>
<path d="M29.0986 171.288H29.6332C21.3358 164.132 14.5741 155.37 9.75632 145.529H9.01381C13.8834 155.384 20.7038 164.148 29.0615 171.288" fill="#91AEC7"/>
<path d="M9.02124 145.529H9.76375C14.5816 155.37 21.3432 164.132 29.6406 171.288H29.7594C21.1775 163.877 14.2466 154.747 9.41477 144.489H8.50891L9.02124 145.536" fill="#231F20"/>
<path d="M102.146 187.453H104.255C114.898 184.362 124.791 179.112 133.317 172.03H128.498C120.933 179.016 111.942 184.278 102.146 187.453Z" fill="#91AEC7"/>
<path d="M128.498 172.03H133.317C124.791 179.112 114.898 184.362 104.255 187.453C114.901 184.363 124.797 179.113 133.324 172.03L134.208 171.288H129.292L128.498 172.03Z" fill="#231F20"/>
<path d="M96.4959 187.453H102.005C111.748 184.272 120.681 179.01 128.186 172.03H115.563C110.032 179.018 103.557 184.327 96.4662 187.453" fill="#91AEC7"/>
<path d="M115.593 172.03H128.216C120.711 179.01 111.777 184.272 102.035 187.453H102.176C112.318 184.16 121.594 178.636 129.322 171.288H116.165C115.979 171.54 115.786 171.785 115.593 172.03Z" fill="#231F20"/>
<path d="M88.2466 187.453H96.2657C103.238 184.327 109.631 179.018 115.051 172.03H96.7112C94.2609 179.018 91.3874 184.327 88.2466 187.453Z" fill="#91AEC7"/>
<path d="M96.7038 172.03H115.044C109.601 179.018 103.23 184.327 96.2583 187.453H96.4959C103.839 184.215 110.522 178.646 116.165 171.288H96.9637C96.8746 171.54 96.7929 171.785 96.7038 172.03Z" fill="#231F20"/>
<path d="M78.4084 187.453H87.9199C90.89 184.327 93.6521 179.018 95.991 172.03H74.243C75.4458 179.018 76.864 184.327 78.4084 187.453Z" fill="#91AEC7"/>
<path d="M78.4084 187.453C76.864 184.327 75.4384 179.018 74.243 172.03C75.4458 179.018 76.864 184.327 78.4084 187.453Z" fill="#231F20"/>
<path d="M74.243 172.03H95.991C93.6521 179.018 90.9123 184.327 87.92 187.453H88.2467C91.4988 184.215 94.4614 178.639 96.9711 171.288H74.139C74.139 171.54 74.2207 171.785 74.2653 172.03" fill="#231F20"/>
<path d="M69.4687 187.453H78.0817C76.3814 184.327 74.8221 179.018 73.493 172.03H53.8166C58.3533 179.018 63.6623 184.327 69.4687 187.453Z" fill="#91AEC7"/>
<path d="M69.4687 187.453C63.6623 184.327 58.3311 179.018 53.8166 172.03C58.3533 179.018 63.6623 184.327 69.4687 187.453Z" fill="#231F20"/>
<path d="M53.8166 172.03H73.493C74.8221 179.018 76.3814 184.327 78.0817 187.453H78.4084C76.8046 184.215 75.3493 178.639 74.1167 171.288H53.3488C53.5048 171.54 53.6607 171.785 53.824 172.03" fill="#231F20"/>
<path d="M62.7935 187.453H69.2088C63.2687 184.327 57.841 179.018 53.2078 172.03H38.5507C45.37 178.928 53.6563 184.199 62.7935 187.453Z" fill="#91AEC7"/>
<path d="M62.7935 187.453C56.111 184.787 48.5448 181.758 38.5507 172.03C45.37 178.928 53.6563 184.199 62.7935 187.453Z" fill="#231F20"/>
<path d="M38.5507 172.03H53.2078C57.841 179.018 63.2687 184.327 69.2088 187.453H69.4687C63.4544 184.215 57.9821 178.646 53.3489 171.288H37.8156L38.5581 172.03" fill="#231F20"/>
<path d="M59.326 187.453H62.6228C53.4156 184.209 45.0546 178.938 38.1572 172.03H30.6133C39.0156 179.1 48.7922 184.352 59.326 187.453Z" fill="#91AEC7"/>
<path d="M30.6133 172.03H38.1572C45.0546 178.938 53.4156 184.209 62.6228 187.453H62.7935C53.3282 184.071 44.7776 178.538 37.8156 171.288H29.752C30.0342 171.54 30.3237 171.785 30.6133 172.03Z" fill="#231F20"/>
<path d="M59.0439 187.453H59.2889C48.7362 184.354 38.9398 179.103 30.5168 172.03H29.997C38.5217 179.113 48.4148 184.364 59.0587 187.453" fill="#91AEC7"/>
<path d="M29.9822 172.03H30.5019C38.9293 179.105 48.731 184.356 59.2889 187.453H59.3409C48.4403 184.242 38.3554 178.729 29.7669 171.288H29.1134L29.997 172.03" fill="#231F20"/>
<path d="M81.6458 190.653C88.8928 190.657 96.1075 189.688 103.097 187.772H101.092C94.7773 189.686 88.2145 190.657 81.6161 190.653" fill="#91AEC7"/>
<path d="M69.5875 189.591C88.3951 190.653 94.9218 189.651 101.122 187.772H103.097C96.098 189.691 88.873 190.66 81.6161 190.653C88.8754 190.659 96.1027 189.69 103.104 187.772L104.225 187.453H102.117C95.4909 189.578 88.5743 190.658 81.6161 190.653" fill="#231F20"/>
<path d="M81.6458 190.653C88.2027 190.656 94.7237 189.685 100.995 187.772H95.7979C91.3343 189.663 86.5378 190.642 81.6903 190.653" fill="#91AEC7"/>
<path d="M72.9139 189.591C86.5314 190.653 91.2686 189.651 95.7608 187.772H100.958C94.6866 189.685 88.1656 190.656 81.6086 190.653C88.5669 190.658 95.4834 189.578 102.109 187.453H96.4588C91.7886 189.551 86.7286 190.642 81.6086 190.653" fill="#231F20"/>
<path d="M81.6458 190.653C86.4213 190.642 91.145 189.662 95.5306 187.772H87.9051C85.9152 189.651 83.8139 190.653 81.6458 190.653Z" fill="#91AEC7"/>
<path d="M77.7699 189.591C83.8139 190.653 85.9375 189.651 87.9051 187.772H95.5306C91.145 189.662 86.4213 190.642 81.6458 190.653C86.7657 190.642 91.8258 189.551 96.4959 187.453H88.2467C86.1528 189.539 83.9401 190.653 81.6532 190.653" fill="#231F20"/>
<path d="M81.6458 190.653C83.7099 190.653 85.7147 189.651 87.5858 187.772H78.5941C79.5742 189.651 80.6062 190.653 81.668 190.653" fill="#91AEC7"/>
<path d="M83.554 189.591C80.584 190.653 79.5519 189.651 78.5718 187.772H87.6081C85.7147 189.651 83.7099 190.653 81.668 190.653C83.955 190.653 86.1676 189.539 88.2615 187.453H78.4084C79.4331 189.539 80.5246 190.653 81.6458 190.653" fill="#231F20"/>
<path d="M81.6458 190.653C80.4726 190.653 79.3366 189.651 78.2599 187.772H70.0924C73.6638 189.641 77.6301 190.628 81.6606 190.653" fill="#91AEC7"/>
<path d="M88.811 189.591C77.6734 190.653 73.7604 189.651 70.0775 187.772H78.2451C79.3217 189.651 80.4726 190.653 81.6309 190.653C80.5097 190.653 79.4034 189.539 78.3936 187.453H69.4835C73.2105 189.523 77.3976 190.623 81.6606 190.653" fill="#231F20"/>
<path d="M81.6458 190.653C77.5345 190.63 73.4859 189.644 69.8251 187.772H63.744C69.5247 189.68 75.5731 190.653 81.6606 190.653" fill="#91AEC7"/>
<path d="M92.7462 189.591C75.4458 190.653 69.439 189.651 63.7291 187.772H69.8251C73.4859 189.644 77.5345 190.63 81.6458 190.653C77.3828 190.623 73.1956 189.523 69.4687 187.453H62.7861C68.8455 189.572 75.219 190.654 81.6383 190.653" fill="#231F20"/>
<path d="M81.6458 190.653C75.5048 190.654 69.4025 189.681 63.5658 187.772H60.4324C68.2435 189.606 72.164 190.527 81.6458 190.653Z" fill="#91AEC7"/>
<path d="M81.6458 190.653C85.5959 190.49 90.8603 190.067 94.7881 189.591C90.8603 190.059 85.6033 190.572 81.6458 190.653Z" fill="#231F20"/>
<path d="M94.7881 189.591C74.3024 190.653 67.1892 189.651 60.4324 187.772H63.5658C69.4025 189.681 75.5048 190.654 81.6458 190.653C75.2265 190.654 68.853 189.572 62.7936 187.453H59.326C66.5743 189.583 74.091 190.661 81.6458 190.653" fill="#231F20"/>
<path d="M81.6458 190.653C73.4782 190.319 69.4315 190.156 60.3878 187.772H60.1725C67.1689 189.69 74.3913 190.659 81.6458 190.653Z" fill="#91AEC7"/>
<path d="M60.1725 187.772H60.3878C68.2138 189.606 72.1417 190.527 81.6458 190.653C72.8619 190.289 69.2236 190.141 59.326 187.453H59.0439L60.1725 187.772Z" fill="#231F20"/>
<path d="M0.63092 109.657C0.63092 110.939 0.660621 112.216 0.720021 113.488H162.557C162.616 112.221 162.646 110.944 162.646 109.657C162.646 109.3 162.646 108.914 162.646 108.602H0.668046C0.668046 108.951 0.668046 109.3 0.668046 109.657" fill="#231F20"/>
</g>
<mask id="mask1_38_540" style="mask-type:luminance" maskUnits="userSpaceOnUse" x="0" y="28" width="82" height="163">
<path d="M0.630927 109.657C0.67001 114.055 1.02235 118.445 1.68529 122.792C2.48362 127.001 3.50979 131.163 4.75926 135.26C6.08794 139.256 7.72899 143.142 9.66723 146.88C9.80088 147.853 16.0157 157.922 20.1291 162.37C22.9048 165.446 25.8366 168.378 28.913 171.154C32.0896 173.836 35.4461 176.297 38.9591 178.52C42.5327 180.7 46.2543 182.628 50.0967 184.29C54.0512 185.842 58.0863 187.181 62.1847 188.299C65.8972 189.361 71.1393 189.918 75.0078 190.386C76.9828 190.623 79.6559 190.572 81.6458 190.653C60.2986 190.449 39.8951 181.825 24.8721 166.657C9.84909 151.488 1.42129 131.002 1.42129 109.653C1.42129 88.304 9.84909 67.818 24.8721 52.6498C39.8951 37.4815 60.2986 28.8576 81.6458 28.6532C77.6957 28.8166 72.3867 28.9279 68.5108 29.715C66.61 30.0937 64.0558 30.4576 62.1847 31.0071C58.0983 32.1411 54.0713 33.4794 50.119 35.0168C46.2413 36.6027 42.5138 38.5337 38.9814 40.7863C37.4295 41.8333 35.2688 43.1179 33.7838 44.2837C30.5143 46.8295 27.3791 49.5434 24.3911 52.4145C21.529 55.409 18.8204 58.5466 16.2755 61.815C15.1172 63.3001 13.8327 65.4386 12.7858 67.0128C10.5332 70.5454 8.60239 74.2731 7.01648 78.1509C2.79825 88.1189 0.626713 98.8331 0.630927 109.657Z" fill="white"/>
</mask>
<g mask="url(#mask1_38_540)">
<path d="M0.631067 109.657C0.631067 120.981 2.63583 127.916 4.7594 135.26C6.08808 139.256 7.72913 143.142 9.66737 146.88C12.4221 151.722 15.845 157.751 20.1293 162.37C24.7848 167.404 30.0714 173.107 38.9592 178.52C48.7826 184.46 54.9825 186.257 62.1626 188.299C68.5852 190.126 75.5277 190.408 81.6236 190.653C60.2764 190.446 39.8742 181.819 24.8532 166.649C9.83227 151.479 1.40727 130.991 1.41021 109.642C1.41315 88.293 9.84377 67.8081 24.8689 52.6419C39.894 37.4758 60.2987 28.8546 81.6459 28.6532C77.6958 28.8166 72.3869 28.9279 68.511 29.715C61.0339 31.2001 57.6184 31.9427 50.1191 35.0168C40.5059 39.1107 31.771 45.0174 24.3913 52.4145C16.8434 59.9113 10.8571 68.8305 6.77871 78.6561C2.70031 88.4816 0.610792 99.0185 0.631067 109.657Z" fill="#9E9E9E"/>
<path d="M44.4388 181.616C54.2027 186.673 61.16 188.091 68.5257 189.599L75.0226 190.393L81.6606 190.661C67.7414 190.684 54.0534 187.102 41.9291 180.265L39.1447 178.646C40.7263 179.545 42.8053 180.807 44.4239 181.616" fill="#9E9E9E"/>
<path d="M68.5108 29.715C64.7389 30.4576 59.7493 31.7125 56.0442 32.7817L50.1041 35.0093L44.4388 37.6973L38.9962 40.7863L33.7987 44.2837L28.9204 48.1523L24.3911 52.4145L20.1514 56.944L16.2755 61.815L12.7858 67.0128L9.6895 72.4631L7.01648 78.1287L4.78896 84.069L3.00695 90.1875L1.70756 96.514L0.920503 103.011L0.653201 109.694L0.920503 116.377C1.93774 124.73 2.27929 126.698 4.78154 135.334C5.25674 136.767 5.77649 138.193 6.33337 139.589L4.51423 134.495C0.614395 122.341 -0.360817 109.439 1.66797 96.8372C3.69675 84.2356 8.67221 72.2911 16.1894 61.9758C23.7065 51.6606 33.553 43.2662 44.9273 37.4757C56.3017 31.6852 68.8825 28.6624 81.6458 28.6532L75.0078 28.9205L68.5108 29.715Z" fill="#9E9E9E"/>
<path d="M56.0442 186.525C59.7567 187.698 64.7389 188.819 68.5108 189.591L75.0078 190.386L81.6458 190.653C72.6668 190.66 63.7491 189.175 55.2571 186.257L53.7721 185.723C54.4552 185.96 55.3611 186.302 56.0516 186.525" fill="#999999"/>
<path d="M68.5108 29.715C64.7389 30.4576 59.7493 31.7125 56.0442 32.7817L50.1041 35.0093L44.4388 37.6973L38.9962 40.7863L33.7987 44.2837L28.9204 48.1523L24.3911 52.4145L20.1514 56.944L16.2755 61.815L12.7858 67.0128L9.6895 72.4631L7.01648 78.1287L4.78896 84.069L3.00695 90.1875L1.70756 96.514L0.920503 103.011L0.653201 109.694L0.920503 116.377L1.70756 122.867C1.76696 123.238 1.83379 123.609 1.90061 123.981L1.33631 120.268C-0.164596 108.835 0.790953 97.2126 4.13915 86.1781C7.48734 75.1436 13.1511 64.9504 20.7523 56.2792C28.3534 47.608 37.717 40.6584 48.2178 35.8945C58.7186 31.1305 70.1149 28.6618 81.6458 28.6532L75.0078 28.9205L68.5108 29.715Z" fill="#999999"/>
<path d="M68.5108 189.591C72.4387 190.074 77.6956 190.49 81.6458 190.653C76.7857 190.654 71.9353 190.222 67.152 189.361L66.4912 189.235C67.1595 189.361 67.8351 189.48 68.5108 189.591Z" fill="#949494"/>
<path d="M68.5108 29.715C64.7389 30.4576 59.7493 31.7125 56.0442 32.7817L50.1041 35.0094L44.4388 37.6973L38.9962 40.7863L33.7987 44.2837L28.9204 48.1523L24.3911 52.4145L20.1514 56.944L16.2755 61.8151L12.7857 67.0128L9.6895 72.4631L7.01647 78.1287L4.78896 84.069L3.00694 90.1875L1.70755 96.514L0.920498 103.011L0.653196 109.694C0.653196 110.08 0.653196 110.437 0.653196 110.845H0.63092C0.63092 109.909 0.63092 108.617 0.63092 107.711C1.13893 86.5643 9.89861 66.4549 25.0375 51.6816C40.1765 36.9082 60.4935 28.6432 81.6458 28.6532L75.0078 28.9205L68.5108 29.715Z" fill="#949494"/>
<path d="M81.6458 190.653C79.344 190.653 77.0645 190.557 74.8073 190.364H74.5994L81.23 190.668H81.6458" fill="#8F8F8F"/>
<path d="M68.5108 29.715C64.7389 30.4576 59.7493 31.7125 56.0442 32.7817L50.1041 35.0093L44.4388 37.6973L38.9962 40.7863L33.7987 44.2837L28.9204 48.1523L24.3911 52.4145L20.1514 56.944L16.2755 61.815L12.7858 67.0128L9.6895 72.4631L7.01648 78.1287L4.78896 84.069L3.00695 90.1875L1.70756 96.514C1.60361 97.1674 1.50708 97.8134 1.41798 98.452L1.81894 95.9273C5.06072 77.103 14.8485 60.0292 29.4544 47.72C44.0603 35.4109 62.5452 28.6579 81.6458 28.6532L75.0078 28.9205L68.5108 29.715Z" fill="#8F8F8F"/>
<path d="M81.6458 190.653C80.1113 190.653 78.5867 190.611 77.0719 190.527H76.916L81.6458 190.661" fill="#8A8A8A"/>
<path d="M68.5108 29.715C64.7389 30.4576 59.7493 31.7125 56.0442 32.7817L50.1041 35.0093L44.4388 37.6973L38.9962 40.7863L33.7987 44.2837L28.9204 48.1523L24.3911 52.4145L20.1514 56.944L16.2755 61.815L12.7858 67.0128L9.6895 72.4631L7.01648 78.1287L4.78896 84.069L4.15041 86.059L4.78896 84.0987C10.1588 67.9588 20.4717 53.9183 34.2661 43.9668C48.0605 34.0154 64.6367 28.6578 81.6458 28.6532L75.0078 28.9205L68.5108 29.715Z" fill="#8A8A8A"/>
<path d="M68.5108 29.715C64.7389 30.4576 59.7493 31.7125 56.0442 32.7817L50.1041 35.0093L44.4388 37.6973L38.9962 40.7863L33.7987 44.2837L28.9204 48.1523L24.3911 52.4145L20.1514 56.944L16.2755 61.815L12.7857 67.0128L9.73404 72.3665L10.4765 70.9557C17.4355 58.153 27.7202 47.4654 40.246 40.0202C52.7718 32.5749 67.0745 28.6479 81.6458 28.6532L75.0078 28.9205L68.5108 29.715Z" fill="#858585"/>
<path d="M68.5108 29.715C65.229 30.3833 60.8482 31.3783 57.6108 32.2768C65.3949 29.8679 73.4976 28.6463 81.6458 28.6532C77.2515 28.769 72.8667 29.1235 68.5108 29.715Z" fill="#91AEC7"/>
<path d="M56.0442 32.7817C52.5098 34.1183 47.8543 36.0786 44.4388 37.6973C41.1866 39.5463 36.9321 42.1526 33.8284 44.2837C32.0686 45.6796 29.7 47.4989 28.0071 48.9765C36.292 41.6396 45.9935 36.0798 56.5119 32.6406L56.059 32.7891" fill="#91AEC7"/>
<path d="M56.4971 32.6332L57.6034 32.2768L56.4897 32.6332" fill="#231F20"/>
<path d="M24.3911 52.4145C21.8517 55.1545 18.6144 58.934 16.2904 61.8522C14.1817 64.9263 11.5458 69.1736 9.68949 72.4631C9.05836 73.6883 8.44951 74.9283 7.87778 76.1758C12.4411 66.1445 18.9996 57.1477 27.1532 49.7339L24.3911 52.4145Z" fill="#91AEC7"/>
<path d="M27.1458 49.7339C27.428 49.4716 27.7101 49.224 27.9923 48.9914C27.7101 49.2339 27.428 49.4815 27.1458 49.7339Z" fill="#231F20"/>
<path d="M4.78153 84.0541C3.71232 87.7668 2.47976 92.7418 1.70755 96.5139C1.26948 100.13 0.823972 104.964 0.63092 108.603C0.768302 97.7888 3.07611 87.1128 7.41743 77.2079C6.42742 79.4454 5.55126 81.7275 4.78896 84.0541" fill="#91AEC7"/>
<path d="M7.41 77.2079C7.56593 76.8589 7.72186 76.5099 7.88521 76.1609L7.41743 77.2079" fill="#231F20"/>
<path d="M1.70756 122.792C2.45006 126.565 3.71233 131.562 4.78153 135.26C5.82605 138.408 7.06597 141.488 8.49407 144.482C3.87069 134.771 1.23754 124.233 0.749725 113.488C0.987327 116.28 1.23235 120.03 1.71498 122.792" fill="#91AEC7"/>
<path d="M9.6895 146.88C11.5458 150.14 14.1817 154.388 16.2755 157.491C18.5996 160.417 21.8369 164.174 24.3763 166.929C25.787 168.243 27.6284 170.04 29.0912 171.288C20.7335 164.148 13.9131 155.384 9.04352 145.529C9.26627 145.982 9.49645 146.435 9.72662 146.88" fill="#91AEC7"/>
<path d="M9.00639 145.529L8.50891 144.489C8.67226 144.846 8.84304 145.187 9.01382 145.536" fill="#231F20"/>
<path d="M33.8135 175.023C36.9172 177.161 41.1718 179.76 44.4388 181.616C52.1386 185.24 52.6064 185.455 59.0587 187.46C48.4148 184.371 38.5217 179.121 29.997 172.038L33.8358 175.008" fill="#91AEC7"/>
<path d="M68.5108 189.591C72.4387 190.074 77.6956 190.49 81.6458 190.653C74.3913 190.659 67.1689 189.69 60.1725 187.772C62.6673 188.351 65.9863 189.213 68.5183 189.591" fill="#91AEC7"/>
<path d="M60.1651 187.772L59.0365 187.453L60.1576 187.772" fill="#231F20"/>
<path d="M0.63092 109.657L0.720021 113.488C0.660621 112.221 0.63092 110.944 0.63092 109.657C0.63092 109.3 0.63092 108.914 0.63092 108.603V109.657Z" fill="#231F20"/>
</g>
<mask id="mask2_38_540" style="mask-type:luminance" maskUnits="userSpaceOnUse" x="0" y="28" width="163" height="163">
<path d="M81.6458 190.653C79.6558 190.572 76.9828 190.653 75.0078 190.386C71.169 189.918 65.9715 189.361 62.1847 188.299C58.0939 187.18 54.0661 185.841 50.119 184.29C48.3815 183.547 46.102 182.478 44.4239 181.609C42.7459 180.74 40.5852 179.493 38.9814 178.52C35.458 176.312 32.1004 173.851 28.9353 171.154C25.8589 168.378 22.9271 165.446 20.1514 162.37C17.612 159.63 14.8796 155.42 12.7857 152.323C11.7314 150.764 10.6176 148.514 9.68949 146.88C7.75125 143.142 6.1102 139.256 4.78153 135.26C3.71232 131.547 2.47976 126.565 1.70755 122.792C1.32914 120.635 1.06641 118.459 0.920493 116.273C0.707775 114.052 0.618537 111.821 0.653191 109.59C0.777916 105.194 1.12984 100.807 1.70755 96.4471C2.74334 90.1518 4.52554 84.0023 7.01647 78.1287C9.46232 72.3444 12.5693 66.8626 16.2755 61.7928C17.4757 60.0981 18.7697 58.4719 20.1514 56.9217C22.9257 53.8486 25.8576 50.9215 28.9353 48.1523C32.1567 45.5279 35.5097 43.0694 38.9814 40.7863C40.7424 39.6572 42.5643 38.626 44.4388 37.6973C50.0755 34.7788 56.037 32.5357 62.1995 31.0145C66.4289 30.0904 70.7043 29.3914 75.0078 28.9205C76.9828 28.6829 79.6558 28.7349 81.6458 28.6532C86.048 28.6517 90.4432 29.0069 94.7881 29.715C107.341 31.7666 119.231 36.7588 129.485 44.2837C139.586 51.6911 147.835 61.3359 153.587 72.4631C157.5 80.0192 160.194 88.1463 161.569 96.5437C162.974 105.247 162.974 114.119 161.569 122.822C160.192 131.212 157.499 139.332 153.587 146.88C149.751 154.278 144.797 161.04 138.9 166.929C133.009 172.82 126.248 177.772 118.853 181.609C115.422 183.22 110.767 185.188 107.225 186.525C103.16 187.876 98.9938 188.902 94.7658 189.591C90.8231 189.911 85.581 190.49 81.6235 190.653H81.6458Z" fill="white"/>
</mask>
<g mask="url(#mask2_38_540)">
<path d="M81.6458 190.653C75.535 190.408 68.6074 190.126 62.1847 188.299C55.0047 186.257 48.8196 184.49 38.9814 178.52C30.0713 173.107 24.8069 167.382 20.1514 162.37C15.8671 157.751 12.4442 151.722 9.6895 146.88C7.75126 143.142 6.11021 139.256 4.78153 135.26C2.68766 128.02 1.52935 124.025 0.920497 116.273C0.433686 109.678 0.697731 103.049 1.70755 96.5139C3.74729 83.9571 8.74032 72.0644 16.2755 61.815C27.4933 46.4804 43.743 35.5758 62.1847 31.007C69.929 29.1284 73.597 28.9799 81.6458 28.6532C86.048 28.6517 90.4432 29.0069 94.7881 29.715C107.341 31.7666 119.231 36.7588 129.485 44.2837C139.586 51.6911 147.835 61.3359 153.587 72.4631C157.5 80.0192 160.194 88.1463 161.569 96.5437C162.974 105.247 162.974 114.119 161.569 122.822C160.192 131.212 157.499 139.332 153.587 146.88C149.751 154.278 144.797 161.04 138.9 166.929C133.009 172.82 126.248 177.772 118.853 181.609C115.422 183.22 110.767 185.188 107.225 186.525C103.16 187.876 98.9939 188.902 94.7659 189.591C90.838 190.074 85.5811 190.49 81.6235 190.653" fill="#8F8F8F"/>
<path d="M161.591 122.792C160.211 131.194 157.509 139.324 153.587 146.88C149.751 154.278 144.797 161.04 138.9 166.929C133.009 172.821 126.248 177.772 118.853 181.609C115.422 183.22 110.767 185.188 107.225 186.525C103.16 187.876 98.9939 188.902 94.7659 189.591C90.838 190.074 85.5811 190.49 81.6235 190.653C77.6734 190.49 72.4164 190.074 68.4886 189.591L62.1847 188.299L56.0442 186.525L50.1041 184.297C48.4112 183.488 46.3173 181.616 44.4388 181.616L38.9962 178.528L33.7987 175.03L28.9204 171.162L24.3911 166.929L20.1663 162.37L16.2904 157.491L12.8006 152.294L9.70435 146.851C7.76611 143.112 6.12506 139.226 4.79638 135.23C3.72717 131.517 2.49461 126.535 1.72241 122.763L0.9205 116.273C0.838825 114.276 0.690324 111.617 0.653198 109.59L0.9205 102.907L1.70756 96.41L3.00694 90.1875L4.78153 84.0541L7.00905 78.1138L9.6895 72.4631L12.7857 67.0203L16.2755 61.8225L20.1514 56.9514L24.3911 52.4145L28.9501 48.1894L33.8284 44.3208L39.0259 40.8234L44.4388 37.6973L50.1338 35.0168L56.0739 32.7891L62.1847 31.0071L68.5108 29.715L75.0078 28.9205L81.6458 28.6532C18.0353 29.7967 4.81866 106.39 47.1564 147.326C91.0682 189.784 152.102 176.248 161.755 121.916L161.621 122.792" fill="#8F8F8F"/>
<path d="M158.517 135.26C157.182 139.257 155.533 143.142 153.587 146.88C149.751 154.278 144.797 161.04 138.9 166.929C133.009 172.821 126.248 177.772 118.853 181.609C115.422 183.22 110.767 185.188 107.225 186.525C103.16 187.876 98.9939 188.902 94.7659 189.591C90.838 190.074 85.5811 190.49 81.6235 190.653C77.6734 190.49 72.4164 190.074 68.4886 189.591L62.1847 188.299L56.0442 186.525L50.1041 184.297C48.4112 183.488 46.3173 181.616 44.4388 181.616L38.9962 178.528L33.7987 175.03L28.9204 171.162L24.3911 166.929L20.1663 162.37L16.2904 157.491L12.8006 152.294L9.70435 146.851C7.76611 143.112 6.12506 139.226 4.79638 135.23C3.72717 131.517 2.49461 126.535 1.72241 122.763L0.9205 116.273C0.838825 114.276 0.690324 111.617 0.653198 109.59L0.9205 102.907L1.70756 96.41L3.00694 90.1875L4.78153 84.0541L7.00905 78.1138L9.6895 72.4631L12.7857 67.0203L16.2755 61.8225L20.1514 56.9514L24.3911 52.4145L28.9501 48.1894L33.8284 44.3208L39.0259 40.8234L44.4388 37.6973L50.1338 35.0168L56.0739 32.7891L62.1847 31.0071L68.5108 29.715L71.5774 29.2695L69.684 29.5368C9.3331 39.524 -0.378885 117.966 53.6681 158.665C93.9565 189.042 144.053 177.473 158.785 134.458C158.703 134.725 158.614 134.992 158.525 135.26" fill="#8A8A8A"/>
<path d="M147.023 157.491C142.105 164.195 136.191 170.107 129.485 175.023C126.125 177.492 122.577 179.696 118.875 181.616C115.445 183.228 110.789 185.196 107.247 186.532C103.182 187.884 99.0161 188.909 94.7881 189.599C90.8603 190.081 85.6033 190.497 81.6458 190.661C77.6956 190.497 72.4387 190.081 68.5108 189.599L62.1847 188.299L56.0442 186.525L50.1041 184.297C48.4112 183.488 46.3173 181.616 44.4388 181.616L38.9962 178.528L33.7987 175.03L28.9204 171.162L24.3911 166.929L20.1663 162.37L16.2904 157.491L12.8006 152.294L9.70435 146.851C7.76611 143.112 6.12506 139.226 4.79638 135.23C3.72717 131.517 2.49461 126.535 1.72241 122.763L0.9205 116.273C0.838825 114.276 0.690324 111.617 0.653198 109.59L0.9205 102.907L1.70756 96.41L3.00694 90.1875L4.78153 84.0541L7.00905 78.1138L9.6895 72.4631L12.7857 67.0203L16.2755 61.8225L20.1514 56.9514L24.3911 52.4145L28.9501 48.1894L33.8284 44.3208L39.0259 40.8234L44.4388 37.6973L50.1338 35.0168L56.0739 32.7891L57.0614 32.4476L53.6384 33.6505C-6.12588 57.6939 4.52165 146.717 70.4265 173.723C102.941 187.089 136.836 176.627 152.845 148.366C151.119 151.533 149.184 154.581 147.053 157.491" fill="#858585"/>
<path d="M107.247 32.7817C115.213 35.4368 122.715 39.3174 129.485 44.2837C139.586 51.6911 147.835 61.336 153.587 72.4631C157.5 80.0192 160.194 88.1463 161.569 96.5437C162.275 100.889 162.627 105.284 162.623 109.687C161.138 172.394 92.3379 186.324 51.2995 146.22C5.46464 101.422 25.4306 28.9873 83.6877 28.8091C88.1053 28.8319 92.5117 29.2569 96.8523 30.0789C100.374 30.7476 103.846 31.6505 107.247 32.7817Z" fill="#949494"/>
<path d="M118.875 37.6973C122.577 39.615 126.124 41.8171 129.485 44.2837C139.586 51.6911 147.835 61.3359 153.587 72.4631C157.475 79.9693 160.159 88.0403 161.539 96.3803C170.665 162.637 105.191 182.077 64.8651 152.657C8.37527 111.394 23.2922 39.0488 75.6835 30.1383C86.6354 28.2597 97.7285 29.3957 109.609 33.6282C112.781 34.7951 115.876 36.1617 118.875 37.7196" fill="#999999"/>
<path d="M129.485 44.2837C139.586 51.6911 147.835 61.3359 153.587 72.4631C154.982 75.1494 156.222 77.9138 157.3 80.7424C178.535 143.116 125.216 179.5 75.676 155.249C20.3742 128.154 16.4834 50.224 69.5726 32.6258C79.3366 29.3957 99.4437 26.1211 124.154 40.6898C125.981 41.8184 127.758 43.0164 129.485 44.2837Z" fill="#9E9E9E"/>
<path d="M150.298 66.6787C180.288 116.429 147.217 170.456 94.1199 158.464C36.1376 145.366 14.4787 67.9187 60.5438 38.3656C87.9719 20.7674 130.755 34.2594 150.298 66.6787Z" fill="#A3A3A3"/>
<path d="M150.12 66.6787C181.26 118.612 141.952 167.189 94.5357 155.501C38.4987 141.683 17.8125 66.6638 62.4446 39.1676C93.0804 20.2922 133.235 38.5216 150.12 66.6787Z" fill="#A8A8A8"/>
<path d="M153.305 73.0868C177.028 123.639 135.812 169.944 85.4623 149.323C31.1999 127.099 28.2893 55.9193 69.2533 37.3558C102.443 22.3268 139.509 43.6971 153.305 73.0868Z" fill="#ADADAD"/>
<path d="M152.77 73.0868C176.197 123.424 135.693 167.85 86.086 146.22C37.2365 124.924 29.1357 56.8029 73.1515 37.43C101.018 25.1707 138.217 41.8333 152.77 73.072" fill="#B3B3B3"/>
<path d="M152.102 73.0868C172.536 117.283 140.304 159.132 95.5678 146.502C45.2778 132.304 29.3659 66.2332 70.1518 40.9868C96.481 24.688 137.074 40.5858 152.102 73.0868Z" fill="#B8B8B8"/>
<path d="M154.07 79.8439C169.299 126.334 129.686 161.033 85.7147 139.722C38.1572 116.681 39.9837 54.1149 78.0892 39.2344C109.386 27.0122 144.625 51.0334 154.07 79.8439Z" fill="#BDBDBD"/>
<path d="M153.075 79.8439C167.353 124.3 128.357 157.365 85.7667 136.908C42.2113 115.969 40.9045 52.0729 83.7916 39.2418C114.019 30.1977 144.558 53.3501 153.053 79.8439" fill="#C2C2C2"/>
<path d="M151.954 79.8439C165.66 123.253 127.34 154.677 85.8187 134.049C45.2333 113.949 44.0898 55.793 83.9921 41.2021C109.683 31.809 142.709 50.5878 151.954 79.8142" fill="#C7C7C7"/>
<path d="M150.691 79.8439C163.425 120.78 125.253 151.187 85.8632 131.502C45.6045 111.38 50.1412 56.595 83.955 43.504C111.829 32.7372 142.717 54.1892 150.691 79.8216" fill="#CCCCCC"/>
<path d="M149.251 79.8439C162.141 122.169 121.036 146.94 85.8929 129.305C45.6565 109.122 54.7819 52.912 90.7043 43.6377C114.175 37.586 141.529 54.501 149.251 79.8439Z" fill="#D1D1D1"/>
<path d="M149.281 86.9203C155.362 130.559 105.413 141.349 82.8858 125.05C40.9936 94.7393 67.4565 48.0038 97.3795 44.6549C121.088 42.0041 145.828 62.1492 149.281 86.9203Z" fill="#D6D6D6"/>
<path d="M147.454 86.9203C150.276 106.798 138.544 121.404 126.449 126.565C108.369 134.28 91.3652 131.22 75.8913 117.454C51.745 95.9719 65.9937 51.1373 98.315 46.9123C120.65 43.9941 144.076 63.0625 147.454 86.9278" fill="#DBDBDB"/>
<path d="M145.301 86.9203C149.251 123.357 106.579 142.767 78.1411 117.454C50.1561 92.5117 71.9115 53.0159 99.2357 49.3181C120.501 46.437 142.888 64.711 145.271 86.9203" fill="#E0E0E0"/>
<path d="M142.947 86.9203C146.585 123.089 103.966 138.408 80.4132 117.454C50.0967 90.4919 74.7999 55.5035 100.127 51.9244C120.048 49.1102 140.853 66.1144 142.94 86.9203" fill="#E6E6E6"/>
<path d="M140.452 86.9203C143.712 119.986 103.839 136.017 82.6779 117.454C49.5695 88.45 79.0693 57.6791 101.003 54.6421C119.736 52.0729 138.544 67.4435 140.452 86.8906" fill="#EBEBEB"/>
<path d="M137.839 86.9203C138.908 96.7887 136.643 110.6 119.729 120.335C107.76 127.248 91.5508 123 84.9277 117.424C52.0049 89.7271 79.4628 59.3127 101.753 57.2781C119.38 55.6445 135.908 69.2182 137.831 86.9203" fill="#F0F0F0"/>
<path d="M135.099 94.2641C130.711 127.411 93.7709 128.896 78.1783 109.657C58.4499 85.2719 84.252 54.7089 110.574 60.6493C128.194 64.6144 136.881 80.8538 135.077 94.2715" fill="#F5F5F5"/>
<path d="M133.183 94.2641C132.515 103.538 128.03 108.714 127.139 109.657C119.432 117.758 119.432 117.758 107.737 121.151C102.458 122.674 87.816 119.466 79.7375 109.657C61.1749 87.1505 81.2225 62.0304 103 62.1343C118.682 62.2234 134.549 75.1436 133.183 94.2492" fill="#FAFAFA"/>
<path d="M131.253 94.2641C129.203 120.929 96.3103 127.307 81.2968 109.657C62.6302 87.7 82.4254 63.1145 103.468 64.2209C117.62 64.9634 132.515 77.9727 131.253 94.2641Z" fill="#91AEC7"/>
<path d="M129.285 94.2641C127.845 111.781 115.816 115.798 107.849 118.411C103.862 119.733 89.9322 117.736 82.8561 109.657C63.7959 87.8931 82.7373 64.9931 103.921 66.3371C120.464 67.3915 130.139 83.8462 129.285 94.2641Z" fill="#91AEC7"/>
<path d="M127.258 94.2641C126.114 110.555 116.462 114.045 107.893 117.097C104.879 118.181 100.268 117.758 97.2161 116.793C97.127 116.793 87.1849 112.753 84.4005 109.657C73.4337 97.457 75.5572 88.1232 79.4925 79.8439C80.9775 76.703 90.5856 66.1441 104.248 67.9633C120.108 70.0498 127.926 84.8561 127.265 94.2938" fill="#91AEC7"/>
<path d="M124.548 101.853C124.548 101.905 121.184 108.194 118.095 110.815C115.489 113.043 111.346 115.946 107.923 115.946C104.715 115.946 100.097 117.164 97.231 115.731C93.8229 114.023 89.004 112.107 86.0266 109.731C83.4885 107.511 81.3838 104.84 79.8192 101.853C76.1809 94.9398 76.6784 85.4724 80.9775 79.8439C89.7614 68.3197 100.379 68.7058 104.537 69.4484C111.287 70.6067 119.269 76.4654 121.362 79.8439C128.409 91.2568 124.964 100.806 124.548 101.853Z" fill="#91AEC7"/>
<path d="M123.144 101.853C118.972 111.588 108.049 114.788 107.953 114.788C104.738 114.788 100.142 116.05 97.2458 114.654C88.3358 110.37 84.6232 108.595 81.0221 101.845C78.0521 96.358 76.7007 87.3064 82.4477 79.8365C84.6752 76.9703 86.4052 74.7055 95.397 71.1413C98.0255 70.1018 102.035 70.4731 104.812 70.978C118.764 73.51 128.342 89.6677 123.144 101.853Z" fill="#91AEC7"/>
<path d="M121.704 101.853C118.177 109.783 108.057 113.637 107.975 113.637C104.76 113.637 100.179 114.936 97.2532 113.592C87.6452 109.197 84.3782 105.84 82.2249 101.853C79.8637 97.4793 76.9383 88.799 83.9178 79.8439C86.9918 75.9085 95.4638 72.5819 95.5455 72.5596C98.2482 71.624 102.273 72.0101 105.079 72.5596C106.208 72.7675 115.096 77.6312 115.148 77.6757C117.717 79.9033 118.118 80.2078 121.927 86.9352C122.996 88.8138 124.043 96.5882 121.704 101.868" fill="#91AEC7"/>
<path d="M120.249 101.853C119.395 103.731 116.477 108.536 107.99 112.471C105.072 113.823 100.483 112.523 97.2681 112.523C97.1864 112.523 86.4349 107.325 83.4203 101.853C77.1313 90.3806 83.1233 82.725 85.3806 79.8439C86.1231 78.9454 95.59 73.8145 95.6643 73.7922C98.4338 72.968 102.518 73.1536 105.317 73.911C108.703 74.8318 112.779 77.4975 115.452 79.7845C117.442 81.4924 119.269 84.6036 120.509 86.9203C123.902 93.2616 120.293 101.771 120.256 101.853" fill="#91AEC7"/>
<path d="M118.779 101.853C118.779 101.912 114.286 108.536 107.997 111.305C105.027 112.612 100.491 111.446 97.2681 111.446C97.2013 111.446 86.2716 104.83 84.6455 101.853C81.8166 96.7664 79.7153 89.0811 85.7815 81.3513C87.6452 78.9677 95.7311 74.958 95.7979 74.9357C98.5898 74.067 102.726 74.4011 105.532 75.1882C110.566 76.599 126.055 86.4451 118.808 101.853" fill="#91AEC7"/>
<path d="M117.85 100.071C117.694 100.605 117.702 101.452 117.316 101.853C117.234 101.934 108.888 110.08 108.005 110.132C104.79 110.31 100.29 111.491 97.2755 110.37C95.7237 109.791 86.2048 102.558 85.8038 101.853C80.3093 92.1107 83.9624 85.6506 85.8038 83.2893C89.0337 79.1682 95.8276 76.0792 95.887 76.057C98.6789 75.0991 102.881 75.6263 105.71 76.4431C112.438 78.3885 117.591 86.8015 117.591 86.8906C120.13 91.8211 119.781 93.076 117.85 100.041" fill="#91AEC7"/>
<path d="M117.583 95.9496C117.1 97.7317 116.952 100.405 115.853 101.89C113.974 104.429 111.101 108.291 108.005 108.9C104.908 109.508 100.327 110.318 97.2755 109.286C93.7635 108.09 89.7985 104.682 87.3556 101.86C84.3856 98.5188 82.5293 89.5935 85.8187 85.3239C85.8706 85.2645 91.5359 78.9232 95.9761 77.2525C98.7605 76.2055 103.03 76.9332 105.881 77.7797C112.096 79.6286 119.321 89.5192 117.583 95.957" fill="#91AEC7"/>
<path d="M114.383 101.853C112.987 104.006 110.403 106.657 107.997 107.526C104.533 108.646 100.832 108.826 97.2755 108.046C95.8722 107.682 85.9449 100.939 85.143 94.2641C84.8831 92.0364 85.0539 88.8361 86.1899 86.9203C87.764 84.2546 91.083 81.5295 93.6744 79.8439C94.4169 79.391 95.2336 78.4182 96.0727 78.4182C105.473 78.4182 106.809 79.4207 107.381 79.8439C109.824 81.678 113.767 84.0096 114.695 86.9203C115.385 89.096 116.744 91.977 116.692 94.2641C116.56 96.9453 115.766 99.5523 114.383 101.853Z" fill="#91AEC7"/>
<path d="M112.898 101.853C111.799 103.486 109.854 105.566 107.982 106.197C104.916 107.177 100.364 107.726 97.2681 106.843C91.0088 105.053 86.4201 94.7913 86.3384 94.2641C86.0322 91.7202 86.5529 89.1453 87.8234 86.9203C89.5535 84.2546 93.0952 81.6557 95.7089 79.8439C96.585 79.2425 106.104 80.4454 106.208 80.4751C108.814 81.6334 112.363 84.1878 113.21 86.9203C113.893 89.148 115.437 91.9696 115.363 94.2641C115.182 96.9642 114.321 99.5747 112.861 101.853" fill="#91AEC7"/>
<path d="M111.391 101.853C110.648 102.981 109.282 104.519 107.96 104.875C104.849 105.707 100.32 106.642 97.2533 105.617C91.5508 103.776 87.8605 94.316 87.8457 94.2269C87.6228 91.6647 88.207 89.0968 89.5163 86.8832C90.9568 84.5887 93.6892 81.6854 96.2657 80.8686C99.1763 79.9107 103.565 80.8315 106.423 81.9453C108.465 82.7324 110.5 85.1085 111.784 86.8832C113.245 89.0582 114.049 91.6074 114.101 94.2269C113.86 96.9464 112.927 99.5589 111.391 101.816" fill="#91AEC7"/>
<path d="M109.876 101.853C109.43 102.491 108.688 103.397 107.931 103.553C104.782 104.207 100.26 105.58 97.2458 104.459C95.8799 103.898 94.6772 103.001 93.7486 101.853C92.1374 99.7737 89.7243 96.8704 89.3456 94.264C89.0263 92.0364 90.0213 88.8806 91.1647 86.9203C92.2191 85.1085 94.3649 82.9032 96.3623 82.2572C99.3323 81.3141 103.661 82.5171 106.601 83.4972C108.034 83.9724 109.445 85.6729 110.314 86.9203C111.636 88.8287 112.868 91.9399 112.801 94.264C112.727 96.6996 111.316 99.8628 109.891 101.853" fill="#91AEC7"/>
<path d="M108.346 101.853C107.656 102.803 97.3052 103.338 97.2087 103.278C96.4643 102.969 95.8085 102.479 95.3005 101.853C93.7709 99.6995 91.187 96.8852 90.8454 94.2641C90.7192 93.3507 92.0186 84.9972 96.4588 83.6235C99.4288 82.7027 103.758 84.2175 106.772 85.0194C107.582 85.2348 108.354 86.2149 108.814 86.9203C110.091 88.8806 111.539 91.9251 111.465 94.2641C111.391 96.7219 109.802 99.8628 108.354 101.853" fill="#91AEC7"/>
<path d="M107.812 99.796C107.158 100.36 97.9438 102.358 97.2087 102.098C96.5924 101.875 92.3379 94.3309 92.323 94.2641C92.0186 91.9919 93.4813 89.0069 94.4243 86.9203C94.8685 86.042 95.6225 85.3595 96.5404 85.0046C96.6147 85.0046 106.653 86.0738 107.299 86.9203C108.883 89.0701 109.858 91.607 110.121 94.2641C110.097 96.3375 109.269 98.3207 107.812 99.796Z" fill="#91AEC7"/>
<path d="M107.678 96.8852C105.228 99.0534 100.201 101.021 97.1642 99.8108C95.3599 99.0683 94.0456 96.2021 93.808 94.2715C93.808 94.2047 95.5455 86.7198 96.6221 86.3931C97.6988 86.0664 99.1021 86.5565 100.09 86.9203C102.317 87.7297 105.525 88.6282 107.247 90.2543C108.688 91.628 109.17 95.5635 107.678 96.8852Z" fill="#91AEC7"/>
<path d="M97.0899 97.2491C96.1098 96.8778 95.397 95.3036 95.2708 94.2789C95.0851 92.7938 95.3896 90.0464 96.7558 89.4375C99.8149 88.101 103.78 92.8087 106.78 94.2789C103.869 95.1848 99.9114 98.3554 97.0602 97.2491" fill="#91AEC7"/>
<path d="M97.0082 94.7393C96.9301 94.6882 96.8642 94.6204 96.8154 94.5408C96.7666 94.4612 96.7361 94.3717 96.7261 94.2789C96.7261 94.0413 96.7261 93.6181 96.9637 93.5364C97.4463 93.321 98.0626 94.0636 98.5378 94.2789C98.0774 94.42 97.4537 94.9101 97.0082 94.7393Z" fill="#91AEC7"/>
<path d="M57.9375 32.2768H57.6108C60.8556 31.4154 65.229 30.3536 68.5108 29.715C72.4387 29.2324 77.6956 28.8165 81.6458 28.6532C73.6047 28.6472 65.6098 29.8691 57.9375 32.2768Z" fill="#91AEC7"/>
<path d="M61.6798 32.2768H57.9673C67.3525 29.7373 70.5453 28.9948 81.6458 28.6532C74.8272 28.6557 68.0645 29.8831 61.6798 32.2768Z" fill="#91AEC7"/>
<path d="M57.997 32.2768H57.9376C65.6098 29.8691 73.6047 28.6472 81.6458 28.6532C75.4236 28.9057 69.0232 29.173 62.4965 31.007C61.0254 31.5261 59.5224 31.9502 57.997 32.2768Z" fill="#231F20"/>
<path d="M68.8227 32.2768H61.8728C68.1906 29.8836 74.8899 28.6558 81.6458 28.6532C77.1248 28.6959 72.6974 29.9469 68.8227 32.2768Z" fill="#91AEC7"/>
<path d="M61.8728 32.2768H61.6798C68.0644 29.8831 74.8272 28.6557 81.6458 28.6532C74.8899 28.6558 68.1906 29.8836 61.8728 32.2768Z" fill="#231F20"/>
<path d="M78.3936 32.2768H69.1123C72.8824 29.9504 77.216 28.6975 81.6458 28.6532C80.5172 28.6532 79.4183 29.9229 78.3936 32.2768Z" fill="#91AEC7"/>
<path d="M69.1123 32.2768H68.8227C72.6974 29.9469 77.1248 28.6959 81.6458 28.6532C77.216 28.6975 72.8824 29.9504 69.1123 32.2768Z" fill="#231F20"/>
<path d="M78.3936 32.2768C78.8437 31.2761 79.4094 30.3316 80.0791 29.4626C80.515 29.051 81.0579 28.7706 81.6458 28.6532C80.5172 28.6532 79.4183 29.9229 78.3936 32.2768Z" fill="#231F20"/>
<path d="M88.8109 32.2768H78.7426C79.6633 29.9229 80.6359 28.6532 81.6458 28.6532C84.1406 28.6532 86.5463 29.9229 88.8109 32.2768Z" fill="#91AEC7"/>
<path d="M78.7426 32.2768H78.3936C78.8437 31.2761 79.4094 30.3316 80.0791 29.4626C80.515 29.051 81.0579 28.7706 81.6458 28.6532C80.636 28.6532 79.6633 29.9229 78.7426 32.2768Z" fill="#231F20"/>
<path d="M97.5428 32.2768H89.1377C86.7616 29.9229 84.2594 28.6532 81.6458 28.6532C87.1475 28.6711 92.5768 29.9086 97.5428 32.2768Z" fill="#91AEC7"/>
<path d="M89.1377 32.2768H88.811C86.5463 29.9229 84.1406 28.6532 81.6458 28.6532C84.2594 28.6532 86.7765 29.9229 89.1377 32.2768Z" fill="#231F20"/>
<path d="M103.505 32.2768H97.7953C92.7405 29.9064 87.2287 28.6697 81.6458 28.6532C89.082 28.6499 96.4677 29.8742 103.505 32.2768Z" fill="#91AEC7"/>
<path d="M97.7953 32.2768H97.5428C92.5768 29.9086 87.1475 28.6711 81.6458 28.6532C87.2287 28.6697 92.7405 29.9064 97.7953 32.2768Z" fill="#231F20"/>
<path d="M94.7881 29.715C98.476 30.3177 102.118 31.1737 105.688 32.2768H103.646C96.5602 29.8739 89.1281 28.6498 81.6458 28.6532C86.048 28.6517 90.4432 29.0069 94.7881 29.715Z" fill="#91AEC7"/>
<path d="M103.646 32.2768H103.505C96.4677 29.8742 89.082 28.6499 81.6458 28.6532C89.1281 28.6498 96.5602 29.8739 103.646 32.2768Z" fill="#231F20"/>
<path d="M28.7274 48.9765H27.9848C29.7223 47.5508 32.0092 45.6202 33.8061 44.2837C36.9098 42.1823 41.1643 39.5463 44.4165 37.6973C47.8543 36.0786 52.5098 34.1183 56.0442 32.7817L56.4971 32.6332H56.8461C46.4482 36.0838 36.8752 41.6453 28.7274 48.9691" fill="#91AEC7"/>
<path d="M28.7274 48.9765C35.1649 43.6302 42.4637 37.5711 56.8461 32.6406C46.4482 36.0912 36.8752 41.6527 28.7274 48.9765Z" fill="#231F20"/>
<path d="M56.846 32.6332H56.4971L57.6108 32.2768H57.9375L56.846 32.6332Z" fill="#231F20"/>
<path d="M37.0806 48.9765H28.8462C36.9679 41.6556 46.5161 36.0938 56.8906 32.6406H60.7739C51.7687 36.265 43.681 41.8447 37.0954 48.9765" fill="#91AEC7"/>
<path d="M37.0806 48.9765C43.6697 41.8402 51.7626 36.2578 60.7739 32.6332C51.7687 36.2575 43.681 41.8372 37.0954 48.9691" fill="#231F20"/>
<path d="M60.7739 32.6332H56.9055C46.5251 36.0867 36.9716 41.6512 28.8462 48.9765H28.7125C37.1517 41.3893 47.1164 35.6953 57.9376 32.2768H61.6501L60.7739 32.6332Z" fill="#231F20"/>
<path d="M53.0222 48.9765H37.5038C44.0105 41.8548 52.0236 36.274 60.9596 32.6406H68.199C62.5559 36.0786 57.3955 41.7219 53.0222 48.9765Z" fill="#91AEC7"/>
<path d="M68.199 32.6332H60.9596C52.0236 36.2666 44.0105 41.8474 37.5038 48.9691H37.0806C43.8889 41.5887 52.3065 35.8768 61.6798 32.2768H68.8227L68.2287 32.6332" fill="#231F20"/>
<path d="M74.3766 48.9765H53.6607C57.9375 41.7219 63.0014 36.0786 68.5331 32.6332H78.2377C76.7972 36.1083 75.4904 41.7219 74.3766 48.9691" fill="#91AEC7"/>
<path d="M74.3766 48.9765C75.4904 41.7219 76.7972 36.1083 78.2377 32.6406C76.7972 36.1157 75.4904 41.7293 74.3766 48.9765Z" fill="#231F20"/>
<path d="M78.2377 32.6332H68.5331C63.0014 36.0786 57.9375 41.7219 53.6607 48.9765H53.0222C57.544 41.4694 62.9123 35.7222 68.8227 32.2768H78.3936L78.2377 32.6332Z" fill="#231F20"/>
<path d="M97.6394 48.9765H75.1637C76.1512 41.7219 77.3244 36.1083 78.6089 32.6406H89.1451C92.3156 36.1157 95.1965 41.7293 97.6394 48.9765Z" fill="#91AEC7"/>
<path d="M97.6393 48.9765C95.1965 41.7219 92.3156 36.1083 89.1451 32.6406C92.3156 36.1157 95.1965 41.7293 97.6393 48.9765Z" fill="#231F20"/>
<path d="M89.1451 32.6332H78.5941C77.3095 36.1083 76.1364 41.7219 75.1489 48.9691H74.3766C75.5275 41.462 76.8863 35.7148 78.3936 32.2694H88.7887L89.1228 32.6258" fill="#231F20"/>
<path d="M117.13 48.9765H98.367C95.8128 41.7219 92.7982 36.1083 89.4569 32.6406H98.2482C105.287 36.1157 111.688 41.7293 117.1 48.9765" fill="#91AEC7"/>
<path d="M117.13 48.9765C111.717 41.7219 105.324 36.0786 98.2779 32.6332C105.317 36.1083 111.717 41.7219 117.13 48.9691" fill="#231F20"/>
<path d="M98.2779 32.6332H89.4866C92.7982 36.1083 95.8128 41.7219 98.3967 48.9691H97.6542C95.1297 41.462 92.13 35.7148 88.8258 32.2694H97.5577L98.3002 32.6258" fill="#231F20"/>
<path d="M130.436 48.9765H117.687C112.185 41.7219 105.688 36.1083 98.5452 32.6406H104.485C114.195 36.1688 123.034 41.7395 130.406 48.9765" fill="#91AEC7"/>
<path d="M104.515 32.6332H98.5749C105.718 36.1083 112.215 41.7219 117.717 48.9691H117.16C111.554 41.462 104.901 35.7148 97.5725 32.2694H103.513L104.522 32.6258" fill="#231F20"/>
<path d="M107.247 32.7817C115.213 35.4368 122.715 39.3174 129.485 44.2837C131.5 45.7688 133.441 47.333 135.307 48.9765H130.748C123.317 41.7336 114.423 36.1638 104.663 32.6406H106.809L107.255 32.7891" fill="#91AEC7"/>
<path d="M106.809 32.6332H104.671C114.431 36.1563 123.325 41.7262 130.755 48.9691H130.443C122.813 41.4759 113.611 35.7741 103.505 32.2768H105.688L106.802 32.6332" fill="#231F20"/>
<path d="M8.88759 76.1758H7.87778C8.44951 74.9135 9.05836 73.6734 9.68949 72.4631C11.5458 69.2033 14.1817 64.956 16.2755 61.8447C18.5996 58.8969 21.8369 55.1173 24.3911 52.4145L27.1607 49.771H27.9032C19.846 57.1975 13.3772 66.1799 8.88759 76.1758Z" fill="#91AEC7"/>
<path d="M27.8958 49.7339H27.1532C27.4354 49.4716 27.7175 49.224 27.9997 48.9914H28.7422C28.4675 49.2364 28.1853 49.4889 27.9106 49.7339" fill="#231F20"/>
<path d="M20.3742 76.1758H9.07321C13.5428 66.1728 19.9911 57.1782 28.0294 49.7339H36.3826C29.4237 57.4571 23.9917 66.4294 20.3742 76.1758Z" fill="#91AEC7"/>
<path d="M36.3826 49.7339H28.0294C19.9911 57.1782 13.5428 66.1728 9.07322 76.1758H8.88759C13.5273 65.8223 20.2859 56.5566 28.7274 48.9765H37.0806C36.8504 49.2216 36.6128 49.474 36.3826 49.7191" fill="#231F20"/>
<path d="M42.2929 76.1758H20.9607C24.5324 66.442 29.9109 57.4707 36.8132 49.7339H52.6064C47.9087 58.0031 44.4347 66.9097 42.2929 76.1758Z" fill="#91AEC7"/>
<path d="M52.6064 49.7339H36.8132C29.9109 57.4707 24.5324 66.442 20.9607 76.1758H20.3742C24.1089 66.1076 29.7852 56.8712 37.0806 48.9914H53.0222C52.8737 49.2364 52.7177 49.4889 52.5692 49.7339" fill="#231F20"/>
<path d="M71.6516 76.1758H43.1691C45.2482 66.9293 48.6333 58.0259 53.2226 49.7339H74.2653C73.1663 57.0925 72.2753 66.0698 71.6516 76.1609" fill="#91AEC7"/>
<path d="M71.6516 76.1758C72.112 69.4335 72.7357 60.1963 74.2653 49.7488C73.1664 57.1073 72.2753 66.0846 71.6516 76.1758Z" fill="#231F20"/>
<path d="M74.2653 49.7339H53.2226C48.6333 58.0259 45.2482 66.9293 43.1691 76.1758H42.2929C44.8249 65.7357 48.5003 56.491 53.0222 48.9914H74.3766L74.2653 49.7339Z" fill="#231F20"/>
<path d="M103.631 76.1758H72.7283C73.2852 66.0921 74.0796 57.1073 75.0597 49.7488H97.8992C100.589 58.3707 102.507 67.2144 103.631 76.1758Z" fill="#91AEC7"/>
<path d="M97.8992 49.7339H75.0597C74.0796 57.0925 73.2852 66.0772 72.7283 76.1758H71.6516C72.2902 65.7357 73.2258 56.491 74.3766 48.9914H97.6394C97.721 49.2364 97.8027 49.4889 97.8918 49.7339" fill="#231F20"/>
<path d="M130.436 76.1758H104.634C103.458 67.1955 101.452 58.3436 98.6417 49.7339H117.702C123.39 57.7768 127.694 66.7139 130.436 76.1758Z" fill="#91AEC7"/>
<path d="M117.694 49.7339H98.6417C101.452 58.3436 103.458 67.1955 104.634 76.1758H103.631C102.483 66.9479 100.477 57.847 97.6393 48.9914H117.13C117.323 49.2364 117.509 49.4889 117.694 49.7339Z" fill="#231F20"/>
<path d="M148.724 76.1758H131.201C128.407 66.7001 124.032 57.7652 118.259 49.7488H131.208C138.724 57.3229 144.676 66.3026 148.724 76.1758Z" fill="#91AEC7"/>
<path d="M131.208 49.7339H118.259C124.033 57.7548 128.409 66.695 131.201 76.1758H130.458C127.628 66.4043 123.118 57.2004 117.13 48.9765H130.436C130.696 49.2216 130.948 49.474 131.178 49.7191" fill="#231F20"/>
<path d="M138.923 52.4145C144.813 58.3029 149.76 65.0654 153.587 72.4631C154.218 73.6883 154.827 74.9283 155.399 76.1758H149.132C145.05 66.2921 139.058 57.3114 131.498 49.7488H136.131C137.071 50.6101 137.995 51.4913 138.9 52.3922" fill="#91AEC7"/>
<path d="M136.153 49.7339H131.52C139.073 57.3029 145.059 66.2886 149.132 76.1758H148.702C144.518 65.9645 138.295 56.7144 130.414 48.9914H135.284L136.131 49.7339" fill="#231F20"/>
<path d="M1.76695 108.603H0.63092C0.823972 104.964 1.22493 100.123 1.68528 96.5139C2.42779 92.7418 3.69005 87.752 4.75925 84.0541C5.53146 81.7225 6.40762 79.4405 7.38773 77.2079H8.42724C4.14528 87.1278 1.87391 97.7986 1.74468 108.603" fill="#91AEC7"/>
<path d="M8.42724 77.2079H7.41L7.87778 76.1758H8.88759C8.73166 76.5248 8.57574 76.8738 8.42724 77.2228" fill="#231F20"/>
<path d="M14.3747 108.603H1.96744C2.10275 97.7993 4.37386 87.1296 8.64999 77.2079H19.9881C16.3573 87.2806 14.4593 97.8957 14.3747 108.603Z" fill="#91AEC7"/>
<path d="M19.9881 77.2079H8.61286C4.34948 87.1322 2.091 97.8018 1.96743 108.603H1.76695C1.89276 97.4198 4.31649 86.3823 8.88759 76.1758H20.3742C20.2405 76.5248 20.1143 76.8738 19.9881 77.2228" fill="#231F20"/>
<path d="M38.4393 108.603H15.0133C15.0991 97.9003 16.979 87.2883 20.5746 77.2079H42.0405C39.6829 87.5074 38.4751 98.0367 38.4393 108.603Z" fill="#91AEC7"/>
<path d="M42.0405 77.2079H20.5746C16.979 87.2883 15.0991 97.9003 15.0133 108.603H14.3747C14.4638 97.526 16.4943 86.5509 20.3742 76.1758H42.2929C42.2038 76.5248 42.1222 76.8738 42.0405 77.2228" fill="#231F20"/>
<path d="M70.6715 108.603H39.4046C39.4502 98.0401 40.6402 87.5138 42.9538 77.2079H71.6145C71.0428 86.8609 70.7235 97.4495 70.7012 108.603" fill="#91AEC7"/>
<path d="M70.6715 108.603C70.6715 97.4644 71.0131 86.8386 71.5848 77.2079C71.0131 86.8609 70.6938 97.4495 70.6715 108.603Z" fill="#231F20"/>
<path d="M71.5848 77.2079H42.9538C40.6501 87.5149 39.4701 98.0412 39.4343 108.603H38.469C38.493 97.6825 39.7761 86.8018 42.2929 76.1758H71.6516L71.5848 77.2228" fill="#231F20"/>
<path d="M105.785 108.603H71.8521C71.8521 97.4644 72.164 86.8386 72.6689 77.2079H103.772C105.095 87.6208 105.767 98.106 105.785 108.603Z" fill="#91AEC7"/>
<path d="M103.772 77.2079H72.654C72.1491 86.8609 71.8595 97.4495 71.8373 108.603H70.6715C70.6715 97.0411 71.0428 86.0664 71.6516 76.1609H103.631C103.676 76.5099 103.728 76.8589 103.772 77.2079Z" fill="#231F20"/>
<path d="M135.21 108.603H106.884C106.867 98.103 106.166 87.6159 104.782 77.2079H130.77C133.672 87.4222 135.171 97.984 135.225 108.603" fill="#91AEC7"/>
<path d="M130.748 77.2079H104.76C106.143 87.6159 106.845 98.1031 106.861 108.603H105.762C105.755 97.7589 105.043 86.9272 103.631 76.1758H130.436L130.748 77.2228" fill="#231F20"/>
<path d="M155.295 108.603H136.057C135.999 97.9785 134.472 87.4136 131.52 77.2079H149.132C153.086 87.2078 155.168 97.8496 155.273 108.603" fill="#91AEC7"/>
<path d="M155.295 108.603C155.183 97.8482 153.094 87.2063 149.132 77.2079C153.086 87.2078 155.168 97.8496 155.273 108.603" fill="#231F20"/>
<path d="M149.132 77.2079H131.52C134.472 87.4136 135.999 97.9786 136.057 108.603H135.21C135.156 97.6225 133.548 86.7055 130.436 76.1758H148.724C148.872 76.5248 149.013 76.8738 149.154 77.2228" fill="#231F20"/>
<path d="M158.517 84.0541C159.873 88.1186 160.901 92.2852 161.591 96.5139C162.238 100.512 162.588 104.553 162.638 108.603H155.763C155.664 97.8455 153.569 87.2003 149.585 77.2079H155.889C156.862 79.4355 157.745 81.7225 158.517 84.0541Z" fill="#91AEC7"/>
<path d="M155.889 77.2079H149.585C153.569 87.2003 155.664 97.8455 155.763 108.603H155.295C155.189 97.4738 152.959 86.4677 148.724 76.1758H155.406L155.874 77.2228" fill="#231F20"/>
<path d="M9.54099 144.489H8.50148C7.07339 141.496 5.83347 138.415 4.78895 135.267C3.71974 131.554 2.48718 126.572 1.71498 122.8C1.37342 119.986 0.920496 116.273 0.742294 113.488H1.84863C2.3383 124.229 4.95284 134.766 9.54099 144.489Z" fill="#91AEC7"/>
<path d="M20.8939 144.489H9.68949C5.12226 134.761 2.52558 124.225 2.0491 113.488H14.4415C14.8271 124.112 17.0087 134.594 20.8939 144.489Z" fill="#91AEC7"/>
<path d="M9.6895 144.489H9.541C4.95285 134.766 2.3383 124.229 1.84863 113.488H2.04911C2.52558 124.225 5.12227 134.761 9.6895 144.489Z" fill="#231F20"/>
<path d="M42.6196 144.489H21.4656C17.6167 134.586 15.4582 124.107 15.0801 113.488H38.4987C38.7161 123.943 40.0982 134.341 42.6196 144.489Z" fill="#91AEC7"/>
<path d="M21.4656 144.489H20.8939C17.0087 134.594 14.8271 124.112 14.4415 113.488H15.0801C15.4582 124.107 17.6167 134.586 21.4656 144.489Z" fill="#231F20"/>
<path d="M71.7333 144.489H43.5181C41.0444 134.334 39.6875 123.939 39.4714 113.488H70.6864C70.7532 124.545 71.1245 135.022 71.7333 144.489Z" fill="#91AEC7"/>
<path d="M43.4958 144.489H42.6196C40.0982 134.341 38.716 123.943 38.4987 113.488H39.464C39.6752 123.938 41.0271 134.333 43.4958 144.489Z" fill="#231F20"/>
<path d="M103.446 144.489H72.8025C72.2605 135.022 71.9264 124.545 71.867 113.488H105.762C105.642 123.86 104.868 134.215 103.446 144.489Z" fill="#91AEC7"/>
<path d="M72.8025 144.489H71.7333C71.1245 135.022 70.7532 124.545 70.6864 113.488H71.867C71.9264 124.545 72.2605 135.022 72.8025 144.489Z" fill="#231F20"/>
<path d="M130.027 144.489H104.441C105.929 134.22 106.738 123.864 106.861 113.488H135.158C134.871 124.008 133.145 134.439 130.027 144.489Z" fill="#91AEC7"/>
<path d="M104.441 144.489H103.446C104.868 134.215 105.642 123.86 105.762 113.488H106.861C106.738 123.864 105.929 134.22 104.441 144.489Z" fill="#231F20"/>
<path d="M148.16 144.489H130.785C133.95 134.448 135.7 124.014 135.982 113.488H155.221C154.789 124.168 152.395 134.677 148.16 144.489Z" fill="#91AEC7"/>
<path d="M130.785 144.489H130.042C133.16 134.439 134.886 124.008 135.173 113.488H136.012C135.729 124.014 133.98 134.448 130.815 144.489" fill="#231F20"/>
<path d="M161.591 122.792C160.365 130.31 158.077 137.615 154.798 144.489H148.59C152.848 134.682 155.255 124.172 155.689 113.488H162.557C162.417 116.606 162.095 119.713 161.591 122.792Z" fill="#91AEC7"/>
<path d="M148.59 144.489H148.159C152.395 134.677 154.789 124.168 155.221 113.488H155.688C155.255 124.172 152.848 134.682 148.59 144.489Z" fill="#231F20"/>
<path d="M29.8114 171.288H29.0689C27.6507 169.981 25.7202 168.318 24.354 166.929C21.8146 164.196 18.5773 160.417 16.2533 157.491C14.1594 154.388 11.5235 150.14 9.66722 146.88C9.43704 146.435 9.20687 145.982 8.98412 145.529H9.97907C14.7841 155.366 21.5304 164.128 29.8114 171.288Z" fill="#91AEC7"/>
<path d="M10.0013 145.529H9.00638C8.83561 145.18 8.66483 144.838 8.50148 144.482H9.54099C9.70434 144.838 9.86769 145.18 10.0385 145.529" fill="#231F20"/>
<path d="M37.9938 171.288H29.9451C21.6899 164.121 14.9692 155.36 10.187 145.529H21.3246C25.1923 155.101 30.8555 163.844 38.0087 171.288" fill="#91AEC7"/>
<path d="M21.3097 145.529H10.1721C14.9543 155.36 21.675 164.121 29.9302 171.288H29.8114C21.2568 163.869 14.3517 154.74 9.541 144.489H20.8939C21.0276 144.838 21.1686 145.18 21.3097 145.529Z" fill="#231F20"/>
<path d="M53.6087 171.288H38.4096C31.3174 163.828 25.7105 155.086 21.8889 145.529H42.8944C45.508 155.435 49.1685 164.189 53.6087 171.288Z" fill="#91AEC7"/>
<path d="M53.6087 171.288C49.1537 164.189 45.508 155.435 42.8944 145.529C45.508 155.435 49.1686 164.189 53.6087 171.288Z" fill="#231F20"/>
<path d="M42.8944 145.529H21.8889C25.7105 155.086 31.3174 163.828 38.4096 171.288H37.9938C30.5946 163.565 24.7913 154.458 20.9162 144.489H42.6196C42.7087 144.838 42.7978 145.18 42.8944 145.529Z" fill="#231F20"/>
<path d="M74.5252 171.288H54.2325C49.8962 164.189 46.3173 155.435 43.7631 145.529H71.8002C72.4684 155.435 73.3965 164.189 74.5252 171.288Z" fill="#91AEC7"/>
<path d="M71.8002 145.529H43.7631C46.3173 155.435 49.8962 164.189 54.2325 171.288H53.6088C49.0126 163.937 45.2481 154.818 42.6197 144.489H71.7333L71.8002 145.529Z" fill="#231F20"/>
<path d="M97.3127 171.288H75.2974C74.2875 164.189 73.4559 155.435 72.8619 145.529H103.305C102.11 154.282 100.107 162.905 97.3201 171.288" fill="#91AEC7"/>
<path d="M103.297 145.529H72.8545C73.4485 155.435 74.2801 164.189 75.2899 171.288H74.5474C73.3817 163.937 72.4238 154.818 71.7556 144.489H103.468C103.416 144.838 103.372 145.18 103.32 145.529" fill="#231F20"/>
<path d="M116.402 171.288H98.0255C100.934 162.922 103.031 154.296 104.285 145.529H129.686C126.758 154.809 122.266 163.521 116.402 171.288Z" fill="#91AEC7"/>
<path d="M129.686 145.529H104.285C103.031 154.296 100.934 162.922 98.0255 171.288H97.283C100.18 162.57 102.243 153.597 103.446 144.489H130.027C129.916 144.838 129.805 145.18 129.686 145.529Z" fill="#231F20"/>
<path d="M129.441 171.288H116.952C122.897 163.542 127.462 154.828 130.443 145.529H147.699C143.37 155.235 137.165 163.989 129.441 171.288Z" fill="#91AEC7"/>
<path d="M147.699 145.529H130.443C127.462 154.828 122.897 163.542 116.952 171.288H116.402C122.48 163.223 127.092 154.152 130.027 144.489H148.159C148.011 144.838 147.855 145.18 147.699 145.529Z" fill="#231F20"/>
<path d="M153.587 146.88C149.751 154.278 144.797 161.04 138.9 166.929C137.386 168.444 135.814 169.897 134.186 171.288H129.73C137.496 163.998 143.741 155.244 148.107 145.529H154.33C154.107 145.982 153.877 146.435 153.647 146.88" fill="#91AEC7"/>
<path d="M154.33 145.529H148.159C143.793 155.244 137.548 163.998 129.782 171.288H129.478C137.464 163.719 143.82 154.6 148.159 144.489H154.797C154.634 144.846 154.463 145.187 154.293 145.536" fill="#231F20"/>
<path d="M59.3483 187.453H59.0439L56.0739 186.525C54.2993 185.856 51.901 185.04 50.1338 184.297C48.3667 183.555 46.3173 181.616 44.4388 181.616C41.1866 179.768 36.9321 177.161 33.8284 175.03L29.9896 172.06H30.695C39.081 179.129 48.843 184.381 59.3632 187.483" fill="#91AEC7"/>
<path d="M30.6801 172.03H29.9748L29.0912 171.288H29.8337L30.7024 172.03" fill="#231F20"/>
<path d="M62.8678 187.453H59.4077C48.9087 184.349 39.169 179.097 30.8064 172.03H38.7289C45.5126 178.922 53.7638 184.193 62.8678 187.453Z" fill="#91AEC7"/>
<path d="M38.7289 172.03H30.8064C39.1691 179.097 48.9087 184.349 59.4077 187.453H59.3483C48.4598 184.239 38.3875 178.727 29.8114 171.288H37.979L38.7215 172.03" fill="#231F20"/>
<path d="M69.5875 187.453H63.046C54.0121 184.183 45.8356 178.911 39.1299 172.03H54.0914C58.5464 179.018 63.8479 184.327 69.6023 187.453" fill="#91AEC7"/>
<path d="M69.5875 187.453C63.8331 184.327 58.5464 179.018 54.0914 172.03C58.5464 179.018 63.8479 184.327 69.6023 187.453" fill="#231F20"/>
<path d="M54.0914 172.03H39.1299C45.8356 178.911 54.0121 184.183 63.046 187.453H62.8678C53.4348 184.067 44.919 178.533 37.9938 171.288H53.5865L54.0542 172.03" fill="#231F20"/>
<path d="M78.5941 187.453H69.8548C64.2266 184.327 59.0884 179.018 54.6928 172.03H74.644C75.7874 179.018 77.1239 184.327 78.5867 187.453" fill="#91AEC7"/>
<path d="M78.5941 187.453C77.1091 184.327 75.7948 179.018 74.6514 172.03C75.7948 179.018 77.1313 184.327 78.5941 187.453Z" fill="#231F20"/>
<path d="M74.6439 172.03H54.6928C59.0884 179.018 64.2266 184.327 69.8548 187.453H69.5875C63.6474 184.215 58.2048 178.639 53.6087 171.288H74.5251C74.5251 171.54 74.6068 171.785 74.6439 172.03Z" fill="#231F20"/>
<path d="M88.3877 187.453H78.9134C77.614 184.327 76.4185 179.018 75.4013 172.03H97.0454C94.5357 179.018 91.6028 184.327 88.3877 187.453Z" fill="#91AEC7"/>
<path d="M97.0454 172.03H75.4013C76.4185 179.018 77.6288 184.327 78.9134 187.453H78.5941C77.1091 184.215 75.6983 178.639 74.5326 171.288H97.3201L97.0528 172.03" fill="#231F20"/>
<path d="M96.5998 187.453H88.6921C92.0557 184.327 95.1297 179.018 97.7507 172.03H115.823C110.255 179.018 103.735 184.327 96.5998 187.453Z" fill="#91AEC7"/>
<path d="M115.823 172.03H97.7507C95.1297 179.018 92.0557 184.327 88.6922 187.453H88.3877C91.7142 184.215 94.7436 178.639 97.2978 171.288H116.388L115.808 172.03" fill="#231F20"/>
<path d="M102.206 187.453H96.8375C104.084 184.327 110.707 179.018 116.365 172.03H128.639C121.045 179.02 112.027 184.281 102.206 187.453Z" fill="#91AEC7"/>
<path d="M128.639 172.03H116.365C110.707 179.018 104.084 184.327 96.8375 187.453H96.5999C103.988 184.215 110.707 178.639 116.402 171.288H129.441L128.639 172.03Z" fill="#231F20"/>
<path d="M129.485 175.023C126.125 177.492 122.577 179.696 118.875 181.616C115.445 183.228 110.789 185.196 107.247 186.532C106.26 186.859 105.265 187.171 104.277 187.46H102.354C112.226 184.294 121.299 179.033 128.951 172.038H133.339C132.092 173.07 130.815 174.072 129.5 175.008" fill="#91AEC7"/>
<path d="M133.324 172.03H128.936C121.288 179.024 112.221 184.284 102.354 187.453H102.221C112.39 184.161 121.695 178.638 129.456 171.288H134.223L133.339 172.03" fill="#231F20"/>
<path d="M81.6458 190.653C77.6956 190.49 72.4387 190.074 68.5108 189.591C66.0012 189.079 62.645 188.418 60.1651 187.772H60.4621C67.3598 189.69 74.4865 190.659 81.6458 190.653Z" fill="#91AEC7"/>
<path d="M94.7659 189.591C74.3098 190.653 67.2115 189.651 60.4621 187.772H60.1651L59.0439 187.453H59.3483C66.5818 189.581 74.0835 190.659 81.6235 190.653" fill="#231F20"/>
<path d="M81.6458 190.653C74.5036 190.658 67.3942 189.689 60.514 187.772H63.8033C69.5514 189.678 75.5677 190.651 81.6235 190.653" fill="#91AEC7"/>
<path d="M92.7017 189.591C75.4755 190.653 69.4984 189.651 63.8108 187.772H60.514C67.3942 189.689 74.5036 190.658 81.6458 190.653C74.1057 190.659 66.604 189.581 59.3706 187.453H62.8901C68.924 189.571 75.273 190.653 81.668 190.653" fill="#231F20"/>
<path d="M81.6458 190.653C75.6383 190.653 69.6705 189.68 63.9741 187.772H70.1889C73.7207 189.64 77.6507 190.628 81.6458 190.653Z" fill="#91AEC7"/>
<path d="M88.7441 189.591C77.6808 190.653 73.8346 189.651 70.1815 187.772H63.9741C69.6705 189.68 75.6383 190.653 81.6458 190.653C75.2507 190.653 68.9018 189.571 62.8678 187.453H69.5875C73.2723 189.521 77.4206 190.622 81.6458 190.653" fill="#231F20"/>
<path d="M81.6458 190.653C77.7263 190.628 73.8734 189.638 70.4265 187.772H78.7203C79.6484 189.651 80.6285 190.653 81.6309 190.653" fill="#91AEC7"/>
<path d="M83.4501 189.591C80.6434 190.653 79.6633 189.651 78.7352 187.772H70.4265C73.8689 189.636 77.7165 190.625 81.6309 190.653C77.4058 190.622 73.2574 189.521 69.5726 187.453H78.5941C79.5668 189.539 80.5914 190.653 81.6532 190.653" fill="#231F20"/>
<path d="M81.6458 190.653C80.7474 190.653 79.8786 189.651 79.0544 187.772H88.0536C86.0117 189.651 83.8659 190.653 81.6458 190.653Z" fill="#91AEC7"/>
<path d="M77.6882 189.591C83.8659 190.653 86.0117 189.651 88.0833 187.772H79.0544C79.8786 189.651 80.7474 190.653 81.6458 190.653C80.584 190.653 79.5593 189.539 78.5867 187.453H88.3877C86.2493 189.539 83.9847 190.653 81.6458 190.653" fill="#231F20"/>
<path d="M81.6458 190.653C83.9698 190.653 86.2122 189.651 88.3283 187.772H95.8425C91.3426 189.664 86.5121 190.643 81.6309 190.653" fill="#91AEC7"/>
<path d="M72.8545 189.591C86.5686 190.653 91.3281 189.651 95.8722 187.772H88.3432C86.2122 189.651 83.9698 190.653 81.6606 190.653C83.9995 190.653 86.2642 189.539 88.4026 187.453H96.6147C91.9078 189.551 86.814 190.641 81.6606 190.653" fill="#231F20"/>
<path d="M81.6458 190.653C86.5991 190.644 91.5027 189.665 96.0801 187.772H101.181C94.846 189.686 88.2636 190.657 81.6458 190.653Z" fill="#91AEC7"/>
<path d="M69.5504 189.591C88.41 190.653 94.9589 189.651 101.181 187.772H96.0801C91.5027 189.665 86.5991 190.644 81.6458 190.653C86.7991 190.641 91.893 189.551 96.5999 187.453H102.206C95.5596 189.578 88.6235 190.658 81.6458 190.653" fill="#231F20"/>
<path d="M94.7881 189.591C90.8603 190.074 85.6033 190.49 81.6458 190.653C88.3051 190.657 94.9291 189.686 101.307 187.772H103.134C100.387 188.528 97.6007 189.135 94.7881 189.591Z" fill="#91AEC7"/>
<path d="M103.134 187.772H101.307C94.9291 189.686 88.3051 190.657 81.6458 190.653C88.6235 190.658 95.5596 189.578 102.206 187.453H104.255L103.134 187.772Z" fill="#231F20"/>
<path d="M162.646 109.657C162.646 110.939 162.616 112.216 162.557 113.488H0.742296L0.63092 109.657V108.603H162.638C162.638 108.952 162.638 109.3 162.638 109.657" fill="#231F20"/>
</g>
</g>
<defs>
<clipPath id="clip0_38_540">
<rect width="18" height="37" fill="white" transform="translate(102) rotate(90)"/>
</clipPath>
<clipPath id="clip1_38_540">
<rect width="162" height="162" fill="white" transform="translate(0.653198 28.6532)"/>
</clipPath>
</defs>
</svg>
