<svg  viewBox="0 0 386 368" fill="none" xmlns="http://www.w3.org/2000/svg">
<g clip-path="url(#clip0_47_2)">
<path d="M329.459 314.099C404.828 242.245 404.828 125.745 329.459 53.8909C254.09 -17.9636 131.892 -17.9636 56.5231 53.8909C-18.8461 125.745 -18.8461 242.245 56.5231 314.099C131.892 385.954 254.09 385.954 329.459 314.099Z" fill="url(#paint0_linear_47_2)"/>
<path d="M71.239 226.143C88.3782 204.869 105.046 183.985 128.943 169.123C149.015 156.638 170.848 148.598 193.959 142.735C219.406 136.253 245.816 131.449 269.797 120.662C294.584 109.476 313.42 88.9812 334.75 73.1006C337.285 71.2029 339.873 69.3951 342.492 67.6373C326.282 48.7223 306.299 33.0591 283.699 21.5536C280.168 23.8209 276.648 26.0881 273.097 28.3254C265.91 32.8598 258.377 36.8949 251.421 41.729C230.783 56.0714 214.754 75.3379 196.096 91.7778C177.951 107.913 156.479 120.267 133.049 128.053C120.268 132.328 107.11 135.534 94.2869 139.599C81.4845 143.741 69.1904 149.193 57.6198 155.859C38.8776 166.426 20.5336 178.781 0 185.953C0.286585 215.525 8.07949 244.592 22.7127 270.669C42.7224 261.32 58.1226 242.424 71.239 226.143Z" fill="#E7CAC2"/>
<g style="mix-blend-mode:color-dodge" opacity="0.7">
<path d="M45.2472 281.256C19.1402 241.954 10.1829 207.606 8.38098 181.238C8.38098 181.148 8.38098 181.059 8.38098 180.979C7.30665 172.63 6.89341 164.217 7.14478 155.809C2.11614 183.316 1.90662 226.723 30.9155 274.574C80.0076 355.375 171.518 368.09 217.583 360.579C217.583 360.559 105.811 372.544 45.2472 281.256Z" fill="#C3E6F8"/>
</g>
<path d="M39.8938 120.742C51.8473 116.048 63.895 113.391 76.5609 110.864C88.3049 108.497 100.175 106.01 111.321 101.616C133.646 92.8165 151.309 76.3766 167.757 59.9667C187.411 40.3806 206.09 19.5461 228.3 3.11621C219.331 1.50183 210.253 0.5005 201.135 0.119873C190.659 6.6419 182.225 15.6908 173.896 24.4801C165.568 33.2693 157.291 42.4581 147.863 50.3085C139.482 57.2999 130.21 63.5223 121.106 69.6848C101.411 83.0085 80.6257 95.2735 58.3321 104.282C44.0005 110.135 28.8308 114.86 13.3468 116.687C11.1468 122.011 9.15628 127.454 7.52197 133.017C18.5745 129.751 29.1451 124.947 39.8938 120.742Z" fill="#E38481"/>
<path d="M188.94 28.0557C180.559 35.7463 173.718 44.7553 166.06 53.0851C158.425 61.5883 149.953 69.3744 140.76 76.3367C131.92 83.0713 122.094 88.536 111.594 92.5568C99.2212 97.1313 86.6601 101.276 74.2037 105.671C52.9892 113.162 32.1728 122.37 9.81629 126.056C9.00961 128.363 8.22389 130.68 7.52197 133.047C18.5745 129.781 29.1451 124.977 39.8938 120.772C51.8473 116.078 63.895 113.421 76.5609 110.894C88.3049 108.527 100.175 106.04 111.321 101.646C133.646 92.8465 151.309 76.4066 167.757 59.9967C187.411 40.4106 206.09 19.5761 228.3 3.14618L226.98 2.92645C214.188 11.1764 200.15 17.7883 188.94 28.0557Z" fill="#E7CAC2"/>
<path d="M25.6145 181.618C35.3575 175.266 45.7605 169.922 55.4825 163.54C64.4712 157.627 74.9894 150.496 79.2952 140.458C59.349 140.298 39.6502 144.674 21.8326 153.223C14.6622 156.65 7.7207 160.496 1.04757 164.739C0.344221 171.135 -0.00547386 177.563 -6.01702e-05 183.995C-6.01702e-05 189.608 0.2828 195.151 0.79614 200.625C0.914671 200.543 1.02672 200.453 1.13138 200.355C9.2191 194.083 17.0344 187.231 25.6145 181.618Z" fill="#E38481"/>
<path d="M205.901 62.5336C220.568 63.033 234.711 56.2213 247.314 49.6793C259.917 43.1373 272.028 35.5266 285.459 30.8823L294.762 27.7062C283.748 21.1656 272.066 15.7076 259.896 11.4161C244.371 30.2331 219.866 42.1285 205.901 62.5336Z" fill="#E38481"/>
<path d="M293.065 87.6628C266.968 106.869 236.199 117.257 204.707 125.347C192.377 128.523 179.952 131.459 167.673 134.825C155.678 138.091 144.102 141.817 133.542 148.319C114.59 160.034 99.9022 176.704 82.1343 189.878C68.4627 200.005 52.6121 207.127 38.0395 215.946C28.4537 221.749 16.1126 229.09 8.70581 238.768C13.9358 254.779 21.4477 270.03 31.0308 284.093C51.3759 276.002 66.3046 257.495 73.2399 237.609C81.0762 215.227 98.1317 198.228 119.535 186.812C138.78 176.534 160.11 170.432 181.848 167.206C205.566 163.69 231.087 162.731 252.657 151.724C275.988 139.849 290.582 117.946 310.277 101.786C322.458 91.9422 336.264 84.0888 351.135 78.544C344.634 69.6865 337.328 61.3913 329.302 53.7543C317.82 65.6797 306.527 77.7649 293.065 87.6628Z" fill="#E6B3A9"/>
<path d="M40.6062 233.634C53.293 225.205 61.2026 212.43 72.6428 202.722C84.0829 193.014 96.9269 185.593 109.205 177.203C120.96 169.213 130.87 159.006 142.981 151.525C162.362 139.539 184.069 135.335 206.017 129.771C232.977 123.01 258.877 112.867 283.039 99.6082C289.272 96.1624 295.61 92.7066 301.1 88.2221C305.615 84.5366 309.785 80.5315 313.975 76.5464C320.617 70.2441 327.448 64.3413 335.682 60.1664C333.587 57.9991 331.492 55.8617 329.302 53.7842C317.778 65.6797 306.527 77.7549 293.065 87.6628C266.968 106.869 236.199 117.257 204.707 125.347C192.377 128.523 179.952 131.459 167.673 134.825C155.678 138.091 144.102 141.817 133.542 148.319C114.59 160.034 99.9022 176.704 82.1343 189.878C68.4627 200.005 52.6121 207.127 38.0395 215.946C28.4537 221.749 16.1126 229.09 8.70581 238.768C9.93154 242.493 11.2935 246.179 12.7392 249.805C21.5812 243.752 31.6699 239.557 40.6062 233.634Z" fill="#E38481"/>
<path d="M340.92 72.771C337.481 76.291 333.434 79.2232 328.956 81.4404C318.239 86.9537 307.857 92.8065 297.527 98.939C287.061 105.253 277.203 112.439 268.068 120.413C259.635 127.644 251.233 135.504 241.741 141.517C231.359 148.079 219.856 151.874 207.756 154.451C195.079 157.148 182.424 159.765 169.947 163.24C145.17 170.122 119.158 179.63 99.7554 196.36C90.6306 204.24 82.9933 213.339 75.7228 222.808C69.5522 230.798 63.696 238.898 56.132 245.779C46.7034 254.399 34.5299 263.598 21.3297 267.962C24.3111 273.493 27.5839 278.877 31.1355 284.093C51.4806 276.002 66.4093 257.495 73.3446 237.609C81.1809 215.227 98.2364 198.228 119.639 186.812C138.884 176.534 160.214 170.432 181.953 167.206C205.671 163.69 231.191 162.731 252.762 151.724C276.093 139.849 290.686 117.946 310.382 101.786C322.563 91.9422 336.368 84.0888 351.239 78.5439C348.977 75.4377 346.557 72.4214 344.074 69.475C342.984 70.5937 341.957 71.6923 340.92 72.771Z" fill="#E7CAC2"/>
<path d="M289.911 151.055C295.767 151.824 301.833 149.417 307.27 147.679C312.917 145.872 318.543 144.154 324.032 142.026C336.552 137.212 348.84 131.909 362.177 129.532C366.839 128.703 371.763 128.123 376.655 127.414C372.306 114.622 366.499 102.324 359.338 90.7391C349.176 97.381 338.898 103.873 329.061 110.974C313.818 122.011 298.785 134.595 289.911 151.055Z" fill="#EAC69D"/>
<path d="M84.2611 293.231C98.7498 292.343 111.908 297.986 125.726 301.132C150.429 306.775 177.217 307.614 200.716 297.137C221.993 287.608 241.573 270.09 250.101 248.926C257.435 230.518 259.174 207.406 278.628 196.42C288.392 190.887 299.445 187.431 309.806 183.036C322.021 177.892 334.247 172.519 347.091 168.953C358.269 165.857 369.846 164.888 381.149 162.411C382.312 162.162 383.433 161.862 384.565 161.572C384.013 157.318 383.315 153.109 382.469 148.948C370.453 152.853 357.955 155.6 346.599 158.356C338.097 160.239 329.705 162.543 321.455 165.258C311.596 168.844 301.987 173.027 292.687 177.783C283.615 182.307 274.658 187.77 264.841 190.697C256.389 193.164 247.571 194.304 238.734 194.073C226.498 193.823 214.398 191.915 202.172 191.146C189.752 190.201 177.253 190.924 165.044 193.294C144.238 197.598 125.234 207.536 110.986 222.708C96.8745 237.709 89.1954 256.686 75.6705 272.147C65.8961 283.314 53.9216 292.073 39.6843 295.758C42.2615 298.954 44.9225 302.071 47.7406 305.107C59.8093 300.832 71.1657 294.04 84.2611 293.231Z" fill="#E7CAC2"/>
<path d="M361.548 162.122C346.064 166.696 330.172 170.172 314.939 175.525C298.816 181.198 285.417 189.938 271.106 198.757C260.745 205.159 248.854 210.543 240.651 219.591C232.449 228.64 227.818 240.316 220.872 250.264C214.712 259.393 206.294 266.938 196.358 272.237C186.13 277.611 175.078 281.417 163.609 283.513C152.067 285.646 140.287 286.364 128.555 285.651C115.459 284.802 102.521 283.373 89.5096 286.05C77.2733 288.577 66.8912 293.971 56.1425 299.853C53.2511 301.431 50.3072 303.049 47.29 304.558L47.7405 305.067C59.8092 300.792 71.1656 294 84.261 293.191C98.7497 292.303 111.908 297.946 125.726 301.092C150.429 306.735 177.217 307.574 200.716 297.097C221.993 287.568 241.573 270.05 250.101 248.886C257.435 230.478 259.174 207.366 278.628 196.38C288.392 190.847 299.445 187.391 309.806 182.996C322.021 177.853 334.247 172.479 347.091 168.913C358.269 165.817 369.845 164.848 381.149 162.371C382.312 162.122 383.433 161.822 384.565 161.532C384.271 159.285 383.936 157.058 383.569 154.831C376.351 157.557 368.976 159.924 361.548 162.122Z" fill="#EAC69D"/>
<path d="M383.569 154.861C371.626 156.858 359.977 158.536 348.38 162.341C322.356 170.871 296.218 179.231 271.284 190.447C259.519 195.741 248.498 202.492 236.513 207.426C225.22 212.021 213.465 212.8 201.355 213.01C176.013 213.449 149.591 212.55 127.706 226.992C108.598 239.557 101.076 260.951 84.9106 276.082C76.959 283.513 67.3103 289.676 56.6245 292.922C53.1568 293.971 45.5929 294.64 40.491 296.817C41.7586 298.365 43.0367 299.893 44.3463 301.401C54.9273 296.408 65.456 290.944 76.8228 287.948C90.0335 284.472 102.783 285.571 116.025 288.307C130.357 291.304 145.149 295.449 160.026 293.671C172.952 291.996 185.431 288.011 196.808 281.925C207.368 276.362 217.687 269.291 225.22 260.172C232.553 251.293 236.419 240.706 240.348 230.209C247.335 211.551 264.841 199.896 282.515 191.026C304.804 179.879 328.051 170.57 352.004 163.2C362.229 160.024 373.114 158.346 383.81 156.119C383.695 155.7 383.643 155.27 383.569 154.861Z" fill="#E4A79E"/>
<path d="M134.715 351.78C144.95 342.581 157.082 341.582 170.659 341.283C185.075 341.033 199.647 341.612 213.706 338.077C224.363 335.507 234.467 331.184 243.564 325.302C252.22 319.51 260.003 312.614 266.696 304.807C273.903 296.537 281.153 287.588 286.035 277.84C290.823 268.342 294.584 257.615 302.127 249.675C309.669 241.734 321.057 238.189 331.062 233.584C343.498 227.802 355.479 221.169 366.912 213.739C373.198 209.664 379.117 204.75 385.225 200.265C385.637 195.97 385.881 191.642 385.958 187.281C382.972 189.189 380.081 191.276 377.273 193.354C371.469 197.778 365.896 202.492 360.04 206.867C341.821 220.48 316.814 222.318 297.988 235.013C288.266 241.555 282.274 250.833 276.931 260.721C271.337 270.979 265.271 280.617 257.235 289.336C240.473 307.494 219.615 322.016 194.21 326.351C170.67 330.346 146.511 327.35 123.516 321.797C104.575 317.232 81.6105 310.58 64.0731 320.878C82.9776 337.083 105.05 349.573 129.026 357.633C130.796 355.573 132.695 353.618 134.715 351.78Z" fill="#E4A79E"/>
<path d="M342.576 272.946C322.346 283.933 311.325 304.608 293.609 318.401C274.752 333.043 252.469 343.08 229.568 350.561C216.441 354.836 203.199 357.243 189.674 360.04C182.498 361.538 175.772 363.316 169.287 366.612C177.163 367.534 185.091 367.998 193.026 368C229.076 368.01 264.408 358.39 295.016 340.232C325.624 322.074 350.284 296.104 366.2 265.266C358.081 267.133 349.783 269.031 342.576 272.946Z" fill="#E38481"/>
<g style="mix-blend-mode:multiply">
<path d="M192.995 0C86.4192 0 0 82.3793 0 183.995C0 285.611 86.4192 368 192.995 368C244.183 368 293.275 348.614 329.47 314.106C365.666 279.599 386 232.796 386 183.995C386 82.3793 299.623 0 192.995 0ZM178.59 318.221C147.002 318.221 116.124 309.291 89.86 292.56C63.5958 275.83 43.1251 252.05 31.0366 224.228C18.9482 196.406 15.7847 165.792 21.9464 136.256C28.108 106.72 43.318 79.5887 65.653 58.2938C87.988 36.999 116.445 22.4964 147.425 16.6202C178.406 10.7439 210.518 13.7578 239.702 25.2808C268.885 36.8037 293.829 56.3182 311.38 81.3566C328.931 106.395 338.299 135.833 338.301 165.947C338.303 185.943 334.173 205.744 326.147 224.219C318.121 242.694 306.357 259.48 291.527 273.62C276.696 287.76 259.089 298.977 239.711 306.63C220.333 314.282 199.564 318.221 178.59 318.221Z" fill="#DADCDC"/>
</g>
<path d="M233.831 216.026C230.144 216.895 226.728 218.393 223.009 219.252C214.895 221.141 206.593 222.199 198.243 222.408C184.996 222.797 171.846 224.715 159.083 228.121C147.308 231.337 135.385 235.802 125.758 243.233C120.869 247.154 116.415 251.541 112.463 256.327C111.594 257.325 110.714 258.514 109.792 259.782C109.644 259.867 109.507 259.967 109.383 260.082C105.193 264.616 100.531 268.721 96.2355 273.116L96.1097 273.236C94.8212 274.564 93.5535 275.913 92.3802 277.311C92.1706 277.551 91.9402 278.02 92.2021 278.31C93.805 279.918 99.0955 277.99 100.897 277.501C111.258 274.714 122.248 274.744 132.997 274.504C148.428 274.125 161.65 274.215 176.159 268.362C188.121 263.46 198.631 255.824 206.761 246.129C211.999 239.877 215.98 233.604 222.475 228.291C226.802 224.725 231.411 221.489 234.219 216.675C234.376 216.355 234.271 215.926 233.831 216.026Z" fill="#E7CAC2"/>
<path d="M206.09 229.3C201.062 228.74 195.31 230.648 190.03 231.956C174.944 233.954 159.785 235.902 145.642 241.655C139.267 244.359 133.443 248.115 128.44 252.751C124.312 256.436 119.011 259.742 115.983 264.317C115.701 264.756 115.763 265.395 116.392 265.475C123.243 266.184 130.933 263.338 137.669 262.159C146.302 260.661 155.102 260.721 163.567 258.244C171.288 255.987 177.867 251.832 184.216 247.138C191.34 241.854 199.008 237.15 206.027 231.827C206.761 231.267 207.609 229.479 206.09 229.3ZM168.847 253.69C162.393 256.686 154.327 257.475 147.287 258.404C140.037 259.403 133.018 260.921 125.894 262.399C126.944 261.483 127.908 260.48 128.775 259.403C136.747 249.854 149.068 245.42 160.466 240.786C160.874 240.686 161.283 240.566 161.692 240.486C168.522 239.018 175.426 237.949 182.257 236.491C186.07 235.672 189.925 235.202 193.781 234.493C195.582 234.144 197.835 233.355 200.066 232.865C196.37 234.998 192.806 237.333 189.391 239.857C182.99 244.921 176.379 250.224 168.847 253.69Z" fill="#E4A79E"/>
<g style="mix-blend-mode:screen" opacity="0.6">
<path d="M275.339 55.2724C269.053 53.8642 260.064 61.2651 254.847 63.7421C250.026 66.1113 245.464 68.9318 241.228 72.1618L241.123 72.2317C239.174 73.7199 237.079 75.228 234.994 76.8461C231.548 79.1832 227.933 81.2407 225.639 84.7264C224.443 85.9045 223.317 87.1449 222.266 88.4419C221.501 89.4407 221.365 91.0387 223.104 90.8389C232.323 89.8402 243.354 87.0136 250.74 81.4105C256.24 77.2456 260.986 72.2816 266.172 67.7472C269.849 64.5211 273.757 61.8744 276.187 57.6196C276.732 56.6108 276.575 55.5521 275.339 55.2724Z" fill="#E7CAC2"/>
</g>
<g style="mix-blend-mode:screen" opacity="0.6">
<path d="M79.1801 163.39C74.1514 165.128 69.7514 169.023 65.4875 172.1C62.5122 174.287 59.3903 176.484 56.436 178.861C55.6921 179.371 54.9798 179.86 54.3407 180.29C49.9721 183.056 43.5815 186.442 41.4548 191.276C41.3557 191.497 41.3243 191.74 41.3643 191.977C41.4043 192.214 41.5141 192.435 41.6809 192.615C41.8477 192.795 42.0647 192.926 42.3065 192.993C42.5484 193.06 42.8052 193.061 43.0472 192.994C49.4692 191.652 55.5118 189.005 60.7627 185.234C67.8237 179.94 72.3809 171.96 79.6201 166.976C81.3067 165.847 82.4487 162.242 79.1801 163.39ZM61.8103 178.781C60.1865 180.289 58.4612 181.693 56.6455 182.986C58.3112 181.518 60.0712 180.12 61.8103 178.781Z" fill="#E7CAC2"/>
</g>
<g style="mix-blend-mode:screen" opacity="0.6">
<path d="M320.512 187.321C313.975 189.788 307.145 191.925 300.932 195.091C299.769 195.691 298.502 196.36 297.224 197.089C291.576 199.664 286.449 203.167 282.075 207.436C281.383 208.096 279.78 210.742 282.001 210.772C287.805 210.832 293.599 207.676 298.659 205.249C306.956 201.102 314.581 195.834 321.298 189.608C322.283 188.689 322.534 186.562 320.512 187.321Z" fill="#E7CAC2"/>
</g>
<g style="mix-blend-mode:screen" opacity="0.6">
<path d="M155.814 202.492C144.605 202.722 134.338 209.424 125.349 215.117C120.942 218.027 116.964 221.487 113.521 225.404C110.452 228.76 108.147 233.285 105.329 237.12C104.339 238.15 103.29 239.127 102.186 240.046C100.374 241.535 101.348 244.201 103.705 242.643C111.583 237.42 118.791 230.139 125.705 223.736C134.6 215.516 145.495 211.541 155.395 204.969C155.909 204.64 157.532 202.472 155.814 202.492ZM131.205 215.207C135.89 212.16 140.906 209.605 146.166 207.586C141.168 210.073 136.014 212.34 131.289 215.337C131.258 215.297 131.258 215.257 131.205 215.207Z" fill="#E7CAC2"/>
</g>
<g style="mix-blend-mode:screen" opacity="0.6">
<path d="M216.912 250.963C213.025 256.117 206.069 259.363 200.758 263.088C194.902 267.414 188.495 271.015 181.691 273.805C175.206 276.352 170.167 279.269 162.833 279.418C157.847 279.518 152.242 282.255 147.768 284.073C147.433 284.203 146.92 285.071 147.611 284.952C154.536 283.593 161.419 286.21 168.187 284.482C174.661 282.814 181.534 279.428 187.526 276.542C193.954 273.305 199.852 269.189 205.032 264.327C209.495 260.332 215.089 256.546 217.771 251.173C218.096 250.514 217.216 250.554 216.912 250.963Z" fill="#E7CAC2"/>
</g>
<g style="mix-blend-mode:screen" opacity="0.6">
<path d="M292.352 224.565C291.514 222.158 287.564 223.367 285.941 224.156C283.942 225.164 282.34 226.762 281.373 228.71C280.568 229.347 279.862 230.091 279.278 230.918C278.963 231.367 278.911 232.156 279.498 232.416C282.578 233.834 285.784 232.196 288.245 230.418C289.765 229.23 293.148 226.853 292.352 224.565Z" fill="#E7CAC2"/>
</g>
<g style="mix-blend-mode:screen" opacity="0.6">
<path d="M317.296 213.01C317.039 212.735 316.707 212.534 316.337 212.429C315.967 212.323 315.574 212.316 315.201 212.41C314.86 212.369 314.513 212.397 314.184 212.494C313.856 212.59 313.552 212.753 313.294 212.97C312.783 213.397 312.419 213.961 312.247 214.588C311.757 214.965 311.333 215.413 310.99 215.916C310.891 216.023 310.824 216.152 310.794 216.292C310.765 216.431 310.775 216.575 310.822 216.71C310.87 216.845 310.954 216.965 311.066 217.059C311.179 217.153 311.315 217.217 311.461 217.244C313.127 217.614 314.792 216.176 316.186 215.496C316.877 215.167 318.061 213.739 317.296 213.01Z" fill="#E7CAC2"/>
</g>
<g style="mix-blend-mode:screen" opacity="0.6">
<path d="M255.622 91.0986C255.151 89.2808 252.427 89.8102 251.191 90.3595C249.136 91.1722 247.435 92.6315 246.371 94.4944C246.312 94.6054 246.266 94.7228 246.235 94.844C245.606 95.543 245.161 96.3751 244.936 97.271C244.863 97.5707 244.769 98.1 245.083 98.3297C247.534 100.098 250.489 98.5694 252.584 96.9814C254.354 95.663 256.23 93.3958 255.622 91.0986Z" fill="#E7CAC2"/>
</g>
<g style="mix-blend-mode:screen" opacity="0.6">
<path d="M289.031 70.9832C286.801 71.3837 284.693 72.2538 282.861 73.5301C282.127 73.8597 281.425 74.2592 280.765 74.5888C278.743 75.6775 276.491 77.1856 275.401 79.1932C275.143 79.6118 275.01 80.09 275.017 80.5756C275.024 81.0613 275.171 81.5358 275.441 81.9476C275.711 82.3595 276.094 82.6929 276.549 82.9116C277.004 83.1304 277.513 83.226 278.021 83.1883C280.65 83.1883 283.332 81.8199 285.584 80.6514C287.837 79.4828 290.655 77.5851 291.755 75.1381C292.855 72.6911 291.881 70.6935 289.031 70.9832Z" fill="#E7CAC2"/>
</g>
<g style="mix-blend-mode:screen" opacity="0.6">
<path d="M48.9977 197.548C46.1376 197.269 42.4709 199.616 41.8319 202.243C41.8234 202.326 41.8234 202.409 41.8319 202.492C41.1195 203.092 40.6795 204.041 41.4547 204.49C42.4315 204.94 43.5399 205.06 44.5976 204.83C46.0734 204.573 47.4572 203.965 48.6205 203.062C50.2863 201.943 52.3815 197.898 48.9977 197.548Z" fill="#E7CAC2"/>
</g>
<g style="mix-blend-mode:screen" opacity="0.6">
<path d="M157.438 185.883C156.453 185.733 155.448 185.733 154.463 185.883C153.351 185.985 152.264 186.262 151.247 186.702C151.17 186.724 151.096 186.754 151.027 186.792C150.905 186.826 150.785 186.87 150.67 186.921C148.505 187.765 146.471 188.887 144.626 190.257C144.049 190.687 143.306 191.815 143.924 192.485C145.736 194.432 149.591 193.344 151.781 192.734C154.62 191.935 158.067 190.048 158.412 186.961C158.496 186.342 157.993 185.993 157.438 185.883Z" fill="#E7CAC2"/>
</g>
<g style="mix-blend-mode:screen" opacity="0.6">
<path d="M101.861 226.193C101.548 226.334 101.253 226.508 100.981 226.713C100.824 226.463 100.269 226.853 100.227 227.062C100.185 227.272 100.227 227.402 100.227 227.612C99.921 228.051 99.7504 228.563 99.7346 229.09C99.7187 229.152 99.7177 229.216 99.7319 229.279C99.7461 229.341 99.775 229.399 99.8164 229.449C99.8578 229.5 99.9107 229.54 99.9709 229.568C100.031 229.595 100.097 229.61 100.164 229.609C100.48 229.605 100.786 229.506 101.04 229.327C101.294 229.148 101.482 228.897 101.578 228.61C101.704 228.361 101.652 228.331 101.39 228.501C101.63 228.409 101.853 228.281 102.05 228.121C102.349 227.838 102.581 227.498 102.731 227.122C102.951 226.493 102.668 225.854 101.861 226.193Z" fill="#E7CAC2"/>
</g>
</g>
<defs>
<linearGradient id="paint0_linear_47_2" x1="72.8983" y1="10.3349" x2="309.695" y2="387.064" gradientUnits="userSpaceOnUse">
<stop offset="0.05" stop-color="#CF9D8B"/>
<stop offset="0.19" stop-color="#C85830"/>
<stop offset="0.36" stop-color="#CA9180"/>
<stop offset="0.49" stop-color="#CB8B79"/>
<stop offset="0.69" stop-color="#CD7A66"/>
<stop offset="0.89" stop-color="#D0614A"/>
<stop offset="0.9" stop-color="#C45942"/>
<stop offset="0.95" stop-color="#993B26"/>
<stop offset="0.98" stop-color="#7E2915"/>
<stop offset="1" stop-color="#74220E"/>
</linearGradient>
<clipPath id="clip0_47_2">
<rect width="386" height="368" fill="white"/>
</clipPath>
</defs>
</svg>
