<svg xmlns="http://www.w3.org/2000/svg" xmlns:xlink="http://www.w3.org/1999/xlink" viewBox="0 0 368.45 368.45"><defs><style>.cls-1{isolation:isolate;}.cls-2{fill:url(#linear-gradient);}.cls-10,.cls-3{fill:#e7cac2;}.cls-4{fill:#c3e6f8;opacity:0.7;mix-blend-mode:color-dodge;}.cls-5{fill:#e38481;}.cls-6{fill:#e6b3a9;}.cls-7{fill:#eac69d;}.cls-8{fill:#e4a79e;}.cls-9{fill:#dadcdc;mix-blend-mode:multiply;}.cls-10{opacity:0.6;mix-blend-mode:screen;}</style><linearGradient id="linear-gradient" x1="69.59" y1="10.35" x2="311.41" y2="377.13" gradientTransform="translate(184.22 -76.31) rotate(45)" gradientUnits="userSpaceOnUse"><stop offset="0.05" stop-color="#cf9d8b"/><stop offset="0.19" stop-color="#c85830"/><stop offset="0.36" stop-color="#ca9180"/><stop offset="0.49" stop-color="#cb8b79"/><stop offset="0.69" stop-color="#cd7a66"/><stop offset="0.89" stop-color="#d0614a"/><stop offset="0.9" stop-color="#c45942"/><stop offset="0.95" stop-color="#993b26"/><stop offset="0.98" stop-color="#7e2915"/><stop offset="1" stop-color="#74220e"/></linearGradient></defs><g class="cls-1"><g id="Calque_2" data-name="Calque 2"><g id="Calque_1-2" data-name="Calque 1"><circle class="cls-2" cx="184.22" cy="184.22" r="184.22" transform="translate(-76.31 184.22) rotate(-45)"/><path class="cls-3" d="M68,226.42c16.36-21.3,32.27-42.21,55.08-57.09,19.16-12.5,40-20.55,62.06-26.42,24.29-6.49,49.5-11.3,72.39-22.1,23.66-11.2,41.64-31.72,62-47.62,2.42-1.9,4.89-3.71,7.39-5.47A185,185,0,0,0,270.8,21.58c-3.37,2.27-6.73,4.54-10.12,6.78-6.86,4.54-14.05,8.58-20.69,13.42-19.7,14.36-35,33.65-52.81,50.11A170.51,170.51,0,0,1,127,128.21c-12.2,4.28-24.76,7.49-37,11.56a178.69,178.69,0,0,0-35,16.28C37.11,166.63,19.6,179,0,186.18A183.4,183.4,0,0,0,21.68,271C40.78,261.64,55.48,242.72,68,226.42Z"/><path class="cls-4" d="M43.19,281.6C18.27,242.25,9.72,207.86,8,181.46c0-.09,0-.18,0-.26A167.7,167.7,0,0,1,6.82,156c-4.8,27.54-5,71,22.69,118.91,46.86,80.9,134.21,93.63,178.18,86.11C207.69,361,101,373,43.19,281.6Z"/><path class="cls-5" d="M38.08,120.89c11.41-4.7,22.91-7.36,35-9.89,11.21-2.37,22.54-4.86,33.18-9.26,21.31-8.81,38.17-25.27,53.87-41.7,18.76-19.61,36.59-40.47,57.79-56.92a182.88,182.88,0,0,0-25.93-3c-10,6.53-18.05,15.59-26,24.39s-15.85,18-24.85,25.86c-8,7-16.85,13.23-25.54,19.4-18.8,13.34-38.64,25.62-59.92,34.64C42,110.27,27.52,115,12.74,116.83c-2.1,5.33-4,10.78-5.56,16.35C17.73,129.91,27.82,125.1,38.08,120.89Z"/><path class="cls-3" d="M180.35,28.09c-8,7.7-14.53,16.72-21.84,25.06a175.43,175.43,0,0,1-24.15,23.28,110.67,110.67,0,0,1-27.84,16.24c-11.81,4.58-23.8,8.73-35.69,13.13-20.25,7.5-40.12,16.72-61.46,20.41-.77,2.31-1.52,4.63-2.19,7,10.55-3.27,20.64-8.08,30.9-12.29,11.41-4.7,22.91-7.36,35-9.89,11.21-2.37,22.54-4.86,33.18-9.26,21.31-8.81,38.17-25.27,53.87-41.7,18.76-19.61,36.59-40.47,57.79-56.92l-1.26-.22C204.45,11.19,191.05,17.81,180.35,28.09Z"/><path class="cls-5" d="M24.45,181.84c9.3-6.36,19.23-11.71,28.51-18.1,8.58-5.92,18.62-13.06,22.73-23.11a119.76,119.76,0,0,0-54.85,12.78A186,186,0,0,0,1,164.94a183.52,183.52,0,0,0-1,19.28c0,5.62.27,11.17.76,16.65a2.85,2.85,0,0,0,.32-.27C8.8,194.32,16.26,187.46,24.45,181.84Z"/><path class="cls-5" d="M196.54,62.61c14,.5,27.5-6.32,39.53-12.87s23.59-14.17,36.41-18.82l8.88-3.18a183.05,183.05,0,0,0-33.28-16.31C233.26,30.27,209.87,42.18,196.54,62.61Z"/><path class="cls-6" d="M279.74,87.77C254.83,107,225.46,117.4,195.4,125.5c-11.77,3.18-23.63,6.12-35.35,9.49-11.45,3.27-22.5,7-32.58,13.51-18.09,11.73-32.11,28.42-49.07,41.61-13.05,10.14-28.18,17.27-42.09,26.1-9.15,5.81-20.93,13.16-28,22.85a183.37,183.37,0,0,0,21.31,45.38c19.42-8.1,33.67-26.63,40.29-46.54,7.48-22.41,23.76-39.43,44.19-50.86,18.37-10.29,38.73-16.4,59.48-19.63,22.64-3.52,47-4.48,67.59-15.5,22.27-11.89,36.2-33.82,55-50a138.12,138.12,0,0,1,39-23.27,184.61,184.61,0,0,0-20.84-24.82C303.37,65.76,292.59,77.86,279.74,87.77Z"/><path class="cls-5" d="M38.76,233.92c12.11-8.44,19.66-21.23,30.58-30.95s23.18-17.15,34.9-25.55c11.22-8,20.68-18.22,32.24-25.71,18.5-12,39.22-16.21,60.17-21.78a300.75,300.75,0,0,0,73.52-30.2c5.95-3.45,12-6.91,17.24-11.4,4.31-3.69,8.29-7.7,12.29-11.69,6.34-6.31,12.86-12.22,20.72-16.4-2-2.17-4-4.31-6.09-6.39-11,11.91-21.74,24-34.59,33.92C254.83,107,225.46,117.4,195.4,125.5c-11.77,3.18-23.63,6.12-35.35,9.49-11.45,3.27-22.5,7-32.58,13.51-18.09,11.73-32.11,28.42-49.07,41.61-13.05,10.14-28.18,17.27-42.09,26.1-9.15,5.81-20.93,13.16-28,22.85,1.17,3.73,2.47,7.42,3.85,11.05C20.6,244.05,30.23,239.85,38.76,233.92Z"/><path class="cls-3" d="M325.42,72.86A42.17,42.17,0,0,1,314,81.54c-10.23,5.52-20.14,11.38-30,17.52a200,200,0,0,0-28.12,21.5c-8.05,7.24-16.07,15.11-25.13,21.13-9.91,6.57-20.89,10.37-32.44,12.95-12.1,2.7-24.18,5.32-36.09,8.8-23.65,6.89-48.48,16.41-67,33.16-8.71,7.89-16,17-22.94,26.48-5.89,8-11.48,16.11-18.7,23-9,8.63-20.62,17.84-33.22,22.21a184.75,184.75,0,0,0,9.36,16.15c19.42-8.1,33.67-26.63,40.29-46.54,7.48-22.41,23.76-39.43,44.19-50.86,18.37-10.29,38.73-16.4,59.48-19.63,22.64-3.52,47-4.48,67.59-15.5,22.27-11.89,36.2-33.82,55-50a138.12,138.12,0,0,1,39-23.27c-2.16-3.11-4.47-6.13-6.84-9.08C327.39,70.68,326.41,71.78,325.42,72.86Z"/><path class="cls-7" d="M276.73,151.24c5.59.77,11.38-1.64,16.57-3.38,5.39-1.81,10.76-3.53,16-5.66,11.95-4.82,23.68-10.13,36.41-12.51,4.45-.83,9.15-1.41,13.82-2.12A184.18,184.18,0,0,0,343,90.85C333.3,97.5,323.49,104,314.1,111.11,299.55,122.16,285.2,134.76,276.73,151.24Z"/><path class="cls-3" d="M80.43,293.59c13.83-.89,26.39,4.76,39.58,7.91,23.58,5.65,49.15,6.49,71.58-4,20.31-9.54,39-27.08,47.14-48.27,7-18.43,8.66-41.57,27.23-52.57,9.32-5.54,19.87-9,29.76-13.4,11.66-5.15,23.33-10.53,35.59-14.1,10.67-3.1,21.72-4.07,32.51-6.55,1.11-.25,2.18-.55,3.26-.84q-.79-6.39-2-12.64c-11.47,3.91-23.4,6.66-34.24,9.42a239.83,239.83,0,0,0-24,6.91A236.26,236.26,0,0,0,279.38,178c-8.66,4.53-17.21,10-26.58,12.93a77.83,77.83,0,0,1-24.92,3.38c-11.68-.25-23.23-2.16-34.9-2.93a127,127,0,0,0-35.44,2.15c-19.86,4.31-38,14.26-51.6,29.45C92.47,238,85.14,257,72.23,272.48c-9.33,11.18-20.76,19.95-34.35,23.64,2.46,3.2,5,6.32,7.69,9.36C57.09,301.2,67.93,294.4,80.43,293.59Z"/><path class="cls-7" d="M345.11,162.32c-14.78,4.58-29.95,8.06-44.49,13.42-15.39,5.68-28.18,14.43-41.84,23.26-9.89,6.41-21.24,11.8-29.07,20.86s-12.25,20.75-18.88,30.71a66.32,66.32,0,0,1-23.4,22,106.18,106.18,0,0,1-31.26,11.29A131.74,131.74,0,0,1,122.71,286c-12.5-.85-24.85-2.28-37.27.4-11.68,2.53-21.59,7.93-31.85,13.82-2.76,1.58-5.57,3.2-8.45,4.71l.43.51c11.52-4.28,22.36-11.08,34.86-11.89,13.83-.89,26.39,4.76,39.58,7.91,23.58,5.65,49.15,6.49,71.58-4,20.31-9.54,39-27.08,47.14-48.27,7-18.43,8.66-41.57,27.23-52.57,9.32-5.54,19.87-9,29.76-13.4,11.66-5.15,23.33-10.53,35.59-14.1,10.67-3.1,21.72-4.07,32.51-6.55,1.11-.25,2.18-.55,3.26-.84-.28-2.25-.6-4.48-.95-6.71C359.24,157.75,352.2,160.12,345.11,162.32Z"/><path class="cls-8" d="M366.13,155.05c-11.4,2-22.52,3.68-33.59,7.49-24.84,8.54-49.79,16.91-73.59,28.14-11.23,5.3-21.75,12.06-33.19,17-10.78,4.6-22,5.38-33.56,5.59-24.19.44-49.41-.46-70.3,14-18.24,12.58-25.42,34-40.85,49.15-7.59,7.44-16.8,13.61-27,16.86-3.31,1.05-10.53,1.72-15.4,3.9,1.21,1.55,2.43,3.08,3.68,4.59,10.1-5,20.15-10.47,31-13.47,12.61-3.48,24.78-2.38,37.42.36,13.68,3,27.8,7.15,42,5.37a99,99,0,0,0,35.11-11.76c10.08-5.57,19.93-12.65,27.12-21.78,7-8.89,10.69-19.49,14.44-30,6.67-18.68,23.38-30.35,40.25-39.23A421.31,421.31,0,0,1,336,163.4c9.76-3.18,20.15-4.86,30.36-7.09C366.25,155.89,366.2,155.46,366.13,155.05Z"/><path class="cls-8" d="M128.59,352.21C138.36,343,149.94,342,162.9,341.7c13.76-.25,27.67.33,41.09-3.21a90.19,90.19,0,0,0,28.5-12.79,110.54,110.54,0,0,0,22.08-20.52c6.88-8.28,13.8-17.24,18.46-27,4.57-9.51,8.16-20.25,15.36-28.2s18.07-11.5,27.62-16.11A274,274,0,0,0,350.23,214c6-4.08,11.65-9,17.48-13.49q.59-6.45.7-13c-2.85,1.91-5.61,4-8.29,6.08-5.54,4.43-10.86,9.15-16.45,13.53-17.39,13.63-41.26,15.47-59.23,28.18-9.28,6.55-15,15.84-20.1,25.74-5.34,10.27-11.13,19.92-18.8,28.65-16,18.18-35.91,32.72-60.16,37.06-22.47,4-45.53,1-67.48-4.56-18.08-4.57-40-11.23-56.74-.92a184.47,184.47,0,0,0,62,36.8A65.41,65.41,0,0,1,128.59,352.21Z"/><path class="cls-5" d="M327,273.28c-19.31,11-29.83,31.7-46.74,45.51-18,14.66-39.27,24.71-61.13,32.2-12.53,4.28-25.17,6.69-38.08,9.49-6.85,1.5-13.27,3.28-19.46,6.58a186.18,186.18,0,0,0,22.66,1.39,184.17,184.17,0,0,0,165.3-102.86C341.8,267.46,333.88,269.36,327,273.28Z"/><path class="cls-9" d="M184.22,0C82.49,0,0,82.48,0,184.22S82.49,368.45,184.22,368.45A184.23,184.23,0,0,0,368.45,184.22C368.45,82.48,286,0,184.22,0ZM170.47,318.61A152.45,152.45,0,1,1,322.92,166.15,152.45,152.45,0,0,1,170.47,318.61Z"/><path class="cls-3" d="M223.2,216.29c-3.52.87-6.78,2.37-10.33,3.23a112,112,0,0,1-23.64,3.16,156.53,156.53,0,0,0-37.38,5.72c-11.24,3.22-22.62,7.69-31.81,15.13a89.41,89.41,0,0,0-12.69,13.11c-.83,1-1.67,2.19-2.55,3.46a2.14,2.14,0,0,0-.39.3c-4,4.54-8.45,8.65-12.55,13.05l-.12.12c-1.23,1.33-2.44,2.68-3.56,4.08-.2.24-.42.71-.17,1,1.53,1.61,6.58-.32,8.3-.81,9.89-2.79,20.38-2.76,30.64-3,14.73-.38,27.35-.29,41.2-6.15a75.64,75.64,0,0,0,29.21-22.26c5-6.26,8.8-12.54,15-17.86,4.13-3.57,8.53-6.81,11.21-11.63C223.72,216.62,223.62,216.19,223.2,216.29Z"/><path class="cls-8" d="M196.72,229.58c-4.8-.56-10.29,1.35-15.33,2.66-14.4,2-28.87,3.95-42.37,9.71a56.54,56.54,0,0,0-16.42,11.11c-3.94,3.69-9,7-11.89,11.58-.27.44-.21,1.08.39,1.16,6.54.71,13.88-2.14,20.31-3.32,8.24-1.5,16.64-1.44,24.72-3.92,7.37-2.26,13.65-6.42,19.71-11.12,6.8-5.29,14.12-10,20.82-15.33C197.36,231.55,198.17,229.76,196.72,229.58ZM161.17,254c-6.16,3-13.86,3.79-20.58,4.72-6.92,1-13.62,2.52-20.42,4a23.26,23.26,0,0,0,2.75-3c7.61-9.56,19.37-14,30.25-18.64.39-.1.78-.22,1.17-.3,6.52-1.47,13.11-2.54,19.63-4,3.64-.82,7.32-1.29,11-2,1.72-.35,3.87-1.14,6-1.63a107.4,107.4,0,0,0-10.19,7C174.67,245.22,168.36,250.53,161.17,254Z"/><path class="cls-10" d="M262.82,55.34c-6-1.41-14.58,6-19.56,8.48a78.1,78.1,0,0,0-13,8.43l-.1.07c-1.86,1.49-3.86,3-5.85,4.62-3.29,2.34-6.74,4.4-8.93,7.89a44.39,44.39,0,0,0-3.22,3.72c-.73,1-.86,2.6.8,2.4,8.8-1,19.33-3.83,26.38-9.44,5.25-4.17,9.78-9.14,14.73-13.68,3.51-3.23,7.24-5.88,9.56-10.14C264.15,56.68,264,55.62,262.82,55.34Z"/><path class="cls-10" d="M75.58,163.59c-4.8,1.74-9,5.64-13.07,8.72-2.84,2.19-5.82,4.39-8.64,6.77-.71.51-1.39,1-2,1.43-4.17,2.77-10.27,6.16-12.3,11a1.27,1.27,0,0,0,1.52,1.72A43.62,43.62,0,0,0,58,185.46c6.74-5.3,11.09-13.29,18-18.28C77.61,166.05,78.7,162.44,75.58,163.59ZM59,179a49.7,49.7,0,0,1-4.93,4.21C55.66,181.74,57.34,180.34,59,179Z"/><path class="cls-10" d="M305.94,187.55c-6.24,2.47-12.76,4.61-18.69,7.78-1.11.6-2.32,1.27-3.54,2a50.94,50.94,0,0,0-14.46,10.36c-.66.66-2.19,3.31-.07,3.34,5.54.06,11.07-3.1,15.9-5.53a92.82,92.82,0,0,0,21.61-15.66C307.63,188.92,307.87,186.79,305.94,187.55Z"/><path class="cls-10" d="M148.73,202.74c-10.7.23-20.5,6.94-29.08,12.64a57.24,57.24,0,0,0-11.29,10.3c-2.93,3.36-5.13,7.89-7.82,11.73a37.79,37.79,0,0,1-3,2.93c-1.73,1.49-.8,4.16,1.45,2.6,7.52-5.23,14.4-12.52,21-18.93,8.49-8.23,18.89-12.21,28.34-18.79C148.82,204.89,150.37,202.72,148.73,202.74Zm-23.49,12.73a75.13,75.13,0,0,1,14.28-7.63c-4.77,2.49-9.69,4.76-14.2,7.76C125.29,215.56,125.29,215.52,125.24,215.47Z"/><path class="cls-10" d="M207.05,251.27c-3.71,5.16-10.35,8.41-15.42,12.14a83.75,83.75,0,0,1-18.2,10.73c-6.19,2.55-11,5.47-18,5.62-4.76.1-10.11,2.84-14.38,4.66-.32.13-.81,1-.15.88,6.61-1.36,13.18,1.26,19.64-.47,6.18-1.67,12.74-5.06,18.46-7.95a71.26,71.26,0,0,0,16.71-12.23c4.26-4,9.6-7.79,12.16-13.17C208.18,250.82,207.34,250.86,207.05,251.27Z"/><path class="cls-10" d="M279.06,224.84c-.8-2.41-4.57-1.2-6.12-.41a10,10,0,0,0-4.36,4.56,10.49,10.49,0,0,0-2,2.21c-.3.45-.35,1.24.21,1.5,2.94,1.42,6-.22,8.35-2C276.59,229.51,279.82,227.13,279.06,224.84Z"/><path class="cls-10" d="M302.87,213.27a2,2,0,0,0-2-.6,2.31,2.31,0,0,0-1.82.56,3.25,3.25,0,0,0-1,1.62,5.72,5.72,0,0,0-1.2,1.33.81.81,0,0,0,.45,1.33c1.59.37,3.18-1.07,4.51-1.75C302.47,215.43,303.6,214,302.87,213.27Z"/><path class="cls-10" d="M244,91.21c-.45-1.82-3.05-1.29-4.23-.74a9.29,9.29,0,0,0-4.6,4.14,1.59,1.59,0,0,0-.13.35,5.8,5.8,0,0,0-1.24,2.43c-.07.3-.16.83.14,1.06,2.34,1.77,5.16.24,7.16-1.35C242.79,95.78,244.58,93.51,244,91.21Z"/><path class="cls-10" d="M275.89,71.07A14.55,14.55,0,0,0,270,73.62c-.7.33-1.37.73-2,1.06-1.93,1.09-4.08,2.6-5.12,4.61a2.66,2.66,0,0,0,2.5,4c2.51,0,5.07-1.37,7.22-2.54s4.84-3.07,5.89-5.52S278.61,70.78,275.89,71.07Z"/><path class="cls-10" d="M46.77,197.79c-2.73-.28-6.23,2.07-6.84,4.7a1.29,1.29,0,0,0,0,.25c-.68.6-1.1,1.55-.36,2a4.56,4.56,0,0,0,3,.34,8.5,8.5,0,0,0,3.84-1.77C48,202.19,50,198.14,46.77,197.79Z"/><path class="cls-10" d="M150.28,186.11a9,9,0,0,0-2.84,0,9.69,9.69,0,0,0-3.07.82,1,1,0,0,0-.21.09,2.37,2.37,0,0,0-.34.13,24.44,24.44,0,0,0-5.77,3.34c-.55.43-1.26,1.56-.67,2.23,1.73,1.95,5.41.86,7.5.25,2.71-.8,6-2.69,6.33-5.78C151.29,186.57,150.81,186.22,150.28,186.11Z"/><path class="cls-10" d="M97.23,226.47a4.33,4.33,0,0,0-.84.52c-.15-.25-.68.14-.72.35s0,.34,0,.55a2.82,2.82,0,0,0-.47,1.48l0,0a.42.42,0,0,0,.41.52,1.44,1.44,0,0,0,1.35-1c.12-.25.07-.28-.18-.11a2.25,2.25,0,0,0,.63-.38,2.82,2.82,0,0,0,.65-1C98.27,226.77,98,226.13,97.23,226.47Z"/></g></g></g></svg>