<svg xmlns="http://www.w3.org/2000/svg" xmlns:xlink="http://www.w3.org/1999/xlink" viewBox="0 0 216.02 216.02"><defs><style>.cls-1{isolation:isolate;}.cls-2{fill:url(#radial-gradient);}.cls-3,.cls-5,.cls-8{mix-blend-mode:multiply;}.cls-3{fill:url(#radial-gradient-2);}.cls-4{fill:#fff;opacity:0.7;mix-blend-mode:color-dodge;}.cls-6{fill:#747678;}.cls-10,.cls-7,.cls-8,.cls-9{fill:#a2a3a6;}.cls-10,.cls-9{mix-blend-mode:screen;}.cls-10{opacity:0.4;}</style><radialGradient id="radial-gradient" cx="52.56" cy="49.73" r="201.67" gradientUnits="userSpaceOnUse"><stop offset="0" stop-color="#e3f3fc"/><stop offset="0.22" stop-color="#aeb8be"/><stop offset="0.61" stop-color="#8da4b0"/><stop offset="1" stop-color="#3a3b3d"/></radialGradient><radialGradient id="radial-gradient-2" cx="94.96" cy="105.01" r="154.48" gradientUnits="userSpaceOnUse"><stop offset="0" stop-color="#e3f3fc"/><stop offset="0.3" stop-color="#fff"/><stop offset="0.98" stop-color="#68696c"/></radialGradient></defs><g class="cls-1"><g id="Calque_2" data-name="Calque 2"><g id="Calque_1-2" data-name="Calque 1"><path class="cls-2" d="M216,108A108,108,0,1,1,108,0,108,108,0,0,1,216,108Z"/><path class="cls-3" d="M108,0A108,108,0,1,0,216,108,108,108,0,0,0,108,0ZM99.94,186.8a89.39,89.39,0,1,1,89.39-89.39A89.39,89.39,0,0,1,99.94,186.8Z"/><path class="cls-4" d="M25.32,165.11C10.71,142,5.69,121.87,4.71,106.39c0,0,0-.1,0-.15A99,99,0,0,1,4,91.47C1.18,107.61,1,133.12,17.3,161.19,44.78,208.62,96,216.08,121.77,211.67,121.77,211.67,59.24,218.7,25.32,165.11Z"/><g class="cls-5"><path class="cls-6" d="M66.05,29.06c.17-.13.08-.36-.13-.24a12.64,12.64,0,0,1-9.46,1.09c-.59-.81-1.72-1.16-3.6-.76a5,5,0,0,0-.93.25A17.76,17.76,0,0,0,45,34.22a33,33,0,0,0-6.15,8.93c-.4.75-.78,1.51-1.12,2.31-.59,1.36-1.54,4-.9,5.69.07,1.78.83,3.55.86,5.39.05,2.29.51,4.69.08,7,0,.27.3.1.35-.05a19.62,19.62,0,0,0,.6-6.39,15.23,15.23,0,0,0-.84-4.57c1.56,1.25,3.58.75,5.64-.58a15,15,0,0,1,1,1.75c.44,1,1.12,2.3.91,3.39,0,.22.26.09.3,0a6.22,6.22,0,0,0-.48-3.31,6.23,6.23,0,0,0-1-2.31l.39-.29c.15.27.38.52.53.77A15,15,0,0,1,46,53.41c.09.21.44-.07.39-.24-.15-.53-.33-1.05-.53-1.56a4.46,4.46,0,0,0-.52-1,56.79,56.79,0,0,0,8.17-9.32,18.41,18.41,0,0,0,1.42-2.38,1.9,1.9,0,0,0,.58.23,6.07,6.07,0,0,0,1.61.47c.16,0,.43-.32.19-.35a3.08,3.08,0,0,1-1.22-.49c-.16-.1-.34-.16-.52-.25l-.33-.23c.12-.24.23-.48.33-.73a5.5,5.5,0,0,0,2.34.61,11.4,11.4,0,0,0,3.91-.21c.19,0,.46-.5.13-.44a11.23,11.23,0,0,1-6.06-.73,20,20,0,0,0,.73-2.14.78.78,0,0,0,.23-.41,2.46,2.46,0,0,0,0-.48.59.59,0,0,1,0-.13l.34-.07c.38-.1.75-.15,1.13-.28.1,0,.23-.29,0-.25a4.17,4.17,0,0,1-1.42.09,5.5,5.5,0,0,0-.15-2.54A10.88,10.88,0,0,0,66.05,29.06ZM45.58,38.18A19.28,19.28,0,0,0,44.17,40a18.42,18.42,0,0,0-3.28,5.73,8.92,8.92,0,0,0-.89,4A3.06,3.06,0,0,0,40.63,52,2.92,2.92,0,0,1,39,51.82c-3.21-1.41-.17-6.49.94-8.32,2.59-4.27,5.64-9,9.85-11.89,1.13-.77,3.4-1.87,4.84-1.41a2.45,2.45,0,0,1,.86.45,2.54,2.54,0,0,1,.87,2.19C54.29,31.54,46.55,37.16,45.58,38.18Z"/></g><g class="cls-5"><path class="cls-7" d="M102.37,196.67c-.25,0-.34.26-.06.31a14.9,14.9,0,0,1,9.28,6.31c-.08,1.18.65,2.36,2.63,3.45a5.9,5.9,0,0,0,1,.5c3,1.29,6.69,1.29,9.88,1A39.32,39.32,0,0,0,137.51,205c.93-.37,1.85-.77,2.78-1.21,1.58-.77,4.46-2.39,5.18-4.39,1.31-1.65,2-3.82,3.39-5.49,1.72-2.07,3.15-4.58,5.28-6.27.25-.2-.2-.32-.36-.22a23,23,0,0,0-5.45,5.25,17.73,17.73,0,0,0-2.77,4.73c-.43-2.33-2.62-3.43-5.49-3.83a17,17,0,0,1,.45-2.32c.34-1.21.77-2.93,1.81-3.75.2-.16-.17-.27-.31-.18-1.09.74-1.61,2.16-2.12,3.32a7.63,7.63,0,0,0-.92,2.81l-.55,0c.06-.35,0-.75.11-1.1a15.14,15.14,0,0,1,.51-2c.07-.26-.46-.29-.55-.09-.27.6-.51,1.19-.72,1.81a4.64,4.64,0,0,0-.35,1.33c-5.61-.07-12.38,1.56-14.48,2a21.85,21.85,0,0,0-3.1,1,2.6,2.6,0,0,0-.34-.64,8,8,0,0,0-1.08-1.67c-.14-.11-.63,0-.44.17a3.39,3.39,0,0,1,.71,1.37c.07.22.18.42.27.63a2.39,2.39,0,0,1,.12.46l-.86.39a6.57,6.57,0,0,0-1.61-2.34A13.53,13.53,0,0,0,113,192c-.21-.1-.8.09-.45.3a13.18,13.18,0,0,1,4.85,5.3,23.59,23.59,0,0,0-2.3,1.36.85.85,0,0,0-.52.19,2.75,2.75,0,0,0-.35.45l-.13.09c-.11-.07-.22-.12-.35-.19-.42-.21-.79-.45-1.22-.62-.12,0-.43.07-.23.19a4.55,4.55,0,0,1,1.33,1,6.24,6.24,0,0,0-1.81,2.38A12.81,12.81,0,0,0,102.37,196.67Zm25.32,7.61a22.74,22.74,0,0,0,2.66-.53,21.79,21.79,0,0,0,7.34-2.6,10.68,10.68,0,0,0,3.84-2.83,3.59,3.59,0,0,0,1.21-2.56,3.42,3.42,0,0,1,1.34,1.41c1.78,3.73-4.84,5.93-7.24,6.71-5.6,1.82-12,3.73-18,3-1.6-.18-4.47-.94-5.41-2.46a3,3,0,0,1-.42-1.06,3,3,0,0,1,.91-2.63C114.79,203.51,126.05,204.45,127.69,204.28Z"/></g><path class="cls-8" d="M167.22,63.15c-2.5-4.41-8.43-2.6-10.95.73a5.81,5.81,0,0,0-1.05,3.56c-1.05,4.09,3.39,6.58,7,5.15C165.24,71.37,169.19,66.63,167.22,63.15Z"/><path class="cls-8" d="M199.06,69.69l-.37,0c-.78-.42-1.94.38-2.58,1a3.55,3.55,0,0,0-.38,4.79c1.44,1.73,4,.45,4.93-1.12S201.61,69.61,199.06,69.69Z"/><path class="cls-8" d="M168.71,141.76a2.45,2.45,0,0,0-.38,0c-.78-.42-1.94.37-2.58,1a3.55,3.55,0,0,0-.38,4.78c1.45,1.74,4,.45,4.94-1.12S171.26,141.68,168.71,141.76Z"/><path class="cls-9" d="M19.35,76.45a2.33,2.33,0,0,0-.37,0c-.78-.42-1.94.38-2.59,1A3.55,3.55,0,0,0,16,82.31c1.44,1.73,4,.45,4.93-1.12S21.9,76.37,19.35,76.45Z"/><path class="cls-9" d="M17.38,97.61l-.23,0c-.47-.25-1.18.23-1.57.63a2.16,2.16,0,0,0-.23,2.91c.88,1,2.45.27,3-.69S18.93,97.56,17.38,97.61Z"/><path class="cls-9" d="M26.07,57.23a.82.82,0,0,0-.22,0c-.47-.26-1.18.22-1.57.62a2.15,2.15,0,0,0-.23,2.91c.87,1.06,2.44.28,3-.68S27.62,57.18,26.07,57.23Z"/><path class="cls-9" d="M126.69,13.23l-.23,0c-.48-.25-1.18.23-1.57.63a2.15,2.15,0,0,0-.23,2.91c.88,1.05,2.45.27,3-.68S128.23,13.18,126.69,13.23Z"/><path class="cls-9" d="M183.28,44.27a1.81,1.81,0,0,0-.23,0c-.47-.26-1.18.23-1.57.63a2.14,2.14,0,0,0-.23,2.9c.88,1.05,2.45.27,3-.68S184.83,44.23,183.28,44.27Z"/><path class="cls-9" d="M185.18,59.75l-.22,0c-.47-.25-1.18.23-1.57.63a2.15,2.15,0,0,0-.23,2.91c.88,1,2.45.27,3-.69S186.73,59.7,185.18,59.75Z"/><path class="cls-8" d="M90,22.1a2.21,2.21,0,0,0-.37,0c-.78-.42-1.94.38-2.59,1A3.56,3.56,0,0,0,86.64,28c1.44,1.73,4,.44,4.93-1.12S92.52,22,90,22.1Z"/><path class="cls-8" d="M147.31,108.92a.15.15,0,0,0-.07-.1l-.09,0a1.23,1.23,0,0,0-.26-.12l-.18,0h0a1.78,1.78,0,0,0-1.7,1.82s0,0,0,0a1.27,1.27,0,0,0,.33,1.11c.55.44,1.29,0,1.68-.44a2.39,2.39,0,0,0,.57-1.57A1,1,0,0,0,147.31,108.92Z"/><path class="cls-8" d="M92.07,160.61a18.57,18.57,0,0,1-3.48,2.23c-.43.26-1,.47-1.49.76a19.72,19.72,0,0,0-1.25-2.78,6.38,6.38,0,0,0,1.15-1.4c.62-1,1.61-1.63,2-2.76.11-.31-.36-.14-.45,0a8.33,8.33,0,0,1-2.06,2.13c-.3.28-.54.65-.84.95l-.32.26a23.22,23.22,0,0,0-10.48-9.2c-.25-.11-.52-.2-.78-.3.17-.32.31-.66.45-1a6.73,6.73,0,0,0,.69-2.26c0-.22-.33,0-.37.1a7.59,7.59,0,0,1-1,2.31,7.11,7.11,0,0,1-.43.57A17.76,17.76,0,0,0,62.27,150a4.83,4.83,0,0,0-1-2c-.83-1.39-1.33-3-2.18-4.33-.1-.15-.44.12-.36.27a30.21,30.21,0,0,1,1.5,4,16.47,16.47,0,0,0,.72,1.67c.11.26.18.55.27.81A12.86,12.86,0,0,0,59,151.67a26.41,26.41,0,0,0-3.77-5c-.16-.16-.53.17-.39.34,1.29,1.69,2,3.71,3.07,5.52a10.51,10.51,0,0,0-3.39,6.91,14.78,14.78,0,0,0-.38,4.95h-.25a5.46,5.46,0,0,1-2.05-.17c-.23-.09-.66.32-.4.49a4.54,4.54,0,0,0,2.81.61,16.31,16.31,0,0,0,2.36,6.31,29.34,29.34,0,0,0,10.17,9.69c-.08.23-.14.47-.2.69s-.11.39-.17.58a1.83,1.83,0,0,1-.08.25c-.06.18-.14.17.07.07-.15.08-.41.51-.07.44s.58-.59.76-.87.3-.5.44-.76a15.46,15.46,0,0,0,9.27,1.82,5.75,5.75,0,0,0,.29,1.73,23.49,23.49,0,0,1,.72,2.8s0,0,0,.05a.75.75,0,0,0,0,.16c.08.29.51-.06.55-.21a9.17,9.17,0,0,0,.15-2.91c0-.63-.24-1.31-.21-1.95a12.09,12.09,0,0,0,4.68-2.71,2.34,2.34,0,0,0,.48.89c.91,1.2,1.76,2.44,2.66,3.65.16.21.62-.18.53-.39-.47-1-.89-2-1.39-3a11.22,11.22,0,0,1-1.08-2.06.29.29,0,0,0-.1-.17c.09-.11.19-.21.28-.31l.24-.3a3.47,3.47,0,0,0,.63.64,6.76,6.76,0,0,0,1.28.91c.2.1.63-.28.44-.46a6.84,6.84,0,0,1-1-1.12,4.4,4.4,0,0,0-.67-.93,15,15,0,0,0,2.06-13.15l.37-.25a13.59,13.59,0,0,0,1.46-1,17.84,17.84,0,0,0,3.12-2.62C92.64,160.57,92.3,160.38,92.07,160.61ZM85.36,173.9c-3.08,12.07-17.28,7.15-23.51,1.53a20,20,0,0,1-6.17-10.53c.11-.14.16-.31,0-.39h-.05c-1-6.08,1.7-11.94,10.27-13.39C75.79,151.59,88.34,162.23,85.36,173.9Z"/><path class="cls-8" d="M179.69,163.11c.36-.42.71-.85,1.05-1.28.15-.18-.09-.23-.21-.09-.33.37-.68.74-1,1.11a10.05,10.05,0,0,0-.94,1,4.53,4.53,0,0,0-.5-.47,3.84,3.84,0,0,0-3-.61,3.73,3.73,0,0,0-.15-1.41c-.06-.14-.29,0-.26.16a3.23,3.23,0,0,1,.08,1.31,9.33,9.33,0,0,0-2.09.7l-.15-.36a3.21,3.21,0,0,1-.19-.91c0-.18-.27,0-.28.1a3.46,3.46,0,0,0,.27,1.35l-.13.08c-.14-.27-.3-.53-.41-.79s-.31,0-.26.15c.11.28.25.54.38.8a8.12,8.12,0,0,0-1.6,1.3,14.3,14.3,0,0,1-1.82-1.83c-.07-.09-.28.08-.21.18.38.52.83,1,1.23,1.44a6.19,6.19,0,0,0,.47.55,11.5,11.5,0,0,0-2.28,3.34c-.32-.17-.67-.28-1-.43-.51-.23-1-.46-1.57-.67-.14,0-.4.21-.24.29.49.27,1,.56,1.43.85a6.26,6.26,0,0,0,1.1.61,12.57,12.57,0,0,0-.8,2.77,5,5,0,0,0,0,.95,1.75,1.75,0,0,1-.71.1c-.14,0-.41.2-.24.29a1.75,1.75,0,0,0,.82,0l.21,0a3.65,3.65,0,0,0,.16.59l0,0a2.68,2.68,0,0,1-1.29.4c-.13,0-.35.25-.15.28a2.37,2.37,0,0,0,1.2-.18l.44-.15a2.85,2.85,0,0,0,2.16,1.57,5.07,5.07,0,0,0,.87,0c-.23.47-.73,1.51-.32,1.63a.18.18,0,0,0,.2-.13c0-.11,0-.21,0-.32a3.82,3.82,0,0,1,.24-.55c.1-.22.23-.43.31-.65a7.42,7.42,0,0,0,2.67-.79,2,2,0,0,0,.17,1.83c.13.15.44-.14.34-.3a1.39,1.39,0,0,1-.11-1,1.55,1.55,0,0,0,0-.71,11.16,11.16,0,0,0,1.45-1,15,15,0,0,0,2.9-3.37l.31.17a5.92,5.92,0,0,0,1.14.66c.12,0,.38-.19.22-.28-.35-.2-.55-.58-.88-.81l-.43-.33a10.21,10.21,0,0,0,1.06-2.56,5.27,5.27,0,0,0,.85-.15c.12,0,.33-.3.13-.31a2.61,2.61,0,0,0-.48,0,2.73,2.73,0,0,1-.41,0,3,3,0,0,0,.06-.42c.27,0,.55-.13.81-.16s.33-.3.13-.31a4.06,4.06,0,0,0-.92,0,3.72,3.72,0,0,0-.72-2.39A5.82,5.82,0,0,0,179.69,163.11Zm-4.86,9.95c-2.26,2-7,3.23-7-1.19a7.86,7.86,0,0,1,.73-3c1.61-2.65,5.44-6.91,8.73-4C179.65,166.87,176.41,171.67,174.83,173.06Z"/><path class="cls-8" d="M182.84,80.9l.18-1.05c0-.15-.13-.1-.15,0-.07.31-.14.63-.22.94a8.63,8.63,0,0,0-.2.88,1.85,1.85,0,0,0-.42-.11,2.52,2.52,0,0,0-1.9.63,2.29,2.29,0,0,0-.53-.74c-.07-.06-.15.12-.09.17a2.23,2.23,0,0,1,.46.71,5.77,5.77,0,0,0-.94,1.06l-.2-.15a1.77,1.77,0,0,1-.4-.46c-.06-.09-.15.09-.12.15a2.48,2.48,0,0,0,.58.67.56.56,0,0,1,0,.08,4.9,4.9,0,0,1-.48-.31c-.08,0-.16.13-.09.18s.31.21.46.32a5.65,5.65,0,0,0-.47,1.24,9.44,9.44,0,0,1-1.6-.44c-.07,0-.13.13-.06.16.37.17.76.27,1.14.42.15,0,.29.11.44.15A7.23,7.23,0,0,0,178,88c-.23,0-.47.06-.69.08-.37,0-.74.07-1.1.13-.09,0-.15.25,0,.24.36,0,.72,0,1.07,0a4.34,4.34,0,0,0,.81,0,8.32,8.32,0,0,0,.44,1.8,3.5,3.5,0,0,0,.29.54.91.91,0,0,1-.37.28c-.08,0-.16.24,0,.24a1.17,1.17,0,0,0,.47-.24l.1-.08a1.48,1.48,0,0,0,.29.27l0,0a1.7,1.7,0,0,1-.59.63c-.07,0-.12.25,0,.21a1.56,1.56,0,0,0,.62-.49l.2-.22a1.82,1.82,0,0,0,1.7.18,3.33,3.33,0,0,0,.5-.25c0,.33.07,1.08.34,1a.12.12,0,0,0,.07-.14A1.08,1.08,0,0,1,182,92a1.64,1.64,0,0,1,0-.38,3.41,3.41,0,0,0,0-.46,4.69,4.69,0,0,0,1.25-1.3,1.29,1.29,0,0,0,.68,1c.12,0,.2-.22.09-.28a.89.89,0,0,1-.39-.54,1,1,0,0,0-.21-.4,8,8,0,0,0,.49-1,9.4,9.4,0,0,0,.54-2.8h.23a3.94,3.94,0,0,0,.84,0c.08,0,.16-.23,0-.23s-.49-.15-.75-.17l-.35-.05a6.29,6.29,0,0,0-.23-1.76,3.52,3.52,0,0,0,.43-.36c.06-.05.09-.27,0-.21l-.26.17a.68.68,0,0,1-.24.12,2.6,2.6,0,0,0-.1-.25c.15-.1.27-.25.4-.35s.09-.27,0-.22a2.41,2.41,0,0,0-.5.33,2.36,2.36,0,0,0-1.17-1.1A4.25,4.25,0,0,0,182.84,80.9Zm.47,7.1c-.62,1.84-2.88,4-4.28,1.57a5,5,0,0,1-.56-1.91c.05-2,.83-5.59,3.58-5C184,83,183.74,86.72,183.31,88Z"/><path class="cls-8" d="M203.81,114.45c.23-.65.44-1.3.65-2,.09-.28-.21-.22-.28,0l-.69,1.75a13,13,0,0,0-.64,1.6,4.55,4.55,0,0,0-.78-.32,4.73,4.73,0,0,0-3.79.64,4.62,4.62,0,0,0-.8-1.56c-.13-.13-.32.18-.23.3a4.05,4.05,0,0,1,.67,1.48,12.22,12.22,0,0,0-2.1,1.74l-.34-.35a3.65,3.65,0,0,1-.62-1c-.08-.2-.32.1-.28.24a4.49,4.49,0,0,0,.91,1.45l-.12.14c-.28-.24-.57-.47-.82-.73s-.33.18-.23.3c.25.26.53.5.8.76a9.24,9.24,0,0,0-1.27,2.21,17.51,17.51,0,0,1-2.93-1.32c-.12-.06-.28.23-.16.31.67.43,1.38.74,2.07,1.12.25.14.51.31.78.43a14.18,14.18,0,0,0-1.15,4.88c-.44-.06-.9,0-1.34-.06-.71,0-1.41-.07-2.12-.07-.19,0-.38.42-.15.44.69.09,1.37.22,2.05.35a7.83,7.83,0,0,0,1.53.21,15.53,15.53,0,0,0,.31,3.56,5.36,5.36,0,0,0,.4,1.1,2,2,0,0,1-.79.44c-.17,0-.38.42-.14.44a2,2,0,0,0,1-.32l.23-.11a4.27,4.27,0,0,0,.45.6l0,0a3.19,3.19,0,0,1-1.32,1c-.15.05-.29.44,0,.4a3,3,0,0,0,1.32-.75l.44-.37a3.51,3.51,0,0,0,3.2.85,7.14,7.14,0,0,0,1-.33c-.05.64-.17,2.07.35,2a.21.21,0,0,0,.17-.23c0-.14-.08-.26-.1-.4a4.47,4.47,0,0,1,0-.73c0-.3.06-.6,0-.9a9.37,9.37,0,0,0,2.75-2.09,2.5,2.5,0,0,0,1,2c.22.11.44-.35.26-.5a1.74,1.74,0,0,1-.59-1.15,2.09,2.09,0,0,0-.28-.84,12.3,12.3,0,0,0,1.24-1.78,18.63,18.63,0,0,0,1.85-5.17l.44,0a8.06,8.06,0,0,0,1.6.25c.17,0,.36-.39.14-.43-.5-.06-.89-.42-1.37-.54l-.66-.19a12.39,12.39,0,0,0,.09-3.43,7.2,7.2,0,0,0,.92-.55c.14-.07.24-.5,0-.42a3.89,3.89,0,0,0-.54.27,2.13,2.13,0,0,1-.49.15c0-.18-.08-.35-.12-.51.31-.15.58-.4.87-.56.13-.06.25-.48,0-.41a4.83,4.83,0,0,0-1,.48,4.6,4.6,0,0,0-1.91-2.45A6.79,6.79,0,0,0,203.81,114.45Zm-1.18,13.67c-1.73,3.32-6.68,6.87-8.63,1.74a10,10,0,0,1-.5-3.81c.69-3.79,3.23-10.43,8.31-8.57C205.45,118.81,203.82,125.81,202.63,128.12Z"/><path class="cls-8" d="M39.17,125.05c-1.75-4-6.88-4.08-10-1.72a8.18,8.18,0,0,0-2.89,4.12,8.82,8.82,0,0,0-.69,2.39,6.3,6.3,0,0,0,3.06,6,5.63,5.63,0,0,0,6.47.76,5.64,5.64,0,0,0,1.05-.87A8.91,8.91,0,0,0,39.17,125.05Z"/><path class="cls-8" d="M44.47,137.73a1.53,1.53,0,0,0-1.2.38,1.32,1.32,0,0,0-.73.6,1.09,1.09,0,0,0-.08.9.5.5,0,0,0,0,.12,1.65,1.65,0,0,0,.29,1.12,1,1,0,0,0,1,.34,2.16,2.16,0,0,0,.49.16c1,.12,1.64-.9,1.69-1.74A1.8,1.8,0,0,0,44.47,137.73Z"/><path class="cls-8" d="M63.92,120.65c-1-1.73-2.93-1.54-4.44-.7a5.13,5.13,0,0,0-2.57,1.73,5.05,5.05,0,0,0,.44,6.36,3.22,3.22,0,0,0,.55.44A2.18,2.18,0,0,0,59,129a4.52,4.52,0,0,0,4.35-1.74A6.12,6.12,0,0,0,63.92,120.65Z"/><path class="cls-8" d="M40.56,98.08a3,3,0,0,0-3,1.16,5.64,5.64,0,0,0-1.83,5.67,5.51,5.51,0,0,0,3.7,3.74c.13.07.25.14.39.2,3.44,1.32,6.93-1.67,6.87-5.24C46.61,99.87,44.08,97.76,40.56,98.08Z"/><path class="cls-10" d="M115.38,164.43c-1.33-3.06-5.23-3.09-7.62-1.3a6.12,6.12,0,0,0-2.19,3.12,6.73,6.73,0,0,0-.53,1.82,4.81,4.81,0,0,0,2.33,4.58,4.28,4.28,0,0,0,4.9.58,4.13,4.13,0,0,0,.8-.66A6.79,6.79,0,0,0,115.38,164.43Z"/><path class="cls-10" d="M134.16,161.1c-.74-1.32-2.23-1.18-3.38-.54a3.68,3.68,0,0,0-1.62,6.14,4.18,4.18,0,0,0,.42.34,1.69,1.69,0,0,0,.83.35,3.42,3.42,0,0,0,3.29-1.32A4.65,4.65,0,0,0,134.16,161.1Z"/><path class="cls-10" d="M116.43,144a2.27,2.27,0,0,0-2.28.88,4.29,4.29,0,0,0-1.38,4.3,4.18,4.18,0,0,0,2.8,2.84,2.8,2.8,0,0,0,.3.15c2.61,1,5.26-1.27,5.21-4A4,4,0,0,0,116.43,144Z"/><path class="cls-8" d="M170.27,38.22c-.06-.07-.14-.11-.2-.17a7.47,7.47,0,0,0-.72-1c-2.77-3.14-7.22-1.61-9.42,1.29S158,45.05,161,47c2.55,1.7,6.1.85,8.33-.92S172.47,40.46,170.27,38.22Z"/></g></g></g></svg>