<svg  viewBox="0 0 386 368" fill="none" xmlns="http://www.w3.org/2000/svg">
<g clip-path="url(#clip0_47_71)">
<path d="M329.459 314.099C404.828 242.245 404.828 125.745 329.459 53.8909C254.09 -17.9636 131.892 -17.9636 56.5231 53.8909C-18.8461 125.745 -18.8461 242.245 56.5231 314.099C131.892 385.954 254.09 385.954 329.459 314.099Z" fill="url(#paint0_linear_47_71)"/>
<path d="M329.459 314.099C404.828 242.245 404.828 125.745 329.459 53.8909C254.09 -17.9636 131.892 -17.9636 56.5231 53.8909C-18.8461 125.745 -18.8461 242.245 56.5231 314.099C131.892 385.954 254.09 385.954 329.459 314.099Z" fill="url(#paint1_linear_47_71)"/>
<g style="mix-blend-mode:multiply" opacity="0.4">
<path d="M71.4275 190.767C91.0078 187.041 112.474 189.768 129.833 178.452C145.977 167.985 153.929 149.118 170.125 138.91C178.632 133.547 188.144 131.739 198.118 130.66C209.642 129.392 220.118 127.534 229.169 120.053C232.742 117.117 242.192 109.786 238.305 104.332C235.267 100.088 228.143 99.0788 223.25 98.3997C208.256 96.438 193.07 96.1865 178.014 97.6506C167.827 98.7061 157.863 101.204 148.449 105.062C137.303 109.466 126.742 114.6 114.642 116.268C93.6897 119.174 73.5123 114.5 52.9159 111.733C41.8424 110.235 30.4546 109.346 19.3916 111.094C18.0507 111.294 16.7411 111.554 15.4421 111.823C-1.93441 150.828 -4.71957 194.343 7.55339 235.073C18.9621 227.532 28.7575 218.093 39.1185 209.314C48.631 201.224 58.594 193.194 71.4275 190.767Z" fill="#C18EA7"/>
<path d="M106.314 348.404C114.214 346.551 121.779 343.578 128.754 339.585C140.362 333.003 149.088 324.453 158.088 315.095C165.631 307.124 174.648 300.542 184.687 295.678C202.916 287.089 223.261 284.123 242.893 279.698C254.7 277.081 266.413 275.413 278.586 276.252C289.838 277.051 300.88 279.308 311.88 281.666C324.755 284.442 338.175 287.578 351.564 288.737C372.71 259.66 384.611 225.386 385.841 190.023C387.071 154.66 377.578 119.71 358.5 89.3607C355.901 93.9851 352.8 98.5195 349.794 103.074C344.828 110.595 340.554 118.305 339.317 127.234C337.819 137.712 339.862 147.919 342.314 158.117C344.535 167.305 346.808 176.584 345.53 186.082C344.43 194.422 339.82 203.841 332.717 209.054C324.797 214.897 313.671 217.045 306.872 224.296C301.886 229.579 302.598 235.192 302.273 241.804C302.022 246.798 300.88 250.983 297.768 255.058C293.044 261.31 286.642 266.664 278.146 266.764C269.388 266.874 261.185 263.268 253.202 260.272C241.238 255.797 230.374 247.727 217.771 244.94C212.627 243.802 206.017 242.394 200.81 244.171C197.667 245.23 195.32 247.268 192.712 249.095C184.111 255.138 173.331 258.754 163.043 261.221C152.418 263.65 141.468 264.533 130.566 263.837C118.843 263.238 108.011 260.042 97.3249 255.468C86.2724 250.803 75.5237 246.159 63.9055 242.703C57.4835 240.776 50.1501 241.285 43.5395 241.754C34.8756 242.364 26.2431 243.492 17.6525 244.751C15.4944 245.08 13.3572 245.43 11.1991 245.749C27.922 290.33 61.9733 327.081 106.314 348.404Z" fill="#C18EA7"/>
<path d="M259.54 55.4422C264.276 53.8941 268.864 51.6868 273.809 50.7979C279.519 49.7991 285.113 48.6305 290.969 48.8003C296.825 48.9701 302.608 49.7991 308.444 50.1087C313.951 50.4138 319.475 50.307 324.965 49.7891C317.852 43.4412 310.257 37.6024 302.242 32.3205C287.114 43.6666 257.78 45.9938 242.349 53.0252C247.702 56.3012 253.192 57.4897 259.54 55.4422Z" fill="#C18EA7"/>
</g>
<g style="mix-blend-mode:multiply" opacity="0.4">
<path d="M45.4357 137.552C32.3403 136.134 19.1088 131.809 6.67336 136.034C5.50002 140.162 4.48381 144.35 3.62476 148.598C9.96293 147.979 16.4163 146.261 22.1259 144.863C29.8994 142.925 38.0395 140.828 45.4357 137.552Z" fill="#C18EA7"/>
<path d="M113.144 164.209C123.275 164.609 132.567 158.416 139.838 151.944C139.188 152.034 138.549 152.164 137.889 152.294C129.911 156.756 121.646 160.736 113.144 164.209Z" fill="#C18EA7"/>
<path d="M146.878 124.847C145.622 124.876 144.37 124.98 143.127 125.157C141.056 125.708 139.02 126.375 137.03 127.154C135.96 127.741 134.989 128.479 134.149 129.342C143.578 129.861 151.613 129.032 158.978 123.219C155.2 123.289 151.432 123.623 147.706 124.218C147.665 124.398 147.56 124.558 147.409 124.673C147.258 124.788 147.071 124.849 146.878 124.847Z" fill="#C18EA7"/>
<path d="M1.96948 210.373C2.16853 211.671 2.38854 212.95 2.61901 214.218C9.02005 212.041 15.683 209.294 20.6907 204.899C14.1668 205.685 7.83373 207.537 1.96948 210.373Z" fill="#C18EA7"/>
<path d="M202.298 110.505C206.352 108.657 210.102 106.32 214.042 104.402C202.518 106.03 191.318 108.617 180.643 113.242C187.987 112.962 195.572 113.541 202.298 110.505Z" fill="#C18EA7"/>
<path d="M66.3569 154.671C71.1865 152.064 75.3456 148.478 79.9028 145.462C69.5417 148.458 59.7987 153.043 49.6786 156.638C55.5244 156.898 61.3806 157.348 66.3569 154.671Z" fill="#C18EA7"/>
<path d="M117.251 320.898C121.441 319.899 126.68 318.9 129.98 316.093C133.28 313.287 135.93 310.101 139.314 307.714C126.051 310.021 112.715 312.048 99.8078 315.804C90.6829 318.471 80.5628 322.016 72.8103 327.929C76.2465 330.539 79.7701 333.029 83.3809 335.4C89.7889 330.109 97.2809 326.147 105.381 323.764C109.289 322.665 113.28 321.856 117.251 320.898Z" fill="#C18EA7"/>
<path d="M124.302 286.649C128.581 286.275 132.881 286.152 137.177 286.28C144.51 286.35 151.173 285.451 157.595 282.285C146.312 281.216 134.537 281.945 124.302 286.649Z" fill="#C18EA7"/>
<path d="M382.05 146.94C381.715 145.322 381.338 143.734 380.94 142.136C376.833 144.32 372.713 146.488 368.578 148.638C373.083 148.149 377.588 147.629 382.05 146.94Z" fill="#C18EA7"/>
<path d="M217.017 261.4C218.924 259.852 220.673 258.154 222.611 256.876C214.44 257.745 206.048 261.42 198.296 263.867C204.801 264.517 212.03 265.435 217.017 261.4Z" fill="#C18EA7"/>
<path d="M343.738 211.741C349.762 210.333 357.043 209.454 359.966 203.901C360.521 202.842 361.014 201.773 361.569 200.734C354.854 203.331 348.4 206.318 343.738 211.741Z" fill="#C18EA7"/>
<path d="M355.514 235.092C363.738 234.094 372.161 233.634 379.609 231.017C380.133 229.106 380.629 227.185 381.097 225.255C377.136 225.494 373.227 226.246 369.479 227.492C364.471 229.369 360.155 232.606 355.514 235.092Z" fill="#C18EA7"/>
</g>
<g style="mix-blend-mode:multiply" opacity="0.6">
<path d="M192.995 0C141.809 0 92.7204 19.3851 56.5269 53.8909C20.3333 88.3966 0 135.196 0 183.995C0 285.651 86.3982 368 192.995 368C299.591 368 386 285.651 386 183.995C386 82.3393 299.623 0 192.995 0ZM178.569 318.221C146.978 318.223 116.097 309.294 89.8292 292.563C63.5617 275.832 43.0881 252.051 30.9975 224.227C18.907 196.402 15.7424 165.785 21.9042 136.246C28.0659 106.707 43.2771 79.5736 65.6142 58.2768C87.9513 36.9799 116.411 22.4762 147.394 16.5999C178.378 10.7236 210.493 13.7385 239.679 25.2635C268.865 36.7884 293.811 56.3057 311.362 81.3472C328.913 106.389 338.28 135.83 338.28 165.947C338.28 206.331 321.454 245.061 291.503 273.617C261.551 302.174 220.928 318.218 178.569 318.221Z" fill="#C2989C"/>
</g>
<g style="mix-blend-mode:color-dodge" opacity="0.7">
<path d="M45.2367 281.256C19.1297 241.934 10.1725 207.596 8.381 181.218C8.37014 181.139 8.37014 181.058 8.381 180.979C7.30662 172.63 6.89339 164.217 7.14479 155.809C2.09521 183.316 1.85425 226.723 30.9051 274.584C79.9866 355.385 171.508 368.1 217.572 360.579C217.572 360.559 105.811 372.544 45.2367 281.256Z" fill="#C3E6F8"/>
</g>
</g>
<defs>
<linearGradient id="paint0_linear_47_71" x1="103.667" y1="-1.8103" x2="269.894" y2="378.617" gradientUnits="userSpaceOnUse">
<stop offset="0.03" stop-color="#8CCFD7"/>
<stop offset="0.27" stop-color="#E36132"/>
<stop offset="0.77" stop-color="#E79338"/>
<stop offset="1" stop-color="#A6ADA2"/>
</linearGradient>
<linearGradient id="paint1_linear_47_71" x1="136.301" y1="15.8481" x2="241.311" y2="358.516" gradientUnits="userSpaceOnUse">
<stop stop-color="#E36132"/>
<stop offset="0.28" stop-color="#E02230"/>
<stop offset="0.45" stop-color="#E35233"/>
<stop offset="0.59" stop-color="#E57035"/>
<stop offset="0.66" stop-color="#E67B36"/>
<stop offset="0.72" stop-color="#E67435"/>
<stop offset="0.8" stop-color="#E45F34"/>
<stop offset="0.9" stop-color="#E23D31"/>
<stop offset="0.92" stop-color="#E23831"/>
</linearGradient>
<clipPath id="clip0_47_71">
<rect width="386" height="368" fill="white"/>
</clipPath>
</defs>
</svg>
