<svg xmlns="http://www.w3.org/2000/svg" xmlns:xlink="http://www.w3.org/1999/xlink" viewBox="0 0 368.45 368.45"><defs><style>.cls-1{isolation:isolate;}.cls-2{fill:url(#linear-gradient);}.cls-3{fill:url(#linear-gradient-2);}.cls-4{opacity:0.4;}.cls-4,.cls-6{mix-blend-mode:multiply;}.cls-5{fill:#c18ea7;}.cls-6{fill:#c2989c;opacity:0.6;}.cls-7{fill:#c3e6f8;opacity:0.7;mix-blend-mode:color-dodge;}</style><linearGradient id="linear-gradient" x1="98.96" y1="-1.81" x2="270.77" y2="373.06" gradientTransform="translate(184.22 -76.31) rotate(45)" gradientUnits="userSpaceOnUse"><stop offset="0.03" stop-color="#8ccfd7"/><stop offset="0.27" stop-color="#e36132"/><stop offset="0.77" stop-color="#e79338"/><stop offset="1" stop-color="#a6ada2"/></linearGradient><linearGradient id="linear-gradient-2" x1="130.11" y1="15.87" x2="239.45" y2="356.03" gradientTransform="translate(184.22 -76.31) rotate(45)" gradientUnits="userSpaceOnUse"><stop offset="0" stop-color="#e36132"/><stop offset="0.28" stop-color="#e02230"/><stop offset="0.45" stop-color="#e35233"/><stop offset="0.59" stop-color="#e57035"/><stop offset="0.66" stop-color="#e67b36"/><stop offset="0.72" stop-color="#e67435"/><stop offset="0.8" stop-color="#e45f34"/><stop offset="0.9" stop-color="#e23d31"/><stop offset="0.92" stop-color="#e23831"/></linearGradient></defs><g class="cls-1"><g id="Calque_2" data-name="Calque 2"><g id="Calque_1-2" data-name="Calque 1"><circle class="cls-2" cx="184.22" cy="184.22" r="184.22" transform="translate(-76.31 184.22) rotate(-45)"/><circle class="cls-3" cx="184.22" cy="184.22" r="184.22" transform="translate(-76.31 184.22) rotate(-45)"/><g class="cls-4"><path class="cls-5" d="M68.18,191c18.69-3.73,39.18-1,55.75-12.33,15.41-10.48,23-29.37,38.46-39.59,8.12-5.37,17.2-7.18,26.72-8.26,11-1.27,21-3.13,29.64-10.62,3.41-2.94,12.43-10.28,8.72-15.74-2.9-4.25-9.7-5.26-14.37-5.94a181.87,181.87,0,0,0-43.18-.75,98.38,98.38,0,0,0-28.22,7.42c-10.64,4.41-20.72,9.55-32.27,11.22-20,2.91-39.26-1.77-58.92-4.54-10.57-1.5-21.44-2.39-32-.64-1.28.2-2.53.46-3.77.73a185,185,0,0,0-7.53,123.4c10.89-7.55,20.24-17,30.13-25.79C46.42,201.47,55.93,193.43,68.18,191Z"/><path class="cls-5" d="M101.48,348.83A77.6,77.6,0,0,0,122.9,340c11.08-6.59,19.41-15.15,28-24.52a87.73,87.73,0,0,1,25.39-19.44c17.4-8.6,36.82-11.57,55.56-16,11.27-2.62,22.45-4.29,34.07-3.45,10.74.8,21.28,3.06,31.78,5.42,12.29,2.78,25.1,5.92,37.88,7.08a184.18,184.18,0,0,0,6.62-199.62c-2.48,4.63-5.44,9.17-8.31,13.73-4.74,7.53-8.82,15.25-10,24.19-1.43,10.49.52,20.71,2.86,30.92,2.12,9.2,4.29,18.49,3.07,28-1.05,8.35-5.45,17.78-12.23,23-7.56,5.85-18.18,8-24.67,15.26-4.76,5.29-4.08,10.91-4.39,17.53-.24,5-1.33,9.19-4.3,13.27-4.51,6.26-10.62,11.62-18.73,11.72-8.36.11-16.19-3.5-23.81-6.5-11.42-4.48-21.79-12.56-33.82-15.35-4.91-1.14-11.22-2.55-16.19-.77-3,1.06-5.24,3.1-7.73,4.93-8.21,6.05-18.5,9.67-28.32,12.14a103.34,103.34,0,0,1-31,2.62c-11.19-.6-21.53-3.8-31.73-8.38C82.35,251.11,72.09,246.46,61,243c-6.13-1.93-13.13-1.42-19.44-.95-8.27.61-16.51,1.74-24.71,3-2.06.33-4.1.68-6.16,1A184.82,184.82,0,0,0,101.48,348.83Z"/><path class="cls-5" d="M247.74,55.51c4.52-1.55,8.9-3.76,13.62-4.65,5.45-1,10.79-2.17,16.38-2s11.11,1,16.68,1.31a100.78,100.78,0,0,0,15.77-.32A189,189,0,0,0,288.5,32.36c-14.44,11.36-42.44,13.69-57.17,20.73C236.44,56.37,241.68,57.56,247.74,55.51Z"/></g><g class="cls-4"><path class="cls-5" d="M43.37,137.72c-12.5-1.42-25.13-5.75-37-1.52q-1.68,6.2-2.91,12.58c6.05-.62,12.21-2.34,17.66-3.74C28.54,143.1,36.31,141,43.37,137.72Z"/><path class="cls-5" d="M108,164.41c9.67.4,18.54-5.8,25.48-12.28-.62.09-1.23.22-1.86.35A210.66,210.66,0,0,1,108,164.41Z"/><path class="cls-5" d="M140.2,125a29,29,0,0,0-3.58.31,52.31,52.31,0,0,0-5.82,2,11.73,11.73,0,0,0-2.75,2.19c9,.52,16.67-.31,23.7-6.13a73.84,73.84,0,0,0-10.76,1A.8.8,0,0,1,140.2,125Z"/><path class="cls-5" d="M1.88,210.63c.19,1.3.4,2.58.62,3.85,6.11-2.18,12.47-4.93,17.25-9.33A54.63,54.63,0,0,0,1.88,210.63Z"/><path class="cls-5" d="M193.1,110.64c3.87-1.85,7.45-4.19,11.21-6.11-11,1.63-21.69,4.22-31.88,8.85C179.44,113.1,186.68,113.68,193.1,110.64Z"/><path class="cls-5" d="M63.34,154.86c4.61-2.61,8.58-6.2,12.93-9.22-9.89,3-19.19,7.59-28.85,11.19C53,157.09,58.59,157.54,63.34,154.86Z"/><path class="cls-5" d="M111.92,321.29c4-1,9-2,12.15-4.81s5.68-6,8.91-8.39c-12.66,2.31-25.39,4.34-37.71,8.1-8.71,2.67-18.37,6.22-25.77,12.14q4.92,3.92,10.09,7.48a58.36,58.36,0,0,1,21-11.65C104.32,323.06,108.13,322.25,111.92,321.29Z"/><path class="cls-5" d="M118.65,287a100.14,100.14,0,0,1,12.29-.37c7,.07,13.36-.83,19.49-4C139.66,281.56,128.42,282.29,118.65,287Z"/><path class="cls-5" d="M364.68,147.12c-.32-1.62-.68-3.21-1.06-4.81q-5.88,3.28-11.8,6.51C356.12,148.33,360.42,147.81,364.68,147.12Z"/><path class="cls-5" d="M207.15,261.72c1.82-1.55,3.49-3.25,5.34-4.53-7.8.87-15.81,4.55-23.21,7C195.49,264.84,202.39,265.76,207.15,261.72Z"/><path class="cls-5" d="M328.11,212c5.75-1.41,12.7-2.29,15.49-7.85.53-1.06,1-2.13,1.53-3.17C338.72,203.58,332.56,206.57,328.11,212Z"/><path class="cls-5" d="M339.35,235.38c7.85-1,15.89-1.46,23-4.08q.75-2.87,1.42-5.77a41.71,41.71,0,0,0-11.09,2.24C347.9,229.65,343.78,232.89,339.35,235.38Z"/></g><path class="cls-6" d="M184.22,0A184.22,184.22,0,0,0,0,184.22C0,286,82.47,368.45,184.22,368.45S368.45,286,368.45,184.22,286,0,184.22,0ZM170.45,318.61A152.46,152.46,0,1,1,322.9,166.15,152.46,152.46,0,0,1,170.45,318.61Z"/><path class="cls-7" d="M43.18,281.6C18.26,242.23,9.71,207.85,8,181.44a.93.93,0,0,1,0-.24A167.69,167.69,0,0,1,6.82,156C2,183.54,1.77,227,29.5,274.92c46.85,80.9,134.21,93.63,178.18,86.1C207.68,361,101,373,43.18,281.6Z"/></g></g></g></svg>