<svg  viewBox="0 0 386 368" fill="none" xmlns="http://www.w3.org/2000/svg">
<g clip-path="url(#clip0_47_96)">
<path d="M329.459 314.099C404.828 242.245 404.828 125.745 329.459 53.8909C254.09 -17.9636 131.892 -17.9636 56.5231 53.8909C-18.8461 125.745 -18.8461 242.245 56.5231 314.099C131.892 385.954 254.09 385.954 329.459 314.099Z" fill="url(#paint0_radial_47_96)"/>
<g style="mix-blend-mode:multiply" opacity="0.5">
<path d="M297.716 293.501C296.941 280.038 279.142 283.773 270.729 287.459C260.022 292.143 247.493 303.489 253.841 315.474C254.376 318.98 255.874 322.366 259.079 324.184C265.669 327.879 273.348 325.182 279.519 321.986C289.586 316.763 298.355 304.697 297.716 293.501Z" fill="#8DA4B0"/>
</g>
<g style="mix-blend-mode:multiply" opacity="0.5">
<path d="M320.083 280.237C320.019 280.058 319.919 279.892 319.79 279.748C319.803 279.564 319.775 279.379 319.706 279.207C319.637 279.034 319.53 278.878 319.391 278.749C318.831 278.257 318.117 277.952 317.359 277.88C316.192 277.835 315.04 278.135 314.059 278.739C312.14 279.8 310.716 281.518 310.078 283.543C309.872 284.1 309.854 284.704 310.026 285.271C310.329 286.19 311.073 286.43 311.932 286.639C314.834 287.339 318.501 285.121 319.664 282.644C320.124 281.924 320.275 281.061 320.083 280.237Z" fill="#8DA4B0"/>
</g>
<g style="mix-blend-mode:multiply" opacity="0.5">
<path d="M313.41 221.349C309.91 217.194 304.044 217.005 299.057 218.663C298.418 218.882 297.758 219.152 297.077 219.462C293.138 220.57 289.808 223.1 287.795 226.513C282.934 231.966 280.147 239.098 283.992 245.04C284.621 248.376 286.192 251.393 289.23 253.16C298.659 258.544 311.419 244.561 314.111 237.52C315.955 232.815 317.013 225.644 313.41 221.349Z" fill="#8DA4B0"/>
</g>
<g style="mix-blend-mode:multiply" opacity="0.5">
<path d="M333.88 244.411C333.885 244.358 333.885 244.304 333.88 244.251C333.87 244.143 333.849 244.036 333.817 243.932C333.852 243.721 333.841 243.507 333.785 243.3C333.729 243.094 333.63 242.901 333.493 242.733C333.308 242.529 333.089 242.357 332.843 242.224C331.712 241.605 329.91 242.743 329.271 243.582C329.029 243.898 328.815 244.232 328.632 244.581C328.386 244.916 328.254 245.315 328.254 245.725C328.254 246.134 328.386 246.533 328.632 246.868C328.818 247.059 329.053 247.2 329.314 247.277C329.575 247.354 329.853 247.365 330.119 247.308C330.455 247.366 330.8 247.359 331.133 247.287C331.467 247.215 331.781 247.079 332.057 246.888L332.215 246.778L332.372 246.658C332.446 246.61 332.516 246.557 332.581 246.499C332.655 246.429 332.738 246.379 332.812 246.299C333.364 245.834 333.734 245.203 333.859 244.511C333.874 244.48 333.882 244.446 333.88 244.411Z" fill="#8DA4B0"/>
</g>
<g style="mix-blend-mode:multiply" opacity="0.5">
<path d="M218.368 302.43C210.731 291.234 186.657 297.376 179.344 305.766C178.534 306.7 177.815 307.703 177.196 308.762C176.277 309.754 175.53 310.881 174.986 312.098C171.298 320.678 186.049 328.329 193.571 327.51C202.675 326.491 226.341 314.106 218.368 302.43Z" fill="#8DA4B0"/>
</g>
<g style="mix-blend-mode:multiply" opacity="0.5">
<path d="M233.727 327.08C233.51 326.871 233.238 326.719 232.94 326.642C232.642 326.565 232.328 326.565 232.03 326.641H231.914C231.549 326.737 231.198 326.875 230.867 327.05C230.537 327.059 230.211 327.12 229.903 327.23C229.041 327.562 228.324 328.165 227.87 328.938C227.546 329.336 227.31 329.793 227.175 330.28C227.04 330.767 227.009 331.275 227.085 331.774C227.451 333.013 228.782 333.163 229.924 332.993C232.333 332.653 235.717 329.447 233.727 327.08Z" fill="#8DA4B0"/>
</g>
<g style="mix-blend-mode:multiply" opacity="0.5">
<path d="M242.233 343.43L242.003 343.1C241.542 342.371 240.641 342.921 240.002 343.55C239.74 343.781 239.524 344.055 239.363 344.359C239.32 344.468 239.271 344.575 239.216 344.679C239.152 344.831 239.1 344.988 239.059 345.148C238.797 346.147 239.719 346.247 240.704 345.937C241.251 345.816 241.748 345.541 242.129 345.148C242.663 344.669 242.893 344.029 242.233 343.43Z" fill="#8DA4B0"/>
</g>
<g style="mix-blend-mode:multiply" opacity="0.5">
<path d="M79.2324 278.659C80.9819 270.25 72.2866 257.425 62.7531 264.616C58.9293 267.503 58.395 271.108 59.7045 274.464C60.2422 277.149 61.1918 279.744 62.5226 282.165C64.1255 285.091 66.7132 287.439 70.4637 287.159C72.0201 286.958 73.5015 286.399 74.7795 285.528C76.0575 284.658 77.0934 283.504 77.7971 282.165C78.1647 281.72 78.429 281.206 78.5724 280.657C78.8614 280.014 79.0825 279.344 79.2324 278.659Z" fill="#8DA4B0"/>
</g>
<g style="mix-blend-mode:multiply" opacity="0.5">
<path d="M88.0011 297.936V297.806C88.0011 297.546 88.1268 297.227 88.0011 296.967C87.8753 296.707 87.582 296.278 87.3725 295.968C87.0582 295.469 86.1467 295.629 85.7067 295.788C85.2596 295.947 84.8524 296.194 84.5114 296.512C84.1703 296.83 83.903 297.213 83.7267 297.636C83.2553 298.725 82.9096 300.433 84.3658 301.012C85.822 301.591 88.6611 299.514 88.0011 297.936Z" fill="#8DA4B0"/>
</g>
<g style="mix-blend-mode:multiply" opacity="0.5">
<path d="M353.052 146.601C342.209 147.29 333.021 170.821 341.528 177.423C344.535 181.688 349.553 184.414 354.896 181.698C365.445 176.384 369.468 145.552 353.052 146.601Z" fill="#8DA4B0"/>
</g>
<g style="mix-blend-mode:multiply" opacity="0.5">
<path d="M254.648 105.121C254.541 104.934 254.391 104.772 254.21 104.648C254.029 104.523 253.82 104.44 253.6 104.402C253.468 104.388 253.334 104.388 253.202 104.402C253.281 104.256 253.351 104.106 253.412 103.953C253.454 103.864 253.473 103.766 253.468 103.669C253.462 103.571 253.433 103.476 253.382 103.391C253.331 103.306 253.26 103.234 253.174 103.181C253.088 103.128 252.99 103.094 252.888 103.084C252.552 103.097 252.227 103.197 251.947 103.373C251.666 103.549 251.441 103.794 251.295 104.083C251.107 104.372 250.897 104.672 250.688 104.952C250.478 105.231 250.07 105.301 249.766 105.511C248.477 106.39 246.571 108.288 247.796 109.896C247.733 110.115 247.671 110.325 247.629 110.535C247.388 111.743 248.31 112.353 249.504 111.893C250.61 111.428 251.618 110.775 252.479 109.966C254.114 109.147 256.523 106.62 254.648 105.121Z" fill="#8DA4B0"/>
</g>
<g style="mix-blend-mode:multiply" opacity="0.5">
<path d="M76.4772 191.656C74.5181 187.98 70.4009 188.12 67.0485 189.878C61.6427 192.674 56.0903 202.183 61.1713 206.348C61.8208 208.345 63.0884 209.973 65.1942 210.263C69.5628 210.842 73.1771 206.897 75.3038 203.831C77.6191 200.375 78.4467 195.411 76.4772 191.656Z" fill="#8DA4B0"/>
</g>
<g style="mix-blend-mode:multiply" opacity="0.5">
<path d="M42.3872 147.17C41.5553 146.601 40.5811 146.251 39.5624 146.155C38.5437 146.058 37.5163 146.219 36.5833 146.621C36.8452 146.071 36.5833 145.512 35.6824 145.962C30.769 148.399 27.6156 155.07 29.8051 160.134C30.8528 162.581 33.4614 163.2 35.9443 162.461C39.6738 161.363 41.8424 158.616 43.2253 155.28C44.2206 152.893 44.8806 148.958 42.3872 147.17Z" fill="#8DA4B0"/>
</g>
<g style="mix-blend-mode:color-dodge" opacity="0.4">
<path d="M326.934 271.488C316.081 280.986 303.604 286.729 291.367 293.781C291.518 293.196 291.56 292.591 291.493 291.993C291.448 291.887 291.384 291.789 291.304 291.703C294.762 288.837 297.884 284.402 300.283 281.895C307.616 274.135 315.117 265.465 319.559 255.807C319.79 255.278 319.056 255.388 318.878 255.737C315.41 263.008 310.088 269.161 304.861 275.343C302.504 278.12 300.021 280.767 297.527 283.393C295.131 286.101 292.585 288.684 289.901 291.134H289.848C293.597 284.514 296.445 277.466 298.324 270.16C298.418 269.77 297.842 270.01 297.758 270.24C295.463 277.333 292.428 284.189 288.696 290.705C290.364 285.568 291.745 280.35 292.834 275.074C292.918 274.724 292.384 274.924 292.331 275.164C291.053 280.317 289.251 285.301 287.627 290.355C286.171 280.587 285.962 270.379 285.878 260.571C285.878 260.262 285.343 260.571 285.343 260.771C285.343 270.849 285.511 281.366 287.02 291.414L286.821 291.504L286.632 291.414C286.402 291.324 285.962 291.653 286.024 291.883C285.565 292.144 285.139 292.456 284.757 292.812C278.94 284.654 274.418 275.722 271.337 266.304C271.242 266.045 270.739 266.384 270.813 266.614C273.636 276.192 278.119 285.252 284.076 293.421C284.028 293.458 283.982 293.498 283.94 293.541C280.42 289.306 275.15 286.4 271.368 282.405C271.148 282.175 270.603 282.654 270.813 282.874C274.574 286.929 279.068 290.455 283.185 294.21L283.101 294.28C271.818 292.183 260.127 290.804 248.792 289.616C248.561 289.616 248.194 290.055 248.519 290.095C259.823 291.603 271.043 293.751 282.295 295.509C282.187 295.8 282.11 296.101 282.064 296.408C279.602 296.627 276.973 296.478 274.731 296.887C271.441 297.496 268.194 298.195 264.831 298.555C264.569 298.555 264.265 299.104 264.674 299.064C268.864 298.755 272.95 297.576 277.109 297.496C278.691 297.496 280.367 297.496 281.991 297.386C281.983 297.772 282.018 298.157 282.096 298.535C278.031 300.353 273.715 301.741 269.608 303.159C260.892 306.236 252.406 311.279 243.291 313.147C243.134 313.147 242.956 313.487 243.187 313.447C252.322 311.999 260.996 307.294 269.587 304.128C273.421 302.72 277.601 301.501 281.488 299.853C279.047 301.411 276.355 302.77 274.05 304.348C270.635 306.695 266.308 310.47 262.337 311.939C262.107 312.028 261.971 312.458 262.337 312.338C266.591 310.86 270.593 307.434 274.259 304.917C276.585 303.339 279.299 302.081 281.761 300.572C277.57 304.148 272.919 307.384 268.634 310.63C261.164 316.323 254.114 322.356 245.586 326.681C245.282 326.84 245.334 327.27 245.732 327.09C254.417 322.895 261.646 317.022 269.168 311.229C273.84 307.634 279.435 304.158 284.002 300.063H284.055C284.323 300.051 284.59 300.014 284.851 299.953C281.907 304.498 278.722 309.052 275.59 313.287C271.997 318.151 268.257 324.683 263.689 328.718C263.333 329.038 263.636 329.377 264.014 329.078C269 324.993 272.625 318.72 276.48 313.686C279.288 310.021 282.305 306.086 284.924 302.081C283.573 309.442 281.981 316.903 278.89 323.694C278.817 323.854 279.047 323.814 279.1 323.694C282.869 315.989 285.435 307.798 286.716 299.384L286.894 299.274C288.004 302.88 289.785 306.545 290.917 309.831C292.122 313.317 295.642 322.915 298.449 324.004C298.208 323.914 297.747 324.363 298.03 324.503L298.428 324.693C298.648 324.803 299.109 324.413 298.91 324.204C295.568 320.458 293.997 313.726 291.933 309.222C290.365 305.771 289.062 302.216 288.036 298.585C288.256 298.425 288.434 298.245 288.643 298.066C293.494 305.177 299.036 311.819 303.373 319.25C303.541 319.559 304.18 319.13 304.023 318.86C299.832 311.259 294.426 304.388 289.565 297.187C289.723 297.017 289.838 296.847 289.974 296.687C291.074 297.157 292.216 297.566 293.347 297.956C297.538 301.042 301.886 303.888 306.139 306.815C306.401 307.005 307.029 306.405 306.767 306.206C303.687 303.918 300.649 301.352 297.423 299.214C298.334 299.474 299.266 299.724 300.188 299.953C304.117 300.952 306.987 303.529 311.209 303.838C311.587 303.838 312.131 303.129 311.639 303.089C307.04 302.73 303.53 299.893 299.193 298.735C297.59 298.305 296.05 297.786 294.51 297.247C294.091 296.927 293.683 296.597 293.284 296.248L295.935 296.687C301.1 297.456 306.485 297.916 311.649 298.185C311.985 298.185 312.529 297.526 312.037 297.476C307.7 297.097 303.237 296.408 298.879 295.828C297.664 295.659 296.511 295.439 295.38 295.189C305.94 293.102 316.238 290.804 326.526 287.049C326.924 286.899 327.154 286.15 326.526 286.36C315.578 290.285 304.526 292.472 293.284 294.69C293.002 294.62 292.698 294.52 292.394 294.43C304.641 287.668 316.783 281.266 327.28 271.868C327.615 271.518 327.291 271.158 326.934 271.488Z" fill="#BAE3F9"/>
</g>
<g style="mix-blend-mode:color-dodge" opacity="0.4">
<path d="M140.163 142.386C135.019 155.55 134.16 168.744 131.928 182.207C132.432 181.854 133.001 181.594 133.604 181.438C133.722 181.418 133.843 181.418 133.961 181.438C135.448 177.313 138.56 172.879 140.1 169.812C144.846 160.394 150.461 150.516 158.182 142.955C158.601 142.546 158.769 143.245 158.496 143.525C152.734 149.337 148.764 156.349 144.741 163.31C142.928 166.427 141.294 169.633 139.681 172.849C137.968 175.987 136.426 179.208 135.061 182.497C135.061 182.497 135.061 182.497 135.061 182.547C140.07 176.741 145.837 171.569 152.221 167.156C152.556 166.926 152.556 167.525 152.347 167.685C146.33 172.388 140.82 177.65 135.899 183.396C140.264 179.993 144.81 176.806 149.518 173.847C149.832 173.648 149.832 174.197 149.633 174.337C145.086 177.393 140.927 180.879 136.632 184.215C146.679 181.818 156.684 178.142 166.238 174.517C166.542 174.407 166.458 174.986 166.238 175.066C156.432 178.851 146.166 182.687 135.857 185.164C135.857 185.224 135.857 185.283 135.857 185.363C135.898 185.411 135.948 185.452 136.004 185.483C136.043 185.545 136.069 185.613 136.078 185.684C136.088 185.756 136.082 185.828 136.06 185.897C136.038 185.966 136.001 186.03 135.952 186.084C135.903 186.138 135.842 186.182 135.773 186.212C135.703 186.716 135.565 187.21 135.364 187.681C145.491 189.735 155.88 190.357 166.196 189.528C166.479 189.528 166.332 190.078 166.092 190.108C155.72 191.221 145.226 190.681 135.04 188.51C135.04 188.51 135.04 188.609 134.977 188.669C140.425 190.177 145.244 193.743 150.555 195.581C150.838 195.691 150.608 196.35 150.304 196.25C144.94 194.472 139.827 191.825 134.589 189.608C134.585 189.638 134.585 189.668 134.589 189.698C140.875 198.877 146.627 208.675 152.043 218.233C152.158 218.433 151.844 218.932 151.676 218.653C145.946 209.234 139.639 200.145 133.688 190.877C133.443 191.084 133.18 191.271 132.903 191.436C133.625 193.693 134.757 195.95 135.197 198.108C135.867 201.244 136.412 204.38 137.292 207.466C137.355 207.716 136.957 208.185 136.842 207.816C135.574 204.031 135.176 199.936 133.699 196.24C133.143 194.842 132.452 193.374 131.97 191.885C131.6 192.038 131.214 192.151 130.818 192.225C130.598 196.49 130.881 200.874 131.027 204.989C131.342 213.849 129.644 223.247 131.3 231.956C131.3 232.106 131.101 232.376 131.048 232.156C129.005 223.557 130.304 214.118 130.137 205.339C130.074 201.424 129.665 197.269 129.802 193.214C129.215 195.96 128.911 198.847 128.262 201.474C127.214 205.379 125.213 210.622 125.286 214.678C125.286 214.917 124.92 215.207 124.899 214.847C124.731 210.533 126.564 205.709 127.602 201.524C128.272 198.877 128.471 196 129.005 193.244C127.109 198.318 125.726 203.631 124.186 208.645C121.494 217.394 118.288 225.894 117.293 235.023C117.293 235.372 116.811 235.482 116.853 235.023C117.628 225.794 120.603 217.174 123.401 208.355C125.14 202.862 126.407 196.63 128.639 191.056C128.552 190.812 128.485 190.562 128.44 190.307C125.14 194.612 121.923 199.157 119.011 203.511C115.627 208.505 110.703 214.308 108.535 219.841C108.367 220.281 107.917 220.131 108.063 219.691C110.158 213.699 114.862 208.175 118.309 202.862C120.813 199.017 123.484 194.872 126.407 191.036C119.755 195.032 113.113 199.246 107.686 204.52C107.55 204.65 107.497 204.43 107.581 204.35C113.638 198.107 120.628 192.749 128.324 188.45C128.315 188.38 128.315 188.31 128.324 188.24C124.406 188.629 120.174 188.44 116.559 188.689C112.704 188.939 102.05 189.438 99.9336 187.381C100.122 187.551 99.8602 188.14 99.6088 187.94L99.284 187.651C99.0745 187.501 99.284 186.961 99.5774 187.041C104.48 188.589 111.594 187.431 116.759 187.551C120.7 187.643 124.643 187.456 128.555 186.991C128.639 186.732 128.754 186.502 128.848 186.252C120.111 184.654 111.562 182.257 102.71 181.258C102.333 181.258 102.521 180.499 102.836 180.519C111.793 181.368 120.52 183.516 129.341 185.114C129.445 184.924 129.571 184.754 129.676 184.564C128.796 183.765 127.968 182.926 127.162 182.067C122.604 179.55 118.194 176.764 113.72 174.077C113.448 173.917 113.794 173.138 114.087 173.308C117.481 175.166 121.117 176.874 124.417 178.921C123.83 178.202 123.233 177.483 122.657 176.754C120.174 173.668 116.612 172.09 114.716 168.484C114.558 168.164 115.061 167.395 115.292 167.825C117.387 171.74 121.452 173.768 124.207 177.163C125.255 178.422 126.302 179.59 127.434 180.739C127.905 180.989 128.377 181.228 128.869 181.448C128.345 180.699 127.822 179.96 127.444 179.271C124.745 174.948 122.276 170.498 120.048 165.937C119.891 165.637 120.341 164.938 120.572 165.318C122.573 169.003 124.93 172.699 127.151 176.304C127.759 177.303 128.408 178.242 129.079 179.151C127.151 169.033 125.475 159.076 125.244 148.568C125.244 148.169 125.862 147.689 125.894 148.299C126.229 159.435 128.241 169.992 130.336 180.779C130.545 181.005 130.744 181.235 130.933 181.468C132.892 168.114 134.526 154.971 139.691 142.156C139.859 141.827 140.383 141.956 140.163 142.386Z" fill="#BAE3F9"/>
</g>
<g style="mix-blend-mode:screen" opacity="0.5">
<path d="M132.536 183.236C132.119 183.186 131.697 183.231 131.302 183.366C130.907 183.502 130.551 183.724 130.263 184.015C130.026 184.168 129.805 184.342 129.603 184.534C128.692 185.573 128.198 186.886 128.209 188.24C128.209 189.428 128.764 190.757 130.231 190.547C132.159 190.287 133.479 188.38 134.013 186.752C134.484 185.283 134.401 183.546 132.536 183.236Z" fill="white"/>
</g>
<g style="mix-blend-mode:screen" opacity="0.5">
<path d="M291.766 291.933C291.412 291.944 291.061 291.991 290.718 292.073C289.759 292.145 288.837 292.459 288.046 292.982C286.412 294.04 284.736 295.499 285.029 297.496C285.26 299.194 287.837 298.885 288.947 298.435C290.078 297.963 291.031 297.174 291.68 296.173C292.329 295.172 292.644 294.007 292.583 292.832C292.572 292.392 292.289 291.913 291.766 291.933Z" fill="white"/>
</g>
<g style="mix-blend-mode:screen" opacity="0.5">
<path d="M365.016 217.494C365.008 216.873 364.822 216.266 364.478 215.738C364.135 215.21 363.647 214.781 363.067 214.498C362.424 214.359 361.754 214.378 361.12 214.552C360.486 214.727 359.909 215.052 359.442 215.496C358.542 216.241 357.82 217.161 357.326 218.195C356.833 219.229 356.579 220.353 356.582 221.489C356.595 222.187 356.781 222.872 357.127 223.487C357.168 223.682 357.231 223.873 357.316 224.056C358.363 226.233 361.087 224.775 362.313 223.607C364.115 221.889 365.288 219.941 365.016 217.494Z" fill="white"/>
</g>
<g style="mix-blend-mode:screen" opacity="0.5">
<path d="M365.917 229.469C365.884 229.369 365.813 229.284 365.718 229.23C365.736 229.147 365.736 229.062 365.718 228.98C365.718 228.98 365.718 228.98 365.718 228.93C365.677 228.881 365.652 228.822 365.644 228.76C365.466 228.071 364.408 228.531 364.084 228.82C363.37 229.322 362.833 230.019 362.543 230.818C362.282 231.946 363.664 231.816 364.262 231.257C364.365 231.166 364.463 231.069 364.555 230.968C364.894 230.948 365.216 230.818 365.466 230.598H365.519C365.718 230.298 366.064 229.879 365.917 229.469Z" fill="white"/>
</g>
<g style="mix-blend-mode:screen" opacity="0.5">
<path d="M120.174 322.606C119.806 322.456 119.401 322.407 119.006 322.464C118.61 322.52 118.238 322.68 117.932 322.925C116.444 322.655 115.114 323.984 114.789 325.262C114.056 327.969 117.45 330.855 120.163 330.106C120.921 329.876 121.574 329.405 122.014 328.774C122.453 328.142 122.654 327.386 122.583 326.631C122.405 325.242 121.609 323.285 120.174 322.606Z" fill="white"/>
</g>
<g style="mix-blend-mode:screen" opacity="0.5">
<path d="M130.346 332.713C130.235 332.498 130.061 332.319 129.846 332.195C129.63 332.071 129.383 332.008 129.131 332.014C128.377 331.934 127.036 333.173 127.905 333.752C128.092 333.857 128.293 333.937 128.503 333.992C128.713 334.1 128.954 334.142 129.192 334.112C129.429 334.081 129.65 333.98 129.823 333.822C130.126 333.532 130.493 333.113 130.346 332.713Z" fill="white"/>
</g>
<g style="mix-blend-mode:screen" opacity="0.5">
<path d="M284.956 154.201C283.908 152.424 282.211 152.703 280.682 153.662C280.263 153.843 279.885 154.101 279.571 154.421C279.508 154.501 279.477 154.571 279.403 154.651C278.549 155.387 277.84 156.263 277.308 157.238C276.491 158.996 275.642 162.581 277.602 163.93C277.638 163.992 277.681 164.053 277.727 164.109C278.775 165.108 280.535 164.399 281.551 163.75C284.736 161.742 286.946 157.507 284.956 154.201Z" fill="white"/>
</g>
<g style="mix-blend-mode:screen" opacity="0.5">
<path d="M285.04 169.792C284.683 169.093 283.866 169.563 283.405 170.072C283.007 170.292 282.358 171.071 282.756 171.54C283.678 172.589 285.605 170.951 285.04 169.792Z" fill="white"/>
</g>
<g style="mix-blend-mode:screen" opacity="0.5">
<path d="M36.9605 180.549C36.9204 180.545 36.8832 180.527 36.8557 180.499C36.7987 180.422 36.7462 180.342 36.6986 180.26L36.5414 179.99C36.5517 179.668 36.4924 179.347 36.3675 179.047C36.2425 178.748 36.0544 178.476 35.8148 178.248C35.5752 178.021 35.2892 177.843 34.9745 177.725C34.6599 177.607 34.3231 177.552 33.9852 177.563C33.2389 177.564 32.5098 177.776 31.8899 178.172C30.2975 178.632 29.3128 180.889 29.208 182.507C29.054 183.827 29.4281 185.154 30.2556 186.222C30.6893 186.63 31.2553 186.884 31.8608 186.944C32.4662 187.004 33.075 186.866 33.5871 186.552C33.5881 186.569 33.5881 186.585 33.5871 186.602C33.65 187.151 34.509 186.602 34.4985 186.262C34.4985 186.152 34.4985 186.053 34.4985 185.943C35.226 185.149 35.7656 184.216 36.0805 183.206C36.3791 183.139 36.6542 182.999 36.8784 182.799C37.1026 182.599 37.2681 182.347 37.3586 182.067C37.37 181.908 37.37 181.748 37.3586 181.588C37.429 181.398 37.4279 181.19 37.3552 181C37.2826 180.811 37.143 180.651 36.9605 180.549Z" fill="white"/>
</g>
<g style="mix-blend-mode:screen" opacity="0.5">
<path d="M35.6195 191.766C35.0433 191.356 34.069 192.365 34.2576 192.954C34.2157 193.081 34.2157 193.217 34.2576 193.344L34.3623 193.593C34.3623 193.783 34.4461 194.003 34.6557 194.073C34.8433 194.151 35.0509 194.175 35.2528 194.143C35.7976 194.013 36.5624 193.503 36.5309 192.884C36.4995 192.265 35.9757 192.085 35.6195 191.766Z" fill="white"/>
</g>
<g style="mix-blend-mode:screen" opacity="0.5">
<path d="M308.004 66.0392C307.312 64.9705 305.364 66.3289 304.861 66.8882C304.358 67.4475 303.96 68.706 304.798 69.1454C304.88 69.438 305 69.7197 305.154 69.9844C305.605 70.7235 306.988 69.7048 307.249 68.9856L307.511 68.8059C307.908 68.4512 308.207 68.0087 308.381 67.5174C308.452 67.2606 308.455 66.9909 308.389 66.7328C308.323 66.4747 308.191 66.2363 308.004 66.0392Z" fill="white"/>
</g>
<g style="mix-blend-mode:multiply" opacity="0.5">
<path d="M192.995 0C141.809 0 92.7204 19.3851 56.5269 53.8909C20.3333 88.3966 0 135.196 0 183.995C0 285.651 86.3982 368 192.995 368C299.591 368 386 285.651 386 183.995C386 82.3393 299.623 0 192.995 0ZM178.569 318.221C146.978 318.223 116.097 309.294 89.8292 292.563C63.5617 275.832 43.0881 252.051 30.9975 224.227C18.907 196.402 15.7424 165.785 21.9042 136.246C28.0659 106.707 43.2771 79.5736 65.6142 58.2768C87.9513 36.9799 116.411 22.4762 147.394 16.5999C178.378 10.7236 210.493 13.7385 239.679 25.2635C268.865 36.7884 293.811 56.3057 311.362 81.3472C328.913 106.389 338.28 135.83 338.28 165.947C338.283 185.944 334.154 205.745 326.129 224.221C318.104 242.696 306.34 259.483 291.509 273.623C276.678 287.764 259.07 298.98 239.692 306.632C220.313 314.284 199.544 318.222 178.569 318.221Z" fill="#8DA4B0"/>
</g>
<g style="mix-blend-mode:color-dodge" opacity="0.7">
<path d="M45.2367 281.256C19.1297 241.954 10.1725 207.596 8.381 181.238C8.381 181.148 8.381 181.059 8.381 180.989C7.30685 172.637 6.89361 164.22 7.14479 155.809C2.09521 183.326 1.85425 226.723 30.9051 274.584C79.9866 355.385 171.508 368.1 217.572 360.589C217.572 360.559 105.811 372.544 45.2367 281.256Z" fill="#C3E6F8"/>
</g>
</g>
<defs>
<radialGradient id="paint0_radial_47_96" cx="0" cy="0" r="1" gradientUnits="userSpaceOnUse" gradientTransform="translate(-31.1944 -74.2717) scale(588.539 561.094)">
<stop stop-color="#E3F3FC"/>
<stop offset="0.22" stop-color="#AEB8BE"/>
<stop offset="0.61" stop-color="#8DA4B0"/>
<stop offset="1" stop-color="#3A3B3D"/>
</radialGradient>
<clipPath id="clip0_47_96">
<rect width="386" height="368" fill="white"/>
</clipPath>
</defs>
</svg>
