<svg xmlns="http://www.w3.org/2000/svg" xmlns:xlink="http://www.w3.org/1999/xlink" viewBox="0 0 368.45 368.45"><defs><style>.cls-1{isolation:isolate;}.cls-2{fill:url(#radial-gradient);}.cls-3{fill:#8da4b0;mix-blend-mode:multiply;}.cls-3,.cls-5{opacity:0.5;}.cls-4{fill:#bae3f9;opacity:0.4;}.cls-4,.cls-6{mix-blend-mode:color-dodge;}.cls-5{fill:#fff;mix-blend-mode:screen;}.cls-6{fill:#c3e6f8;opacity:0.7;}</style><radialGradient id="radial-gradient" cx="-29.77" cy="-74.36" r="561.78" gradientTransform="translate(184.22 -76.31) rotate(45)" gradientUnits="userSpaceOnUse"><stop offset="0" stop-color="#e3f3fc"/><stop offset="0.22" stop-color="#aeb8be"/><stop offset="0.61" stop-color="#8da4b0"/><stop offset="1" stop-color="#3a3b3d"/></radialGradient></defs><g class="cls-1"><g id="Calque_2" data-name="Calque 2"><g id="Calque_1-2" data-name="Calque 1"><circle class="cls-2" cx="184.22" cy="184.22" r="184.22" transform="translate(-76.31 184.22) rotate(-45)"/><path class="cls-3" d="M284.18,293.86c-.74-13.48-17.73-9.74-25.76-6.05-10.22,4.69-22.18,16.05-16.12,28.05.51,3.51,1.94,6.9,5,8.72,6.29,3.7,13.62,1,19.51-2.2C276.42,317.15,284.79,305.07,284.18,293.86Z"/><path class="cls-3" d="M305.53,280.58a1.49,1.49,0,0,0-.28-.49,1.27,1.27,0,0,0-.38-1,3.36,3.36,0,0,0-1.94-.87,5.4,5.4,0,0,0-3.15.86,8.33,8.33,0,0,0-3.8,4.81,2.84,2.84,0,0,0-.05,1.73c.29.92,1,1.16,1.82,1.37,2.77.7,6.27-1.52,7.38-4A3.27,3.27,0,0,0,305.53,280.58Z"/><path class="cls-3" d="M299.16,221.62c-3.34-4.16-8.94-4.35-13.7-2.69-.61.22-1.24.49-1.89.8a15.05,15.05,0,0,0-8.86,7.06c-4.64,5.46-7.3,12.6-3.63,18.55.6,3.34,2.1,6.36,5,8.13,9,5.39,21.18-8.61,23.75-15.66C301.59,233.1,302.6,225.92,299.16,221.62Z"/><path class="cls-3" d="M318.7,244.71a.86.86,0,0,0,0-.16,1.65,1.65,0,0,0-.06-.32,1.56,1.56,0,0,0-.31-1.2,2.35,2.35,0,0,0-.62-.51c-1.08-.62-2.8.52-3.41,1.36a7.1,7.1,0,0,0-.61,1,2,2,0,0,0,0,2.29,1.49,1.49,0,0,0,1.42.44,2.41,2.41,0,0,0,1.85-.42s0,0,0,0l.15-.11.15-.12a1.75,1.75,0,0,0,.2-.16c.07-.07.15-.12.22-.2a3.09,3.09,0,0,0,1-1.79A.22.22,0,0,0,318.7,244.71Z"/><path class="cls-3" d="M208.44,302.8c-7.29-11.21-30.27-5.06-37.25,3.34a19.83,19.83,0,0,0-2.05,3,12.35,12.35,0,0,0-2.11,3.34c-3.52,8.59,10.56,16.25,17.74,15.43C193.46,326.89,216.05,314.49,208.44,302.8Z"/><path class="cls-3" d="M223.1,327.48a1.67,1.67,0,0,0-1.62-.44l-.11,0a4.56,4.56,0,0,0-1,.41,2.84,2.84,0,0,0-.92.18,3.9,3.9,0,0,0-1.94,1.71,3.76,3.76,0,0,0-.75,2.84c.35,1.24,1.62,1.39,2.71,1.22C221.77,333.06,225,329.85,223.1,327.48Z"/><path class="cls-3" d="M231.22,343.85l-.22-.33c-.44-.73-1.3-.18-1.91.45a0,0,0,0,0,0,0,2.86,2.86,0,0,0-.61.81,3.09,3.09,0,0,1-.14.32,3.52,3.52,0,0,0-.15.47c-.25,1,.63,1.1,1.57.79a2.67,2.67,0,0,0,1.36-.79C231.63,345.09,231.85,344.45,231.22,343.85Z"/><path class="cls-3" d="M75.63,279c1.67-8.42-6.63-21.26-15.73-14.06-3.65,2.89-4.16,6.5-2.91,9.86a27.87,27.87,0,0,0,2.69,7.71c1.53,2.93,4,5.28,7.58,5a9.21,9.21,0,0,0,7-5A4,4,0,0,0,75,281,10.55,10.55,0,0,0,75.63,279Z"/><path class="cls-3" d="M84,298.3v-.13c0-.26.12-.58,0-.84s-.4-.69-.6-1c-.3-.5-1.17-.34-1.59-.18A3.26,3.26,0,0,0,79.92,298c-.45,1.09-.78,2.8.61,3.38S84.63,299.88,84,298.3Z"/><path class="cls-3" d="M337,146.78c-10.35.69-19.12,24.25-11,30.86,2.87,4.27,7.66,7,12.76,4.28C348.83,176.6,352.67,145.73,337,146.78Z"/><path class="cls-3" d="M243.07,105.25a1.42,1.42,0,0,0-1-.72,1.69,1.69,0,0,0-.38,0,4.43,4.43,0,0,0,.2-.45.62.62,0,0,0-.5-.87,1.77,1.77,0,0,0-1.52,1c-.18.29-.38.59-.58.87s-.59.35-.88.56c-1.23.88-3.05,2.78-1.88,4.39h0c-.06.22-.12.43-.16.64-.23,1.21.65,1.82,1.79,1.36A9.53,9.53,0,0,0,241,110.1C242.56,109.28,244.86,106.75,243.07,105.25Z"/><path class="cls-3" d="M73,191.89c-1.87-3.68-5.8-3.54-9-1.78-5.16,2.8-10.46,12.32-5.61,16.49.62,2,1.83,3.63,3.84,3.92,4.17.58,7.62-3.37,9.65-6.44C74.09,200.62,74.88,195.65,73,191.89Z"/><path class="cls-3" d="M40.46,147.35a5.57,5.57,0,0,0-5.54-.55c.25-.55,0-1.11-.86-.66-4.69,2.44-7.7,9.12-5.61,14.19,1,2.45,3.49,3.07,5.86,2.33,3.56-1.1,5.63-3.85,6.95-7.19C42.21,153.08,42.84,149.14,40.46,147.35Z"/><path class="cls-4" d="M312.07,271.82c-10.36,9.51-22.27,15.26-33.95,22.32a5.18,5.18,0,0,0,.12-1.79,1,1,0,0,0-.18-.29c3.3-2.87,6.28-7.31,8.57-9.82,7-7.77,14.16-16.45,18.4-26.12.22-.53-.48-.42-.65-.07-3.31,7.28-8.39,13.44-13.38,19.63-2.25,2.78-4.62,5.43-7,8.06a100.17,100.17,0,0,1-7.28,7.75h-.05a88.64,88.64,0,0,0,8.09-21c.09-.39-.46-.15-.54.08a111,111,0,0,1-8.65,20.49,152.49,152.49,0,0,0,3.95-15.65c.08-.35-.43-.15-.48.09-1.22,5.16-2.94,10.15-4.49,15.21-1.39-9.78-1.59-20-1.67-29.82,0-.31-.51,0-.51.2,0,10.09.16,20.62,1.6,30.68l-.19.09-.18-.09c-.22-.09-.64.24-.58.47a6.49,6.49,0,0,0-1.21.93A100.38,100.38,0,0,1,259,266.63c-.09-.26-.57.08-.5.31a89.39,89.39,0,0,0,12.66,26.84,1.42,1.42,0,0,0-.13.12c-3.36-4.24-8.39-7.15-12-11.15-.21-.23-.73.25-.53.47,3.59,4.06,7.88,7.59,11.81,11.35l-.08.07c-10.77-2.1-21.93-3.48-32.75-4.67-.22,0-.57.44-.26.48,10.79,1.51,21.5,3.66,32.24,5.42a4.73,4.73,0,0,0-.22.9c-2.35.22-4.86.07-7,.48-3.14.61-6.24,1.31-9.45,1.67-.25,0-.54.55-.15.51,4-.31,7.9-1.49,11.87-1.57,1.51,0,3.11,0,4.66-.11a5.41,5.41,0,0,0,.1,1.15c-3.88,1.82-8,3.21-11.92,4.63-8.32,3.08-16.42,8.13-25.12,10-.15,0-.32.34-.1.3,8.72-1.45,17-6.16,25.2-9.33,3.66-1.41,7.65-2.63,11.36-4.28-2.33,1.56-4.9,2.92-7.1,4.5-3.26,2.35-7.39,6.13-11.18,7.6-.22.09-.35.52,0,.4,4.06-1.48,7.88-4.91,11.38-7.43,2.22-1.58,4.81-2.84,7.16-4.35-4,3.58-8.44,6.82-12.53,10.07-7.13,5.7-13.86,11.74-22,16.07-.29.16-.24.59.14.41,8.29-4.2,15.19-10.08,22.37-15.88,4.46-3.6,9.8-7.08,14.16-11.18h.05a4,4,0,0,0,.76-.11c-2.81,4.55-5.85,9.11-8.84,13.35-3.43,4.87-7,11.41-11.36,15.45-.34.32-.05.66.31.36,4.76-4.09,8.22-10.37,11.9-15.41,2.68-3.67,5.56-7.61,8.06-11.62-1.29,7.37-2.81,14.84-5.76,21.64-.07.16.15.12.2,0a87.21,87.21,0,0,0,7.27-24.34l.17-.11c1.06,3.61,2.76,7.28,3.84,10.57,1.15,3.49,4.51,13.1,7.19,14.19-.23-.09-.67.36-.4.5l.38.19c.21.11.65-.28.46-.49-3.19-3.75-4.69-10.49-6.66-15a77.56,77.56,0,0,1-3.72-10.65c.21-.16.38-.34.58-.52,4.63,7.12,9.92,13.77,14.06,21.21.16.31.77-.12.62-.39-4-7.61-9.16-14.49-13.8-21.7.15-.17.26-.34.39-.5,1.05.47,2.14.88,3.22,1.27,4,3.09,8.15,5.94,12.21,8.87.25.19.85-.41.6-.61-2.94-2.29-5.84-4.86-8.92-7,.87.26,1.76.51,2.64.74,3.75,1,6.49,3.58,10.52,3.89.36,0,.88-.71.41-.75-4.39-.36-7.74-3.2-11.88-4.36-1.53-.43-3-.95-4.47-1.49-.4-.32-.79-.65-1.17-1l2.53.44c4.93.77,10.07,1.23,15,1.5.32,0,.84-.66.37-.71-4.14-.38-8.4-1.07-12.56-1.65-1.16-.17-2.26-.39-3.34-.64,10.08-2.09,19.91-4.39,29.73-8.15.38-.15.6-.9,0-.69-10.45,3.93-21,6.12-31.73,8.34-.27-.07-.56-.17-.85-.26,11.69-6.77,23.28-13.18,33.3-22.59C312.72,271.85,312.41,271.49,312.07,271.82Z"/><path class="cls-4" d="M133.79,142.56c-4.91,13.18-5.73,26.39-7.86,39.87a4.83,4.83,0,0,1,1.6-.77.94.94,0,0,1,.34,0c1.42-4.13,4.39-8.57,5.86-11.64,4.53-9.43,9.89-19.32,17.26-26.89.4-.41.56.29.3.57-5.5,5.82-9.29,12.84-13.13,19.81-1.73,3.12-3.29,6.33-4.83,9.55a103.41,103.41,0,0,0-4.41,9.66s0,0,0,.05a88.42,88.42,0,0,1,16.38-15.41c.32-.23.32.37.12.53a111.68,111.68,0,0,0-15.7,15.73,157.32,157.32,0,0,1,13-9.56c.3-.2.3.35.11.49-4.34,3.06-8.31,6.55-12.41,9.89,9.59-2.4,19.14-6.08,28.26-9.71.29-.11.21.47,0,.55-9.36,3.79-19.16,7.63-29,10.11,0,.06,0,.12,0,.2a.53.53,0,0,0,.14.12.51.51,0,0,1-.22.73,6,6,0,0,1-.39,1.47,100.75,100.75,0,0,0,29.43,1.85c.27,0,.13.55-.1.58a89.8,89.8,0,0,1-29.64-1.6s0,.1-.06.16c5.2,1.51,9.8,5.08,14.87,6.92.27.11.05.77-.24.67-5.12-1.78-10-4.43-15-6.65a.37.37,0,0,0,0,.09c6,9.19,11.49,19,16.66,28.57.11.2-.19.7-.35.42-5.47-9.43-11.49-18.53-17.17-27.81a5.62,5.62,0,0,1-.75.56c.69,2.26,1.77,4.52,2.19,6.68.64,3.14,1.16,6.28,2,9.37.06.25-.32.72-.43.35-1.21-3.79-1.59-7.89-3-11.59-.53-1.4-1.19-2.87-1.65-4.36a5.38,5.38,0,0,1-1.1.34c-.21,4.27.06,8.66.2,12.78.3,8.87-1.32,18.28.26,27,0,.15-.19.42-.24.2-1.95-8.61-.71-18.06-.87-26.85-.06-3.92-.45-8.08-.32-12.14-.56,2.75-.85,5.64-1.47,8.27-1,3.91-2.91,9.16-2.84,13.22,0,.24-.35.53-.37.17-.16-4.32,1.59-9.15,2.58-13.34.64-2.65.83-5.53,1.34-8.29-1.81,5.08-3.13,10.4-4.6,15.42-2.57,8.76-5.63,17.27-6.58,26.41,0,.35-.46.46-.42,0,.74-9.24,3.58-17.87,6.25-26.7,1.66-5.5,2.87-11.74,5-17.32a.06.06,0,0,0,0,0,4.85,4.85,0,0,1-.19-.75c-3.15,4.31-6.22,8.86-9,13.22-3.23,5-7.93,10.81-10,16.35-.16.44-.59.29-.45-.15,2-6,6.49-11.53,9.78-16.85,2.39-3.85,4.94-8,7.73-11.84-6.35,4-12.69,8.22-17.87,13.5-.13.13-.18-.09-.1-.17a86.6,86.6,0,0,1,19.8-15.92.86.86,0,0,1,0-.21c-3.74.39-7.78.2-11.23.45-3.68.25-13.85.75-15.87-1.31.18.17-.07.76-.31.56l-.31-.29c-.2-.15,0-.69.28-.61,4.68,1.55,11.47.39,16.4.51a75.91,75.91,0,0,0,11.26-.56c.08-.26.19-.49.28-.74-8.34-1.6-16.5-4-24.95-5-.36,0-.18-.76.12-.74,8.55.85,16.88,3,25.3,4.6.1-.19.22-.36.32-.55-.84-.8-1.63-1.64-2.4-2.5-4.35-2.52-8.56-5.31-12.83-8-.26-.16.07-.94.35-.77,3.24,1.86,6.71,3.57,9.86,5.62-.56-.72-1.13-1.44-1.68-2.17-2.37-3.09-5.77-4.67-7.58-8.28-.15-.32.33-1.09.55-.66,2,3.92,5.88,5.95,8.51,9.35,1,1.26,2,2.43,3.08,3.58.45.25.9.49,1.37.71-.5-.75-1-1.49-1.36-2.18a149.31,149.31,0,0,1-7.06-13.35c-.15-.3.28-1,.5-.62,1.91,3.69,4.16,7.39,6.28,11,.58,1,1.2,1.94,1.84,2.85-1.84-10.13-3.44-20.1-3.66-30.62,0-.4.59-.88.62-.27.32,11.15,2.24,21.72,4.24,32.52q.3.34.57.69c1.87-13.37,3.43-26.53,8.36-39.36C133.5,142,134,142.13,133.79,142.56Z"/><path class="cls-5" d="M126.51,183.46a2.55,2.55,0,0,0-2.17.78,4.35,4.35,0,0,0-.63.52,5.71,5.71,0,0,0-1.33,3.71c0,1.19.53,2.52,1.93,2.31,1.84-.26,3.1-2.17,3.61-3.8C128.37,185.51,128.29,183.77,126.51,183.46Z"/><path class="cls-5" d="M278.5,292.29a4.73,4.73,0,0,0-1,.14,5.19,5.19,0,0,0-2.55.91c-1.56,1.06-3.16,2.52-2.88,4.52.22,1.7,2.68,1.39,3.74.94a5.81,5.81,0,0,0,3.47-5.61C279.27,292.75,279,292.27,278.5,292.29Z"/><path class="cls-5" d="M348.42,217.76a3.42,3.42,0,0,0-1.86-3,3.73,3.73,0,0,0-3.46,1,7.91,7.91,0,0,0-2.73,6,4.39,4.39,0,0,0,.52,2,2.73,2.73,0,0,0,.18.57c1,2.18,3.6.72,4.77-.45C347.56,222.16,348.68,220.21,348.42,217.76Z"/><path class="cls-5" d="M349.28,229.75a.43.43,0,0,0-.19-.24v0a.62.62,0,0,0,0-.25s0,0,0-.05a.34.34,0,0,1-.07-.17c-.17-.69-1.18-.23-1.49.06a4.18,4.18,0,0,0-1.47,2c-.25,1.13,1.07,1,1.64.44a3.76,3.76,0,0,0,.28-.29,1.41,1.41,0,0,0,.87-.37l.05,0C349.09,230.58,349.42,230.16,349.28,229.75Z"/><path class="cls-5" d="M114.71,323a2.07,2.07,0,0,0-2.14.32c-1.42-.27-2.69,1.06-3,2.34-.7,2.71,2.54,5.6,5.13,4.85a3.34,3.34,0,0,0,2.31-3.48C116.84,325.64,116.08,323.68,114.71,323Z"/><path class="cls-5" d="M124.42,333.12a1.26,1.26,0,0,0-1.16-.7c-.72-.08-2,1.16-1.17,1.74a2.32,2.32,0,0,0,.57.24,1.08,1.08,0,0,0,1.26-.17l0,0C124.21,333.94,124.56,333.52,124.42,333.12Z"/><path class="cls-5" d="M272,154.39c-1-1.78-2.62-1.5-4.08-.54a3.33,3.33,0,0,0-1.06.76c-.06.08-.09.15-.16.23a9.24,9.24,0,0,0-2,2.59c-.78,1.76-1.59,5.35.28,6.7a1.4,1.4,0,0,0,.12.18c1,1,2.68.29,3.65-.36C271.79,161.94,273.9,157.7,272,154.39Z"/><path class="cls-5" d="M272.08,170c-.34-.7-1.12-.23-1.56.28h0c-.38.22-1,1-.62,1.47C270.78,172.8,272.62,171.16,272.08,170Z"/><path class="cls-5" d="M35.28,180.77a.16.16,0,0,1-.1-.05,2.52,2.52,0,0,1-.15-.24l-.15-.27a2.36,2.36,0,0,0-2.44-2.43,3.6,3.6,0,0,0-2,.61c-1.52.46-2.46,2.72-2.56,4.34a5.28,5.28,0,0,0,1,3.72,2.56,2.56,0,0,0,3.18.33.43.43,0,0,1,0,.05c.06.55.88,0,.87-.34,0-.11,0-.21,0-.32a7.34,7.34,0,0,0,1.51-2.74,1.68,1.68,0,0,0,1.22-1.14,3.54,3.54,0,0,0,0-.48A.87.87,0,0,0,35.28,180.77Z"/><path class="cls-5" d="M34,192c-.55-.41-1.48.6-1.3,1.19a.65.65,0,0,0,0,.39l.1.25c0,.19.08.41.28.48a1,1,0,0,0,.57.07c.52-.13,1.25-.64,1.22-1.26S34.34,192.32,34,192Z"/><path class="cls-5" d="M294,66.12c-.66-1.07-2.52.29-3,.85s-.86,1.82-.06,2.26a3.7,3.7,0,0,0,.34.84c.43.74,1.75-.28,2-1l.25-.18a3.15,3.15,0,0,0,.83-1.29A1.6,1.6,0,0,0,294,66.12Z"/><path class="cls-3" d="M184.22,0A184.22,184.22,0,0,0,0,184.22C0,286,82.47,368.45,184.22,368.45S368.45,286,368.45,184.22,286,0,184.22,0ZM170.45,318.61A152.46,152.46,0,1,1,322.9,166.15,152.44,152.44,0,0,1,170.45,318.61Z"/><path class="cls-6" d="M43.18,281.6C18.26,242.25,9.71,207.85,8,181.46c0-.09,0-.18,0-.25A167.88,167.88,0,0,1,6.82,156C2,183.55,1.77,227,29.5,274.92c46.85,80.9,134.21,93.63,178.18,86.11C207.68,361,101,373,43.18,281.6Z"/></g></g></g></svg>