<svg  viewBox="0 0 386 368" fill="none" xmlns="http://www.w3.org/2000/svg">
<g clip-path="url(#clip0_47_129)">
<path d="M386 183.995C386 285.666 299.623 368 192.995 368C86.3668 368 0 285.666 0 183.995C0 82.3238 86.4192 0 192.995 0C299.57 0 386 82.3738 386 183.995Z" fill="url(#paint0_radial_47_129)"/>
<g style="mix-blend-mode:color-dodge" opacity="0.3">
<path d="M40.1558 253.114C52.0883 250.647 63.4342 248.12 74.8953 243.955C91.9066 237.797 107.659 228.853 121.442 217.526C131.289 209.535 141.608 202.833 152.2 195.791C164.112 187.9 175.646 179.81 186.919 171.06C204.561 157.436 222.255 143.253 242.6 133.334C252.743 128.32 263.457 124.435 274.532 121.758C287.009 118.761 299.843 117.203 312.456 114.766C330.339 111.33 348.076 106.925 364.597 99.7235C356.174 84.1583 345.472 69.8146 332.812 57.1233C329.271 59.1209 325.719 61.0687 322.105 62.9265C298.722 74.9724 274.825 86.0994 252.961 100.553C231.893 114.446 215.55 132.975 196.798 149.385C178.286 165.577 156.349 178.302 133.688 188.52C122.403 193.72 110.668 197.981 98.6137 201.255C85.6335 204.661 72.4229 206.519 59.076 208.247C45.7292 209.975 31.9947 211.852 19.3498 216.337C14.2382 218.226 9.24338 220.39 4.38965 222.82C7.17766 235.248 11.3245 247.363 16.7622 258.967C24.4418 256.61 32.2515 254.656 40.1558 253.114Z" fill="#0C8FCF"/>
</g>
<g style="mix-blend-mode:screen" opacity="0.2">
<g style="mix-blend-mode:color-dodge">
<path d="M160.005 278.195C179.617 261.694 202.612 249.708 226.645 239.97C234.114 236.973 241.668 234.386 249.242 231.609C252.197 230.521 268.1 225.347 264.517 220.133C259.656 213.061 249.263 216.537 242.705 218.864C234.324 221.861 226.404 225.716 218.421 229.482C208.846 233.997 198.6 237.373 188.542 240.779C175.814 245.104 162.907 248.969 149.78 252.115C121.567 258.927 92.4012 260.945 63.9999 266.858C51.4135 269.389 39.2566 273.574 27.8776 279.294C38.8917 296.588 52.8075 312.042 69.0705 325.04C79.5468 322.503 90.086 320.126 100.395 317.05C124.26 309.888 141.755 293.657 160.005 278.195Z" fill="#0C8FCF"/>
</g>
<g style="mix-blend-mode:multiply" opacity="0.7">
<path d="M102.846 303.106C112.463 296.234 121.169 288.123 131.834 282.68C137.156 279.973 142.646 277.596 147.842 274.689C150.567 273.228 153.164 271.558 155.605 269.695C157.627 268.067 161.513 265.49 162.016 262.883C162.907 258.328 146.134 262.883 144.469 263.342C137.617 265.2 130.849 267.338 124.029 269.285C111.06 273.001 98.0898 273.281 84.7011 274.539C67.8237 276.087 47.6568 277.536 32.2252 285.826C40.1204 297.1 49.2897 307.514 59.5684 316.88C64.9637 315.881 70.4324 315.222 75.8696 314.393C85.7093 312.837 94.9837 308.957 102.846 303.106Z" fill="#2180A7"/>
</g>
<g style="mix-blend-mode:color-dodge">
<path d="M299.843 173.517C289.366 176.823 277.842 179.75 268.864 186.302C266.642 187.966 264.603 189.84 262.778 191.896C261.73 193.094 260.347 194.603 262.778 194.972C267.85 195.802 273.046 195.642 278.052 194.503C289 191.776 298.575 185.783 309.051 181.877C318.721 178.292 329.386 177.033 339.569 175.495C350.433 173.867 361.328 172.419 372.046 170.301C376.456 169.432 380.846 168.453 385.162 167.305C384.016 154.945 381.548 142.729 377.797 130.847C362.585 142.184 344.168 150.135 328.558 160.532C319.601 166.465 310.193 170.251 299.843 173.517Z" fill="#0C8FCF"/>
</g>
<g style="mix-blend-mode:color-dodge">
<path d="M102.919 339.244C116.821 338.065 130.891 339.503 144.741 337.735C172.493 334.2 199.501 323.053 224.109 310.767C247.15 299.299 269.242 286.176 290.194 271.513C310.371 257.309 326.306 238.551 348.421 226.835C359.729 220.949 371.535 215.981 383.716 211.982C385.088 203.483 385.83 194.901 385.937 186.302C377.326 191.217 368.892 196.42 360.417 201.594C345.658 210.569 330.353 218.701 314.583 225.946C293.232 235.909 274.056 249.642 258.074 266.419C250.164 274.629 242.233 282.49 232.658 288.962C223.384 295.178 213.442 300.435 203 304.644C179.648 314.113 154.871 320.146 130.713 327.497C118.215 331.293 106.177 335.488 92.9145 335.128C89.3106 335.029 85.6544 334.769 81.9772 334.529C85.2877 336.747 88.6925 338.854 92.1392 340.882C95.6965 340.138 99.2959 339.591 102.919 339.244Z" fill="#0C8FCF"/>
</g>
<g style="mix-blend-mode:color-dodge">
<path d="M356.195 260.186C338.165 275.928 323.718 294.466 307.25 311.566C300.157 318.927 292.415 325.829 283.458 331.083C273.299 336.877 262.378 341.358 250.981 344.408C215.121 354.396 176.599 353.687 140.152 360.968C187.408 373.768 238.004 368.92 281.642 347.41C325.281 325.9 358.684 289.345 375.052 245.184C368.515 249.918 362.187 254.912 356.195 260.186Z" fill="#0C8FCF"/>
</g>
<g style="mix-blend-mode:color-dodge">
<path d="M277.549 110.331C285.825 113.657 297.203 109.722 305.133 107.385C315.411 104.388 325.499 100.393 335.997 98.2053C344.734 96.3374 353.806 96.7869 362.701 96.3774C355.784 84.2456 347.463 72.8913 337.893 62.5269C316.238 76.9101 291.629 88.8362 277.549 110.331Z" fill="#0C8FCF"/>
</g>
<g style="mix-blend-mode:color-dodge">
<path d="M282.274 24.9708C274.82 27.7331 267.674 31.1997 260.944 35.3187C252.446 40.6752 244.365 46.6104 236.765 53.078C229.568 59.071 222.706 65.6433 214.953 70.9571C199.616 81.4448 181.743 86.3491 163.431 89.3456C142.279 92.8215 118.822 93.5906 99.8184 103.879C84.4811 112.209 72.58 124.854 61.6323 137.839C43.7597 159.184 26.4528 183.516 0.387695 195.252C0.541348 197.729 0.750874 200.189 1.01627 202.633C23.3413 188.709 44.0844 172.898 62.3551 153.99C78.1744 137.609 94.5698 121.918 116.182 112.548C126.158 108.151 136.801 105.289 147.716 104.068C159.942 102.76 172.241 102.28 184.446 100.972C196.955 99.6136 209.526 97.2963 221.05 92.1723C233.381 86.6587 244.79 79.0277 256.607 72.5852C275.831 62.0775 295.317 51.9393 314.29 40.9522C307.709 35.8565 300.779 31.1849 293.547 26.9685L282.274 24.9708Z" fill="#0C8FCF"/>
</g>
<g style="mix-blend-mode:color-dodge">
<path d="M99.8918 226.735C81.2858 222.48 61.1294 222.41 42.3558 225.477C30.8319 227.384 18.386 230.521 7.97253 236.414C10.1136 243.241 12.6671 249.944 15.6202 256.49C25.0489 253.304 35.2529 251.496 44.4197 249.498C63.7485 245.273 85.644 240.978 99.8918 226.735Z" fill="#0C8FCF"/>
</g>
<g style="mix-blend-mode:color-dodge">
<path d="M3.14293 178.022C9.72693 163.417 17.7678 149.449 27.1547 136.311C36.2586 123.436 45.9596 109.872 58.395 99.6935C68.018 91.9329 78.9301 85.7554 90.683 81.4149C111.636 73.4242 134.149 70.1181 154.442 60.6691C175.992 50.6808 195.593 37.1965 217.646 28.1072C227.441 24.1118 238.043 20.6958 248.781 20.3063C259.98 19.8868 271.106 21.375 282.117 23.1529H282.295C283.175 22.8233 284.065 22.5137 284.945 22.214C275.514 17.324 265.671 13.1944 255.517 9.86847C223.827 16.1811 191.979 22.3439 161.231 32.2723C144.992 37.5361 129.404 44.2583 113.04 49.2525C96.8431 54.1767 80.5629 58.7913 64.5342 64.185C55.7864 67.1216 46.9863 70.178 38.4376 73.7938C13.4205 105.577 -0.0711359 144.258 3.60069e-05 183.995C3.60069e-05 184.435 3.60069e-05 184.864 3.60069e-05 185.293C1.04767 182.866 2.0953 180.439 3.14293 178.022Z" fill="#0C8FCF"/>
</g>
</g>
<g style="mix-blend-mode:multiply" opacity="0.7">
<path d="M192.995 0C86.4192 0 0 82.3738 0 183.995C0 285.616 86.4192 368 192.995 368C299.57 368 386 285.666 386 183.995C386 82.3238 299.623 0 192.995 0ZM178.59 318.228C147.002 318.228 116.123 309.298 89.8589 292.566C63.5944 275.834 43.1238 252.052 31.0356 224.228C18.9475 196.404 15.7846 165.787 21.9471 136.249C28.1096 106.711 43.3207 79.5791 65.6567 58.2835C87.9928 36.9878 116.451 22.4853 147.432 16.6099C178.413 10.7344 210.525 13.7499 239.709 25.275C268.892 36.8001 293.836 56.3172 311.385 81.3583C328.934 106.399 338.301 135.84 338.301 165.956C338.303 185.953 334.173 205.755 326.147 224.23C318.121 242.705 306.357 259.492 291.526 273.632C276.695 287.772 259.088 298.988 239.71 306.64C220.333 314.292 199.564 318.229 178.59 318.228Z" fill="#0C8FCF"/>
</g>
<g style="mix-blend-mode:color-dodge" opacity="0.7">
<path d="M45.2473 281.271C19.1403 241.947 10.183 207.607 8.38111 181.228C8.38562 181.145 8.38562 181.062 8.38111 180.979C7.30706 172.633 6.89382 164.222 7.1449 155.818C2.11627 183.326 1.90674 226.735 30.9157 274.599C80.0077 355.395 171.518 368.1 217.583 360.599C217.583 360.579 105.811 372.565 45.2473 281.271Z" fill="#C3E6F8"/>
</g>
</g>
<defs>
<radialGradient id="paint0_radial_47_129" cx="0" cy="0" r="1" gradientUnits="userSpaceOnUse" gradientTransform="translate(62.8579 17.6893) scale(426.952 407.064)">
<stop stop-color="#E3F3FC"/>
<stop offset="0.22" stop-color="#41A3DB"/>
<stop offset="0.6" stop-color="#065E85"/>
<stop offset="1" stop-color="#2F245B"/>
</radialGradient>
<clipPath id="clip0_47_129">
<rect width="386" height="368" fill="white"/>
</clipPath>
</defs>
</svg>
