<svg xmlns="http://www.w3.org/2000/svg" xmlns:xlink="http://www.w3.org/1999/xlink" viewBox="0 0 368.45 368.43"><defs><style>.cls-1{isolation:isolate;}.cls-2{fill:url(#radial-gradient);}.cls-3,.cls-5,.cls-7{fill:#0c8fcf;}.cls-3{opacity:0.3;}.cls-3,.cls-5,.cls-8{mix-blend-mode:color-dodge;}.cls-4{opacity:0.2;mix-blend-mode:screen;}.cls-6{fill:#2180a7;}.cls-6,.cls-7,.cls-8{opacity:0.7;}.cls-6,.cls-7{mix-blend-mode:multiply;}.cls-8{fill:#c3e6f8;}</style><radialGradient id="radial-gradient" cx="60" cy="17.71" r="407.54" gradientUnits="userSpaceOnUse"><stop offset="0" stop-color="#e3f3fc"/><stop offset="0.22" stop-color="#41a3db"/><stop offset="0.6" stop-color="#065e85"/><stop offset="1" stop-color="#2f245b"/></radialGradient></defs><g class="cls-1"><g id="Calque_2" data-name="Calque 2"><g id="Calque_1-2" data-name="Calque 1"><path class="cls-2" d="M368.45,184.21C368.45,286,286,368.43,184.22,368.43S0,286,0,184.21,82.49,0,184.22,0,368.45,82.47,368.45,184.21Z"/><path class="cls-3" d="M38.33,253.41c11.39-2.47,22.22-5,33.16-9.17a149.13,149.13,0,0,0,44.43-26.46c9.4-8,19.25-14.71,29.36-21.76,11.37-7.9,22.38-16,33.14-24.76,16.84-13.64,33.73-27.84,53.15-37.77a142.05,142.05,0,0,1,30.48-11.59c11.91-3,24.16-4.56,36.2-7,17.07-3.44,34-7.85,49.77-15.06a184.91,184.91,0,0,0-30.34-42.65c-3.38,2-6.77,3.95-10.22,5.81-22.32,12.06-45.13,23.2-66,37.67-20.11,13.91-35.71,32.46-53.61,48.89-17.67,16.21-38.61,28.95-60.24,39.18a207.72,207.72,0,0,1-33.48,12.75c-12.39,3.41-25,5.27-37.74,7s-25.85,3.61-37.92,8.1a137.94,137.94,0,0,0-14.28,6.49A182.07,182.07,0,0,0,16,259.27,210.39,210.39,0,0,1,38.33,253.41Z"/><g class="cls-4"><path class="cls-5" d="M152.73,278.52C171.45,262,193.4,250,216.34,240.25c7.13-3,14.34-5.59,21.57-8.37,2.82-1.09,18-6.27,14.58-11.49-4.64-7.08-14.56-3.6-20.82-1.27-8,3-15.56,6.86-23.18,10.63-9.14,4.52-18.92,7.9-28.52,11.31-12.15,4.33-24.47,8.2-37,11.35-26.93,6.82-54.77,8.84-81.88,14.76a132.64,132.64,0,0,0-34.48,12.45h0a185.17,185.17,0,0,0,39.32,45.8c10-2.54,20.06-4.92,29.9-8C118.61,310.25,135.31,294,152.73,278.52Z"/><path class="cls-6" d="M98.17,303.46c9.18-6.88,17.49-15,27.67-20.45,5.08-2.71,10.32-5.09,15.28-8a55,55,0,0,0,7.41-5c1.93-1.63,5.64-4.21,6.12-6.82.85-4.56-15.16,0-16.75.46-6.54,1.86-13,4-19.51,5.95-12.38,3.72-24.76,4-37.54,5.26-16.11,1.55-35.36,3-50.09,11.3a185.46,185.46,0,0,0,26.1,31.09c5.15-1,10.37-1.66,15.56-2.49A57,57,0,0,0,98.17,303.46Z"/><path class="cls-5" d="M286.21,173.72c-10,3.31-21,6.24-29.57,12.8a39.93,39.93,0,0,0-5.81,5.6c-1,1.2-2.32,2.71,0,3.08a36.33,36.33,0,0,0,14.58-.47C275.86,192,285,186,295,182.09c9.23-3.59,19.41-4.85,29.13-6.39,10.37-1.63,20.77-3.08,31-5.2,4.21-.87,8.4-1.85,12.52-3A182.31,182.31,0,0,0,360.62,131c-14.52,11.35-32.1,19.31-47,29.72C305.07,166.66,296.09,170.45,286.21,173.72Z"/><path class="cls-5" d="M98.24,339.64c13.27-1.18,26.7.26,39.92-1.51,26.49-3.54,52.27-14.7,75.76-27A489.23,489.23,0,0,0,277,271.83c19.26-14.22,34.47-33,55.58-44.73a219.26,219.26,0,0,1,33.69-14.87,183.46,183.46,0,0,0,2.12-25.71c-8.22,4.92-16.27,10.13-24.36,15.31a422.16,422.16,0,0,1-43.75,24.38,179.42,179.42,0,0,0-53.94,40.52c-7.55,8.22-15.12,16.09-24.26,22.57A152.44,152.44,0,0,1,193.77,305c-22.29,9.48-45.94,15.52-69,22.88-11.93,3.8-23.42,8-36.08,7.64-3.44-.1-6.93-.36-10.44-.6,3.16,2.22,6.41,4.33,9.7,6.36A90.25,90.25,0,0,1,98.24,339.64Z"/><path class="cls-5" d="M340,260.49c-17.21,15.76-31,34.32-46.72,51.44-6.77,7.37-14.16,14.28-22.71,19.54a127.52,127.52,0,0,1-31,13.34c-34.23,10-71,9.29-105.79,16.58A184.37,184.37,0,0,0,358,245.47C351.76,250.21,345.72,255.21,340,260.49Z"/><path class="cls-5" d="M264.93,110.46c7.9,3.33,18.76-.61,26.33-2.95,9.81-3,19.44-7,29.46-9.19,8.34-1.87,17-1.42,25.49-1.83A185,185,0,0,0,322.53,62.6C301.86,77,278.37,88.94,264.93,110.46Z"/><path class="cls-5" d="M269.44,25a114.42,114.42,0,0,0-20.36,10.36A201.74,201.74,0,0,0,226,53.14c-6.87,6-13.42,12.58-20.82,17.9C190.54,81.54,173.48,86.45,156,89.45,135.81,92.93,113.42,93.7,95.28,104c-14.64,8.34-26,21-36.45,34C41.77,159.37,25.25,183.73.37,195.48q.22,3.72.6,7.39c21.31-13.94,41.11-29.77,58.55-48.7,15.1-16.4,30.75-32.11,51.38-41.49A99.29,99.29,0,0,1,141,104.19c11.67-1.31,23.41-1.79,35.06-3.1C188,99.73,200,97.41,211,92.28c11.77-5.52,22.66-13.16,33.94-19.61C263.29,62.15,281.89,52,300,41a182,182,0,0,0-19.8-14Z"/><path class="cls-5" d="M95.35,227c-17.76-4.26-37-4.33-54.92-1.26-11,1.91-22.88,5.05-32.82,10.95a185,185,0,0,0,7.3,20.1c9-3.19,18.74-5,27.49-7C60.85,245.56,81.75,241.26,95.35,227Z"/><path class="cls-5" d="M3,178.23a248.42,248.42,0,0,1,22.92-41.76C34.61,123.58,43.87,110,55.74,99.81a108.29,108.29,0,0,1,30.82-18.3c20-8,41.49-11.31,60.86-20.77,20.57-10,39.28-23.5,60.33-32.6,9.35-4,19.47-7.42,29.72-7.81,10.69-.42,21.31,1.07,31.82,2.85l.17,0c.84-.33,1.69-.64,2.53-.94A183.83,183.83,0,0,0,243.9,9.88c-30.25,6.32-60.65,12.49-90,22.43-15.5,5.27-30.38,12-46,17-15.46,4.93-31,9.55-46.3,14.95-8.35,2.94-16.75,6-24.91,9.62A183.29,183.29,0,0,0,0,184.21c0,.44,0,.87,0,1.3C1,183.08,2,180.65,3,178.23Z"/></g><path class="cls-7" d="M184.22,0C82.49,0,0,82.47,0,184.21S82.49,368.43,184.22,368.43,368.45,286,368.45,184.21,286,0,184.22,0ZM170.47,318.6A152.45,152.45,0,1,1,322.92,166.15,152.44,152.44,0,0,1,170.47,318.6Z"/><path class="cls-8" d="M43.19,281.6C18.27,242.23,9.72,207.85,8,181.44a2.42,2.42,0,0,0,0-.25A167.64,167.64,0,0,1,6.82,156c-4.8,27.54-5,71,22.69,118.92,46.86,80.89,134.21,93.61,178.18,86.1C207.69,361,101,373,43.19,281.6Z"/></g></g></g></svg>