<svg  viewBox="0 0 386 368" fill="none" xmlns="http://www.w3.org/2000/svg">
<g clip-path="url(#clip0_47_147)">
<path d="M386 183.995C386.002 220.389 374.684 255.965 353.477 286.226C332.27 316.487 302.127 340.073 266.86 354.002C231.592 367.93 192.784 371.574 155.344 364.475C117.904 357.375 83.5125 339.85 56.5196 314.116C29.5267 288.382 11.1446 255.595 3.69774 219.9C-3.74907 184.206 0.0739556 147.208 14.6834 113.585C29.2928 79.9618 54.0324 51.2242 85.7735 31.0063C117.515 10.7883 154.832 -0.00197523 193.005 2.71209e-07C244.191 2.71209e-07 293.28 19.3851 329.473 53.8909C365.667 88.3967 386 135.197 386 183.995Z" fill="url(#paint0_radial_47_147)"/>
<path style="mix-blend-mode:multiply" opacity="0.4" d="M193.005 2.71209e-07C154.832 -0.00197523 117.515 10.7883 85.7735 31.0063C54.0324 51.2242 29.2928 79.9618 14.6834 113.585C0.0739556 147.208 -3.74907 184.206 3.69774 219.9C11.1446 255.595 29.5267 288.382 56.5196 314.116C83.5125 339.85 117.904 357.375 155.344 364.475C192.784 371.574 231.592 367.93 266.86 354.002C302.127 340.073 332.27 316.487 353.477 286.226C374.684 255.965 386.002 220.389 386 183.995C386 135.197 365.667 88.3967 329.473 53.8909C293.28 19.3851 244.191 2.71209e-07 193.005 2.71209e-07ZM178.579 318.228C146.99 318.226 116.11 309.294 89.8458 292.561C63.5814 275.828 43.1113 252.045 31.024 224.221C18.9368 196.397 15.7753 165.78 21.9393 136.243C28.1033 106.706 43.316 79.5746 65.6537 58.2799C87.9914 36.9853 116.451 22.4838 147.433 16.6091C178.416 10.7345 210.529 13.7506 239.714 25.276C268.898 36.8014 293.843 56.3185 311.392 81.3593C328.942 106.4 338.309 135.84 338.309 165.956C338.311 185.954 334.18 205.756 326.153 224.232C318.126 242.708 306.361 259.495 291.528 273.635C276.695 287.775 259.086 298.991 239.706 306.643C220.326 314.294 199.555 318.231 178.579 318.228Z" fill="url(#paint1_radial_47_147)"/>
<g style="mix-blend-mode:color-dodge" opacity="0.7">
<path d="M45.2392 281.271C19.1308 241.947 10.1731 207.607 8.38154 181.228C8.38154 181.148 8.38154 181.068 8.38154 180.979C7.3109 172.633 6.89068 164.223 7.12431 155.818C2.10588 183.326 1.88586 226.735 30.9173 274.599C79.9911 355.395 171.517 368.1 217.595 360.599C217.595 360.579 105.817 372.565 45.2392 281.271Z" fill="#C3E6F8"/>
</g>
<path style="mix-blend-mode:screen" opacity="0.4" d="M19.4661 116.484C25.4065 113.487 32.0384 112.489 38.4921 111.02C47.628 108.923 54.3122 102.96 60.8917 96.8268C66.4969 91.583 70.8343 85.0506 76.9633 80.3561C83.3332 75.4918 92.4481 74.3631 100.379 74.6128C108.499 74.8925 113.999 81.1851 121.773 82.3637C127.912 83.3626 133.685 79.8966 138.41 76.4606C140.862 74.6827 145.472 71.2268 143.45 67.7608C140.474 62.6867 133.161 60.4693 128.457 57.1532C122.58 53.038 119.154 45.9463 118.483 39.0444C117.739 31.4632 122.328 26.3492 126.77 20.566C129.756 16.6905 132.889 12.5753 135.718 8.24036C107.343 16.677 81.3881 31.2334 59.8681 50.7797C38.3482 70.3261 21.8417 94.3368 11.6294 120.949C14.1962 119.361 16.7631 117.862 19.4661 116.484Z" fill="url(#paint2_radial_47_147)"/>
<path style="mix-blend-mode:screen" opacity="0.4" d="M174.011 14.3033C192.178 18.5683 209.423 11.117 225.442 2.62693C214.712 0.882451 203.848 0.00369391 192.963 0C187.725 0 182.56 0.209755 177.447 0.5993C176.483 5.24387 175.184 9.84849 174.011 14.3033Z" fill="url(#paint3_radial_47_147)"/>
<path style="mix-blend-mode:screen" opacity="0.2" d="M291.823 330.803C289.288 325.42 287.004 318.168 288.617 312.255C292.525 298.122 306.962 286.076 318.717 277.676C324.029 273.88 329.498 270.494 335.805 268.446C340.056 267.02 344.558 266.396 349.059 266.608C352.684 266.828 356.34 267.447 359.986 267.268C361.894 267.167 363.784 266.865 365.622 266.369C379.07 240.805 386.048 212.593 386 183.995C386.003 174.332 385.214 164.684 383.643 155.139C379.043 161.431 375.963 168.873 373.553 176.324C369.048 190.308 366.324 205.11 359.19 218.155C352.055 231.2 336.884 246.742 319.912 240.529C311.457 237.433 304.72 230.241 298.864 223.918C294.725 219.444 290.734 214.849 286.637 210.334C283.368 206.748 279.785 203.342 276.831 199.557C272.074 193.394 268.68 185.913 262.886 180.579C255.353 173.587 244.981 173.587 235.217 175.795C224.803 178.202 216.861 185.433 209.569 192.525C202.906 198.997 196.389 205.51 188.615 210.784C182.329 215.109 171.454 216.327 167.662 223.479C165.346 227.834 164.152 232.468 167.473 236.653C169.516 239.191 172.072 241.648 173.078 244.794C176.169 254.553 170.553 266.489 167.651 275.698C165.765 281.621 163.754 287.904 164.058 294.156C164.299 298.721 165.105 298.252 169.296 298.601C171.49 298.747 173.672 299.014 175.834 299.4C182.57 300.669 191.088 303.216 194.608 309.458C198.045 315.521 195.761 322.283 191.654 327.517C181.439 340.502 166.006 349.402 148.698 347.025C133.13 344.877 119.52 336.816 104.874 331.892C97.7808 329.505 90.206 327.607 82.5893 328.326C80.0934 328.573 77.6338 329.082 75.2555 329.845C106.823 352.999 145.129 366.281 184.923 367.87C224.718 369.46 264.055 359.28 297.544 338.724C295.229 336.374 293.3 333.704 291.823 330.803Z" fill="url(#paint4_radial_47_147)"/>
<g style="mix-blend-mode:multiply" opacity="0.4">
<path d="M294.966 144.721C293.007 141.485 288.272 139.727 285.631 143.333C285.284 143.812 285.038 144.351 284.909 144.921C284.669 145.197 284.488 145.515 284.379 145.858C284.269 146.201 284.232 146.562 284.269 146.918C284.472 151.314 286.358 155.486 289.571 158.645C292.588 161.381 296.517 159.154 297.512 155.818C298.591 152.242 296.81 147.737 294.966 144.721ZM290.21 147.887C289.922 147.313 289.67 146.722 289.456 146.119C289.576 146.146 289.702 146.146 289.822 146.119C290.208 146.481 290.559 146.876 290.87 147.298C290.627 147.47 290.406 147.668 290.21 147.887Z" fill="#7F612D"/>
</g>
<g style="mix-blend-mode:multiply" opacity="0.4">
<path d="M305.108 137.33C305.08 137.204 305.005 137.093 304.897 137.018C304.788 136.942 304.655 136.907 304.521 136.92C304.491 136.856 304.466 136.789 304.448 136.72C304.312 136.061 303.295 136.351 302.929 136.56C302.674 136.696 302.457 136.887 302.295 137.118C302.133 137.349 302.031 137.613 301.996 137.889C301.996 137.959 301.996 138.009 301.996 138.069C301.996 138.129 301.996 138.069 301.996 138.159C301.996 138.249 302.059 138.428 302.112 138.578C302.226 138.943 302.415 139.282 302.667 139.577C303.484 140.576 305.129 138.888 305.181 138.079C305.187 137.827 305.162 137.576 305.108 137.33Z" fill="#7F612D"/>
</g>
<g style="mix-blend-mode:multiply" opacity="0.4">
<path d="M321.326 164.418C320.792 162.89 319.231 160.293 317.408 159.893C314.265 159.214 313.217 163.469 313.416 165.537C313.411 165.563 313.411 165.59 313.416 165.616C313.375 167.38 313.732 169.131 314.464 170.75C315.103 172.259 317.125 175.195 319.199 174.836C323.82 174.037 322.332 167.255 321.326 164.418Z" fill="#7F612D"/>
</g>
<g style="mix-blend-mode:multiply" opacity="0.4">
<path d="M336.308 143.253C336.251 143.045 336.143 142.854 335.994 142.693C336.01 142.507 336.01 142.32 335.994 142.134C336.057 141.025 334.485 141.475 333.993 141.934C333.834 141.86 333.662 141.818 333.486 141.808C333.31 141.799 333.133 141.824 332.967 141.88C332.801 141.937 332.649 142.025 332.519 142.139C332.389 142.253 332.285 142.39 332.212 142.543C332.049 142.775 331.989 143.059 332.044 143.333C332.149 143.642 332.411 143.842 332.505 144.162C332.505 144.162 332.505 144.261 332.505 144.321C332.381 144.737 332.29 145.161 332.233 145.59C332.023 147.128 334.328 146.379 334.915 145.85C335.501 145.32 336.675 144.271 336.308 143.253Z" fill="#7F612D"/>
</g>
<g style="mix-blend-mode:multiply" opacity="0.4">
<path d="M368.787 136.61C368.484 134.541 367.58 132.593 366.178 130.987C365.067 129.089 363.527 127.201 361.317 126.592C360.742 126.453 360.141 126.453 359.567 126.592C355.879 125.973 353.354 131.127 354.108 135.122C354.737 138.468 356.853 143.932 360.468 146.109C360.878 146.489 361.377 146.769 361.924 146.927C362.47 147.085 363.049 147.117 363.611 147.018C363.841 147.033 364.072 147.033 364.302 147.018C366.806 146.788 368.713 143.812 369.227 141.724C369.552 140.012 369.401 138.249 368.787 136.61Z" fill="#7F612D"/>
</g>
<g style="mix-blend-mode:multiply" opacity="0.4">
<path d="M343.883 92.9714C343.529 92.6807 343.094 92.494 342.631 92.4338C342.168 92.3735 341.697 92.4423 341.274 92.6318C341.162 92.3537 340.998 92.0967 340.792 91.8727C340.373 91.3233 339.43 92.2922 339.525 92.7616C339.525 92.8315 339.42 93.4408 339.409 93.6805C339.399 93.9203 339.409 93.9003 339.409 94.0102C339.186 94.2799 339.006 94.5795 338.875 94.8991C338.707 95.3985 338.875 95.7082 339.242 95.828C339.199 96.4973 339.407 97.1593 339.828 97.6959C341.159 99.284 343.495 98.0355 344.344 96.697C344.707 96.114 344.859 95.4332 344.775 94.7598C344.692 94.0864 344.378 93.4579 343.883 92.9714Z" fill="#7F612D"/>
</g>
<g style="mix-blend-mode:multiply" opacity="0.4">
<path d="M225.169 161.092C223.325 159.813 220.612 161.811 219.763 163.309C219.493 163.805 219.335 164.349 219.299 164.906C219.263 165.464 219.349 166.022 219.554 166.545C219.617 167.457 219.955 168.331 220.528 169.062C221.377 170.061 222.707 169.872 223.765 169.322C224.518 168.893 225.154 168.3 225.62 167.592C226.086 166.883 226.37 166.08 226.448 165.247C226.668 163.809 226.448 161.991 225.169 161.092Z" fill="#7F612D"/>
</g>
<g style="mix-blend-mode:multiply" opacity="0.4">
<path d="M283.641 53.4476C283.127 52.6285 281.545 53.4476 281.095 53.8471C280.644 54.2466 279.429 55.5051 279.859 56.3941C280.024 56.7682 280.306 57.0853 280.665 57.303C280.883 57.7246 281.256 58.0552 281.713 58.232C282.499 58.5816 283.389 57.8025 283.756 57.2331C284.177 56.636 284.439 55.9505 284.521 55.2355C284.542 54.5862 283.987 53.9969 283.641 53.4476Z" fill="#7F612D"/>
</g>
<g style="mix-blend-mode:multiply" opacity="0.4">
<path d="M312.704 57.8524C312.506 57.5832 312.252 57.3557 311.959 57.1838C311.665 57.012 311.337 56.8996 310.996 56.8536C310.284 56.6838 309.393 57.6526 309.55 58.2819C309.663 58.8627 310.009 59.3788 310.514 59.7202C311.164 60.6392 313.385 58.8712 312.704 57.8524Z" fill="#7F612D"/>
</g>
<g style="mix-blend-mode:multiply" opacity="0.4">
<path d="M57.3191 269.525C57.2531 268.772 56.912 268.065 56.3552 267.527C55.6952 266.039 54.2598 264.94 52.5207 265.749C51.6857 266.161 51.0229 266.831 50.6419 267.65C50.2609 268.47 50.1845 269.388 50.4253 270.254C50.587 271.122 50.9966 271.931 51.6092 272.591C51.7926 272.886 52.0263 273.149 52.3006 273.371C52.5678 273.582 52.877 273.739 53.2097 273.833C53.5425 273.927 53.8917 273.956 54.2365 273.918C54.5812 273.88 54.9142 273.775 55.2153 273.611C55.5165 273.446 55.7795 273.225 55.9885 272.961C56.4678 272.521 56.8364 271.983 57.0668 271.388C57.2972 270.793 57.3835 270.156 57.3191 269.525Z" fill="#7F612D"/>
</g>
<g style="mix-blend-mode:multiply" opacity="0.4">
<path d="M81.7931 267.128C81.0702 265.739 79.8234 265.58 78.3986 266.299C77.5318 266.822 76.8777 267.611 76.5442 268.536C76.4543 268.751 76.3944 268.976 76.3661 269.205C76.2285 269.666 76.2694 270.159 76.4813 270.594C76.4813 270.714 76.4813 270.833 76.4813 270.953C76.3862 271.459 76.4183 271.979 76.575 272.47C76.7316 272.962 77.0083 273.41 77.3823 273.78C77.9582 274.105 78.6308 274.238 79.2946 274.158C79.9584 274.079 80.5756 273.791 81.0492 273.341C82.7674 271.872 82.7674 269.026 81.7931 267.128Z" fill="#7F612D"/>
</g>
<g style="mix-blend-mode:multiply" opacity="0.4">
<path d="M113.538 278.545C113.15 278.135 112.375 278.335 111.967 278.604C111.51 278.884 111.095 279.22 110.73 279.603C110.447 279.923 109.945 280.822 110.447 281.211C110.584 281.361 110.626 281.351 110.563 281.161C110.688 282.5 112.344 281.351 112.731 280.662C112.93 280.46 113.115 280.246 113.287 280.023C113.58 279.673 113.957 279.004 113.538 278.545Z" fill="#7F612D"/>
</g>
<g style="mix-blend-mode:multiply" opacity="0.4">
<path d="M116.954 317.02C114.303 316.53 112.375 318.378 111.631 320.565C111.162 321.526 110.973 322.59 111.084 323.644C111.194 324.699 111.601 325.705 112.26 326.558C113.611 328.127 115.592 327.727 117.1 326.638C117.928 325.972 118.606 325.152 119.092 324.228C119.579 323.304 119.863 322.296 119.929 321.265C120.093 320.329 119.877 319.369 119.324 318.58C118.771 317.791 117.923 317.233 116.954 317.02Z" fill="#7F612D"/>
</g>
<g style="mix-blend-mode:multiply" opacity="0.4">
<path d="M142.391 299.96C142.323 299.867 142.242 299.783 142.15 299.71L142.088 299.66L142.025 299.61C140.977 299.021 138.945 300.609 139.049 301.727C139.025 301.914 139.051 302.103 139.125 302.278C139.198 302.453 139.316 302.607 139.468 302.726C139.553 302.864 139.672 302.981 139.814 303.066C140.181 303.386 141.071 302.986 141.333 302.746C141.643 302.464 141.889 302.124 142.056 301.747L142.119 301.658C142.324 301.426 142.458 301.145 142.506 300.845C142.554 300.546 142.514 300.239 142.391 299.96Z" fill="#7F612D"/>
</g>
<g style="mix-blend-mode:multiply" opacity="0.4">
<path d="M22.5358 136.431C18.0412 137.509 15.9458 141.804 15.4325 145.81C15.1182 148.187 15.4325 153.131 18.5232 153.92C19.4125 154.222 20.3666 154.307 21.2994 154.169C22.2321 154.032 23.1143 153.675 23.8664 153.131C27.1037 150.754 28.4448 146.429 28.581 142.683C28.7067 139.247 26.758 135.442 22.5358 136.431Z" fill="#7F612D"/>
</g>
<g style="mix-blend-mode:multiply" opacity="0.4">
<path d="M41.6142 197.659C39.2464 194.363 34.2804 196.66 32.646 199.417C31.4109 201.754 31.1706 204.456 31.9755 206.958C32.0792 208.052 32.4106 209.116 32.9503 210.086C33.4899 211.057 34.227 211.916 35.1185 212.612C35.5047 212.88 35.9472 213.065 36.4156 213.155C36.884 213.244 37.3672 213.236 37.832 213.131C38.9284 213.069 39.9635 212.629 40.7446 211.892C41.6213 211.111 42.3116 210.159 42.7689 209.101C43.2263 208.043 43.4398 206.903 43.3953 205.76C43.821 202.944 43.1902 200.075 41.6142 197.659Z" fill="#7F612D"/>
</g>
<g style="mix-blend-mode:multiply" opacity="0.4">
<path d="M31.9441 228.303C32.0199 228.21 32.08 228.105 32.1222 227.994C32.3631 227.334 31.6612 227.075 31.0745 227.274C30.6328 227.481 30.2265 227.751 29.8696 228.074C29.3039 228.523 28.8219 230.071 30.1211 229.811C30.5777 229.756 31.0229 229.635 31.4412 229.452C31.6146 229.361 31.7705 229.243 31.9021 229.102C31.9021 229.102 32.2374 228.583 32.0069 228.893C32.2584 228.593 32.185 228.343 31.9441 228.303Z" fill="#7F612D"/>
</g>
<g style="mix-blend-mode:multiply" opacity="0.4">
<path d="M353.752 183.655C351.154 183.536 349.561 186.262 349.446 188.42C349.432 189.043 349.576 189.659 349.865 190.218C349.895 190.815 350.086 191.394 350.42 191.9C350.754 192.406 351.22 192.821 351.772 193.104C352.579 193.484 353.532 192.795 354.035 192.245C355.428 190.777 357.199 183.835 353.752 183.655Z" fill="#7F612D"/>
</g>
</g>
<defs>
<radialGradient id="paint0_radial_47_147" cx="0" cy="0" r="1" gradientUnits="userSpaceOnUse" gradientTransform="translate(163.817 -31.8528) scale(355.177 338.614)">
<stop stop-color="#E3F3FC"/>
<stop offset="0.35" stop-color="#BC9F83"/>
<stop offset="0.62" stop-color="#A36B4F"/>
<stop offset="0.95" stop-color="#493F42"/>
</radialGradient>
<radialGradient id="paint1_radial_47_147" cx="0" cy="0" r="1" gradientUnits="userSpaceOnUse" gradientTransform="translate(59.3623 -79.3872) scale(570.812 544.194)">
<stop stop-color="#E3F3FC"/>
<stop offset="0.35" stop-color="#BC9F83"/>
<stop offset="0.68" stop-color="#A36B4F"/>
<stop offset="0.95" stop-color="#493F42"/>
</radialGradient>
<radialGradient id="paint2_radial_47_147" cx="0" cy="0" r="1" gradientUnits="userSpaceOnUse" gradientTransform="translate(40.2732 -42.9898) scale(515.18 491.156)">
<stop stop-color="#E3F3FC"/>
<stop offset="0.35" stop-color="#BC9F83"/>
<stop offset="0.68" stop-color="#A36B4F"/>
<stop offset="0.95" stop-color="#493F42"/>
</radialGradient>
<radialGradient id="paint3_radial_47_147" cx="0" cy="0" r="1" gradientUnits="userSpaceOnUse" gradientTransform="translate(40.2523 -42.9698) scale(515.211 491.186)">
<stop stop-color="#E3F3FC"/>
<stop offset="0.35" stop-color="#BC9F83"/>
<stop offset="0.68" stop-color="#A36B4F"/>
<stop offset="0.95" stop-color="#493F42"/>
</radialGradient>
<radialGradient id="paint4_radial_47_147" cx="0" cy="0" r="1" gradientUnits="userSpaceOnUse" gradientTransform="translate(182.602 176.154) scale(238.904 227.764)">
<stop stop-color="#E3F3FC"/>
<stop offset="0.35" stop-color="#BC9F83"/>
<stop offset="0.68" stop-color="#A36B4F"/>
<stop offset="0.95" stop-color="#493F42"/>
</radialGradient>
<clipPath id="clip0_47_147">
<rect width="386" height="368" fill="white"/>
</clipPath>
</defs>
</svg>
