<svg xmlns="http://www.w3.org/2000/svg" xmlns:xlink="http://www.w3.org/1999/xlink" viewBox="0 0 368.43 368.43"><defs><style>.cls-1{isolation:isolate;}.cls-2{fill:url(#radial-gradient);}.cls-3,.cls-5,.cls-6,.cls-8{opacity:0.4;}.cls-3,.cls-8{mix-blend-mode:multiply;}.cls-3{fill:url(#radial-gradient-2);}.cls-4{fill:#c3e6f8;opacity:0.7;mix-blend-mode:color-dodge;}.cls-5,.cls-6,.cls-7{mix-blend-mode:screen;}.cls-5{fill:url(#radial-gradient-3);}.cls-6{fill:url(#radial-gradient-4);}.cls-7{opacity:0.2;fill:url(#radial-gradient-5);}.cls-8{fill:#7f612d;}</style><radialGradient id="radial-gradient" cx="156.36" cy="-31.89" r="339.01" gradientUnits="userSpaceOnUse"><stop offset="0" stop-color="#e3f3fc"/><stop offset="0.35" stop-color="#bc9f83"/><stop offset="0.62" stop-color="#a36b4f"/><stop offset="0.95" stop-color="#493f42"/></radialGradient><radialGradient id="radial-gradient-2" cx="56.66" cy="-79.48" r="544.83" gradientUnits="userSpaceOnUse"><stop offset="0" stop-color="#e3f3fc"/><stop offset="0.35" stop-color="#bc9f83"/><stop offset="0.68" stop-color="#a36b4f"/><stop offset="0.95" stop-color="#493f42"/></radialGradient><radialGradient id="radial-gradient-3" cx="38.44" cy="-43.04" r="491.73" xlink:href="#radial-gradient-2"/><radialGradient id="radial-gradient-4" cx="38.42" cy="-43.02" r="491.76" xlink:href="#radial-gradient-2"/><radialGradient id="radial-gradient-5" cx="174.29" cy="176.36" r="228.03" xlink:href="#radial-gradient-2"/></defs><g class="cls-1"><g id="Calque_2" data-name="Calque 2"><g id="Calque_1-2" data-name="Calque 1"><path class="cls-2" d="M368.43,184.21A184.22,184.22,0,1,1,184.22,0,184.21,184.21,0,0,1,368.43,184.21Z"/><path class="cls-3" d="M184.22,0A184.22,184.22,0,1,0,368.43,184.21,184.21,184.21,0,0,0,184.22,0ZM170.45,318.6A152.45,152.45,0,1,1,322.91,166.15,152.44,152.44,0,0,1,170.45,318.6Z"/><path class="cls-4" d="M43.18,281.6C18.26,242.23,9.71,207.85,8,181.44c0-.08,0-.16,0-.25A170.33,170.33,0,0,1,6.8,156c-4.79,27.54-5,71,22.71,118.92,46.84,80.89,134.2,93.61,178.18,86.1C207.69,361,101,373,43.18,281.6Z"/><path class="cls-5" d="M18.58,116.62c5.67-3,12-4,18.16-5.47,8.72-2.1,15.1-8.07,21.38-14.21,5.35-5.25,9.49-11.79,15.34-16.49,6.08-4.87,14.78-6,22.35-5.75,7.75.28,13,6.58,20.42,7.76,5.86,1,11.37-2.47,15.88-5.91,2.34-1.78,6.74-5.24,4.81-8.71-2.84-5.08-9.82-7.3-14.31-10.62C117,53.1,113.73,46,113.09,39.09c-.71-7.59,3.67-12.71,7.91-18.5,2.85-3.88,5.84-8,8.54-12.34A184.66,184.66,0,0,0,11.1,121.09C13.55,119.5,16,118,18.58,116.62Z"/><path class="cls-6" d="M166.09,14.32c17.34,4.27,33.8-3.19,49.09-11.69a184.79,184.79,0,0,0-31-2.63c-5,0-9.93.21-14.81.6C168.45,5.25,167.21,9.86,166.09,14.32Z"/><path class="cls-7" d="M278.54,331.19c-2.42-5.39-4.6-12.65-3.06-18.57,3.73-14.15,17.51-26.21,28.73-34.62,5.07-3.8,10.29-7.19,16.31-9.24a33.17,33.17,0,0,1,12.65-1.84c3.46.22,6.95.84,10.43.66a24.79,24.79,0,0,0,5.38-.9,183.31,183.31,0,0,0,19.45-82.47,186,186,0,0,0-2.25-28.89c-4.39,6.3-7.33,13.75-9.63,21.21-4.3,14-6.9,28.82-13.71,41.88s-21.29,28.62-37.49,22.4c-8.07-3.1-14.5-10.3-20.09-16.63-3.95-4.48-7.76-9.08-11.67-13.6-3.12-3.59-6.54-7-9.36-10.79-4.54-6.17-7.78-13.66-13.31-19-7.19-7-17.09-7-26.41-4.79-9.94,2.41-17.52,9.65-24.48,16.75-6.36,6.48-12.58,13-20,18.28-6,4.33-16.38,5.55-20,12.71-2.21,4.36-3.35,9-.18,13.19,1.95,2.54,4.39,5,5.35,8.15,2.95,9.77-2.41,21.72-5.18,30.94-1.8,5.93-3.72,12.22-3.43,18.48.23,4.57,1,4.1,5,4.45a54.59,54.59,0,0,1,6.24.8c6.43,1.27,14.56,3.82,17.92,10.07,3.28,6.07,1.1,12.84-2.82,18.08-9.75,13-24.48,21.91-41,19.53-14.86-2.15-27.85-10.22-41.83-15.15-6.77-2.39-14-4.29-21.27-3.57a32.41,32.41,0,0,0-7,1.52A184.32,184.32,0,0,0,284,339.12,32,32,0,0,1,278.54,331.19Z"/><path class="cls-8" d="M281.54,144.89c-1.87-3.24-6.39-5-8.91-1.39a4.45,4.45,0,0,0-.69,1.59,2.71,2.71,0,0,0-.61,2,18,18,0,0,0,5.06,11.74c2.88,2.74,6.63.51,7.58-2.83C285,152.42,283.3,147.91,281.54,144.89ZM277,148.06a16,16,0,0,1-.72-1.77.76.76,0,0,0,.35,0,8.56,8.56,0,0,1,1,1.18A3.81,3.81,0,0,0,277,148.06Z"/><path class="cls-8" d="M291.22,137.49a.52.52,0,0,0-.56-.41,1.18,1.18,0,0,1-.07-.2c-.13-.66-1.1-.37-1.45-.16a1.76,1.76,0,0,0-.89,1.33h0c0,.07,0,.12,0,.18s0,0,0,.09.06.27.11.42a2.89,2.89,0,0,0,.53,1c.78,1,2.35-.69,2.4-1.5A3.34,3.34,0,0,0,291.22,137.49Z"/><path class="cls-8" d="M306.7,164.61c-.51-1.53-2-4.13-3.74-4.53-3-.68-4,3.58-3.81,5.65a.24.24,0,0,0,0,.08,12.31,12.31,0,0,0,1,5.14c.61,1.51,2.54,4.45,4.52,4.09C309.08,174.24,307.66,167.45,306.7,164.61Z"/><path class="cls-8" d="M321,143.42a1.37,1.37,0,0,0-.3-.56,3.43,3.43,0,0,0,0-.56c.06-1.11-1.44-.66-1.91-.2l0,0a1.26,1.26,0,0,0-1.7.61,1.06,1.06,0,0,0-.16.79c.1.31.35.51.44.83,0,0,0,.1,0,.16a8.61,8.61,0,0,0-.26,1.27c-.2,1.54,2,.79,2.56.26S321.35,144.44,321,143.42Z"/><path class="cls-8" d="M352,136.77a11.22,11.22,0,0,0-2.49-5.63c-1.06-1.9-2.53-3.79-4.64-4.4a3.38,3.38,0,0,0-1.67,0c-3.52-.62-5.93,4.54-5.21,8.54.6,3.35,2.62,8.82,6.07,11a3.42,3.42,0,0,0,3,.91,4.84,4.84,0,0,0,.66,0c2.39-.23,4.21-3.21,4.7-5.3A9.94,9.94,0,0,0,352,136.77Z"/><path class="cls-8" d="M328.23,93.08a2.31,2.31,0,0,0-2.49-.34,2.54,2.54,0,0,0-.46-.76c-.4-.55-1.3.42-1.21.89,0,.07-.1.68-.11.92s0,.22,0,.33a3.51,3.51,0,0,0-.51.89c-.16.5,0,.81.35.93a2.83,2.83,0,0,0,.56,1.87c1.27,1.59,3.5.34,4.31-1A3.09,3.09,0,0,0,328.23,93.08Z"/><path class="cls-8" d="M214.92,161.28c-1.76-1.28-4.35.72-5.16,2.22a4,4,0,0,0-.2,3.24,4.73,4.73,0,0,0,.93,2.52c.81,1,2.08.81,3.09.26a5.3,5.3,0,0,0,2.56-4.08C216.35,164,216.14,162.18,214.92,161.28Z"/><path class="cls-8" d="M270.73,53.51c-.49-.82-2,0-2.43.4s-1.59,1.66-1.18,2.55a2,2,0,0,0,.77.91,1.92,1.92,0,0,0,1,.93c.75.35,1.6-.43,1.95-1a4.45,4.45,0,0,0,.73-2C271.59,54.65,271.06,54.06,270.73,53.51Z"/><path class="cls-8" d="M298.47,57.92a2.4,2.4,0,0,0-1.63-1c-.68-.17-1.53.8-1.38,1.43a2.27,2.27,0,0,0,.92,1.44C297,60.71,299.12,58.94,298.47,57.92Z"/><path class="cls-8" d="M54.71,269.84a3.23,3.23,0,0,0-.92-2c-.63-1.49-2-2.59-3.66-1.78a3.94,3.94,0,0,0-2,4.51,4.8,4.8,0,0,0,1.13,2.34,3.08,3.08,0,0,0,.66.78,2.45,2.45,0,0,0,3.52-.41A4.21,4.21,0,0,0,54.71,269.84Z"/><path class="cls-8" d="M78.07,267.44c-.69-1.39-1.88-1.55-3.24-.83a4.31,4.31,0,0,0-1.77,2.24,2.64,2.64,0,0,0-.17.67,2,2,0,0,0,.11,1.39c0,.12,0,.24,0,.36a3.25,3.25,0,0,0,.86,2.83,2.88,2.88,0,0,0,3.5-.44C79,272.19,79,269.34,78.07,267.44Z"/><path class="cls-8" d="M108.37,278.87c-.37-.41-1.11-.21-1.5.06a5.9,5.9,0,0,0-1.18,1c-.27.32-.75,1.22-.27,1.61.13.15.17.14.11-.05.12,1.34,1.7.19,2.07-.5a6.93,6.93,0,0,0,.53-.64C108.41,280,108.77,279.33,108.37,278.87Z"/><path class="cls-8" d="M111.63,317.39c-2.53-.49-4.37,1.36-5.08,3.55a5.91,5.91,0,0,0,.6,6c1.29,1.57,3.18,1.17,4.62.08a7.65,7.65,0,0,0,2.7-5.38A3.73,3.73,0,0,0,111.63,317.39Z"/><path class="cls-8" d="M135.91,300.31v0a1.31,1.31,0,0,0-.23-.25l-.06-.05-.06-.05c-1-.59-2.94,1-2.84,2.12a1.12,1.12,0,0,0,.4,1,1,1,0,0,0,.33.34c.35.32,1.2-.08,1.45-.32a3,3,0,0,0,.69-1l.06-.09A1.65,1.65,0,0,0,135.91,300.31Z"/><path class="cls-8" d="M21.51,136.59c-4.29,1.08-6.29,5.38-6.78,9.39-.3,2.38,0,7.33,2.95,8.12a5.43,5.43,0,0,0,5.1-.79c3.09-2.38,4.37-6.71,4.5-10.46C27.4,139.41,25.54,135.6,21.51,136.59Z"/><path class="cls-8" d="M39.72,197.89c-2.26-3.3-7-1-8.56,1.76a10.16,10.16,0,0,0-.64,7.55,8.28,8.28,0,0,0,3,5.66,3.16,3.16,0,0,0,2.59.52,4.32,4.32,0,0,0,2.78-1.24A8,8,0,0,0,41.42,206,12.09,12.09,0,0,0,39.72,197.89Z"/><path class="cls-8" d="M30.49,228.57a1.14,1.14,0,0,0,.17-.31c.23-.66-.44-.92-1-.72a4.64,4.64,0,0,0-1.15.8c-.54.45-1,2,.24,1.74a4.32,4.32,0,0,0,1.26-.36,1.66,1.66,0,0,0,.44-.35s.32-.52.1-.21C30.79,228.86,30.72,228.61,30.49,228.57Z"/><path class="cls-8" d="M337.65,183.87c-2.48-.12-4,2.61-4.11,4.77a3.88,3.88,0,0,0,.4,1.8,3.47,3.47,0,0,0,1.82,2.89c.77.38,1.68-.31,2.16-.86C339.25,191,340.94,184.05,337.65,183.87Z"/></g></g></g></svg>