<svg xmlns="http://www.w3.org/2000/svg" xmlns:xlink="http://www.w3.org/1999/xlink" viewBox="0 0 584.95 368.45"><defs><style>.cls-1{isolation:isolate;}.cls-2{fill:url(#linear-gradient);}.cls-3{fill:#fddab2;}.cls-3,.cls-5{opacity:0.4;}.cls-4{fill:#e38481;opacity:0.6;}.cls-4,.cls-7,.cls-8{mix-blend-mode:multiply;}.cls-5{fill:#fcd7b8;}.cls-5,.cls-9{mix-blend-mode:color-dodge;}.cls-6{fill:url(#linear-gradient-2);}.cls-7{fill:url(#linear-gradient-3);}.cls-8{fill:url(#linear-gradient-4);}.cls-9{fill:#fad1c3;}</style><linearGradient id="linear-gradient" x1="215.31" y1="5.75" x2="361.09" y2="347.65" gradientUnits="userSpaceOnUse"><stop offset="0.05" stop-color="#cf9d8b"/><stop offset="0.2" stop-color="#efb172"/><stop offset="0.46" stop-color="#ca9180"/><stop offset="0.5" stop-color="#cd9886"/><stop offset="0.55" stop-color="#d7ab97"/><stop offset="0.61" stop-color="#e7cbb4"/><stop offset="0.62" stop-color="#ead2ba"/><stop offset="0.65" stop-color="#d9b9a1"/><stop offset="0.71" stop-color="#ba8b75"/><stop offset="0.77" stop-color="#a16550"/><stop offset="0.83" stop-color="#8d4833"/><stop offset="0.89" stop-color="#7f331e"/><stop offset="0.95" stop-color="#772612"/><stop offset="1" stop-color="#74220e"/></linearGradient><linearGradient id="linear-gradient-2" x1="345.28" y1="345" x2="282.8" y2="143.69" gradientUnits="userSpaceOnUse"><stop offset="0" stop-color="#c5937c"/><stop offset="0.02" stop-color="#c79882"/><stop offset="0.29" stop-color="#e4e0df"/><stop offset="1" stop-color="#8ca89c"/></linearGradient><linearGradient id="linear-gradient-3" x1="77.15" y1="230.37" x2="42.44" y2="135.79" gradientUnits="userSpaceOnUse"><stop offset="0" stop-color="#e4e0df"/><stop offset="1" stop-color="#8ca89c"/></linearGradient><linearGradient id="linear-gradient-4" x1="488.32" y1="79.49" x2="453.61" y2="-15.1" xlink:href="#linear-gradient-3"/></defs><g class="cls-1"><g id="Calque_2" data-name="Calque 2"><g id="Calque_1-2" data-name="Calque 1"><path class="cls-2" d="M475.63,184.22A184.22,184.22,0,0,1,291.4,368.45c-101.73,0-184.21-82.48-184.21-184.23S189.67,0,291.4,0A184.22,184.22,0,0,1,475.63,184.22Z"/><path class="cls-3" d="M342.26,7.14c-4.26,6.09-8.47,12.24-12.67,18.37-6.32,9.22-12.81,17.56-21.75,24.45s-19,12.54-29.1,17.81c-10.88,5.67-21.67,11.5-32.72,16.81-39.09,18.82-82.08,33.3-125.67,31.29a185.43,185.43,0,0,0-6.08,17.65c24.49,7.55,52,4.69,76.6-.39,45-9.32,88.25-26.61,126.07-52.9a466.46,466.46,0,0,0,50.77-40.76c5-4.61,10.35-9.64,15.36-15.07A183.11,183.11,0,0,0,342.26,7.14Z"/><path class="cls-3" d="M179.12,93.28c12.42-3.26,24-8.81,36-13.33,10.2-3.83,20.85-6.2,31.14-9.79,34-11.84,70.14-32.08,86.22-65.52A184.14,184.14,0,0,0,129.6,96.18C146.16,96.27,163.12,97.48,179.12,93.28Z"/><path class="cls-3" d="M160,169.08c19.16,0,37.39-4.22,55.5-10.27,12.18-4.05,24.14-8.64,36.15-13.14,11.69-4.38,23.57-8.25,35-13.2A295.83,295.83,0,0,0,345,98.91c22.95-16.94,43.52-36.6,63.33-57-4.09-3.37-8.31-6.56-12.7-9.56-2.33,2-4.69,4-7,6-14,11.61-28.13,23.11-42.39,34.34-25.39,20-53.35,35.65-83.09,48.12C234,132.94,203.92,143.85,173,150.35c-14.81,3.12-30.31,5.61-45.48,4.35A60.29,60.29,0,0,1,110.18,151c-1.07,5.92-1.84,11.95-2.34,18C125.16,166.93,142.61,169.06,160,169.08Z"/><path class="cls-3" d="M122.88,242.35a253.52,253.52,0,0,0,34.87-3.52c10.53-1.67,21-3.66,31.49-5.72a196.5,196.5,0,0,1,35.66-3.91c13.08-.19,26.09-.84,38.49-5.43,12.1-4.49,23.3-11.07,34.3-17.79,21.29-13,43.51-24.45,64.55-38s42.52-27.8,57.06-48.4c8.89-12.59,15.95-26.34,24.13-39.36-3.44-5-7.07-9.83-11-14.47-.21.65-.44,1.29-.64,1.92C428.55,77.9,425.57,89,419.34,97.84c-12.8,18.27-32.68,30.48-51.46,41.78-20.32,12.24-40.35,25.06-61,36.8-21.12,12-43.55,23.21-67.59,27.79-27.23,5.2-55.19,7.14-82.78,9.37-12.86,1-25.24,3.21-37.92,5.32-2.64.45-5.29.85-7.93,1.18a182.24,182.24,0,0,0,5.91,22.3C118.83,242.43,121,242.38,122.88,242.35Z"/><path class="cls-3" d="M201.92,308.67c13.16.73,26.4,1.79,39.57.42a162.8,162.8,0,0,0,33.59-7.31c11.08-3.62,21.86-8,32.67-12.29s21.95-8.14,32.79-12.53a392.09,392.09,0,0,0,57.76-28.87c29.37-18,57.6-40.53,77.24-69.13a191.9,191.9,0,0,0-1.74-20.63A104.16,104.16,0,0,1,453,184.86c-26.23,23.81-57.76,40.4-87.95,58.52-20.56,12.32-41,25.28-63.05,34.78-23.63,10.18-48.38,14.66-73.73,18.31-24.62,3.56-51,6.09-75.4,0-3.23-.8-6.4-1.75-9.57-2.72a186.5,186.5,0,0,0,11.88,14.43C170.67,307.15,186.31,307.81,201.92,308.67Z"/><path class="cls-3" d="M449.17,261.92c-28.35,37.85-73.06,57.75-116.52,73.13-12.36,4.39-24.72,8.17-37.77,9.87a214.59,214.59,0,0,1-40.62,1.18c-21-1.24-41.84-4.47-62.71-7.06A184.26,184.26,0,0,0,469.17,232.71C462.61,242.48,456.24,252.49,449.17,261.92Z"/><path class="cls-4" d="M291.4,0C189.67,0,107.19,82.48,107.19,184.22S189.67,368.45,291.4,368.45A184.23,184.23,0,1,0,291.4,0ZM277.65,318.61A152.45,152.45,0,1,1,430.09,166.15,152.44,152.44,0,0,1,277.65,318.61Z"/><path class="cls-5" d="M150.36,281.6c-24.91-39.35-33.47-73.74-35.14-100.14,0-.09,0-.18,0-.26A167.7,167.7,0,0,1,114,156c-4.81,27.54-5,71,22.69,118.91,46.86,80.9,134.21,93.63,178.18,86.11C314.87,361,208.21,373,150.36,281.6Z"/><path class="cls-6" d="M583.31,66.31c-11.19-30-77.55-35.08-167.47-17.92q5.36,4.92,10.33,10.24c59.41-9.42,101.05-5.55,108.17,13.52,6.63,17.76-18,45.15-62.54,74.51C431.73,173.05,375.48,201,311.19,225c-68.42,25.56-132.93,41.72-181.69,47.17-48,5.36-80.78.32-87-16.4-6.75-18.06,18.77-46.06,64.76-76,.13-5,.44-9.92.94-14.79C34,209.43-9.15,254.52,1.64,283.43c10.47,28,69.13,34.31,150.17,21,50.52-8.3,109.72-24.2,171.4-47.23,58-21.63,110.15-46.58,152.41-71.78C550.49,140.78,594.15,95.37,583.31,66.31Z"/><path class="cls-7" d="M55.55,203.31c-11,13-33.62,39.45-21.63,57.53C44.67,277,70.57,275.13,87.4,274.61c2.92-.09,5.84-.21,8.74-.39-29.55,0-49-6-53.66-18.44-6.75-18.06,18.77-46.06,64.76-76,.13-5,.44-9.92.94-14.79-15.82,9.47-30.21,19-43,28.35A117.68,117.68,0,0,0,55.55,203.31Z"/><path class="cls-8" d="M426.17,58.63c59.41-9.42,101.05-5.55,108.17,13.52,5.62,15-11.16,37-43.52,61.2,7.44-3.82,14.73-8,21.93-12.25,9.3-5.48,20.38-11.77,26.25-21.17,5.74-9.15,11.8-22.11,5.63-32.56-9-15.22-28.56-19.62-44.68-22.71a309.93,309.93,0,0,0-32.14-4c-16.16,1.62-33.57,4.18-52,7.7Q421.2,53.31,426.17,58.63Z"/><path class="cls-9" d="M82.94,189.53S-3,236.39,10.05,275.43s115.41,34.72,266.4-9.54c0,0-168.92,44-226.77,23.72S29.43,226.56,82.94,189.53Z"/><path class="cls-9" d="M555.3,60.53c-28.14-21.44-75.22-13.31-75.22-13.31s85.05,1.16,68.26,37.61c-13.93,30.28-52.24,59.49-84.38,79.23,2.46-1.05,4.89-2.14,7.28-3.33C514.83,134.77,587.26,84.89,555.3,60.53Z"/></g></g></g></svg>