<svg xmlns="http://www.w3.org/2000/svg" xmlns:xlink="http://www.w3.org/1999/xlink" viewBox="0 0 739.91 712.17"><defs><style>.cls-1{isolation:isolate;}.cls-2{fill:url(#radial-gradient);}.cls-3{fill:url(#radial-gradient-2);}.cls-4{opacity:0.9;mix-blend-mode:multiply;fill:url(#radial-gradient-3);}.cls-5{fill:#fcf9dd;opacity:0.7;mix-blend-mode:color-dodge;}</style><radialGradient id="radial-gradient" cx="366.36" cy="354.29" r="378.77" gradientUnits="userSpaceOnUse"><stop offset="0.35" stop-color="#f59f50"/><stop offset="0.58" stop-color="#f5a14f"/><stop offset="0.67" stop-color="#f5a84d"/><stop offset="0.72" stop-color="#f6b348"/><stop offset="0.77" stop-color="#f6c243"/><stop offset="0.82" stop-color="#f6bf43"/><stop offset="0.86" stop-color="#f5b641"/><stop offset="0.89" stop-color="#f3a63e"/><stop offset="0.92" stop-color="#f1903b"/><stop offset="0.95" stop-color="#ed7336"/><stop offset="0.97" stop-color="#ea5030"/><stop offset="1" stop-color="#e52729"/><stop offset="1" stop-color="#e52629"/></radialGradient><radialGradient id="radial-gradient-2" cx="229.87" cy="203.26" r="479.46" gradientUnits="userSpaceOnUse"><stop offset="0" stop-color="#eee86e"/><stop offset="0.02" stop-color="#eee16b"/><stop offset="0.14" stop-color="#efba5e"/><stop offset="0.25" stop-color="#f09d54"/><stop offset="0.35" stop-color="#f18c4e"/><stop offset="0.42" stop-color="#f1864c"/><stop offset="0.69" stop-color="#eb5239"/><stop offset="0.89" stop-color="#e7322d"/><stop offset="1" stop-color="#e52629"/></radialGradient><radialGradient id="radial-gradient-3" cx="278.43" cy="276.09" r="457.94" gradientUnits="userSpaceOnUse"><stop offset="0.29" stop-color="#fbe752"/><stop offset="1" stop-color="#eb5e4e"/></radialGradient></defs><g class="cls-1"><g id="Calque_2" data-name="Calque 2"><g id="Calque_1-2" data-name="Calque 1"><path class="cls-2" d="M739.91,406.38s-50.32-17.86-55-47.74v-6.52c.71-30,55-46.33,55-46.33s-60-.06-67.71-28.63,42-49.62,42-49.62-57.82,3.94-69.25-25.32,27.24-61.38,27.24-61.38-42.23,19.26-72.92,3S615,74.43,615,74.43s-43.55,31.41-70,25.7,0-67.82,0-67.82-28.56,36.4-62.11,36.4-25.7-64.95-25.7-64.95-15.7,32.84-46.4,43.55C385,56.33,373.06,13.65,370,0c-3.1,13.65-15,56.33-40.86,47.31C298.4,36.6,282.68,3.76,282.68,3.76S290.54,68.71,257,68.71s-62.1-36.4-62.1-36.4,26.41,62.11,0,67.82-70-25.7-70-25.7,46.4,53.19,15.7,69.43-72.91-3-72.91-3S106.37,173,95,202.22,25.7,227.54,25.7,227.54s49.76,21.07,42,49.62S0,305.79,0,305.79s54.26,16.35,55,46.33v6.52c-4.65,29.88-55,47.74-55,47.74s60,.06,67.72,28.61-42,49.64-42,49.64S83.52,480.69,95,510s-27.23,61.38-27.23,61.38,42.22-19.27,72.91-3-15.7,69.41-15.7,69.41,43.55-31.4,70-25.69,0,67.81,0,67.81,28.55-36.4,62.1-36.4,25.69,65,25.69,65,15.72-32.84,46.41-43.56c25.87-9,37.76,33.67,40.86,47.32,3.11-13.65,15-56.33,40.87-47.32,30.7,10.72,46.4,43.56,46.4,43.56s-7.85-65,25.7-65S545,679.84,545,679.84s-26.42-62.11,0-67.81,70,25.69,70,25.69-46.41-53.19-15.71-69.41,72.92,3,72.92,3S633.55,539.22,645,510s69.25-25.32,69.25-25.32-49.75-21.07-42-49.64S739.91,406.38,739.91,406.38Z"/><path class="cls-3" d="M656.31,354c0,158.15-128.2,286.34-286.34,286.34S83.61,512.17,83.61,354,211.8,67.67,370,67.67,656.31,195.87,656.31,354Z"/><path class="cls-4" d="M370,67.67C211.8,67.67,83.61,195.87,83.61,354S211.8,640.36,370,640.36,656.31,512.17,656.31,354,528.11,67.67,370,67.67ZM348.56,562.9c-130.88,0-237-106.1-237-237s106.08-237,237-237,237,106.1,237,237S479.44,562.9,348.56,562.9Z"/><path class="cls-5" d="M144.06,507.15c-41.35-59.45-45.36-116.4-48-157.45a1.73,1.73,0,0,0,0-.38,261.32,261.32,0,0,1-1.83-39.17C86.72,353,86.36,420.57,129.48,495c72.83,125.75,208.61,145.53,277,133.84C406.43,628.84,240.75,646.16,144.06,507.15Z"/></g></g></g></svg>