<svg xmlns="http://www.w3.org/2000/svg" xmlns:xlink="http://www.w3.org/1999/xlink" viewBox="0 0 368.43 368.45"><defs><style>.cls-1{isolation:isolate;}.cls-2{fill:url(#radial-gradient);}.cls-3,.cls-4{mix-blend-mode:multiply;}.cls-3{fill:url(#radial-gradient-2);}.cls-5{fill:url(#radial-gradient-3);}.cls-6{fill:url(#radial-gradient-4);}.cls-7{fill:url(#radial-gradient-5);}.cls-8{fill:url(#radial-gradient-6);}.cls-9{fill:url(#radial-gradient-7);}.cls-10{fill:#b7ce39;}.cls-11{mix-blend-mode:screen;}.cls-12{fill:#c3e6f8;opacity:0.7;mix-blend-mode:color-dodge;}</style><radialGradient id="radial-gradient" cx="-39.91" cy="136.57" r="397.66" gradientUnits="userSpaceOnUse"><stop offset="0" stop-color="#e3f3fc"/><stop offset="0.47" stop-color="#1abaee"/><stop offset="0.98" stop-color="#03466c"/></radialGradient><radialGradient id="radial-gradient-2" cx="-2.31" cy="212.93" r="460.2" xlink:href="#radial-gradient"/><radialGradient id="radial-gradient-3" cx="84.92" cy="53.84" r="59.43" xlink:href="#radial-gradient"/><radialGradient id="radial-gradient-4" cx="90.52" cy="264.04" r="356.15" xlink:href="#radial-gradient"/><radialGradient id="radial-gradient-5" cx="85.22" cy="262.55" r="362.76" xlink:href="#radial-gradient"/><radialGradient id="radial-gradient-6" cx="93.52" cy="263.59" r="355.82" xlink:href="#radial-gradient"/><radialGradient id="radial-gradient-7" cx="93.29" cy="265.05" r="355.73" xlink:href="#radial-gradient"/></defs><g class="cls-1"><g id="Calque_2" data-name="Calque 2"><g id="Calque_1-2" data-name="Calque 1"><path class="cls-2" d="M368.43,184.22C368.43,286,286,368.45,184.22,368.45S0,286,0,184.22A184.22,184.22,0,0,1,184.22,0C286,0,368.43,82.48,368.43,184.22Z"/><path class="cls-3" d="M184.22,0A184.22,184.22,0,0,0,0,184.22C0,286,82.47,368.45,184.22,368.45S368.43,286,368.43,184.22,286,0,184.22,0ZM170.47,318.61A152.46,152.46,0,1,1,322.91,166.15,152.45,152.45,0,0,1,170.47,318.61Z"/><g class="cls-4"><path class="cls-5" d="M30.53,99.17c3.59-4.29,9.24-4.17,13.87-6.54,6.17-3.14,4.26-10.91,9.49-13.7,3.66-2,8.28.7,12.07-1.49,2.62-1.54,3.42-5.07,3.89-6.88s4.53-3.53,6.37-4.15,6,.21,7.36-1.67,6.58,3,11.09,1.68c6.63-1.93-1.37-8.4-3.49-10.85-6.38-7.37,3.57-10.78,8.75-13.85,5.41-3.2,9.19-6.43,10.61-12.87.79-3.55,6.94-4.15,9.58-5.48,3.74-1.87,6-5.95,10.44-6.43,5.26-.58,22.67,2.65,21.18-7.47-.1-.65-.7-5.76-.61-6.49C94.49,13.25,43.23,54.94,18,104.7,21.42,103.37,29.16,100.8,30.53,99.17Z"/><path class="cls-6" d="M212.67,2.18c1.9,1.48,4.43,7.38,4.38,9.37-.08,3.74-3.1,4.09-6.12,5.19-5.75,2.11-11.86,5.67-14.57,11.62a8.18,8.18,0,0,0,.52.86c1.76,2.41,4.84,2.67,7.59,2.53,4.27-.21,8.43-1,12.73-.72,4.77.3,9.44,1.15,14.18,1.72,8.41,1,17.2-.16,25.48,1.87,7.24,1.77,11.43,7,15.57,12.85,5.11,7.25,9.43,13.9,17.59,17.94,7,3.44,12.06,6.76,15,14.21,3.73,9.43,10.32,16.16,15.92,24.44,2.29,3.39,4.47,7,5.28,11.06s-1.4,8.79-2.94,12.54a.89.89,0,0,1-1.06.6,35.78,35.78,0,0,1-7.15-2.16c-.27,2.42-.84,5-2.81,6.52l-.23.17c1.1,1.76,2,3.24,1.95,4.05-.1,2.06,1.21,4.44,1.07,6.22s-1.14,8.59,2,10.68,3.24,6.16,4.8,6.61,3.33,3.16,6.42-4.23-.77-6,3.09-7.38,5.51,1.47,4.4,4.89-2.05,4.39-.75,6.77,1,9.48-1,12.22-4.26,8.65-2.25,12-.39,5.62-1.62,7.29-4.54,6.8-3.8,9,2.31,5.48,4.48,6.38,6.17,2.19,8.54-.06,3.71-6.94,7.85-6.48,8.5-4.81,11.89-9.39c3.24-4.4,1.73-10.56,6.55-13.23C362,91.12,296.85,15.48,212.67,2.18Z"/><path class="cls-7" d="M352.18,226.42a23.18,23.18,0,0,1-8.26,11.83c-1.73,1.07-1.69,6.08-2.73,10.71-2.34,10.55,3.27,25.87,3.41,26,9.65-17,14.39-35.4,18.13-55.29C360.06,220,353.58,221.48,352.18,226.42Z"/><path class="cls-8" d="M267.53,216.69c-2.95-4.55-7.31-4.35-6.42-8.43s-.27-7.84-2-9.09-2.49-8.42-6-2.87-5.66,7.66-7.43,9-1.13,2.59-2.66,6.45-7,5.61-8.59,6.29-.47-1.13-1.2-5.88.73-5.24-1-9.39,1.39-1.87-3.65-7.17-8.46-3.87-6.64-8.85a13.83,13.83,0,0,1,7-8c2.24-1.25,11.57-9.62,16.25-7.75s9.84,2,12,.46,7.9-1.8,6.73-5.56-3.81-5.18-7-5.46-7.23-2.69-7.72-4.9,1-2.71-2.84-6.83a33.48,33.48,0,0,1-6-8.64c-.86-1.69-2.56-6.9-2.93-16.38s2.08-10.3-1.24-12.22-1.66-6-.46-9,6-5.59,3.11-9.55.56-4.33-2.65-7.48l-3.27-2.68a23.92,23.92,0,0,1-3.67-3.24c-.78-1.1-3.67-2.17-5.32-2.08a78.06,78.06,0,0,1-13.9-1.83c-3.48-1-8.32,4.12-12,4.54s-5.6.09-3.64,4.94-.26,6.4,2.09,8.92,3.59,8.7,2.42,11S184.24,112.32,182,117.5s-4.13,6.68-6.64,7.22-7.76,4.8-8.37,7.77.31,7.07-.44,8.09-1.63,3.28-5,5-13.65,4.93-15.88,6.18-9.17,2.44-13.53,7.65-7.36,1.41-10.52,10.67-7.93,7.56-6,12.42,5.32,19.19,2.18,23.46-9.64,13.42-11.13,17.58-1.51,13.1-3.78,16.16-5.44,7-5.59,10.1,1.57,10.37,4,12.72,7.31,10.41,8,14.08,7.16,11.34,13.55,15.53,7,8,11.63,7.79,3.29-2.32,1-6.37-.29-4.95-4.32-10.55-3.1-1.5-4.35-7.68-.76-10,2.48-14.77,6-8.17,7.83-11.33,9.77-7.52,19.8-8.28,3.14,5.73,15.77,6.1,13.57,12.65,25.9,9.11,12.52-9.46,17.25-12.28,20.71,21.87,31.18,18,7.14,3.15,15-5.3,13.54-10.53,11.08-18.93S270.5,221.25,267.53,216.69Z"/><path class="cls-9" d="M285.4,107.7c-1.21-5.41-.51-11.74-3.49-16.64a13.53,13.53,0,0,0-12.46-6.54c-4.9.37-10.65,4.57-13.32,8.51-1.42,2.1-2.57,4.37-1.5,6.84.66,1.53,6.63,4.83,5.91,6.75-2.85,7.77,7.12,15,3.69,22.6-1,2.09-3.14,2.58-4.31,4.4-3.07,4.82-2.56,12.83,0,17.75,1,1.9,4.11,6.32,6.89,5.14,2.23-.95,1-4.1,1.76-5.8,3.5-7.74,10.74-15.35,17.44-20.36,3.08-2.3,5.16-4.45,5.91-6.8,1.29-4-1.57-7.31-3.64-10.53C287.21,111.35,285.85,109.68,285.4,107.7Z"/></g><path class="cls-10" d="M28.08,96.17c3.65-4.36,9.36-4.24,14.07-6.63,6.28-3.2,4.33-11.08,9.63-13.92,3.73-2,8.41.72,12.25-1.51,2.65-1.56,3.46-5.15,4-7s4.6-3.58,6.46-4.21,6.14.21,7.49-1.68,6.65,3,11.24,1.69c6.73-2-1.4-8.52-3.54-11-6.48-7.46,3.62-10.94,8.88-14,5.49-3.25,9.31-6.53,10.77-13.07.81-3.6,7-4.22,9.73-5.56,3.79-1.9,6.1-6,10.6-6.53,5.32-.59,23,2.69,21.48-7.58a8.12,8.12,0,0,1,0-2.14A184.4,184.4,0,0,0,19.83,101C23.29,99.68,26.69,97.83,28.08,96.17Z"/><path class="cls-10" d="M213.19,2.28c1.93,1.5,4.24,2.93,4.21,5-.09,3.8-3.17,4.15-6.22,5.27-5.83,2.14-12,5.76-14.77,11.79a5.46,5.46,0,0,0,.51.88c1.78,2.45,4.91,2.71,7.72,2.57,4.32-.22,8.55-1,12.89-.74,4.85.3,9.6,1.16,14.41,1.75,8.54,1,17.47-.16,25.87,1.89,7.35,1.8,11.59,7.06,15.8,13,5.17,7.37,9.57,14.11,17.86,18.21,7.07,3.5,12.24,6.85,15.23,14.42,3.8,9.58,10.49,16.41,16.16,24.81,2.32,3.44,4.55,7.1,5.36,11.23s-1.41,8.93-3,12.72a.89.89,0,0,1-1.06.61,35.37,35.37,0,0,1-7.26-2.18c-.27,2.44-.85,5-2.85,6.62l-.25.16c1.14,1.78,2,3.3,2,4.11-.1,2.08,1.23,4.51,1.08,6.32s-1.17,8.71,2.05,10.84,3.29,6.26,4.87,6.71,3.38,3.2,6.52-4.29-.79-6.08,3.12-7.5,5.61,1.49,4.48,5-2.08,4.45-.76,6.86,1,9.63-1,12.42-4.32,8.77-2.28,12.19-.39,5.69-1.65,7.4-4.61,6.89-3.85,9.12,2.36,5.57,4.55,6.47,6.25,2.23,8.67-.07,3.75-7,8-6.56,8.64-4.89,12.07-9.54c3.29-4.46,1.75-10.71,6.65-13.43C364.53,88,298.62,15.78,213.19,2.28Z"/><path class="cls-10" d="M354.55,225.32a23.45,23.45,0,0,1-8.37,12c-1.76,1.1-2.12,6.11-2.77,10.89s1,26.57,1,26.57l.22.14a183,183,0,0,0,20.66-56.48C362.55,218.84,356,220.31,354.55,225.32Z"/><path class="cls-10" d="M265.61,214.68c-3-4.62-7.43-4.41-6.52-8.55s-.27-7.95-2-9.23-2.52-8.54-6.13-2.92-5.75,7.79-7.54,9.14-1.14,2.63-2.71,6.55-7.14,5.68-8.71,6.39-.5-1.16-1.22-6,.75-5.34-1-9.54,1.41-1.9-3.71-7.28-8.59-3.92-6.73-9a14,14,0,0,1,7.06-8.15c2.27-1.26,11.75-9.76,16.5-7.87s10,2,12.21.47,8-1.82,6.83-5.65-3.86-5.26-7.13-5.53-7.34-2.74-7.82-5,1-2.76-2.89-6.95a33.73,33.73,0,0,1-6.08-8.76c-.89-1.72-2.61-7-3-16.62s2.12-10.47-1.26-12.41-1.67-6.06-.45-9.16S239.42,93,236.5,89s.57-4.4-2.68-7.59l-3.33-2.73a24.7,24.7,0,0,1-3.72-3.27c-.79-1.12-3.72-2.21-5.4-2.12a79.16,79.16,0,0,1-14.12-1.86c-3.54-1-8.43,4.19-12.22,4.61s-5.67.09-3.7,5-.24,6.49,2.14,9.06,3.64,8.82,2.46,11.17-14.87,7.46-17.15,12.72-4.2,6.79-6.73,7.33-7.88,4.87-8.5,7.89.31,7.18-.46,8.21-1.65,3.33-5.07,5.07-13.86,5-16.12,6.28-9.32,2.48-13.74,7.77-7.47,1.43-10.67,10.82-8.06,7.68-6.09,12.62,5.39,19.47,2.2,23.8-9.78,13.62-11.3,17.84-1.52,13.3-3.83,16.42-5.53,7.14-5.67,10.23,1.57,10.53,4.09,12.91,7.44,10.57,8.16,14.3,7.27,11.51,13.75,15.76,7.08,8.16,11.81,7.91,3.33-2.36,1-6.47-.29-5-4.38-10.7-3.15-1.54-4.41-7.8-.76-10.19,2.51-15,6.12-8.3,7.94-11.51,9.92-7.64,20.1-8.41,3.19,5.82,16,6.2,13.77,12.83,26.29,9.25,12.7-9.6,17.5-12.47,21,22.2,31.65,18.28,7.25,3.22,15.19-5.37S273.8,244.5,271.28,236,268.62,219.3,265.61,214.68Z"/><path class="cls-10" d="M284,102.51c-1.24-5.48-.51-11.93-3.54-16.88A13.73,13.73,0,0,0,267.84,79c-5,.39-10.81,4.64-13.53,8.64-1.43,2.14-2.62,4.44-1.53,6.94.68,1.57,6.74,4.91,6,6.87-2.91,7.87,7.21,15.25,3.73,22.93-1,2.12-3.19,2.61-4.37,4.47-3.11,4.87-2.6,13,0,18,1,1.92,4.17,6.42,7,5.22,2.27-1,1-4.18,1.78-5.88,3.55-7.87,10.91-15.58,17.71-20.68,3.12-2.33,5.24-4.51,6-6.91,1.32-4.1-1.6-7.39-3.69-10.68C285.86,106.21,284.47,104.52,284,102.51Z"/><g class="cls-11"><path class="cls-10" d="M29.66,94.49c4.34-4,6.7-8.57,9.13-13.89C41.36,75,43.9,69,48.23,64.47A100.21,100.21,0,0,1,63.92,51.64C70.66,47,77.79,42.58,83.86,37c2.51-2.32,3.93-5.21,6.06-7.82,1.91-2.34,3.93-4.6,6.06-6.74A185.08,185.08,0,0,0,19.83,101a38.61,38.61,0,0,0,4.25-2A56.39,56.39,0,0,0,29.66,94.49Z"/><path class="cls-10" d="M337.18,204.22c-3-1.14-4.21-4.29-3.93-7.34.37-3.9,1.61-6.77,4.64-9.29,4.86-4.05.71-10.71,1.55-16.16,1-6.87,6.54-12.64,4.72-19.94-1.53-6.12-5.46-11.11-8.33-16.62-4.1,3.39-8,7-10.69,11.68a.87.87,0,0,1-1.49,0c-2.15-4.87-7.36-13.2-.7-16.54,2.08-1,4.47-1.35,6.54-2.45,2.66-1.41,3.89-3.94,4.69-6.77,1.22-4.35,1.74-8.81,2.6-13.21-4.47.31-6.19-.25-9.41-4.32C323,97.73,321,90.61,317.58,84.5a55.77,55.77,0,0,1-4.5-10.41c-.91-2.86-1.4-6.45-3-9-1.06-1.77-3.52-1.78-5.32-2.38a32.42,32.42,0,0,1-8.16-3.9c-3.2-2.21-6.14-4.7-9.15-7.14-2.8-2.27-5.83-4.29-8.23-7-4.89-5.48-8.72-14.08-15.72-17.11-7.63-3.3-15.78-.66-23.74-1.12S223.65,25.1,216.14,22a.92.92,0,0,1-.54-1.28c1.44-3.35,7.93-10.84,4.05-14.19-1.8-1.56-4-2.48-5.59-4.1l-.87-.15c1.93,1.5,4.24,2.93,4.21,5-.09,3.8-3.17,4.15-6.22,5.27-5.83,2.14-12,5.76-14.77,11.79a5.46,5.46,0,0,0,.51.88c1.78,2.45,4.91,2.71,7.72,2.57,4.32-.22,8.55-1,12.89-.74,4.85.3,9.6,1.16,14.41,1.75,8.54,1,17.47-.16,25.87,1.89,7.35,1.8,11.59,7.06,15.8,13,5.17,7.37,9.57,14.11,17.86,18.21,7.07,3.5,12.24,6.85,15.23,14.42,3.8,9.58,10.49,16.41,16.16,24.81,2.32,3.44,4.55,7.1,5.36,11.23s-1.41,8.93-3,12.72a.89.89,0,0,1-1.06.61,35.37,35.37,0,0,1-7.26-2.18c-.27,2.44-.85,5-2.85,6.62l-.25.16c1.14,1.78,2,3.3,2,4.11-.1,2.08,1.23,4.51,1.08,6.32s-1.17,8.71,2.05,10.84,3.29,6.26,4.87,6.71,3.38,3.2,6.52-4.29-.79-6.08,3.12-7.5,5.61,1.49,4.48,5-2.08,4.45-.76,6.86,1,9.63-1,12.42-4.32,8.77-2.28,12.19-.39,5.69-1.65,7.4-4.61,6.89-3.85,9.12,2.36,5.57,4.55,6.47,6.25,2.23,8.67-.07a21.15,21.15,0,0,0,2.36-3.05C341.82,204.12,339.52,205.12,337.18,204.22Z"/><path class="cls-10" d="M347.34,263.69c1.63-6-4.71-12.66,0-18.14,1.88-2.21,4.29-3.52,6.76-5,3.92-2.27,5.59-4.64,7.39-8.73A27.67,27.67,0,0,1,362.9,229c.87-3.51,1.68-7,2.36-10.6-2.71.4-9.29,1.87-10.71,6.88a23.45,23.45,0,0,1-8.37,12c-1.76,1.1-2.12,6.11-2.77,10.89-.5,3.62.33,17,.75,23.26C345.19,268.65,346.76,265.81,347.34,263.69Z"/><path class="cls-10" d="M120,291.59c-2.67-2.44-7.58-6.58-7.58-10.65,0-1.47.45-2.9.45-4.37,0-2.51-2.15-4.53-3.7-6.27-2.2-2.47-4.1-5-6.14-7.65-3.3-4.2-5.27-8.43-4.07-13.86,1.43-6.31,5.75-11,8.28-16.83,2.73-6.23,1.64-13.59,5.08-19.47,3.07-5.19,9.76-9.16,11.26-15.13,1.67-6.66-2.76-11.77-3.8-18-1.45-8.65,3.44-15.5,10.89-19.25a34.77,34.77,0,0,0,8.09-5,30.39,30.39,0,0,1,4.76-4c4.37-2.57,10-3.28,14.94-4.29,4.06-.83,7.74-1.69,11.86-.77.82.19,4.51,1.47,4.81,0,.51-2.44-.28-5.24-1-7.59-1.75-5.92-3.78-9.23,2-13.34,8-5.72,12.6-15.52,21.5-20a12.25,12.25,0,0,1,4.51-1,10.17,10.17,0,0,0,2.48-.35c2.39-.89,1-5.24.07-6.16-1.3-1.31-4.91-4.41-3.26-6.69s5-4,2.1-7c-1.24-1.34-2.59-2.55-3.8-3.9s-2-3.32-.69-4.73c2-2.12,5.62-1.84,8.25-1.68a25.32,25.32,0,0,0,7.66-.69,58.74,58.74,0,0,1-7.73-1.33c-3.54-1-8.43,4.19-12.22,4.61s-5.67.09-3.7,5-.24,6.49,2.14,9.06,3.64,8.82,2.46,11.17-14.87,7.46-17.15,12.72-4.2,6.79-6.73,7.33-7.88,4.87-8.5,7.89.31,7.18-.46,8.21-1.65,3.33-5.07,5.07-13.86,5-16.12,6.28-9.32,2.48-13.74,7.77-7.47,1.43-10.67,10.82-8.06,7.68-6.09,12.62,5.39,19.47,2.2,23.8-9.78,13.62-11.3,17.84-1.52,13.3-3.83,16.42-5.53,7.14-5.67,10.23,1.57,10.53,4.09,12.91,7.44,10.57,8.16,14.3,7.27,11.51,13.75,15.76c3.69,2.41,5.46,4.71,7.18,6.2A62.37,62.37,0,0,0,120,291.59Z"/><path class="cls-10" d="M249.34,256.31c-5-.09-9.14,3.42-13.9-.11a41.78,41.78,0,0,1-11.29-13c-1-1.81-1.62-4-3.54-5.1a41.78,41.78,0,0,0-9.26-3.8c-8.86-2.37-8.58,5.06-12,10.68-2.08,3.44-5.77,6.82-10.07,6.39-2.7-.25-5.37-.84-8.08-1,4,3.18,7.35,6.37,14.5,4.32,12.53-3.58,12.7-9.6,17.5-12.47s21,22.2,31.65,18.28c7.55-2.78,8.05,0,10.53-1.23C253.69,257.82,252,256.36,249.34,256.31Z"/><path class="cls-10" d="M263,148.5c-2.47-2.76-2.82-7.17-3.3-10.66-.46-3.29,0-5.41,2.29-7.86,2.54-2.76,8.16-7.17,6.24-11.36-2.2-4.79-2.94-9.42-3.35-14.65-.28-3.6-.52-7.59-2.69-10.66-.82-1.15-2.49-2.38-3.09-3.72-1.08-2.43-.29-5.26,1.37-7.8a22.12,22.12,0,0,0-6.18,5.83c-1.43,2.14-2.62,4.44-1.53,6.94.68,1.57,6.74,4.91,6,6.87-2.91,7.87,7.21,15.25,3.73,22.93-1,2.12-3.19,2.61-4.37,4.47-3.11,4.87-2.6,13,0,18,1,1.92,4.17,6.42,7,5.22a2.08,2.08,0,0,0,1.11-1.07A13,13,0,0,1,263,148.5Z"/></g><path class="cls-12" d="M43.18,281.6C18.27,242.25,9.71,207.85,8,181.46a.93.93,0,0,0,0-.25A167.88,167.88,0,0,1,6.82,156c-4.81,27.54-5,71,22.69,118.91,46.86,80.9,134.2,93.63,178.18,86.11C207.69,361,101,373,43.18,281.6Z"/></g></g></g></svg>