<svg  viewBox="0 0 369 369" fill="none" xmlns="http://www.w3.org/2000/svg">
<g clip-path="url(#clip0_47_201)">
<path d="M368.43 184.22C368.43 286 286 368.45 184.22 368.45C82.44 368.45 0 286 0 184.22C0 135.362 19.4088 88.5047 53.9568 53.9568C88.5047 19.4088 135.362 0 184.22 0C286 0 368.43 82.48 368.43 184.22Z" fill="url(#paint0_radial_47_201)"/>
<path style="mix-blend-mode:multiply" d="M184.22 0C135.362 0 88.5047 19.4088 53.9568 53.9568C19.4088 88.5047 0 135.362 0 184.22C0 286 82.47 368.45 184.22 368.45C285.97 368.45 368.43 286 368.43 184.22C368.43 82.44 286 0 184.22 0ZM170.47 318.61C140.315 318.614 110.837 309.676 85.7623 292.926C60.6878 276.175 41.1435 252.366 29.6011 224.508C18.0587 196.65 15.0366 165.994 20.917 136.419C26.7975 106.843 41.3163 79.6755 62.6374 58.3516C83.9585 37.0277 111.124 22.5053 140.699 16.6209C170.274 10.7366 200.93 13.7547 228.789 25.2934C256.649 36.8322 280.461 56.3733 297.214 81.4457C313.968 106.518 322.91 135.995 322.91 166.15C322.911 186.17 318.969 205.994 311.309 224.491C303.649 242.987 292.421 259.794 278.266 273.951C264.11 288.109 247.305 299.339 228.809 307.002C210.314 314.664 190.49 318.609 170.47 318.61Z" fill="url(#paint1_radial_47_201)"/>
<g style="mix-blend-mode:multiply">
<path d="M30.53 99.17C34.12 94.88 39.77 95 44.4 92.63C50.57 89.49 48.66 81.72 53.89 78.93C57.55 76.93 62.17 79.63 65.96 77.44C68.58 75.9 69.38 72.37 69.85 70.56C70.32 68.75 74.38 67.03 76.22 66.41C78.06 65.79 82.22 66.62 83.58 64.74C84.94 62.86 90.16 67.74 94.67 66.42C101.3 64.49 93.3 58.02 91.18 55.57C84.8 48.2 94.75 44.79 99.93 41.72C105.34 38.52 109.12 35.29 110.54 28.85C111.33 25.3 117.48 24.7 120.12 23.37C123.86 21.5 126.12 17.42 130.56 16.94C135.82 16.36 153.23 19.59 151.74 9.46998C151.64 8.81998 151.04 3.70998 151.13 2.97998C94.49 13.25 43.23 54.94 18 104.7C21.42 103.37 29.16 100.8 30.53 99.17Z" fill="url(#paint2_radial_47_201)"/>
<path d="M212.67 2.17999C214.57 3.65999 217.1 9.55999 217.05 11.55C216.97 15.29 213.95 15.64 210.93 16.74C205.18 18.85 199.07 22.41 196.36 28.36C196.516 28.657 196.689 28.9443 196.88 29.22C198.64 31.63 201.72 31.89 204.47 31.75C208.74 31.54 212.9 30.75 217.2 31.03C221.97 31.33 226.64 32.18 231.38 32.75C239.79 33.75 248.58 32.59 256.86 34.62C264.1 36.39 268.29 41.62 272.43 47.47C277.54 54.72 281.86 61.37 290.02 65.41C297.02 68.85 302.08 72.17 305.02 79.62C308.75 89.05 315.34 95.78 320.94 104.06C323.23 107.45 325.41 111.06 326.22 115.12C327.03 119.18 324.82 123.91 323.28 127.66C323.213 127.876 323.066 128.058 322.869 128.17C322.672 128.281 322.44 128.313 322.22 128.26C319.768 127.791 317.371 127.067 315.07 126.1C314.8 128.52 314.23 131.1 312.26 132.62L312.03 132.79C313.13 134.55 314.03 136.03 313.98 136.84C313.88 138.9 315.19 141.28 315.05 143.06C314.91 144.84 313.91 151.65 317.05 153.74C320.19 155.83 320.29 159.9 321.85 160.35C323.41 160.8 325.18 163.51 328.27 156.12C331.36 148.73 327.5 150.12 331.36 148.74C335.22 147.36 336.87 150.21 335.76 153.63C334.65 157.05 333.71 158.02 335.01 160.4C336.31 162.78 336.01 169.88 334.01 172.62C332.01 175.36 329.75 181.27 331.76 184.62C333.77 187.97 331.37 190.24 330.14 191.91C328.91 193.58 325.6 198.71 326.34 200.91C327.08 203.11 328.65 206.39 330.82 207.29C332.99 208.19 336.99 209.48 339.36 207.23C341.73 204.98 343.07 200.29 347.21 200.75C351.35 201.21 355.71 195.94 359.1 191.36C362.34 186.96 360.83 180.8 365.65 178.13C362 91.12 296.85 15.48 212.67 2.17999Z" fill="url(#paint3_radial_47_201)"/>
<path d="M352.18 226.42C350.755 231.142 347.862 235.286 343.92 238.25C342.19 239.32 342.23 244.33 341.19 248.96C338.85 259.51 344.46 274.83 344.6 274.96C354.25 257.96 358.99 239.56 362.73 219.67C360.06 220 353.58 221.48 352.18 226.42Z" fill="url(#paint4_radial_47_201)"/>
<path d="M267.53 216.69C264.58 212.14 260.22 212.34 261.11 208.26C262 204.18 260.84 200.42 259.11 199.17C257.38 197.92 256.62 190.75 253.11 196.3C249.6 201.85 247.45 203.96 245.68 205.3C243.91 206.64 244.55 207.89 243.02 211.75C241.49 215.61 236.02 217.36 234.43 218.04C232.84 218.72 233.96 216.91 233.23 212.16C232.5 207.41 233.96 206.92 232.23 202.77C230.5 198.62 233.62 200.9 228.58 195.6C223.54 190.3 220.12 191.73 221.94 186.75C222.521 185.021 223.439 183.424 224.641 182.051C225.842 180.678 227.303 179.556 228.94 178.75C231.18 177.5 240.51 169.13 245.19 171C249.87 172.87 255.03 173 257.19 171.46C259.35 169.92 265.09 169.66 263.92 165.9C262.75 162.14 260.11 160.72 256.92 160.44C253.73 160.16 249.69 157.75 249.2 155.54C248.71 153.33 250.2 152.83 246.36 148.71C243.917 146.164 241.892 143.248 240.36 140.07C239.5 138.38 237.8 133.17 237.43 123.69C237.06 114.21 239.51 113.39 236.19 111.47C232.87 109.55 234.53 105.47 235.73 102.47C236.93 99.47 241.73 96.88 238.84 92.92C235.95 88.96 239.4 88.59 236.19 85.44L232.92 82.76C231.589 81.8083 230.359 80.7226 229.25 79.52C228.47 78.42 225.58 77.35 223.93 77.44C219.251 77.2481 214.599 76.6357 210.03 75.61C206.55 74.61 201.71 79.73 198.03 80.15C194.35 80.57 192.43 80.24 194.39 85.09C196.35 89.94 194.13 91.49 196.48 94.01C198.83 96.53 200.07 102.71 198.9 105.01C197.73 107.31 184.24 112.32 182 117.5C179.76 122.68 177.87 124.18 175.36 124.72C172.85 125.26 167.6 129.52 166.99 132.49C166.38 135.46 167.3 139.56 166.55 140.58C165.8 141.6 164.92 143.86 161.55 145.58C158.18 147.3 147.9 150.51 145.67 151.76C143.44 153.01 136.5 154.2 132.14 159.41C127.78 164.62 124.78 160.82 121.62 170.08C118.46 179.34 113.69 177.64 115.62 182.5C117.55 187.36 120.94 201.69 117.8 205.96C114.66 210.23 108.16 219.38 106.67 223.54C105.18 227.7 105.16 236.64 102.89 239.7C100.62 242.76 97.45 246.7 97.3 249.8C97.15 252.9 98.87 260.17 101.3 262.52C103.73 264.87 108.61 272.93 109.3 276.6C109.99 280.27 116.46 287.94 122.85 292.13C129.24 296.32 129.85 300.13 134.48 299.92C139.11 299.71 137.77 297.6 135.48 293.55C133.19 289.5 135.19 288.6 131.16 283C127.13 277.4 128.06 281.5 126.81 275.32C125.56 269.14 126.05 265.32 129.29 260.55C132.53 255.78 135.29 252.38 137.12 249.22C138.95 246.06 146.89 241.7 156.92 240.94C166.95 240.18 160.06 246.67 172.69 247.04C185.32 247.41 186.26 259.69 198.59 256.15C210.92 252.61 211.11 246.69 215.84 243.87C220.57 241.05 236.55 265.74 247.02 261.87C257.49 258 254.16 265.02 262.02 256.57C269.88 248.12 275.56 246.04 273.1 237.64C270.64 229.24 270.5 221.25 267.53 216.69Z" fill="url(#paint5_radial_47_201)"/>
<path d="M285.4 107.7C284.19 102.29 284.89 95.96 281.91 91.06C280.633 88.9319 278.795 87.1961 276.597 86.0427C274.399 84.8892 271.927 84.3624 269.45 84.52C264.55 84.89 258.8 89.09 256.13 93.03C254.71 95.13 253.56 97.4 254.63 99.87C255.29 101.4 261.26 104.7 260.54 106.62C257.69 114.39 267.66 121.62 264.23 129.22C263.23 131.31 261.09 131.8 259.92 133.62C256.85 138.44 257.36 146.45 259.92 151.37C260.92 153.27 264.03 157.69 266.81 156.51C269.04 155.56 267.81 152.41 268.57 150.71C272.07 142.97 279.31 135.36 286.01 130.35C289.09 128.05 291.17 125.9 291.92 123.55C293.21 119.55 290.35 116.24 288.28 113.02C287.21 111.35 285.85 109.68 285.4 107.7Z" fill="url(#paint6_radial_47_201)"/>
</g>
<path d="M28.08 96.17C31.73 91.81 37.44 91.93 42.15 89.54C48.43 86.34 46.48 78.46 51.78 75.62C55.51 73.62 60.19 76.34 64.03 74.11C66.68 72.55 67.49 68.96 68.03 67.11C68.57 65.26 72.63 63.53 74.49 62.9C76.35 62.27 80.63 63.11 81.98 61.22C83.33 59.33 88.63 64.22 93.22 62.91C99.95 60.91 91.82 54.39 89.68 51.91C83.2 44.45 93.3 40.97 98.56 37.91C104.05 34.66 107.87 31.38 109.33 24.84C110.14 21.24 116.33 20.62 119.06 19.28C122.85 17.38 125.16 13.28 129.66 12.75C134.98 12.16 152.66 15.44 151.14 5.17C151.046 4.45979 151.046 3.74021 151.14 3.03C123.183 8.13714 96.7855 19.637 74.0074 36.6316C51.2294 53.6262 32.6877 75.6557 19.83 101C23.29 99.68 26.69 97.83 28.08 96.17Z" fill="#B7CE39"/>
<path d="M213.19 2.28C215.12 3.78 217.43 5.21 217.4 7.28C217.31 11.08 214.23 11.43 211.18 12.55C205.35 14.69 199.18 18.31 196.41 24.34C196.552 24.6486 196.723 24.9432 196.92 25.22C198.7 27.67 201.83 27.93 204.64 27.79C208.96 27.57 213.19 26.79 217.53 27.05C222.38 27.35 227.13 28.21 231.94 28.8C240.48 29.8 249.41 28.64 257.81 30.69C265.16 32.49 269.4 37.75 273.61 43.69C278.78 51.06 283.18 57.8 291.47 61.9C298.54 65.4 303.71 68.75 306.7 76.32C310.5 85.9 317.19 92.73 322.86 101.13C325.18 104.57 327.41 108.23 328.22 112.36C329.03 116.49 326.81 121.29 325.22 125.08C325.155 125.298 325.009 125.482 324.811 125.596C324.614 125.709 324.381 125.743 324.16 125.69C321.669 125.226 319.235 124.495 316.9 123.51C316.63 125.95 316.05 128.51 314.05 130.13L313.8 130.29C314.94 132.07 315.8 133.59 315.8 134.4C315.7 136.48 317.03 138.91 316.88 140.72C316.73 142.53 315.71 149.43 318.93 151.56C322.15 153.69 322.22 157.82 323.8 158.27C325.38 158.72 327.18 161.47 330.32 153.98C333.46 146.49 329.53 147.9 333.44 146.48C337.35 145.06 339.05 147.97 337.92 151.48C336.79 154.99 335.84 155.93 337.16 158.34C338.48 160.75 338.16 167.97 336.16 170.76C334.16 173.55 331.84 179.53 333.88 182.95C335.92 186.37 333.49 188.64 332.23 190.35C330.97 192.06 327.62 197.24 328.38 199.47C329.14 201.7 330.74 205.04 332.93 205.94C335.12 206.84 339.18 208.17 341.6 205.87C344.02 203.57 345.35 198.87 349.6 199.31C353.85 199.75 358.24 194.42 361.67 189.77C364.96 185.31 363.42 179.06 368.32 176.34C364.53 88 298.62 15.78 213.19 2.28Z" fill="#B7CE39"/>
<path d="M354.55 225.32C353.111 230.11 350.178 234.315 346.18 237.32C344.42 238.42 344.06 243.43 343.41 248.21C342.76 252.99 344.41 274.78 344.41 274.78L344.63 274.92C354.584 257.362 361.565 238.277 365.29 218.44C362.55 218.84 356 220.31 354.55 225.32Z" fill="#B7CE39"/>
<path d="M265.61 214.68C262.61 210.06 258.18 210.27 259.09 206.13C260 201.99 258.82 198.18 257.09 196.9C255.36 195.62 254.57 188.36 250.96 193.98C247.35 199.6 245.21 201.77 243.42 203.12C241.63 204.47 242.28 205.75 240.71 209.67C239.14 213.59 233.57 215.35 232 216.06C230.43 216.77 231.5 214.9 230.78 210.06C230.06 205.22 231.53 204.72 229.78 200.52C228.03 196.32 231.19 198.62 226.07 193.24C220.95 187.86 217.48 189.32 219.34 184.24C219.92 182.482 220.842 180.857 222.054 179.458C223.266 178.059 224.743 176.914 226.4 176.09C228.67 174.83 238.15 166.33 242.9 168.22C247.65 170.11 252.9 170.22 255.11 168.69C257.32 167.16 263.11 166.87 261.94 163.04C260.77 159.21 258.08 157.78 254.81 157.51C251.54 157.24 247.47 154.77 246.99 152.51C246.51 150.25 247.99 149.75 244.1 145.56C241.622 142.981 239.569 140.024 238.02 136.8C237.13 135.08 235.41 129.8 235.02 120.18C234.63 110.56 237.14 109.71 233.76 107.77C230.38 105.83 232.09 101.71 233.31 98.61C234.53 95.51 239.42 93 236.5 89C233.58 85 237.07 84.6 233.82 81.41L230.49 78.68C229.144 77.7174 227.897 76.6219 226.77 75.41C225.98 74.29 223.05 73.2 221.37 73.29C216.617 73.0956 211.891 72.473 207.25 71.43C203.71 70.43 198.82 75.62 195.03 76.04C191.24 76.46 189.36 76.13 191.33 81.04C193.3 85.95 191.09 87.53 193.47 90.1C195.85 92.67 197.11 98.92 195.93 101.27C194.75 103.62 181.06 108.73 178.78 113.99C176.5 119.25 174.58 120.78 172.05 121.32C169.52 121.86 164.17 126.19 163.55 129.21C162.93 132.23 163.86 136.39 163.09 137.42C162.32 138.45 161.44 140.75 158.02 142.49C154.6 144.23 144.16 147.49 141.9 148.77C139.64 150.05 132.58 151.25 128.16 156.54C123.74 161.83 120.69 157.97 117.49 167.36C114.29 176.75 109.43 175.04 111.4 179.98C113.37 184.92 116.79 199.45 113.6 203.78C110.41 208.11 103.82 217.4 102.3 221.62C100.78 225.84 100.78 234.92 98.47 238.04C96.16 241.16 92.94 245.18 92.8 248.27C92.66 251.36 94.37 258.8 96.89 261.18C99.41 263.56 104.33 271.75 105.05 275.48C105.77 279.21 112.32 286.99 118.8 291.24C125.28 295.49 125.88 299.4 130.61 299.15C135.34 298.9 133.94 296.79 131.61 292.68C129.28 288.57 131.32 287.68 127.23 281.98C123.14 276.28 124.08 280.44 122.82 274.18C121.56 267.92 122.06 263.99 125.33 259.18C128.6 254.37 131.45 250.88 133.27 247.67C135.09 244.46 143.19 240.03 153.37 239.26C163.55 238.49 156.56 245.08 169.37 245.46C182.18 245.84 183.14 258.29 195.66 254.71C208.18 251.13 208.36 245.11 213.16 242.24C217.96 239.37 234.16 264.44 244.81 260.52C255.46 256.6 252.06 263.74 260 255.15C267.94 246.56 273.8 244.5 271.28 236C268.76 227.5 268.62 219.3 265.61 214.68Z" fill="#B7CE39"/>
<path d="M284 102.51C282.76 97.03 283.49 90.58 280.46 85.63C279.165 83.4755 277.303 81.7179 275.078 80.5488C272.853 79.3797 270.349 78.8439 267.84 79C262.84 79.39 257.03 83.64 254.31 87.64C252.88 89.78 251.69 92.08 252.78 94.58C253.46 96.15 259.52 99.49 258.78 101.45C255.87 109.32 265.99 116.7 262.51 124.38C261.51 126.5 259.32 126.99 258.14 128.85C255.03 133.72 255.54 141.85 258.14 146.85C259.14 148.77 262.31 153.27 265.14 152.07C267.41 151.07 266.14 147.89 266.92 146.19C270.47 138.32 277.83 130.61 284.63 125.51C287.75 123.18 289.87 121 290.63 118.6C291.95 114.5 289.03 111.21 286.94 107.92C285.86 106.21 284.47 104.52 284 102.51Z" fill="#B7CE39"/>
<g style="mix-blend-mode:screen">
<path d="M29.66 94.49C34 90.49 36.36 85.92 38.79 80.6C41.36 75 43.9 69 48.23 64.47C53.0129 59.6741 58.2698 55.3754 63.92 51.64C70.66 47 77.79 42.58 83.86 37C86.37 34.68 87.79 31.79 89.92 29.18C91.83 26.84 93.85 24.58 95.98 22.44C63.2597 40.3542 36.7163 67.7376 19.83 101C21.2859 100.42 22.7052 99.7523 24.08 99C26.0338 97.6166 27.8976 96.1103 29.66 94.49Z" fill="#B7CE39"/>
<path d="M337.18 204.22C334.18 203.08 332.97 199.93 333.25 196.88C333.62 192.98 334.86 190.11 337.89 187.59C342.75 183.54 338.6 176.88 339.44 171.43C340.44 164.56 345.98 158.79 344.16 151.49C342.63 145.37 338.7 140.38 335.83 134.87C331.73 138.26 327.83 141.87 325.14 146.55C325.063 146.678 324.953 146.785 324.823 146.858C324.692 146.932 324.545 146.971 324.395 146.971C324.245 146.971 324.098 146.932 323.967 146.858C323.837 146.785 323.727 146.678 323.65 146.55C321.5 141.68 316.29 133.35 322.95 130.01C325.03 129.01 327.42 128.66 329.49 127.56C332.15 126.15 333.38 123.62 334.18 120.79C335.4 116.44 335.92 111.98 336.78 107.58C332.31 107.89 330.59 107.33 327.37 103.26C323 97.73 321 90.61 317.58 84.5C315.73 81.1919 314.222 77.7039 313.08 74.09C312.17 71.23 311.68 67.64 310.08 65.09C309.02 63.32 306.56 63.31 304.76 62.71C301.871 61.7976 299.124 60.4849 296.6 58.81C293.4 56.6 290.46 54.11 287.45 51.67C284.65 49.4 281.62 47.38 279.22 44.67C274.33 39.19 270.5 30.59 263.5 27.56C255.87 24.26 247.72 26.9 239.76 26.44C231.8 25.98 223.65 25.1 216.14 22C216.015 21.9591 215.9 21.8918 215.803 21.8026C215.706 21.7134 215.629 21.6045 215.578 21.4831C215.527 21.3618 215.502 21.2308 215.506 21.0992C215.51 20.9675 215.542 20.8382 215.6 20.72C217.04 17.37 223.53 9.88 219.65 6.53C217.85 4.97 215.65 4.05 214.06 2.43L213.19 2.28C215.12 3.78 217.43 5.21 217.4 7.28C217.31 11.08 214.23 11.43 211.18 12.55C205.35 14.69 199.18 18.31 196.41 24.34C196.552 24.6486 196.723 24.9432 196.92 25.22C198.7 27.67 201.83 27.93 204.64 27.79C208.96 27.57 213.19 26.79 217.53 27.05C222.38 27.35 227.13 28.21 231.94 28.8C240.48 29.8 249.41 28.64 257.81 30.69C265.16 32.49 269.4 37.75 273.61 43.69C278.78 51.06 283.18 57.8 291.47 61.9C298.54 65.4 303.71 68.75 306.7 76.32C310.5 85.9 317.19 92.73 322.86 101.13C325.18 104.57 327.41 108.23 328.22 112.36C329.03 116.49 326.81 121.29 325.22 125.08C325.155 125.298 325.008 125.482 324.811 125.596C324.614 125.709 324.381 125.743 324.16 125.69C321.669 125.226 319.235 124.495 316.9 123.51C316.63 125.95 316.05 128.51 314.05 130.13L313.8 130.29C314.94 132.07 315.8 133.59 315.8 134.4C315.7 136.48 317.03 138.91 316.88 140.72C316.73 142.53 315.71 149.43 318.93 151.56C322.15 153.69 322.22 157.82 323.8 158.27C325.38 158.72 327.18 161.47 330.32 153.98C333.46 146.49 329.53 147.9 333.44 146.48C337.35 145.06 339.05 147.97 337.92 151.48C336.79 154.99 335.84 155.93 337.16 158.34C338.48 160.75 338.16 167.97 336.16 170.76C334.16 173.55 331.84 179.53 333.88 182.95C335.92 186.37 333.49 188.64 332.23 190.35C330.97 192.06 327.62 197.24 328.38 199.47C329.14 201.7 330.74 205.04 332.93 205.94C335.12 206.84 339.18 208.17 341.6 205.87C342.478 204.927 343.268 203.906 343.96 202.82C341.82 204.12 339.52 205.12 337.18 204.22Z" fill="#B7CE39"/>
<path d="M347.34 263.69C348.97 257.69 342.63 251.03 347.34 245.55C349.22 243.34 351.63 242.03 354.1 240.55C358.02 238.28 359.69 235.91 361.49 231.82C361.906 230.854 362.377 229.912 362.9 229C363.77 225.49 364.58 222 365.26 218.4C362.55 218.8 355.97 220.27 354.55 225.28C353.111 230.07 350.178 234.275 346.18 237.28C344.42 238.38 344.06 243.39 343.41 248.17C342.91 251.79 343.74 265.17 344.16 271.43C345.19 268.65 346.76 265.81 347.34 263.69Z" fill="#B7CE39"/>
<path d="M120 291.59C117.33 289.15 112.42 285.01 112.42 280.94C112.42 279.47 112.87 278.04 112.87 276.57C112.87 274.06 110.72 272.04 109.17 270.3C106.97 267.83 105.07 265.3 103.03 262.65C99.73 258.45 97.76 254.22 98.96 248.79C100.39 242.48 104.71 237.79 107.24 231.96C109.97 225.73 108.88 218.37 112.32 212.49C115.39 207.3 122.08 203.33 123.58 197.36C125.25 190.7 120.82 185.59 119.78 179.36C118.33 170.71 123.22 163.86 130.67 160.11C133.583 158.822 136.305 157.139 138.76 155.11C140.206 153.617 141.801 152.277 143.52 151.11C147.89 148.54 153.52 147.83 158.46 146.82C162.52 145.99 166.2 145.13 170.32 146.05C171.14 146.24 174.83 147.52 175.13 146.05C175.64 143.61 174.85 140.81 174.13 138.46C172.38 132.54 170.35 129.23 176.13 125.12C184.13 119.4 188.73 109.6 197.63 105.12C199.056 104.504 200.587 104.164 202.14 104.12C202.978 104.106 203.811 103.988 204.62 103.77C207.01 102.88 205.62 98.53 204.69 97.61C203.39 96.3 199.78 93.2 201.43 90.92C203.08 88.64 206.43 86.92 203.53 83.92C202.29 82.58 200.94 81.37 199.73 80.02C198.52 78.67 197.73 76.7 199.04 75.29C201.04 73.17 204.66 73.45 207.29 73.61C209.864 73.7714 212.447 73.5387 214.95 72.92C212.347 72.6494 209.764 72.2051 207.22 71.59C203.68 70.59 198.79 75.78 195 76.2C191.21 76.62 189.33 76.29 191.3 81.2C193.27 86.11 191.06 87.69 193.44 90.26C195.82 92.83 197.08 99.08 195.9 101.43C194.72 103.78 181.03 108.89 178.75 114.15C176.47 119.41 174.55 120.94 172.02 121.48C169.49 122.02 164.14 126.35 163.52 129.37C162.9 132.39 163.83 136.55 163.06 137.58C162.29 138.61 161.41 140.91 157.99 142.65C154.57 144.39 144.13 147.65 141.87 148.93C139.61 150.21 132.55 151.41 128.13 156.7C123.71 161.99 120.66 158.13 117.46 167.52C114.26 176.91 109.4 175.2 111.37 180.14C113.34 185.08 116.76 199.61 113.57 203.94C110.38 208.27 103.79 217.56 102.27 221.78C100.75 226 100.75 235.08 98.44 238.2C96.13 241.32 92.91 245.34 92.77 248.43C92.63 251.52 94.34 258.96 96.86 261.34C99.38 263.72 104.3 271.91 105.02 275.64C105.74 279.37 112.29 287.15 118.77 291.4C122.46 293.81 124.23 296.11 125.95 297.6C124.105 295.464 122.117 293.456 120 291.59Z" fill="#B7CE39"/>
<path d="M249.34 256.31C244.34 256.22 240.2 259.73 235.44 256.2C230.815 252.698 226.97 248.27 224.15 243.2C223.15 241.39 222.53 239.2 220.61 238.1C217.687 236.467 214.578 235.191 211.35 234.3C202.49 231.93 202.77 239.36 199.35 244.98C197.27 248.42 193.58 251.8 189.28 251.37C186.58 251.12 183.91 250.53 181.2 250.37C185.2 253.55 188.55 256.74 195.7 254.69C208.23 251.11 208.4 245.09 213.2 242.22C218 239.35 234.2 264.42 244.85 260.5C252.4 257.72 252.9 260.5 255.38 259.27C253.69 257.82 252 256.36 249.34 256.31Z" fill="#B7CE39"/>
<path d="M263 148.5C260.53 145.74 260.18 141.33 259.7 137.84C259.24 134.55 259.7 132.43 261.99 129.98C264.53 127.22 270.15 122.81 268.23 118.62C266.03 113.83 265.29 109.2 264.88 103.97C264.6 100.37 264.36 96.38 262.19 93.31C261.37 92.16 259.7 90.93 259.1 89.59C258.02 87.16 258.81 84.33 260.47 81.79C258.053 83.3157 255.954 85.2956 254.29 87.62C252.86 89.76 251.67 92.06 252.76 94.56C253.44 96.13 259.5 99.47 258.76 101.43C255.85 109.3 265.97 116.68 262.49 124.36C261.49 126.48 259.3 126.97 258.12 128.83C255.01 133.7 255.52 141.83 258.12 146.83C259.12 148.75 262.29 153.25 265.12 152.05C265.613 151.849 266.011 151.466 266.23 150.98C265.03 150.328 263.94 149.491 263 148.5Z" fill="#B7CE39"/>
</g>
<g style="mix-blend-mode:color-dodge" opacity="0.7">
<path d="M43.18 281.6C18.27 242.25 9.70999 207.85 7.99999 181.46C8.01124 181.377 8.01124 181.293 7.99999 181.21C6.97468 172.848 6.58023 164.421 6.81999 156C2.00999 183.54 1.81999 227 29.51 274.91C76.37 355.81 163.71 368.54 207.69 361.02C207.69 361 101 373 43.18 281.6Z" fill="#C3E6F8"/>
</g>
</g>
<defs>
<radialGradient id="paint0_radial_47_201" cx="0" cy="0" r="1" gradientUnits="userSpaceOnUse" gradientTransform="translate(-39.91 136.57) scale(397.66 397.66)">
<stop stop-color="#E3F3FC"/>
<stop offset="0.47" stop-color="#1ABAEE"/>
<stop offset="0.98" stop-color="#03466C"/>
</radialGradient>
<radialGradient id="paint1_radial_47_201" cx="0" cy="0" r="1" gradientUnits="userSpaceOnUse" gradientTransform="translate(-2.30999 212.93) scale(460.2 460.2)">
<stop stop-color="#E3F3FC"/>
<stop offset="0.47" stop-color="#1ABAEE"/>
<stop offset="0.98" stop-color="#03466C"/>
</radialGradient>
<radialGradient id="paint2_radial_47_201" cx="0" cy="0" r="1" gradientUnits="userSpaceOnUse" gradientTransform="translate(84.92 53.84) scale(59.43 59.43)">
<stop stop-color="#E3F3FC"/>
<stop offset="0.47" stop-color="#1ABAEE"/>
<stop offset="0.98" stop-color="#03466C"/>
</radialGradient>
<radialGradient id="paint3_radial_47_201" cx="0" cy="0" r="1" gradientUnits="userSpaceOnUse" gradientTransform="translate(90.52 264.04) scale(356.15 356.15)">
<stop stop-color="#E3F3FC"/>
<stop offset="0.47" stop-color="#1ABAEE"/>
<stop offset="0.98" stop-color="#03466C"/>
</radialGradient>
<radialGradient id="paint4_radial_47_201" cx="0" cy="0" r="1" gradientUnits="userSpaceOnUse" gradientTransform="translate(85.2199 262.55) scale(362.76 362.76)">
<stop stop-color="#E3F3FC"/>
<stop offset="0.47" stop-color="#1ABAEE"/>
<stop offset="0.98" stop-color="#03466C"/>
</radialGradient>
<radialGradient id="paint5_radial_47_201" cx="0" cy="0" r="1" gradientUnits="userSpaceOnUse" gradientTransform="translate(93.52 263.59) scale(355.82 355.82)">
<stop stop-color="#E3F3FC"/>
<stop offset="0.47" stop-color="#1ABAEE"/>
<stop offset="0.98" stop-color="#03466C"/>
</radialGradient>
<radialGradient id="paint6_radial_47_201" cx="0" cy="0" r="1" gradientUnits="userSpaceOnUse" gradientTransform="translate(93.2899 265.05) scale(355.73 355.73)">
<stop stop-color="#E3F3FC"/>
<stop offset="0.47" stop-color="#1ABAEE"/>
<stop offset="0.98" stop-color="#03466C"/>
</radialGradient>
<clipPath id="clip0_47_201">
<rect width="368.43" height="368.45" fill="white"/>
</clipPath>
</defs>
</svg>
