<svg xmlns="http://www.w3.org/2000/svg" xmlns:xlink="http://www.w3.org/1999/xlink" viewBox="0 0 484.25 368.51"><defs><style>.cls-1{isolation:isolate;}.cls-2{fill:url(#radial-gradient);}.cls-3,.cls-4,.cls-5,.cls-7{opacity:0.3;}.cls-14,.cls-3,.cls-4,.cls-5,.cls-6,.cls-7,.cls-8,.cls-9{mix-blend-mode:screen;}.cls-3{fill:url(#radial-gradient-3);}.cls-4{fill:url(#radial-gradient-4);}.cls-5{fill:url(#radial-gradient-5);}.cls-10,.cls-13,.cls-6,.cls-8,.cls-9{opacity:0.5;}.cls-6{fill:url(#radial-gradient-6);}.cls-7{fill:url(#radial-gradient-7);}.cls-8{fill:url(#radial-gradient-8);}.cls-9{fill:url(#radial-gradient-9);}.cls-10,.cls-12{fill:#32bae6;mix-blend-mode:multiply;}.cls-11{fill:#c3e6f8;opacity:0.7;mix-blend-mode:color-dodge;}.cls-12{opacity:0.8;}.cls-13{fill:url(#radial-gradient-10);}.cls-14{fill:#44b0d6;}</style><radialGradient id="radial-gradient" cx="305.35" cy="-1042.12" r="410.81" gradientTransform="translate(-551.37 766.63) rotate(29.53)" gradientUnits="userSpaceOnUse"><stop offset="0" stop-color="#e3f3fc"/><stop offset="0.28" stop-color="#3fb9c9"/><stop offset="0.36" stop-color="#38b2c5"/><stop offset="0.46" stop-color="#269fbb"/><stop offset="0.58" stop-color="#0881aa"/><stop offset="0.6" stop-color="#047da8"/><stop offset="0.73" stop-color="#086892"/><stop offset="0.87" stop-color="#0d4e76"/></radialGradient><radialGradient id="radial-gradient-3" cx="275.28" cy="-1054.85" r="410.8" gradientTransform="translate(-551.37 766.63) rotate(29.53)" gradientUnits="userSpaceOnUse"><stop offset="0" stop-color="#e3f3fc"/><stop offset="0.28" stop-color="#3fb9c9"/><stop offset="0.36" stop-color="#38b7c7"/><stop offset="0.47" stop-color="#26b1c2"/><stop offset="0.59" stop-color="#07a7b9"/><stop offset="0.6" stop-color="#05a6b8"/><stop offset="0.68" stop-color="#078fa7"/><stop offset="0.85" stop-color="#0c567c"/><stop offset="0.87" stop-color="#0d4e76"/></radialGradient><radialGradient id="radial-gradient-4" cx="275.28" cy="-1054.86" r="410.84" xlink:href="#radial-gradient-3"/><radialGradient id="radial-gradient-5" cx="275.28" cy="-1054.85" r="410.8" xlink:href="#radial-gradient-3"/><radialGradient id="radial-gradient-6" cx="275.27" cy="-1054.85" r="410.79" xlink:href="#radial-gradient-3"/><radialGradient id="radial-gradient-7" cx="275.27" cy="-1054.86" r="410.8" xlink:href="#radial-gradient-3"/><radialGradient id="radial-gradient-8" cx="275.28" cy="-1054.81" r="410.7" xlink:href="#radial-gradient-3"/><radialGradient id="radial-gradient-9" cx="275.29" cy="-1054.82" r="410.77" xlink:href="#radial-gradient-3"/><radialGradient id="radial-gradient-10" cx="408.18" cy="-949.84" r="202.51" gradientTransform="translate(-551.37 766.63) rotate(29.53)" gradientUnits="userSpaceOnUse"><stop offset="0" stop-color="#e3f3fc"/><stop offset="0.28" stop-color="#3fb9c9"/><stop offset="0.33" stop-color="#46bbcb"/><stop offset="0.4" stop-color="#59c0cf"/><stop offset="0.48" stop-color="#77c9d7"/><stop offset="0.52" stop-color="#8ed0dd"/></radialGradient></defs><g class="cls-1"><g id="Calque_2" data-name="Calque 2"><g id="Calque_1-2" data-name="Calque 1"><path class="cls-2" d="M402.83,275.06c-50.15,88.51-162.57,119.63-251.1,69.49S32.11,182,82.26,93.45,244.82-26.18,333.35,24,453,186.53,402.83,275.06Z"/><path class="cls-2" d="M402.83,275.06c-50.15,88.51-162.57,119.63-251.1,69.49S32.11,182,82.26,93.45,244.82-26.18,333.35,24,453,186.53,402.83,275.06Z"/><path class="cls-3" d="M199,49.25c11.7,9,25.5,16,38.89,22.12a258.89,258.89,0,0,0,43.45,15.91c27,6.94,55.08,9.12,82.46,14.13,15.26,2.8,30,4.59,44.32,2.06a186,186,0,0,0-15.42-26c-3.18,3.1-6.27,6.13-9.44,7.92C371.56,91.92,356,88.22,343.4,87.1c-16.32-1.47-33.13-2.16-49.17-5.74S263,71.13,248.76,62.78c-8.07-4.69-64-34.69-63-53.76a184,184,0,0,0-29,12.24C172.92,24.61,186.56,39.69,199,49.25Z"/><path class="cls-4" d="M207.24,53.08c-9-8.5-15.39-19.47-25.6-26.64-4.95-3.47-10.07-6.63-15.08-10-3.34,1.51-6.64,3.06-9.87,4.77,16.23,3.35,29.87,18.43,42.29,28a140.64,140.64,0,0,0,15.68,10.34C212.1,57.49,209.63,55.33,207.24,53.08Z"/><path class="cls-5" d="M403.15,94.1a45.45,45.45,0,0,1-12.72,2.49c-9.59.77-19.12.14-28.72-.1-5.35-.12-10.64.16-16-.63-6.62-1-13.43-2.78-20.15-2.58-3.22.1-6.42.43-9.6.82,15.93,2.47,32,4.42,47.8,7.31,15.26,2.8,30,4.59,44.32,2.06C406.55,100.31,404.88,97.19,403.15,94.1Z"/><path class="cls-6" d="M159.11,38.59c-2.4-1.15-.22,3.33.35,4.38a54.32,54.32,0,0,0,5.17,7.68,75.87,75.87,0,0,0,9.13,10c4.27,3.7,11,5.4,16.32,6.84,4.7,1.27,10.38,3,15.44,2.38a35.63,35.63,0,0,0-2.72-2.36C187.17,60,174.74,46.15,159.11,38.59Z"/><path class="cls-7" d="M110.83,141.57c14.6,11.66,29.64,22.61,45,33.24,29,20,58.6,38.46,91,52.47,17.27,7.45,34.87,14.06,52.44,20.71,15.83,6,31.47,11.6,46,20.4,14.22,8.62,28.39,16.13,44.89,19.32,1.45.28,2.91.51,4.36.74q4.43-6.46,8.37-13.39a186.51,186.51,0,0,0,11.36-23.9c-2.23-.53-4.45-1.08-6.68-1.62-8.63-2.11-17.06-3.59-26-3.17-8.23.39-16.45,1.52-24.7,1.83-34.9,1.36-66.83-11.35-97.6-26.49a783.36,783.36,0,0,1-104.38-61.66A225.34,225.34,0,0,1,115,123.91C108.81,117,102.68,110,95.39,104.23,91,100.74,86.41,97.43,82,94q-3.9,6.93-7.13,14.05C87.12,119,97.9,131.24,110.83,141.57Z"/><path class="cls-8" d="M94.67,110.81c-4.62-.82,3.83,11,4.12,11.37,2.14,2.34,4.37,4.61,6.68,6.75,7.11,6.58,13.79,12.59,22.66,16.54a11.74,11.74,0,0,0-1.07-3.47c-6.26-7.19-13-13.89-19.79-20.58C104,118.21,99.36,111.63,94.67,110.81Z"/><path class="cls-9" d="M371.38,253.65a196.2,196.2,0,0,1-23.1.86c-1.64-.06-9.41.61-5.53,3.77a24.85,24.85,0,0,0,5.08,3.08c8.19,3.88,16.44,7.27,24.58,11.26,8.92,4.37,18.14,6.25,27.61,7.15,1-1.56,1.91-3.12,2.81-4.71,2.9-5.14,5.52-10.37,7.87-15.64-4.22-.79-8.33-2.47-12.57-3.48A85.4,85.4,0,0,0,371.38,253.65Z"/><path class="cls-10" d="M333.35,24c-88.53-50.14-201-19-251.09,69.49s-19,200.94,69.47,251.1,201,19,251.1-69.49S421.87,74.11,333.35,24Zm-169,270.44a152.46,152.46,0,1,1,207.8-57.5A152.45,152.45,0,0,1,164.33,294.4Z"/><path class="cls-11" d="M71.83,199.46C69.56,152.93,79.05,118.8,90.61,95a1.73,1.73,0,0,1,.1-.24A165.46,165.46,0,0,1,102.1,72.25C84.34,93.85,62.69,131.58,63.23,186.9c.9,93.49,70.62,147.63,112.58,162.75C175.81,349.65,77.11,307.51,71.83,199.46Z"/><path class="cls-12" d="M277.77,328.32c-33.3-1.26-65.95,11.66-98.45-1.05-17.48-6.83-33.15-17.56-47.24-29.84-13.77-12-28.92-25.39-38.37-41.21C83.87,239.74,78.52,221,67.91,205c-3-4.57-6.2-9-9.45-13.42a184.24,184.24,0,0,0,280.4,149.77C318.53,336.69,298.7,329.12,277.77,328.32Z"/><path class="cls-13" d="M417.39,242.35c-1.06,3.19-2.23,6.36-3.46,9.52,31.71,25.92,48.64,46.09,43.65,54.89s-31.05,4.65-69.7-9.3c-43.11-15.55-101.91-43.3-164.59-78.8-62.86-35.62-117-71.9-152.53-100.93C39.13,91.88,22.29,71.77,27.26,63s30.81-4.68,69.14,9.1q3.1-4,6.39-7.89C47.3,43,8.45,36.13,1.21,48.93S20,91.67,66.93,128.52c38.57,30.26,91.24,65.19,151.24,99.18,59.83,33.89,116.7,61.05,162.41,78.59,56,21.46,95.19,28.45,102.46,15.6S464.31,279.17,417.39,242.35Z"/><path class="cls-14" d="M93.41,65.14A340.47,340.47,0,0,0,55.73,52.81a140.52,140.52,0,0,0-19.42-3.69,56.15,56.15,0,0,0-9.78-.26c-3.2.28-6.52.93-8.94,2.82a7,7,0,0,0-2.45,3.65,10,10,0,0,0-.34,2.29,15,15,0,0,0,.1,2.31A27.23,27.23,0,0,0,17.82,69,81.58,81.58,0,0,0,29,85.09a247.06,247.06,0,0,0,28.53,27.29c10.13,8.45,20.65,16.45,31.35,24.19s21.57,15.25,32.59,22.57,22.13,14.47,33.35,21.46,22.5,13.89,33.87,20.65,22.78,13.42,34.24,20,23,13.15,34.49,19.64c11.62,6,23.64,11.74,35.54,17.45s23.94,11.25,36,16.7,24.18,10.71,36.36,15.86S389.7,301,402.09,305.56a346.09,346.09,0,0,0,37.74,11.89,88.94,88.94,0,0,0,19.37,2.84c3.19,0,6.53-.33,9.14-1.88a5.66,5.66,0,0,0,2.5-3.44,10,10,0,0,0,0-4.56v-.19a17.35,17.35,0,0,0-.87-4.32c-.21-.73-.49-1.44-.77-2.15s-.55-1.43-.89-2.11l-1-2.08-1.13-2c-.69-1.37-1.58-2.65-2.38-4s-1.75-2.55-2.61-3.83-1.85-2.5-2.79-3.71-1.9-2.46-2.93-3.62l-3-3.53c-1-1.17-2.12-2.28-3.17-3.41s-2.09-2.31-3.22-3.38c-2.25-2.16-4.38-4.41-6.67-6.51l-3.44-3.16c-1.15-1.05-2.27-2.13-3.45-3.13l-7.08-6.09,7.21,5.93c1.23,1,2.37,2,3.54,3l3.52,3.09c2.34,2,4.53,4.25,6.82,6.39,1.14,1.05,2.18,2.21,3.27,3.32s2.2,2.23,3.24,3.38l3.13,3.48c1.06,1.15,2,2.39,3,3.61s2,2.4,2.88,3.69,1.9,2.49,2.72,3.82,1.76,2.61,2.5,4l1.16,2,1.06,2.12c.35.7.66,1.43.95,2.17a21.35,21.35,0,0,1,.85,2.23,17.35,17.35,0,0,1,1,4.79l0-.19a11.51,11.51,0,0,1,.13,5.26,7.36,7.36,0,0,1-3.1,4.42c-3.13,1.92-6.67,2.22-10,2.29-6.75,0-13.34-1.23-19.84-2.66a348.22,348.22,0,0,1-38.09-11.57c-25-8.92-49.43-19.2-73.6-30q-18.14-8.1-36.09-16.61c-12-5.69-23.88-11.31-35.8-17.41-11.56-6.45-23.12-12.93-34.59-19.54S198.29,210.94,187,204.1s-22.64-13.73-33.85-20.8S130.77,169,119.76,161.68s-21.9-14.94-32.6-22.78-21.14-16-31.23-24.64A246.48,246.48,0,0,1,27.44,86.41,82.54,82.54,0,0,1,16.19,69.82a28.48,28.48,0,0,1-3-9.73,17.75,17.75,0,0,1-.08-2.64l.15-1.27a12,12,0,0,1,.31-1.32,8.66,8.66,0,0,1,3.07-4.39c2.9-2.17,6.44-2.72,9.77-3a55.73,55.73,0,0,1,10,.44A139.63,139.63,0,0,1,55.94,52,313.11,313.11,0,0,1,93.41,65.14Z"/></g></g></g></svg>