<svg xmlns="http://www.w3.org/2000/svg" xmlns:xlink="http://www.w3.org/1999/xlink" viewBox="0 0 368.45 368.45"><defs><style>.cls-1{isolation:isolate;}.cls-2{fill:url(#radial-gradient);}.cls-3{fill:url(#radial-gradient-2);}.cls-4{fill:#ffebcd;}.cls-4,.cls-6{opacity:0.3;}.cls-5{fill:url(#radial-gradient-3);}.cls-6{fill:#fdd193;}.cls-7{fill:#9c1b1f;}.cls-10,.cls-7,.cls-8{opacity:0.5;}.cls-8{fill:#ac4836;mix-blend-mode:multiply;}.cls-9{fill:#cbc9b7;opacity:0.7;mix-blend-mode:color-dodge;}.cls-10{fill:#6d1510;}</style><radialGradient id="radial-gradient" cx="94.17" cy="13.11" r="479.77" gradientTransform="translate(184.22 -76.31) rotate(45)" gradientUnits="userSpaceOnUse"><stop offset="0" stop-color="#e3f3fc"/><stop offset="0.42" stop-color="#e26343"/><stop offset="0.76" stop-color="#d01b21"/></radialGradient><radialGradient id="radial-gradient-2" cx="211.6" cy="288.98" r="368.15" gradientTransform="matrix(1, 0, 0, 1, 0, 0)" xlink:href="#radial-gradient"/><radialGradient id="radial-gradient-3" cx="211.61" cy="289.05" r="368.24" gradientTransform="matrix(1, 0, 0, 1, 0, 0)" xlink:href="#radial-gradient"/></defs><g class="cls-1"><g id="Calque_2" data-name="Calque 2"><g id="Calque_1-2" data-name="Calque 1"><circle class="cls-2" cx="184.22" cy="184.22" r="184.22" transform="translate(-76.31 184.22) rotate(-45)"/><path class="cls-3" d="M313,143.91a1.27,1.27,0,0,1-1.55-.15c-2,2.36-3,6-.39,7.84,2,1.39,4.34,1.69,5.79-.67a8,8,0,0,0,1-6.43C317,142.08,314.71,142.9,313,143.91Z"/><path class="cls-4" d="M324.16,190.27c.31-7.62,14.27-8.17,19.39-8.56,6.25-.51,12.51-.63,18.78-.91,1.82-.08,4,0,6.07-.18a183.3,183.3,0,0,0-13.56-65.9c-10.64,3.17-24.18,7.06-30.88,0-5.38-5.71-3.17-14.17-1.25-20.89,2.42-8.45,2.56-16.85,5.15-24.9-1.76-2.2-3.58-4.36-5.43-6.48a12.71,12.71,0,0,0-1.72,2.84c-2.32,5.35-2.31,11.38-2.26,17.1.1,11.61,1.1,23.22-8.75,31.17-3.09,2.49-6.88,4.43-9.42,7.54-4.41,5.41-2.48,10.76-.53,16.63,2.29,6.92,3.14,12.6.92,19.69-3.12,10-10,16.66-20.49,18.28-9.82,1.52-19.89-.22-29.65,1.51-5.17.91-10.49,2.87-13.39,7.57-3.78,6.12-1.41,12.08-3.43,18.43-3.74,11.77-22,17.32-32.84,17.91-11.29.61-23.58-2.2-34.5,1.55A55.47,55.47,0,0,0,148,233.31c-8.85,7.65-16.25,17.43-26.32,23.57-10.92,6.65-23.72,7.9-36.05,4.76-13.92-3.53-25.71-11.47-38.5-17.64-13.13-6.35-25.7-8.45-38.56-4.15A184.73,184.73,0,0,0,90.3,342.7a33.46,33.46,0,0,1,3.49-.85c7-1.48,14.08-2.55,19.63-7.57,6.48-5.89,8.32-14,8.47-22.52.1-5-.09-9.54,2.75-13.88,7.22-11.12,26.4-14.11,38-17.55,10.82-3.22,23.13-1.92,33.59-6,13.87-5.45,11.69-21.56,17.22-32.74,2.53-5.11,6.52-8.6,11.17-11.77a78.22,78.22,0,0,0,19-17.7c4.85-6.34,9.81-11.4,17.09-14.88,7.93-3.8,16.7-5.08,24.56-9.2,4.76-2.49,9.93-6,15.54-5.53,4.55.39,8.54,5,10.63,8.67,2,3.41,2.52,7.05,4,10.65,3,7.52,9.55,8,16.42,7.79,6.57-.23,12.05.57,16.92,5.43,3.81,3.8,7.43,8.45,13,9.68.71.16,1.44.29,2.15.4.62-2.75,1.17-5.53,1.67-8.31-3.88-2.64-7.17-6.23-11.18-8.69C346.45,203.25,323.58,204.15,324.16,190.27ZM106,328.38a9.18,9.18,0,0,1-2.75,1.36,1.26,1.26,0,0,1-.77,0c-6.14,1.71-13,.46-12.63-5.16.38-6.84,8.93-16.86,16.1-11.8a10.08,10.08,0,0,1,1.72,1.59,1.25,1.25,0,0,1,1.4.31,9.93,9.93,0,0,1,2.47,3.79C112.87,322.84,110,326.33,106,328.38Zm2.16-27.69c-6.41-1.17-18.27-7.16-14.3-15.61,2.17-4.65,7-6,12.2-6.46a25.78,25.78,0,0,1,9.08-.53c.64,0,1.25-.13,1.84-.22a1.49,1.49,0,0,1,1.66,1.09,9.79,9.79,0,0,1,6.42,7.18C127.29,295.62,116.69,302.25,108.14,300.69Zm48-56.51c-2.41,1.87-11.17,5.53-11.78,0-.38-3.4,3.24-7.24,5.8-9a1.17,1.17,0,0,1,1.38,0c2.06-1.8,4.45-2.79,6.47-.66C160.71,237.39,158.89,242.07,156.16,244.18Zm44.33,19.39c-5.26,6.85-18.86,9-26.6,6.12-8.94-3.29-2.86-13.56,2.78-16.45A44.79,44.79,0,0,1,190,248.85a1.1,1.1,0,0,1,1-1.06c3.87-.62,10.05-.88,11.95,3.63C204.79,255.75,203.24,260,200.49,263.57ZM318.14,153.75c-3.1,3-8.41,1.9-10.58-1.78-2.71-4.55,1.17-11.62,6.08-12.93a1.32,1.32,0,0,1,1.69,1.21,4.56,4.56,0,0,1,5.21,3.51C321.48,147,320.63,151.35,318.14,153.75Z"/><path class="cls-5" d="M329,114.45c8,2.26,16.48-.18,24.64-2.49A183.69,183.69,0,0,0,330,71.69c-1.52,6.13-1.64,12.34-3.46,18.8S319,111.65,329,114.45Z"/><path class="cls-4" d="M50.11,203.63c6-1.31,11.75-2.27,15.36-7.74,1.79-2.71,3.42-5.32,6-7.33,6.07-4.74,15,1.23,21.67-1.26,6.29-2.33,4.82-7.43,5.44-12.15.06-.55.73-3-.26-3.58-4.55-2.5-9.91-4.13-15.19-3.65-3.63.33-8.08,1.77-11.76.76-5.89-1.6-11-5-17.38-3.57-7.78,1.8-10.54,0-16.14-5.1-6.37-5.83-15.35-2.55-23.07-1.88-2.51.22-5.73.66-8.08-.51l-4.94,1a184.37,184.37,0,0,0,.05,51.47c2.89-.91,5.8-1.73,8.78-2.38,11.59-2.57,23.36-2.55,35.1-3.18Z"/><path class="cls-6" d="M200.49,135.27c-.53.28-1.05.53-1.59.76a5.29,5.29,0,0,1-2.55.63c-4.49-.25-8-2.33-12.48-.09-3.43,1.76-9.33,2.93-11.07,6.78a18.28,18.28,0,0,0-.89,2.71c3,3.46,6.39,4.75,11.59,4.45a16,16,0,0,1,4.79.15c2.29.61,3.19.25,3.6-1.89s1-3.46,3-4.3c2.37-1,6.78.11,9-1.83a15.08,15.08,0,0,0,.73-1.95,18.2,18.2,0,0,0,.51-2.09C204.76,136.23,203.1,134,200.49,135.27Z"/><path class="cls-7" d="M138.25,162.25a.77.77,0,0,1-.68.4,17.61,17.61,0,0,0-9.71,3.29c-1.71,1.27-5.46,3.28-2.46,4.87a22.63,22.63,0,0,0,9.95,2.67c7.39.18,14.45-2.94,15.16-10.84C146.58,162.54,142.36,162.13,138.25,162.25Z"/><path class="cls-7" d="M233,110a36.11,36.11,0,0,0-3.89,6.11c14.15,3.44,29.08-5,29.1-20.35A46.89,46.89,0,0,0,233,110Z"/><path class="cls-7" d="M111.4,241.78l-.58-.24-.51-.15c-5.49.58-11.55,1.2-16.63,3.55a7.45,7.45,0,0,0-2.22,3.18,20.39,20.39,0,0,0,4.68,2.11,13.59,13.59,0,0,0,8.84,0c1.57-.5,11.51-2.68,9.66-5.38A11.59,11.59,0,0,0,111.4,241.78Z"/><path class="cls-6" d="M184.68,10.88A142.13,142.13,0,0,1,209,20.25c3.51,1.78,7.72,3.56,10.76,6.13,3.69,3.12,7.21,6.44,10.92,9.52,8.46,7,20.65,14.79,31.7,8.89,7.92-4.23,13.66-11.57,21.9-15.26A183.44,183.44,0,0,0,184.22,0a185.31,185.31,0,0,0-42.09,4.83A155.68,155.68,0,0,1,184.68,10.88Z"/><path class="cls-7" d="M122.54,144.42c-1,.14-1.92.24-2.88.34a5.72,5.72,0,0,1-1.9-.28c-2.52-1.13-4.54-3.1-7.31-3.75-4.19-1-9-.82-11,2a4.68,4.68,0,0,0-.17,2.94c1,3.44,4.82,5,8,5.55a35.14,35.14,0,0,0,16.18-.76,13.92,13.92,0,0,0,3.29-1.44C126.44,147.49,125,146,122.54,144.42Z"/><path class="cls-7" d="M190.79,320a12.05,12.05,0,0,0-1.59.15c-2.85,1.36-5.66,2.76-8.39,4.36a.84.84,0,0,1-1.25-.57A37.65,37.65,0,0,0,169,334.87c12.26,4.29,26.34-4.69,26.71-17.82-1.36.66-2.71,1.31-4.08,1.95A.86.86,0,0,1,190.79,320Z"/><path class="cls-8" d="M184.22,0C82.49,0,0,82.48,0,184.22S82.49,368.45,184.22,368.45,368.45,286,368.45,184.22,286,0,184.22,0ZM170.47,318.61A152.46,152.46,0,1,1,322.92,166.15,152.45,152.45,0,0,1,170.47,318.61Z"/><path class="cls-9" d="M43.19,281.6C18.27,242.25,9.72,207.85,8,181.46c0-.09,0-.18,0-.25A167.89,167.89,0,0,1,6.82,156c-4.8,27.54-5,71,22.69,118.91,46.86,80.9,134.21,93.63,178.18,86.11C207.69,361,101,373,43.19,281.6Z"/><path class="cls-10" d="M95.05,91.47c-6.84-3.54-14.77-1.13-21.7.62C69.92,93,65.94,94,63.29,96.47c-2.23,2.14-6.44,5.37-6.56,8.81-.1,3.14,5.49,5.72,7.37,7.82,2.28,2.55,4.78,3.94,8.34,3.57a21.11,21.11,0,0,0,10-3.8,20.45,20.45,0,0,0,5.82-4.56,25.56,25.56,0,0,0,2.49-3.68c1.68-2.78,3.69-5,5.61-7.55A3.72,3.72,0,0,0,95.05,91.47Z"/><path class="cls-10" d="M120.22,106.1c-1.46-.65-3.35-.06-4.79.8a3.48,3.48,0,0,0-.36.22,7.32,7.32,0,0,0-.58.45A3.18,3.18,0,0,0,113.3,110c0,.11,0,.21,0,.31a2.88,2.88,0,0,0,2.09,2.3c2.26.82,4.66-.58,5.82-2.5A2.73,2.73,0,0,0,120.22,106.1Z"/><path class="cls-7" d="M292.31,205.93c-2-3.19-15.18,1.55-17.39,3.13-3.18,2.26-6.14,3.95-8.83,5.78a34.63,34.63,0,0,0-5.39,2.74c-4.26,2.71-6.9,7.39-11.13,10-2.3,1.44-5.38,2.93-6.71,5.46-2.13,4-.94,9.55,4.74,8.87s9.92-4.13,15.88-3.15a32,32,0,0,0,12.34-.07c6.32-1.45,10.89-8.91,13.44-14.25,1.71-3.55,1.66-7.31,1.71-11.16C291,210.19,294,208.74,292.31,205.93Z"/></g></g></g></svg>