<svg  viewBox="0 0 162 216" fill="none" xmlns="http://www.w3.org/2000/svg">
<line x1="82" y1="9" x2="82" y2="215.049" stroke="#91AEC7" stroke-width="2"/>
<g clip-path="url(#clip0_69_569)">
<path d="M80.1875 1.14258L80.1875 0.843751C80.1875 0.376173 79.4143 1.33453e-06 78.4531 1.37654e-06L69.2031 1.78087e-06C68.5021 1.81151e-06 67.8662 0.203908 67.5988 0.520314C67.3314 0.836721 67.476 1.19883 67.9746 1.44141L70.9809 2.90391C64.7299 5.9836 64.7516 10.9441 71.0531 14.0063C77.3764 17.0824 87.6236 17.0824 93.9469 14.0063C100.27 10.9301 100.27 5.94492 93.9469 2.86875C93.0436 2.4293 91.5766 2.4293 90.6732 2.86875C89.7699 3.3082 89.7699 4.02188 90.6732 4.46133C95.1898 6.6586 95.1898 10.2199 90.6732 12.4172C86.1566 14.6145 78.8361 14.6145 74.3195 12.4172C69.8246 10.2305 69.8029 6.69727 74.2473 4.49649L77.2246 5.94141C77.7232 6.18399 78.4676 6.2543 79.118 6.12422C79.7684 5.99414 80.1875 5.68477 80.1875 5.34375L80.1875 1.14258Z" fill="#91AEC7"/>
</g>
<g clip-path="url(#clip1_69_569)">
<mask id="mask0_69_569" style="mask-type:luminance" maskUnits="userSpaceOnUse" x="0" y="31" width="162" height="162">
<path d="M80.9926 193C67.1681 192.976 53.5803 189.411 41.5245 182.645C29.4688 175.879 19.347 166.137 12.1244 154.349C4.9017 142.561 0.818875 129.119 0.265165 115.305C-0.288546 101.491 2.70532 87.7654 8.96131 75.4369C15.2173 63.1083 24.5269 52.5879 36.0024 44.8785C47.4779 37.1692 60.7368 32.528 74.515 31.3974C88.2932 30.2669 102.131 32.6846 114.71 38.4202C127.289 44.1558 138.188 53.018 146.37 64.1618C148.825 67.5395 151.019 71.0991 152.934 74.8099C156.847 82.366 159.541 90.4931 160.916 98.8905C162.321 107.594 162.321 116.466 160.916 125.169C159.539 133.559 156.845 141.678 152.934 149.227C149.097 156.625 144.144 163.387 138.247 169.276C132.356 175.167 125.595 180.118 118.2 183.956C114.769 185.567 110.114 187.535 106.572 188.871C102.507 190.223 98.3407 191.249 94.1127 191.938C90.2071 192.421 84.9501 192.874 80.9926 193Z" fill="white"/>
</mask>
<g mask="url(#mask0_69_569)">
<path d="M80.9926 193C84.9501 192.837 90.2071 192.421 94.1349 191.938C98.3629 191.249 102.529 190.223 106.594 188.871C110.136 187.535 114.762 185.567 118.222 183.956C125.617 180.118 132.378 175.167 138.269 169.276C144.166 163.387 149.12 156.625 152.956 149.227C156.871 141.669 159.564 133.539 160.938 125.139C162.344 116.436 162.344 107.564 160.938 98.8607C159.553 90.4724 156.852 82.3554 152.934 74.8099C147.166 63.6954 138.91 54.0622 128.81 46.6602C118.567 39.1227 106.684 34.1199 94.1349 32.0618C83.092 30.2495 71.7934 30.7451 60.9516 33.5175C50.1098 36.2898 39.9601 41.2787 31.1424 48.1695C22.3248 55.0604 15.0306 63.7036 9.71987 73.5542C4.40913 83.4049 1.19705 94.2491 0.286204 105.403C-0.624641 116.557 0.785508 127.779 4.42772 138.361C8.06994 148.942 13.8652 158.655 21.448 166.885C29.0308 175.115 38.2367 181.685 48.4851 186.179C58.7334 190.674 69.802 192.997 80.9926 193Z" fill="#9E9E9E"/>
<path d="M-0.0222849 112.004C-0.0305065 120.408 1.26959 128.763 3.83132 136.767C-12.6449 81.9754 35.4621 41.2174 86.9475 66.434C142.264 93.5219 146.162 171.437 93.0806 189.027C81.943 192.74 63.8778 194.611 41.2611 182.597C53.3854 189.434 67.0734 193.016 80.9926 192.993C84.9501 192.829 90.2071 192.413 94.1349 191.931C98.3629 191.241 102.529 190.216 106.594 188.864C110.136 187.527 114.762 185.56 118.222 183.948C125.617 180.111 132.378 175.16 138.269 169.268C144.166 163.38 149.12 156.618 152.956 149.22C156.871 141.662 159.564 133.532 160.938 125.132C162.344 116.429 162.344 107.556 160.938 98.8533C159.552 90.4675 156.851 82.3531 152.934 74.8099C147.166 63.6954 138.91 54.0622 128.81 46.6602C118.567 39.1227 106.684 34.1199 94.1349 32.0618C82.5409 30.1621 70.6725 30.8057 59.3519 33.9481C48.0312 37.0905 37.5291 42.6565 28.5729 50.2606C19.6166 57.8646 12.4205 67.3249 7.48299 77.9861C2.54546 88.6473 -0.0154355 100.255 -0.0222849 112.004Z" fill="#9E9E9E"/>
<path d="M-0.0222778 112.004C-0.00108274 115.518 0.246935 119.028 0.720228 122.511C-5.76928 61.4441 56.2448 33.7103 106.015 75.4336C151.635 113.689 137.898 186.599 84.0666 191.871C69.751 193.275 61.3533 190.683 54.6039 188.604C63.0959 191.521 72.0136 193.007 80.9926 193C84.9501 192.837 90.2071 192.421 94.1349 191.938C98.3629 191.249 102.529 190.223 106.594 188.871C110.136 187.535 114.762 185.567 118.222 183.956C125.617 180.118 132.378 175.167 138.27 169.276C144.166 163.387 149.12 156.625 152.956 149.227C156.871 141.669 159.564 133.539 160.938 125.139C162.344 116.436 162.344 107.564 160.938 98.8608C159.553 90.4724 156.852 82.3554 152.934 74.8099C147.166 63.6954 138.91 54.0622 128.81 46.6602C118.567 39.1227 106.684 34.1199 94.1349 32.0618C82.5409 30.1621 70.6725 30.8057 59.3519 33.9481C48.0313 37.0905 37.5291 42.6565 28.5729 50.2606C19.6166 57.8646 12.4205 67.3249 7.48299 77.9861C2.54546 88.6473 -0.0154285 100.255 -0.0222778 112.004Z" fill="#999999"/>
<path d="M0.0296936 110.021C4.76688 43.9351 77.7627 35.4107 117.138 81.7452C158.599 130.53 131.928 196.735 72.5874 192.436C69.6545 192.228 67.62 191.886 66.536 191.693C71.3192 192.554 76.1697 192.986 81.0297 192.985C84.9873 192.822 90.2442 192.406 94.1721 191.923C98.4001 191.234 102.566 190.208 106.631 188.857C110.173 187.52 114.799 185.552 118.259 183.941C125.654 180.104 132.415 175.152 138.307 169.261C144.203 163.372 149.157 156.61 152.993 149.212C156.908 141.654 159.602 133.524 160.975 125.124C162.381 116.421 162.381 107.549 160.975 98.8459C159.577 90.4605 156.863 82.3486 152.934 74.8099C147.166 63.6954 138.91 54.0622 128.81 46.6602C118.567 39.1227 106.684 34.1199 94.1349 32.0618C82.7078 30.1934 71.013 30.795 59.838 33.8263C48.6629 36.8576 38.2671 42.2482 29.3503 49.6351C20.4335 57.022 13.2029 66.2337 8.14523 76.65C3.08756 87.0663 0.320276 98.4454 0.0296936 110.021Z" fill="#949494"/>
<path d="M1.16573 98.2741C12.6671 38.1284 88.581 31.4455 126.137 87.3142C157.389 133.812 135.47 196.141 73.5749 192.658L74.1541 192.71C76.4113 192.903 78.6908 193 80.9926 193C84.9501 192.837 90.2071 192.421 94.1349 191.938C98.3629 191.249 102.529 190.223 106.594 188.871C110.136 187.535 114.762 185.567 118.222 183.956C125.617 180.118 132.378 175.167 138.269 169.276C144.166 163.387 149.12 156.625 152.956 149.227C156.871 141.669 159.564 133.539 160.938 125.139C162.344 116.436 162.344 107.564 160.938 98.8608C159.553 90.4724 156.852 82.3554 152.934 74.8099C147.166 63.6954 138.91 54.0622 128.81 46.6602C118.567 39.1227 106.684 34.1199 94.1349 32.0618C73.0399 28.6135 51.4367 33.6358 34.0257 46.0358C16.6147 58.4359 4.80487 77.2103 1.16573 98.2741Z" fill="#8F8F8F"/>
<path d="M4.12833 86.4306C27.391 25.2305 109.327 35.084 139.012 102.663C150.15 127.991 147.855 192.02 76.4187 192.874C77.9334 192.958 79.4581 193 80.9926 193C84.9501 192.837 90.2071 192.421 94.1349 191.938C98.3629 191.249 102.529 190.223 106.594 188.871C110.136 187.535 114.762 185.567 118.222 183.956C125.617 180.118 132.378 175.167 138.27 169.276C144.166 163.387 149.12 156.625 152.956 149.227C156.871 141.669 159.564 133.539 160.938 125.139C162.344 116.436 162.344 107.564 160.938 98.8608C159.553 90.4724 156.852 82.3554 152.934 74.8099C147.166 63.6954 138.91 54.0622 128.81 46.6602C118.567 39.1227 106.684 34.1199 94.1349 32.0618C75.1195 28.9541 55.6188 32.7187 39.1263 42.681C22.6337 52.6434 10.2269 68.1527 4.12833 86.4306Z" fill="#8A8A8A"/>
<path d="M9.84563 73.2802C45.9389 13.7062 133.102 48.3903 147.053 112.004C153.476 141.223 141.462 177.073 106.074 189.042L106.594 188.871C110.136 187.535 114.762 185.567 118.222 183.956C125.617 180.118 132.378 175.167 138.27 169.276C144.166 163.387 149.12 156.625 152.956 149.227C156.871 141.669 159.564 133.539 160.938 125.139C162.344 116.436 162.344 107.564 160.938 98.8608C159.553 90.4724 156.852 82.3554 152.934 74.8099C147.166 63.6954 138.91 54.0622 128.81 46.6602C118.567 39.1227 106.684 34.1199 94.1349 32.0618C77.5464 29.3504 60.5252 31.8603 45.4251 39.2444C30.325 46.6285 17.8921 58.522 9.84563 73.2802Z" fill="#858585"/>
<path d="M21.206 166.632C63.1353 211.036 126.686 192.703 127.459 135.98C128.201 78.7305 56.5864 39.1234 17.9464 75.4336C-8.31607 100.116 -1.56669 142.515 21.206 166.632Z" fill="#A3A3A3"/>
<path d="M21.3916 166.632C61.6948 209.083 123.39 190.728 124.541 135.943C125.654 82.7476 57.0319 43.8682 19.6467 76.4509C-7.78889 100.398 -1.60382 142.381 21.3916 166.632Z" fill="#A8A8A8"/>
<path d="M17.0554 161.011C52.317 205.749 114.695 194.908 121.348 142.893C127.615 93.7818 64.4124 44.4029 20.612 78.4558C-2.4577 96.3881 -4.09121 134.213 17.0554 161.011Z" fill="#ADADAD"/>
<path d="M17.5751 161.011C51.9977 204.435 112.297 193.616 118.393 142.879C124.214 94.4575 63.9669 47.3953 20.8644 80.9581C-1.5073 98.3781 -2.99232 135.037 17.5751 161.011Z" fill="#B3B3B3"/>
<path d="M18.2656 161.011C54.7673 206.64 112.564 187.698 115.668 141.809C119.313 88.0716 55.4429 55.2068 22.7355 82.1907C-5.32377 105.343 3.2299 142.218 18.2805 161.011" fill="#B8B8B8"/>
<path d="M14.8872 155.004C42.9243 198.48 102.785 194.522 111.94 148.589C121.986 98.1702 62.0884 55.333 22.9286 84.9084C2.85864 100.056 -0.675693 130.849 14.8872 155.004Z" fill="#BDBDBD"/>
<path d="M15.8599 155.004C43.1544 196.995 99.7631 193.104 109.074 148.589C119.581 98.2667 61.2939 62.9292 25.7947 86.0816C2.04931 101.541 2.15326 133.894 15.8599 155.004Z" fill="#C2C2C2"/>
<path d="M16.9885 155.004C43.2807 195.057 96.6743 191.218 106.253 148.589C117.71 97.5613 62.5636 69.2334 29.4181 86.646C6.72709 98.5712 0.920694 130.5 16.9885 155.004Z" fill="#C7C7C7"/>
<path d="M18.2656 155.004C42.7684 192.205 93.0435 188.419 103.654 148.589C116.744 99.581 59.4228 70.8076 28.6979 90.0988C5.17526 104.86 4.90796 134.688 18.2656 155.004Z" fill="#CCCCCC"/>
<path d="M19.7655 155.004C45.5676 192.8 95.9392 184.802 102.681 141.832C108.933 101.987 62.2369 71.8397 28.1113 93.611C11.2193 104.408 3.83875 131.636 19.7655 155.004Z" fill="#D1D1D1"/>
<path d="M17.7533 148.566C35.5066 183.666 84.2522 189.406 98.4043 148.566C111.97 109.427 70.048 78.5077 36.5907 92.1333C13.0681 101.69 7.86314 129.045 17.7533 148.566Z" fill="#D6D6D6"/>
<path d="M19.5353 148.566C37.5337 183.993 82.5889 183.993 96.058 148.566C109.809 112.397 72.2978 78.9161 36.1972 95.1035C16.84 103.769 9.21449 128.273 19.5353 148.566Z" fill="#DBDBDB"/>
<path d="M21.6737 148.566C41.7808 186.399 87.7568 176.523 96.2362 141.809C104.946 106.093 63.0536 81.7823 35.8779 97.9994C12.9939 111.67 14.8278 135.698 21.6737 148.566Z" fill="#E0E0E0"/>
<path d="M24.0572 148.566C43.5628 184.335 86.1084 170.189 94.521 141.809C103.349 112.041 67.8651 81.2922 35.6254 100.858C22.045 109.1 13.7661 129.684 24.0572 148.566Z" fill="#E6E6E6"/>
<path d="M26.7079 148.566C45.1666 179.627 83.9774 166.981 92.791 141.809C102.585 113.786 69.8847 89.282 45.0701 98.2816C26.7079 104.935 14.709 128.354 26.7079 148.566Z" fill="#EBEBEB"/>
<path d="M29.8265 148.566C48.107 176.783 89.4497 162.675 92.8727 134.74C96.0135 109.078 62.623 85.8663 37.9272 104.2C25.958 113.11 19.4462 132.587 29.7968 148.566" fill="#F0F0F0"/>
<path d="M29.4552 141.809C40.9938 170.36 79.0843 166.231 89.2938 141.809C93.2885 132.238 91.6847 127.56 89.0265 119.8C87.1479 114.313 85.7446 113.066 76.6415 104.95C76.5153 104.838 63.655 94.0417 44.8177 102.076C28.7721 108.915 23.9235 128.161 29.4552 141.839" fill="#F5F5F5"/>
<path d="M32.106 141.809C43.1322 165.274 76.2925 165.274 87.5489 141.809C94.7438 126.81 85.5887 114.224 76.6341 106.308C76.4856 106.175 65.6672 101.111 65.4965 101.111C52.9704 100.182 52.9704 100.182 44.7063 103.932C44.6098 103.977 33.8583 110.934 30.9031 119.786C28.5271 126.929 29.6408 136.582 32.0911 141.794" fill="#FAFAFA"/>
<path d="M34.6156 141.809C47.8916 165.333 84.0665 160.581 88.3805 134.74C92.197 111.811 64.4124 93.3734 44.6543 105.677C30.7546 114.358 28.6236 131.191 34.6156 141.809Z" fill="#91AEC7"/>
<path d="M37.2218 141.809C50.6983 164.137 83.183 156.036 87.1034 134.74C90.905 114.135 65.7192 94.0342 44.6023 107.393C36.0932 112.776 29.1731 128.473 37.2218 141.809Z" fill="#91AEC7"/>
<path d="M37.5114 137.495C45.1444 154.536 58.6357 153.772 67.5458 153.267C67.6943 153.267 82.9676 148.878 85.9376 134.74C89.0636 119.889 76.7529 110.593 76.6266 110.519C69.261 105.997 59.1852 99.7147 44.5652 109.115C44.4167 109.212 29.9675 120.662 37.5114 137.495Z" fill="#91AEC7"/>
<path d="M80.9926 193C82.5914 193 84.1755 192.953 85.7446 192.859C83.5171 192.978 79.8046 192.993 78.5052 192.963H78.6834C79.4259 192.963 80.2129 192.963 80.9777 192.963" fill="#858585"/>
<path d="M37.9198 134.74C42.4491 149.287 57.9675 152.183 58.1085 152.205C69.2461 154.009 78.3121 147.007 81.6682 141.809C88.8557 130.753 82.9008 119.897 82.8266 119.8C76.6935 111.588 76.6935 111.588 65.4148 105.93C62.5413 104.489 57.8487 105.009 54.7227 105.707C50.9941 106.666 47.5166 108.418 44.5281 110.845C43.7188 111.536 42.0258 112.969 38.0683 119.8C38.0683 119.86 35.7665 127.887 37.8975 134.74" fill="#91AEC7"/>
<path d="M39.3305 134.74C44.0752 148.203 57.6407 150.638 57.767 150.638C68.4962 150.638 68.4962 150.638 77.0721 145.388C80.3986 143.339 83.6359 134.822 83.6582 134.74C87.3187 120.758 74.8743 112.078 74.7481 112.004C67.427 107.667 58.3164 102.262 45.2929 112.004C38.3876 117.201 36.858 127.597 39.3528 134.74" fill="#91AEC7"/>
<path d="M40.719 134.74C42.2326 138.309 44.5531 141.479 47.4981 144C48.1738 144.572 57.1061 149.116 57.5665 149.116C60.4251 149.116 64.3456 149.858 67.1003 149.116C67.2265 149.079 76.1737 144.275 76.9756 143.807C78.8913 142.7 82.3959 134.829 82.4182 134.755C84.1259 128.815 83.8141 120.053 72.6616 112.019C70.6494 110.533 67.865 108.194 65.3851 108.076C55.3835 107.6 55.3835 107.6 49.3172 110.912C43.5925 114.031 36.1897 123.268 40.719 134.755" fill="#91AEC7"/>
<path d="M42.1447 134.74C43.3025 137.404 44.9842 139.808 47.0897 141.809C49.7628 144.096 54.1213 146.042 57.2324 147.683C59.8163 149.049 64.056 147.861 66.9815 147.861C70.4193 147.861 74.4065 144.512 76.9385 142.181C77.4508 141.713 81.2228 134.792 81.2376 134.755C84.4452 124.426 76.7083 116.615 76.6266 116.541C74.904 114.877 67.9839 110.021 65.3777 109.115C62.326 108.091 57.7744 108.373 54.6559 109.167C48.2926 110.786 36.3605 121.441 42.1447 134.718" fill="#91AEC7"/>
<path d="M43.5925 134.74C46.3398 140.911 50.8691 143.242 57.1359 146.472C59.7346 147.809 63.9521 146.725 66.8775 146.725C69.803 146.725 73.122 143.755 75.2827 141.809C77.4013 139.854 79.038 137.434 80.0644 134.74C83.0939 125.243 76.7009 118.107 76.6341 118.041C76.5672 117.974 68.5779 111.358 65.3702 110.214C62.3334 109.145 57.7596 109.546 54.6485 110.355C54.448 110.407 36.4496 118.701 43.5925 134.74Z" fill="#91AEC7"/>
<path d="M45.0553 134.74C46.0428 136.916 48.894 141.171 56.9354 145.18C59.5787 146.502 63.811 145.574 66.7661 145.574C66.8478 145.574 76.931 140.837 78.8838 134.74C81.8539 125.511 76.6563 119.607 76.6563 119.555C76.6563 119.503 66.8033 111.818 65.3702 111.291C62.3482 110.184 57.7521 110.712 54.641 111.528C53.3194 111.877 45.3597 119.741 45.33 119.8C43.845 123.424 41.9813 127.931 45.0553 134.74Z" fill="#91AEC7"/>
<path d="M45.5899 131.347C45.8497 132.372 45.8126 133.953 46.518 134.74C52.0274 140.933 54.3143 143.495 56.7572 143.881C59.7272 144.356 63.8852 145.455 66.6696 144.408C71.4217 142.626 76.7751 136.404 76.8197 136.344C80.2278 132.015 78.3047 122.978 75.2901 119.8C72.7433 117.105 68.8823 113.608 65.3702 112.375C61.84 111.391 58.0914 111.526 54.641 112.761C51.671 113.927 48.1738 116.927 46.7853 119.763C44.0677 125.347 44.7063 127.85 45.5899 131.31" fill="#91AEC7"/>
<path d="M47.951 134.74C47.951 134.792 54.0396 141.423 56.579 142.574C59.3188 143.822 63.5734 143.242 66.5731 143.242C67.5755 143.242 75.4832 136.411 76.4559 134.74C78.9581 130.285 76.983 122.926 73.6789 119.8C71.4514 117.669 68.3477 114.506 65.3702 113.615C61.824 112.719 58.0914 112.9 54.6484 114.135C52.2724 115.1 49.0499 117.365 48.2629 119.8C45.5676 128.095 45.0033 129.825 47.951 134.74Z" fill="#91AEC7"/>
<path d="M49.3989 134.74C50.8839 137.154 53.7797 140.057 56.4008 141.178C56.5938 141.26 65.7341 142.062 66.484 142.062C66.6696 142.062 74.5922 135.082 74.7852 134.74C75.9213 132.795 76.7083 129.609 76.2702 127.397C75.5902 124.521 74.125 121.892 72.0379 119.8C70.2337 118.07 67.776 115.419 65.3554 114.818C61.7942 114.022 58.0808 114.246 54.641 115.464C49.837 117.447 44.2459 126.602 49.3767 134.77" fill="#91AEC7"/>
<path d="M50.8617 134.74C52.0497 136.582 54.1807 138.891 56.2226 139.678C59.0812 140.785 63.4694 141.698 66.38 140.755C68.964 139.916 71.689 137.042 73.1294 134.74C74.3323 132.832 74.8892 129.654 74.8001 127.397C74.7184 125.377 69.4169 117.187 65.3925 116.006C62.2963 115.108 57.7967 115.954 54.6856 116.749C53.3639 117.105 52.0942 118.679 51.2552 119.763C51.1958 119.838 45.8423 126.914 50.8617 134.703" fill="#91AEC7"/>
<path d="M52.3467 134.74C53.1783 136.003 54.5742 137.71 56.0592 138.163C58.9921 139.144 63.3506 140.332 66.2984 139.396C71.8003 137.651 73.3819 129.186 73.3151 127.397C73.2037 124.768 70.5232 121.887 68.912 119.8C68.0128 118.622 66.8012 117.719 65.4148 117.194C62.326 116.31 57.8784 117.454 54.7301 118.1C53.9876 118.256 53.2451 119.184 52.7848 119.8C51.2998 121.761 49.941 124.954 49.8741 127.397C49.8073 129.721 51.077 132.802 52.3615 134.74" fill="#91AEC7"/>
<path d="M53.8391 134.74C54.3069 135.438 55.0717 136.418 55.881 136.634C58.8956 137.443 63.2095 138.958 66.1944 138.03C67.7548 137.387 69.0453 136.225 69.8476 134.74C70.9093 132.721 72.1122 129.654 71.8003 127.397C71.4514 124.775 68.8303 121.961 67.3453 119.8C66.8349 119.179 66.1796 118.692 65.4371 118.382C65.3628 118.345 55.042 118.85 54.2995 119.8C52.8664 121.798 51.2626 124.931 51.1884 127.397C51.1141 129.736 52.5323 132.795 53.8391 134.74Z" fill="#91AEC7"/>
<path d="M55.3464 134.74C55.933 135.602 66.0311 136.678 66.1053 136.656C67.0224 136.303 67.7745 135.619 68.214 134.74C69.1644 132.654 70.6123 129.669 70.3227 127.397C70.3227 127.33 65.9939 119.763 65.4371 119.563C64.754 119.318 55.4355 121.345 54.8341 121.865C53.3742 123.338 52.5459 125.322 52.5249 127.397C52.6214 129.75 54.0099 132.795 55.3464 134.74Z" fill="#91AEC7"/>
<path d="M55.3984 131.399C56.772 132.884 64.8356 135.631 66.0236 135.268C67.2116 134.904 68.8526 127.463 68.8452 127.397C68.6076 125.466 67.2933 122.585 65.489 121.865C62.4522 120.647 57.418 122.607 54.9677 124.775C53.4827 126.097 54.047 129.973 55.3984 131.399Z" fill="#91AEC7"/>
<path d="M65.8603 132.238C67.2562 131.629 67.5606 128.904 67.3453 127.397C67.2191 126.35 66.5063 124.783 65.5262 124.426C62.6749 123.342 58.7174 126.506 55.8068 127.397C58.7768 128.882 62.7715 133.574 65.8306 132.238" fill="#91AEC7"/>
<path d="M65.6821 128.147C65.8974 128.057 65.9494 127.627 65.9197 127.404C65.9096 127.311 65.8791 127.222 65.8303 127.142C65.7815 127.062 65.7157 126.995 65.6375 126.944C65.1846 126.773 64.5683 127.263 64.108 127.404C64.5758 127.627 65.1995 128.362 65.6821 128.147Z" fill="#91AEC7"/>
<path d="M105.035 34.6236C97.2479 32.2164 89.1431 30.9949 80.9926 31C89.1432 30.9925 97.2485 32.2141 105.035 34.6236Z" fill="#91AEC7"/>
<path d="M134.653 51.3233C132.782 49.665 130.842 48.1007 128.832 46.6305C122.062 41.6642 114.559 37.7836 106.594 35.1285L106.149 34.98C116.667 38.4192 126.369 43.979 134.653 51.3159" fill="#91AEC7"/>
<path d="M134.654 51.3233C126.371 43.9846 116.673 38.4223 106.156 34.98C116.675 38.4192 126.376 43.979 134.661 51.3159" fill="white"/>
<path d="M154.768 78.5226C154.196 77.2603 153.587 76.0202 152.956 74.8099C149.122 67.4107 144.168 60.6481 138.269 54.7613C137.364 53.8603 136.44 52.9792 135.5 52.1178C143.644 59.524 150.199 68.5071 154.768 78.5226Z" fill="#91AEC7"/>
<path d="M161.985 110.949C161.935 106.899 161.585 102.859 160.938 98.8607C160.248 94.632 159.22 90.4654 157.864 86.4009C157.122 84.0693 156.208 81.7897 155.236 79.5547C159.568 89.4611 161.863 100.138 161.985 110.949Z" fill="#91AEC7"/>
<path d="M155.236 79.5547L154.768 78.5226L155.236 79.5696" fill="white"/>
<path d="M154.144 146.836C158.78 137.129 161.418 126.589 161.903 115.843C161.415 126.589 158.776 137.128 154.144 146.836Z" fill="#91AEC7"/>
<path d="M133.555 173.635C135.178 172.244 136.75 170.791 138.269 169.276C144.166 163.387 149.12 156.625 152.956 149.227C153.186 148.782 153.417 148.329 153.639 147.876C148.767 157.729 141.947 166.492 133.592 173.635" fill="#91AEC7"/>
<path d="M103.602 189.8C104.612 189.51 105.607 189.198 106.572 188.871C110.114 187.535 114.739 185.567 118.2 183.956C121.901 182.038 125.449 179.836 128.81 177.37C130.124 176.412 131.401 175.409 132.649 174.399C124.121 181.483 114.226 186.733 103.58 189.822" fill="#91AEC7"/>
<path d="M80.9926 193C84.9501 192.837 90.2071 192.421 94.1349 191.938C96.9475 191.482 99.7334 190.875 102.481 190.119C95.4792 192.037 88.2519 193.006 80.9926 193Z" fill="#91AEC7"/>
<path d="M102.785 34.6236H105.013C97.2336 32.2151 89.1359 30.9935 80.9926 31C88.4069 30.9971 95.7706 32.2215 102.785 34.6236Z" fill="#91AEC7"/>
<path d="M105.027 34.6236C97.2434 32.2149 89.1408 30.9933 80.9926 31C89.1408 30.992 97.2437 32.2136 105.027 34.6236Z" fill="white"/>
<path d="M96.7857 34.6236H102.644C95.6782 32.2217 88.3609 30.9971 80.9926 31C86.4608 31.0189 91.8561 32.2568 96.7857 34.6236Z" fill="#91AEC7"/>
<path d="M102.644 34.6236H102.785C95.7706 32.2215 88.4069 30.9971 80.9926 31C88.3609 30.9971 95.6782 32.2217 102.644 34.6236Z" fill="white"/>
<path d="M88.0018 34.6236H96.5035C91.6719 32.2634 86.3697 31.0247 80.9926 31C83.4354 31 85.7891 32.2697 88.0018 34.6236Z" fill="#91AEC7"/>
<path d="M96.5035 34.6236H96.756C91.8354 32.2611 86.4508 31.0233 80.9926 31C86.3697 31.0247 91.6719 32.2634 96.5035 34.6236Z" fill="white"/>
<path d="M88.0018 34.6236C85.7743 32.2697 83.4354 31 80.9926 31C83.4354 31 85.7891 32.2697 88.0018 34.6236Z" fill="white"/>
<path d="M77.5473 34.6236H87.6677C85.559 32.2697 83.3166 31 80.9851 31C79.7897 31 78.6314 32.2697 77.5399 34.6236" fill="#91AEC7"/>
<path d="M87.6677 34.6236H88.0018C85.7743 32.2697 83.4354 31 80.9926 31C83.3166 31 85.559 32.2697 87.6751 34.6236" fill="white"/>
<path d="M77.5473 34.6236C78.6388 32.2697 79.7749 31 80.9926 31C79.7971 31 78.6388 32.2697 77.5473 34.6236Z" fill="white"/>
<path d="M68.0507 34.6236H77.1984C78.3938 32.2697 79.6709 31 80.9851 31C76.429 31.0422 71.9657 32.2926 68.0507 34.6236Z" fill="#91AEC7"/>
<path d="M77.1984 34.6236H77.5399C78.6314 32.2697 79.7674 31 80.9851 31C79.6709 31 78.3938 32.2697 77.1984 34.6236Z" fill="white"/>
<path d="M60.9449 34.6236H67.7685C71.7865 32.2864 76.3445 31.0375 80.9926 31C74.1473 31.0019 67.3577 32.2291 60.9449 34.6236Z" fill="#91AEC7"/>
<path d="M67.7685 34.6236H68.0507C71.9678 32.2914 76.4339 31.0409 80.9926 31C76.3445 31.0375 71.7865 32.2864 67.7685 34.6236Z" fill="white"/>
<path d="M57.2547 34.6236H60.7667C67.2411 32.2281 74.0893 31.0012 80.9926 31C72.9342 30.9913 64.9218 32.2132 57.2324 34.6236" fill="#91AEC7"/>
<path d="M60.7667 34.6236H60.9449C67.3577 32.2291 74.1473 31.0019 80.9926 31C74.0893 31.0012 67.241 32.2281 60.7667 34.6236Z" fill="white"/>
<path d="M57.2546 34.6236C66.6473 32.0841 69.8772 31.3416 81.0148 31C72.9565 30.9913 64.9441 32.2132 57.2546 34.6236Z" fill="white"/>
<path d="M56.9576 34.6236H57.2027C64.8934 32.2189 72.905 30.997 80.9629 31C72.8246 30.9961 64.7322 32.2177 56.9576 34.6236Z" fill="#91AEC7"/>
<path d="M57.2027 34.6236H57.2546C66.6473 32.0841 69.8772 31.3416 81.0148 31C72.9569 30.997 64.9454 32.2189 57.2546 34.6236" fill="white"/>
<path d="M129.634 51.3233H134.639C126.363 43.9838 116.669 38.4212 106.156 34.98H103.81C113.494 38.5113 122.306 44.0823 129.649 51.3159" fill="#91AEC7"/>
<path d="M103.795 34.98H106.156C116.673 38.4172 126.373 43.9773 134.653 51.3159C126.371 43.9799 116.672 38.4201 106.156 34.98L105.042 34.6236H102.815L103.825 34.98" fill="white"/>
<path d="M116.232 51.3233H129.307C122.025 44.0957 113.27 38.5238 103.639 34.9874H97.5133C104.5 38.4625 110.878 44.0761 116.232 51.3233Z" fill="#91AEC7"/>
<path d="M116.232 51.3233C110.856 44.0687 104.5 38.4551 97.5133 34.9874C104.5 38.4625 110.878 44.0761 116.232 51.3233Z" fill="white"/>
<path d="M97.5133 34.98H103.639C113.27 38.5163 122.025 44.0883 129.307 51.3159H129.634C122.035 43.8272 112.863 38.1251 102.785 34.6236H96.7857L97.5282 34.98" fill="white"/>
<path d="M96.6297 51.3233H115.668C110.374 44.0687 104.122 38.4254 97.246 34.98H88.3359C91.4396 38.4551 94.276 44.0687 96.6446 51.3159" fill="#91AEC7"/>
<path d="M96.6297 51.3233C94.276 44.0687 91.4248 38.4254 88.3359 34.98C91.4396 38.4551 94.276 44.0687 96.6446 51.3159" fill="white"/>
<path d="M88.336 34.98H97.246C104.122 38.4551 110.374 44.0687 115.668 51.3159H116.232C110.671 43.8088 104.062 38.0616 96.7857 34.6162H88.0018L88.3211 34.9726" fill="white"/>
<path d="M73.3076 51.3233H95.8798C93.6077 44.0687 90.9273 38.4551 87.9721 34.9874H77.3914C75.8618 38.4625 74.4808 44.0761 73.3076 51.3233Z" fill="#91AEC7"/>
<path d="M73.3076 51.3233C74.4808 44.0687 75.8618 38.4551 77.3914 34.9874C75.8618 38.4625 74.4808 44.0761 73.3076 51.3233Z" fill="white"/>
<path d="M77.3914 34.98H87.9721C90.9422 38.4551 93.6078 44.0687 95.8798 51.3159H96.6223C94.1498 43.8088 91.2243 38.0616 87.9944 34.6162H77.5473L77.3914 34.9726" fill="white"/>
<path d="M52.0942 51.3233H72.528C73.82 44.0687 75.3495 38.4551 77.0276 34.9874H67.4493C61.7171 38.4254 56.5122 44.0687 52.0942 51.3233Z" fill="#91AEC7"/>
<path d="M52.0942 51.3233C56.5493 44.0687 61.7468 38.4551 67.4493 34.9874C61.7171 38.4254 56.5122 44.0687 52.0942 51.3233Z" fill="white"/>
<path d="M67.4492 34.98H77.0276C75.3495 38.4551 73.8199 44.0687 72.528 51.3159H73.3076C74.5179 43.8088 75.9584 38.0616 77.5473 34.6162H68.0507L67.4492 34.9726" fill="white"/>
<path d="M36.2491 51.3233H51.4631C55.9775 44.0687 61.3013 38.4254 67.1523 34.98H60.0242C50.993 38.6001 42.8779 44.1796 36.264 51.3159" fill="#91AEC7"/>
<path d="M36.2491 51.3233C41.6917 45.977 47.8619 39.9179 60.0093 34.9874C50.9782 38.6075 42.863 44.187 36.2491 51.3233Z" fill="white"/>
<path d="M60.0242 34.98H67.1522C61.3013 38.4551 56.0147 44.0687 51.4631 51.3159H52.0942C56.6606 43.8162 62.0809 38.069 68.0507 34.6236H60.9449L60.0242 34.98Z" fill="white"/>
<path d="M28.0148 51.3233H35.8408C42.5337 44.1738 50.7266 38.595 59.8311 34.9874H56.1632C45.7555 38.4359 36.1724 43.9974 28.0148 51.3233Z" fill="#91AEC7"/>
<path d="M56.1632 34.98H59.8311C50.7266 38.5876 42.5337 44.1664 35.8408 51.3159H36.2491C43.09 43.929 51.5404 38.2172 60.9449 34.6236H57.2324L56.1409 34.98" fill="white"/>
<path d="M27.3465 51.3233H27.8959C36.0775 43.9954 45.6828 38.4342 56.1112 34.9874H55.8587C45.3403 38.4266 35.6388 43.9864 27.3539 51.3233" fill="#91AEC7"/>
<path d="M55.8513 34.98H56.1038C45.6753 38.4268 36.0701 43.988 27.8885 51.3159H28.0073C36.4548 43.7301 46.427 38.0387 57.2546 34.6236H56.9576L55.8513 34.98Z" fill="white"/>
<path d="M147.87 78.5226H154.753C150.191 68.4923 143.636 59.4956 135.485 52.0807H130.399C137.901 59.6633 143.837 68.6479 147.87 78.5226Z" fill="#91AEC7"/>
<path d="M130.399 52.0807H135.485C143.636 59.4956 150.191 68.4923 154.753 78.5226C150.187 68.4991 143.632 59.5082 135.485 52.0956L134.639 51.353H129.619C129.879 51.5981 130.132 51.8505 130.362 52.0956" fill="white"/>
<path d="M129.449 78.5226H147.425C143.424 68.6636 137.529 59.6852 130.072 52.0956H116.789C122.448 60.1395 126.727 69.071 129.449 78.5226Z" fill="#91AEC7"/>
<path d="M116.789 52.0807H130.072C137.53 59.6747 143.426 68.6584 147.425 78.5226H147.87C143.703 68.3155 137.498 59.0656 129.634 51.3382H116.232C116.425 51.5807 116.611 51.8283 116.789 52.0807Z" fill="white"/>
<path d="M102.488 78.5226H128.669C125.997 69.0896 121.791 60.1611 116.217 52.0956H96.8748C99.513 60.724 101.391 69.5667 102.488 78.5226Z" fill="#91AEC7"/>
<path d="M96.8748 52.0807H116.217C121.792 60.1508 125.999 69.0844 128.669 78.5226H129.449C126.647 68.7652 122.176 59.5675 116.232 51.3382H96.6298C96.7139 51.5807 96.7956 51.8283 96.8748 52.0807Z" fill="white"/>
<path d="M70.4193 78.5226H101.463C100.42 69.5801 98.6318 60.7404 96.1174 52.0956H73.1814C72.0008 59.4393 71.0801 68.424 70.4193 78.5226Z" fill="#91AEC7"/>
<path d="M73.1814 52.0807H96.1174C98.6326 60.7304 100.421 69.5751 101.463 78.5226H102.488C101.368 69.3015 99.407 60.2021 96.6297 51.3382H73.3076C73.2631 51.5832 73.2259 51.8357 73.1814 52.0807Z" fill="white"/>
<path d="M41.2611 78.5226H69.3575C70.1 68.4389 71.1172 59.4541 72.3943 52.0956H51.6413C46.9159 60.3535 43.4191 69.2561 41.2611 78.5226Z" fill="#91AEC7"/>
<path d="M51.6413 52.0807H72.4315C71.1544 59.4393 70.1148 68.4166 69.3946 78.5077H70.4564C71.1395 68.0676 72.127 58.823 73.3447 51.3233H52.0942C51.9457 51.5684 51.7898 51.8208 51.6413 52.0659" fill="white"/>
<path d="M19.4759 78.5226H40.3923C42.603 69.2327 46.1786 60.3218 51.0027 52.0807H35.5438C28.5612 59.7972 23.1085 68.7703 19.4759 78.5226Z" fill="#91AEC7"/>
<path d="M35.5438 52.0807H51.0027C46.1786 60.3218 42.603 69.2327 40.3923 78.5226H41.2611C43.7856 68.0676 47.4981 58.823 52.0942 51.3233H36.2491C36.0115 51.5684 35.7739 51.8208 35.5066 52.0659" fill="white"/>
<path d="M8.14528 78.5226H18.9042C22.5829 68.7578 28.0891 59.7837 35.128 52.0807H27.1757C19.1103 59.5178 12.6364 68.5129 8.14528 78.5226Z" fill="#91AEC7"/>
<path d="M27.1757 52.0807H35.128C28.0891 59.7837 22.5829 68.7578 18.9042 78.5226H19.4759C23.2268 68.4427 28.9264 59.2003 36.2491 51.3233H28.0148C27.7326 51.5684 27.4505 51.8208 27.1757 52.0659" fill="white"/>
<path d="M7.23943 78.5226H7.98193C12.4893 68.5107 18.9781 59.5159 27.0569 52.0807H26.5C18.3517 59.4959 11.7984 68.4926 7.23943 78.5226Z" fill="#91AEC7"/>
<path d="M26.5 52.0807H27.0569C18.9781 59.5159 12.4893 68.5107 7.98193 78.5226H8.14529C12.7906 68.1646 19.5599 58.8981 28.0148 51.3233H27.3465C27.0643 51.5659 26.7822 51.8134 26.5 52.0659" fill="white"/>
<path d="M154.419 110.949H161.978C161.85 100.138 159.552 89.4618 155.221 79.5547H148.293C152.239 89.5565 154.315 100.198 154.419 110.949Z" fill="#91AEC7"/>
<path d="M148.293 79.5547H155.221C159.552 89.4618 161.85 100.138 161.978 110.949C161.856 100.138 159.56 89.4611 155.228 79.5547L154.768 78.5226H147.87C148.011 78.8716 148.16 79.2206 148.293 79.5696" fill="white"/>
<path d="M134.193 110.949H153.929C153.826 100.202 151.765 89.5633 147.848 79.5547H129.753C132.648 89.7705 134.147 100.331 134.208 110.949" fill="#91AEC7"/>
<path d="M129.753 79.5547H147.848C151.765 89.5633 153.826 100.202 153.929 110.949H154.419C154.313 99.8228 152.09 88.8181 147.87 78.5226H129.449C129.552 78.8716 129.656 79.2206 129.753 79.5696" fill="white"/>
<path d="M104.597 110.949H133.332C133.281 100.337 131.813 89.7785 128.966 79.5547H102.629C103.921 89.97 104.578 100.454 104.597 110.949Z" fill="#91AEC7"/>
<path d="M102.629 79.5547H128.966C131.812 89.7785 133.281 100.337 133.332 110.949H134.193C134.137 99.9716 132.54 89.0561 129.449 78.5226H102.488C102.54 78.8716 102.585 79.2206 102.629 79.5696" fill="white"/>
<path d="M69.3872 110.949H103.468C103.453 100.457 102.829 89.9745 101.597 79.5547H70.3525C69.751 89.2077 69.4021 99.7963 69.3872 110.949Z" fill="#91AEC7"/>
<path d="M69.3872 110.949C69.3872 99.8112 69.751 89.1854 70.3525 79.5547C69.751 89.2077 69.4021 99.7963 69.3872 110.949Z" fill="white"/>
<path d="M70.3524 79.5547H101.597C102.829 89.9745 103.453 100.457 103.468 110.949H104.597C104.581 100.107 103.876 89.276 102.488 78.5226H70.4193L70.3524 79.5696" fill="white"/>
<path d="M37.3703 110.949H68.214C68.214 99.8112 68.615 89.1854 69.2832 79.5547H41.0086C38.6272 89.8508 37.4068 100.381 37.3703 110.949Z" fill="#91AEC7"/>
<path d="M41.0086 79.5547H69.2832C68.615 89.2077 68.2363 99.7963 68.214 110.949H69.3872C69.3872 99.388 69.7733 88.4132 70.4193 78.5077H41.2611C41.172 78.8567 41.0903 79.2057 41.0086 79.5547Z" fill="white"/>
<path d="M13.4468 110.949H36.4199C36.4578 100.377 37.7034 89.844 40.1325 79.5547H19.0824C15.437 89.6242 13.5313 100.241 13.4468 110.949Z" fill="#91AEC7"/>
<path d="M19.0824 79.5547H40.1325C37.7034 89.844 36.4578 100.377 36.4199 110.949H37.3703C37.4084 100.026 38.714 89.1445 41.2611 78.5226H19.4759C19.3423 78.8716 19.2086 79.2206 19.0824 79.5696" fill="white"/>
<path d="M1.01723 110.949H12.8305C12.9246 100.235 14.8559 89.616 18.5404 79.5547H7.68494C3.39883 89.4732 1.12728 100.145 1.00238 110.949" fill="#91AEC7"/>
<path d="M7.68494 79.5547H18.5404C14.866 89.6178 12.9448 100.237 12.8602 110.949H13.4765C13.5547 99.8717 15.5857 88.8948 19.4759 78.5226H8.14529C7.98936 78.8716 7.83344 79.2206 7.68494 79.5696" fill="white"/>
<path d="M0.0148468 110.949H0.839029C0.960566 100.145 3.23225 89.4722 7.52158 79.5547H6.77908C2.44542 89.4612 0.145198 100.137 0.0148468 110.949Z" fill="#91AEC7"/>
<path d="M6.76422 79.5547H7.50673C3.2174 89.4722 0.945711 100.145 0.824173 110.949H1.01722C1.14198 99.7656 3.5684 88.7275 8.14528 78.5226H7.23943C7.07607 78.8716 6.92015 79.2206 6.76422 79.5696" fill="white"/>
<path d="M147.306 146.836H154.129C158.761 137.128 161.4 126.589 161.889 115.843H154.345C153.914 126.517 151.528 137.023 147.306 146.836Z" fill="#91AEC7"/>
<path d="M129.04 146.836H146.86C151.058 137.017 153.428 126.513 153.855 115.843H134.134C133.852 126.357 132.139 136.785 129.04 146.836Z" fill="#91AEC7"/>
<path d="M146.86 146.836H147.306C151.528 137.023 153.914 126.517 154.345 115.843H153.855C153.428 126.513 151.058 137.017 146.86 146.836Z" fill="white"/>
<path d="M102.31 146.836H128.298C131.349 136.776 133.037 126.352 133.317 115.843H104.575C104.455 126.211 103.699 136.561 102.31 146.836Z" fill="#91AEC7"/>
<path d="M128.261 146.836H129.003C132.101 136.785 133.815 126.357 134.097 115.843H133.243C132.975 126.35 131.299 136.774 128.261 146.836Z" fill="white"/>
<path d="M70.5158 146.836H101.3C102.627 136.556 103.346 126.207 103.453 115.843H69.3946C69.4689 126.899 69.8624 137.376 70.5084 146.836" fill="#91AEC7"/>
<path d="M101.293 146.836H102.31C103.699 136.561 104.455 126.211 104.575 115.843H103.446C103.339 126.207 102.62 136.556 101.293 146.836Z" fill="white"/>
<path d="M41.5952 146.836H69.454C68.7115 137.376 68.3106 126.899 68.2289 115.843H37.4149C37.6397 126.298 39.042 136.695 41.5952 146.836Z" fill="#91AEC7"/>
<path d="M69.454 146.836H70.5158C69.8698 137.376 69.4763 126.899 69.402 115.843H68.2289C68.3106 126.899 68.7412 137.376 69.454 146.836Z" fill="white"/>
<path d="M20.0254 146.836H40.7339C38.1279 136.703 36.6954 126.303 36.4645 115.843H13.521C13.9123 126.468 16.1119 136.95 20.0254 146.836Z" fill="#91AEC7"/>
<path d="M40.7339 146.836H41.5952C39.042 136.695 37.6397 126.298 37.4149 115.843H36.4645C36.6954 126.303 38.128 136.703 40.7339 146.836Z" fill="white"/>
<path d="M8.76156 146.836H19.4314C15.4937 136.956 13.2835 126.472 12.8973 115.843H1.09889C1.57669 126.579 4.18126 137.114 8.76156 146.836Z" fill="#91AEC7"/>
<path d="M19.4314 146.836H20.0254C16.1246 136.948 13.9376 126.466 13.5582 115.843H12.8973C13.2835 126.472 15.4937 136.956 19.4314 146.836Z" fill="white"/>
<path d="M7.8557 146.836H8.59821C4.00884 137.114 1.39903 126.576 0.920694 115.835H0.0965118C0.587997 126.583 3.22624 137.124 7.8557 146.836Z" fill="#91AEC7"/>
<path d="M8.59821 146.836H8.76157C4.18032 137.112 1.57572 126.574 1.0989 115.835H0.9207C1.39904 126.576 4.00884 137.114 8.59821 146.836Z" fill="white"/>
<path d="M128.639 173.635H133.54C141.91 166.498 148.744 157.734 153.625 147.876H146.845C142.533 157.578 136.345 166.331 128.639 173.635Z" fill="#91AEC7"/>
<path d="M146.845 147.876H153.625C148.744 157.734 141.91 166.498 133.54 173.635C141.895 166.492 148.715 157.729 153.587 147.876C153.758 147.527 153.929 147.185 154.092 146.829H147.254C147.105 147.185 146.949 147.527 146.793 147.876" fill="white"/>
<path d="M115.512 173.635H128.32C135.983 166.32 142.129 157.567 146.407 147.876H128.706C125.802 157.149 121.341 165.86 115.512 173.635Z" fill="#91AEC7"/>
<path d="M128.706 147.876H146.407C142.129 157.567 135.983 166.32 128.32 173.635H128.639C136.621 166.066 142.973 156.947 147.306 146.836H129.04L128.706 147.883" fill="white"/>
<path d="M96.3105 173.635H114.955C120.698 165.839 125.086 157.131 127.934 147.876H102.161C100.995 156.622 99.0369 165.243 96.3105 173.635Z" fill="#91AEC7"/>
<path d="M102.161 147.876H127.934C125.086 157.131 120.698 165.839 114.955 173.635H115.512C121.553 165.561 126.132 156.491 129.04 146.836H102.31C102.258 147.193 102.213 147.534 102.161 147.883" fill="white"/>
<path d="M73.4858 173.635H95.5977C98.2009 165.227 100.067 156.608 101.174 147.876H70.5826C71.3251 157.781 72.2681 166.536 73.4636 173.635" fill="#91AEC7"/>
<path d="M73.4858 173.635C72.2904 166.536 71.3103 157.781 70.6049 147.876C71.3474 157.781 72.2904 166.536 73.4858 173.635Z" fill="white"/>
<path d="M70.5826 147.876H101.152C100.044 156.608 98.1786 165.227 95.5754 173.635H96.3179C99.1485 164.906 101.157 155.932 102.317 146.829H70.5158C70.5158 147.185 70.5678 147.527 70.5901 147.876" fill="white"/>
<path d="M52.6957 173.635H72.7433C71.2473 165.108 70.1891 156.511 69.5728 147.876H41.8699C44.5281 157.781 48.2406 166.536 52.6957 173.635Z" fill="#91AEC7"/>
<path d="M41.8699 147.876H69.5357C70.1643 156.511 71.2349 165.109 72.7433 173.635H73.4858C72.2458 166.283 71.2583 157.165 70.5158 146.829H41.5952C41.6843 147.185 41.7734 147.527 41.8699 147.876Z" fill="white"/>
<path d="M37.1624 173.635H52.072C47.4981 166.536 43.7113 157.781 41.016 147.876H20.4115C24.3028 157.451 29.9885 166.194 37.1624 173.635Z" fill="#91AEC7"/>
<path d="M37.1624 173.635C32.0243 167.954 26.1882 161.509 20.4115 147.876C24.3028 157.451 29.9885 166.194 37.1624 173.635Z" fill="white"/>
<path d="M20.4115 147.876H41.016C43.7113 157.781 47.4907 166.536 52.072 173.635H52.6957C48.055 166.283 44.2608 157.165 41.6026 146.829H20.0254L20.4486 147.876" fill="white"/>
<path d="M29.0988 173.635H36.7615C29.5294 166.209 23.7899 157.465 19.8546 147.876H9.25905C14.0659 157.713 20.8148 166.476 29.0988 173.635Z" fill="#91AEC7"/>
<path d="M9.25905 147.876H19.8546C23.7899 157.465 29.5294 166.209 36.7615 173.635H37.1624C29.7421 165.917 23.9184 156.81 20.0254 146.836H8.76157C8.92492 147.193 9.08827 147.534 9.25905 147.883" fill="white"/>
<path d="M28.4454 173.635H28.98C20.6826 166.479 13.9209 157.717 9.10312 147.876H8.36061C13.2302 157.731 20.0506 166.494 28.4083 173.635" fill="#91AEC7"/>
<path d="M8.36804 147.876H9.11055C13.9284 157.717 20.69 166.479 28.9874 173.635H29.1062C20.5244 166.224 13.5934 157.094 8.76157 146.836H7.85571L8.36804 147.883" fill="white"/>
<path d="M101.493 189.8H103.602C114.245 186.709 124.138 181.459 132.664 174.377H127.845C120.28 181.363 111.289 186.625 101.493 189.8Z" fill="#91AEC7"/>
<path d="M127.845 174.377H132.664C124.138 181.459 114.245 186.709 103.602 189.8C114.248 186.71 124.144 181.46 132.671 174.377L133.555 173.635H128.639L127.845 174.377Z" fill="white"/>
<path d="M95.8427 189.8H101.352C111.094 186.619 120.028 181.356 127.533 174.377H114.91C109.379 181.364 102.904 186.674 95.813 189.8" fill="#91AEC7"/>
<path d="M114.94 174.377H127.563C120.058 181.356 111.124 186.619 101.382 189.8H101.523C111.665 186.507 120.941 180.983 128.669 173.635H115.512C115.326 173.887 115.133 174.132 114.94 174.377Z" fill="white"/>
<path d="M87.5934 189.8H95.6125C102.585 186.674 108.978 181.364 114.398 174.377H96.058C93.6077 181.364 90.7342 186.674 87.5934 189.8Z" fill="#91AEC7"/>
<path d="M96.0506 174.377H114.391C108.948 181.364 102.577 186.674 95.6051 189.8H95.8427C103.186 186.562 109.869 180.993 115.512 173.635H96.3105C96.2214 173.887 96.1397 174.132 96.0506 174.377Z" fill="white"/>
<path d="M77.7552 189.8H87.2667C90.2368 186.674 92.9989 181.364 95.3378 174.377H73.5898C74.7926 181.364 76.2108 186.674 77.7552 189.8Z" fill="#91AEC7"/>
<path d="M77.7552 189.8C76.2108 186.674 74.7852 181.364 73.5898 174.377C74.7926 181.364 76.2108 186.674 77.7552 189.8Z" fill="white"/>
<path d="M73.5898 174.377H95.3378C92.9989 181.364 90.2591 186.674 87.2668 189.8H87.5935C90.8456 186.562 93.8082 180.986 96.3179 173.635H73.4858C73.4858 173.887 73.5675 174.132 73.6121 174.377" fill="white"/>
<path d="M68.8155 189.8H77.4285C75.7282 186.674 74.1689 181.364 72.8399 174.377H53.1634C57.7001 181.364 63.0091 186.674 68.8155 189.8Z" fill="#91AEC7"/>
<path d="M68.8155 189.8C63.0091 186.674 57.6779 181.364 53.1634 174.377C57.7001 181.364 63.0091 186.674 68.8155 189.8Z" fill="white"/>
<path d="M53.1634 174.377H72.8398C74.1689 181.364 75.7282 186.674 77.4285 189.8H77.7552C76.1514 186.562 74.6961 180.986 73.4635 173.635H52.6956C52.8516 173.887 53.0075 174.132 53.1709 174.377" fill="white"/>
<path d="M62.1403 189.8H68.5556C62.6155 186.674 57.1878 181.364 52.5546 174.377H37.8975C44.7168 181.275 53.0031 186.546 62.1403 189.8Z" fill="#91AEC7"/>
<path d="M62.1403 189.8C55.4578 187.134 47.8916 184.104 37.8975 174.377C44.7168 181.275 53.0031 186.546 62.1403 189.8Z" fill="white"/>
<path d="M37.8975 174.377H52.5546C57.1878 181.364 62.6155 186.674 68.5556 189.8H68.8155C62.8012 186.562 57.3289 180.993 52.6957 173.635H37.1624L37.9049 174.377" fill="white"/>
<path d="M58.6728 189.8H61.9696C52.7624 186.556 44.4014 181.285 37.504 174.377H29.9601C38.3624 181.447 48.139 186.698 58.6728 189.8Z" fill="#91AEC7"/>
<path d="M29.9601 174.377H37.504C44.4014 181.285 52.7624 186.556 61.9696 189.8H62.1403C52.675 186.418 44.1244 180.884 37.1624 173.635H29.0988C29.381 173.887 29.6705 174.132 29.9601 174.377Z" fill="white"/>
<path d="M58.3907 189.8H58.6357C48.083 186.701 38.2866 181.45 29.8636 174.377H29.3438C37.8685 181.46 47.7616 186.71 58.4055 189.8" fill="#91AEC7"/>
<path d="M29.329 174.377H29.8487C38.2761 181.451 48.0778 186.703 58.6357 189.8H58.6877C47.7871 186.588 37.7022 181.076 29.1137 173.635H28.4603L29.3438 174.377" fill="white"/>
<path d="M80.9926 193C88.2396 193.004 95.4543 192.035 102.444 190.119H100.439C94.1241 192.033 87.5613 193.004 80.9629 193" fill="#91AEC7"/>
<path d="M68.9343 191.938C87.7419 193 94.2686 191.998 100.468 190.119H102.444C95.4448 192.037 88.2198 193.006 80.9629 193C88.2222 193.006 95.4495 192.037 102.451 190.119L103.572 189.8H101.463C94.8377 191.925 87.9211 193.005 80.9629 193" fill="white"/>
<path d="M80.9926 193C87.5495 193.003 94.0705 192.032 100.342 190.119H95.1447C90.6811 192.01 85.8846 192.989 81.0371 193" fill="#91AEC7"/>
<path d="M72.2607 191.938C85.8782 193 90.6154 191.998 95.1076 190.119H100.305C94.0334 192.032 87.5124 193.003 80.9554 193C87.9137 193.005 94.8302 191.925 101.456 189.8H95.8056C91.1354 191.898 86.0754 192.989 80.9554 193" fill="white"/>
<path d="M80.9926 193C85.7681 192.989 90.4918 192.009 94.8774 190.119H87.2519C85.262 191.998 83.1607 193 80.9926 193Z" fill="#91AEC7"/>
<path d="M77.1167 191.938C83.1607 193 85.2843 191.998 87.2519 190.119H94.8774C90.4918 192.009 85.7681 192.989 80.9926 193C86.1125 192.989 91.1726 191.898 95.8427 189.8H87.5935C85.4996 191.886 83.2869 193 81 193" fill="white"/>
<path d="M80.9926 193C83.0567 193 85.0615 191.998 86.9326 190.119H77.9409C78.921 191.998 79.953 193 81.0148 193" fill="#91AEC7"/>
<path d="M82.9008 191.938C79.9308 193 78.8987 191.998 77.9186 190.119H86.9549C85.0615 191.998 83.0567 193 81.0149 193C83.3018 193 85.5144 191.886 87.6083 189.8H77.7552C78.7799 191.886 79.8714 193 80.9926 193" fill="white"/>
<path d="M80.9926 193C79.8194 193 78.6834 191.998 77.6067 190.119H69.4392C73.0106 191.987 76.9769 192.975 81.0074 193" fill="#91AEC7"/>
<path d="M88.1578 191.938C77.0202 193 73.1072 191.998 69.4243 190.119H77.5919C78.6685 191.998 79.8194 193 80.9777 193C79.8565 193 78.7502 191.886 77.7404 189.8H68.8303C72.5573 191.869 76.7444 192.97 81.0074 193" fill="white"/>
<path d="M80.9926 193C76.8813 192.977 72.8327 191.99 69.1719 190.119H63.0908C68.8715 192.027 74.9199 193 81.0074 193" fill="#91AEC7"/>
<path d="M92.093 191.938C74.7926 193 68.7858 191.998 63.0759 190.119H69.1719C72.8327 191.99 76.8813 192.977 80.9926 193C76.7296 192.97 72.5424 191.869 68.8155 189.8H62.1329C68.1923 191.919 74.5658 193.001 80.9851 193" fill="white"/>
<path d="M80.9926 193C74.8516 193 68.7493 192.028 62.9126 190.119H59.7792C67.5903 191.953 71.5108 192.874 80.9926 193Z" fill="#91AEC7"/>
<path d="M80.9926 193C84.9427 192.837 90.2071 192.413 94.1349 191.938C90.2071 192.406 84.9501 192.918 80.9926 193Z" fill="white"/>
<path d="M94.1349 191.938C73.6492 193 66.536 191.998 59.7792 190.119H62.9125C68.7493 192.028 74.8516 193 80.9926 193C74.5733 193.001 68.1998 191.919 62.1403 189.8H58.6728C65.9211 191.93 73.4378 193.008 80.9926 193" fill="white"/>
<path d="M80.9926 193C72.825 192.666 68.7783 192.502 59.7346 190.119H59.5193C66.5157 192.037 73.7381 193.006 80.9926 193Z" fill="#91AEC7"/>
<path d="M59.5193 190.119H59.7346C67.5606 191.953 71.4885 192.874 80.9926 193C72.2087 192.636 68.5704 192.488 58.6728 189.8H58.3907L59.5193 190.119Z" fill="white"/>
<path d="M-0.0222778 112.004C-0.0222778 113.286 0.00742242 114.563 0.0668229 115.835H161.903C161.963 114.568 161.993 113.291 161.993 112.004C161.993 111.647 161.993 111.261 161.993 110.949H0.0148475C0.0148475 111.298 0.0148475 111.647 0.0148475 112.004" fill="white"/>
</g>
<mask id="mask1_69_569" style="mask-type:luminance" maskUnits="userSpaceOnUse" x="-1" y="31" width="82" height="162">
<path d="M-0.0222717 112.004C0.0168114 116.402 0.369156 120.791 1.03209 125.139C1.83043 129.348 2.85659 133.509 4.10606 137.607C5.43474 141.603 7.07579 145.488 9.01403 149.227C9.14768 150.2 15.3625 160.269 19.4759 164.717C22.2516 167.793 25.1834 170.725 28.2598 173.501C31.4364 176.183 34.793 178.644 38.3059 180.867C41.8795 183.047 45.6011 184.975 49.4435 186.636C53.398 188.189 57.4331 189.527 61.5315 190.646C65.244 191.708 70.4861 192.265 74.3546 192.733C76.3296 192.97 79.0027 192.918 80.9926 193C59.6454 192.796 39.2419 184.172 24.2189 169.003C9.19589 153.835 0.768089 133.349 0.768089 112C0.768089 90.6508 9.19589 70.1648 24.2189 54.9966C39.2419 39.8283 59.6454 31.2044 80.9926 31C77.0425 31.1634 71.7335 31.2747 67.8576 32.0618C65.9568 32.4405 63.4026 32.8044 61.5315 33.3539C57.4451 34.4879 53.4181 35.8262 49.4658 37.3636C45.5881 38.9495 41.8606 40.8805 38.3282 43.1331C36.7763 44.1801 34.6156 45.4647 33.1306 46.6305C29.8611 49.1763 26.7259 51.8902 23.7379 54.7613C20.8758 57.7558 18.1672 60.8934 15.6223 64.1618C14.464 65.6469 13.1795 67.7854 12.1326 69.3596C9.88003 72.8922 7.94919 76.6199 6.36328 80.4977C2.14505 90.4657 -0.0264853 101.18 -0.0222717 112.004Z" fill="white"/>
</mask>
<g mask="url(#mask1_69_569)">
<path d="M-0.0221317 112.004C-0.0221317 123.327 1.98264 130.263 4.1062 137.607C5.43488 141.603 7.07593 145.488 9.01417 149.227C11.7689 154.069 15.1918 160.098 19.4761 164.717C24.1316 169.751 29.4182 175.454 38.306 180.867C48.1294 186.807 54.3293 188.604 61.5094 190.646C67.932 192.473 74.8745 192.755 80.9704 193C59.6232 192.793 39.221 184.166 24.2 168.996C9.17907 153.825 0.754076 133.338 0.757012 111.989C0.759947 90.6398 9.19058 70.1549 24.2157 54.9887C39.2408 39.8226 59.6455 31.2014 80.9927 31C77.0426 31.1634 71.7337 31.2747 67.8578 32.0618C60.3807 33.5469 56.9652 34.2895 49.4659 37.3636C39.8527 41.4575 31.1178 47.3642 23.7381 54.7613C16.1902 62.2581 10.2039 71.1773 6.12551 81.0029C2.04711 90.8284 -0.0424059 101.365 -0.0221317 112.004Z" fill="#9E9E9E"/>
<path d="M43.7856 183.963C53.5495 189.02 60.5068 190.438 67.8725 191.946L74.3694 192.74L81.0074 193.007C67.0882 193.031 53.4002 189.449 41.2759 182.612L38.4915 180.993C40.0731 181.892 42.1521 183.154 43.7707 183.963" fill="#9E9E9E"/>
<path d="M67.8576 32.0618C64.0857 32.8044 59.0961 34.0593 55.391 35.1285L49.4509 37.3561L43.7856 40.0441L38.343 43.1331L33.1455 46.6305L28.2672 50.4991L23.7379 54.7613L19.4982 59.2908L15.6223 64.1618L12.1326 69.3596L9.0363 74.8099L6.36328 80.4755L4.13576 86.4158L2.35375 92.5343L1.05436 98.8608L0.267305 105.358L2.60256e-06 112.041L0.267305 118.724C1.28454 127.077 1.62609 129.045 4.12834 137.681C4.60354 139.114 5.1233 140.54 5.68017 141.936L3.86103 136.842C-0.0388035 124.688 -1.01402 111.786 1.01477 99.184C3.04356 86.5824 8.01901 74.6379 15.5362 64.3226C23.0533 54.0074 32.8998 45.613 44.2741 39.8225C55.6485 34.032 68.2293 31.0092 80.9926 31L74.3546 31.2673L67.8576 32.0618Z" fill="#9E9E9E"/>
<path d="M55.391 188.871C59.1035 190.045 64.0857 191.166 67.8576 191.938L74.3546 192.733L80.9926 193C72.0136 193.007 63.0959 191.521 54.6039 188.604L53.1189 188.07C53.802 188.307 54.7079 188.649 55.3984 188.871" fill="#999999"/>
<path d="M67.8576 32.0618C64.0857 32.8044 59.0961 34.0593 55.391 35.1285L49.4509 37.3561L43.7856 40.0441L38.343 43.1331L33.1455 46.6305L28.2672 50.4991L23.7379 54.7613L19.4982 59.2908L15.6223 64.1618L12.1326 69.3596L9.0363 74.8099L6.36328 80.4755L4.13576 86.4158L2.35375 92.5343L1.05436 98.8608L0.267305 105.358L2.38685e-06 112.041L0.267305 118.724L1.05436 125.214C1.11376 125.585 1.18059 125.956 1.24741 126.327L0.683108 122.615C-0.817794 111.181 0.137755 99.5594 3.48595 88.5249C6.83414 77.4904 12.4979 67.2972 20.0991 58.626C27.7002 49.9548 37.0638 43.0052 47.5646 38.2413C58.0654 33.4773 69.4617 31.0086 80.9926 31L74.3546 31.2673L67.8576 32.0618Z" fill="#999999"/>
<path d="M67.8576 191.938C71.7855 192.421 77.0424 192.837 80.9926 193C76.1325 193.001 71.2821 192.569 66.4988 191.708L65.838 191.582C66.5063 191.708 67.1819 191.827 67.8576 191.938Z" fill="#949494"/>
<path d="M67.8576 32.0618C64.0857 32.8044 59.0961 34.0593 55.391 35.1285L49.4509 37.3562L43.7856 40.0441L38.343 43.1331L33.1455 46.6305L28.2672 50.4991L23.7379 54.7613L19.4982 59.2908L15.6223 64.1619L12.1325 69.3596L9.0363 74.8099L6.36328 80.4755L4.13576 86.4158L2.35374 92.5343L1.05436 98.8608L0.2673 105.358L-2.64635e-06 112.041C-2.64635e-06 112.427 -2.64635e-06 112.783 -2.64635e-06 113.192H-0.0222778C-0.0222778 112.256 -0.0222778 110.964 -0.0222778 110.058C0.485731 88.9111 9.24541 68.8017 24.3844 54.0284C39.5233 39.255 59.8403 30.99 80.9926 31L74.3546 31.2673L67.8576 32.0618Z" fill="#949494"/>
<path d="M80.9926 193C78.6908 193 76.4113 192.903 74.1541 192.71H73.9462L80.5768 193.015H80.9926" fill="#8F8F8F"/>
<path d="M67.8576 32.0618C64.0857 32.8044 59.0961 34.0593 55.391 35.1285L49.4509 37.3561L43.7856 40.0441L38.343 43.1331L33.1455 46.6305L28.2672 50.4991L23.7379 54.7613L19.4982 59.2908L15.6223 64.1618L12.1326 69.3596L9.0363 74.8099L6.36328 80.4755L4.13576 86.4158L2.35375 92.5343L1.05436 98.8608C0.950412 99.5142 0.853887 100.16 0.764786 100.799L1.16574 98.2741C4.40752 79.4498 14.1953 62.376 28.8012 50.0668C43.4071 37.7577 61.892 31.0047 80.9926 31L74.3546 31.2673L67.8576 32.0618Z" fill="#8F8F8F"/>
<path d="M80.9926 193C79.4581 193 77.9335 192.958 76.4187 192.874H76.2628L80.9926 193.007" fill="#8A8A8A"/>
<path d="M67.8576 32.0618C64.0857 32.8044 59.0961 34.0593 55.391 35.1285L49.4509 37.3561L43.7856 40.0441L38.343 43.1331L33.1455 46.6305L28.2672 50.4991L23.7379 54.7613L19.4982 59.2908L15.6223 64.1618L12.1326 69.3596L9.0363 74.8099L6.36328 80.4755L4.13576 86.4158L3.49721 88.4058L4.13576 86.4455C9.50564 70.3056 19.8185 56.2651 33.6129 46.3136C47.4073 36.3622 63.9835 31.0046 80.9926 31L74.3546 31.2673L67.8576 32.0618Z" fill="#8A8A8A"/>
<path d="M67.8576 32.0618C64.0857 32.8044 59.0961 34.0593 55.391 35.1285L49.4509 37.3561L43.7856 40.0441L38.343 43.1331L33.1455 46.6305L28.2672 50.4991L23.7379 54.7613L19.4982 59.2908L15.6223 64.1618L12.1325 69.3596L9.08084 74.7133L9.82335 73.3025C16.7823 60.4998 27.067 49.8122 39.5928 42.367C52.1186 34.9217 66.4213 30.9947 80.9926 31L74.3546 31.2673L67.8576 32.0618Z" fill="#858585"/>
<path d="M67.8576 32.0618C64.5758 32.7301 60.195 33.7251 56.9576 34.6236C64.7417 32.2147 72.8444 30.9931 80.9926 31C76.5983 31.1158 72.2135 31.4703 67.8576 32.0618Z" fill="#91AEC7"/>
<path d="M55.391 35.1285C51.8566 36.4651 47.2011 38.4254 43.7856 40.0441C40.5334 41.8931 36.2789 44.4994 33.1752 46.6305C31.4154 48.0264 29.0468 49.8457 27.3539 51.3233C35.6388 43.9864 45.3403 38.4266 55.8587 34.9874L55.4058 35.136" fill="#91AEC7"/>
<path d="M55.8439 34.98L56.9502 34.6236L55.8365 34.98" fill="white"/>
<path d="M23.7379 54.7613C21.1985 57.5013 17.9612 61.2808 15.6372 64.199C13.5285 67.2731 10.8926 71.5204 9.03629 74.8099C8.40516 76.0351 7.79631 77.2751 7.22458 78.5226C11.7879 68.4913 18.3464 59.4945 26.5 52.0807L23.7379 54.7613Z" fill="#91AEC7"/>
<path d="M26.4926 52.0807C26.7748 51.8184 27.0569 51.5708 27.3391 51.3382C27.0569 51.5807 26.7748 51.8283 26.4926 52.0807Z" fill="white"/>
<path d="M4.12833 86.4009C3.05912 90.1136 1.82656 95.0886 1.05436 98.8607C0.616278 102.477 0.170774 107.311 -0.0222778 110.949C0.115103 100.136 2.42291 89.4596 6.76423 79.5547C5.77422 81.7922 4.89806 84.0743 4.13576 86.4009" fill="#91AEC7"/>
<path d="M6.75681 79.5547C6.91273 79.2057 7.06866 78.8567 7.23201 78.5077L6.76423 79.5547" fill="white"/>
<path d="M1.05436 125.139C1.79687 128.911 3.05913 133.909 4.12834 137.607C5.17285 140.755 6.41277 143.835 7.84087 146.829C3.2175 137.118 0.584339 126.58 0.0965271 115.835C0.334129 118.627 0.579156 122.377 1.06179 125.139" fill="#91AEC7"/>
<path d="M9.0363 149.227C10.8926 152.487 13.5285 156.734 15.6223 159.838C17.9464 162.764 21.1837 166.521 23.7231 169.276C25.1338 170.59 26.9753 172.387 28.438 173.635C20.0803 166.494 13.2599 157.731 8.39032 147.876C8.61307 148.329 8.84325 148.782 9.07343 149.227" fill="#91AEC7"/>
<path d="M8.35319 147.876L7.85571 146.836C8.01906 147.193 8.18984 147.534 8.36062 147.883" fill="white"/>
<path d="M33.1603 177.37C36.264 179.508 40.5186 182.107 43.7856 183.963C51.4854 187.587 51.9532 187.802 58.4055 189.807C47.7616 186.718 37.8685 181.468 29.3438 174.385L33.1826 177.355" fill="#91AEC7"/>
<path d="M67.8576 191.938C71.7855 192.421 77.0424 192.837 80.9926 193C73.7381 193.006 66.5157 192.037 59.5193 190.119C62.0141 190.698 65.3331 191.559 67.8651 191.938" fill="#91AEC7"/>
<path d="M59.5119 190.119L58.3833 189.8L59.5045 190.119" fill="white"/>
<path d="M-0.0222778 112.004L0.0668229 115.835C0.00742242 114.568 -0.0222778 113.291 -0.0222778 112.004C-0.0222778 111.647 -0.0222778 111.261 -0.0222778 110.949V112.004Z" fill="white"/>
</g>
<mask id="mask2_69_569" style="mask-type:luminance" maskUnits="userSpaceOnUse" x="-1" y="31" width="163" height="162">
<path d="M80.9926 193C79.0027 192.918 76.3296 193 74.3546 192.733C70.5158 192.265 65.3183 191.708 61.5315 190.646C57.4407 189.527 53.4129 188.188 49.4658 186.636C47.7283 185.894 45.4488 184.825 43.7707 183.956C42.0927 183.087 39.932 181.84 38.3282 180.867C34.8048 178.659 31.4472 176.197 28.2821 173.501C25.2057 170.725 22.2739 167.793 19.4982 164.717C16.9588 161.977 14.2264 157.766 12.1325 154.67C11.0782 153.111 9.96443 150.861 9.03629 149.227C7.09806 145.488 5.457 141.603 4.12833 137.607C3.05912 133.894 1.82656 128.911 1.05435 125.139C0.67594 122.982 0.413213 120.805 0.267295 118.62C0.0545767 116.399 -0.0346614 114.168 -7.55188e-06 111.937C0.124718 107.541 0.47664 103.154 1.05435 98.7939C2.09014 92.4986 3.87234 86.3491 6.36327 80.4755C8.80912 74.6912 11.9161 69.2094 15.6223 64.1396C16.8225 62.4449 18.1165 60.8187 19.4982 59.2685C22.2725 56.1954 25.2044 53.2683 28.2821 50.4991C31.5035 47.8747 34.8565 45.4162 38.3282 43.1331C40.0892 42.004 41.9111 40.9728 43.7856 40.0441C49.4224 37.1256 55.3838 34.8825 61.5463 33.3613C65.7757 32.4372 70.0511 31.7382 74.3546 31.2673C76.3296 31.0297 79.0027 31.0817 80.9926 31C85.3948 30.9985 89.79 31.3537 94.1349 32.0618C106.688 34.1134 118.577 39.1056 128.832 46.6305C138.933 54.0379 147.182 63.6827 152.934 74.8099C156.847 82.366 159.541 90.4931 160.916 98.8905C162.321 107.594 162.321 116.466 160.916 125.169C159.539 133.559 156.845 141.678 152.934 149.227C149.097 156.625 144.144 163.387 138.247 169.276C132.356 175.167 125.595 180.118 118.2 183.956C114.769 185.567 110.114 187.535 106.572 188.871C102.507 190.223 98.3406 191.249 94.1127 191.938C90.1699 192.257 84.9279 192.837 80.9703 193H80.9926Z" fill="white"/>
</mask>
<g mask="url(#mask2_69_569)">
<path d="M80.9926 193C74.8818 192.755 67.9542 192.473 61.5315 190.646C54.3515 188.604 48.1664 186.837 38.3282 180.867C29.4181 175.454 24.1537 169.729 19.4982 164.717C15.214 160.098 11.791 154.069 9.0363 149.227C7.09806 145.488 5.45701 141.603 4.12833 137.607C2.03446 130.367 0.876154 126.372 0.267299 118.62C-0.219513 112.025 0.0445331 105.396 1.05436 98.8608C3.09409 86.3039 8.08713 74.4112 15.6223 64.1618C26.8401 48.8272 43.0898 37.9226 61.5315 33.3538C69.2758 31.4752 72.9438 31.3267 80.9926 31C85.3948 30.9985 89.79 31.3537 94.1349 32.0618C106.688 34.1134 118.577 39.1056 128.832 46.6305C138.933 54.0379 147.182 63.6827 152.934 74.8099C156.847 82.366 159.541 90.4931 160.916 98.8905C162.321 107.594 162.321 116.466 160.916 125.169C159.539 133.559 156.845 141.678 152.934 149.227C149.098 156.625 144.144 163.387 138.247 169.276C132.356 175.167 125.595 180.118 118.2 183.956C114.769 185.567 110.114 187.535 106.572 188.871C102.507 190.223 98.3407 191.249 94.1127 191.938C90.1848 192.421 84.9279 192.837 80.9703 193" fill="#8F8F8F"/>
<path d="M160.938 125.139C159.557 133.541 156.856 141.67 152.934 149.227C149.097 156.625 144.144 163.387 138.247 169.276C132.356 175.167 125.595 180.118 118.2 183.956C114.769 185.567 110.114 187.535 106.572 188.871C102.507 190.223 98.3407 191.249 94.1127 191.938C90.1848 192.421 84.9279 192.837 80.9703 193C77.0202 192.837 71.7632 192.421 67.8354 191.938L61.5315 190.646L55.391 188.871L49.4509 186.644C47.758 185.834 45.6641 183.963 43.7856 183.963L38.343 180.874L33.1455 177.377L28.2672 173.508L23.7379 169.276L19.5131 164.717L15.6372 159.838L12.1474 154.64L9.05115 149.198C7.11291 145.459 5.47186 141.573 4.14318 137.577C3.07398 133.864 1.84142 128.882 1.06921 125.11L0.267302 118.62C0.185627 116.622 0.0371253 113.964 0 111.937L0.267302 105.254L1.05436 98.7568L2.35374 92.5343L4.12833 86.4009L6.35585 80.4606L9.0363 74.8099L12.1326 69.3671L15.6223 64.1693L19.4982 59.2982L23.7379 54.7613L28.2969 50.5362L33.1752 46.6676L38.3727 43.1702L43.7856 40.0441L49.4806 37.3636L55.4207 35.1359L61.5315 33.3539L67.8576 32.0618L74.3546 31.2673L80.9926 31C17.3821 32.1435 4.16546 108.737 46.5032 149.673C90.415 192.131 151.449 178.595 161.102 124.263L160.968 125.139" fill="#8F8F8F"/>
<path d="M157.864 137.607C156.528 141.603 154.88 145.489 152.934 149.227C149.097 156.625 144.144 163.387 138.247 169.276C132.356 175.167 125.595 180.118 118.2 183.956C114.769 185.567 110.114 187.535 106.572 188.871C102.507 190.223 98.3407 191.249 94.1127 191.938C90.1848 192.421 84.9279 192.837 80.9703 193C77.0202 192.837 71.7632 192.421 67.8354 191.938L61.5315 190.646L55.391 188.871L49.4509 186.644C47.758 185.834 45.6641 183.963 43.7856 183.963L38.343 180.874L33.1455 177.377L28.2672 173.508L23.7379 169.276L19.5131 164.717L15.6372 159.838L12.1474 154.64L9.05115 149.198C7.11291 145.459 5.47186 141.573 4.14318 137.577C3.07398 133.864 1.84142 128.882 1.06921 125.11L0.267302 118.62C0.185627 116.622 0.0371253 113.964 0 111.937L0.267302 105.254L1.05436 98.7568L2.35374 92.5343L4.12833 86.4009L6.35585 80.4606L9.0363 74.8099L12.1326 69.3671L15.6223 64.1693L19.4982 59.2982L23.7379 54.7613L28.2969 50.5362L33.1752 46.6676L38.3727 43.1702L43.7856 40.0441L49.4806 37.3636L55.4207 35.136L61.5315 33.3539L67.8576 32.0618L70.9242 31.6163L69.0308 31.8836C8.6799 41.8708 -1.03208 120.313 53.0149 161.011C93.3033 191.389 143.4 179.82 158.132 136.805C158.05 137.072 157.961 137.339 157.872 137.607" fill="#8A8A8A"/>
<path d="M146.37 159.838C141.452 166.542 135.537 172.454 128.832 177.37C125.471 179.839 121.924 182.043 118.222 183.963C114.791 185.575 110.136 187.542 106.594 188.879C102.529 190.231 98.3629 191.256 94.1349 191.946C90.2071 192.428 84.9501 192.844 80.9926 193.007C77.0424 192.844 71.7855 192.428 67.8576 191.946L61.5315 190.646L55.391 188.871L49.4509 186.644C47.758 185.834 45.6641 183.963 43.7856 183.963L38.343 180.874L33.1455 177.377L28.2672 173.508L23.7379 169.276L19.5131 164.717L15.6372 159.838L12.1474 154.64L9.05115 149.198C7.11291 145.459 5.47186 141.573 4.14318 137.577C3.07398 133.864 1.84142 128.882 1.06921 125.11L0.267302 118.62C0.185627 116.622 0.0371253 113.964 0 111.937L0.267302 105.254L1.05436 98.7568L2.35374 92.5343L4.12833 86.4009L6.35585 80.4606L9.0363 74.8099L12.1326 69.3671L15.6223 64.1693L19.4982 59.2982L23.7379 54.7613L28.2969 50.5362L33.1752 46.6676L38.3727 43.1702L43.7856 40.0441L49.4806 37.3636L55.4207 35.1359L56.4082 34.7944L52.9852 35.9973C-6.77908 60.0407 3.86846 149.064 69.7733 176.07C102.288 189.436 136.183 178.973 152.191 150.712C150.466 153.879 148.531 156.928 146.4 159.838" fill="#858585"/>
<path d="M106.594 35.1285C114.559 37.7836 122.062 41.6642 128.832 46.6305C138.933 54.0379 147.182 63.6827 152.934 74.8099C156.847 82.366 159.541 90.4931 160.916 98.8905C161.622 103.236 161.974 107.631 161.97 112.033C160.485 174.741 91.6847 188.671 50.6463 148.566C4.81144 103.769 24.7774 31.3341 83.0345 31.1559C87.4521 31.1787 91.8585 31.6037 96.1991 32.4257C99.7204 33.0944 103.193 33.9973 106.594 35.1285Z" fill="#949494"/>
<path d="M118.222 40.0441C121.924 41.9618 125.471 44.1639 128.832 46.6305C138.933 54.0379 147.182 63.6827 152.934 74.8099C156.822 82.3161 159.506 90.3871 160.886 98.7271C170.012 164.984 104.537 184.424 64.2119 155.004C7.72207 113.741 22.639 41.3956 75.0303 32.4851C85.9822 30.6065 97.0753 31.7425 108.955 35.975C112.127 37.1419 115.222 38.5085 118.222 40.0664" fill="#999999"/>
<path d="M128.832 46.6305C138.933 54.0379 147.182 63.6827 152.934 74.8099C154.329 77.4962 155.569 80.2606 156.647 83.0892C177.882 145.463 124.563 181.847 75.0228 157.596C19.721 130.5 15.8302 52.5708 68.9194 34.9726C78.6834 31.7425 98.7905 28.4679 123.501 43.0366C125.328 44.1652 127.105 45.3632 128.832 46.6305Z" fill="#9E9E9E"/>
<path d="M149.645 69.0255C179.635 118.776 146.563 172.803 93.4667 160.811C35.4844 147.712 13.8255 70.2655 59.8906 40.7124C87.3187 23.1142 130.102 36.6062 149.645 69.0255Z" fill="#A3A3A3"/>
<path d="M149.467 69.0255C180.607 120.959 141.299 169.536 93.8825 157.848C37.8455 144.029 17.1593 69.0106 61.7914 41.5144C92.4272 22.639 132.582 40.8684 149.467 69.0255Z" fill="#A8A8A8"/>
<path d="M152.652 75.4336C176.375 125.986 135.158 172.291 84.8091 151.67C30.5467 129.446 27.6361 58.2661 68.6001 39.7026C101.79 24.6736 138.856 46.0439 152.652 75.4336Z" fill="#ADADAD"/>
<path d="M152.117 75.4336C175.543 125.77 135.04 170.197 85.4328 148.566C36.5833 127.27 28.4825 59.1497 72.4983 39.7768C100.365 27.5175 137.564 44.1801 152.117 75.4188" fill="#B3B3B3"/>
<path d="M151.449 75.4336C171.883 119.63 139.651 161.479 94.9146 148.849C44.6246 134.651 28.7127 68.58 69.4986 43.3336C95.8278 27.0348 136.421 42.9326 151.449 75.4336Z" fill="#B8B8B8"/>
<path d="M153.417 82.1907C168.645 128.681 129.033 163.38 85.0615 142.069C37.504 119.028 39.3306 56.4617 77.436 41.5812C108.733 29.359 143.972 53.3802 153.417 82.1907Z" fill="#BDBDBD"/>
<path d="M152.422 82.1907C166.7 126.647 127.704 159.712 85.1135 139.255C41.5581 118.315 40.2513 54.4197 83.1384 41.5886C113.366 32.5445 143.905 55.6969 152.399 82.1907" fill="#C2C2C2"/>
<path d="M151.301 82.1907C165.007 125.6 126.686 157.024 85.1655 136.396C44.5801 116.296 43.4366 58.1398 83.3389 43.5489C109.03 34.1558 142.056 52.9346 151.301 82.161" fill="#C7C7C7"/>
<path d="M150.038 82.1907C162.772 123.127 124.6 153.534 85.21 133.849C44.9513 113.726 49.488 58.9418 83.3018 45.8508C111.175 35.084 142.064 56.536 150.038 82.1684" fill="#CCCCCC"/>
<path d="M148.598 82.1907C161.488 124.516 120.383 149.287 85.2397 131.651C45.0033 111.469 54.1287 55.2588 90.0511 45.9845C113.522 39.9328 140.876 56.8478 148.598 82.1907Z" fill="#D1D1D1"/>
<path d="M148.627 89.2671C154.709 132.906 104.76 143.695 82.2326 127.397C40.3404 97.0861 66.8033 50.3506 96.7263 47.0017C120.435 44.3509 145.175 64.496 148.627 89.2671Z" fill="#D6D6D6"/>
<path d="M146.801 89.2671C149.622 109.145 137.891 123.751 125.795 128.911C107.715 136.626 90.712 133.567 75.2381 119.8C51.0918 98.3187 65.3405 53.4841 97.6618 49.2591C119.996 46.3409 143.422 65.4093 146.801 89.2746" fill="#DBDBDB"/>
<path d="M144.648 89.2671C148.598 125.704 105.926 145.114 77.4879 119.8C49.5029 94.8585 71.2583 55.3627 98.5825 51.6649C119.848 48.7838 142.234 67.0578 144.618 89.2671" fill="#E0E0E0"/>
<path d="M142.294 89.2671C145.932 125.436 103.312 140.755 79.76 119.8C49.4435 92.8387 74.1467 57.8503 99.4736 54.2712C119.395 51.457 140.2 68.4612 142.286 89.2671" fill="#E6E6E6"/>
<path d="M139.799 89.2671C143.059 122.332 103.186 138.364 82.0247 119.8C48.9163 90.7968 78.4161 60.0259 100.35 56.9889C119.083 54.4197 137.891 69.7903 139.799 89.2374" fill="#EBEBEB"/>
<path d="M137.185 89.2671C138.255 99.1355 135.99 112.947 119.076 122.681C107.107 129.594 90.8976 125.347 84.2745 119.771C51.3517 92.0739 78.8096 61.6595 101.1 59.6249C118.727 57.9913 135.255 71.565 137.178 89.2671" fill="#F0F0F0"/>
<path d="M134.446 96.6109C130.057 129.758 93.1177 131.243 77.5251 112.004C57.7967 87.6187 83.5988 57.0557 109.921 62.9961C127.54 66.9612 136.228 83.2006 134.423 96.6183" fill="#F5F5F5"/>
<path d="M132.53 96.6109C131.862 105.885 127.377 111.061 126.486 112.004C118.779 120.105 118.779 120.105 107.084 123.498C101.805 125.02 87.1628 121.813 79.0843 112.004C60.5217 89.4973 80.5693 64.3772 102.347 64.4811C118.029 64.5702 133.896 77.4904 132.53 96.596" fill="#FAFAFA"/>
<path d="M130.599 96.6109C128.55 123.275 95.6571 129.654 80.6436 112.004C61.977 90.0468 81.7722 65.4613 102.815 66.5677C116.967 67.3102 131.862 80.3195 130.599 96.6109Z" fill="#91AEC7"/>
<path d="M128.632 96.6109C127.191 114.127 115.163 118.145 107.196 120.758C103.208 122.08 89.279 120.083 82.2029 112.004C63.1427 90.2399 82.0841 67.3399 103.268 68.6839C119.811 69.7383 129.486 86.193 128.632 96.6109Z" fill="#91AEC7"/>
<path d="M126.605 96.6109C125.461 112.902 115.809 116.392 107.24 119.444C104.226 120.528 99.6146 120.105 96.5629 119.14C96.4738 119.14 86.5317 115.1 83.7473 112.004C72.7805 99.8038 74.904 90.47 78.8393 82.1907C80.3243 79.0498 89.9324 68.4909 103.594 70.3101C119.454 72.3966 127.273 87.2029 126.612 96.6406" fill="#91AEC7"/>
<path d="M123.895 104.2C123.895 104.252 120.531 110.541 117.442 113.162C114.836 115.39 110.693 118.293 107.27 118.293C104.062 118.293 99.4439 119.511 96.5778 118.078C93.1697 116.37 88.3508 114.454 85.3734 112.078C82.8353 109.858 80.7306 107.187 79.166 104.2C75.5277 97.2866 76.0252 87.8192 80.3243 82.1907C89.1082 70.6665 99.726 71.0526 103.884 71.7952C110.633 72.9535 118.615 78.8122 120.709 82.1907C127.756 93.6036 124.31 103.153 123.895 104.2Z" fill="#91AEC7"/>
<path d="M122.491 104.2C118.318 113.934 107.396 117.135 107.3 117.135C104.085 117.135 99.4884 118.397 96.5926 117.001C87.6826 112.717 83.97 110.942 80.3689 104.192C77.3989 98.7048 76.0475 89.6533 81.7945 82.1833C84.022 79.3171 85.752 77.0523 94.7438 73.4882C97.3723 72.4486 101.382 72.8199 104.159 73.3248C118.11 75.8569 127.689 92.0145 122.491 104.2Z" fill="#91AEC7"/>
<path d="M121.051 104.2C117.524 112.13 107.404 115.984 107.322 115.984C104.107 115.984 99.5255 117.283 96.6001 115.939C86.992 111.543 83.725 108.187 81.5717 104.2C79.2106 99.8261 76.2851 91.1458 83.2646 82.1907C86.3386 78.2553 94.8106 74.9287 94.8923 74.9064C97.595 73.9708 101.619 74.3569 104.426 74.9064C105.555 75.1143 114.442 79.978 114.494 80.0225C117.064 82.2501 117.464 82.5546 121.274 89.282C122.343 91.1606 123.39 98.935 121.051 104.214" fill="#91AEC7"/>
<path d="M119.595 104.2C118.742 106.078 115.824 110.882 107.337 114.818C104.419 116.169 99.8299 114.87 96.6149 114.87C96.5332 114.87 85.7817 109.672 82.7672 104.2C76.4781 92.7274 82.4701 85.0718 84.7274 82.1907C85.4699 81.2922 94.9368 76.1613 95.0111 76.139C97.7806 75.3148 101.864 75.5004 104.664 76.2578C108.049 77.1786 112.126 79.8443 114.799 82.1313C116.789 83.8392 118.615 86.9504 119.855 89.2671C123.249 95.6084 119.64 104.118 119.603 104.2" fill="#91AEC7"/>
<path d="M118.125 104.2C118.125 104.259 113.633 110.882 107.344 113.652C104.374 114.959 99.8374 113.793 96.6149 113.793C96.5481 113.793 85.6184 107.177 83.9923 104.2C81.1634 99.1132 79.0621 91.4279 85.1283 83.6981C86.992 81.3145 95.0779 77.3048 95.1447 77.2825C97.9366 76.4138 102.072 76.7479 104.879 77.535C109.913 78.9458 125.402 88.7919 118.155 104.2" fill="#91AEC7"/>
<path d="M117.197 102.418C117.041 102.952 117.049 103.799 116.663 104.2C116.581 104.281 108.235 112.427 107.352 112.479C104.137 112.657 99.6369 113.838 96.6223 112.717C95.0705 112.137 85.5516 104.905 85.1506 104.2C79.6561 94.4575 83.3092 87.9974 85.1506 85.6361C88.3805 81.515 95.1744 78.426 95.2339 78.4038C98.0257 77.4459 102.228 77.9731 105.057 78.7899C111.784 80.7353 116.937 89.1483 116.937 89.2374C119.477 94.1679 119.128 95.4228 117.197 102.388" fill="#91AEC7"/>
<path d="M116.93 98.2964C116.447 100.079 116.299 102.752 115.2 104.237C113.321 106.776 110.448 110.637 107.352 111.246C104.255 111.855 99.674 112.665 96.6223 111.632C93.1103 110.437 89.1453 107.029 86.7024 104.207C83.7324 100.866 81.8761 91.9403 85.1655 87.6707C85.2174 87.6113 90.8828 81.27 95.3229 79.5993C98.1073 78.5523 102.377 79.28 105.228 80.1265C111.443 81.9754 118.667 91.866 116.93 98.3038" fill="#91AEC7"/>
<path d="M113.73 104.2C112.334 106.353 109.75 109.004 107.344 109.873C103.879 110.993 100.179 111.172 96.6223 110.392C95.219 110.029 85.2917 103.286 84.4898 96.6109C84.2299 94.3832 84.4007 91.1829 85.5367 89.2671C87.1108 86.6014 90.4298 83.8763 93.0212 82.1907C93.7637 81.7378 94.5804 80.765 95.4195 80.765C104.82 80.765 106.156 81.7675 106.728 82.1907C109.171 84.0248 113.113 86.3564 114.042 89.2671C114.732 91.4428 116.091 94.3238 116.039 96.6109C115.906 99.2921 115.113 101.899 113.73 104.2Z" fill="#91AEC7"/>
<path d="M112.245 104.2C111.146 105.833 109.2 107.912 107.329 108.543C104.263 109.524 99.7112 110.073 96.6149 109.189C90.3556 107.4 85.7669 97.1381 85.6852 96.6109C85.379 94.067 85.8997 91.4921 87.1702 89.2671C88.9003 86.6014 92.442 84.0025 95.0557 82.1907C95.9318 81.5893 105.451 82.7922 105.555 82.8219C108.161 83.9802 111.71 86.5346 112.557 89.2671C113.24 91.4948 114.784 94.3164 114.71 96.6109C114.529 99.311 113.668 101.922 112.208 104.2" fill="#91AEC7"/>
<path d="M110.737 104.2C109.995 105.328 108.629 106.865 107.307 107.222C104.196 108.053 99.6666 108.989 96.6001 107.964C90.8976 106.123 87.2074 96.6628 87.1925 96.5737C86.9696 94.0115 87.5538 91.4437 88.8631 89.23C90.3036 86.9356 93.036 84.0322 95.6125 83.2154C98.5232 82.2576 102.911 83.1783 105.77 84.2921C107.812 85.0792 109.846 87.4553 111.131 89.23C112.592 91.405 113.396 93.9543 113.448 96.5737C113.207 99.2932 112.274 101.906 110.737 104.162" fill="#91AEC7"/>
<path d="M109.223 104.2C108.777 104.838 108.035 105.744 107.277 105.9C104.129 106.553 99.6072 107.927 96.5926 106.806C95.2267 106.244 94.024 105.348 93.0954 104.2C91.4842 102.12 89.0711 99.2172 88.6924 96.6109C88.3731 94.3832 89.3681 91.2274 90.5115 89.2671C91.5659 87.4553 93.7117 85.25 95.7091 84.604C98.6791 83.661 103.008 84.8639 105.948 85.844C107.381 86.3192 108.792 88.0197 109.661 89.2671C110.982 91.1755 112.215 94.2867 112.148 96.6109C112.074 99.0464 110.663 102.21 109.238 104.2" fill="#91AEC7"/>
<path d="M107.693 104.2C107.003 105.15 96.652 105.685 96.5555 105.625C95.8111 105.316 95.1553 104.826 94.6473 104.2C93.1177 102.046 90.5338 99.232 90.1922 96.6109C90.066 95.6975 91.3654 87.344 95.8056 85.9703C98.7756 85.0495 103.104 86.5643 106.119 87.3662C106.928 87.5816 107.701 88.5617 108.161 89.2671C109.438 91.2274 110.886 94.2719 110.812 96.6109C110.737 99.0687 109.148 102.21 107.701 104.2" fill="#91AEC7"/>
<path d="M107.158 102.143C106.505 102.707 97.2906 104.705 96.5555 104.445C95.9392 104.222 91.6847 96.6777 91.6698 96.6109C91.3654 94.3387 92.8281 91.3537 93.7711 89.2671C94.2153 88.3888 94.9693 87.7063 95.8872 87.3514C95.9615 87.3514 106 88.4206 106.646 89.2671C108.23 91.4169 109.204 93.9538 109.468 96.6109C109.444 98.6843 108.616 100.668 107.158 102.143Z" fill="#91AEC7"/>
<path d="M107.025 99.232C104.575 101.4 99.5478 103.368 96.511 102.158C94.7067 101.415 93.3924 98.5489 93.1548 96.6183C93.1548 96.5515 94.8923 89.0666 95.9689 88.7399C97.0456 88.4132 98.4489 88.9033 99.4364 89.2671C101.664 90.0765 104.872 90.975 106.594 92.6011C108.035 93.9748 108.517 97.9103 107.025 99.232Z" fill="#91AEC7"/>
<path d="M96.4367 99.5959C95.4566 99.2246 94.7438 97.6504 94.6176 96.6257C94.4319 95.1406 94.7364 92.3932 96.1026 91.7843C99.1617 90.4478 103.127 95.1555 106.126 96.6257C103.216 97.5316 99.2582 100.702 96.407 99.5959" fill="#91AEC7"/>
<path d="M96.355 97.0861C96.2769 97.035 96.211 96.9672 96.1622 96.8876C96.1134 96.808 96.0829 96.7185 96.0729 96.6257C96.0729 96.3881 96.0729 95.9648 96.3105 95.8832C96.7931 95.6678 97.4094 96.4104 97.8846 96.6257C97.4242 96.7668 96.8005 97.2569 96.355 97.0861Z" fill="#91AEC7"/>
<path d="M57.2843 34.6236H56.9576C60.2024 33.7622 64.5758 32.7004 67.8576 32.0618C71.7855 31.5792 77.0424 31.1634 80.9926 31C72.9515 30.994 64.9566 32.2159 57.2843 34.6236Z" fill="#91AEC7"/>
<path d="M61.0266 34.6236H57.3141C66.6993 32.0841 69.8921 31.3416 80.9926 31C74.174 31.0025 67.4113 32.2299 61.0266 34.6236Z" fill="#91AEC7"/>
<path d="M57.3437 34.6236H57.2843C64.9566 32.2159 72.9515 30.994 80.9926 31C74.7704 31.2525 68.37 31.5198 61.8433 33.3538C60.3722 33.8729 58.8692 34.297 57.3437 34.6236Z" fill="white"/>
<path d="M68.1695 34.6236H61.2196C67.5374 32.2304 74.2368 31.0026 80.9926 31C76.4716 31.0427 72.0442 32.2937 68.1695 34.6236Z" fill="#91AEC7"/>
<path d="M61.2196 34.6236H61.0266C67.4112 32.2299 74.174 31.0025 80.9926 31C74.2367 31.0026 67.5374 32.2304 61.2196 34.6236Z" fill="white"/>
<path d="M77.7404 34.6236H68.4591C72.2292 32.2972 76.5628 31.0443 80.9926 31C79.864 31 78.7651 32.2697 77.7404 34.6236Z" fill="#91AEC7"/>
<path d="M68.4591 34.6236H68.1695C72.0442 32.2937 76.4716 31.0427 80.9926 31C76.5628 31.0443 72.2292 32.2972 68.4591 34.6236Z" fill="white"/>
<path d="M77.7404 34.6236C78.1905 33.6229 78.7562 32.6784 79.4259 31.8094C79.8618 31.3978 80.4047 31.1174 80.9926 31C79.864 31 78.7651 32.2697 77.7404 34.6236Z" fill="white"/>
<path d="M88.1577 34.6236H78.0894C79.0101 32.2697 79.9827 31 80.9926 31C83.4874 31 85.8931 32.2697 88.1577 34.6236Z" fill="#91AEC7"/>
<path d="M78.0894 34.6236H77.7404C78.1905 33.6229 78.7562 32.6784 79.4259 31.8094C79.8618 31.3978 80.4047 31.1174 80.9926 31C79.9828 31 79.0101 32.2697 78.0894 34.6236Z" fill="white"/>
<path d="M96.8896 34.6236H88.4845C86.1084 32.2697 83.6062 31 80.9926 31C86.4943 31.0179 91.9236 32.2554 96.8896 34.6236Z" fill="#91AEC7"/>
<path d="M88.4845 34.6236H88.1578C85.8931 32.2697 83.4874 31 80.9926 31C83.6062 31 86.1233 32.2697 88.4845 34.6236Z" fill="white"/>
<path d="M102.852 34.6236H97.1421C92.0873 32.2532 86.5755 31.0165 80.9926 31C88.4288 30.9967 95.8145 32.221 102.852 34.6236Z" fill="#91AEC7"/>
<path d="M97.1421 34.6236H96.8896C91.9236 32.2554 86.4943 31.0179 80.9926 31C86.5755 31.0165 92.0873 32.2532 97.1421 34.6236Z" fill="white"/>
<path d="M94.1349 32.0618C97.8228 32.6645 101.465 33.5205 105.035 34.6236H102.993C95.907 32.2207 88.4749 30.9966 80.9926 31C85.3949 30.9985 89.79 31.3537 94.1349 32.0618Z" fill="#91AEC7"/>
<path d="M102.993 34.6236H102.852C95.8145 32.221 88.4288 30.9967 80.9926 31C88.4749 30.9966 95.907 32.2207 102.993 34.6236Z" fill="white"/>
<path d="M28.0742 51.3233H27.3316C29.0691 49.8976 31.356 47.967 33.1529 46.6305C36.2566 44.5291 40.5111 41.8931 43.7633 40.0441C47.2011 38.4254 51.8566 36.4651 55.391 35.1285L55.8439 34.98H56.1929C45.795 38.4306 36.222 43.9921 28.0742 51.3159" fill="#91AEC7"/>
<path d="M28.0742 51.3233C34.5117 45.977 41.8105 39.9179 56.1929 34.9874C45.795 38.438 36.222 43.9995 28.0742 51.3233Z" fill="white"/>
<path d="M56.1929 34.98H55.8439L56.9576 34.6236H57.2844L56.1929 34.98Z" fill="white"/>
<path d="M36.4274 51.3233H28.193C36.3147 44.0024 45.8629 38.4406 56.2374 34.9874H60.1207C51.1155 38.6118 43.0278 44.1915 36.4422 51.3233" fill="#91AEC7"/>
<path d="M36.4274 51.3233C43.0165 44.187 51.1094 38.6046 60.1207 34.98C51.1155 38.6043 43.0278 44.184 36.4422 51.3159" fill="white"/>
<path d="M60.1207 34.98H56.2523C45.8719 38.4335 36.3184 43.998 28.193 51.3233H28.0593C36.4986 43.7361 46.4632 38.0421 57.2844 34.6236H60.9969L60.1207 34.98Z" fill="white"/>
<path d="M52.369 51.3233H36.8506C43.3573 44.2016 51.3704 38.6208 60.3064 34.9874H67.5458C61.9027 38.4254 56.7423 44.0687 52.369 51.3233Z" fill="#91AEC7"/>
<path d="M67.5458 34.98H60.3064C51.3704 38.6134 43.3573 44.1942 36.8506 51.3159H36.4274C43.2357 43.9356 51.6533 38.2236 61.0266 34.6236H68.1695L67.5755 34.98" fill="white"/>
<path d="M73.7234 51.3233H53.0075C57.2843 44.0687 62.3482 38.4254 67.8799 34.98H77.5845C76.144 38.4551 74.8372 44.0687 73.7234 51.3159" fill="#91AEC7"/>
<path d="M73.7234 51.3233C74.8372 44.0687 76.144 38.4551 77.5845 34.9874C76.144 38.4625 74.8372 44.0761 73.7234 51.3233Z" fill="white"/>
<path d="M77.5845 34.98H67.8799C62.3482 38.4254 57.2843 44.0687 53.0075 51.3233H52.369C56.8908 43.8162 62.2591 38.069 68.1695 34.6236H77.7404L77.5845 34.98Z" fill="white"/>
<path d="M96.9862 51.3233H74.5105C75.498 44.0687 76.6712 38.4551 77.9557 34.9874H88.4919C91.6624 38.4625 94.5433 44.0761 96.9862 51.3233Z" fill="#91AEC7"/>
<path d="M96.9861 51.3233C94.5433 44.0687 91.6624 38.4551 88.4919 34.9874C91.6624 38.4625 94.5433 44.0761 96.9861 51.3233Z" fill="white"/>
<path d="M88.4919 34.98H77.9409C76.6563 38.4551 75.4832 44.0687 74.4957 51.3159H73.7234C74.8743 43.8088 76.2331 38.0616 77.7404 34.6162H88.1355L88.4696 34.9726" fill="white"/>
<path d="M116.477 51.3233H97.7138C95.1596 44.0687 92.145 38.4551 88.8037 34.9874H97.595C104.634 38.4625 111.034 44.0761 116.447 51.3233" fill="#91AEC7"/>
<path d="M116.477 51.3233C111.064 44.0687 104.671 38.4254 97.6247 34.98C104.664 38.4551 111.064 44.0687 116.477 51.3159" fill="white"/>
<path d="M97.6247 34.98H88.8334C92.145 38.4551 95.1596 44.0687 97.7435 51.3159H97.001C94.4765 43.8088 91.4768 38.0616 88.1726 34.6162H96.9045L97.647 34.9726" fill="white"/>
<path d="M129.783 51.3233H117.034C111.532 44.0687 105.035 38.4551 97.892 34.9874H103.832C113.541 38.5156 122.381 44.0863 129.753 51.3233" fill="#91AEC7"/>
<path d="M103.862 34.98H97.9217C105.065 38.4551 111.562 44.0687 117.064 51.3159H116.507C110.901 43.8088 104.248 38.0616 96.9193 34.6162H102.859L103.869 34.9726" fill="white"/>
<path d="M106.594 35.1285C114.559 37.7836 122.062 41.6642 128.832 46.6305C130.847 48.1156 132.787 49.6798 134.653 51.3233H130.095C122.664 44.0804 113.77 38.5106 104.01 34.9874H106.156L106.602 35.136" fill="#91AEC7"/>
<path d="M106.156 34.98H104.018C113.778 38.5031 122.671 44.073 130.102 51.3159H129.79C122.16 43.8227 112.958 38.1209 102.852 34.6236H105.035L106.149 34.98" fill="white"/>
<path d="M8.23439 78.5226H7.22458C7.79631 77.2603 8.40516 76.0202 9.03629 74.8099C10.8926 71.5501 13.5285 67.3028 15.6223 64.1915C17.9464 61.2437 21.1837 57.4641 23.7379 54.7613L26.5075 52.1178H27.25C19.1928 59.5443 12.724 68.5267 8.23439 78.5226Z" fill="#91AEC7"/>
<path d="M27.2426 52.0807H26.5C26.7822 51.8184 27.0644 51.5708 27.3465 51.3382H28.089C27.8143 51.5832 27.5321 51.8357 27.2574 52.0807" fill="white"/>
<path d="M19.721 78.5226H8.42001C12.8896 68.5196 19.3379 59.525 27.3762 52.0807H35.7294C28.7705 59.8039 23.3385 68.7762 19.721 78.5226Z" fill="#91AEC7"/>
<path d="M35.7294 52.0807H27.3762C19.3379 59.525 12.8896 68.5196 8.42002 78.5226H8.23439C12.8741 68.1691 19.6327 58.9034 28.0742 51.3233H36.4274C36.1972 51.5684 35.9596 51.8208 35.7294 52.0659" fill="white"/>
<path d="M41.6397 78.5226H20.3075C23.8792 68.7888 29.2577 59.8175 36.16 52.0807H51.9532C47.2555 60.3499 43.7815 69.2565 41.6397 78.5226Z" fill="#91AEC7"/>
<path d="M51.9532 52.0807H36.16C29.2577 59.8175 23.8792 68.7888 20.3075 78.5226H19.721C23.4557 68.4544 29.132 59.218 36.4274 51.3382H52.369C52.2205 51.5832 52.0645 51.8357 51.916 52.0807" fill="white"/>
<path d="M70.9984 78.5226H42.5159C44.595 69.2761 47.9801 60.3727 52.5694 52.0807H73.6121C72.5131 59.4393 71.6221 68.4166 70.9984 78.5077" fill="#91AEC7"/>
<path d="M70.9984 78.5226C71.4588 71.7803 72.0825 62.5431 73.6121 52.0956C72.5132 59.4541 71.6221 68.4315 70.9984 78.5226Z" fill="white"/>
<path d="M73.6121 52.0807H52.5694C47.9801 60.3727 44.595 69.2761 42.5159 78.5226H41.6397C44.1717 68.0825 47.8471 58.8378 52.369 51.3382H73.7234L73.6121 52.0807Z" fill="white"/>
<path d="M102.978 78.5226H72.0751C72.632 68.4389 73.4264 59.4541 74.4065 52.0956H97.246C99.9354 60.7175 101.854 69.5612 102.978 78.5226Z" fill="#91AEC7"/>
<path d="M97.246 52.0807H74.4065C73.4264 59.4393 72.632 68.424 72.0751 78.5226H70.9984C71.637 68.0825 72.5726 58.8378 73.7234 51.3382H96.9862C97.0678 51.5832 97.1495 51.8357 97.2386 52.0807" fill="white"/>
<path d="M129.783 78.5226H103.981C102.805 69.5423 100.799 60.6904 97.9885 52.0807H117.049C122.737 60.1236 127.041 69.0607 129.783 78.5226Z" fill="#91AEC7"/>
<path d="M117.041 52.0807H97.9885C100.799 60.6904 102.805 69.5423 103.981 78.5226H102.978C101.83 69.2947 99.8235 60.1938 96.9861 51.3382H116.477C116.67 51.5832 116.856 51.8357 117.041 52.0807Z" fill="white"/>
<path d="M148.071 78.5226H130.547C127.754 69.0469 123.378 60.112 117.606 52.0956H130.555C138.071 59.6697 144.023 68.6494 148.071 78.5226Z" fill="#91AEC7"/>
<path d="M130.555 52.0807H117.606C123.38 60.1016 127.756 69.0418 130.547 78.5226H129.805C126.975 68.7511 122.465 59.5472 116.477 51.3233H129.783C130.043 51.5684 130.295 51.8208 130.525 52.0659" fill="white"/>
<path d="M138.269 54.7613C144.16 60.6497 149.106 67.4122 152.934 74.8099C153.565 76.0351 154.174 77.2751 154.746 78.5226H148.479C144.397 68.6389 138.404 59.6582 130.844 52.0956H135.478C136.418 52.9569 137.341 53.8381 138.247 54.739" fill="#91AEC7"/>
<path d="M135.5 52.0807H130.867C138.42 59.6497 144.405 68.6354 148.479 78.5226H148.048C143.865 68.3113 137.642 59.0612 129.76 51.3382H134.631L135.478 52.0807" fill="white"/>
<path d="M1.11376 110.949H-0.0222778C0.170774 107.311 0.571727 102.469 1.03208 98.8607C1.77459 95.0886 3.03685 90.0988 4.10606 86.4009C4.87826 84.0693 5.75442 81.7873 6.73453 79.5547H7.77404C3.49208 89.4746 1.22071 100.145 1.09148 110.949" fill="#91AEC7"/>
<path d="M7.77404 79.5547H6.75681L7.22458 78.5226H8.23439C8.07847 78.8716 7.92254 79.2206 7.77404 79.5696" fill="white"/>
<path d="M13.7215 110.949H1.31424C1.44955 100.146 3.72067 89.4764 7.9968 79.5547H19.3349C15.7041 89.6274 13.8061 100.242 13.7215 110.949Z" fill="#91AEC7"/>
<path d="M19.3349 79.5547H7.95966C3.69628 89.479 1.4378 100.149 1.31423 110.949H1.11375C1.23956 99.7665 3.66329 88.7291 8.23439 78.5226H19.721C19.5873 78.8716 19.4611 79.2206 19.3349 79.5696" fill="white"/>
<path d="M37.7861 110.949H14.3601C14.4459 100.247 16.3258 89.6351 19.9214 79.5547H41.3873C39.0297 89.8542 37.8219 100.383 37.7861 110.949Z" fill="#91AEC7"/>
<path d="M41.3873 79.5547H19.9214C16.3258 89.6351 14.4459 100.247 14.3601 110.949H13.7215C13.8106 99.8728 15.8411 88.8977 19.721 78.5226H41.6397C41.5506 78.8716 41.469 79.2206 41.3873 79.5696" fill="white"/>
<path d="M70.0183 110.949H38.7514C38.797 100.387 39.987 89.8606 42.3006 79.5547H70.9613C70.3896 89.2077 70.0703 99.7963 70.048 110.949" fill="#91AEC7"/>
<path d="M70.0183 110.949C70.0183 99.8112 70.3599 89.1854 70.9316 79.5547C70.3599 89.2077 70.0406 99.7963 70.0183 110.949Z" fill="white"/>
<path d="M70.9316 79.5547H42.3006C39.9969 89.8617 38.8169 100.388 38.7811 110.949H37.8158C37.8398 100.029 39.1229 89.1486 41.6398 78.5226H70.9984L70.9316 79.5696" fill="white"/>
<path d="M105.131 110.949H71.1989C71.1989 99.8112 71.5108 89.1854 72.0157 79.5547H103.119C104.441 89.9676 105.113 100.453 105.131 110.949Z" fill="#91AEC7"/>
<path d="M103.119 79.5547H72.0008C71.4959 89.2077 71.2064 99.7963 71.1841 110.949H70.0183C70.0183 99.388 70.3896 88.4132 70.9984 78.5077H102.978C103.023 78.8567 103.075 79.2057 103.119 79.5547Z" fill="white"/>
<path d="M134.557 110.949H106.23C106.214 100.45 105.512 89.9627 104.129 79.5547H130.117C133.019 89.769 134.518 100.331 134.572 110.949" fill="#91AEC7"/>
<path d="M130.095 79.5547H104.107C105.49 89.9627 106.192 100.45 106.208 110.949H105.109C105.101 100.106 104.39 89.274 102.978 78.5226H129.783L130.095 79.5696" fill="white"/>
<path d="M154.642 110.949H135.403C135.345 100.325 133.819 89.7604 130.867 79.5547H148.479C152.433 89.5546 154.515 100.196 154.619 110.949" fill="#91AEC7"/>
<path d="M154.642 110.949C154.53 100.195 152.441 89.5531 148.479 79.5547C152.433 89.5546 154.515 100.196 154.619 110.949" fill="white"/>
<path d="M148.479 79.5547H130.867C133.819 89.7604 135.345 100.325 135.403 110.949H134.557C134.502 99.9693 132.895 89.0523 129.783 78.5226H148.071C148.219 78.8716 148.36 79.2206 148.501 79.5696" fill="white"/>
<path d="M157.864 86.4009C159.22 90.4654 160.248 94.632 160.938 98.8607C161.585 102.859 161.935 106.899 161.985 110.949H155.11C155.011 100.192 152.916 89.5471 148.932 79.5547H155.236C156.208 81.7823 157.092 84.0693 157.864 86.4009Z" fill="#91AEC7"/>
<path d="M155.236 79.5547H148.932C152.916 89.5471 155.011 100.192 155.11 110.949H154.642C154.536 99.8206 152.305 88.8145 148.071 78.5226H154.753L155.221 79.5696" fill="white"/>
<path d="M8.88779 146.836H7.84829C6.42019 143.842 5.18027 140.762 4.13575 137.614C3.06655 133.901 1.83399 128.919 1.06178 125.147C0.720226 122.332 0.267298 118.62 0.0890961 115.835H1.19543C1.6851 126.576 4.29964 137.113 8.88779 146.836Z" fill="#91AEC7"/>
<path d="M20.2407 146.836H9.03629C4.46907 137.108 1.87238 126.572 1.3959 115.835H13.7883C14.1739 126.459 16.3555 136.941 20.2407 146.836Z" fill="#91AEC7"/>
<path d="M9.0363 146.836H8.8878C4.29965 137.113 1.6851 126.576 1.19543 115.835H1.39591C1.87238 126.572 4.46907 137.108 9.0363 146.836Z" fill="white"/>
<path d="M41.9665 146.836H20.8124C16.9635 136.933 14.805 126.454 14.4269 115.835H37.8455C38.0629 126.29 39.445 136.688 41.9665 146.836Z" fill="#91AEC7"/>
<path d="M20.8124 146.836H20.2407C16.3555 136.941 14.1739 126.459 13.7883 115.835H14.4269C14.805 126.454 16.9635 136.933 20.8124 146.836Z" fill="white"/>
<path d="M71.0801 146.836H42.8649C40.3912 136.681 39.0343 126.285 38.8182 115.835H70.0332C70.1 126.892 70.4713 137.369 71.0801 146.836Z" fill="#91AEC7"/>
<path d="M42.8426 146.836H41.9664C39.445 136.688 38.0628 126.29 37.8455 115.835H38.8108C39.022 126.285 40.3739 136.68 42.8426 146.836Z" fill="white"/>
<path d="M102.793 146.836H72.1493C71.6073 137.369 71.2732 126.892 71.2138 115.835H105.109C104.988 126.207 104.215 136.561 102.793 146.836Z" fill="#91AEC7"/>
<path d="M72.1493 146.836H71.0801C70.4713 137.369 70.1 126.892 70.0332 115.835H71.2138C71.2732 126.892 71.6073 137.369 72.1493 146.836Z" fill="white"/>
<path d="M129.374 146.836H103.788C105.276 136.567 106.085 126.211 106.208 115.835H134.505C134.218 126.355 132.492 136.785 129.374 146.836Z" fill="#91AEC7"/>
<path d="M103.787 146.836H102.793C104.215 136.561 104.988 126.207 105.109 115.835H106.208C106.085 126.211 105.276 136.567 103.787 146.836Z" fill="white"/>
<path d="M147.506 146.836H130.132C133.297 136.795 135.046 126.36 135.329 115.835H154.568C154.136 126.515 151.742 137.023 147.506 146.836Z" fill="#91AEC7"/>
<path d="M130.132 146.836H129.389C132.507 136.785 134.233 126.355 134.52 115.835H135.359C135.076 126.36 133.327 136.795 130.161 146.836" fill="white"/>
<path d="M160.938 125.139C159.712 132.657 157.424 139.962 154.144 146.836H147.937C152.195 137.029 154.602 126.518 155.035 115.835H161.903C161.764 118.953 161.441 122.059 160.938 125.139Z" fill="#91AEC7"/>
<path d="M147.937 146.836H147.506C151.742 137.023 154.136 126.515 154.568 115.835H155.035C154.602 126.518 152.195 137.029 147.937 146.836Z" fill="white"/>
<path d="M29.1582 173.635H28.4157C26.9975 172.328 25.067 170.664 23.7008 169.276C21.1614 166.543 17.9241 162.764 15.6001 159.838C13.5062 156.734 10.8703 152.487 9.01402 149.227C8.78385 148.782 8.55367 148.329 8.33092 147.876H9.32588C14.1309 157.712 20.8772 166.475 29.1582 173.635Z" fill="#91AEC7"/>
<path d="M9.34814 147.876H8.35319C8.18241 147.527 8.01163 147.185 7.84828 146.829H8.88779C9.05114 147.185 9.21449 147.527 9.38527 147.876" fill="white"/>
<path d="M37.3406 173.635H29.2919C21.0367 166.468 14.316 157.706 9.53378 147.876H20.6714C24.5391 157.448 30.2023 166.191 37.3555 173.635" fill="#91AEC7"/>
<path d="M20.6565 147.876H9.51893C14.3011 157.706 21.0218 166.468 29.277 173.635H29.1582C20.6036 166.216 13.6985 157.087 8.8878 146.836H20.2407C20.3744 147.185 20.5154 147.527 20.6565 147.876Z" fill="white"/>
<path d="M52.9555 173.635H37.7564C30.6642 166.175 25.0573 157.433 21.2357 147.876H42.2412C44.8548 157.781 48.5154 166.536 52.9555 173.635Z" fill="#91AEC7"/>
<path d="M52.9555 173.635C48.5005 166.536 44.8548 157.781 42.2412 147.876C44.8548 157.781 48.5154 166.536 52.9555 173.635Z" fill="white"/>
<path d="M42.2412 147.876H21.2357C25.0573 157.433 30.6642 166.175 37.7564 173.635H37.3406C29.9414 165.912 24.1381 156.805 20.263 146.836H41.9664C42.0555 147.185 42.1446 147.527 42.2412 147.876Z" fill="white"/>
<path d="M73.8719 173.635H53.5792C49.243 166.536 45.6641 157.781 43.1099 147.876H71.1469C71.8152 157.781 72.7433 166.536 73.8719 173.635Z" fill="#91AEC7"/>
<path d="M71.1469 147.876H43.1099C45.6641 157.781 49.243 166.536 53.5792 173.635H52.9555C48.3594 166.283 44.5949 157.165 41.9664 146.836H71.0801L71.1469 147.876Z" fill="white"/>
<path d="M96.6595 173.635H74.6442C73.6344 166.536 72.8027 157.781 72.2087 147.876H102.651C101.457 156.629 99.4534 165.252 96.6669 173.635" fill="#91AEC7"/>
<path d="M102.644 147.876H72.2013C72.7953 157.781 73.6269 166.536 74.6367 173.635H73.8942C72.7285 166.283 71.7706 157.165 71.1024 146.836H102.815C102.763 147.185 102.718 147.527 102.666 147.876" fill="white"/>
<path d="M115.749 173.635H97.3723C100.281 165.269 102.377 156.643 103.632 147.876H129.033C126.105 157.156 121.612 165.868 115.749 173.635Z" fill="#91AEC7"/>
<path d="M129.033 147.876H103.632C102.377 156.643 100.281 165.269 97.3723 173.635H96.6298C99.5264 164.917 101.59 155.944 102.793 146.836H129.374C129.263 147.185 129.152 147.527 129.033 147.876Z" fill="white"/>
<path d="M128.788 173.635H116.299C122.244 165.888 126.808 157.174 129.79 147.876H147.046C142.717 157.582 136.512 166.336 128.788 173.635Z" fill="#91AEC7"/>
<path d="M147.046 147.876H129.79C126.808 157.174 122.244 165.888 116.299 173.635H115.749C121.827 165.57 126.439 156.499 129.374 146.836H147.506C147.358 147.185 147.202 147.527 147.046 147.876Z" fill="white"/>
<path d="M152.934 149.227C149.097 156.625 144.144 163.387 138.247 169.276C136.733 170.791 135.161 172.244 133.532 173.635H129.077C136.842 166.345 143.088 157.591 147.454 147.876H153.677C153.454 148.329 153.224 148.782 152.993 149.227" fill="#91AEC7"/>
<path d="M153.677 147.876H147.506C143.14 157.591 136.894 166.345 129.129 173.635H128.825C136.81 166.066 143.167 156.947 147.506 146.836H154.144C153.981 147.193 153.81 147.534 153.639 147.883" fill="white"/>
<path d="M58.6951 189.8H58.3907L55.4207 188.871C53.6461 188.203 51.2478 187.386 49.4806 186.644C47.7135 185.901 45.6641 183.963 43.7856 183.963C40.5334 182.114 36.2789 179.508 33.1752 177.377L29.3364 174.407H30.0418C38.4278 181.476 48.1898 186.728 58.71 189.829" fill="#91AEC7"/>
<path d="M30.027 174.377H29.3216L28.438 173.635H29.1805L30.0492 174.377" fill="white"/>
<path d="M62.2146 189.8H58.7545C48.2555 186.695 38.5158 181.444 30.1532 174.377H38.0757C44.8594 181.268 53.1106 186.54 62.2146 189.8Z" fill="#91AEC7"/>
<path d="M38.0757 174.377H30.1532C38.5159 181.444 48.2555 186.695 58.7545 189.8H58.6951C47.8066 186.586 37.7343 181.074 29.1582 173.635H37.3258L38.0683 174.377" fill="white"/>
<path d="M68.9343 189.8H62.3928C53.3589 186.53 45.1824 181.257 38.4767 174.377H53.4382C57.8932 181.364 63.1947 186.674 68.9491 189.8" fill="#91AEC7"/>
<path d="M68.9343 189.8C63.1799 186.674 57.8932 181.364 53.4382 174.377C57.8932 181.364 63.1947 186.674 68.9491 189.8" fill="white"/>
<path d="M53.4382 174.377H38.4767C45.1824 181.257 53.3589 186.53 62.3928 189.8H62.2146C52.7816 186.414 44.2658 180.88 37.3406 173.635H52.9333L53.401 174.377" fill="white"/>
<path d="M77.9409 189.8H69.2016C63.5734 186.674 58.4352 181.364 54.0396 174.377H73.9907C75.1342 181.364 76.4707 186.674 77.9334 189.8" fill="#91AEC7"/>
<path d="M77.9409 189.8C76.4559 186.674 75.1416 181.364 73.9982 174.377C75.1416 181.364 76.4781 186.674 77.9409 189.8Z" fill="white"/>
<path d="M73.9907 174.377H54.0396C58.4352 181.364 63.5734 186.674 69.2016 189.8H68.9343C62.9942 186.562 57.5516 180.986 52.9555 173.635H73.8719C73.8719 173.887 73.9536 174.132 73.9907 174.377Z" fill="white"/>
<path d="M87.7345 189.8H78.2602C76.9608 186.674 75.7653 181.364 74.7481 174.377H96.3922C93.8825 181.364 90.9496 186.674 87.7345 189.8Z" fill="#91AEC7"/>
<path d="M96.3922 174.377H74.7481C75.7653 181.364 76.9756 186.674 78.2602 189.8H77.9409C76.4559 186.562 75.0451 180.986 73.8794 173.635H96.6669L96.3996 174.377" fill="white"/>
<path d="M95.9466 189.8H88.0389C91.4025 186.674 94.4765 181.364 97.0975 174.377H115.17C109.601 181.364 103.082 186.674 95.9466 189.8Z" fill="#91AEC7"/>
<path d="M115.17 174.377H97.0975C94.4765 181.364 91.4025 186.674 88.039 189.8H87.7345C91.061 186.562 94.0904 180.986 96.6446 173.635H115.734L115.155 174.377" fill="white"/>
<path d="M101.553 189.8H96.1843C103.431 186.674 110.054 181.364 115.712 174.377H127.986C120.392 181.367 111.374 186.628 101.553 189.8Z" fill="#91AEC7"/>
<path d="M127.986 174.377H115.712C110.054 181.364 103.431 186.674 96.1843 189.8H95.9467C103.335 186.562 110.054 180.986 115.749 173.635H128.788L127.986 174.377Z" fill="white"/>
<path d="M128.832 177.37C125.471 179.839 121.924 182.043 118.222 183.963C114.791 185.575 110.136 187.542 106.594 188.879C105.607 189.206 104.612 189.517 103.624 189.807H101.701C111.573 186.64 120.645 181.38 128.298 174.385H132.686C131.438 175.417 130.161 176.419 128.847 177.355" fill="#91AEC7"/>
<path d="M132.671 174.377H128.283C120.635 181.371 111.568 186.631 101.701 189.8H101.567C111.737 186.508 121.042 180.985 128.803 173.635H133.569L132.686 174.377" fill="white"/>
<path d="M80.9926 193C77.0424 192.837 71.7855 192.421 67.8576 191.938C65.348 191.426 61.9918 190.765 59.5119 190.119H59.8089C66.7066 192.036 73.8333 193.006 80.9926 193Z" fill="#91AEC7"/>
<path d="M94.1127 191.938C73.6566 193 66.5583 191.998 59.8089 190.119H59.5119L58.3907 189.8H58.6951C65.9286 191.928 73.4303 193.006 80.9703 193" fill="white"/>
<path d="M80.9926 193C73.8504 193.005 66.741 192.036 59.8608 190.119H63.1501C68.8982 192.025 74.9145 192.998 80.9703 193" fill="#91AEC7"/>
<path d="M92.0485 191.938C74.8224 193 68.8452 191.998 63.1576 190.119H59.8609C66.741 192.036 73.8504 193.005 80.9926 193C73.4526 193.006 65.9508 191.928 58.7174 189.8H62.2369C68.2709 191.918 74.6198 193 81.0149 193" fill="white"/>
<path d="M80.9926 193C74.9851 193 69.0173 192.027 63.3209 190.119H69.5357C73.0675 191.987 76.9975 192.975 80.9926 193Z" fill="#91AEC7"/>
<path d="M88.0909 191.938C77.0276 193 73.1814 191.998 69.5283 190.119H63.3209C69.0173 192.027 74.9851 193 80.9926 193C74.5975 193 68.2486 191.918 62.2146 189.8H68.9343C72.6191 191.867 76.7674 192.968 80.9926 193" fill="white"/>
<path d="M80.9926 193C77.0731 192.974 73.2202 191.985 69.7733 190.119H78.0671C78.9952 191.998 79.9753 193 80.9777 193" fill="#91AEC7"/>
<path d="M82.7969 191.938C79.9902 193 79.0101 191.998 78.082 190.119H69.7733C73.2157 191.983 77.0633 192.972 80.9777 193C76.7526 192.968 72.6042 191.867 68.9194 189.8H77.9409C78.9136 191.886 79.9382 193 81 193" fill="white"/>
<path d="M80.9926 193C80.0942 193 79.2254 191.998 78.4012 190.119H87.4004C85.3585 191.998 83.2127 193 80.9926 193Z" fill="#91AEC7"/>
<path d="M77.035 191.938C83.2127 193 85.3585 191.998 87.4301 190.119H78.4012C79.2254 191.998 80.0942 193 80.9926 193C79.9308 193 78.9061 191.886 77.9335 189.8H87.7346C85.5961 191.886 83.3315 193 80.9926 193" fill="white"/>
<path d="M80.9926 193C83.3166 193 85.559 191.998 87.6751 190.119H95.1893C90.6894 192.01 85.8589 192.99 80.9777 193" fill="#91AEC7"/>
<path d="M72.2013 191.938C85.9154 193 90.6749 191.998 95.219 190.119H87.69C85.559 191.998 83.3166 193 81.0074 193C83.3463 193 85.611 191.886 87.7494 189.8H95.9615C91.2546 191.898 86.1608 192.988 81.0074 193" fill="white"/>
<path d="M80.9926 193C85.9459 192.991 90.8495 192.012 95.4269 190.119H100.528C94.1928 192.033 87.6104 193.003 80.9926 193Z" fill="#91AEC7"/>
<path d="M68.8972 191.938C87.7568 193 94.3057 191.998 100.528 190.119H95.4269C90.8495 192.012 85.9459 192.991 80.9926 193C86.1459 192.988 91.2398 191.898 95.9467 189.8H101.553C94.9064 191.925 87.9703 193.005 80.9926 193" fill="white"/>
<path d="M94.1349 191.938C90.2071 192.421 84.9501 192.837 80.9926 193C87.6519 193.004 94.2759 192.033 100.654 190.119H102.481C99.7335 190.875 96.9475 191.482 94.1349 191.938Z" fill="#91AEC7"/>
<path d="M102.481 190.119H100.654C94.2759 192.033 87.6519 193.004 80.9926 193C87.9703 193.005 94.9064 191.925 101.553 189.8H103.602L102.481 190.119Z" fill="white"/>
<path d="M161.993 112.004C161.993 113.286 161.963 114.563 161.903 115.835H0.0890981L-0.0222778 112.004V110.949H161.985C161.985 111.298 161.985 111.647 161.985 112.004" fill="white"/>
</g>
</g>
<defs>
<clipPath id="clip0_69_569">
<rect width="18" height="37" fill="white" transform="matrix(4.37114e-08 1 1 -4.37114e-08 64 1.90735e-06)"/>
</clipPath>
<clipPath id="clip1_69_569">
<rect width="162" height="162" fill="white" transform="translate(0 31)"/>
</clipPath>
</defs>
</svg>
