<svg  viewBox="0 0 227 216" fill="none" xmlns="http://www.w3.org/2000/svg">
<path d="M226.979 107.99C226.979 129.348 220.323 150.227 207.853 167.986C195.382 185.745 177.658 199.586 156.92 207.76C136.183 215.933 113.364 218.072 91.3488 213.905C69.334 209.738 49.1121 199.453 33.2404 184.35C17.3686 169.248 6.55974 150.006 2.18072 129.058C-2.1983 108.11 0.0491734 86.3966 8.63892 66.664C17.2287 46.9314 31.7749 30.0657 50.4382 18.1996C69.1014 6.3335 91.0434 0 113.49 0C143.589 0 172.455 11.3775 193.739 31.6295C215.022 51.8816 226.979 79.3493 226.979 107.99Z" fill="url(#paint0_radial_47_38)"/>
<path style="mix-blend-mode:multiply" d="M113.49 0C91.0434 0 69.1014 6.3335 50.4382 18.1996C31.7749 30.0657 17.2287 46.9314 8.63892 66.664C0.0491734 86.3966 -2.1983 108.11 2.18072 129.058C6.55974 150.006 17.3686 169.248 33.2404 184.35C49.1121 199.453 69.334 209.738 91.3488 213.905C113.364 218.072 136.183 215.933 156.92 207.76C177.658 199.586 195.382 185.745 207.853 167.986C220.323 150.227 226.979 129.348 226.979 107.99C226.979 79.3493 215.022 51.8816 193.739 31.6295C172.455 11.3775 143.589 0 113.49 0ZM105.02 186.783C86.4416 186.783 68.2805 181.541 52.8332 171.719C37.3859 161.898 25.3462 147.938 18.2366 131.606C11.127 115.274 9.26675 97.3018 12.8912 79.9635C16.5156 62.6251 25.462 46.6988 38.5988 34.1986C51.7356 21.6983 68.473 13.1855 86.6943 9.7367C104.916 6.28789 123.803 8.05794 140.967 14.823C158.131 21.5881 172.801 33.0444 183.123 47.7432C193.444 62.4419 198.953 79.7229 198.953 97.401C198.953 121.106 189.057 143.841 171.441 160.603C153.825 177.366 129.933 186.783 105.02 186.783Z" fill="url(#paint1_radial_47_38)"/>
<g style="mix-blend-mode:color-dodge" opacity="0.7">
<path d="M26.607 165.095C11.2543 141.987 5.97919 121.859 4.94938 106.38C4.94938 106.38 4.94938 106.28 4.94938 106.23C4.31411 101.332 4.06472 96.3952 4.20329 91.4615C1.23995 107.6 1.0508 133.108 18.1793 161.175C47.0561 208.601 100.88 216.06 127.959 211.65C127.959 211.65 62.2511 218.68 26.607 165.095Z" fill="white"/>
</g>
<g style="mix-blend-mode:multiply">
<path d="M69.4073 29.0573C69.5859 28.9273 69.4913 28.6973 69.2707 28.8173C66.2331 30.3999 62.6661 30.7909 59.3298 29.9072C58.7098 29.0973 57.5224 28.7473 55.5468 29.1473C55.2134 29.2005 54.8861 29.2842 54.5696 29.3973C51.7704 30.4235 49.2724 32.0768 47.2873 34.2168C44.6305 36.8338 42.4468 39.8509 40.8247 43.146C40.4044 43.8959 40.0051 44.6559 39.6478 45.4558C39.0278 46.8157 38.0295 49.4554 38.7021 51.1453C38.7756 52.9251 39.5742 54.6949 39.6058 56.5348C39.6583 58.8246 40.1417 61.2243 39.6898 63.5341C39.6898 63.8041 40.0051 63.6341 40.0576 63.4841C40.6349 61.4017 40.848 59.243 40.6881 57.0947C40.6413 55.5375 40.3436 53.9964 39.8054 52.5251C41.4447 53.775 43.5674 53.2751 45.7321 51.9452C46.1232 52.5054 46.4743 53.09 46.7829 53.695C47.2453 54.6949 47.9599 55.9948 47.7392 57.0847C47.7392 57.3047 48.0124 57.1747 48.0544 57.0847C48.207 55.9584 48.0326 54.8137 47.55 53.775C47.3686 52.9451 47.011 52.1591 46.4992 51.4652L46.909 51.1753C47.0667 51.4452 47.3083 51.6952 47.466 51.9452C47.7851 52.4159 48.0763 52.9033 48.3382 53.4051C48.4327 53.615 48.8005 53.3351 48.748 53.1651C48.5904 52.6351 48.4012 52.1152 48.191 51.6052C48.0541 51.2513 47.8705 50.9153 47.6446 50.6053C50.8551 47.8063 53.734 44.6813 56.2299 41.2862C56.7894 40.5297 57.2882 39.7342 57.7221 38.9064C57.9105 39.0145 58.1164 39.0922 58.3315 39.1364C58.8699 39.3668 59.4393 39.5249 60.0234 39.6063C60.1915 39.6063 60.4752 39.2864 60.223 39.2564C59.7636 39.1827 59.3263 39.0156 58.941 38.7664C58.7729 38.6664 58.5837 38.6064 58.3946 38.5164L58.0478 38.2865C58.1739 38.0465 58.2895 37.8065 58.3946 37.5565C59.1565 37.9309 59.9965 38.1392 60.8535 38.1665C62.2256 38.3225 63.6157 38.2514 64.9623 37.9565C65.1619 37.9565 65.4456 37.4565 65.0989 37.5165C62.9461 37.8373 60.742 37.5847 58.7309 36.7866C59.0288 36.0877 59.2849 35.3733 59.498 34.6468C59.6209 34.537 59.7053 34.3939 59.7396 34.2368C59.7561 34.0772 59.7561 33.9165 59.7396 33.7569C59.7346 33.7137 59.7346 33.6701 59.7396 33.6269L60.0969 33.5569C60.4962 33.4569 60.8851 33.4069 61.2844 33.2769C61.3895 33.2769 61.5261 32.9869 61.2844 33.0269C60.7961 33.1381 60.2913 33.1685 59.7922 33.1169C59.949 32.2703 59.895 31.4004 59.6346 30.5772C61.2791 31.0371 63.0112 31.1393 64.7028 30.8762C66.3944 30.6132 68.0022 29.9915 69.4073 29.0573ZM47.8968 38.1765C47.3653 38.7544 46.8705 39.3621 46.4151 39.9963C44.913 41.693 43.7453 43.634 42.9684 45.7258C42.3347 46.9718 42.0145 48.3412 42.0332 49.7254C41.9805 50.1266 42.0118 50.5337 42.1254 50.9233C42.2391 51.3129 42.4327 51.6772 42.6952 51.9952C42.1179 52.0921 41.5235 52.0297 40.9824 51.8152C37.6092 50.4053 40.8037 45.3258 41.9701 43.496C44.6918 39.2264 47.8968 34.4968 52.3208 31.6071C53.5082 30.8371 55.8936 29.7372 57.4068 30.1972C57.7366 30.2883 58.0438 30.4413 58.3105 30.6472C58.6375 30.9147 58.8914 31.2537 59.0507 31.6351C59.2099 32.0164 59.2696 32.4288 59.2247 32.837C57.0495 31.5371 48.9161 37.1566 47.8968 38.1765Z" fill="#747678"/>
</g>
<g style="mix-blend-mode:multiply">
<path d="M107.573 196.652C107.311 196.652 107.216 196.912 107.51 196.962C111.501 197.775 115 200.039 117.262 203.271C117.178 204.451 117.945 205.631 120.026 206.721C120.359 206.919 120.71 207.086 121.076 207.221C124.229 208.511 128.107 208.511 131.459 208.221C135.963 207.827 140.368 206.733 144.499 204.981C145.477 204.611 146.443 204.211 147.421 203.771C149.081 203.001 152.107 201.381 152.864 199.382C154.241 197.732 154.966 195.562 156.426 193.892C158.234 191.822 159.736 189.312 161.975 187.623C162.237 187.423 161.765 187.303 161.596 187.403C159.396 188.84 157.461 190.613 155.869 192.652C154.647 194.076 153.665 195.671 152.959 197.382C152.507 195.052 150.205 193.952 147.19 193.552C147.29 192.769 147.448 191.994 147.662 191.232C148.02 190.022 148.472 188.303 149.564 187.483C149.775 187.323 149.386 187.213 149.239 187.303C148.093 188.043 147.547 189.462 147.011 190.622C146.499 191.49 146.171 192.444 146.044 193.432H145.466C145.529 193.082 145.466 192.682 145.582 192.332C145.712 191.655 145.891 190.987 146.118 190.332C146.191 190.072 145.634 190.042 145.54 190.242C145.256 190.842 145.004 191.432 144.783 192.052C144.592 192.476 144.468 192.924 144.415 193.382C138.52 193.312 131.406 194.942 129.199 195.382C128.089 195.638 127 195.972 125.942 196.382C125.855 196.154 125.734 195.938 125.585 195.742C125.281 195.142 124.899 194.582 124.45 194.072C124.303 193.962 123.788 194.072 123.987 194.242C124.343 194.638 124.599 195.107 124.733 195.612C124.807 195.832 124.923 196.032 125.017 196.242C125.075 196.391 125.117 196.545 125.143 196.702L124.239 197.092C123.862 196.204 123.284 195.405 122.548 194.752C121.453 193.631 120.167 192.694 118.744 191.982C118.523 191.882 117.903 192.072 118.271 192.282C120.453 193.566 122.217 195.4 123.367 197.582C122.535 197.991 121.728 198.445 120.95 198.942C120.751 198.945 120.559 199.012 120.404 199.132C120.265 199.269 120.142 199.42 120.036 199.582L119.9 199.672C119.784 199.602 119.668 199.552 119.532 199.482C119.09 199.272 118.702 199.032 118.25 198.862C118.124 198.862 117.798 198.932 118.008 199.052C118.535 199.3 119.008 199.639 119.406 200.051C118.578 200.686 117.926 201.503 117.504 202.431C116.408 200.822 114.948 199.468 113.229 198.467C111.51 197.467 109.578 196.847 107.573 196.652ZM134.18 204.261C135.122 204.138 136.056 203.961 136.976 203.731C139.69 203.312 142.302 202.432 144.689 201.131C146.241 200.49 147.62 199.522 148.724 198.302C149.107 197.979 149.417 197.586 149.636 197.146C149.855 196.706 149.977 196.228 149.995 195.742C150.598 196.072 151.087 196.562 151.403 197.152C153.274 200.881 146.317 203.081 143.795 203.861C137.911 205.681 131.185 207.591 124.88 206.861C123.199 206.681 120.183 205.921 119.196 204.401C118.979 204.078 118.829 203.718 118.754 203.341C118.678 202.862 118.726 202.372 118.892 201.914C119.059 201.456 119.34 201.044 119.71 200.711C120.625 203.491 132.457 204.431 134.18 204.261Z" fill="#A2A3A6"/>
</g>
<g style="mix-blend-mode:multiply">
<path d="M175.72 63.1442C173.092 58.7346 166.861 60.5444 164.213 63.8741C163.446 64.9139 163.058 66.1643 163.11 67.4338C162.006 71.5234 166.672 74.0131 170.465 72.5833C173.639 71.3634 177.79 66.6238 175.72 63.1442Z" fill="#A2A3A6"/>
</g>
<g style="mix-blend-mode:multiply">
<path d="M209.178 69.6836H208.789C207.969 69.2636 206.751 70.0635 206.078 70.6835C205.393 71.2889 204.971 72.1171 204.897 73.0042C204.823 73.8912 205.102 74.7724 205.679 75.473C207.192 77.2029 209.882 75.923 210.859 74.3531C211.837 72.7833 211.858 69.6036 209.178 69.6836Z" fill="#A2A3A6"/>
</g>
<g style="mix-blend-mode:multiply">
<path d="M177.285 141.747C177.152 141.737 177.019 141.737 176.886 141.747C176.066 141.327 174.847 142.117 174.175 142.747C173.492 143.352 173.073 144.178 172.999 145.063C172.925 145.947 173.202 146.826 173.775 147.526C175.299 149.266 177.979 147.976 178.967 146.406C179.954 144.837 179.965 141.667 177.285 141.747Z" fill="#A2A3A6"/>
</g>
<g style="mix-blend-mode:screen">
<path d="M20.3336 76.4429C20.2042 76.4331 20.0742 76.4331 19.9448 76.4429C19.1251 76.023 17.9061 76.8229 17.2231 77.4428C16.5156 78.0499 16.079 78.8915 16.0028 79.7951C15.9266 80.6987 16.2166 81.5957 16.8133 82.3024C18.3265 84.0322 21.0166 82.7523 21.9939 81.1825C22.9711 79.6126 23.0132 76.3629 20.3336 76.4429Z" fill="#A2A3A6"/>
</g>
<g style="mix-blend-mode:screen">
<path d="M18.2634 97.601H18.0217C17.5278 97.351 16.7817 97.8309 16.3719 98.2309C15.9564 98.5992 15.7011 99.1024 15.6564 99.641C15.6116 100.18 15.7807 100.715 16.1302 101.141C17.055 102.141 18.7048 101.411 19.2827 100.451C19.8607 99.4908 19.8922 97.551 18.2634 97.601Z" fill="#A2A3A6"/>
</g>
<g style="mix-blend-mode:screen">
<path d="M27.3951 57.2247C27.3184 57.2148 27.2406 57.2148 27.1639 57.2247C26.67 56.9647 25.9239 57.4447 25.5141 57.8446C25.0964 58.2117 24.8395 58.7152 24.7947 59.2545C24.7499 59.7938 24.9205 60.3294 25.2724 60.7544C26.1866 61.8143 27.8364 61.0344 28.4249 60.0744C29.0133 59.1145 29.0238 57.1747 27.3951 57.2247Z" fill="#A2A3A6"/>
</g>
<g style="mix-blend-mode:screen">
<path d="M133.129 13.2288H132.888C132.383 12.9788 131.648 13.4588 131.238 13.8587C130.82 14.2258 130.563 14.7292 130.519 15.2686C130.474 15.8079 130.644 16.3435 130.996 16.7685C131.921 17.8184 133.571 17.0384 134.149 16.0885C134.727 15.1386 134.748 13.1788 133.129 13.2288Z" fill="#A2A3A6"/>
</g>
<g style="mix-blend-mode:screen">
<path d="M192.596 44.2659C192.515 44.261 192.435 44.261 192.354 44.2659C191.86 44.0059 191.114 44.4959 190.704 44.8958C190.287 45.2612 190.031 45.763 189.986 46.3006C189.941 46.8383 190.111 47.3722 190.463 47.7956C191.387 48.8455 193.037 48.0655 193.615 47.1156C194.193 46.1657 194.225 44.2259 192.596 44.2659Z" fill="#A2A3A6"/>
</g>
<g style="mix-blend-mode:screen">
<path d="M194.592 59.7445H194.361C193.867 59.4945 193.121 59.9745 192.711 60.3744C192.294 60.7415 192.037 61.2449 191.992 61.7843C191.947 62.3236 192.118 62.8592 192.47 63.2841C193.395 64.2841 195.044 63.5541 195.622 62.5942C196.2 61.6343 196.221 59.6945 194.592 59.7445Z" fill="#A2A3A6"/>
</g>
<g style="mix-blend-mode:multiply">
<path d="M94.5745 22.098C94.4452 22.0876 94.3151 22.0876 94.1857 22.098C93.3661 21.678 92.1471 22.4779 91.4641 23.0979C90.7453 23.7064 90.3006 24.5551 90.2224 25.4675C90.1441 26.3799 90.4383 27.286 91.0437 27.9974C92.5569 29.7272 95.2471 28.4374 96.2243 26.8775C97.2016 25.3177 97.2226 21.998 94.5745 22.098Z" fill="#A2A3A6"/>
</g>
<g style="mix-blend-mode:multiply">
<path d="M154.798 108.91C154.793 108.889 154.785 108.87 154.772 108.852C154.759 108.835 154.743 108.821 154.724 108.81H154.629C154.544 108.76 154.452 108.72 154.356 108.69H154.167C153.678 108.711 153.218 108.913 152.884 109.253C152.55 109.593 152.369 110.044 152.381 110.51C152.342 110.708 152.353 110.912 152.413 111.105C152.474 111.297 152.581 111.474 152.727 111.62C153.305 112.06 154.083 111.62 154.493 111.18C154.884 110.742 155.097 110.185 155.092 109.61C155.093 109.349 154.988 109.098 154.798 108.91Z" fill="#A2A3A6"/>
</g>
<g style="mix-blend-mode:multiply">
<path d="M96.7498 160.595C95.6218 161.466 94.3952 162.213 93.0929 162.825C92.641 163.085 92.0421 163.295 91.5272 163.585C91.1653 162.627 90.7262 161.698 90.2136 160.805C90.6844 160.396 91.0913 159.924 91.4221 159.405C92.0736 158.405 93.1139 157.775 93.5237 156.645C93.6393 156.336 93.1454 156.506 93.0509 156.645C92.4689 157.473 91.7357 158.194 90.8861 158.775C90.5709 159.055 90.3187 159.425 90.0035 159.725L89.6672 159.985C87.0735 155.918 83.2292 152.706 78.6545 150.786C78.3918 150.676 78.1081 150.586 77.8349 150.486C78.0135 150.166 78.1606 149.826 78.3077 149.486C78.6876 148.779 78.9331 148.014 79.0328 147.226C79.0328 147.006 78.686 147.226 78.644 147.326C78.4313 148.147 78.0761 148.927 77.5932 149.636C77.4527 149.833 77.3019 150.023 77.1413 150.206C73.3651 148.94 69.2609 148.863 65.4351 149.986C65.254 149.25 64.8941 148.566 64.3843 147.986C63.5121 146.596 62.9866 144.987 62.0934 143.657C61.9884 143.507 61.6311 143.777 61.7151 143.927C62.3391 145.223 62.8658 146.559 63.2914 147.926C63.5111 148.496 63.7637 149.053 64.048 149.596C64.1636 149.856 64.2371 150.146 64.3317 150.406C63.5125 150.748 62.7311 151.167 61.9989 151.656C60.8914 149.846 59.5615 148.168 58.0372 146.656C57.8691 146.496 57.4803 146.826 57.6274 146.996C58.983 148.686 59.7291 150.706 60.8535 152.516C58.7906 154.308 57.5177 156.776 57.2912 159.425C56.8657 161.042 56.7307 162.715 56.8918 164.375H56.6291C55.9062 164.448 55.1752 164.391 54.4749 164.205C54.2332 164.115 53.7814 164.525 54.0546 164.695C54.9434 165.197 55.9797 165.411 57.0074 165.305C57.3636 167.549 58.2083 169.698 59.4874 171.614C62.1726 175.62 65.84 178.945 70.1743 181.303C70.0902 181.533 70.0272 181.773 69.9642 181.993C69.9011 182.213 69.8486 182.383 69.7855 182.573C69.7638 182.658 69.7357 182.742 69.7014 182.823C69.6384 183.003 69.5543 182.993 69.775 182.893C69.6174 182.973 69.3442 183.403 69.7014 183.333C70.0587 183.263 70.3109 182.743 70.5001 182.463C70.6892 182.183 70.8153 181.963 70.9624 181.703C73.9304 183.262 77.3365 183.898 80.7036 183.523C80.7116 184.111 80.8144 184.694 81.0084 185.253C81.3207 186.17 81.5734 187.105 81.765 188.053C81.765 188.053 81.765 188.053 81.765 188.103C81.759 188.156 81.759 188.209 81.765 188.263C81.849 188.553 82.3009 188.203 82.3429 188.053C82.5581 187.097 82.6113 186.115 82.5005 185.143C82.5005 184.513 82.2483 183.833 82.2799 183.193C84.1132 182.655 85.7945 181.728 87.1977 180.483C87.2957 180.811 87.4679 181.115 87.7021 181.373C88.6584 182.573 89.5516 183.813 90.4973 185.023C90.6655 185.233 91.1489 184.843 91.0543 184.633C90.5604 183.633 90.119 182.633 89.5936 181.633C89.1414 180.986 88.761 180.296 88.4587 179.573C88.4457 179.507 88.4085 179.447 88.3537 179.403C88.4482 179.293 88.5533 179.193 88.6479 179.093L88.9001 178.793C89.0907 179.033 89.3132 179.248 89.5621 179.433C89.9718 179.785 90.4232 180.091 90.9072 180.343C91.1173 180.443 91.5692 180.063 91.3695 179.883C90.9771 179.548 90.6247 179.172 90.3187 178.763C90.1276 178.426 89.8909 178.113 89.6146 177.834C91.0145 175.948 91.9382 173.781 92.3136 171.5C92.6891 169.219 92.5063 166.887 91.7794 164.685L92.1682 164.435C92.7018 164.134 93.2143 163.8 93.7024 163.435C94.8968 162.684 95.9968 161.805 96.981 160.815C97.3487 160.555 96.9915 160.365 96.7498 160.595ZM89.6987 173.884C86.4622 185.953 71.5404 181.033 64.9937 175.414C61.7324 172.633 59.4657 168.951 58.5101 164.885C58.6257 164.745 58.6783 164.575 58.5101 164.495H58.4576C57.4068 158.415 60.244 152.556 69.2496 151.106C79.6423 151.576 92.8302 162.215 89.6987 173.884Z" fill="#A2A3A6"/>
</g>
<g style="mix-blend-mode:multiply">
<path d="M188.823 163.095C189.202 162.675 189.57 162.245 189.927 161.815C190.084 161.635 189.832 161.585 189.706 161.725C189.359 162.095 188.992 162.465 188.655 162.835C188.303 163.146 187.972 163.481 187.668 163.835C187.505 163.666 187.33 163.509 187.142 163.365C186.689 163.063 186.175 162.853 185.633 162.748C185.09 162.643 184.531 162.645 183.99 162.755C184.032 162.28 183.979 161.801 183.832 161.345C183.769 161.205 183.527 161.345 183.559 161.505C183.681 161.932 183.709 162.377 183.643 162.815C182.884 162.965 182.147 163.2 181.447 163.515L181.289 163.155C181.176 162.862 181.109 162.556 181.089 162.245C181.089 162.065 180.806 162.245 180.795 162.345C180.794 162.808 180.89 163.268 181.079 163.695L180.942 163.775C180.795 163.505 180.627 163.245 180.511 162.985C180.396 162.725 180.186 162.985 180.238 163.135C180.354 163.415 180.501 163.675 180.638 163.935C180.021 164.298 179.456 164.735 178.956 165.235C178.262 164.681 177.622 164.068 177.044 163.405C176.97 163.315 176.749 163.485 176.823 163.585C177.222 164.105 177.695 164.585 178.116 165.025C178.269 165.217 178.434 165.401 178.609 165.575C177.61 166.544 176.799 167.675 176.214 168.914C175.877 168.744 175.509 168.634 175.163 168.484C174.627 168.254 174.112 168.024 173.513 167.814C173.366 167.814 173.093 168.024 173.261 168.104C173.776 168.374 174.312 168.664 174.763 168.954C175.126 169.194 175.513 169.398 175.919 169.564C175.528 170.454 175.246 171.383 175.079 172.334C175.047 172.65 175.047 172.968 175.079 173.284C174.84 173.366 174.586 173.4 174.333 173.384C174.185 173.384 173.902 173.584 174.08 173.674C174.364 173.739 174.659 173.739 174.942 173.674H175.163C175.201 173.875 175.258 174.072 175.331 174.264C174.922 174.505 174.456 174.643 173.975 174.664C173.839 174.664 173.607 174.914 173.818 174.944C174.247 174.989 174.682 174.927 175.079 174.764L175.541 174.614C175.756 175.032 176.075 175.394 176.471 175.667C176.866 175.941 177.326 176.118 177.811 176.184C178.115 176.209 178.421 176.209 178.725 176.184C178.483 176.654 177.958 177.694 178.389 177.814C178.434 177.82 178.481 177.81 178.52 177.786C178.558 177.762 178.587 177.726 178.599 177.684C178.599 177.574 178.599 177.474 178.599 177.364C178.668 177.174 178.752 176.99 178.851 176.814C178.956 176.594 179.093 176.384 179.177 176.164C180.156 176.071 181.108 175.803 181.983 175.374C181.856 175.67 181.807 175.991 181.838 176.309C181.869 176.628 181.98 176.934 182.161 177.204C182.298 177.354 182.624 177.064 182.518 176.904C182.35 176.596 182.309 176.239 182.403 175.904C182.461 175.67 182.461 175.427 182.403 175.194C182.938 174.899 183.447 174.565 183.927 174.194C185.113 173.221 186.14 172.085 186.974 170.824L187.3 170.994C187.672 171.256 188.074 171.477 188.498 171.654C188.624 171.654 188.897 171.464 188.729 171.374C188.361 171.174 188.151 170.794 187.804 170.564L187.352 170.234C187.844 169.433 188.219 168.572 188.466 167.674C188.768 167.648 189.066 167.598 189.359 167.524C189.485 167.524 189.706 167.225 189.496 167.215C189.328 167.2 189.159 167.2 188.992 167.215C188.848 167.225 188.704 167.225 188.561 167.215C188.592 167.076 188.613 166.936 188.624 166.795C188.908 166.795 189.202 166.665 189.475 166.635C189.748 166.605 189.822 166.335 189.612 166.325C189.29 166.29 188.966 166.29 188.645 166.325C188.689 165.469 188.422 164.625 187.888 163.935C188.23 163.687 188.544 163.405 188.823 163.095ZM183.716 173.044C181.342 175.044 176.361 176.274 176.361 171.854C176.405 170.816 176.666 169.796 177.128 168.854C178.82 166.205 182.844 161.945 186.301 164.855C188.781 166.855 185.377 171.654 183.716 173.044Z" fill="#A2A3A6"/>
</g>
<g style="mix-blend-mode:multiply">
<path d="M192.134 80.8925L192.323 79.8426C192.323 79.6926 192.186 79.7426 192.165 79.8426C192.092 80.1526 192.018 80.4725 191.934 80.7825C191.848 81.0721 191.778 81.3658 191.724 81.6624C191.582 81.6094 191.434 81.5725 191.282 81.5524C190.922 81.5221 190.559 81.5623 190.216 81.6707C189.872 81.779 189.556 81.9532 189.286 82.1824C189.154 81.9028 188.965 81.6511 188.729 81.4425C188.655 81.3825 188.571 81.5624 188.634 81.6124C188.842 81.8176 189.006 82.0585 189.118 82.3224C188.744 82.6357 188.412 82.9917 188.13 83.3823L187.92 83.2323C187.753 83.1033 187.61 82.9476 187.499 82.7723C187.436 82.6823 187.342 82.8623 187.373 82.9223C187.533 83.1786 187.739 83.4056 187.983 83.5923C187.985 83.6189 187.985 83.6456 187.983 83.6722C187.808 83.5783 187.64 83.4749 187.478 83.3623C187.394 83.3623 187.31 83.4923 187.384 83.5423C187.457 83.5923 187.71 83.7522 187.867 83.8622C187.652 84.2556 187.486 84.6718 187.373 85.1021C186.8 85.0027 186.238 84.8555 185.692 84.6622C185.618 84.6622 185.555 84.7921 185.629 84.8221C186.018 84.9921 186.428 85.0921 186.827 85.2421C186.984 85.2421 187.132 85.3521 187.289 85.3921C187.044 86.2375 186.962 87.1185 187.048 87.9918C186.806 87.9918 186.554 88.0518 186.322 88.0718C185.934 88.0718 185.545 88.1418 185.167 88.2018C185.072 88.2018 185.009 88.4518 185.167 88.4418C185.545 88.4418 185.923 88.4418 186.291 88.4418C186.574 88.4671 186.859 88.4671 187.142 88.4418C187.225 89.0563 187.38 89.6599 187.604 90.2416C187.689 90.4298 187.791 90.6104 187.909 90.7816C187.807 90.9053 187.673 91.0018 187.52 91.0616C187.436 91.0616 187.352 91.3015 187.52 91.3015C187.702 91.2584 187.871 91.1763 188.014 91.0616L188.119 90.9816C188.208 91.0842 188.31 91.175 188.424 91.2515C188.278 91.5088 188.064 91.7258 187.804 91.8815C187.731 91.8815 187.678 92.1315 187.804 92.0915C188.062 91.9841 188.286 91.8153 188.456 91.6015L188.666 91.3815C188.925 91.5484 189.224 91.6521 189.535 91.6835C189.847 91.7149 190.162 91.673 190.452 91.5615C190.634 91.4924 190.81 91.4087 190.978 91.3115C190.978 91.6415 191.051 92.3914 191.335 92.3114C191.363 92.3004 191.385 92.2801 191.399 92.2544C191.412 92.2288 191.416 92.1993 191.408 92.1715C191.349 92.1171 191.296 92.0567 191.251 91.9915C191.235 91.8652 191.235 91.7377 191.251 91.6115C191.262 91.4584 191.262 91.3047 191.251 91.1516C191.773 90.8032 192.219 90.3617 192.564 89.8517C192.589 90.0612 192.666 90.2619 192.791 90.4362C192.915 90.6106 193.083 90.7532 193.279 90.8516C193.405 90.8516 193.489 90.6316 193.374 90.5716C193.169 90.4489 193.022 90.2553 192.964 90.0317C192.923 89.8841 192.848 89.7473 192.743 89.6317C192.939 89.3102 193.111 88.9761 193.258 88.6318C193.596 87.7314 193.787 86.7873 193.825 85.832H194.067C194.36 85.862 194.656 85.862 194.95 85.832C195.034 85.832 195.118 85.6021 194.95 85.6021C194.782 85.6021 194.435 85.4521 194.162 85.4321L193.794 85.3821C193.801 84.7876 193.72 84.195 193.552 83.6222C193.713 83.5139 193.864 83.3935 194.004 83.2623C194.067 83.2123 194.099 82.9923 194.004 83.0523L193.731 83.2223C193.656 83.2778 193.57 83.3186 193.479 83.3423C193.448 83.2573 193.413 83.1738 193.374 83.0923C193.531 82.9923 193.657 82.8423 193.794 82.7423C193.93 82.6423 193.888 82.4724 193.794 82.5224C193.605 82.6111 193.428 82.722 193.268 82.8523C193.006 82.3602 192.571 81.971 192.039 81.7524C192.101 81.4696 192.133 81.1815 192.134 80.8925ZM192.627 87.9918C191.976 89.8317 189.601 91.9915 188.13 89.5617C187.801 88.9691 187.601 88.3196 187.541 87.6519C187.594 85.6521 188.414 82.0624 191.303 82.6523C193.353 82.9923 193.079 86.712 192.627 87.9918Z" fill="#A2A3A6"/>
</g>
<g style="mix-blend-mode:multiply">
<path d="M214.169 114.439C214.411 113.789 214.632 113.14 214.852 112.44C214.947 112.16 214.632 112.22 214.558 112.44L213.833 114.189C213.572 114.708 213.347 115.242 213.161 115.789C212.898 115.659 212.624 115.552 212.341 115.469C211.667 115.305 210.964 115.277 210.278 115.387C209.592 115.497 208.938 115.743 208.358 116.109C208.185 115.543 207.9 115.014 207.518 114.549C207.381 114.419 207.181 114.729 207.276 114.849C207.613 115.292 207.853 115.796 207.98 116.329C207.178 116.829 206.438 117.413 205.773 118.069L205.416 117.719C205.143 117.422 204.923 117.084 204.764 116.719C204.68 116.519 204.428 116.819 204.47 116.959C204.688 117.496 205.013 117.989 205.426 118.409L205.3 118.549C205.006 118.309 204.701 118.079 204.439 117.819C204.176 117.559 204.092 117.999 204.197 118.119C204.46 118.379 204.754 118.619 205.038 118.879C204.488 119.553 204.039 120.297 203.703 121.089C202.636 120.74 201.606 120.298 200.624 119.769C200.498 119.709 200.33 119.999 200.456 120.079C201.16 120.509 201.906 120.819 202.631 121.199C202.894 121.339 203.167 121.509 203.451 121.629C202.747 123.174 202.337 124.826 202.242 126.508C201.78 126.448 201.297 126.508 200.834 126.448C200.088 126.448 199.353 126.378 198.607 126.378C198.407 126.378 198.207 126.798 198.449 126.818C199.174 126.908 199.889 127.038 200.603 127.168C201.13 127.288 201.669 127.359 202.211 127.378C202.175 128.573 202.285 129.767 202.537 130.938C202.634 131.318 202.775 131.687 202.957 132.038C202.719 132.243 202.435 132.393 202.127 132.478C201.948 132.478 201.728 132.898 201.98 132.918C202.354 132.902 202.717 132.792 203.031 132.598L203.272 132.488C203.411 132.701 203.569 132.901 203.745 133.088C203.383 133.531 202.905 133.876 202.358 134.088C202.2 134.138 202.053 134.528 202.358 134.488C202.88 134.355 203.358 134.097 203.745 133.738L204.208 133.368C204.651 133.762 205.19 134.045 205.777 134.194C206.363 134.342 206.979 134.35 207.57 134.218C207.928 134.132 208.28 134.022 208.621 133.888C208.568 134.528 208.442 135.957 208.989 135.887C209.044 135.878 209.092 135.849 209.126 135.806C209.159 135.763 209.174 135.71 209.167 135.657C209.167 135.517 209.083 135.397 209.062 135.257C209.041 135.015 209.041 134.77 209.062 134.528C209.062 134.228 209.125 133.928 209.062 133.628C210.153 133.107 211.133 132.399 211.952 131.538C211.952 131.926 212.047 132.309 212.229 132.656C212.412 133.003 212.677 133.305 213.003 133.538C213.234 133.648 213.465 133.188 213.276 133.038C212.922 132.744 212.7 132.333 212.656 131.888C212.622 131.591 212.522 131.305 212.362 131.048C212.851 130.492 213.287 129.897 213.665 129.268C214.578 127.646 215.233 125.904 215.609 124.099H216.071C216.622 124.235 217.185 124.319 217.753 124.348C217.931 124.348 218.131 123.959 217.9 123.919C217.374 123.859 216.965 123.499 216.46 123.379L215.767 123.189C215.965 122.055 215.997 120.901 215.861 119.759C216.197 119.599 216.521 119.415 216.828 119.209C216.975 119.139 217.08 118.709 216.828 118.789C216.632 118.865 216.442 118.955 216.261 119.059C216.096 119.128 215.923 119.179 215.746 119.209C215.746 119.029 215.662 118.859 215.62 118.699C215.945 118.549 216.229 118.299 216.534 118.139C216.67 118.079 216.796 117.659 216.534 117.729C216.165 117.85 215.813 118.011 215.483 118.209C215.133 117.196 214.423 116.33 213.476 115.759C213.757 115.345 213.989 114.902 214.169 114.439ZM212.929 128.108C211.111 131.428 205.91 134.977 203.861 129.848C203.428 128.622 203.25 127.329 203.335 126.038C204.06 122.249 206.729 115.609 212.068 117.469C215.893 118.799 214.18 125.798 212.929 128.108Z" fill="#A2A3A6"/>
</g>
<g style="mix-blend-mode:multiply">
<path d="M41.161 125.038C39.3221 121.039 33.9313 120.959 30.6527 123.319C29.2106 124.354 28.148 125.795 27.6158 127.438C27.2567 128.198 27.0126 129.003 26.8908 129.828C26.7752 131.015 27.016 132.209 27.5852 133.271C28.1544 134.333 29.0287 135.219 30.1063 135.827C31.017 136.609 32.1605 137.102 33.3785 137.238C34.5965 137.374 35.8289 137.147 36.9052 136.587C37.3086 136.341 37.6791 136.049 38.0085 135.717C39.7254 134.539 40.9719 132.841 41.5444 130.902C42.1169 128.962 41.9818 126.895 41.161 125.038Z" fill="#A2A3A6"/>
</g>
<g style="mix-blend-mode:multiply">
<path d="M46.7303 137.717C46.5039 137.692 46.2743 137.713 46.0569 137.778C45.8395 137.844 45.6392 137.952 45.4693 138.097C45.1446 138.2 44.8714 138.414 44.7022 138.697C44.6214 138.833 44.5721 138.983 44.5576 139.138C44.5431 139.294 44.5638 139.45 44.6182 139.597C44.6131 139.637 44.6131 139.677 44.6182 139.717C44.5744 140.113 44.6826 140.511 44.9229 140.837C45.0473 140.981 45.2116 141.09 45.3973 141.15C45.583 141.21 45.7827 141.219 45.9737 141.177C46.1381 141.25 46.3109 141.303 46.4887 141.337C47.5395 141.457 48.212 140.437 48.2646 139.597C48.2931 139.16 48.1531 138.727 47.8706 138.381C47.5882 138.035 47.1827 137.799 46.7303 137.717Z" fill="#A2A3A6"/>
</g>
<g style="mix-blend-mode:multiply">
<path d="M67.1689 120.639C66.1181 118.909 64.09 119.099 62.5033 119.939C61.4372 120.237 60.494 120.841 59.8026 121.669C59.0996 122.618 58.7617 123.768 58.8459 124.927C58.9301 126.085 59.4313 127.18 60.265 128.028C60.4402 128.194 60.634 128.342 60.843 128.468C61.1686 128.742 61.5695 128.923 61.9989 128.988C62.8551 129.123 63.7339 129.032 64.5398 128.726C65.3457 128.419 66.0478 127.908 66.57 127.248C67.327 126.318 67.7861 125.2 67.8924 124.027C67.9986 122.855 67.7474 121.679 67.1689 120.639Z" fill="#A2A3A6"/>
</g>
<g style="mix-blend-mode:multiply">
<path d="M42.6216 98.0709C42.0346 97.9595 41.4264 98.0095 40.8682 98.2149C40.3099 98.4203 39.8246 98.7726 39.4691 99.2308C38.6243 99.9108 37.9965 100.802 37.6566 101.804C37.3167 102.806 37.2785 103.879 37.5461 104.9C37.8151 105.783 38.3117 106.587 38.9907 107.24C39.6698 107.893 40.5098 108.375 41.4341 108.64C41.5707 108.71 41.6968 108.78 41.8439 108.84C45.4588 110.16 49.1262 107.17 49.0631 103.6C48.9791 99.8608 46.3205 97.7509 42.6216 98.0709Z" fill="#A2A3A6"/>
</g>
<g style="mix-blend-mode:screen" opacity="0.4">
<path d="M121.245 164.415C119.847 161.355 115.749 161.325 113.237 163.115C112.141 163.895 111.334 164.988 110.936 166.235C110.661 166.813 110.473 167.426 110.379 168.054C110.29 168.96 110.473 169.871 110.907 170.681C111.34 171.492 112.006 172.169 112.827 172.634C113.518 173.224 114.383 173.597 115.305 173.701C116.227 173.805 117.16 173.635 117.976 173.214C118.285 173.028 118.567 172.807 118.817 172.554C120.13 171.659 121.085 170.367 121.526 168.888C121.967 167.41 121.868 165.833 121.245 164.415Z" fill="#A2A3A6"/>
</g>
<g style="mix-blend-mode:screen" opacity="0.4">
<path d="M140.979 161.085C140.202 159.765 138.636 159.905 137.427 160.545C136.778 160.718 136.187 161.049 135.713 161.506C135.239 161.963 134.9 162.53 134.727 163.151C134.555 163.771 134.557 164.424 134.732 165.044C134.907 165.664 135.249 166.229 135.725 166.685C135.864 166.807 136.012 166.92 136.166 167.025C136.418 167.214 136.72 167.335 137.039 167.374C137.687 167.476 138.351 167.407 138.961 167.174C139.57 166.941 140.101 166.554 140.496 166.055C141.064 165.356 141.412 164.517 141.498 163.637C141.583 162.757 141.403 161.871 140.979 161.085Z" fill="#A2A3A6"/>
</g>
<g style="mix-blend-mode:screen" opacity="0.4">
<path d="M122.348 143.987C121.902 143.901 121.439 143.938 121.015 144.094C120.59 144.25 120.222 144.518 119.952 144.867C119.314 145.384 118.84 146.061 118.584 146.82C118.328 147.58 118.3 148.392 118.502 149.166C118.705 149.835 119.08 150.446 119.594 150.941C120.108 151.437 120.744 151.803 121.444 152.006C121.546 152.062 121.651 152.112 121.759 152.156C124.502 153.156 127.287 150.886 127.234 148.156C127.27 147.558 127.163 146.959 126.922 146.405C126.682 145.85 126.313 145.355 125.844 144.954C125.375 144.554 124.817 144.259 124.212 144.092C123.607 143.924 122.97 143.888 122.348 143.987Z" fill="#A2A3A6"/>
</g>
<g style="mix-blend-mode:multiply">
<path d="M178.925 38.2165C178.862 38.1465 178.777 38.1065 178.714 38.0465C178.492 37.6939 178.239 37.3595 177.958 37.0466C175.047 33.9069 170.371 35.4367 168.059 38.3364C165.747 41.2362 166.031 45.0458 169.183 46.9956C171.863 48.6955 175.593 47.8456 177.937 46.0757C180.28 44.3059 181.236 40.4563 178.925 38.2165Z" fill="#A2A3A6"/>
</g>
<defs>
<radialGradient id="paint0_radial_47_38" cx="0" cy="0" r="1" gradientUnits="userSpaceOnUse" gradientTransform="translate(55.2316 49.7254) scale(211.921 201.651)">
<stop stop-color="#E3F3FC"/>
<stop offset="0.22" stop-color="#AEB8BE"/>
<stop offset="0.61" stop-color="#8DA4B0"/>
<stop offset="1" stop-color="#3A3B3D"/>
</radialGradient>
<radialGradient id="paint1_radial_47_38" cx="0" cy="0" r="1" gradientUnits="userSpaceOnUse" gradientTransform="translate(99.7867 105) scale(162.332 154.466)">
<stop stop-color="#E3F3FC"/>
<stop offset="0.3" stop-color="white"/>
<stop offset="0.98" stop-color="#68696C"/>
</radialGradient>
</defs>
</svg>
